<?xml version="1.0" standalone="no"?>
<!DOCTYPE svg PUBLIC "-//W3C//DTD SVG 1.1//EN" "http://www.w3.org/Graphics/SVG/1.1/DTD/svg11.dtd" >
<svg xmlns="http://www.w3.org/2000/svg" xmlns:xlink="http://www.w3.org/1999/xlink" version="1.1" viewBox="0 -410 2048 2048">
  <g transform="matrix(1 0 0 -1 0 1638)">
   <path fill="currentColor"
d="M1708 581l-214 -216q-5 -5 -12.5 -6t-14 1.5t-11 8.5t-4.5 14v136q0 11 -6.5 17.5t-17.5 6.5h-1320q-11 0 -17.5 7.5t-6.5 18.5v60q0 9 6.5 16.5t17.5 7.5h1320q11 0 17.5 6.5t6.5 17.5v136q0 8 4.5 14t11 9t14 2t12.5 -7l214 -216q17 -17 0 -34z" />
  </g>

</svg>
