<?xml version="1.0" standalone="no"?>
<!DOCTYPE svg PUBLIC "-//W3C//DTD SVG 1.1//EN" "http://www.w3.org/Graphics/SVG/1.1/DTD/svg11.dtd" >
<svg xmlns="http://www.w3.org/2000/svg" xmlns:xlink="http://www.w3.org/1999/xlink" version="1.1" viewBox="0 -410 2048 2048">
  <g transform="matrix(1 0 0 -1 0 1638)">
   <path fill="currentColor"
d="M416 1463l216 -214q12 -12 5.5 -27t-23.5 -15h-136q-11 0 -17.5 -6.5t-6.5 -17.5v-1320q0 -11 -7.5 -17.5t-16.5 -6.5h-60q-11 0 -18.5 6.5t-7.5 17.5v1320q0 11 -6.5 17.5t-17.5 6.5h-136q-8 0 -14 4.5t-8.5 10.5t-1.5 13.5t6 13.5l216 214q17 17 34 0z" />
  </g>

</svg>
