<?xml version="1.0" standalone="no"?>
<!DOCTYPE svg PUBLIC "-//W3C//DTD SVG 1.1//EN" "http://www.w3.org/Graphics/SVG/1.1/DTD/svg11.dtd" >
<svg xmlns="http://www.w3.org/2000/svg" xmlns:xlink="http://www.w3.org/1999/xlink" version="1.1" viewBox="0 -410 2048 2048">
  <g transform="matrix(1 0 0 -1 0 1638)">
   <path fill="currentColor"
d="M1585 1157q12 11 28 10.5t26 -13.5q65 -85 106.5 -180.5t59.5 -196t12 -202.5t-35.5 -200t-82.5 -189t-129 -169q-81 -82 -178.5 -138.5t-203.5 -86t-217 -32.5t-218 21.5t-207 75.5t-185 130q-91 84 -152 185t-93 211t-34.5 225t24.5 226t83 214t142 190l-24 24
l-171 171q-8 8 -9.5 18t2.5 19.5t12 16t19 6.5l501 9q16 0 27 -11t9 -25l-6 -501q0 -12 -6.5 -21t-15.5 -13t-19.5 -2.5t-18.5 9.5l-171 171l-36 36q-73 -74 -120.5 -161t-70.5 -181t-21 -191t28.5 -190t77.5 -179t127 -157q69 -64 150 -107.5t168.5 -66t178 -23.5t178 19
t169.5 61.5t152 104.5q110 98 171 224t73 260t-24.5 266.5t-120.5 245.5q-7 11 -6.5 24t9.5 24l42 39v0z" />
  </g>

</svg>
