<?xml version="1.0" standalone="no"?>
<!DOCTYPE svg PUBLIC "-//W3C//DTD SVG 1.1//EN" "http://www.w3.org/Graphics/SVG/1.1/DTD/svg11.dtd" >
<svg xmlns="http://www.w3.org/2000/svg" xmlns:xlink="http://www.w3.org/1999/xlink" version="1.1" viewBox="0 -410 2048 2048">
  <g transform="matrix(1 0 0 -1 0 1638)">
   <path fill="currentColor"
d="M1569 1238q85 -87 141.5 -190t83.5 -214t24.5 -226t-34.5 -225t-93 -211t-152 -185q-85 -79 -185 -130t-207 -75t-217.5 -21.5t-217 32.5t-204 86t-178.5 138q-77 78 -130 169t-82.5 189t-35 200t12.5 202.5t59.5 196t106.5 180.5q10 13 26 13.5t28 -10.5l42 -39
q9 -11 9.5 -24t-6.5 -24q-86 -113 -122 -245.5t-23.5 -266.5t73.5 -260t171 -224q70 -63 152 -104.5t169.5 -61.5t178 -19t178 23.5t168.5 65.5t150 108q76 71 127 157t77.5 179t28.5 190t-21 191t-70.5 181t-120.5 161l-36 -36l-171 -171q-8 -8 -18 -9.5t-19.5 2.5t-16 13
t-6.5 21l-9 501q0 14 11.5 25t27.5 11l498 -9q12 0 21 -6.5t13 -16t2.5 -19.5t-9.5 -18l-171 -171z" />
  </g>

</svg>
