<?xml version="1.0" standalone="no"?>
<!DOCTYPE svg PUBLIC "-//W3C//DTD SVG 1.1//EN" "http://www.w3.org/Graphics/SVG/1.1/DTD/svg11.dtd" >
<svg xmlns="http://www.w3.org/2000/svg" xmlns:xlink="http://www.w3.org/1999/xlink" version="1.1" viewBox="0 -410 2048 2048">
  <g transform="matrix(1 0 0 -1 0 1638)">
   <path fill="currentColor"
d="M1720 1062.03q9.99902 -10.999 9.99902 -26.998t-9.99902 -26.998l-357.979 -347.979q-7.99902 -7.99902 -18.998 -9.49902q-11 -1.5 -20.999 2.5q-10 3.99902 -15.999 12.999q-6 8.99902 -6 20.999v269.983q0 15.999 -9.99902 25.998q-10 9.99902 -25.998 9.99902
h-1013.94q-13.999 0 -24.999 -9.99902q-10.999 -9.99902 -10.999 -25.998v-578.965q0 -15.999 -9.99902 -25.999q-10 -9.99902 -25.999 -9.99902h-71.9951q-15.999 0 -25.998 9.99902q-10 10 -10 25.999v614.962v107.994q0 15.999 10 25.998q9.99902 9.99902 25.998 9.99902
h107.993h1049.94q15.998 0 25.998 11q9.99902 10.999 9.99902 24.998v209.987q0 11.999 6 20.999q5.99902 8.99902 15.999 12.999q9.99902 4 20.999 2.5q10.999 -1.5 18.998 -9.5l357.979 -347.979v0z" />
  </g>

</svg>
