<?xml version="1.0" standalone="no"?>
<!DOCTYPE svg PUBLIC "-//W3C//DTD SVG 1.1//EN" "http://www.w3.org/Graphics/SVG/1.1/DTD/svg11.dtd" >
<svg xmlns="http://www.w3.org/2000/svg" xmlns:xlink="http://www.w3.org/1999/xlink" version="1.1" viewBox="0 -410 2048 2048">
  <g transform="matrix(1 0 0 -1 0 1638)">
   <path fill="currentColor"
d="M80.1055 1062.03l357.978 347.979q8 8 18.999 9.5t20.999 -2.5q9.99902 -4 15.999 -12.999q5.99902 -9 5.99902 -20.999v-209.987q0 -13.999 10 -24.998q9.99902 -11 25.998 -11h1049.94h107.994q15.999 0 25.998 -9.99902t9.99902 -25.998v-107.994v-614.962
q0 -15.999 -9.99902 -25.999q-9.99902 -9.99902 -25.998 -9.99902h-71.9961q-15.999 0 -25.998 9.99902q-10 10 -10 25.999v578.965q0 15.999 -10.999 25.998t-24.998 9.99902h-1013.94q-15.999 0 -25.998 -9.99902q-10 -9.99902 -10 -25.998v-269.983
q0 -12 -5.99902 -20.999q-6 -9 -15.999 -12.999q-10 -4 -20.999 -2.5t-18.999 9.49902l-357.978 347.979q-10 10.999 -10 26.998t10 26.998z" />
  </g>

</svg>
