<?xml version="1.0" standalone="no"?>
<!DOCTYPE svg PUBLIC "-//W3C//DTD SVG 1.1//EN" "http://www.w3.org/Graphics/SVG/1.1/DTD/svg11.dtd" >
<svg xmlns="http://www.w3.org/2000/svg" xmlns:xlink="http://www.w3.org/1999/xlink" version="1.1" viewBox="0 -410 2048 2048">
  <g transform="matrix(1 0 0 -1 0 1638)">
   <path fill="currentColor"
d="M1134 1312q0 -16 -10 -26t-26 -10h-579q-16 0 -26 -11t-10 -25v-1014q0 -16 10 -26t26 -10h240q11 0 19.5 -6.5t12.5 -16t2.5 -20.5t-10.5 -20l-348 -357q-11 -11 -25.5 -11t-25.5 11l-348 357q-9 9 -10.5 20t2.5 20.5t12.5 16t19.5 6.5h240q16 0 26 10t10 26v1050v108
q0 16 11 26t25 10h111h615q16 0 26 -10t10 -26v-72v0z" />
  </g>

</svg>
