<?xml version="1.0" standalone="no"?>
<!DOCTYPE svg PUBLIC "-//W3C//DTD SVG 1.1//EN" "http://www.w3.org/Graphics/SVG/1.1/DTD/svg11.dtd" >
<svg xmlns="http://www.w3.org/2000/svg" xmlns:xlink="http://www.w3.org/1999/xlink" version="1.1" viewBox="0 -410 2048 2048">
  <g transform="matrix(1 0 0 -1 0 1638)">
   <path fill="currentColor"
d="M398 1380q11 11 27 11t27 -11l348 -357q8 -9 9.5 -19.5t-2.5 -20.5t-13 -16.5t-21 -6.5h-270q-16 0 -26 -10t-10 -26v-1014q0 -14 10 -25t26 -11h579q16 0 26 -10t10 -26v-72q0 -16 -10 -26t-26 -10h-615h-108q-16 0 -26 10t-10 26v108v1050q0 16 -11 26t-25 10h-210
q-12 0 -21 6.5t-13 16.5t-2.5 20.5t9.5 19.5l348 357v0z" />
  </g>

</svg>
