<?xml version="1.0" standalone="no"?>
<!DOCTYPE svg PUBLIC "-//W3C//DTD SVG 1.1//EN" "http://www.w3.org/Graphics/SVG/1.1/DTD/svg11.dtd" >
<svg xmlns="http://www.w3.org/2000/svg" xmlns:xlink="http://www.w3.org/1999/xlink" version="1.1" viewBox="0 -410 2048 2048">
  <g transform="matrix(1 0 0 -1 0 1638)">
   <path fill="currentColor"
d="M1099 190q11 0 19.5 -6.5t12.5 -16t2.5 -20.5t-10.5 -20l-348 -357q-11 -11 -25.5 -11t-25.5 11l-348 357q-9 9 -10.5 20t2.5 20.5t12.5 16t19.5 6.5h240q16 0 26 10t10 26v1014q0 14 -10 25t-26 11h-579q-16 0 -26 10t-10 26v72q0 16 10 26t26 10h615h111q14 0 25 -10
t11 -26v-108v-1050q0 -16 10 -26t26 -10h240z" />
  </g>

</svg>
