<?xml version="1.0" standalone="no"?>
<!DOCTYPE svg PUBLIC "-//W3C//DTD SVG 1.1//EN" "http://www.w3.org/Graphics/SVG/1.1/DTD/svg11.dtd" >
<svg xmlns="http://www.w3.org/2000/svg" xmlns:xlink="http://www.w3.org/1999/xlink" version="1.1" viewBox="0 -410 2048 2048">
  <g transform="matrix(1 0 0 -1 0 1638)">
   <path fill="currentColor"
d="M562 -53q0 16 10 26t26 10h870q14 0 25 -10t11 -26v-72q0 -16 -11 -26t-25 -10h-870q-16 0 -26 10t-10 26v72zM794 130q-12 0 -20 6t-12 15t-2 19.5t10 19.5l186 189q10 11 10 25.5t-10 25.5l-850 852q-10 9 -10 24.5t10 26.5l52 51q10 9 25 9t25 -9l852 -852
q10 -11 25 -11t27 11l186 186q8 9 19 11t21 -1.5t16 -12.5t6 -21v-528q0 -16 -11 -26t-27 -10h-528z" />
  </g>

</svg>
