<?xml version="1.0" standalone="no"?>
<!DOCTYPE svg PUBLIC "-//W3C//DTD SVG 1.1//EN" "http://www.w3.org/Graphics/SVG/1.1/DTD/svg11.dtd" >
<svg xmlns="http://www.w3.org/2000/svg" xmlns:xlink="http://www.w3.org/1999/xlink" version="1.1" viewBox="0 -410 2048 2048">
  <g transform="matrix(1 0 0 -1 0 1638)">
   <path fill="currentColor"
d="M989 1416q16 0 26 -10t10 -26v-72q0 -16 -10 -26t-26 -10h-870q-14 0 -25 10t-11 26v72q0 16 11 26t25 10h870zM1508 -48q9 -11 9 -26.5t-9 -24.5l-51 -51q-11 -11 -27 -11t-27 11l-873 873q-11 11 -26.5 11t-24.5 -11l-189 -186q-9 -9 -20 -10.5t-20.5 2.5t-16 13.5
t-6.5 21.5v528q0 14 11.5 25t27.5 11h528q11 0 19.5 -6.5t12.5 -16t2.5 -20.5t-10.5 -20l-186 -186q-11 -11 -11 -26.5t11 -24.5z" />
  </g>

</svg>
