<?xml version="1.0" standalone="no"?>
<!DOCTYPE svg PUBLIC "-//W3C//DTD SVG 1.1//EN" "http://www.w3.org/Graphics/SVG/1.1/DTD/svg11.dtd" >
<svg xmlns="http://www.w3.org/2000/svg" xmlns:xlink="http://www.w3.org/1999/xlink" version="1.1" viewBox="0 -410 2048 2048">
  <g transform="matrix(1 0 0 -1 0 1638)">
   <path fill="currentColor"
d="M599 530q-14 0 -25 -11t-11 -25v-237q0 -12 -6.5 -21t-15.5 -13t-19.5 -2.5t-18.5 9.5l-360 348q-11 11 -11 27t11 27l360 348q8 8 18.5 9.5t19.5 -2.5t15.5 -13t6.5 -21v-243q0 -14 11 -25t25 -11h219q14 0 25 -10t11 -26v-72q0 -16 -11 -26t-25 -10h-219zM1217 566
q0 -16 -11 -26t-25 -10h-219q-16 0 -26 10t-10 26v72q0 16 10 26t26 10h219q14 0 25 -10t11 -26v-72zM1577 566q0 -16 -10 -26t-26 -10h-216q-16 0 -26 10t-10 26v72q0 16 10 26t26 10h216q16 0 26 -10t10 -26v-72zM1868 566q0 -16 -11 -26t-25 -10h-144q-16 0 -27.5 10
t-11.5 26v72q0 16 11.5 26t27.5 10h144q14 0 25 -10t11 -26v-72z" />
  </g>

</svg>
