<?xml version="1.0" standalone="no"?>
<!DOCTYPE svg PUBLIC "-//W3C//DTD SVG 1.1//EN" "http://www.w3.org/Graphics/SVG/1.1/DTD/svg11.dtd" >
<svg xmlns="http://www.w3.org/2000/svg" xmlns:xlink="http://www.w3.org/1999/xlink" version="1.1" viewBox="0 -410 2048 2048">
  <g transform="matrix(1 0 0 -1 0 1638)">
   <path fill="currentColor"
d="M1296 1272q16 0 26 -10t10 -26v-528q0 -12 -7 -21t-17 -13.5t-21 -3t-19 10.5l-174 177q-10 9 -25 9t-25 -9l-864 -864q-10 -11 -25 -11t-27 11l-50 51q-10 11 -10 25.5t10 25.5l864 864q10 9 10 24.5t-10 26.5l-202 198q-8 8 -10 19t3 20.5t14 16.5t21 7h528v0z" />
  </g>

</svg>
