<?xml version="1.0" standalone="no"?>
<!DOCTYPE svg PUBLIC "-//W3C//DTD SVG 1.1//EN" "http://www.w3.org/Graphics/SVG/1.1/DTD/svg11.dtd" >
<svg xmlns="http://www.w3.org/2000/svg" xmlns:xlink="http://www.w3.org/1999/xlink" version="1.1" viewBox="0 -439 2048 2048">
  <g transform="matrix(1 0 0 -1 0 1638)">
   <path fill="currentColor"
d="M1086 866q-12 0 -21 6.5t-13 15.5t-3 19.5t9 18.5l352 360q8 11 24 11t26 -11l348 -360q8 -9 10 -19.5t-2 -19.5t-12 -15t-20 -6h-242q-14 0 -25 -10t-11 -26v-1233q0 -14 -10 -25t-26 -11h-72q-16 0 -26 11t-10 25v1233q0 16 -10 26t-26 10h-240zM998 1553q0 16 11 26
t25 10h798q16 0 26 -10t10 -26v-72q0 -14 -10 -25t-26 -11h-798q-14 0 -25 11t-11 25v72zM602 1589q14 0 25 -10t11 -26v-1230q0 -16 10 -26t26 -10h252q12 0 20 -6.5t12 -16t3 -20.5t-11 -20l-348 -357q-10 -11 -25 -11t-25 11l-348 357q-10 9 -11 20t3 20.5t12 16t20 6.5
h228q16 0 26 10t10 26v1230q0 16 11 26t25 10h74zM168 -439q-16 0 -26 11t-10 25v75q0 14 10 25t26 11h794q16 0 26 -11t10 -25v-75q0 -14 -10 -25t-26 -11h-794z" />
  </g>

</svg>
