<?xml version="1.0" standalone="no"?>
<!DOCTYPE svg PUBLIC "-//W3C//DTD SVG 1.1//EN" "http://www.w3.org/Graphics/SVG/1.1/DTD/svg11.dtd" >
<svg xmlns="http://www.w3.org/2000/svg" xmlns:xlink="http://www.w3.org/1999/xlink" version="1.1" viewBox="0 -410 2216 2048">
  <g transform="matrix(1 0 0 -1 0 1638)">
   <path fill="currentColor"
d="M910 1144q0 -16 10 -26t26 -10h1230q16 0 28 -11.5t12 -27.5v-72q0 -14 -12 -25t-28 -11h-1230q-16 0 -26 -10t-10 -26v-240q0 -12 -6 -21t-16 -13t-21 -2.5t-19 9.5l-358 351q-10 9 -10 24.5t10 26.5l358 348q8 9 19 10.5t21 -2.5t16 -12.5t6 -19.5v-240zM296 1468
q14 0 25 -10t11 -26v-795q0 -16 -11 -26t-25 -10h-72q-16 0 -28 10t-12 26v795q0 16 12 26t28 10h72zM1454 238q16 0 26 10t10 26v252q0 12 6 21t16 13t21 2.5t19 -9.5l358 -351q10 -9 10 -24.5t-10 -26.5l-358 -348q-8 -9 -19 -10.5t-21 2.5t-16 12.5t-6 19.5v228
q0 16 -10 26t-26 10h-1230q-16 0 -28 11.5t-12 27.5v72q0 14 12 25t28 11h1230zM2104 -269q-14 0 -25 10t-11 26v795q0 16 11 27.5t25 11.5h72q16 0 28 -11.5t12 -27.5v-795q0 -16 -12 -26t-28 -10h-72z" />
  </g>

</svg>
