<?xml version="1.0" standalone="no"?>
<!DOCTYPE svg PUBLIC "-//W3C//DTD SVG 1.1//EN" "http://www.w3.org/Graphics/SVG/1.1/DTD/svg11.dtd" >
<svg xmlns="http://www.w3.org/2000/svg" xmlns:xlink="http://www.w3.org/1999/xlink" version="1.1" viewBox="0 -410 2048 2048">
  <g transform="matrix(1 0 0 -1 0 1638)">
   <path fill="currentColor"
d="M490 -305q-8 -9 -24 -9t-26 9l-348 360q-10 9 -11 19.5t3 19.5t12 15t20 6h246q16 0 26 11.5t10 27.5v1302q0 16 11 26t27 10h72q14 0 25 -10t11 -26v-1302q0 -16 10 -27.5t26 -11.5h234q12 0 21 -6t13 -15t3 -19.5t-9 -19.5zM1310 1405q8 11 24 11t26 -11l348 -357
q10 -9 11 -20t-3 -20.5t-12 -16t-20 -6.5h-234q-16 0 -26 -10t-10 -26v-1230q0 -16 -11 -26t-27 -10h-72q-14 0 -25 10t-11 26v1230q0 16 -10 26t-26 10h-246q-12 0 -21 6.5t-13 16.5t-3 20.5t9 19.5z" />
  </g>

</svg>
