<?xml version="1.0" standalone="no"?>
<!DOCTYPE svg PUBLIC "-//W3C//DTD SVG 1.1//EN" "http://www.w3.org/Graphics/SVG/1.1/DTD/svg11.dtd" >
<svg xmlns="http://www.w3.org/2000/svg" xmlns:xlink="http://www.w3.org/1999/xlink" version="1.1" viewBox="0 -410 2048 2048">
  <g transform="matrix(1 0 0 -1 0 1638)">
   <path fill="currentColor"
d="M566 957q-16 0 -26 -10t-10 -26v-234q0 -12 -6 -21t-16 -13t-21 -2.5t-19 9.5l-358 351q-10 9 -10 24.5t10 26.5l358 348q8 9 19 10.5t21 -2.5t16 -12.5t6 -19.5v-246q0 -16 10 -26t26 -10h1302q16 0 26 -11.5t10 -27.5v-72q0 -14 -10 -25t-26 -11h-1302zM1892 192
q10 -9 10 -24.5t-10 -26.5l-360 -348q-8 -9 -19 -10.5t-20 2.5t-15 12.5t-6 19.5v234q0 16 -11 26t-27 10h-1302q-16 0 -26 11.5t-10 27.5v72q0 14 10 25t26 11h1302q16 0 27 10t11 26v246q0 12 6 21t15 13t20 2.5t19 -9.5z" />
  </g>

</svg>
