<?xml version="1.0" standalone="no"?>
<!DOCTYPE svg PUBLIC "-//W3C//DTD SVG 1.1//EN" "http://www.w3.org/Graphics/SVG/1.1/DTD/svg11.dtd" >
<svg xmlns="http://www.w3.org/2000/svg" xmlns:xlink="http://www.w3.org/1999/xlink" version="1.1" viewBox="0 -410 2048 2048">
  <g transform="matrix(1 0 0 -1 0 1638)">
   <path fill="currentColor"
d="M120 1061q-12 0 -21 6.5t-13.5 16.5t-3 20.5t10.5 19.5l348 348q11 9 25.5 9t25.5 -9l348 -348q9 -9 10.5 -19.5t-3 -20.5t-13.5 -16.5t-21 -6.5h-237q-16 0 -26 -10t-10 -26v-1302q0 -16 -11 -26t-25 -10h-75q-14 0 -25 10t-11 26v1302q0 16 -10 26t-26 10h-237z
M1311 1472q9 9 24.5 9t26.5 -9l345 -348q9 -9 11 -20t-1.5 -20.5t-12.5 -16t-21 -6.5h-240q-14 0 -25 -10t-11 -26v-1302q0 -16 -10 -26t-26 -10h-72q-16 0 -26 10t-10 26v1302q0 16 -10 26t-26 10h-237q-12 0 -21.5 6.5t-13.5 16t-2.5 20.5t10.5 20z" />
  </g>

</svg>
