<?xml version="1.0" standalone="no"?>
<!DOCTYPE svg PUBLIC "-//W3C//DTD SVG 1.1//EN" "http://www.w3.org/Graphics/SVG/1.1/DTD/svg11.dtd" >
<svg xmlns="http://www.w3.org/2000/svg" xmlns:xlink="http://www.w3.org/1999/xlink" version="1.1" viewBox="0 -410 2048 2048">
  <g transform="matrix(1 0 0 -1 0 1638)">
   <path fill="currentColor"
d="M1301.04 526q14 0 24.999 -11t10.999 -25v-237q0 -12 6.5 -21q6.49902 -9 15.499 -13q8.99902 -4 19.499 -2.5q10.499 1.5 18.498 9.5l359.979 348q10.999 11 10.999 27t-10.999 27l-359.979 348q-7.99902 8 -18.498 9.5q-10.5 1.5 -19.499 -2.5q-9 -4 -15.499 -13
q-6.5 -9 -6.5 -21v-243q0 -14 -10.999 -25t-24.999 -11h-218.986q-13.999 0 -24.998 -10q-11 -10 -11 -26v-72q0 -16 11 -26q10.999 -10 24.998 -10h218.986zM683.074 562q0 -16 10.999 -26q11 -10 24.999 -10h218.986q15.999 0 25.998 10q10 10 10 26v72q0 16 -10 26
q-9.99902 10 -25.998 10h-218.986q-13.999 0 -24.999 -10q-10.999 -10 -10.999 -26v-72zM323.097 562q0 -16 9.99902 -26t25.998 -10h215.987q15.999 0 25.998 10q10 10 10 26v72q0 16 -10 26q-9.99902 10 -25.998 10h-215.987q-15.999 0 -25.998 -10t-9.99902 -26v-72z
M32.1143 562q0 -16 10.999 -26t24.998 -10h143.992q15.998 0 27.498 10q11.499 10 11.499 26v72q0 16 -11.499 26q-11.5 10 -27.498 10h-143.992q-13.999 0 -24.998 -10t-10.999 -26v-72z" />
  </g>

</svg>
