<?xml version="1.0" standalone="no"?>
<!DOCTYPE svg PUBLIC "-//W3C//DTD SVG 1.1//EN" "http://www.w3.org/Graphics/SVG/1.1/DTD/svg11.dtd" >
<svg xmlns="http://www.w3.org/2000/svg" xmlns:xlink="http://www.w3.org/1999/xlink" version="1.1" viewBox="0 -410 2048 2048">
  <g transform="matrix(1 0 0 -1 0 1638)">
   <path fill="currentColor"
d="M1336 1186q9 -9 9 -24.5t-9 -26.5l-864 -864q-11 -9 -11 -24.5t11 -26.5l174 -174q9 -9 10.5 -20t-2.5 -20.5t-12.5 -16t-19.5 -6.5h-528q-16 0 -27.5 11t-11.5 25v528q0 12 6.5 21.5t16 13.5t20.5 2.5t20 -10.5l201 -198q9 -11 24.5 -11t26.5 11l861 861q11 11 26.5 11
t24.5 -11l54 -51v0z" />
  </g>

</svg>
