<?xml version="1.0" standalone="no"?>
<!DOCTYPE svg PUBLIC "-//W3C//DTD SVG 1.1//EN" "http://www.w3.org/Graphics/SVG/1.1/DTD/svg11.dtd" >
<svg xmlns="http://www.w3.org/2000/svg" xmlns:xlink="http://www.w3.org/1999/xlink" version="1.1" viewBox="0 -410 2048 2048">
  <g transform="matrix(1 0 0 -1 0 1638)">
   <path fill="currentColor"
d="M850 429q10 0 19 -6t13 -15t2 -19.5t-10 -19.5l-348 -360q-12 -11 -26 -11t-26 11l-348 360q-8 9 -10 19.5t2 19.5t13 15t19 6h240q16 0 26 11t10 25v1161q0 14 11 25t25 11h76q14 0 25 -11t11 -25v-1161q0 -14 10 -25t26 -11h240zM102 -366q-16 0 -26 10t-10 26v72
q0 16 10 26t26 10h796q16 0 26 -10t10 -26v-72q0 -16 -10 -26t-26 -10h-796z" />
  </g>

</svg>
