<?xml version="1.0" standalone="no"?>
<!DOCTYPE svg PUBLIC "-//W3C//DTD SVG 1.1//EN" "http://www.w3.org/Graphics/SVG/1.1/DTD/svg11.dtd" >
<svg xmlns="http://www.w3.org/2000/svg" xmlns:xlink="http://www.w3.org/1999/xlink" version="1.1" viewBox="0 -410 2048 2048">
  <g transform="matrix(1 0 0 -1 0 1638)">
   <path fill="currentColor"
d="M1054 1408q11 11 25.5 11t25.5 -11l348 -357q9 -9 11 -20t-1.5 -20.5t-12.5 -16t-21 -6.5h-240h-39v-759q0 -115 -38 -204t-107.5 -149.5t-166 -90.5t-213.5 -27q-102 3 -191.5 44t-155.5 110t-104 160t-38 193v687q0 16 11 26t25 10h75q14 0 25 -10t11 -26v-723
q0 -68 31 -127.5t81.5 -103.5t115 -70t132.5 -26q67 0 132.5 20t116.5 58t82.5 91.5t31.5 121.5v795h-36h-240q-11 0 -19.5 6.5t-12.5 16t-2.5 20.5t10.5 20l348 357v0z" />
  </g>

</svg>
