<?xml version="1.0" standalone="no"?>
<!DOCTYPE svg PUBLIC "-//W3C//DTD SVG 1.1//EN" "http://www.w3.org/Graphics/SVG/1.1/DTD/svg11.dtd" >
<svg xmlns="http://www.w3.org/2000/svg" xmlns:xlink="http://www.w3.org/1999/xlink" version="1.1" viewBox="0 -410 2048 2048">
  <g transform="matrix(1 0 0 -1 0 1638)">
   <path fill="currentColor"
d="M1480 773q12 0 21 -7t13.5 -16.5t3 -20.5t-10.5 -19l-717 -690q-11 -9 -11 -24.5t11 -26.5l159 -162q8 -9 10 -19.5t-1.5 -19.5t-12 -15t-20.5 -6h-528q-16 0 -26 10t-10 26v528q0 12 6 20.5t15 12t19.5 1.5t19.5 -10l216 -213q9 -11 24.5 -12t26.5 9l474 432q9 9 11 20
t-1.5 21.5t-12.5 17.5t-21 7h-1020q-12 0 -20.5 6.5t-12.5 15.5t-2 19.5t11 18.5l777 744q11 11 26.5 11t24.5 -11l54 -51q11 -11 10 -27t-10 -27l-510 -483q-9 -9 -11 -19.5t2.5 -20.5t14 -16.5t21.5 -6.5l987 3v0z" />
  </g>

</svg>
