<?xml version="1.0" standalone="no"?>
<!DOCTYPE svg PUBLIC "-//W3C//DTD SVG 1.1//EN" "http://www.w3.org/Graphics/SVG/1.1/DTD/svg11.dtd" >
<svg xmlns="http://www.w3.org/2000/svg" xmlns:xlink="http://www.w3.org/1999/xlink" version="1.1" viewBox="0 -410 2048 2048">
  <g transform="matrix(1 0 0 -1 0 1638)">
   <path fill="currentColor"
d="M657 -209l-390 390q-12 12 -5.5 27t23.5 15h146q11 0 17.5 6.5t6.5 17.5v690q0 60 -4.5 104.5t-13.5 78.5t-23.5 59.5t-34.5 47.5q-29 31 -68.5 49t-80 27.5t-77 12.5t-58.5 3q-9 0 -16.5 7.5t-7.5 16.5v48q0 11 7.5 17.5t16.5 6.5h198q112 0 192.5 -8t131.5 -26
q50 -17 94 -49.5t82 -82.5q100 -130 100 -444v-558q0 -11 6.5 -17.5t17.5 -6.5h148q15 0 21.5 -15t-5.5 -27l-390 -390q-8 -8 -17 -8t-17 8z" />
  </g>

</svg>
