<?xml version="1.0" standalone="no"?>
<!DOCTYPE svg PUBLIC "-//W3C//DTD SVG 1.1//EN" "http://www.w3.org/Graphics/SVG/1.1/DTD/svg11.dtd" >
<svg xmlns="http://www.w3.org/2000/svg" xmlns:xlink="http://www.w3.org/1999/xlink" version="1.1" viewBox="0 -410 2048 2048">
  <g transform="matrix(1 0 0 -1 0 1638)">
   <path fill="currentColor"
d="M90 532l390 390q12 12 27 6.5t15 -22.5v-148q0 -9 6.5 -16.5t17.5 -7.5h690q61 0 105.5 4.5t78.5 14t59.5 24.5t48.5 35q31 28 49 67t27.5 79.5t12.5 77t3 58.5q0 11 6.5 17.5t17.5 6.5h48q9 0 16.5 -6.5t7.5 -17.5v-196q0 -112 -8.5 -192.5t-25.5 -131.5
q-36 -101 -132 -176q-66 -51 -176 -75.5t-268 -24.5h-560q-11 0 -17.5 -7.5t-6.5 -16.5v-148q0 -8 -4.5 -14t-10.5 -8.5t-13.5 -1.5t-13.5 6l-390 390q-6 8 -6 18t6 16z" />
  </g>

</svg>
