<?xml version="1.0" standalone="no"?>
<!DOCTYPE svg PUBLIC "-//W3C//DTD SVG 1.1//EN" "http://www.w3.org/Graphics/SVG/1.1/DTD/svg11.dtd" >
<svg xmlns="http://www.w3.org/2000/svg" xmlns:xlink="http://www.w3.org/1999/xlink" version="1.1" viewBox="0 -410 2048 2048">
  <g transform="matrix(1 0 0 -1 0 1638)">
   <path fill="currentColor"
d="M691 1407l390 -390q12 -12 5.5 -27t-21.5 -15h-148q-11 0 -17.5 -6.5t-6.5 -17.5v-558q0 -314 -100 -444q-38 -50 -82 -82.5t-94 -49.5q-51 -18 -131.5 -26t-192.5 -8h-198q-9 0 -16.5 6.5t-7.5 17.5v48q0 9 7.5 16.5t16.5 7.5q22 0 58.5 3t77 12.5t80 27.5t68.5 49
q20 22 34.5 47.5t23.5 59.5t13.5 78.5t4.5 104.5v690q0 11 -6.5 17.5t-17.5 6.5h-146q-17 0 -23.5 15t5.5 27l390 390q17 17 34 0z" />
  </g>

</svg>
