<?xml version="1.0" standalone="no"?>
<!DOCTYPE svg PUBLIC "-//W3C//DTD SVG 1.1//EN" "http://www.w3.org/Graphics/SVG/1.1/DTD/svg11.dtd" >
<svg xmlns="http://www.w3.org/2000/svg" xmlns:xlink="http://www.w3.org/1999/xlink" version="1.1" viewBox="0 -410 2048 2048">
  <g transform="matrix(1 0 0 -1 0 1638)">
   <path fill="currentColor"
d="M1708 684l-390 -390q-12 -12 -27 -6.5t-15 22.5v148q0 9 -6.5 16.5t-17.5 7.5h-690q-60 0 -104.5 -4.5t-78.5 -14t-59.5 -24t-47.5 -33.5q-31 -29 -49 -68.5t-27.5 -80t-12.5 -77t-3 -58.5q0 -11 -7.5 -17.5t-16.5 -6.5h-48q-11 0 -17.5 6.5t-6.5 17.5v196q0 112 8 192.5
t26 131.5q33 101 132 176q65 51 175.5 75.5t268.5 24.5h558q11 0 17.5 7.5t6.5 16.5v148q0 8 4.5 14t10.5 8.5t13.5 1.5t13.5 -6l390 -390q8 -8 8 -18t-8 -16z" />
  </g>

</svg>
