<?xml version="1.0" standalone="no"?>
<!DOCTYPE svg PUBLIC "-//W3C//DTD SVG 1.1//EN" "http://www.w3.org/Graphics/SVG/1.1/DTD/svg11.dtd" >
<svg xmlns="http://www.w3.org/2000/svg" xmlns:xlink="http://www.w3.org/1999/xlink" version="1.1" viewBox="0 -410 2048 2048">
  <g transform="matrix(1 0 0 -1 0 1638)">
   <path fill="currentColor"
d="M653 66q0 -11 6 -19.5t15 -12.5t19.5 -2.5t19.5 10.5l300 300v-165q0 -18 -9 -27l-399 -399q-11 -9 -25.5 -9t-25.5 9l-399 399q-9 9 -9 27v165l300 -300q9 -9 19.5 -10.5t19.5 2.5t15 12.5t6 19.5v1362q0 16 11 26t25 10h75q14 0 25 -10t11 -26v-1362v0z" />
  </g>

</svg>
