<?xml version="1.0" standalone="no"?>
<!DOCTYPE svg PUBLIC "-//W3C//DTD SVG 1.1//EN" "http://www.w3.org/Graphics/SVG/1.1/DTD/svg11.dtd" >
<svg xmlns="http://www.w3.org/2000/svg" xmlns:xlink="http://www.w3.org/1999/xlink" version="1.1" viewBox="0 -410 2048 2048">
  <g transform="matrix(1 0 0 -1 0 1638)">
   <path fill="currentColor"
d="M1825 673q16 0 26 -11t10 -25v-75q0 -14 -10 -25t-26 -11h-1362q-11 0 -19.5 -6t-12.5 -15t-2.5 -19.5t10.5 -19.5l300 -300h-165q-18 0 -27 9l-399 399q-9 11 -9 25.5t9 25.5l399 399q9 9 27 9h165l-300 -300q-9 -9 -10.5 -19.5t2.5 -19.5t12.5 -15t19.5 -6h1362v0z" />
  </g>

</svg>
