<?xml version="1.0" standalone="no"?>
<!DOCTYPE svg PUBLIC "-//W3C//DTD SVG 1.1//EN" "http://www.w3.org/Graphics/SVG/1.1/DTD/svg11.dtd" >
<svg xmlns="http://www.w3.org/2000/svg" xmlns:xlink="http://www.w3.org/1999/xlink" version="1.1" viewBox="0 -410 2048 2048">
  <g transform="matrix(1 0 0 -1 0 1638)">
   <path fill="currentColor"
d="M1498 625q10 -11 10 -25.5t-10 -25.5l-396 -399q-14 -9 -28 -9h-164l300 300q8 8 9 18.5t-3 19.5t-13 15.5t-21 6.5h-236h-364h-164q-12 0 -21 -6.5t-13 -15.5t-3 -19.5t9 -18.5l300 -300h-164q-14 0 -28 9l-396 399q-10 11 -10 25.5t10 25.5l396 399q14 9 28 9h164
l-300 -300q-8 -8 -9 -18.5t3 -19.5t13 -15.5t21 -6.5h164h364h236q12 0 21 6.5t13 15.5t3 19.5t-9 18.5l-300 300h164q14 0 28 -9z" />
  </g>

</svg>
