<?xml version="1.0" standalone="no"?>
<!DOCTYPE svg PUBLIC "-//W3C//DTD SVG 1.1//EN" "http://www.w3.org/Graphics/SVG/1.1/DTD/svg11.dtd" >
<svg xmlns="http://www.w3.org/2000/svg" xmlns:xlink="http://www.w3.org/1999/xlink" version="1.1" viewBox="0 -410 2048 2048">
  <g transform="matrix(1 0 0 -1 0 1638)">
   <path fill="currentColor"
d="M554 1448q11 9 25.5 9t25.5 -9l399 -399q9 -9 9 -27v-165l-300 300q-9 9 -19.5 10.5t-19.5 -2.5t-15 -12.5t-6 -19.5v-1362q0 -16 -11 -26t-25 -10h-75q-14 0 -25 10t-11 26v1362q0 11 -6 19.5t-15 12.5t-19.5 2.5t-19.5 -10.5l-300 -300v165q0 18 9 27l399 399v0z" />
  </g>

</svg>
