<?xml version="1.0" standalone="no"?>
<!DOCTYPE svg PUBLIC "-//W3C//DTD SVG 1.1//EN" "http://www.w3.org/Graphics/SVG/1.1/DTD/svg11.dtd" >
<svg xmlns="http://www.w3.org/2000/svg" xmlns:xlink="http://www.w3.org/1999/xlink" version="1.1" viewBox="0 -410 2048 2048">
  <g transform="matrix(1 0 0 -1 0 1638)">
   <path fill="currentColor"
d="M176 24v946q0 12 6 18l230 230q6 5 13.5 6t13.5 -1.5t10.5 -8.5t4.5 -14v-668q0 -17 14.5 -23t25.5 5l728 728q6 6 16 6t18 -6l162 -162q6 -8 6 -18t-6 -16l-728 -728q-11 -11 -5 -25.5t23 -14.5h668q8 0 14 -4.5t8.5 -10.5t1.5 -13.5t-6 -13.5l-230 -230q-6 -6 -18 -6
h-946q-11 0 -17.5 6.5t-6.5 17.5z" />
  </g>

</svg>
