<?xml version="1.0" standalone="no"?>
<!DOCTYPE svg PUBLIC "-//W3C//DTD SVG 1.1//EN" "http://www.w3.org/Graphics/SVG/1.1/DTD/svg11.dtd" >
<svg xmlns="http://www.w3.org/2000/svg" xmlns:xlink="http://www.w3.org/1999/xlink" version="1.1" viewBox="0 -410 2048 2048">
  <g transform="matrix(1 0 0 -1 0 1638)">
   <path fill="currentColor"
d="M92 616l606 606q6 6 16 6h526q15 0 21.5 -15t-5.5 -27l-336 -336q-6 -5 -7 -12t1.5 -13t8 -10.5t13.5 -4.5h756q11 0 17.5 -7.5t6.5 -18.5v-370q0 -11 -6.5 -18.5t-17.5 -7.5h-756q-8 0 -13.5 -4.5t-8 -10.5t-1.5 -13t7 -12l336 -338q6 -5 7 -12t-1.5 -13t-8.5 -10.5
t-13 -4.5h-526q-10 0 -16 6l-606 606q-8 8 -8 17t8 17z" />
  </g>

</svg>
