<?xml version="1.0" standalone="no"?>
<!DOCTYPE svg PUBLIC "-//W3C//DTD SVG 1.1//EN" "http://www.w3.org/Graphics/SVG/1.1/DTD/svg11.dtd" >
<svg xmlns="http://www.w3.org/2000/svg" xmlns:xlink="http://www.w3.org/1999/xlink" version="1.1" viewBox="0 -410 2048 2048">
  <g transform="matrix(1 0 0 -1 0 1638)">
   <path fill="currentColor"
d="M1424 1174v-946q0 -12 -6 -18l-230 -230q-6 -5 -13.5 -6t-13.5 1.5t-10.5 8.5t-4.5 14v668q0 17 -14.5 23t-25.5 -5l-728 -728q-6 -6 -16 -6t-18 6l-162 162q-6 8 -6 18t6 16l728 728q11 11 5 25.5t-23 14.5h-668q-8 0 -14 4.5t-8.5 10.5t-1.5 13.5t6 13.5l230 230
q6 6 18 6h946q11 0 17.5 -6.5t6.5 -17.5z" />
  </g>

</svg>
