<?xml version="1.0" standalone="no"?>
<!DOCTYPE svg PUBLIC "-//W3C//DTD SVG 1.1//EN" "http://www.w3.org/Graphics/SVG/1.1/DTD/svg11.dtd" >
<svg xmlns="http://www.w3.org/2000/svg" xmlns:xlink="http://www.w3.org/1999/xlink" version="1.1" viewBox="0 -410 2048 2048">
  <g transform="matrix(1 0 0 -1 0 1638)">
   <path fill="currentColor"
d="M883 -177l-728 728q-6 6 -6 18v144q0 7 4.5 13t10.5 8.5t13 1.5t12 -7l594 -594q12 -12 27 -5.5t15 21.5v1272q0 11 6.5 18.5t17.5 7.5h102q11 0 17.5 -7.5t6.5 -18.5v-1272q0 -15 15 -21.5t27 5.5l594 594q5 6 12 7t13 -1.5t10.5 -8.5t4.5 -13v-144q0 -12 -6 -18
l-728 -728q-8 -8 -17 -8t-17 8z" />
  </g>

</svg>
