<?xml version="1.0" standalone="no"?>
<!DOCTYPE svg PUBLIC "-//W3C//DTD SVG 1.1//EN" "http://www.w3.org/Graphics/SVG/1.1/DTD/svg11.dtd" >
<svg xmlns="http://www.w3.org/2000/svg" xmlns:xlink="http://www.w3.org/1999/xlink" version="1.1" viewBox="0 -410 2048 2048">
  <g transform="matrix(1 0 0 -1 0 1638)">
   <path fill="currentColor"
d="M817 1401l670 -670q6 -9 6 -18v-324q0 -17 -14.5 -23t-25.5 5l-474 474q-11 11 -25.5 5t-14.5 -23v-1028q0 -9 -7.5 -16.5t-16.5 -7.5h-230q-9 0 -16.5 7.5t-7.5 16.5v1028q0 8 -4.5 14t-10.5 8.5t-13.5 1.5t-13.5 -6l-472 -474q-11 -11 -25.5 -5t-14.5 23v324q0 9 6 18
l670 670q17 14 34 0z" />
  </g>

</svg>
