<?xml version="1.0" standalone="no"?>
<!DOCTYPE svg PUBLIC "-//W3C//DTD SVG 1.1//EN" "http://www.w3.org/Graphics/SVG/1.1/DTD/svg11.dtd" >
<svg xmlns="http://www.w3.org/2000/svg" xmlns:xlink="http://www.w3.org/1999/xlink" version="1.1" viewBox="0 -410 2048 2048">
  <g transform="matrix(1 0 0 -1 0 1638)">
   <path fill="currentColor"
d="M1708 582l-728 -728q-6 -6 -16 -6h-144q-17 0 -23.5 14.5t5.5 25.5l594 594q12 12 5.5 27t-21.5 15h-1272q-11 0 -17.5 6.5t-6.5 17.5v102q0 11 6.5 17.5t17.5 6.5h1272q15 0 21.5 15t-5.5 27l-594 594q-12 11 -5.5 25.5t23.5 14.5h144q10 0 16 -6l728 -728q17 -17 0 -34
z" />
  </g>

</svg>
