<?xml version="1.0" standalone="no"?>
<!DOCTYPE svg PUBLIC "-//W3C//DTD SVG 1.1//EN" "http://www.w3.org/Graphics/SVG/1.1/DTD/svg11.dtd" >
<svg xmlns="http://www.w3.org/2000/svg" xmlns:xlink="http://www.w3.org/1999/xlink" version="1.1" viewBox="0 -410 2048 2048">
  <g transform="matrix(1 0 0 -1 0 1638)">
   <path fill="currentColor"
d="M917 1439l728 -728q6 -6 6 -16v-144q0 -17 -14.5 -23.5t-25.5 5.5l-594 594q-12 12 -27 5.5t-15 -21.5v-1272q0 -11 -6.5 -17.5t-17.5 -6.5h-102q-11 0 -17.5 6.5t-6.5 17.5v1272q0 15 -15 21.5t-27 -5.5l-594 -594q-11 -12 -25.5 -5.5t-14.5 23.5v144q0 10 6 16l728 728
q17 17 34 0z" />
  </g>

</svg>
