<?xml version="1.0" standalone="no"?>
<!DOCTYPE svg PUBLIC "-//W3C//DTD SVG 1.1//EN" "http://www.w3.org/Graphics/SVG/1.1/DTD/svg11.dtd" >
<svg xmlns="http://www.w3.org/2000/svg" xmlns:xlink="http://www.w3.org/1999/xlink" version="1.1" viewBox="0 -435 2048 2048">
  <g transform="matrix(1 0 0 -1 0 1638)">
   <path fill="currentColor"
d="M874 1638q11 12 27 12t27 -12l786 -852q8 -9 9 -19.5t-3 -19.5t-13 -15t-20 -6h-315q-16 0 -26 -11t-10 -25v-507q0 -16 -11.5 -26t-27.5 -10h-795q-16 0 -26 10t-10 26v507q0 14 -11 25t-25 11h-318q-11 0 -19.5 6t-12.5 15t-2.5 19.5t10.5 19.5zM1045 1233q12 0 21 6.5
t13 15.5t2.5 19.5t-9.5 18.5l-147 150q-9 11 -24.5 11t-26.5 -11l-144 -150q-8 -9 -9.5 -19.5t2 -19.5t12 -15t19.5 -6h291zM1189 834q0 16 11 26t25 10h168q12 0 21 6.5t13 16.5t2.5 20.5t-9.5 19.5l-141 144q-5 5 -11 8.5t-13 3.5h-708q-9 0 -15.5 -3.5t-11.5 -8.5
l-141 -144q-8 -9 -9.5 -19.5t2.5 -20.5t13 -16.5t21 -6.5h168q16 0 26 -10t10 -26v-507q0 -16 10 -26t26 -10h507q16 0 26 10t10 26v507zM502 -435q-16 0 -26 11.5t-10 27.5v360q0 16 10 26t26 10h795q16 0 27.5 -10t11.5 -26v-360q0 -16 -11.5 -27.5t-27.5 -11.5h-795z
M646 -144q-16 0 -26 -10t-10 -26v-72q0 -16 10 -26t26 -10h507q16 0 26 10t10 26v72q0 16 -10 26t-26 10h-507z" />
  </g>

</svg>
