<?xml version="1.0" standalone="no"?>
<!DOCTYPE svg PUBLIC "-//W3C//DTD SVG 1.1//EN" "http://www.w3.org/Graphics/SVG/1.1/DTD/svg11.dtd" >
<svg xmlns="http://www.w3.org/2000/svg" xmlns:xlink="http://www.w3.org/1999/xlink" version="1.1" viewBox="0 -410 2048 2048">
  <g transform="matrix(1 0 0 -1 0 1638)">
   <path fill="currentColor"
d="M92 626l380 380q11 11 25.5 5t14.5 -23v-300q0 -11 7.5 -17.5t16.5 -6.5h1156q11 0 17.5 -7.5t6.5 -18.5v-60q0 -9 -6.5 -16.5t-17.5 -7.5h-1156q-9 0 -16.5 -6.5t-7.5 -17.5v-302q0 -8 -4.5 -13.5t-10.5 -8t-13 -1.5t-12 7l-380 380q-8 8 -8 17t8 17z" />
  </g>

</svg>
