<?xml version="1.0" standalone="no"?>
<!DOCTYPE svg PUBLIC "-//W3C//DTD SVG 1.1//EN" "http://www.w3.org/Graphics/SVG/1.1/DTD/svg11.dtd" >
<svg xmlns="http://www.w3.org/2000/svg" xmlns:xlink="http://www.w3.org/1999/xlink" version="1.1" viewBox="0 -410 2048 2048">
  <g transform="matrix(1 0 0 -1 0 1638)">
   <path fill="currentColor"
d="M686 -60h-552q-17 0 -23 14.5t5 25.5l668 666q6 8 16 8t18 -8l666 -666q11 -11 5 -25.5t-23 -14.5h-552q-9 0 -16.5 6.5t-7.5 17.5v132q0 11 7.5 17.5t16.5 6.5h116q8 0 14 4.5t8.5 10.5t1.5 13.5t-6 13.5l-230 230q-8 6 -18 6t-16 -6l-232 -230q-12 -12 -6.5 -27
t22.5 -15h118q9 0 16.5 -6.5t7.5 -17.5v-132q0 -11 -7.5 -17.5t-16.5 -6.5z" />
  </g>

</svg>
