<?xml version="1.0" standalone="no"?>
<!DOCTYPE svg PUBLIC "-//W3C//DTD SVG 1.1//EN" "http://www.w3.org/Graphics/SVG/1.1/DTD/svg11.dtd" >
<svg xmlns="http://www.w3.org/2000/svg" xmlns:xlink="http://www.w3.org/1999/xlink" version="1.1" viewBox="0 -410 2048 2048">
  <g transform="matrix(1 0 0 -1 0 1638)">
   <path fill="currentColor"
d="M914 1259h552q17 0 23 -14.5t-5 -25.5l-668 -666q-6 -8 -16 -8t-18 8l-666 666q-11 11 -5 25.5t23 14.5h552q9 0 16.5 -6.5t7.5 -17.5v-132q0 -11 -7.5 -17.5t-16.5 -6.5h-116q-8 0 -14 -4.5t-8.5 -10.5t-1.5 -13.5t6 -13.5l230 -230q8 -6 18 -6t16 6l232 230
q12 12 6.5 27t-22.5 15h-118q-9 0 -16.5 6.5t-7.5 17.5v132q0 11 7.5 17.5t16.5 6.5z" />
  </g>

</svg>
