<?xml version="1.0" standalone="no"?>
<!DOCTYPE svg PUBLIC "-//W3C//DTD SVG 1.1//EN" "http://www.w3.org/Graphics/SVG/1.1/DTD/svg11.dtd" >
<svg xmlns="http://www.w3.org/2000/svg" xmlns:xlink="http://www.w3.org/1999/xlink" version="1.1" viewBox="0 -410 2048 2048">
  <g transform="matrix(1 0 0 -1 0 1638)">
   <path fill="currentColor"
d="M324 1081l-180 -195q-9 -9 -19.5 -11.5t-20.5 1.5t-16.5 13t-6.5 21v525q0 16 10 26t26 10h522q12 0 21.5 -6.5t14 -16.5t2.5 -20.5t-11 -19.5l-189 -174l-27 -30l546 -546q11 -11 11 -25.5t-11 -25.5l-51 -51q-11 -11 -25.5 -11t-25.5 11l-546 546zM951 1435
q0 16 10 26.5t26 9.5q121 -4 229 -37t200 -90t166 -135t126 -172t80.5 -201.5t29.5 -222.5q1 -161 -50.5 -305.5t-146 -260t-226 -194t-288.5 -107.5q-127 -24 -248 -10t-229.5 58t-201 114.5t-163.5 161t-117 197.5t-61 223q-2 16 8 27.5t28 11.5h57q14 0 24 -8t12 -22
q14 -99 55 -190t102.5 -167t141.5 -135.5t173.5 -95.5t197 -46t212.5 13q130 27 240 97.5t188.5 170.5t121 223t38.5 256q-4 145 -57 273t-145 224.5t-219.5 155t-280.5 64.5q-14 1 -23.5 10t-9.5 23v60z" />
  </g>

</svg>
