<?xml version="1.0" standalone="no"?>
<!DOCTYPE svg PUBLIC "-//W3C//DTD SVG 1.1//EN" "http://www.w3.org/Graphics/SVG/1.1/DTD/svg11.dtd" >
<svg xmlns="http://www.w3.org/2000/svg" xmlns:xlink="http://www.w3.org/1999/xlink" version="1.1" viewBox="0 -410 2048 2048">
  <g transform="matrix(1 0 0 -1 0 1638)">
   <path fill="currentColor"
d="M90 614l380 380q12 12 27 5.5t15 -21.5v-138q0 -11 6.5 -17.5t17.5 -6.5h1156q9 0 16.5 -6.5t7.5 -17.5v-388q0 -11 -7.5 -18.5t-16.5 -7.5h-1156q-11 0 -17.5 -6.5t-6.5 -17.5v-136q0 -8 -4.5 -14t-10.5 -8.5t-13.5 -1.5t-13.5 6l-380 380q-6 8 -6 18t6 16z" />
  </g>

</svg>
