<?xml version="1.0" standalone="no"?>
<!DOCTYPE svg PUBLIC "-//W3C//DTD SVG 1.1//EN" "http://www.w3.org/Graphics/SVG/1.1/DTD/svg11.dtd" >
<svg xmlns="http://www.w3.org/2000/svg" xmlns:xlink="http://www.w3.org/1999/xlink" version="1.1" viewBox="0 -410 2048 2048">
  <g transform="matrix(1 0 0 -1 0 1638)">
   <path fill="currentColor"
d="M92 603l380 380q12 12 27 6.5t15 -22.5v-82q0 -11 6.5 -17.5t17.5 -6.5h1154q11 0 17.5 -7.5t6.5 -16.5v-500q0 -11 -6.5 -17.5t-17.5 -6.5h-1154q-11 0 -17.5 -7.5t-6.5 -16.5v-82q0 -8 -4.5 -14t-10.5 -8.5t-13.5 -1.5t-13.5 6l-380 380q-8 8 -8 18t8 16z" />
  </g>

</svg>
