<?xml version="1.0" standalone="no"?>
<!DOCTYPE svg PUBLIC "-//W3C//DTD SVG 1.1//EN" "http://www.w3.org/Graphics/SVG/1.1/DTD/svg11.dtd" >
<svg xmlns="http://www.w3.org/2000/svg" xmlns:xlink="http://www.w3.org/1999/xlink" version="1.1" viewBox="0 -410 2048 2048">
  <g transform="matrix(1 0 0 -1 0 1638)">
   <path fill="currentColor"
d="M76 616l390 388q5 6 12 7t13 -1.5t10.5 -8.5t4.5 -13v-142q0 -9 7.5 -16.5t16.5 -7.5h176q11 0 17.5 -6.5t6.5 -17.5v-398q0 -11 -6.5 -17.5t-17.5 -6.5h-176q-9 0 -16.5 -7.5t-7.5 -16.5v-142q0 -8 -4.5 -13.5t-10.5 -8t-13 -1.5t-12 7l-390 388q-6 8 -6 17t6 17z" />
  </g>

</svg>
