<?xml version="1.0" standalone="no"?>
<!DOCTYPE svg PUBLIC "-//W3C//DTD SVG 1.1//EN" "http://www.w3.org/Graphics/SVG/1.1/DTD/svg11.dtd" >
<svg xmlns="http://www.w3.org/2000/svg" xmlns:xlink="http://www.w3.org/1999/xlink" version="1.1" viewBox="0 -410 2048 2048">
  <g transform="matrix(1 0 0 -1 0 1638)">
   <path fill="currentColor"
d="M562 -193l-448 446q-4 6 -5 13.5t1 13.5t8 10.5t14 4.5h106q12 0 18 6.5t6 17.5v1054q0 17 15 22.5t27 -6.5l258 -258q8 -6 17 -6t17 6l258 258q12 12 27 6.5t15 -22.5v-1054q0 -11 7 -17.5t17 -6.5h106q8 0 14 -4.5t9 -10.5t2 -13.5t-7 -13.5l-448 -446q-8 -8 -17 -8
t-17 8z" />
  </g>

</svg>
