<?xml version="1.0" standalone="no"?>
<!DOCTYPE svg PUBLIC "-//W3C//DTD SVG 1.1//EN" "http://www.w3.org/Graphics/SVG/1.1/DTD/svg11.dtd" >
<svg xmlns="http://www.w3.org/2000/svg" xmlns:xlink="http://www.w3.org/1999/xlink" version="1.1" viewBox="0 -410 2048 2048">
  <g transform="matrix(1 0 0 -1 0 1638)">
   <path fill="currentColor"
d="M109 616l446 448q6 5 13.5 6t13.5 -1.5t10.5 -8.5t4.5 -14v-106q0 -11 6.5 -17.5t17.5 -6.5h1054q17 0 22.5 -15t-6.5 -27l-258 -258q-6 -8 -6 -17t6 -17l258 -258q12 -12 6.5 -27t-22.5 -15h-1054q-11 0 -17.5 -6.5t-6.5 -17.5v-106q0 -8 -4.5 -14t-10.5 -8.5
t-13.5 -1.5t-13.5 6l-446 448q-8 8 -8 17t8 17z" />
  </g>

</svg>
