<?xml version="1.0" standalone="no"?>
<!DOCTYPE svg PUBLIC "-//W3C//DTD SVG 1.1//EN" "http://www.w3.org/Graphics/SVG/1.1/DTD/svg11.dtd" >
<svg xmlns="http://www.w3.org/2000/svg" xmlns:xlink="http://www.w3.org/1999/xlink" version="1.1" viewBox="0 -410 2048 2048">
  <g transform="matrix(1 0 0 -1 0 1638)">
   <path fill="currentColor"
d="M1691 582l-446 -448q-6 -5 -13.5 -6t-13.5 1.5t-10.5 8.5t-4.5 14v106q0 11 -6.5 17.5t-17.5 6.5h-1054q-17 0 -22.5 15t6.5 27l258 258q6 8 6 17t-6 17l-258 258q-12 12 -6.5 27t22.5 15h1054q11 0 17.5 6.5t6.5 17.5v106q0 8 4.5 14t10.5 8.5t13.5 1.5t13.5 -6
l446 -448q17 -17 0 -34z" />
  </g>

</svg>
