<?xml version="1.0" standalone="no"?>
<!DOCTYPE svg PUBLIC "-//W3C//DTD SVG 1.1//EN" "http://www.w3.org/Graphics/SVG/1.1/DTD/svg11.dtd" >
<svg xmlns="http://www.w3.org/2000/svg" xmlns:xlink="http://www.w3.org/1999/xlink" version="1.1" viewBox="0 -410 2048 2048">
  <g transform="matrix(1 0 0 -1 0 1638)">
   <path fill="currentColor"
d="M598 1392l446 -446q12 -12 5 -27t-21 -15h-108q-12 0 -18 -6.5t-6 -17.5v-1054q0 -17 -15 -22.5t-27 6.5l-256 258q-8 6 -18 6t-18 -6l-256 -258q-12 -12 -27 -6.5t-15 22.5v1054q0 11 -7 17.5t-17 6.5h-108q-16 0 -22 15t6 27l446 446q8 8 18 8t18 -8z" />
  </g>

</svg>
