<?xml version="1.0" standalone="no"?>
<!DOCTYPE svg PUBLIC "-//W3C//DTD SVG 1.1//EN" "http://www.w3.org/Graphics/SVG/1.1/DTD/svg11.dtd" >
<svg xmlns="http://www.w3.org/2000/svg" xmlns:xlink="http://www.w3.org/1999/xlink" version="1.1" viewBox="0 -410 2048 2048">
  <g transform="matrix(1 0 0 -1 0 1638)">
   <path fill="currentColor"
d="M789 296l-718 358q-9 4 -12 12t-1.5 15.5t7.5 13t16 5.5h284q11 0 17.5 7.5t6.5 16.5v158q0 9 7.5 16.5t16.5 7.5h774q9 0 16.5 -7.5t7.5 -16.5v-158q0 -9 6.5 -16.5t17.5 -7.5h284q10 0 16 -5.5t7.5 -13t-1.5 -15.5t-12 -12l-718 -358q-9 -6 -22 0z" />
  </g>

</svg>
