<?xml version="1.0" standalone="no"?>
<!DOCTYPE svg PUBLIC "-//W3C//DTD SVG 1.1//EN" "http://www.w3.org/Graphics/SVG/1.1/DTD/svg11.dtd" >
<svg xmlns="http://www.w3.org/2000/svg" xmlns:xlink="http://www.w3.org/1999/xlink" version="1.1" viewBox="0 -410 2048 2048">
  <g transform="matrix(1 0 0 -1 0 1638)">
   <path fill="currentColor"
d="M96 610l360 718q4 9 12 12t15.5 1.5t13 -7.5t5.5 -16v-284q0 -11 6.5 -17.5t17.5 -6.5h156q11 0 17.5 -7.5t6.5 -16.5v-774q0 -9 -6.5 -16.5t-17.5 -7.5h-156q-11 0 -17.5 -6.5t-6.5 -17.5v-284q0 -10 -5.5 -16t-13 -7.5t-15.5 1.5t-12 12l-360 718q-3 13 0 22z" />
  </g>

</svg>
