<?xml version="1.0" standalone="no"?>
<!DOCTYPE svg PUBLIC "-//W3C//DTD SVG 1.1//EN" "http://www.w3.org/Graphics/SVG/1.1/DTD/svg11.dtd" >
<svg xmlns="http://www.w3.org/2000/svg" xmlns:xlink="http://www.w3.org/1999/xlink" version="1.1" viewBox="0 -410 2048 2048">
  <g transform="matrix(1 0 0 -1 0 1638)">
   <path fill="currentColor"
d="M704 588l-358 -718q-6 -9 -13 -12t-15 -1.5t-13 7.5t-5 16v284q0 11 -8 17.5t-16 6.5h-158q-10 0 -17 7.5t-7 16.5v774q0 9 7 16.5t17 7.5h158q8 0 16 6.5t8 17.5v284q0 10 5 16t13 7.5t15 -1.5t13 -12l358 -718q6 -9 0 -22z" />
  </g>

</svg>
