<?xml version="1.0" standalone="no"?>
<!DOCTYPE svg PUBLIC "-//W3C//DTD SVG 1.1//EN" "http://www.w3.org/Graphics/SVG/1.1/DTD/svg11.dtd" >
<svg xmlns="http://www.w3.org/2000/svg" xmlns:xlink="http://www.w3.org/1999/xlink" version="1.1" viewBox="0 -410 2048 2048">
  <g transform="matrix(1 0 0 -1 0 1638)">
   <path fill="currentColor"
d="M811 902l718 -358q9 -5 12 -12.5t1.5 -15t-7.5 -13t-16 -5.5h-284q-11 0 -17.5 -7.5t-6.5 -16.5v-158q0 -9 -7.5 -16.5t-16.5 -7.5h-774q-9 0 -16.5 7.5t-7.5 16.5v158q0 9 -6.5 16.5t-17.5 7.5h-284q-10 0 -16 5.5t-7.5 13t1.5 15t12 12.5l718 358q13 6 22 0z" />
  </g>

</svg>
