<?xml version="1.0" standalone="no"?>
<!DOCTYPE svg PUBLIC "-//W3C//DTD SVG 1.1//EN" "http://www.w3.org/Graphics/SVG/1.1/DTD/svg11.dtd" >
<svg xmlns="http://www.w3.org/2000/svg" xmlns:xlink="http://www.w3.org/1999/xlink" version="1.1" viewBox="0 -410 2048 2048">
  <g transform="matrix(1 0 0 -1 0 1638)">
   <path fill="currentColor"
d="M787 231l-730 422q-8 4 -10.5 11.5t-0.5 15t8 12.5t15 5h160q11 0 17.5 7.5t6.5 18.5v224q0 11 6.5 17.5t17.5 6.5h1046q11 0 17.5 -6.5t6.5 -17.5v-224q0 -11 6.5 -18.5t17.5 -7.5h160q9 0 15 -5t8 -12.5t-0.5 -15t-10.5 -11.5l-730 -422q-13 -7 -26 0z" />
  </g>

</svg>
