<?xml version="1.0" standalone="no"?>
<!DOCTYPE svg PUBLIC "-//W3C//DTD SVG 1.1//EN" "http://www.w3.org/Graphics/SVG/1.1/DTD/svg11.dtd" >
<svg xmlns="http://www.w3.org/2000/svg" xmlns:xlink="http://www.w3.org/1999/xlink" version="1.1" viewBox="0 -410 2048 2048">
  <g transform="matrix(1 0 0 -1 0 1638)">
   <path fill="currentColor"
d="M890 454q16 0 26 10t10 26v204q0 12 7 21t17 13t20 2.5t20 -9.5l356 -351q12 -9 12 -24.5t-12 -26.5l-356 -348q-10 -9 -21 -10.5t-20 2.5t-16 13.5t-7 21.5v276q0 14 -10 25t-26 11h-614h-108q-16 0 -26 10t-10 26v108v579v108q0 16 10 27.5t26 11.5h108h398
q16 0 26 -11.5t10 -27.5v-72q0 -14 -10 -25t-26 -11h-362q-16 0 -26 -10t-10 -26v-507q0 -16 10 -26t26 -10h578zM926 1141q0 16 11 27.5t25 11.5h870q16 0 26 -11.5t10 -27.5v-72q0 -14 -10 -25t-26 -11h-870q-14 0 -25 11t-11 25v72zM1544 310q-16 0 -26 10t-10 26v72
q0 16 10 26t26 10h288q16 0 26 -10t10 -26v-72q0 -16 -10 -26t-26 -10h-288z" />
  </g>

</svg>
