<?xml version="1.0" standalone="no"?>
<!DOCTYPE svg PUBLIC "-//W3C//DTD SVG 1.1//EN" "http://www.w3.org/Graphics/SVG/1.1/DTD/svg11.dtd" >
<svg xmlns="http://www.w3.org/2000/svg" xmlns:xlink="http://www.w3.org/1999/xlink" version="1.1" viewBox="0 -410 2048 2048">
  <g transform="matrix(1 0 0 -1 0 1638)">
   <path fill="currentColor"
d="M1402 442q0 -14 -10 -25t-26 -11h-72q-16 0 -26 -10t-10 -26v-180h-72h-74h-724h-72h-72v180q0 16 -11 26t-25 10h-74q-14 0 -25 11t-11 25v72q0 16 11 26t25 10h110h108q16 0 26 -10t10 -26v-144q0 -16 10 -26t26 -10h652q16 0 26 10t10 26v180h74h72h108q16 0 26 -10
t10 -26v-72z" />
  </g>

</svg>
