<?xml version="1.0" standalone="no"?>
<!DOCTYPE svg PUBLIC "-//W3C//DTD SVG 1.1//EN" "http://www.w3.org/Graphics/SVG/1.1/DTD/svg11.dtd" >
<svg xmlns="http://www.w3.org/2000/svg" xmlns:xlink="http://www.w3.org/1999/xlink" version="1.1" viewBox="0 -410 2496 2048">
  <g transform="matrix(1 0 0 -1 0 1638)">
   <path fill="currentColor"
d="M950 1396q24 0 34 -18l734 -1410q6 -9 14 -15t20 -6h708q14 0 25 -10t11 -26v-72q0 -16 -11 -26t-25 -10h-814q-8 0 -16 4.5t-14 13.5l-740 1410q-6 9 -14 15t-20 6h-702q-16 0 -26 10t-10 26v72q0 16 10 26t26 10h810zM1626 1360q0 16 10 26t26 10h798q14 0 25 -10
t11 -26v-72q0 -16 -11 -26t-25 -10h-798q-16 0 -26 10t-10 26v72z" />
  </g>

</svg>
