<?xml version="1.0" standalone="no"?>
<!DOCTYPE svg PUBLIC "-//W3C//DTD SVG 1.1//EN" "http://www.w3.org/Graphics/SVG/1.1/DTD/svg11.dtd" >
<svg xmlns="http://www.w3.org/2000/svg" xmlns:xlink="http://www.w3.org/1999/xlink" version="1.1" viewBox="0 -410 2452 2048">
  <g transform="matrix(1 0 0 -1 0 1638)">
   <path fill="currentColor"
d="M2440 665q12 -12 12 -27t-12 -27l-48 -45v-3l-880 -813q-8 -8 -19 -9t-20 3t-15 13t-6 20v324q0 14 -11 25t-25 11h-1232q-14 0 -25 10t-11 26v810q0 7 4 14.5t10 12.5l72 60q10 9 24 9h1158q14 0 25 10t11 26v300q0 9 3 17t9 13l52 42q10 9 24 7.5t24 -10.5zM292 317
q0 -16 11 -26t27 -10h1230q16 0 26 -10t10 -26v-99q0 -11 7 -19.5t16 -12.5t19 -3.5t18 8.5l486 441q12 10 12 25.5t-12 25.5l-486 459q-8 9 -18 10.5t-19 -2.5t-16 -12.5t-7 -19.5v-150q0 -16 -10 -26t-26 -10h-1230q-16 0 -27 -10t-11 -26v-507z" />
  </g>

</svg>
