<?xml version="1.0" standalone="no"?>
<!DOCTYPE svg PUBLIC "-//W3C//DTD SVG 1.1//EN" "http://www.w3.org/Graphics/SVG/1.1/DTD/svg11.dtd" >
<svg xmlns="http://www.w3.org/2000/svg" xmlns:xlink="http://www.w3.org/1999/xlink" version="1.1" viewBox="0 -410 2280 2048">
  <g transform="matrix(1 0 0 -1 0 1638)">
   <path fill="currentColor"
d="M2269 492q11 -11 11 -25.5t-11 -25.5l-360 -348q-9 -8 -19.5 -9.5t-19.5 2t-15 12t-6 19.5v240q0 16 -11 26t-25 10h-1269v24l-12 -24l-408 819q-9 18 2 34.5t31 16.5h570q14 0 25 -10t11 -26v-72q0 -16 -11 -26t-25 -10h-354q-20 0 -31 -18t-2 -36l255 -507
q9 -18 33 -18h1185q14 0 25 10t11 26v240q0 11 6 19.5t15 12t19.5 2t19.5 -9.5l360 -348v0z" />
  </g>

</svg>
