<?xml version="1.0" standalone="no"?>
<!DOCTYPE svg PUBLIC "-//W3C//DTD SVG 1.1//EN" "http://www.w3.org/Graphics/SVG/1.1/DTD/svg11.dtd" >
<svg xmlns="http://www.w3.org/2000/svg" xmlns:xlink="http://www.w3.org/1999/xlink" version="1.1" viewBox="0 -435 2048 2048">
  <g transform="matrix(1 0 0 -1 0 1638)">
   <path fill="currentColor"
d="M874 1638q10 11 26 11t26 -11l788 -852q8 -9 9 -19.5t-3 -19.5t-13 -15t-19 -6h-318q-14 0 -25 -11t-11 -25v-507q0 -16 -10 -26t-26 -10h-796q-16 0 -26 10t-10 26v507q0 14 -11 25t-25 11h-318q-10 0 -19 6t-13 15t-3 19.5t9 19.5zM1190 834q0 16 10 26t26 10h168
q12 0 21 6.5t13 16.5t2 20.5t-10 19.5l-494 510q-12 11 -26 11t-26 -11l-494 -510q-8 -9 -10 -19.5t2 -20.5t13 -16.5t21 -6.5h168q16 0 26 -10t10 -26v-507q0 -16 10 -26t26 -10h508q16 0 26 10t10 26v507zM502 -435q-16 0 -26 11.5t-10 27.5v360q0 16 10 26t26 10h796
q16 0 26 -10t10 -26v-360q0 -16 -10 -27.5t-26 -11.5h-796zM646 -144q-16 0 -26 -10t-10 -26v-72q0 -16 10 -26t26 -10h508q16 0 26 10t10 26v72q0 16 -10 26t-26 10h-508z" />
  </g>

</svg>
