<?xml version="1.0" standalone="no"?>
<!DOCTYPE svg PUBLIC "-//W3C//DTD SVG 1.1//EN" "http://www.w3.org/Graphics/SVG/1.1/DTD/svg11.dtd" >
<svg viewBox="0 -410 2048 2048">
  <g transform="matrix(1 0 0 -1 0 1638)">
   <path fill="currentColor"
d="M1691 839q5 0 7 -4.5t0 -9.5q0 -13 -11 -13h-1q-5 -17 -26 -39q-15 -15 -38.5 -23.5t-50 -12.5t-52.5 -4.5t-45 -0.5q-20 0 -29.5 -10t-9 -23.5t11.5 -28t32 -22.5q36 -14 54 -16.5t29 3t20.5 15.5t27.5 20q19 10 33.5 8t21.5 -10t5 -20.5t-16 -23.5t-25.5 -20t-24 -18
t-27.5 -17.5t-34 -18.5q-19 -9 -28 -23t-19.5 -30.5t-27.5 -35t-53 -36.5q49 -55 70.5 -102.5t26.5 -82.5q6 -41 -2 -76q-9 -25 -22 -47q-11 -19 -29 -37.5t-44 -27.5q45 2 72 1.5t42 -0.5q17 -1 24 -1q6 -2 15.5 -9t15 -15t4.5 -14t-15 -6q-80 0 -159.5 -4.5t-146.5 -5
t-115.5 6t-65.5 28.5q-64 0 -114 12.5t-88.5 33.5t-66.5 47.5t-47 54.5q-46 65 -61 148q-13 100 -21 172t-14 121t-11 79.5t-12 46.5t-17 22t-25 7q-13 1 -26 -7t-22 -26.5t-11 -48t8 -71.5q-21 10 -56.5 39t-70 71.5t-59.5 96.5t-24 114q1 61 21.5 112t55.5 89t82.5 60
t101.5 24t107.5 -13.5t98 -50.5t76.5 -90t45 -131q8 -61 4 -134q-4 -63 -20 -147.5t-55 -183.5q24 62 51.5 108.5t50.5 78.5q27 37 54 65q23 21 48.5 35t50.5 26t47 24t38.5 30t25 44t6.5 66q-1 12 2 27.5t11 32.5t22 34t36 31q-16 13 -26 31q-8 16 -12 40.5t7 57.5
q20 -2 34.5 -8t25.5 -12q12 -7 22 -16q15 -15 21 -33t7 -30q2 1 5 1t6 1q-2 9 -2.5 20t2.5 22q4 12 11 24q6 11 15.5 22.5t25.5 22.5q26 -22 35.5 -43.5t11.5 -38.5q2 -20 -3 -39q57 -17 102.5 -60t65.5 -100q12 -38 19.5 -63t8.5 -42h1v0z" />
  </g>

</svg>
