<?xml version="1.0" standalone="no"?>
<!DOCTYPE svg PUBLIC "-//W3C//DTD SVG 1.1//EN" "http://www.w3.org/Graphics/SVG/1.1/DTD/svg11.dtd" >
<svg viewBox="0 -410 2048 2048">
  <g transform="matrix(1 0 0 -1 0 1638)">
   <path fill="currentColor"
d="M1811 1198v-868l-319 -284h-833v604l-13 -34v-295l-232 -283l-1 -2l-176 100l337 840v0l373 315l163 -93h701zM601 967l123 -72l12 10l2 -1l332 288l-121 68zM706 874l-122 70l-320 -796l122 -71zM976 1075l-222 -197h222v197zM1795 1174h-708l-83 -74v-222h491z" />
  </g>

</svg>
