<?xml version="1.0" standalone="no"?>
<!DOCTYPE svg PUBLIC "-//W3C//DTD SVG 1.1//EN" "http://www.w3.org/Graphics/SVG/1.1/DTD/svg11.dtd" >
<svg viewBox="0 -410 2048 2048">
  <g transform="matrix(1 0 0 -1 0 1638)">
   <path fill="currentColor"
d="M896 742h256v-128h-256v128zM912 678h224v48h-224v-48zM1332 1470q17 0 26 -12t9 -28v-1632q0 -16 -9.5 -28t-26.5 -12h-615q-17 0 -26.5 12t-9.5 28v1632q0 16 9.5 28t26.5 12h616zM1320 1422h-592v-1616h592v1616zM865 898q-5 -5 -11.5 -4t-11.5 6q-26 32 -40.5 71
t-14.5 81q0 49 18.5 92.5t50.5 75.5t75 50.5t92 18.5t92 -18.5t75.5 -50.5t51 -75.5t18.5 -92.5q0 -42 -14.5 -81t-41.5 -71q-5 -5 -11 -6t-11 4t-5.5 11t3.5 11q23 28 35.5 62t12.5 70q0 42 -16 79.5t-44 65.5t-65.5 44t-79.5 16t-79.5 -16t-65.5 -44t-44 -65t-16 -80
q0 -36 12.5 -70t35.5 -62q10 -11 -1 -22zM865 26q-5 -5 -11.5 -4t-11.5 6q-27 32 -41.5 71t-14.5 81q0 49 18.5 92t51 75.5t75.5 51t92 18.5t92 -18.5t75.5 -50.5t51 -75.5t18.5 -92.5q0 -42 -14.5 -81t-41.5 -71q-5 -5 -11 -6t-11 4t-5.5 11t3.5 11q23 28 35.5 62t12.5 70
q0 42 -16 79.5t-44 65.5t-65.5 44t-79.5 16t-79.5 -16t-65.5 -44t-44 -65t-16 -80q0 -36 12.5 -70t35.5 -62q10 -11 -1 -22zM1185 960q-19 -33 -48.5 -54.5t-63.5 -30.5t-70.5 -5t-69.5 23t-55 48.5t-31 63.5t-5 70.5t24 69.5q19 33 48.5 55t63.5 31t70.5 4.5t69.5 -23.5
t55 -48.5t31 -63.5t4.5 -70.5t-23.5 -69.5zM1110 1176q3 5 1.5 9.5t-5.5 6.5q-9 7 -16 -4l-46 -80q-2 -4 -1.5 -8.5t5.5 -7.5q10 -5 16 4zM1118 335q33 -19 54.5 -48.5t30.5 -63.5t5 -70.5t-23 -69.5t-48.5 -55t-63.5 -31t-70.5 -5t-69.5 24q-33 19 -55 48.5t-31 63.5
t-5 70.5t24 69.5q19 33 48.5 55t63.5 31t70.5 4.5t69.5 -23.5zM986 198q5 10 -4 16l-80 46q-11 7 -16 -4q-7 -9 4 -16l80 -46q4 -2 8.5 -1.5t7.5 5.5z" />
  </g>

</svg>
