<?xml version="1.0" standalone="no"?>
<!DOCTYPE svg PUBLIC "-//W3C//DTD SVG 1.1//EN" "http://www.w3.org/Graphics/SVG/1.1/DTD/svg11.dtd" >
<svg viewBox="0 -410 2048 2048">
  <g transform="matrix(1 0 0 -1 0 1638)">
   <path fill="currentColor"
d="M1155 658q63 -20 115.5 -58.5t91 -90.5t60 -115t21.5 -132q0 -86 -32.5 -162t-89 -132.5t-132.5 -89t-162 -32.5t-161.5 32.5t-132 89t-89.5 132.5t-33 162q0 70 21.5 133t60 114.5t91 90t115.5 58.5v60h-128q-26 0 -45 19t-19 45v512q0 26 19 45t45 19h512q26 0 45 -19
t19 -45v-512q0 -26 -19 -45t-45 -19h-128v-60zM899 751h256v583h-256v-583zM963 718v-45q16 2 32 3.5t32 1.5q17 0 32.5 -1.5t31.5 -3.5v45h-128zM1379 168l-94 94l93 94l-128 35l35 129l-129 -36l-34 129l-95 -94l-94 94l-35 -129l-128 36l34 -129l-129 -35l95 -94l-95 -94
l129 -35l-34 -129l128 35l35 -129l94 94l95 -94l35 129l129 -35l-36 129z" />
  </g>

</svg>
