<?xml version="1.0" standalone="no"?>
<!DOCTYPE svg PUBLIC "-//W3C//DTD SVG 1.1//EN" "http://www.w3.org/Graphics/SVG/1.1/DTD/svg11.dtd" >
<svg viewBox="0 -410 2048 2048">
  <g transform="matrix(1 0 0 -1 0 1638)">
   <path fill="currentColor"
d="M566 540q189 8 394 -0.5t408 -39.5q52 -8 96.5 -16.5t92.5 -19.5q-58 -100 -131.5 -188t-155.5 -154q-123 -98 -247 -151t-237.5 -60.5t-211.5 31.5t-168 126q-50 61 -57.5 124t12.5 123.5t60.5 117t87.5 104.5l6.5 0.5t15 1t18 1t17.5 0.5zM565 559q-11 -1 -23.5 -2
t-11.5 0q-1 -1 -2 -1q36 35 71 64.5t63 51.5q45 34 70.5 77t45.5 94q14 -18 27.5 -38t27.5 -41q31 -51 50.5 -102t26.5 -102q-90 3 -176.5 3t-168.5 -4zM1603 1180q61 -53 83.5 -131.5t14 -172t-44 -195.5t-90.5 -201q-48 12 -96 21.5t-100 17.5q-109 17 -220.5 26.5
t-221.5 14.5q-7 54 -27.5 107t-52.5 106q-28 47 -56 82q-1 2 -3 4q-4 4 -4 5q13 33 25.5 69t29 72.5t37.5 74t51 75.5q55 69 132.5 111t167 49.5t186 -24.5t189.5 -111zM1533 748q19 40 23 88.5t-7 96.5t-37 92.5t-65 77.5q1 -39 -16 -63q-7 -10 -19 -18t-30.5 -10.5
t-44 1.5t-59.5 18q5 0 8.5 3t7.5 6q4 4 8 9q4 7 -2.5 12.5t-14.5 13.5t-14 20t-1 33q3 14 12.5 22.5t20.5 13.5q-213 37 -298 -164q-31 0 -55 -19t-36.5 -50.5t-11.5 -71.5t19.5 -81.5t57.5 -80.5t103 -69q96 -45 169.5 -50.5t128 15.5t92 63t61.5 92zM1364 870q4 0 7 -2.5
t2 -7.5q0 -9 -10 -9q-25 0 -44.5 6t-33.5 17q-16 13 -21 25q-3 8 5 13q8 3 13 -5q0 -2 3 -5q4 -7 12 -13q24 -19 67 -19zM1121 963q-10 8 -15.5 16t-7.5 13q-4 10 6 12q8 3 12 -6q2 -2 3 -6q2 -3 5.5 -7t8.5 -8q22 -19 62 -22q11 -2 9 -11q-2 -10 -10 -8q-47 4 -73 27z
M1210 855q7 -2 15 -5.5t13 -8.5t6 -13.5t-4 -20.5q-8 -18 -29 -22t-56 15q-34 18 -48 41.5t0 38.5q17 19 30.5 16t24.5 -13q0 -2 3 -3q4 -3 7.5 -6t8.5 -5q6 -4 9 -5l11 -5.5t9 -3.5zM1185 832q2 -2 3.5 -1.5t1.5 2.5l9 15q-5 1 -15 8q-6 4 -10 6q-2 2 -5.5 4.5t-6.5 4.5
l-9 -15q-3 -3 1 -6l12 -7q3 -3 5 1q0 -4 3 -5z" />
  </g>

</svg>
