<?xml version="1.0" standalone="no"?>
<!DOCTYPE svg PUBLIC "-//W3C//DTD SVG 1.1//EN" "http://www.w3.org/Graphics/SVG/1.1/DTD/svg11.dtd" >
<svg viewBox="0 -410 2048 2048">
  <g transform="matrix(1 0 0 -1 0 1638)">
   <path fill="currentColor"
d="M732 904l-135 65l462 480l657 -237l-270 -205l-214 -76l192 -560l-24 -8l-192 559l-139 -49zM1068 1438l383 -409l239 179zM741 917l321 -29v548zM453 101q-2 7 3.5 12t13.5 7t14.5 -2t7.5 -11q1 -6 -4 -11.5t-13 -7.5q-8 -1 -14.5 2.5t-7.5 10.5zM496 125q-1 9 6.5 16
t18.5 9q12 2 20.5 -3.5t10.5 -15.5q1 -9 -6.5 -16t-18.5 -9t-20 3.5t-11 15.5zM1467 638q48 19 87 23.5t75.5 -1t75 -18.5t87 -29t110 -32t145.5 -27v-4v-3v-957h-2047v960v2q25 1 68.5 4.5t100 9.5t122.5 14.5t136 20t141.5 27t138.5 34.5q59 17 108 22.5t94 3t87.5 -12.5
t89 -24t98.5 -31.5t116 -34.5q10 2 15 4l80 -235l40 13l-80 233q30 9 58.5 18.5t53.5 19.5zM405 48q48 -2 87 14.5t67 43.5t43 62.5t15 73.5q0 51 -30 79t-80 40l-2 -10q29 -6 47 -15.5t18 -20.5q0 -9 -14.5 -17.5t-37.5 -15t-53 -10.5t-60 -4q-31 0 -59.5 4.5t-51 11
t-36 15.5t-13.5 18t13.5 17t36 14.5t51 10t59.5 3.5q19 0 38.5 -2t37.5 -5l2 10q-18 3 -37.5 4t-40.5 1q-44 0 -82.5 -6t-67.5 -21t-45.5 -40t-16.5 -62t15 -71.5t42.5 -61t67 -43t87.5 -17.5zM675 479l-150 27l-53 -227l9 2l49 216l143 -26zM1075 38q0 1 -2 1q65 39 86 73
t15 61.5t-29.5 46.5t-48.5 27q-29 9 -58 -1t-55 -33q-33 -7 -59 -30q-5 -4 -5 -10t5 -11q3 -5 9 -5q-10 -15 -17 -29q-15 -28 -32.5 -45.5t-34.5 -31t-32.5 -25.5t-26.5 -27t-13 -32t4 -32t19.5 -26t31.5 -14q18 -2 30 3.5t31.5 21t53.5 40.5t97 62q5 -9 14 -9q16 0 16 15v3
q0 1 0.5 3t0.5 4zM1532 -45q8 25 7.5 55.5t-19 51.5t-58 24.5t-109.5 -25.5q-1 0 -1 0.5t-1 0.5q-4 2 -6 4l-2 1q-5 5 -11 3.5t-10 -6.5q-4 -7 -1 -16q-67 -28 -107.5 -40t-64.5 -18.5t-35.5 -12.5t-20.5 -22q-9 -17 -8 -34t9.5 -30.5t23 -22.5t33.5 -9q18 0 36.5 5.5
t39.5 11t46 8.5t56 -1q8 -2 16.5 -2.5t17.5 -1.5q-3 -3 -3 -10q2 -7 7 -10.5t11 -2.5q31 6 59 29q34 8 59.5 24.5t35.5 45.5zM1830 353l150 108l-186 -70l-71 111l-1 -132l-195 -39l185 -12l-49 -135l116 125l163 -45zM1488 28q4 1 7 -1.5t2 -4.5q-1 -1 -2 -7q-1 -3 -1.5 -7
t-2.5 -9q-6 -24 -18 -48q-25 -51 -62 -72q-1 0 -1 -0.5t-1 -0.5q-2 -2 -4.5 -2.5t-5.5 -2.5q-2 -2 -5 -2.5t-5 -1.5q-1 0 -2 -1q-3 -1 -5.5 -1t-5.5 -1q-4 -1 -8 3q0 1 -0.5 1.5t-0.5 1.5q0 7 4 8h1q1 0 1 0.5t1 0.5q28 5 49 24.5t36 51.5q11 21 18 46q2 8 2 10
q-29 -5 -57 1t-55 17q-8 4 -14.5 7t-12.5 7q-4 2 -6.5 3.5t-3.5 2.5t-1.5 2t-1.5 2v1v1v2v3q4 4 8 3l4 -2q1 0 1 -0.5t1 -0.5l3 -3q2 0 4 -2q6 -3 12 -6.5t13 -6.5q28 -12 57 -17t58 1zM1127 181q4 -2 4 -6t-2 -8q-22 -20 -35.5 -46.5t-21.5 -55.5q-2 -8 -3 -14.5t-1 -13.5
q-1 -2 -1 -4v-4v-2q0 -8 -8 -8q-1 0 -1.5 0.5t-1.5 0.5v1q-1 0 -1 0.5t-1 0.5l-1 1l-1 1v4v12q1 7 2 14.5t3 15.5q8 29 21 54.5t33 46.5q-2 2 -5 2.5t-5 1.5q-22 9 -47 14q-35 7 -63.5 2t-48.5 -24q-3 -3 -6 -3q-4 0 -5 3q-3 1 -3 5q0 3 3 6q5 5 8 7q0 1 0.5 1t0.5 1
q2 1 4.5 2.5t4.5 2.5q2 2 5 2.5t5 2.5q1 0 1 1q20 10 44.5 10.5t51.5 -4.5q24 -4 50 -14q10 -5 15 -7q2 -1 3.5 -1t2.5 -1z" />
  </g>

</svg>
