<?xml version="1.0" standalone="no"?>
<!DOCTYPE svg PUBLIC "-//W3C//DTD SVG 1.1//EN" "http://www.w3.org/Graphics/SVG/1.1/DTD/svg11.dtd" >
<svg viewBox="0 -410 2048 2048">
  <g transform="matrix(1 0 0 -1 0 1638)">
   <path fill="currentColor"
d="M1536 650q63 0 118.5 -24t97 -66t65.5 -97.5t24 -118.5t-24 -118.5t-65 -96.5t-96.5 -65t-118.5 -24t-118.5 24t-96.5 65t-65 96.5t-24 118.5q0 43 11.5 83t32.5 74.5t50 62.5t65 47l-126 261l-275 -456q15 -12 23 -30l35 10q1 13 17 20l84 28q11 4 21 -1t14 -16l2 -7
q4 -12 -1 -22t-16 -14l-84 -29q-19 -6 -31 9l-33 -9q1 -4 1 -12q0 -40 -28 -68t-68 -28q-35 0 -61.5 22.5t-32.5 57.5h-18q-3 -60 -28 -112.5t-66 -91.5t-94.5 -61.5t-114.5 -22.5q-63 0 -118.5 24t-96.5 65t-65 96.5t-24 118.5t24 118.5t65 96.5t96.5 65t118.5 24t121 -25
l77 131l-25 55q-30 -5 -54 -2q-33 3 -54 18.5t-28 33.5t-1 35t27 23q15 4 33.5 2t40.5 -6.5t47 -9t54 -4.5q28 0 46.5 2.5t31 5t21 3.5t17.5 -2q10 -5 12 -11q2 -5 -5.5 -13.5t-30.5 -20.5q-23 -11 -45 -20t-40 -15q-21 -7 -40 -12l16 -35l486 77l30 49l-75 154
q-2 0 -3 -0.5t-3 -0.5q-17 -5 -35.5 -9t-37.5 -8q-7 -2 -13 -2.5t-11 -1.5q-2 0 -3.5 -0.5t-2.5 -0.5h-3q-14 -2 -18 14q-2 7 2.5 12t11.5 6l8 2q6 1 12 1.5t12 2.5q18 4 35 8t34 9q48 14 72 30t19 30q-5 15 -30.5 23.5t-67.5 7.5q-18 -1 -37 -2.5t-39 -4.5
q-8 -1 -14.5 -1.5t-12.5 -2.5q-5 0 -7 -1q-1 -1 -3 -1q-16 -3 -19 12q-2 7 1.5 12.5t10.5 6.5q1 0 1.5 0.5t1.5 0.5q2 1 4 1t4 1q6 1 13 2t15 2q20 3 40.5 5t39.5 2q52 0 85.5 -12t43.5 -41q7 -20 -2 -36t-29 -30q-20 -13 -45 -23l216 -446q55 23 116 23zM662 611
q66 -38 107.5 -103t46.5 -146h18q6 34 32 57l-140 302zM574 363h209q-4 71 -41.5 129.5t-96.5 91.5l-105 -180q13 -6 21.5 -17t12.5 -25v1zM511 330q-16 0 -16 16t16 16h29q-8 16 -27 16q-14 0 -23 -9t-9 -23t9 -23t23 -9q17 0 27 16h-29zM512 74q54 0 102 20t84.5 54.5
t58.5 81.5t25 100h-209q-5 -20 -22 -34t-40 -14q-26 0 -45 19t-19 45t17.5 44t41.5 20l110 187q-48 21 -104 21t-105.5 -21.5t-86.5 -58.5t-58.5 -86.5t-21.5 -105.5t21.5 -105.5t58.5 -86.5t86.5 -58.5t105.5 -21.5zM992 348l-59 -18h-1h-2h-1h-1h-62q6 -20 22.5 -34
t39.5 -14q26 0 45 19t19 45v2zM982 380q-8 14 -22.5 22t-31.5 8q-23 0 -39.5 -14t-22.5 -34h60zM928 442q19 0 36 -6l234 388l-452 -72l147 -316q16 6 35 6zM1536 74q56 0 105.5 21.5t86.5 58.5t58.5 86.5t21.5 105.5t-21.5 105.5t-58.5 86.5t-86.5 58.5t-105.5 21.5
q-53 0 -102 -20l92 -190q3 1 10 1q26 0 45 -19t19 -45t-19 -45t-45 -19t-45 19t-19 45q0 16 6.5 29t17.5 22l-91 188q-63 -35 -102 -98t-39 -140q0 -56 21.5 -105.5t58.5 -86.5t86.5 -58.5t105.5 -21.5zM1511 366q-7 -8 -7 -18q0 -14 9 -23t23 -9t23 9t9 23q0 12 -8 20.5
t-19 10.5l12 -25q3 -6 1 -12.5t-8 -9.5t-12.5 -0.5t-9.5 8.5z" />
  </g>

</svg>
