<?xml version="1.0" standalone="no"?>
<!DOCTYPE svg PUBLIC "-//W3C//DTD SVG 1.1//EN" "http://www.w3.org/Graphics/SVG/1.1/DTD/svg11.dtd" >
<svg viewBox="0 -410 2048 2048">
  <g transform="matrix(1 0 0 -1 0 1638)">
   <path fill="currentColor"
d="M1754 1032q8 -3 12 -6q3 -2 2 -4t-12 -2q-28 -4 -47 -7t-31 -6q-14 -4 -24 -7q-9 -4 -20 -11l-25 -15t-34 -23q2 -51 -2.5 -100t-11.5 -87q-8 -45 -19 -85q-15 -52 -45 -88.5t-67.5 -62t-76.5 -42t-72 -29.5q-21 -8 -55 -13t-75 -9l-25 -41q-1 -2 -2.5 -4t-1.5 -3
l-16 -30q-3 -3 1 -5l66 -18q1 0 3 -1t4 -1l134 -60q1 -1 7 -3l78 -26q2 -1 3.5 -2t3.5 -2l37 -42q2 -1 -1 -1l-60 33q-4 2 -8 2l-68 1q-4 0 -7 -3l-25 -21q-2 -1 -3.5 -2.5t-3.5 -2.5l-41 -35q-3 -2 -2 1l14 44q0 3 4 7l30 32q3 4 -1 5l-49 21l-36 -9q-2 0 -8 -2l-60 -20
q-2 -1 -6 -5l-27 -35q-4 -4 -2 1l10 41q2 5 5 6l36 17q4 2 0 4l-22 20q-2 1 -3.5 2t-3.5 1l-116 1q-3 0 -7 4l-19 24q-1 1 -1 6l21 36q3 3 3 7l14 50q-19 -1 -38 -1q-17 -1 -37 -1h-39q-26 -3 -51.5 -5.5t-45.5 -4.5q-24 -3 -45 -4q-18 -27 -45.5 -68.5t-58.5 -87t-63 -91.5
t-59 -83.5t-46 -61.5t-25 -26q-11 -3 -38 -3t-56 3t-51 9.5t-22 15.5q0 5 17.5 27.5t46 56t64.5 74.5t72.5 82t71 78.5t60.5 64.5q-12 -1 -21 -0.5t-15 0.5q-20 1 -38 6t-32.5 12t-23 16.5t-8.5 21.5q0 7 17.5 17.5t46.5 27.5t66 42.5t77 61.5q26 24 44 43t32.5 35t28 32
t30.5 34.5t40.5 41t57.5 53.5q56 50 115.5 109t116.5 104q28 22 58.5 50.5t59 54.5t54 46t44.5 25q23 7 51 2.5t56 -15t54.5 -25.5t48 -29t36 -26t18.5 -16q5 -6 9 -15q4 -8 8.5 -20.5t9.5 -31.5q54 -11 77 -18q14 -4 24 -8z" />
  </g>

</svg>
