<?xml version="1.0" standalone="no"?>
<!DOCTYPE svg PUBLIC "-//W3C//DTD SVG 1.1//EN" "http://www.w3.org/Graphics/SVG/1.1/DTD/svg11.dtd" >
<svg viewBox="0 -410 2048 2048">
  <g transform="matrix(1 0 0 -1 0 1638)">
   <path fill="currentColor"
d="M1834 476q6 1 8 -2t0 -7l-245 -356q5 -5 9 -8.5t8 -7.5q3 -2 4.5 -4t3.5 -4q1 -3 3 -3q7 -8 1.5 -16t-15.5 -5q-1 0 -2 0.5t-3 0.5l-6 2t-7 2q-11 3 -23 6.5t-26 6.5q-24 5 -46.5 10t-45.5 6l-17 1q-20 1 -39.5 0.5t-39.5 -3.5q-2 0 -3 -0.5t-2 -0.5q-27 -8 -47 -16
q-10 -4 -23 -12q-2 -1 -9 -5t-10 -6q-8 -5 -14.5 -7.5t-14.5 -4.5q-41 -11 -70.5 0.5t-49.5 39.5q-2 3 -4.5 6.5t-4.5 6.5h-4q-20 -29 -49.5 -43.5t-64.5 -14.5t-67 15.5t-53 42.5h-587q-6 0 -11.5 4.5t-7.5 9.5l-54 162q-5 14 9 16l303 35l106 77l39 91h-60q-7 0 -7 7v22
q0 3 2 6t5 3l759 131l-65 154q-2 5 -0.5 9t6.5 6t9 0.5t6 -6.5l68 -159h6q5 1 11.5 -1.5t9.5 -7.5l120 -214zM1266 610l70 -149l136 16l-84 154zM1181 596l26 -150l96 11l-69 147zM1547 105q11 -2 18 -5q-75 66 -164.5 111.5t-186.5 66.5q-50 11 -100 14.5t-100 -2.5
q-22 -2 -43.5 -7.5t-40.5 -15.5q-20 -11 -36 -26.5t-24 -35.5q-11 -27 -4 -53.5t25.5 -46.5t44 -32t52.5 -10q32 2 60 20.5t42 48.5q1 4 5 8q5 3 10 1.5t8 -5.5q3 -5 4.5 -9.5t3.5 -9.5q10 -27 36 -42.5t54 -10.5q20 3 38 13.5t36 20.5q32 17 67.5 22.5t71.5 3.5
q32 -1 62.5 -6t60.5 -13zM2048 452v-7v7z" />
  </g>

</svg>
