<?xml version="1.0" standalone="no"?>
<!DOCTYPE svg PUBLIC "-//W3C//DTD SVG 1.1//EN" "http://www.w3.org/Graphics/SVG/1.1/DTD/svg11.dtd" >
<svg viewBox="0 -410 2048 2048">
  <g transform="matrix(1 0 0 -1 0 1638)">
   <path fill="currentColor"
d="M1526 972l-465 -612l-576 211l509 629l580 -164l-48 -64l11 4zM1641 810q6 -2 8 -7t-3 -10l-551 -744q-4 -5 -11.5 -7t-13.5 0l-391 147l43 35l328 -121q-4 16 -9 45.5t-5 58.5q0 28 5 56t9 43l-600 225q-10 1 -12 -15v-185l208 -78l-45 -34l-195 73q-8 4 -8 14v236
q0 6 2 8l2 2l564 689q4 5 11 7.5t14 0.5l650 -183q6 -2 8 -6.5t-3 -10.5l-40 -53q-2 -8 -4.5 -21t-5 -28t-4.5 -30t-2 -26q0 -14 3 -33t6 -36zM1066 340l535 705l-613 174l-524 -654zM1590 784q-6 26 -9 44.5t-5 31.5q-2 15 -2 26q0 15 3.5 38t7.5 43l-495 -660
q-10 -12 -24 -7q-4 -15 -8 -39t-4 -55q0 -46 7.5 -76.5t9.5 -34.5l2 -1zM595 128v42l-66 -15l124 95q-1 13 0 24.5t3 19.5q2 10 5 17t7 15q4 7 10.5 15.5t15.5 17.5l67 -25q-12 -11 -19.5 -20t-12.5 -16q-5 -8 -7 -15t-3 -16q-1 -8 -1.5 -18t0.5 -22z" />
  </g>

</svg>
