<?xml version="1.0" standalone="no"?>
<!DOCTYPE svg PUBLIC "-//W3C//DTD SVG 1.1//EN" "http://www.w3.org/Graphics/SVG/1.1/DTD/svg11.dtd" >
<svg viewBox="0 -410 2048 2048">
  <g transform="matrix(1 0 0 -1 0 1638)">
   <path fill="currentColor"
d="M857 1059q-12 3 -12.5 13.5t21.5 10.5q8 0 21.5 -1t30.5 -2q11 29 39.5 47t66.5 18q22 0 42 -7t35 -19.5t24.5 -29t10.5 -35.5q14 -18 21.5 -40t7.5 -46q0 -29 -11 -54.5t-30 -44.5t-45 -30t-55 -11t-55 11t-45 30t-30 44.5t-11 54.5q0 23 7 44t19 38q-20 3 -34 5t-18 4z
M1236 781q19 -11 32 -33.5t13 -43.5v-333q0 -21 -14.5 -40.5t-34.5 -25.5l-39 -12l-38 -485q-1 -11 -9 -18.5t-19 -7.5h-205q-11 0 -18.5 7.5t-9.5 18.5l-37 485l-39 12q-21 6 -35 25.5t-14 40.5v333q0 21 12 44t31 34q8 9 22 14t28 7q16 3 34 3q23 0 38.5 -8t29 -17.5
t27 -17.5t33.5 -8q19 0 33.5 8t28 17.5t29 17.5t37.5 8q16 0 32 -3q14 -2 28 -7.5t24 -14.5z" />
  </g>

</svg>
