<?xml version="1.0" standalone="no"?>
<!DOCTYPE svg PUBLIC "-//W3C//DTD SVG 1.1//EN" "http://www.w3.org/Graphics/SVG/1.1/DTD/svg11.dtd" >
<svg viewBox="0 -410 2048 2048">
  <g transform="matrix(1 0 0 -1 0 1638)">
   <path fill="currentColor"
d="M1600 1043q36 0 61 -25.5t25 -61.5v-115q0 -12 -8 -20.5t-20 -8.5h-58q-12 0 -20.5 8.5t-8.5 20.5v87h-57v-720q0 -12 -8.5 -20.5t-20.5 -8.5h-922q-12 0 -20.5 8.5t-8.5 20.5v720h-57v-87q0 -12 -8.5 -20.5t-20.5 -8.5h-58q-12 0 -20 8.5t-8 20.5v115q0 36 25 61.5
t61 25.5h86v101q0 27 10.5 50.5t28 41t41 27.5t50.5 10h720q27 0 50.5 -10t41.5 -27.5t28 -41t10 -50.5v-101h86zM902 1237q-9 0 -15.5 -6t-6.5 -15t6.5 -15.5t15.5 -6.5h244q9 0 15.5 6.5t6.5 15.5t-6.5 15t-15.5 6h-244zM614 605q0 -10 6.5 -16.5t16.5 -6.5h774
q10 0 16.5 6.5t6.5 16.5v467q0 36 -25 61t-61 25h-648q-36 0 -61 -25t-25 -61v-467zM1398 439q0 24 -16.5 40.5t-40.5 16.5t-41 -16.5t-17 -40.5t17 -41t41 -17t40.5 17t16.5 41zM822 475v-72h404v72h-404zM765 439q0 24 -17 40.5t-41 16.5t-40.5 -16.5t-16.5 -40.5
t16.5 -41t40.5 -17t41 17t17 41zM1456 272h-864v-36h864v36zM592 150h230v-115h-230v115zM1226 150h230v-115h-230v115z" />
  </g>

</svg>
