<?xml version="1.0" standalone="no"?>
<!DOCTYPE svg PUBLIC "-//W3C//DTD SVG 1.1//EN" "http://www.w3.org/Graphics/SVG/1.1/DTD/svg11.dtd" >
<svg viewBox="0 -410 2048 2048">
  <g transform="matrix(1 0 0 -1 0 1638)">
   <path fill="currentColor"
d="M1312 931v-896h-576v896h576zM1250 523q0 14 -10.5 24.5t-24.5 10.5t-24.5 -10.5t-10.5 -24.5t10.5 -24.5t24.5 -10.5t24.5 10.5t10.5 24.5zM1250 431q0 14 -10.5 24.5t-24.5 10.5t-24.5 -10.5t-10.5 -24.5t10.5 -24.5t24.5 -10.5t24.5 10.5t10.5 24.5zM808 678h432v128
h-432v-128zM902 251h-70v-71h70v71zM902 353h-70v-70h70v70zM902 456h-70v-71h70v71zM902 558h-70v-70h70v70zM1002 251h-71v-71h71v71zM1002 353h-71v-70h71v70zM1002 456h-71v-71h71v71zM1002 558h-71v-70h71v70zM1101 251h-71v-71h71v71zM1101 353h-71v-70h71v70z
M1101 456h-71v-71h71v71zM1101 558h-71v-70h71v70zM1215 374q-14 0 -24.5 -10.5t-10.5 -24.5t10.5 -24.5t24.5 -10.5t24.5 10.5t10.5 24.5t-10.5 24.5t-24.5 10.5zM1251 282h-70v-101h70v101z" />
  </g>

</svg>
