<?xml version="1.0" standalone="no"?>
<!DOCTYPE svg PUBLIC "-//W3C//DTD SVG 1.1//EN" "http://www.w3.org/Graphics/SVG/1.1/DTD/svg11.dtd" >
<svg viewBox="0 -410 2048 2048">
  <g transform="matrix(1 0 0 -1 0 1638)">
   <path fill="currentColor"
d="M1734 80q8 -57 -7.5 -100.5t-59.5 -67.5q-35 -20 -70 -23.5t-71 4.5q-51 12 -87 48.5t-60 90.5q-4 8 -5 13q-2 -1 -5 -3q-6 -4 -8 -6q-18 -51 -34 -81t-29 -45q-15 -18 -27 -23q-11 -4 -35 -7t-55 -5.5t-65 -3.5t-63.5 0t-51.5 5t-28 11q-10 11 -9.5 21t8 19t19 16.5
t22.5 12.5q11 4 30.5 5.5l39 3t33.5 4.5t14 11q-55 20 -112 56q-49 30 -107.5 80t-112.5 125q8 -92 11.5 -146t5.5 -83q2 -33 3 -46q2 -23 -3.5 -45t-16.5 -24q-12 -3 -28 -6.5t-32 -5.5t-31.5 -2t-26.5 4t-15 10.5t-2.5 14t6.5 15t11 12.5t11.5 6t10 2.5t10 5t11.5 13.5
t1 45.5t-15.5 79t-22.5 85.5t-19 65q-7 17 -14 39q-6 18 -13.5 43.5t-15.5 54.5q-18 -8 -32.5 -14t-24.5 -10q-12 -4 -21 -8q-11 -5 -22 -5.5t-24.5 -3t-31 -9.5t-41.5 -24q-23 -17 -37.5 -26.5t-25.5 -13.5t-20 -3t-22 5q-12 4 -9 22t15 40.5t29 44t31 32.5t31.5 16.5
t37 10.5t42 12.5t47.5 22.5q24 15 33.5 27t11 28.5t-1.5 41.5t-3 67q0 41 5.5 73t12.5 58t12.5 48t5.5 45q0 24 -8 44t-16 41t-13 46t1 58q3 19 14 39q8 17 24 37t42 40q2 51 6.5 77.5t9.5 39.5q6 15 13 17q9 0 19.5 -16.5t19.5 -37.5t16.5 -39.5t10.5 -21.5t16.5 -8
t30 -8.5t33.5 -4.5t28 2q11 4 24.5 18t27.5 28.5t27 25.5t23 9q7 -1 10.5 -17t5 -40t0.5 -54t-3 -59.5t-5.5 -55.5t-7.5 -42q-11 -49 -14 -88t-3 -65q0 -13 3 -28.5t12.5 -31t28 -29t49.5 -23.5q21 -7 56 -20.5t76 -38.5t84 -62.5t80 -92.5t64 -129.5t35 -171.5v-23v-4
q0 -8 5 -33q4 -16 9 -31t11 -30q32 -71 80 -83q20 -5 36.5 -3t33.5 12q13 7 18 22.5t1 43.5t-17 71t-35 105l-1.5 4.5t-1.5 3.5q-12 34 -21 60.5t-15.5 48.5t-10.5 40.5t-7 37.5q-7 55 6.5 98.5t53.5 70.5q17 12 37.5 8.5t31.5 -20.5q11 -16 8 -36t-20 -32q-13 -9 -18 -26.5
t-1.5 -46t16 -71t33.5 -100.5q0 -2 3 -8q14 -38 24 -65.5t16.5 -49.5t10 -40t6.5 -37z" />
  </g>

</svg>
