<?xml version="1.0" standalone="no"?>
<!DOCTYPE svg PUBLIC "-//W3C//DTD SVG 1.1//EN" "http://www.w3.org/Graphics/SVG/1.1/DTD/svg11.dtd" >
<svg viewBox="0 -410 2048 2048">
  <g transform="matrix(1 0 0 -1 0 1638)">
   <path fill="currentColor"
d="M1660 312q34 -60 36 -115t-22.5 -97t-73 -67t-117.5 -25h-959q-68 0 -117 25t-73 67t-22 97t36 115l487 856q33 58 77.5 86.5t91.5 28.5t91.5 -28.5t77.5 -86.5zM1484 124q71 0 91.5 35t-14.5 96l-487 856q-33 58 -69 57.5t-69 -57.5l-487 -856q-35 -62 -15 -96.5
t91 -34.5h959z" />
  </g>

</svg>
