<?xml version="1.0" standalone="no"?>
<!DOCTYPE svg PUBLIC "-//W3C//DTD SVG 1.1//EN" "http://www.w3.org/Graphics/SVG/1.1/DTD/svg11.dtd" >
<svg viewBox="0 -410 2048 2048">
  <g transform="matrix(1 0 0 -1 0 1638)">
   <path fill="currentColor"
d="M1024 846q30 0 56 -11.5t45.5 -31t31 -45.5t11.5 -56t-11.5 -56.5t-31 -46t-45.5 -30.5t-56 -11t-56.5 11t-46 30.5t-30.5 46t-11 56.5t11 56t30.5 45.5t46 31t56.5 11.5zM1024 1374q93 0 178.5 -24t160.5 -68t136 -105t105 -136t68 -160.5t24 -178.5t-24 -178.5
t-68 -160.5t-105 -136t-136 -105t-160.5 -68t-178.5 -24t-178.5 24t-160.5 68t-136 105t-105 136t-68 160.5t-24 178.5t24 178.5t68 160.5t105 136t136 105t160.5 68t178.5 24zM1024 414q60 0 112.5 22.5t91.5 61.5t61.5 91.5t22.5 112.5t-22.5 112.5t-61.5 91.5t-91.5 61.5
t-112.5 22.5t-112.5 -22.5t-91.5 -61.5t-61.5 -91.5t-22.5 -112.5t22.5 -112.5t61.5 -91.5t91.5 -61.5t112.5 -22.5zM1600 702q0 119 -45.5 224t-123.5 183t-183 123.5t-224 45.5v-192q79 0 149 -30t122.5 -82.5t82.5 -122.5t30 -149h192z" />
  </g>

</svg>
