<?xml version="1.0" standalone="no"?>
<!DOCTYPE svg PUBLIC "-//W3C//DTD SVG 1.1//EN" "http://www.w3.org/Graphics/SVG/1.1/DTD/svg11.dtd" >
<svg viewBox="0 -410 2048 2048">
  <g transform="matrix(1 0 0 -1 0 1638)">
   <path fill="currentColor"
d="M1408 1462q33 0 56.5 -23.5t23.5 -56.5v-1536q0 -33 -23.5 -56.5t-56.5 -23.5h-768q-33 0 -56.5 23.5t-23.5 56.5v1536q0 33 23.5 56.5t56.5 23.5h768zM1456 1382q0 20 -14 34t-34 14h-768q-20 0 -34 -14t-14 -34v-1536q0 -20 14 -34t34 -14h768q20 0 34 14t14 34v1536z
M1024 -10q33 0 56.5 -23.5t23.5 -56.5t-23.5 -56.5t-56.5 -23.5t-56.5 23.5t-23.5 56.5t23.5 56.5t56.5 23.5zM1024 -138q20 0 34 14t14 34t-14 34t-34 14t-34 -14t-14 -34t14 -34t34 -14zM624 1254h800v-1216h-800v1216zM880 1374q14 0 23 -9t9 -23t-9 -23t-23 -9t-23 9
t-9 23t9 23t23 9zM960 1326q-16 0 -16 16t16 16h224q16 0 16 -16t-16 -16h-224z" />
  </g>

</svg>
