<?xml version="1.0" standalone="no"?>
<!DOCTYPE svg PUBLIC "-//W3C//DTD SVG 1.1//EN" "http://www.w3.org/Graphics/SVG/1.1/DTD/svg11.dtd" >
<svg viewBox="0 -410 2048 2048">
  <g transform="matrix(1 0 0 -1 0 1638)">
   <path fill="currentColor"
d="M1617 476q16 -18 42 -30q21 -11 53.5 -19t76.5 -5q-10 -17 -40 -26.5t-62 -13.5q-38 -5 -83 -6q-52 0 -88.5 18t-60.5 42.5t-37 49t-17 37.5q-1 1 -4.5 7.5t-8.5 8.5q-1 0 -5 1t-17 1q-9 -1 -19 -1h-21q3 13 3 30q0 76 -44 142.5t-120 116t-177 78t-216 29.5
q16 61 63 113t117.5 90.5t160 60.5t190.5 22q112 0 210 -27t171 -73.5t115.5 -108.5t42.5 -133q0 -84 -58 -154t-155 -118q-1 0 -11.5 -7.5t-17.5 -19.5q-3 -6 -6.5 -17.5t-3 -25.5t6 -30.5t20.5 -31.5zM229 570q0 70 42.5 132.5t115.5 109t171 73.5t209 27h1q63 0 124.5 -9
t121.5 -29q37 -12 74 -29t70.5 -39.5t62 -50.5t49.5 -63q22 -36 29 -75.5t1 -78.5t-24 -75.5t-46 -66.5q-32 -34 -71.5 -59.5t-82.5 -44.5q-71 -32 -151 -47.5t-158 -15.5q-9 0 -24 2t-30 2t-28 -4.5t-17 -16.5q-5 -12 -17.5 -36.5t-36.5 -49t-60.5 -43t-88.5 -18.5
q-45 1 -83 6q-32 4 -62.5 13.5t-39.5 27.5q45 -3 77 4.5t54 18.5q26 12 43 30q14 16 19.5 32t6 30.5t-3 26t-6.5 17.5q-6 11 -17 18.5t-11 8.5q-98 47 -155.5 117.5t-57.5 154.5z" />
  </g>

</svg>
