<?xml version="1.0" standalone="no"?>
<!DOCTYPE svg PUBLIC "-//W3C//DTD SVG 1.1//EN" "http://www.w3.org/Graphics/SVG/1.1/DTD/svg11.dtd" >
<svg viewBox="0 -410 2048 2048">
  <g transform="matrix(1 0 0 -1 0 1638)">
   <path fill="currentColor"
d="M1024 1638q141 0 272 -36.5t245 -103t207.5 -160t160 -207.5t103 -245t36.5 -272q0 -142 -36.5 -272.5t-103 -244.5t-160 -207.5t-207.5 -160t-245 -103t-272 -36.5q-142 0 -272.5 36.5t-244.5 103t-207.5 160t-160 207.5t-103 245t-36.5 272t36.5 272t103 245t160 207.5
t207.5 160t245 103t272 36.5z" />
  </g>

</svg>
