<?xml version="1.0" standalone="no"?>
<!DOCTYPE svg PUBLIC "-//W3C//DTD SVG 1.1//EN" "http://www.w3.org/Graphics/SVG/1.1/DTD/svg11.dtd" >
<svg viewBox="0 -410 2051 2048">
  <g transform="matrix(1 0 0 -1 0 1638)">
   <path fill="currentColor"
d="M2051 550v-960h-2048v960h128v320h192v-128h64v448h256v-320h64v640h384v-640h64v128h128v256h320v-576h64v256h256v-256h64v-128h64zM291 390h-64v-128h64v128zM291 582h-64v-128h64v128zM387 582h-64v-128h64v128zM499 966h-64v-128h64v128zM499 1158h-64v-128h64v128z
M595 1158h-64v-128h64v128zM691 70h-64v-128h64v128zM691 262h-64v-128h64v128zM787 262h-64v-128h64v128zM803 1062h-64v-128h64v128zM803 1254h-64v-128h64v128zM803 1446h-64v-128h64v128zM899 1254h-64v-128h64v128zM899 1446h-64v-128h64v128zM931 1318h64v128h-64
v-128zM1011 518h-64v-128h64v128zM1011 710h-64v-128h64v128zM1107 710h-64v-128h64v128zM1379 1030h-64v-128h64v128zM1379 1222h-64v-128h64v128zM1411 1094h64v128h-64v-128zM1523 358h-64v-128h64v128zM1523 550h-64v-128h64v128zM1619 550h-64v-128h64v128zM1763 710
h-64v-128h64v128zM1763 902h-64v-128h64v128zM1859 902h-64v-128h64v128z" />
  </g>

</svg>
