<?xml version="1.0" standalone="no"?>
<!DOCTYPE svg PUBLIC "-//W3C//DTD SVG 1.1//EN" "http://www.w3.org/Graphics/SVG/1.1/DTD/svg11.dtd" >
<svg viewBox="0 -410 2048 2048">
  <g transform="matrix(1 0 0 -1 0 1638)">
   <path fill="currentColor"
d="M346 841h1229v-29h-1229v29zM346 956h334v-28h-334v28zM1013 524h333v-28h-333v28zM1431 599q50 -21 84 -50t50.5 -63.5t16 -72.5t-19.5 -76q-11 -23 -28 -43h40v-30h-67q-50 -45 -126.5 -73t-171.5 -31q-124 -5 -187.5 39t-74.5 124q-7 57 10 121q3 14 8 27l4 10l26 -11
q-2 -3 -3 -9q-2 -5 -3.5 -11.5t-3.5 -13.5q-8 -27 -10.5 -55t1.5 -54q10 -69 64.5 -105.5t167.5 -33.5q78 3 143 23t111 53h-449v29h483q26 26 41 56q4 8 6.5 15.5t4.5 15.5h-535v28h540q2 49 -31 92t-102 72q-102 42 -194.5 34.5t-175.5 -49.5q-15 -8 -29 -16.5t-26 -16.5
q-4 -3 -7.5 -6t-6.5 -6q-3 -2 -5 -4l-19 22q3 2 8 7t13 10q25 18 60 36q88 45 187 52.5t206 -36.5zM346 409h563v-29h-563v29zM346 294h563v-29h-563v29zM346 726h1229v-29h-1229v29zM346 524h334v-28h-334v28zM1796 942v-902h-136v1q-2 -1 -8 -1h-1382q-8 0 -14 5.5
t-6 13.5v998q0 8 6 13.5t14 5.5h1382q8 0 13.5 -5.5t5.5 -13.5v-115h125zM1633 1038h-1344v-960h1344v960z" />
  </g>

</svg>
