<?xml version="1.0" standalone="no"?>
<!DOCTYPE svg PUBLIC "-//W3C//DTD SVG 1.1//EN" "http://www.w3.org/Graphics/SVG/1.1/DTD/svg11.dtd" >
<svg viewBox="0 -410 2048 2048">
  <g transform="matrix(1 0 0 -1 0 1638)">
   <path fill="currentColor"
d="M1840 358q16 0 16 -16v-288q0 -16 -16 -16h-1632q-16 0 -16 16v288q0 16 16 16h77q78 0 138.5 15.5t104.5 50t72 89.5t42 134q6 74 38 138t83.5 111.5t118.5 74.5t142 27q76 0 143 -27.5t118.5 -75.5t83.5 -112.5t37 -138.5q26 -148 103 -217t217 -69h114zM1040 343
q52 3 97 24t79.5 55t55.5 79.5t24 97.5l-56 13q-5 3 0 4l56 14q-3 52 -24 97t-55.5 79.5t-79.5 55.5t-97 24l-14 -56q-2 -8 -4 0l-13 56q-52 -3 -97 -24t-79.5 -55.5t-55.5 -79.5t-24 -97l56 -14q8 -2 0 -4l-56 -13q3 -52 24 -97t55.5 -79.5t79.5 -55.5t97 -24l13 56
q3 5 4 0zM1209 615q4 0 4 -0.5t-4 -0.5l-197 -12l1 12l11 152q0 3 0.5 3t0.5 -3l10 -142z" />
  </g>

</svg>
