<?xml version="1.0" standalone="no"?>
<!DOCTYPE svg PUBLIC "-//W3C//DTD SVG 1.1//EN" "http://www.w3.org/Graphics/SVG/1.1/DTD/svg11.dtd" >
<svg viewBox="0 -410 2048 2048">
  <g transform="matrix(1 0 0 -1 0 1638)">
   <path fill="currentColor"
d="M1474 944q46 0 86.5 -18.5t70.5 -51t47.5 -75.5t17.5 -92t-17.5 -92t-47.5 -75.5t-70.5 -51t-86.5 -18.5h-649q-38 0 -72 15.5t-59 42t-39.5 62t-14.5 76.5t14.5 77t39.5 62.5t59 42t72 15.5h1q10 61 37.5 112t69 88t93.5 58t111 21q47 0 91 -14.5t82 -41.5t68 -64.5
t48 -82.5q12 3 24 4t24 1zM915 1135q-51 -37 -87 -88t-54 -114q-100 -23 -148 -87t-50 -152h-78q-30 0 -56.5 12t-46.5 32t-31.5 47.5t-11.5 58.5t11.5 58t31.5 47t46.5 32t56.5 12q7 46 29.5 85.5t55 67.5t73.5 44t87 16q49 0 93.5 -18.5t78.5 -52.5z" />
  </g>

</svg>
