<?xml version="1.0" standalone="no"?>
<!DOCTYPE svg PUBLIC "-//W3C//DTD SVG 1.1//EN" "http://www.w3.org/Graphics/SVG/1.1/DTD/svg11.dtd" >
<svg viewBox="0 -410 2048 2048">
  <g transform="matrix(1 0 0 -1 0 1638)">
   <path fill="currentColor"
d="M1464 1073q5 8 13.5 5.5t8.5 -13.5v-264q0 -33 -36 -61.5t-97.5 -48.5t-145 -31.5t-177.5 -11.5q-98 0 -183.5 11.5t-148.5 31.5t-99.5 48.5t-36.5 61.5v264q0 11 9 13.5t14 -6.5q2 -5 12 -13q10 -9 24.5 -18.5t34.5 -17.5q58 -26 149 -40t219 -15q125 0 215 14.5
t150 40.5q20 8 35 17.5t26 18.5q7 5 9.5 8.5t4.5 5.5zM1464 712q5 9 13.5 6t8.5 -14v-264q0 -33 -36 -61t-97.5 -48t-145 -31.5t-177.5 -11.5q-98 0 -183.5 11t-148.5 31.5t-99.5 48.5t-36.5 61v264q0 11 9 14t14 -6q2 -5 12 -14q20 -19 59 -36q58 -26 149 -40t219 -14
q125 -1 215 13.5t150 40.5q39 18 61 36q7 5 9.5 8.5t4.5 5.5zM1464 337q5 8 13.5 5.5t8.5 -13.5v-264q0 -33 -36 -61.5t-97.5 -48.5t-145 -31.5t-177.5 -11.5q-98 0 -183.5 11.5t-148.5 31.5t-99.5 48.5t-36.5 61.5v264q0 11 9 13.5t14 -6.5q2 -5 12 -13q10 -9 24.5 -18.5
t34.5 -17.5q58 -26 149 -40t219 -15q125 0 215 14.5t150 40.5q20 8 35 17.5t26 18.5q7 5 9.5 8.5t4.5 5.5zM1030 1010q-97 0 -182.5 11t-149 30.5t-100 47t-36.5 59.5q0 35 36 64t99 50t148.5 32.5t184.5 11.5q94 0 177.5 -11.5t145 -32.5t97.5 -50t36 -64q0 -32 -36.5 -59
t-98.5 -47t-145 -31t-176 -11zM1315 1208q-47 0 -80 -13t-33 -32t33 -32t80 -13q24 0 44.5 3.5t36 9.5t24.5 14.5t9 17.5t-9 17.5t-24.5 14.5t-36 9.5t-44.5 3.5z" />
  </g>

</svg>
