<?xml version="1.0" standalone="no"?>
<!DOCTYPE svg PUBLIC "-//W3C//DTD SVG 1.1//EN" "http://www.w3.org/Graphics/SVG/1.1/DTD/svg11.dtd" >
<svg viewBox="0 -410 2048 2048">
  <g transform="matrix(1 0 0 -1 0 1638)">
   <path fill="currentColor"
d="M1011 -28h525l-102 -96h-461l-77 64h-32h-192h-32v128h32v58q-8 -2 -13 -1.5t-6 3.5q-2 3 3 10.5t16 17.5v81q-17 -3 -19 2q-4 7 19 28v81q-17 -5 -19 1q-4 7 19 28v75q-17 -3 -19 2q-4 7 19 28v165h-32v128h32v18q-18 -3 -21 1q-2 4 4 11t17 18v80q-18 -5 -21 1
q-2 3 4 10.5t17 17.5v75q-18 -5 -21 1q-2 3 4 10.5t17 17.5v122h-64v32h-96v-32h-160v192h160v-32h96v32h320v-32h96v32h160v-192h-160v32h-96v-32h-64v-17q13 2 14 -2q2 -3 -2 -9t-12 -14v-79q13 2 14 -2q2 -3 -2 -9t-12 -14v-85q13 2 14 -3q4 -5 -14 -23v-127h32l81 64
h484l107 -96h-551l-121 -96h-32v-61q13 3 16 -1q3 -8 -16 -25v-78q13 3 16 -1q3 -8 -16 -25v-83q14 2 16 -2q3 -8 -16 -25v-83q13 3 16 -2q3 -6 -16 -24v-166h32zM856 894l1 1zM789 848l4 2zM802 855l4 2zM814 863q0 -1 3 2q-1 -1 -1.5 -1t-1.5 -1zM848 888h1h-1v0zM775 890
q-4 -1 -8 -4q2 2 4 2t4 2zM764 884l-5 -2.5l-5 -2.5l5 2.5zM758 940q2 0 4 2zM856 1004l1 1zM856 925h-2h2zM850 924l-2 -1q1 0 2 1zM834 918q-1 -1 -2 -1t-2 -1zM826 915q-1 -1 -2 -1t-2 -1q1 1 2 1t2 1zM818 912l-4 -2l-4 -2q4 1 8 4zM806 906q-2 -2 -5 -2q3 0 5 2z
M797 902q-2 -2 -3.5 -2t-3.5 -2q4 2 7 4zM787 897q-3 -1 -9 -5q2 1 4.5 2.5t4.5 2.5zM789 957q2 2 4 3q-2 -1 -4 -3zM802 965q2 2 4 3q-2 -1 -4 -3zM814 973l3 3zM848 997l1 1l-1 -1v0zM775 1000q-2 -1 -4 -1.5t-4 -2.5l4 2zM764 994q-2 -2 -5 -3t-5 -3q2 2 5 3t5 3z
M758 1044q2 0 4 2zM856 1108l1 1zM856 1035h-2h2zM850 1033l-2 -1q1 0 2 1zM834 1028q-1 -1 -2 -1t-2 -1zM826 1025q-1 -1 -4 -1q3 0 4 1zM818 1021q-2 -1 -8 -3q2 1 4 1.5t4 1.5zM806 1016q-3 0 -5 -2q1 0 2.5 1t2.5 1zM797 1012q-3 -2 -7 -4q4 2 7 4zM787 1007
q-2 -2 -4.5 -2.5t-4.5 -2.5q2 2 4.5 2.5t4.5 2.5zM789 1061q2 2 4 3q-2 -1 -4 -3zM802 1069q2 2 4 3q-2 -1 -4 -3zM814 1077l3 3zM848 1101l1 1l-1 -1v0zM856 1139h-2h2zM850 1137l-2 -1q1 0 2 1zM834 1132q-1 -1 -2 -1t-2 -1zM826 1129q-1 -1 -4 -1q3 0 4 1zM818 1125
q-2 -1 -8 -3q2 1 4 1.5t4 1.5zM806 1120q-3 0 -5 -2q1 0 2.5 1t2.5 1zM797 1116q-3 -2 -7 -4q4 2 7 4zM787 1111q-2 -2 -4.5 -2.5t-4.5 -2.5q2 2 4.5 2.5t4.5 2.5zM775 1104q-2 -1 -4 -1.5t-4 -2.5l4 2zM764 1098q-2 -2 -5 -3t-5 -3q2 2 5 3t5 3zM742 1085q-1 -1 -2 -1
t-2 -1l4 2v0zM730 1078q-2 -2 -4 -2q2 0 4 2zM718 1071l-3 -3q3 1 3 3zM708 1064l-2 -2zM698 1056q-1 0 -2 -1q1 1 2 1zM688 1050l-1 -1q1 0 1 1zM663 1012q5 1 11.5 3t15.5 5q17 6 38 16t44 24q23 13 42.5 26t33.5 25q13 12 19 19l2 2h-3q-8 0 -27 -7q-17 -6 -38 -16
t-44 -24q-23 -13 -42.5 -26.5t-33.5 -24.5q-13 -12 -19 -19q-1 -1 -1 -1.5t-1 -1.5h3zM747 1038q-2 -2 -3 -2q1 0 3 2zM718 1024q-1 0 -1.5 -0.5t-1.5 -0.5q2 0 3 1zM705 1018q-1 0 -2 -1q1 0 1 0.5t1 0.5zM742 981q-1 -1 -2 -1t-2 -1l4 2v0zM730 974q-2 -2 -4 -2q2 0 4 2z
M718 967l-3 -3q3 1 3 3zM708 960l-2 -2zM698 952q-1 0 -2 -1q1 1 2 1zM688 946l-1 -1q1 0 1 1zM663 908q5 1 11.5 3t15.5 5q17 6 38 16t44 24q23 13 42.5 26t33.5 25q13 12 19 19l2 2h-3q-8 0 -27 -7q-17 -6 -38 -16t-44 -24q-23 -13 -42.5 -26.5t-33.5 -24.5
q-13 -12 -19 -19q-1 -1 -1 -1.5t-1 -1.5h3zM747 934q-2 -2 -3 -2q1 0 3 2zM718 920q-1 0 -1.5 -0.5t-1.5 -0.5q2 0 3 1zM705 914q-1 0 -2 -1q1 0 1 0.5t1 0.5zM742 872q-2 -1 -4 -3q1 1 2 1.5t2 1.5zM730 864q-2 0 -4 -2q2 2 4 2zM718 857q0 1 -3 -2q3 1 3 2zM708 850l-2 -2
zM698 843l-2 -2zM688 836l-1 -1q1 0 1 1zM663 799q10 1 27 7t38 16t44 24t42.5 27t33.5 24q7 6 11.5 11t7.5 8q1 1 1 1.5t1 1.5h-3q-13 -2 -27 -7q-17 -6 -38 -16.5t-44 -23.5q-23 -14 -42.5 -27t-33.5 -25q-7 -5 -11.5 -10t-7.5 -9l-2 -2h3zM762 832q-2 -1 -4 -3q1 1 2 1.5
t2 1.5zM747 824q-1 0 -3 -2q1 0 3 2zM718 809q-1 0 -1.5 -0.5t-1.5 -0.5q1 0 1.5 0.5t1.5 0.5zM705 804q-1 0 -2 -1q1 1 2 1zM827 207q1 0 1 0.5t1 0.5q-1 0 -2 -1v0zM790 183l4 2zM802 191l4 2zM814 199l4 2q-1 -1 -2 -1t-2 -1zM777 226q-6 -2 -8 -4q4 1 8 4zM766 220
q-3 -1 -6 -2.5l-5 -2.5q3 1 11 5zM759 276q2 0 4 2q-2 -2 -4 -2zM827 317q1 0 1 0.5t1 0.5q-1 0 -2 -1zM826 250l-1 -1h-2h2l1 1v0zM818 247l-4 -2q2 0 4 2zM808 242q-4 -2 -6 -2q2 0 6 2zM798 237q-2 -1 -3 -1t-3 -2zM789 232q-2 -1 -5 -2t-5 -2q2 1 5 2t5 2zM790 293
q2 1 4 3q-2 -2 -4 -3zM802 301q2 1 4 3q0 -1 -4 -3zM814 308q2 1 4 3q-1 -1 -2 -1.5t-2 -1.5zM777 336q-6 -2 -8 -4q4 3 8 4zM766 331q-8 -4 -11 -6q2 2 5 3t6 3zM759 385q2 1 4 3q-2 -2 -4 -3zM827 427q1 0 1 0.5t1 0.5q-2 0 -2 -1zM826 360h-1q-1 0 -1 -0.5t-1 -0.5
q1 0 1 0.5t1 0.5h1v0zM819 357q-1 -1 -2 -1t-3 -1q2 1 3 1t2 1zM808 352q-2 0 -6 -2q2 0 3 1t3 1zM798 348q-2 -1 -3 -2t-3 -2q2 1 3 2t3 2zM789 343q-2 -2 -5 -2.5t-5 -2.5q2 2 5 2.5t5 2.5zM790 404q2 0 4 2q-2 -2 -4 -2zM802 411l4 2zM814 419l4 2q-1 -1 -2 -1t-2 -1z
M777 446q-6 -2 -8 -4q4 1 8 4zM766 440q-3 -1 -6 -2.5l-5 -2.5l5 2.5t6 2.5zM759 489q2 1 4 3q-2 -2 -4 -3zM827 531q1 0 1 0.5t1 0.5q-2 0 -2 -1zM826 471l-1 -1h-2q3 0 3 1v0zM814 465q2 0 4 2zM808 462q-4 -2 -6 -2q2 0 6 2zM798 457q-2 -1 -3 -1t-3 -2zM789 453
q-5 -2 -10 -5l5 2.5zM790 508q2 0 4 2q-2 -2 -4 -2zM802 515l4 2zM814 523l4 2q-1 -1 -2 -1t-2 -1zM826 575l-1 -1h-2q3 0 3 1v0zM814 569q2 0 4 2zM808 566q-4 -2 -6 -2q2 0 6 2zM798 561q-2 -1 -3 -1t-3 -2zM789 557q-5 -2 -10 -5l5 2.5zM777 550q-6 -2 -8 -4q4 1 8 4z
M766 544q-3 -1 -6 -2.5l-5 -2.5l5 2.5t6 2.5zM681 488q-2 0 -2 -1q1 1 2 1zM743 532q-1 -1 -2 -1.5t-2 -1.5q2 1 4 3zM731 524q-1 0 -2 -1t-2 -1zM720 517l-4 -2zM709 510l-4 -2q2 0 4 2zM699 503l-3 -3zM690 496l-3 -3zM665 459q5 1 11.5 2.5t14.5 4.5q35 12 83 40
q47 28 76 51q7 6 11.5 11t7.5 8q1 1 1 3h-3q-5 -1 -11.5 -2.5t-14.5 -4.5q-17 -6 -38.5 -16.5t-44.5 -23.5q-23 -14 -42.5 -27t-33.5 -25q-7 -5 -11.5 -10t-7.5 -9q-1 -1 -1 -2h3zM749 484q-1 -1 -2 -1t-1 -1q0 2 3 2zM732 476l-2 -1q1 0 2 1zM719 469q-1 0 -1.5 -0.5
t-1.5 -0.5q2 0 3 1zM706 464q-1 0 -2 -1zM693 459q-1 0 -1.5 -0.5t-1.5 -0.5q1 0 1.5 0.5t1.5 0.5zM682 456q-1 -1 -2 -1q2 0 2 1zM681 384q-2 0 -2 -1q1 1 2 1zM743 428q-1 -1 -2 -1.5t-2 -1.5q2 1 4 3zM731 420q-1 0 -2 -1t-2 -1zM720 413l-4 -2zM709 406l-4 -2q2 0 4 2z
M699 399l-3 -3zM690 392l-3 -3zM665 355q5 1 11.5 2.5t14.5 4.5q35 12 83 40q47 28 76 51q7 6 11.5 11t7.5 8q1 1 1 3h-3q-5 -1 -11.5 -2.5t-14.5 -4.5q-17 -6 -38.5 -16.5t-44.5 -23.5q-23 -14 -42.5 -27t-33.5 -25q-7 -5 -11.5 -10t-7.5 -9q-1 -1 -1 -2h3zM749 380
q-1 -1 -2 -1t-1 -1q0 2 3 2zM732 372l-2 -1q1 0 2 1zM719 365q-1 0 -1.5 -0.5t-1.5 -0.5q2 0 3 1zM706 360q-1 0 -2 -1zM693 355q-1 0 -1.5 -0.5t-1.5 -0.5q1 0 1.5 0.5t1.5 0.5zM682 352q-1 -1 -2 -1q2 0 2 1zM681 275l-2 -2zM743 317q-1 -1 -2 -1t-2 -1zM731 310
q-2 -2 -4 -2q2 0 4 2zM720 303q-2 -1 -4 -3q2 1 2 1.5t2 1.5zM709 296q-2 -1 -4 -3q1 1 2 1.5t2 1.5zM699 288q-1 0 -3 -2q2 2 3 2zM690 282q-2 -2 -3 -2q1 0 3 2zM665 245q5 1 11.5 2.5t14.5 4.5q17 6 38.5 16.5t44.5 23.5q23 14 42.5 27t33.5 25q7 5 11.5 10t7.5 9
q1 1 1 2h-3q-5 -1 -11.5 -2.5t-14.5 -4.5q-35 -12 -83 -40q-23 -14 -42.5 -27t-33.5 -24q-7 -6 -11.5 -11t-7.5 -8q-1 -1 -1 -3h3zM749 270q-1 -1 -2 -1t-1 -1q0 1 1 1t2 1zM732 261q-1 0 -2 -1zM719 256q-1 -1 -1.5 -1t-1.5 -1q1 1 1.5 1t1.5 1zM706 250q-1 0 -2 -1z
M693 244h-3h3zM682 241l-2 -1q1 0 2 1zM681 164q-2 0 -2 -1q1 1 2 1zM743 207q-1 -1 -2 -1t-2 -2q2 1 4 3zM731 200q-1 -1 -2 -1.5t-2 -1.5q2 1 4 3zM720 192q-2 0 -2 -0.5t-2 -1.5q2 2 4 2zM709 185l-4 -2q1 1 2 1t2 1zM699 179l-3 -3zM690 172l-3 -3zM665 135
q5 1 11.5 2.5t14.5 4.5q35 12 83 40q47 28 76 51q7 6 11.5 11t7.5 8q1 1 1 3h-3q-5 -1 -11.5 -2.5t-14.5 -4.5q-17 -6 -38.5 -16.5t-44.5 -23.5q-23 -14 -42.5 -27t-33.5 -25q-7 -5 -11.5 -10t-7.5 -9q-1 -1 -1 -2h3zM763 168q-2 -2 -4 -3q2 1 4 3zM749 160q-1 -1 -2 -1
t-1 -1zM732 152l-2 -1q1 0 2 1zM719 145q-1 -1 -3 -1q2 0 3 1zM706 140q-1 0 -2 -1q1 1 2 1zM693 135q-1 0 -1.5 -0.5t-1.5 -0.5q2 0 3 1zM682 131l-2 -1q1 0 2 1zM1680 698q16 0 16 -16v-640q0 -16 -16 -16h-640q-16 0 -16 16v640q0 16 16 16h640z" />
  </g>

</svg>
