<?xml version="1.0" standalone="no"?>
<!DOCTYPE svg PUBLIC "-//W3C//DTD SVG 1.1//EN" "http://www.w3.org/Graphics/SVG/1.1/DTD/svg11.dtd" >
<svg viewBox="0 -410 2048 2048">
  <g transform="matrix(1 0 0 -1 0 1638)">
   <path fill="currentColor"
d="M1802 535q15 0 26 -10.5t11 -26.5v-281q0 -36 -13.5 -67.5t-37 -55t-55 -37t-67.5 -13.5t-67 13.5t-54.5 37t-37 55t-13.5 67.5v281q0 15 10.5 25.5t25.5 10.5h74q1 5 1.5 10.5t0.5 12.5q4 36 4.5 72t-3.5 71q-8 74 -34.5 117t-75.5 48q-29 4 -53.5 -2.5t-46.5 -21.5
q-17 -12 -34 -28.5t-41 -45.5q0 -1 -5 -7.5t-7 -8.5q-21 -26 -39.5 -44t-35.5 -29.5t-35.5 -17t-39.5 -5.5h-17.5t-20.5 3t-40 9t-76 18q-29 8 -52 12.5t-46 8.5q-102 17 -164 -0.5t-86 -79.5h742q22 0 37 -15t15 -37v-483q0 -22 -15 -37t-37 -15h-1140q-22 0 -37 15t-15 37
v483q0 22 15 37t37 15h363q28 87 115 111q35 11 78 10.5t96 -9.5q23 -4 47 -9t54 -13q47 -11 72.5 -17t38.5 -8.5t19.5 -3t15.5 -0.5q17 0 31.5 4.5t29 14.5t30 26t34.5 39q2 2 7 8.5t6 7.5q25 31 43 49t38 32q27 18 57 26t65 3q63 -8 96 -58t42 -135q5 -36 4 -74t-4 -75
q-1 -5 -1.5 -10t-1.5 -10h167zM596 420q-8 0 -8 -8v-54q0 -8 8 -8h54q8 0 8 8v54q0 8 -8 8h-54zM665 351q-6 0 -8 -8v-54q0 -8 8 -8h53q8 0 8 8v54q0 8 -8 8h-53zM519 428q0 -8 8 -8h54q8 0 8 8v53q0 8 -8 8h-54q-8 0 -8 -8v-53zM381 428q0 -8 8 -8h53q8 0 8 8v53q0 8 -8 8
h-53q-8 0 -8 -8v-53zM450 344q0 8 -8 8h-54q-8 0 -8 -8v-54q0 -8 8 -8h54q8 0 8 8v54zM511 351q8 0 8 8v53q0 8 -8 8h-53q-8 0 -8 -8v-53q0 -8 8 -8h53zM580 282q8 0 8 8v54q0 8 -8 8h-54q-8 0 -8 -8v-54q0 -8 8 -8h54zM1072 205q0 8 -8 8h-468q-8 0 -8 -8v-53q0 -8 8 -8
h468q8 0 8 8v53zM795 290q0 -8 8 -8h54q8 0 8 8v54q0 8 -8 8h-54q-8 0 -8 -8v-54zM934 290q0 -8 8 -8h53q8 0 8 8v54q0 8 -8 8h-53q-8 0 -8 -8v-54zM1142 290v54q0 8 -8 8h-54q-8 0 -8 -8v-54q0 -8 8 -8h53q8 0 8 8h1zM1279 344q0 8 -8 8h-53q-8 0 -8 -8v-54q0 -8 8 -8h53
q8 0 8 8v54zM1210 428q0 -8 8 -8h54q8 0 8 8v53q0 8 -8 8h-54q-8 0 -8 -8v-53zM1149 420q-8 0 -8 -8v-54q0 -8 8 -8h53q8 0 8 8v54q0 8 -8 8h-53zM1072 428q0 -8 8 -8h54q8 0 8 8v53q0 8 -8 8h-54q-8 0 -8 -8v-53zM1010 420q-6 0 -8 -8v-54q0 -8 8 -8h54q8 0 8 8v54
q0 8 -8 8h-54zM934 428q0 -8 8 -8h53q8 0 8 8v53q0 8 -8 8h-53q-8 0 -8 -8v-53zM873 420q-8 0 -8 -8v-54q0 -8 8 -8h53q8 0 8 8v54q0 8 -8 8h-53zM795 428q0 -8 8 -8h54q8 0 8 8v53q0 8 -8 8h-54q-8 0 -8 -8v-53zM734 420q-8 0 -8 -8v-54q0 -8 8 -8h54q8 0 8 8v54q0 8 -8 8
h-54zM665 489q-6 0 -8 -8v-53q0 -8 8 -8h53q8 0 8 8v53q0 8 -8 8h-53zM1522 391h144v115h-137q-7 0 -7 -7v-108zM1810 362h-288v-144q0 -30 11 -56t30.5 -45.5t46 -31t56.5 -11.5t56 11.5t45.5 31t31 45.5t11.5 56v144zM1810 499q0 7 -8 7h-108v-115h116v108z" />
  </g>

</svg>
