<?xml version="1.0" standalone="no"?>
<!DOCTYPE svg PUBLIC "-//W3C//DTD SVG 1.1//EN" "http://www.w3.org/Graphics/SVG/1.1/DTD/svg11.dtd" >
<svg viewBox="0 -410 2048 2048">
  <g transform="matrix(1 0 0 -1 0 1638)">
   <path fill="currentColor"
d="M676 742q-4 0 -4 4v39q0 14 6 26l51 97q3 3 5 3h580q3 0 6 -3l50 -97q7 -11 7 -26v-39q0 -4 -4 -4h-697zM691 764q0 -4 4 -4h657q4 0 4 4v20q0 10 -4 17l-46 87q0 3 -5 3h-555q-2 0 -5 -3l-46 -87q-4 -10 -4 -17v-20zM810 870h40v-19h-40v19zM889 870h39v-19h-39v19z
M966 870h40v-19h-40v19zM850 851h39v-19h-39v19zM927 851h39v-19h-39v19zM810 832h40v-20h-40v20zM889 832h39v-20h-39v20zM966 832h40v-20h-40v20zM1044 870h39v-19h-39v19zM1122 870h40v-19h-40v19zM1006 851h39v-19h-39v19zM1083 851h39v-19h-39v19zM1044 832h39v-20h-39
v20zM1122 832h40v-20h-40v20zM1200 870h39v-19h-39v19zM1161 851h39v-19h-39v19zM1200 832h39v-20h-39v20zM740 934q-4 0 -4 4v376q0 4 4 4h568q4 0 4 -4v-376q0 -4 -4 -4h-568zM755 957q0 -4 4 -4h530q4 0 4 4v338q0 4 -4 4h-530q-4 0 -4 -4v-338zM766 1288h519v-324h-519
v324zM164 230q-4 0 -4 4v376q0 4 4 4h568q4 0 4 -4v-376q0 -4 -4 -4h-568zM179 253q0 -4 4 -4h530q4 0 4 4v338q0 4 -4 4h-530q-4 0 -4 -4v-338zM794 106q7 -11 7 -26v-39q0 -4 -4 -4h-697q-4 0 -4 4v39q0 14 6 26l51 97q3 3 5 3h580q2 0 5 -3zM780 60v20q0 10 -4 17l-46 87
q0 3 -5 3h-555q-2 0 -5 -3l-46 -87q-4 -10 -4 -17v-20q0 -4 4 -4h658q4 0 4 4h-1zM234 166h40v-19h-40v19zM313 166h39v-19h-39v19zM390 166h40v-19h-40v19zM274 147h39v-19h-39v19zM351 147h39v-19h-39v19zM234 128h40v-20h-40v20zM313 128h39v-20h-39v20zM390 128h40v-20
h-40v20zM468 166h39v-19h-39v19zM546 166h40v-19h-40v19zM430 147h39v-19h-39v19zM507 147h39v-19h-39v19zM468 128h39v-20h-39v20zM546 128h40v-20h-40v20zM624 166h39v-19h-39v19zM585 147h39v-19h-39v19zM624 128h39v-20h-39v20zM190 584h519v-324h-519v324zM1312 610
q0 4 4 4h568q4 0 4 -4v-376q0 -4 -4 -4h-568q-4 0 -4 4v376zM1331 253q0 -4 4 -4h530q4 0 4 4v338q0 4 -4 4h-530q-4 0 -4 -4v-338zM1946 106q5 -11 7 -26v-39q0 -4 -4 -4h-697q-4 0 -4 4v39q0 14 6 26l51 97q3 3 5 3h580q2 0 5 -3zM1933 80q0 10 -4 17l-46 87q-3 3 -5 3
h-555q-5 0 -5 -3l-46 -87q-4 -7 -4 -17v-20q0 -4 4 -4h657q4 0 4 4v20zM1386 166h40v-19h-40v19zM1465 166h39v-19h-39v19zM1542 166h40v-19h-40v19zM1426 147h39v-19h-39v19zM1503 147h39v-19h-39v19zM1386 128h40v-20h-40v20zM1465 128h39v-20h-39v20zM1542 128h40v-20
h-40v20zM1620 166h39v-19h-39v19zM1698 166h40v-19h-40v19zM1582 147h39v-19h-39v19zM1659 147h39v-19h-39v19zM1620 128h39v-20h-39v20zM1698 128h40v-20h-40v20zM1776 166h39v-19h-39v19zM1737 147h39v-19h-39v19zM1776 128h39v-20h-39v20zM1342 584h519v-324h-519v324z
M1088 422l64 -64l-64 -64v40h-128v-40l-64 64l64 64v-40h128v40zM1158 486l28 28l-91 90l-28 -28v91h91l-28 -28l90 -91l28 28v-90h-90zM862 514l28 -28h-90v90l28 -28l90 91l-28 28h91v-91l-28 28z" />
  </g>

</svg>
