<?xml version="1.0" standalone="no"?>
<!DOCTYPE svg PUBLIC "-//W3C//DTD SVG 1.1//EN" "http://www.w3.org/Graphics/SVG/1.1/DTD/svg11.dtd" >
<svg viewBox="0 -410 2048 2048">
  <g transform="matrix(1 0 0 -1 0 1638)">
   <path fill="currentColor"
d="M456 422q-8 0 -8 8v752q0 8 8 8h1136q8 0 8 -8v-752q0 -8 -8 -8h-1136zM486 468q0 -8 8 -8h1060q8 0 8 8v676q0 8 -8 8h-1060q-8 0 -8 -8v-676zM1703 178q13 -26 13 -52v-80q0 -8 -8 -8h-1366q-8 0 -8 8v80q0 28 12 52l99 199q3 7 11 7h1137q7 0 11 -7zM1676 84v42
q0 18 -8 34l-89 178q-4 7 -11 7h-1089q-8 0 -11 -7l-89 -178q-8 -16 -8 -34v-42q0 -8 8 -8h1290q8 0 8 8h-1zM602 307h76v-39h-76v39zM755 307h77v-39h-77v39zM909 307h77v-39h-77v39zM678 268h77v-38h-77v38zM832 268h77v-38h-77v38zM602 230h76v-38h-76v38zM755 230h77
v-38h-77v38zM909 230h77v-38h-77v38zM1062 307h77v-39h-77v39zM1216 307h77v-39h-77v39zM986 268h76v-38h-76v38zM1139 268h77v-38h-77v38zM1062 230h77v-38h-77v38zM1216 230h77v-38h-77v38zM1370 307h76v-39h-76v39zM1293 268h77v-38h-77v38zM1370 230h76v-38h-76v38z
M512 1126h1024v-640h-1024v640z" />
  </g>

</svg>
