<?xml version="1.0" standalone="no"?>
<!DOCTYPE svg PUBLIC "-//W3C//DTD SVG 1.1//EN" "http://www.w3.org/Graphics/SVG/1.1/DTD/svg11.dtd" >
<svg viewBox="0 -410 2048 2048">
  <g transform="matrix(1 0 0 -1 0 1638)">
   <path fill="currentColor"
d="M1058 320q7 4 9 0q18 -18 18 -44t-18 -44t-44 -18t-44 18t-18 44t18 44q5 5 11 0q5 -6 0 -11q-14 -14 -14 -34t14 -34t34 -14t34 14t14 34t-14 34q-6 5 0 11zM1024 271q-7 0 -7 7v54q0 7 7 7t7 -7v-54q0 -7 -7 -7zM1024 382q44 0 74 -30t30 -74t-30 -74t-74 -30t-74 30
t-30 74t30 74t74 30zM1024 192q18 0 33.5 6.5t27 18.5t18.5 27.5t7 33.5q0 36 -25 61t-61 25t-61 -25t-25 -61q0 -18 7 -33.5t18.5 -27.5t27 -18.5t33.5 -6.5zM1344 1254v-1216h-640v1216h640zM1024 158q25 0 46.5 9.5t38 26t26 38t9.5 46.5t-9.5 46.5t-26 38t-38 26
t-46.5 9.5t-46.5 -9.5t-38 -26t-26 -38t-9.5 -46.5t9.5 -46.5t26 -38t38 -26t46.5 -9.5zM1280 702q0 8 -8 8h-112q-8 0 -8 -8v-16q0 -8 8 -8h112q8 0 8 8v16zM1280 766q0 8 -8 8h-496q-8 0 -8 -8v-16q0 -8 8 -8h496q8 0 8 8v16zM1280 862q0 8 -8 8h-496q-8 0 -8 -8v-48
q0 -8 8 -8h496q8 0 8 8v48zM1280 1182q0 8 -8 8h-496q-8 0 -8 -8v-112q0 -8 8 -8h496q8 0 8 8v112zM1208 1110q8 0 8 -8v-16q0 -8 -8 -8h-368q-8 0 -8 8v16q0 8 8 8h368z" />
  </g>

</svg>
