<?xml version="1.0" standalone="no"?>
<!DOCTYPE svg PUBLIC "-//W3C//DTD SVG 1.1//EN" "http://www.w3.org/Graphics/SVG/1.1/DTD/svg11.dtd" >
<svg viewBox="0 -410 2048 2048">
  <g transform="matrix(1 0 0 -1 0 1638)">
   <path fill="currentColor"
d="M229 738q0 70 42.5 132.5t115.5 109t171 73.5t209 27h1q111 0 209 -27t171 -73t115.5 -108.5t42.5 -132.5q0 -16 -3 -31q-1 -4 -1 -7.5t-1 -6.5q-1 -1 -1 -2q-1 -5 -3 -13q0 -1 -0.5 -1.5t-0.5 -1.5q-2 -3 -2 -6t-2 -6q-1 -1 -1 -2q-6 -17 -15.5 -34t-20.5 -33
q-32 -44 -82 -80.5t-113 -63t-138 -41t-156 -14.5h-3q-31 0 -61 3h1q-13 0 -17 -1t-5 -2q-5 -2 -8.5 -8t-4.5 -8q-5 -12 -17.5 -36.5t-36.5 -49t-60.5 -43t-88.5 -18.5q-45 1 -83 6q-32 4 -62.5 13.5t-39.5 27.5q45 -3 77 4.5t54 18.5q26 12 43 30q14 16 19.5 32t6 30.5
t-3 26t-6.5 17.5q-6 11 -17 18.5t-11 8.5q-98 47 -155.5 117.5t-57.5 154.5zM1282 591q71 -11 131 -35.5t104 -60t69 -79t25 -91.5q0 -56 -33.5 -106t-92 -87t-137 -58.5t-167.5 -21.5h-26.5t-24.5 2q-11 0 -14 -1t-4 -1q-5 -2 -7.5 -6.5t-2.5 -5.5q-4 -10 -14 -30
t-29.5 -39.5t-48.5 -34t-71 -14.5q-36 1 -66 5q-26 4 -49.5 11t-31.5 21q35 -2 61 4t43 15q20 10 34 24q12 13 16.5 26t4.5 24.5t-2.5 20.5t-5.5 14q-5 9 -13.5 15t-9.5 6q-78 38 -124 94.5t-46 123.5q0 23 6 46h11q86 0 165 16t146 45t119 69t85 89zM1617 644
q16 -18 42 -30q21 -11 53.5 -19t76.5 -5q-10 -17 -40 -26.5t-62 -13.5q-38 -5 -83 -6q-52 0 -88.5 18t-60.5 42.5t-37 49t-17 37.5q-1 1 -4.5 7.5t-8.5 8.5q-1 0 -5 1t-17 1q-9 -1 -19 -1h-21q3 13 3 30q0 76 -44 142.5t-120 116t-177 78t-216 29.5q16 61 63 113t117.5 90.5
t160 60.5t190.5 22q112 0 210 -27t171 -73.5t115.5 -108.5t42.5 -133q0 -84 -58 -154t-155 -118q-1 0 -11.5 -7.5t-17.5 -19.5q-3 -6 -6.5 -17.5t-3 -25.5t6 -30.5t20.5 -31.5z" />
  </g>

</svg>
