<?xml version="1.0" standalone="no"?>
<!DOCTYPE svg PUBLIC "-//W3C//DTD SVG 1.1//EN" "http://www.w3.org/Graphics/SVG/1.1/DTD/svg11.dtd" >
<svg viewBox="0 -410 2048 2048">
  <g transform="matrix(1 0 0 -1 0 1638)">
   <path fill="currentColor"
d="M1743 932q35 -47 54 -103t19 -119q0 -78 -29.5 -146.5t-80.5 -119.5t-119.5 -80.5t-146.5 -29.5t-146.5 29.5t-119.5 80.5t-80.5 119.5t-29.5 146.5q0 28 4 54t11 52q-17 8 -29 11t-26 3t-26 -3t-29 -11q7 -26 11 -52t4 -54q0 -78 -29.5 -146.5t-80.5 -119.5
t-119.5 -80.5t-146.5 -29.5t-146.5 29.5t-119.5 80.5t-80.5 119.5t-29.5 146.5q0 63 19 119t54 103v51h-17q-14 0 -23 9t-9 23v15q0 14 9 23t23 9h188q31 11 64 17.5t68 6.5q58 0 110.5 -16.5t97.5 -46.5t80 -71.5t57 -91.5q20 9 35.5 13.5t35.5 4.5t35.5 -4.5t35.5 -13.5
q22 50 57 91.5t80 71.5t97.5 46.5t110.5 16.5q35 0 68 -6.5t64 -17.5h188q14 0 23 -9t9 -23v-15q0 -14 -9 -23t-23 -9h-17v-51zM306 1014l15 9l-15 9l-9 15l-9 -15l-15 -9l15 -9l9 -15zM608 382q68 0 127.5 26t104 70.5t70.5 104t26 127.5t-26 127.5t-70.5 104t-104 70.5
t-127.5 26t-127.5 -26t-104 -70.5t-70.5 -104t-26 -127.5t26 -127.5t70.5 -104t104 -70.5t127.5 -26zM1727 1023l15 -9l9 -15l9 15l15 9l-15 9l-9 15l-9 -15zM1440 382q68 0 127.5 26t104 70.5t70.5 104t26 127.5t-26 127.5t-70.5 104t-104 70.5t-127.5 26t-127.5 -26
t-104 -70.5t-70.5 -104t-26 -127.5t26 -127.5t70.5 -104t104 -70.5t127.5 -26z" />
  </g>

</svg>
