<?xml version="1.0" standalone="no"?>
<!DOCTYPE svg PUBLIC "-//W3C//DTD SVG 1.1//EN" "http://www.w3.org/Graphics/SVG/1.1/DTD/svg11.dtd" >
<svg viewBox="0 -410 2048 2048">
  <g transform="matrix(1 0 0 -1 0 1638)">
   <path fill="currentColor"
d="M344 62h1360v784h-1360v-784zM320 854q0 16 16 16h1376q16 0 16 -16v-800q0 -16 -16 -16h-1376q-16 0 -16 16v800zM320 806h1408v-128h-1408v128zM1508 390h128v-128h-128v128zM896 390h576v-24h-576v24zM896 326h576v-24h-576v24zM896 262h576v-24h-576v24zM1508 234
h128v-128h-128v128zM1636 478l-24 -24v24h24zM436 478h1176v112h-1176v-112zM412 614h1224v-160h-1224v160zM982 529l-4 2q2 -2 0 -4q1 1 6 1zM915 535l9 3q3 1 5.5 1.5t5.5 0.5q9 1 19 0q6 -2 11 -4t7 -4q5 -6 4 -10q-1 -2 -1.5 -2.5t-1.5 -2.5q-7 -7 -19 -7.5t-22 6.5
q-13 8 -8 21q2 6 6 10l2.5 2.5t3.5 2.5q15 11 40 9.5t57 -17.5q4 -2 7.5 -3.5t6.5 -3.5q2 -2 4.5 -3t3.5 -2q2 -3 1 -4q-3 -2 -12.5 -3t-21.5 -1q-11 1 -21 2t-17 2q2 1 7 1q14 2 30.5 1.5t33.5 -2.5h9q9 -2 18 -3.5t19 -4.5q4 -1 8 -1.5t9 -2.5q9 -2 12 -4h2l-2 3q2 4 4 4
q-1 1 -3.5 1t-6.5 2l-4 2q-17 7 -26 12q-6 4 -10 8t-6 8q-1 5 -3 7q-2 3 -5 3t-3 -5q2 -5 6 -12t14 -14l1 -1q10 -8 29 -14l4 -2t6.5 -2t3.5 -1h2q2 0 5 4q-2 4 -3 4t-1 0.5t-1 0.5q-3 0 -13 4q-4 1 -8 1.5t-9 2.5q-4 1 -7 1.5t-7 1.5q-7 1 -13.5 2t-13.5 3q-3 0 -6.5 0.5
t-7.5 0.5q-15 1 -29 1.5t-28 -1.5q-5 0 -11 -2l-4 -2t-4 -1q-6 -6 4 -10l2 -1q2 -1 6 -1q13 -4 38 -4q29 -2 40 6q1 2 2 2.5t2 2.5q0 2 -0.5 4t-3.5 5t-9 7t-16 9q-34 17 -61 18t-44 -10q-10 -9 -14 -16l-3 -9q-2 -16 13 -25q12 -8 26.5 -7t23.5 9q4 4 6 8q2 5 0 8
q-1 4 -4 8q-4 3 -10 6.5t-15 5.5q-5 1 -10 1.5t-11 -1.5h-4q-8 -2 -12 -4q-3 0 -5.5 -1t-5.5 -3q-4 -2 -15 -6.5t-14 -5.5q-11 -5 -20.5 -9t-19.5 -6q-8 -2 -13 -2q-18 -3 -36.5 -1.5t-38.5 6.5q-9 4 -16 5q-3 1 -5 3q-4 0 -5 -3q-2 -3 2 -5q1 0 7 -2l8 -2t9 -3
q19 -5 38.5 -6.5t37.5 1.5q4 0 7 0.5t7 1.5q11 2 21 6t21 9q3 2 14 6.5t14 6.5q2 0 3 0.5t2 0.5zM1154 529q3 -3 7 -9l3 -6q6 -11 6 -14q0 1 -1 1q-3 1 -13 6q-8 5 -15.5 9t-12.5 9q-6 6 -6 7l-1 1q3 3 29 -1q4 0 4 -3zM1243 509q3 -1 5 3q1 1 0 2.5t-2 1.5q-60 18 -91 23.5
t-37 -0.5q-9 -7 7 -20q5 -5 12 -10t17 -10q21 -12 24 -2q3 7 -6 20l-1.5 3l-1.5 3q-2 2 -4 6q27 -3 78 -20zM1164 531q-2 2 -2 3l-4 4q-2 4 -5 1q-4 -4 -1 -6l1 -1q6 0 11 -1z" />
  </g>

</svg>
