<?xml version="1.0" standalone="no"?>
<!DOCTYPE svg PUBLIC "-//W3C//DTD SVG 1.1//EN" "http://www.w3.org/Graphics/SVG/1.1/DTD/svg11.dtd" >
<svg viewBox="0 -410 2048 2048">
  <g transform="matrix(1 0 0 -1 0 1638)">
   <path fill="currentColor"
d="M562 588l272 157l-272 157l96 166l368 -212l368 212l96 -166l-272 -157l272 -157l-96 -166l-368 212l-368 -212zM1330 569q-7 -11 -3.5 -24t15.5 -20q11 -7 24 -3t20 15q6 11 2.5 24t-14.5 20q-12 7 -25 3t-19 -15zM1342 965q-12 -7 -15.5 -20t3.5 -24q6 -11 19 -15t25 3
q11 7 14.5 20t-2.5 24q-7 11 -20 15t-24 -3zM720 921q7 11 3.5 24t-15.5 20q-11 7 -24 3t-20 -15t-3 -24t15 -20t24 -3t20 15zM677 581q-11 -7 -15 -20t3 -24t20 -15t24 3t15 20t-3 24t-20 15t-24 -3zM2048 550v-960h-1106q-43 24 -62 45t-21 38.5t9.5 32t29.5 26.5
q43 27 127 46q77 15 161 32t164 37.5t151.5 45t123.5 55t79.5 67.5t21.5 82q-16 49 -81 88q-28 16 -69.5 31.5t-100.5 27t-137.5 18t-179.5 4.5q87 -5 151.5 -15t112 -22.5t78.5 -27t51 -29.5q46 -34 45 -75q-5 -27 -44.5 -47.5t-104 -36.5t-147.5 -29t-174 -24.5
t-185.5 -23t-181 -25t-159.5 -30t-122 -37.5q-70 -35 -104 -75q-15 -17 -23 -37.5t-4 -43.5t23.5 -47.5t59.5 -50.5h-430v960h498v430h-130q-11 0 -15 10.5t5 17.5l659 516q9 7 20 0l267 -209v149q0 15 10 25t24 10h111q14 0 24 -10t10 -25v-240v-49l214 -167q9 -7 5 -17.5
t-15 -10.5h-129l-1 -430h491zM414 1012h116v-32v-664q0 -2 3 -2h350v214l143 83l150 -86v-211h348q2 0 2 2l1 672v24h115l-183 144l-6 4v44v260q0 3 -3 3h-110q-2 0 -2 -3v-128v-88l-28 22l-282 220z" />
  </g>

</svg>
