<?xml version="1.0" standalone="no"?>
<!DOCTYPE svg PUBLIC "-//W3C//DTD SVG 1.1//EN" "http://www.w3.org/Graphics/SVG/1.1/DTD/svg11.dtd" >
<svg viewBox="0 -410 2075 2048">
  <g transform="matrix(1 0 0 -1 0 1638)">
   <path fill="currentColor"
d="M1561 1560q66 0 124.5 -25t102 -68.5t68.5 -102t25 -124.5t-25 -124.5t-68.5 -102t-102 -68.5t-124.5 -25t-124.5 25t-102 68.5t-68.5 102t-25 124.5t25 124.5t68.5 102t102 68.5t124.5 25zM1468 736q-31 -20 -67 -40t-75 -39q-42 39 -75 74.5t-65.5 56t-68 21
t-82.5 -30.5q-51 -34 -113 -64.5t-127 -57.5v66q22 1 46 6t44 17t32.5 33t12.5 54q-1 98 -2.5 158.5t-7 92.5t-16.5 41.5t-31 5.5q-13 -3 -18.5 -23t-7 -48.5t0 -61.5t2 -62.5t-1.5 -51t-9 -26.5q-9 -6 -21 -8t-23 -3q0 92 -1 186.5t-3 174.5t-5 137t-8 75q-9 34 -24 52
t-31.5 20t-33 -12t-29.5 -44q-5 -12 -8 -47t-4 -86t-0.5 -114.5t2.5 -132.5q-14 -2 -38.5 -2t-41.5 11q-8 5 -9.5 26.5t-1 51t2 62.5t0 61.5t-7 48.5t-18.5 23q-20 4 -31 -5.5t-16.5 -41.5t-7.5 -92.5t-3 -157.5q0 -42 20 -65t48.5 -33.5t58 -11.5t48.5 0q3 -89 6.5 -173.5
t6.5 -152.5q-48 -18 -89 -31.5t-70 -22.5h-203l5 82.5t6 104.5q13 0 33 0.5t38 6.5t31 19t13 36q-1 55 -2.5 88.5t-5 52t-11 23.5t-20.5 3t-15.5 -25t-1.5 -50t1.5 -50.5t-6.5 -27.5q-11 -6 -26 -6t-25 1q2 44 3 85.5t1 75t-2 56.5t-6 31q-18 35 -42 32.5t-36 -40.5
q-4 -12 -5.5 -54t-1.5 -99t1 -121t2 -120q-2 0 -9 -1t-16 -1t-18 1.5t-15 5.5q-8 4 -7.5 27.5t1.5 50.5t-1.5 49.5t-15.5 25.5q-13 2 -20.5 -3t-11 -23.5t-4.5 -52.5t-2 -89q0 -24 14.5 -37t34.5 -18.5t40.5 -5.5t31.5 1v-34h-234v-960h2048v958l27 1q-93 17 -160 47
t-117.5 62t-89.5 60.5t-75.5 43.5t-75.5 11t-89 -37zM1421 507q-24 21 -49 47q-21 22 -45.5 52t-44.5 67q44 -57 106.5 -108.5t121.5 -93.5q69 -48 142 -91l-24 10t-59.5 27.5t-76 40.5t-71.5 49zM1849 564q-23 11 -44 27q-18 14 -38 33t-34 45q31 -33 80 -58t96 -42
q55 -20 114 -35q-36 -2 -67.5 2.5t-55.5 10.5q-28 7 -51 17z" />
  </g>

</svg>
