<?xml version="1.0" standalone="no"?>
<!DOCTYPE svg PUBLIC "-//W3C//DTD SVG 1.1//EN" "http://www.w3.org/Graphics/SVG/1.1/DTD/svg11.dtd" >
<svg viewBox="0 -410 2048 2048">
  <g transform="matrix(1 0 0 -1 0 1638)">
   <path fill="currentColor"
d="M1056 868q59 0 111 -22.5t91 -61.5t61.5 -91t22.5 -111t-22.5 -111t-61.5 -91t-91 -61.5t-111 -22.5t-111 22.5t-91 61.5t-61.5 91t-22.5 111t22.5 111t61.5 91t91 61.5t111 22.5zM1056 1064q100 0 187.5 -38t153 -103.5t103.5 -153t38 -187.5t-38 -187.5t-103.5 -153
t-153 -103.5t-187.5 -38t-187.5 38t-153 103.5t-103.5 153t-38 187.5t38 187.5t103.5 153t153 103.5t187.5 38zM1056 280q62 0 117 24t96 65t65 96t24 117t-24 117t-65 96t-96 65t-117 24t-117 -24t-96 -65t-65 -96t-24 -117t24 -117t65 -96t96 -65t117 -24zM1056 1126
q113 0 212 -42.5t173 -116.5t116.5 -173t42.5 -212t-42.5 -212t-116.5 -173t-173 -116.5t-212 -42.5t-212 42.5t-173 116.5t-116.5 173t-42.5 212t42.5 212t116.5 173t173 116.5t212 42.5zM1056 84q103 0 194 39t158.5 106.5t106.5 158.5t39 194t-39 194t-106.5 158.5
t-158.5 106.5t-194 39t-194 -39t-158.5 -106.5t-106.5 -158.5t-39 -194t39 -194t106.5 -158.5t158.5 -106.5t194 -39zM500 837q2 -18 4 -34q2 -14 2 -27t-2 -19q-2 -16 -11.5 -28t-23.5 -17h1l-16 -5q-6 -2 -10.5 -8.5t-4.5 -13.5v-599q0 -16 -16 -16h-29q-6 0 -11 4.5
t-5 11.5v599q0 7 -4.5 13.5t-10.5 8.5l-17 6q-14 5 -23.5 17t-10.5 28q-2 6 -1.5 19t1.5 27q1 16 3 34l29 240q1 7 2 7t2 -7l29 -240l29 240q1 7 2 7t2 -7l28 -240l29 240q1 7 2 7t2 -7zM1736 965q5 -26 7 -77q2 -44 1 -120t-7 -194q-2 -16 -17 -16h-9v-472q0 -16 -16 -16
h-29q-6 0 -11 4.5t-5 11.5v472q-14 2 -14 16v504q0 15 15 12q21 -1 37 -20.5t27 -42.5q12 -27 21 -62z" />
  </g>

</svg>
