<?xml version="1.0" standalone="no"?>
<!DOCTYPE svg PUBLIC "-//W3C//DTD SVG 1.1//EN" "http://www.w3.org/Graphics/SVG/1.1/DTD/svg11.dtd" >
<svg viewBox="0 -410 2048 2048">
  <g transform="matrix(1 0 0 -1 0 1638)">
   <path fill="currentColor"
d="M1529 900q-8 0 -8 -8v-113q0 -8 8 -8h70q8 0 8 -8v-719q0 -8 -8 -8h-1150q-8 0 -8 8v1108q0 8 8 8h1150q8 0 8 -8v-244q0 -8 -8 -8h-70zM1089 296q0 18 -12.5 30.5t-30.5 12.5t-31 -12.5t-13 -30.5v-130q0 -18 13 -30.5t31 -12.5t30.5 12.5t12.5 30.5v130zM1040 384
q33 0 62 12.5t50.5 34.5t34 51t12.5 62t-12.5 62t-34 50.5t-50.5 34t-62 12.5t-62 -12.5t-50.5 -34t-34 -50.5t-12.5 -62t12.5 -62t34 -51t50.5 -34.5t62 -12.5zM1262 1065q0 8 -8 8h-719q-8 0 -8 -8v-286q0 -8 8 -8h719q8 0 8 8v286z" />
  </g>

</svg>
