<?xml version="1.0" standalone="no"?>
<!DOCTYPE svg PUBLIC "-//W3C//DTD SVG 1.1//EN" "http://www.w3.org/Graphics/SVG/1.1/DTD/svg11.dtd" >
<svg viewBox="0 -410 2048 2048">
  <g transform="matrix(1 0 0 -1 0 1638)">
   <path fill="currentColor"
d="M1756 1089q4 -1 6.5 -1t4 -1t1.5 -4.5t-1 -12.5q0 -7 -2 -15q-2 -7 -4.5 -16t-7.5 -18l-27 -3l20 -8q0 -9 -3.5 -15.5t-7.5 -10.5t-10 -7q-9 -3 -27 -6.5t-37.5 -7t-36.5 -7.5t-23 -8q-12 -8 -24.5 -21.5t-31.5 -42.5q-8 -12 -17 -23q-8 -10 -18 -21t-22 -20
q5 -39 6 -75.5t-1 -65.5q-2 -33 -5 -63q-5 -38 -14.5 -74.5t-19.5 -70.5t-19.5 -65t-15.5 -56q-5 -24 -4 -65q0 -36 5 -95.5t19 -151.5q6 -7 14 -10.5t16 -5.5q9 -2 19 -2q12 0 20.5 -9.5t13 -21.5t4.5 -23t-4 -15q-4 -3 -14 -4q-9 -1 -25 -1t-43 5q5 -5 10 -10.5t8 -9.5
q4 -5 7 -9q3 -6 1.5 -11.5t-5.5 -10t-10 -6t-11 0.5q-9 -14 -29 -15.5t-37 5.5q-17 -8 -34.5 -6t-28.5 16q-3 5 -5 13q-2 7 -1 17.5t6 25.5q4 25 4.5 45.5t-0.5 34.5q-1 17 -4 30q-3 11 -8.5 39t-13.5 63.5t-18.5 75t-21.5 73t-23.5 57t-25.5 27.5q-37 -5 -76 -1t-76 12.5
t-71.5 19t-63 19.5t-49 14t-29.5 3q-23 -7 -32.5 -23t-17.5 -36t-20.5 -41.5t-41.5 -38.5q-26 -16 -62 -36.5t-59 -49.5q-12 -15 -25 -35t-22 -44t-11.5 -51t6.5 -55q14 -3 24 -7t16 -7q7 -4 12 -8q5 -5 10.5 -14.5t7.5 -19t-1.5 -16.5t-16.5 -7q-14 0 -36 1t-43.5 4
t-38 8.5t-18.5 14.5q-3 17 -3 33.5t1.5 31.5t2.5 28.5t-1 24.5q-1 9 -5 18q-3 8 -8.5 17t-14.5 17l-37 -43q-29 -29 -33 -58t4 -52q9 -27 29 -53q19 -2 31 -5.5t20 -7.5q9 -4 14 -9q5 -6 11.5 -16t10.5 -20t4 -18.5t-7 -12.5q-8 -4 -34 -2.5t-55.5 7t-56 14t-33.5 18.5
t-12 40.5t-8 65.5t-4.5 66t-1.5 42q0 12 14 30t33.5 42.5t40 55t34.5 68.5q13 37 18 66t6 55.5t-0.5 53.5t-1.5 60q1 26 10 56q8 26 24 58.5t47 67.5q-26 29 -47.5 53.5t-37.5 41.5q-18 20 -34 35q-19 20 -32 54t-15.5 74.5t8 85t39.5 86.5q28 42 57 65.5t59 33.5t61.5 7.5
t66.5 -12.5q34 -10 67.5 -32.5t63 -49t54.5 -52.5t42 -42q11 -10 24.5 -19t24 -16.5t14.5 -13t-2.5 -8.5t-27 -3.5t-60.5 2.5q-2 0 -7.5 1.5t-12 3.5t-12.5 3.5t-8 1.5q-12 4 -36.5 16.5t-52 24.5t-55 18.5t-45.5 -0.5q-28 -11 -45 -28t-26.5 -37t-12.5 -42.5t-3 -44.5
q1 -19 6 -45q5 -23 14.5 -55.5t27.5 -76.5q29 16 68 24.5t83 12t90 3t90 -2.5t83.5 -4t69.5 -1t60.5 20.5t58.5 49.5t53 67t44.5 71.5t32 63.5t16.5 44q5 17 11 35q5 15 12.5 33t17.5 35q11 51 23 77.5t22 38.5q11 14 22 16q10 -2 18 -15q7 -11 11.5 -34.5t2.5 -65.5l37 -8
q26 36 42 57t24 32q10 12 14 17q9 8 18 10t16 -15q2 -8 4 -25q2 -14 3.5 -39t2.5 -66q21 -18 33 -32q6 -7 9 -13q1 -4 2 -9t2 -12t1 -17q32 -10 51.5 -15.5t29.5 -8.5q11 -4 16 -6z" />
  </g>

</svg>
