<?xml version="1.0" standalone="no"?>
<!DOCTYPE svg PUBLIC "-//W3C//DTD SVG 1.1//EN" "http://www.w3.org/Graphics/SVG/1.1/DTD/svg11.dtd" >
<svg viewBox="0 -410 2048 2048">
  <g transform="matrix(1 0 0 -1 0 1638)">
   <path fill="currentColor"
d="M1713 956q13 -6 0 -12l-305 -114l-369 -138q-7 -3 -15.5 -2.5t-14.5 2.5l-369 138l-192 72l-24 9l-89 33q-6 2 -6 6t6 6l674 252q7 3 15.5 2.5t14.5 -2.5zM1408 813v-247q-60 -27 -127.5 -41.5t-124.5 -21.5q-67 -8 -132 -9q-65 1 -132 9q-29 3 -60.5 8.5t-64.5 13
t-65 17.5t-62 24v246l363 -136q9 -3 21 -3t21 3zM481 8q2 -4 -3 -4h-80q-4 0 -4 4l30 175h-12q-4 0 -4 4v25q-16 13 -16 31q0 14 9 24t23 14v613l24 -9v-605q14 -3 23 -13.5t9 -24.5q0 -20 -16 -31v-25q0 -4 -4 -4h-6z" />
  </g>

</svg>
