<?xml version="1.0" standalone="no"?>
<!DOCTYPE svg PUBLIC "-//W3C//DTD SVG 1.1//EN" "http://www.w3.org/Graphics/SVG/1.1/DTD/svg11.dtd" >
<svg viewBox="0 -410 2048 2048">
  <g transform="matrix(1 0 0 -1 0 1638)">
   <path fill="currentColor"
d="M1760 1010v-950l-485 548q19 12 38 25.5t39 27.5q33 24 67.5 50.5t69.5 55.5q52 42 102.5 87t98.5 90q17 15 32.5 29.5t29.5 28.5zM1023 506q43 0 97 21t120 60l494 -557h-1420l493 556q66 -39 120 -59.5t96 -20.5zM742 628q8 -5 15 -10t15 -10l-485 -547v950l8 -8
q14 -14 29 -28t32 -31q48 -45 99 -89.5t102 -86.5q50 -43 100 -79l21 35q-23 17 -46.5 35.5t-47.5 38.5q-101 84 -199 175q-35 31 -61 58q-5 5 -9 8.5t-8 7.5q-2 1 -4 3q-1 1 -1 2q-1 1 -1 2h3h578l108 175q5 7 12 8q8 2 15 -4l1 -1l159 -164h1l351 316q5 5 9.5 4.5
t6.5 -2.5t3 -5.5t-2 -10.5l-171 -317h369h3l-1 -1l-6 -6q-4 -4 -8 -7.5t-9 -8.5q-14 -13 -29 -27.5t-32 -30.5q-48 -45 -98 -89t-101 -86q-70 -58 -134 -104q-99 -71 -176.5 -109t-128.5 -38q-44 0 -107.5 28t-142.5 82zM673 676l-123 -200l176 162l287 262q3 6 12 6
q7 1 15 -6l152 -148l315 586l-317 -285v-1q-2 0 -4 -2l-1 -1q-1 0 -1 -0.5t-1 -0.5h-2h-1h-3q-6 0 -13 5l-1 1l-157 163z" />
  </g>

</svg>
