<?xml version="1.0" standalone="no"?>
<!DOCTYPE svg PUBLIC "-//W3C//DTD SVG 1.1//EN" "http://www.w3.org/Graphics/SVG/1.1/DTD/svg11.dtd" >
<svg viewBox="0 -410 2048 2048">
  <g transform="matrix(1 0 0 -1 0 1638)">
   <path fill="currentColor"
d="M609 41h-1h1zM1316 1295q57 -33 94.5 -83.5t53 -109t7.5 -121t-41 -119.5q-26 -45 -64 -78.5t-83 -53t-94.5 -25t-98.5 5.5l-14 -114l-101 -62l-62 -138l-68 -61l-19 -88l-53 -37l-33 -113l-121 -63l-11 6l403 699l-18 10l-403 -698l-16 9l5 130l351 609q-36 37 -58 83
t-28.5 96t3 101.5t36.5 98.5q33 57 83.5 94t109.5 53t121 9t119 -40zM1290 1077q18 32 9 66.5t-41 52.5q-31 17 -65.5 8t-52.5 -40q-17 -32 -8.5 -66.5t40.5 -52.5q15 -9 32.5 -11t33.5 2.5t29.5 14.5t22.5 26z" />
  </g>

</svg>
