<?xml version="1.0" standalone="no"?>
<!DOCTYPE svg PUBLIC "-//W3C//DTD SVG 1.1//EN" "http://www.w3.org/Graphics/SVG/1.1/DTD/svg11.dtd" >
<svg viewBox="0 -410 2048 2048">
  <g transform="matrix(1 0 0 -1 0 1638)">
   <path fill="currentColor"
d="M1344 486h64v-128h-64v128zM1216 486h64v-128h-64v128zM1472 486h64v-128h-64v128zM2048 550v-960h-2048v960h62q4 12 17.5 49.5t29 86t30.5 100.5t23 93q7 35 13 81q5 39 9 93t6 122q0 23 21.5 43.5t58.5 35.5t86.5 24t106.5 9t106.5 -9t87 -24t59 -35.5t21.5 -43.5
q-2 -75 1.5 -131t7.5 -94q4 -45 11 -77q6 -27 17 -63t24.5 -73.5t27.5 -73.5t25 -63q9 27 21 62t24 73t22.5 75.5t16.5 67.5q7 35 13 81q5 39 9 93.5t5 121.5q0 23 22 43.5t59 35.5t86.5 24t106.5 9t106.5 -9t87 -24t59 -35.5t21.5 -43.5q-2 -75 1.5 -131t7.5 -94
q4 -45 11 -77q5 -23 14 -53.5t20.5 -63t24 -65t23.5 -60.5h100v256h128v-256h96v-80h112zM464 1091q47 0 88.5 6.5t72 17.5t48.5 26.5t18 32.5t-18 32t-48.5 26.5t-72 18t-88.5 6.5t-88.5 -6.5t-72.5 -18t-48.5 -26.5t-17.5 -32t17.5 -32.5t48.5 -26.5t72.5 -17.5t88.5 -6.5
zM1010 1174q0 -17 17.5 -32.5t48.5 -26.5t72.5 -17.5t88.5 -6.5t88.5 6.5t72 17.5t48.5 26.5t18 32.5t-18 32t-48.5 26.5t-72 18t-88.5 6.5t-88.5 -6.5t-72.5 -18t-48.5 -26.5t-17.5 -32zM1904 598h-95v16h-1v240h-64v-224v-32h-704v-416h624v240h128v-240h112v416z" />
  </g>

</svg>
