<?xml version="1.0" standalone="no"?>
<!DOCTYPE svg PUBLIC "-//W3C//DTD SVG 1.1//EN" "http://www.w3.org/Graphics/SVG/1.1/DTD/svg11.dtd" >
<svg viewBox="0 -410 2048 2048">
  <g transform="matrix(1 0 0 -1 0 1638)">
   <path fill="currentColor"
d="M1312 1212q73 0 137 -27.5t112 -75.5t75.5 -112t27.5 -137q0 -27 -1.5 -67t-12 -88.5t-32.5 -104.5t-63 -114.5t-104.5 -119t-155.5 -118.5q-73 -45 -161 -87q-38 -18 -82.5 -37.5t-94.5 -38.5t-105 -36.5t-113 -31.5q16 57 8.5 111.5t-22.5 97.5q-18 50 -45 95
q-29 44 -62.5 84t-66.5 79.5t-63 80t-53 85.5t-37 96.5t-14 113.5q0 73 27.5 137t75.5 112t112 75.5t137 27.5q90 0 165 -41t123 -109q48 68 123 109t165 41z" />
  </g>

</svg>
