<?xml version="1.0" standalone="no"?>
<!DOCTYPE svg PUBLIC "-//W3C//DTD SVG 1.1//EN" "http://www.w3.org/Graphics/SVG/1.1/DTD/svg11.dtd" >
<svg viewBox="0 -410 2048 2048">
  <g transform="matrix(1 0 0 -1 0 1638)">
   <path fill="currentColor"
d="M722 352q18 -26 27.5 -64.5t10 -80.5t-8 -82t-25.5 -69q-4 -4 -4 -6q-35 8 -73 22t-72.5 29t-63.5 28.5t-45 22.5q-8 5 -15 12t-8 17q-3 18 -7 50t-9.5 72t-11.5 85t-10.5 90t-8.5 87t-5 75v12v12q0 50 4 118t9 135t10 123.5t7 83.5q1 10 7.5 18t14.5 13q16 9 43.5 24
t61.5 31.5t71.5 32t72.5 25.5q0 -3 4 -5q18 -28 28.5 -67.5t12 -81t-6 -80.5t-24.5 -66q-8 2 -20 4t-18 4q-10 3 -20.5 1.5t-19.5 -7t-14.5 -14t-5.5 -18.5q-14 -54 -20.5 -105t-9.5 -92q-4 -48 -3 -89q2 -42 7 -88q5 -39 13.5 -88t25.5 -99q0 -10 6.5 -18t15.5 -13t20 -6
t20 2q7 2 18.5 5t18.5 5zM738 960q13 30 18 73t2.5 88t-11.5 86.5t-25 68.5q29 6 53 6t39 -11q16 -11 27 -35.5t17 -55t7 -64.5t-3.5 -65t-14.5 -55t-26 -35q-12 -8 -34.5 -7t-48.5 6zM835 365q17 -10 28 -33.5t17 -54t6.5 -64.5t-4 -65t-14.5 -55.5t-25 -36.5
q-14 -11 -38 -13t-53 3q14 28 21 70t7 87t-7 87.5t-21 71.5q26 7 48 9t35 -6zM1578 1208q35 -5 55.5 -23.5t18.5 -50.5v-712q0 -4 -3 -8q-1 -2 -2.5 -3t-3.5 -3q-4 -4 -8 -7.5t-9 -8.5q-14 -12 -30 -23t-34 -22q-54 -32 -115.5 -49.5t-132.5 -17.5q-90 0 -185.5 32
t-198.5 100q-6 3 -6 10v520q0 6 5 9.5t11 1.5q119 -39 218.5 -49.5t182.5 6.5q47 9 86.5 26.5t73.5 40.5v221q0 10 10 12q2 0 3.5 0.5t4.5 0.5q14 1 29 0.5t30 -3.5zM1525 1187v-191q7 6 13 12l12 12q38 37 62 81q4 8 7 14.5t6 12.5q2 6 3 8q2 21 -12.5 32t-41.5 16
q-25 5 -50 3h1zM1628 1081q-23 -41 -61 -79q-11 -11 -22 -21t-24 -19q-2 -3 -4 -3q-35 -28 -78 -45.5t-94 -27.5q-83 -17 -181.5 -7.5t-215.5 46.5v-497q98 -63 189.5 -93t176.5 -30q68 0 126.5 17t109.5 46q34 19 61 43q5 4 8.5 7.5l6.5 6.5l2 2v654z" />
  </g>

</svg>
