<?xml version="1.0" standalone="no"?>
<!DOCTYPE svg PUBLIC "-//W3C//DTD SVG 1.1//EN" "http://www.w3.org/Graphics/SVG/1.1/DTD/svg11.dtd" >
<svg viewBox="0 -410 2048 2048">
  <g transform="matrix(1 0 0 -1 0 1638)">
   <path fill="currentColor"
d="M1817 950q3 0 5 -0.5t0 -1.5v-178v-720q0 -6 -7 -6h-1554q-7 0 -7 6v720v173l-28 176q0 2 7 2l1536 243q8 2 8 0l28 -176q-1 -1 -2 -1t-2 -0.5t-3 -0.5l-1493 -236h1512zM1562 1179l120 19l38 144l-119 -18zM1354 1147l119 19l38 144l-119 -19zM1145 1113l119 19l38 144
l-119 -19zM937 1080l119 20l38 144l-119 -20zM728 1048l119 19l39 144l-120 -19zM519 1014l119 19l39 144l-119 -19zM310 981l120 19l38 144l-119 -19zM496 792l-60 136h-121l60 -136h121zM707 792l-60 136h-121l60 -136h121zM918 792l-60 136h-120l60 -136h120zM1130 792
l-60 136h-121l60 -136h121zM1341 792l-60 136h-121l60 -136h121zM1552 792l-60 136h-121l60 -136h121zM1764 792l-60 136h-121l60 -136h121z" />
  </g>

</svg>
