<?xml version="1.0" standalone="no"?>
<!DOCTYPE svg PUBLIC "-//W3C//DTD SVG 1.1//EN" "http://www.w3.org/Graphics/SVG/1.1/DTD/svg11.dtd" >
<svg viewBox="0 -410 2048 2048">
  <g transform="matrix(1 0 0 -1 0 1638)">
   <path fill="currentColor"
d="M1512 748q31 -18 67 -23t69 -15q13 -5 28 -14q13 -8 29.5 -20t36.5 -31q-17 2 -32 2.5t-27 -0.5q-14 -1 -27 -2q-16 -2 -36 -2.5t-40 -0.5t-37.5 1t-29.5 2q-29 5 -55 27q-23 19 -47 56t-41 104q-114 -10 -190.5 -21t-123.5 -22q-55 -12 -87 -25q-37 -15 -66.5 -41
t-54 -57t-45 -64.5t-40.5 -64.5q-2 -2 -3.5 -5t-3.5 -6q11 -4 22.5 -6.5t19.5 -7.5t10 -11.5t5.5 -12t11.5 -10t29 -6.5q18 -2 24.5 -6t9.5 -10t8.5 -12.5t22.5 -12.5q12 -4 30 -9.5t36 -11.5t30.5 -12t13 -12t-16 -11.5t-57.5 -9.5q-44 -4 -86 0.5t-79 14t-67.5 21
t-51.5 21.5q-34 -35 -71.5 -65t-75.5 -45q-20 -8 -45 -13.5t-53 -10.5q-5 -11 -21 -16q-11 -3 -20 -0.5t-11 8.5v1q-28 -3 -54 -3.5t-48 0.5t-38.5 4t-23.5 8q-8 6 -13 20.5t-6.5 35t-0.5 44.5t4 50q-11 7 -9 26q0 11 5 18.5t11 8.5q2 11 4.5 22t4.5 21q14 64 66 136
t148 155q-2 18 -4.5 51t-0.5 75t11 89t30 93q17 37 27.5 51t16 11.5t7 -16.5t1.5 -33t-1 -38t-1 -31q0 -18 4.5 -25t9.5 -12.5t7 -12.5t-2 -25q-5 -20 -3.5 -29.5t5.5 -15t9.5 -9.5t7.5 -13q2 -5 1.5 -12t-1.5 -15q44 22 89.5 36t89.5 22t86 11t78 3q66 -2 142 -13
q65 -10 149 -31t176 -59q11 32 22.5 52.5t21.5 31.5q11 13 23 19q28 13 57 25t54 29.5t42.5 43.5t22.5 67q18 -44 20.5 -75t-2.5 -51q-5 -24 -18 -39q-16 -14 -43 -31q-23 -14 -60.5 -33t-93.5 -39q31 11 58.5 14.5t47.5 4.5q24 1 43 -2q26 -5 46.5 -16t39.5 -23.5t38.5 -26
t44.5 -24.5q20 -8 43 -14q20 -5 45.5 -10t54.5 -4q-36 -29 -71 -40.5t-63 -14.5q-33 -4 -63 1q-31 8 -69 22q-32 12 -76.5 33t-97.5 53q19 -24 35.5 -40t27.5 -26q13 -11 24 -18z" />
  </g>

</svg>
