<?xml version="1.0" standalone="no"?>
<!DOCTYPE svg PUBLIC "-//W3C//DTD SVG 1.1//EN" "http://www.w3.org/Graphics/SVG/1.1/DTD/svg11.dtd" >
<svg viewBox="0 -410 2048 2048">
  <g transform="matrix(1 0 0 -1 0 1638)">
   <path fill="currentColor"
d="M747 1269q-2 10 3.5 18.5t15.5 10.5q9 2 17.5 -3.5t10.5 -14.5l12 -53l525 40q9 1 15.5 -4t9 -11.5t0.5 -14.5t-9 -13l-465 -337l171 -767q2 -10 -3.5 -18.5t-15.5 -10.5q-9 -2 -17.5 3t-10.5 15l-30 135zM818 1181l53 -242l379 275zM1042 246q76 -2 143 -15t116.5 -34.5
t78 -50t28.5 -60.5q0 -33 -30 -62t-82.5 -51t-122.5 -34.5t-149 -12.5q-80 0 -149.5 12.5t-122 34.5t-82.5 51t-30 62q0 30 24.5 56.5t67.5 47.5t101.5 35t126.5 19l30 -138q4 -17 18 -25.5t30 -4.5q17 3 26 17t5 31z" />
  </g>

</svg>
