<?xml version="1.0" standalone="no"?>
<!DOCTYPE svg PUBLIC "-//W3C//DTD SVG 1.1//EN" "http://www.w3.org/Graphics/SVG/1.1/DTD/svg11.dtd" >
<svg viewBox="0 -410 2048 2048">
  <g transform="matrix(1 0 0 -1 0 1638)">
   <path fill="currentColor"
d="M388 636q-11 -3 -20 1t-13.5 12t-4 17.5t8.5 17.5q36 35 68.5 62t63.5 46q39 25 70 37t61 12q21 0 41.5 -4t46.5 -12q2 -1 8 -3l4 -2q1 0 1.5 -0.5t1.5 -0.5h1q23 -8 53 -23.5t70 -39.5q17 -10 28.5 -16.5t19 -10.5t13 -7t11.5 -6q14 -6 29 -10t36 -6q28 -5 98 15
q11 2 21 5.5t21 6.5q15 4 30.5 9t29.5 10q5 2 9.5 3.5t9.5 2.5q4 1 6 3q11 4 20 0t14 -12t4.5 -18t-8.5 -18q-66 -65 -108 -95q-23 -17 -43 -28t-38 -17q-2 -1 -8.5 -3t-8.5 -3q-20 -7 -36 -10t-34 -3q-20 0 -38.5 4t-40.5 12q-4 2 -8 3q-1 0 -7 2q-18 6 -44 20t-61 34
q-33 19 -57 32t-38 19t-39.5 10.5t-48.5 4.5q-8 0 -32 -5.5t-58 -15.5q-5 -1 -9 -2t-9 -2q-15 -5 -30.5 -9.5t-30.5 -9.5q-5 -2 -9.5 -3.5t-9.5 -2.5q-3 -1 -7 -3zM506 768q-57 -37 -127 -105q63 20 102.5 31.5t62.5 16.5q26 6 39 7q29 0 56.5 -5.5t42.5 -12.5
q15 -6 39.5 -19t58.5 -33q66 -40 100 -52q17 -6 38 -12.5t46 -6.5t44 6t34 11q30 10 72 41q40 29 106 93q-67 -24 -112.5 -36t-73.5 -17q-33 -5 -53 -4q-23 3 -40.5 7t-33.5 11.5t-33 17.5t-41 25q-76 46 -116 60q-20 6 -44 13t-52 7q-29 0 -57.5 -12.5t-57.5 -31.5z
M1211 244q11 4 20 0t14 -12t5 -18t-8 -18q-33 -32 -60 -55t-48 -40q-45 -33 -81 -45q-2 0 -8.5 -2t-8.5 -3q-20 -7 -36 -10t-34 -3q-20 0 -38.5 4t-40.5 11q-2 2 -4 2t-4 1q-1 1 -3 1t-4 2q-18 6 -44 19.5t-61 33.5q-33 20 -57 33t-38 19t-39.5 10.5t-48.5 4.5
q-8 0 -32 -5.5t-58 -15.5q-5 -2 -9 -2.5t-9 -2.5q-15 -4 -30.5 -8.5t-30.5 -9.5q-5 -2 -9.5 -3.5t-9.5 -3.5q-5 0 -7 -2q-11 -4 -20.5 0t-14 12t-4 18t8.5 18q35 35 68 61.5t64 46.5q39 25 70 37t61 12q21 0 41.5 -4t46.5 -12q3 -3 8 -3l4 -2q1 -1 3 -1q1 0 1 -1
q23 -7 53 -22.5t70 -39.5q17 -11 28.5 -17.5t19 -10.5t13 -6.5t11.5 -5.5q14 -7 29 -10.5t36 -6.5q28 -3 98 15q11 3 21 6t21 6q31 9 60 20q5 2 9.5 3t9.5 3zM1116 124q20 15 46.5 38.5t59.5 53.5q-67 -24 -112 -35.5t-74 -16.5q-33 -5 -53 -4q-23 3 -40 7t-33 11
t-33.5 17.5t-41.5 24.5q-77 49 -116 60q-20 7 -43.5 13.5t-52.5 6.5q-28 0 -57 -12.5t-58 -31.5q-60 -37 -127 -104q63 21 102 32.5t62 16.5q26 6 40 7q28 0 55.5 -5.5t43.5 -12.5q15 -7 39.5 -20t58.5 -33q33 -20 58 -32.5t42 -18.5q16 -6 37.5 -12.5t46.5 -6.5q24 0 43 6
t35 11t34 15t38 25zM1662 435q11 4 20 0t14 -12t4.5 -18t-8.5 -18q-66 -65 -108 -95q-23 -17 -43 -28t-38 -17q-2 -1 -8.5 -3t-8.5 -3q-20 -7 -36 -10t-34 -3q-20 0 -38.5 4t-39.5 12q-2 1 -4 1.5t-4 1.5q-2 0 -3.5 0.5l-4.5 1.5q-18 6 -43.5 20t-60.5 34q-33 19 -57 32
t-39 19q-14 6 -39 10.5t-49 4.5q-8 0 -31.5 -5.5t-58.5 -15.5q-5 -1 -9 -2t-9 -2q-15 -5 -30 -9.5t-30 -9.5l-10.5 -3.5t-9.5 -2.5q-3 -1 -7 -3q-11 -3 -20 1t-13.5 12t-4 17.5t8.5 17.5q70 70 132 108q39 25 69.5 37t60.5 12q22 0 42 -4t46 -12q2 -1 4.5 -1.5t4.5 -1.5
q1 -1 4 -2q2 0 2.5 -0.5t1.5 -0.5q41 -14 122 -63q17 -10 28.5 -16.5t19 -10.5t13 -7t11.5 -6q14 -6 29.5 -10t35.5 -6q29 -5 98 15q11 2 21 5.5t21 6.5q16 4 31.5 9t29.5 10q5 2 9.5 3.5t8.5 2.5q6 2 7 3zM1566 315q21 15 47.5 38t59.5 54q-67 -25 -112 -36.5t-74 -16.5
q-33 -5 -53 -4q-23 3 -40.5 7t-33.5 11.5t-33 17.5t-41 25q-79 47 -116 60q-20 7 -44 13.5t-52 6.5q-29 0 -57.5 -13t-58.5 -31q-29 -18 -60.5 -44t-66.5 -60q63 20 102.5 31.5t62.5 16.5q26 6 39 7q29 0 56.5 -5.5t42.5 -12.5q15 -6 39.5 -19t58.5 -33t58.5 -32.5
t41.5 -19.5q17 -5 38 -12t46 -7t44 6t34 11q30 10 72 41z" />
  </g>

</svg>
