<?xml version="1.0" standalone="no"?>
<!DOCTYPE svg PUBLIC "-//W3C//DTD SVG 1.1//EN" "http://www.w3.org/Graphics/SVG/1.1/DTD/svg11.dtd" >
<svg viewBox="0 -410 2048 2048">
  <g transform="matrix(1 0 0 -1 0 1638)">
   <path fill="currentColor"
d="M1710 1039q-39 30 -87.5 46.5t-102.5 16.5t-102 -16.5t-88 -46.5l13 97q4 26 25.5 44.5t47.5 18.5h208q26 0 47.5 -18.5t25.5 -44.5zM718 1039q-39 30 -87.5 46.5t-102.5 16.5t-102 -16.5t-88 -46.5l13 97q4 26 25.5 44.5t47.5 18.5h208q26 0 47.5 -18.5t25.5 -44.5z
M1840 777q1 -15 3.5 -50.5t6 -84t6.5 -105.5t5 -115.5t2.5 -115t-2 -103t-7.5 -80t-15 -45.5q-16 -21 -52 -29.5t-77 -7t-79.5 11.5t-60.5 25q-32 22 -63 59t-61 83t-58.5 97.5t-53.5 102.5q-32 -20 -73 -20q-28 0 -53 9.5t-44 26.5t-32 40t-17 50h-182q-4 -27 -17 -50
t-32 -40t-44 -26.5t-53 -9.5q-41 0 -73 20q-25 -51 -53.5 -102.5t-58.5 -97.5t-61.5 -83t-62.5 -59q-22 -15 -60.5 -25t-79.5 -11.5t-77 7t-52 29.5q-10 12 -15 45.5t-7.5 80t-2 103t2.5 115t5 115.5t6.5 105.5t6 84t3.5 50.5v5q0 -66 25 -124.5t68.5 -102t102 -68.5
t124.5 -25q64 0 125 25q-2 4 -3 7.5t-3 7.5q-28 -11 -57.5 -17.5t-61.5 -6.5q-63 0 -118.5 24t-96.5 65t-65 96.5t-24 118.5t24 118.5t65 96.5t96.5 65t118.5 24t118.5 -24t96.5 -65t65 -96.5t24 -118.5q0 -46 -14 -91l8 -2l8 -2q14 45 14 95q0 66 -24 123t-67 101h534
q-42 -44 -66.5 -101t-24.5 -123q0 -48 14 -95q4 1 7.5 2t8.5 2q-14 45 -14 91q0 63 24 118.5t65 96.5t96.5 65t118.5 24t118.5 -24t96.5 -65t65 -96.5t24 -118.5t-24 -118.5t-65 -96.5t-96.5 -65t-118.5 -24q-32 0 -61.5 6.5t-57.5 17.5q-2 -5 -3 -8t-3 -7q61 -25 125 -25
q66 0 124.5 25t102 68.5t68.5 102t25 124.5v-5zM1674 838q-26 0 -44 -18t-18 -44t18 -43.5t44 -17.5t43.5 18t17.5 43q0 26 -18 44t-43 18zM1520 982q-26 0 -44 -18t-18 -44t18 -43.5t44 -17.5t44 18t18 43q0 26 -18 44t-44 18zM1520 705q-26 0 -44 -17.5t-18 -43.5t18 -44
t44 -18t44 18t18 44t-18 43.5t-44 17.5zM477 862q0 -16 11 -27l29 -29q5 -5 11 -5t11 5l29 29q11 11 11 27v70q0 16 -16 16h-70q-16 0 -16 -16v-70zM435 727q7 0 14.5 3t12.5 8l29 29q5 5 5 11t-5 11l-29 29q-11 11 -27 11h-70q-16 0 -16 -16v-70q0 -16 16 -16h70zM579 702
q0 16 -11 27l-29 29q-11 11 -22 0l-29 -29q-5 -5 -8 -12.5t-3 -14.5v-70q0 -16 16 -16h70q16 0 16 16v70zM691 727q16 0 16 16v70q0 16 -16 16h-70q-16 0 -27 -11l-29 -29q-5 -5 -5 -11t5 -11l29 -29q11 -11 27 -11h70zM881 512q2 9 3.5 17.5t0.5 18.5q0 21 -8 39
t-21.5 31.5t-31.5 21.5t-38 8q-21 0 -39 -8t-31.5 -21.5t-21.5 -31.5t-8 -39q0 -30 16.5 -54t42.5 -36q2 -2 5 -2q1 0 1.5 -0.5t1.5 -0.5q1 -1 2 -1t3 -1t7 -1q1 -1 3 -1t3 -0.5t3 -0.5h4q2 -1 8 -1q3 0 5.5 0.5t4.5 0.5q1 1 3 1t3.5 0.5t3.5 0.5h3q1 1 2.5 1t2.5 1q4 0 4 1
q2 0 3 0.5t2 0.5q3 3 3 2q4 2 5 2q3 3 3 2q4 2 5 3q3 0 3 2l4 2t4 3l2 2q2 1 2 1.5t2 1.5t2 2t1 1q3 3 3 4q2 0 4 3q0 1 2 3q1 2 1.5 2t0.5 2l3 3q1 1 1 2t1 2q3 3 2 3q1 2 1 3t1 2q3 3 2 3zM992 910h-112v-64h112v64zM1168 878l-112 32v-64zM1261 447q20 0 38 8t31.5 21.5
t21.5 31.5t8 39q0 20 -7.5 38t-21 31.5t-31.5 21.5t-39 8q-8 0 -12 -1t-7.5 -1t-7.5 -2q0 -1 -1 -1q-32 -9 -51.5 -35t-19.5 -60q0 -20 7.5 -38t21 -31.5t31.5 -21.5t39 -8zM1305 777q0 -26 18 -43.5t43 -17.5q26 0 44 18t18 43q0 26 -18 44t-44 18t-43.5 -18t-17.5 -44z
" />
  </g>

</svg>
