<?xml version="1.0" standalone="no"?>
<!DOCTYPE svg PUBLIC "-//W3C//DTD SVG 1.1//EN" "http://www.w3.org/Graphics/SVG/1.1/DTD/svg11.dtd" >
<svg viewBox="0 -410 2048 2048">
  <g transform="matrix(1 0 0 -1 0 1638)">
   <path fill="currentColor"
d="M1249 314q2 -14 -5.5 -24.5t-21.5 -12.5q-23 -3 -33 17l37 -331q1 -11 -6 -18.5t-18 -7.5h-109l-16 -128q-2 -11 -10 -18t-19 -7h-51q-11 0 -19 7t-10 18l-16 128h-107q-11 0 -18 7.5t-5 18.5l35 326q-5 -7 -13.5 -11t-17.5 -2q-13 2 -21 13t-6 24l67 437q0 5 2 8l4 6
q6 15 18 26t27 14q9 4 19 4.5t18 0.5q10 -1 18 -2q11 -3 17.5 -7t11.5 -7.5t9.5 -6.5t11.5 -3t11.5 3t9 6.5t11.5 7.5t20 7q10 2 20 2q8 0 17.5 -1t17.5 -4q15 -4 26.5 -14.5t18.5 -24.5q5 -4 7 -15zM1088 670q9 0 12.5 8.5t3.5 20.5t-4.5 24t-11.5 19q-6 6 -16 5
q-8 -1 -20 -7.5t-28 -25.5q-17 19 -29 25.5t-20 7.5q-9 1 -15 -5q-7 -7 -11 -19t-5 -24t3 -20.5t13 -8.5q11 0 24.5 9t24.5 17q-5 -8 -11 -17.5t-11 -19.5t-9 -18.5t-5 -12.5l39 -6l12 77l12 -75l39 5q-1 4 -4.5 12.5t-8.5 18t-10.5 19t-9.5 17.5q10 -8 22.5 -17t23.5 -9z
M841 843q-17 5 -25 15t-11.5 19.5t-3 17l0.5 7.5q15 -8 25 -6t19 7t19 11.5t27 8.5q-10 25 -10 50q0 29 11 55t30.5 45t45 30t54.5 11t55 -11t45 -30t30 -45t11 -55q0 -28 -9 -50h2q17 -2 27.5 -8t19.5 -11.5t19.5 -7.5t26.5 6q1 -17 -5 -28t-14 -18q-9 -8 -21 -13
q-6 -1 -12 0.5t-13.5 9t-16 21.5t-18.5 38q-18 -35 -51.5 -57t-75.5 -22q-40 0 -73 20.5t-51 53.5q-19 -44 -33 -56t-25 -8z" />
  </g>

</svg>
