<?xml version="1.0" standalone="no"?>
<!DOCTYPE svg PUBLIC "-//W3C//DTD SVG 1.1//EN" "http://www.w3.org/Graphics/SVG/1.1/DTD/svg11.dtd" >
<svg viewBox="0 -410 2048 2048">
  <g transform="matrix(1 0 0 -1 0 1638)">
   <path fill="currentColor"
d="M1024 1526q126 0 242.5 -32.5t218 -92t184.5 -142.5t142.5 -184.5t92 -218t32.5 -242.5t-32.5 -242.5t-92 -218t-142.5 -184.5t-184.5 -142.5t-218 -92t-242.5 -32.5t-242.5 32.5t-218 92t-184.5 142.5t-142.5 184.5t-92 218t-32.5 242.5t32.5 242.5t92 218t142.5 184.5
t184.5 142.5t218 92t242.5 32.5zM1024 -218q115 0 221 29.5t198.5 84t168.5 130.5t130 168t84 198t30 221q0 29 -1.5 58.5t-6.5 57.5l-46 -16l-28 -14q-14 -17 -21 -28.5t-10 -19.5q-4 -9 -4 -15q-1 -5 -7 -7q-5 -2 -15.5 -1t-30.5 9q-24 3 -37 4.5t-19 3.5q-7 2 -8 3l-1 5
q-1 3 -2.5 9.5t-4.5 17.5l-68 21l-28 -13l-35 -52l-87 44v32q-17 5 -31 7t-24 4q-11 2 -21 2q-9 0 -14 1t-8 3t1 7l-21 31h-40l81 -119l32 32l83 -44l-136 -54l-239 148l9 33l37 29q-28 -17 -49 -25.5t-35 -11.5q-17 -4 -29 -3q-30 3 -48.5 9.5t-29.5 6.5q-8 0 -11 1l29 -53
q-32 -7 -50.5 -12t-29.5 -9q-12 -4 -18 -7q-7 -4 -18 -4q-9 0 -23 3t-34 14q-20 17 -31.5 26.5t-18.5 14.5q-8 5 -11 6q-5 1 -4 8q1 6 8 18t27 34l115 34l-10 49l43 10l-5 -34l61 -8l36 23l25 31l-1 35l-10 28l-27 -8v-38q-1 -1 -3 -4q-2 -2 -5.5 -5t-11.5 -7l-83 22l27 41
l34 24l47 13l45 7l9 -16q3 -3 3 -7l6 -17q3 -5 9 -6q3 -1 7 -2q12 -1 21 -1q8 0 13 1t0 6q12 5 19 7t11 4t6 2l4 1q2 0 7 0.5t13 0.5l23 -3l38 -15l43 18l-12 15q-6 11 -9 20t-5 16t-2 13q0 7 4 8.5t12 0t19.5 -3.5t26.5 -2q10 0 21 -3q8 -2 17 -6.5t14 -12.5l35 29l-7 33
q6 7 20 11t28 6q17 2 35 2q18 1 31 10q11 8 18 24t0 46q29 1 52.5 1.5t40.5 1.5q19 1 34 1q-114 112 -264 177t-323 65q-77 0 -148.5 -13t-139.5 -38l54 -39l-28 -37l-92 -15l-73 -48l-54 -51l19 -112l-79 -17l-9 71l-43 -17l-30 34l3 5q-100 -111 -156 -252.5t-56 -302.5
q0 -115 30 -221t84 -198.5t130 -168.5t168.5 -130t198.5 -84t221 -30zM850 1148l-21 35q27 16 39 21q7 3 12 4q5 0 10 -2t11 -5t14 -9v-44l-27 -28zM1385 551q18 -29 30 -44.5t20 -23.5q9 -9 15 -10q5 0 11 -2q5 -2 11.5 -4.5t13.5 -7.5l-32 -27l-21 -9l-25 -18
q-40 -11 -57.5 -19t-22.5 -14q-6 -7 0 -13q8 -6 13 -11t8.5 -11t3.5 -11l-47 -35l15 -54q-6 -8 -10 -12l-6 -6q-3 -3 -5 -3q-2 -1 -3 -4t-1 -8t2 -16q3 -9 4.5 -15t2.5 -9q1 -4 1 -5q0 -2 -2 -6q-2 -3 -5 -9t-8 -15l-64 -60l-63 -44h-83l-12 93q14 7 27 9q6 1 11 1q4 0 4 4
q0 3 -5 10t-19 21l-6 43l-50 66l-21 19l5 35l31 33l-83 35q-41 16 -59 19q-11 2 -18 1q-35 0 -44 26q-2 5 -2 9q0 10 8 18l9 39l-39 30l-7 32l2 65l52 47q44 6 67 14q12 4 20 8q7 3 11 3q3 0 4 -3t-4 -14q25 -8 38.5 -12.5l19.5 -6.5l8 -3q-1 0 -1 -3v-6.5t2 -12.5l36 -16
l40 37l26 -9l-2 -37l40 -9l70 6q3 0 1 -2l-31 -17l29 3l48 -49l62 25zM1394 256l36 -28l-23 -22l-6 -47l-42 -3l-2 25l18 30l-13 21zM1174 1092l-56 43l58 65l84 -17l-51 -46l6 -37z" />
  </g>

</svg>
