<?xml version="1.0" standalone="no"?>
<!DOCTYPE svg PUBLIC "-//W3C//DTD SVG 1.1//EN" "http://www.w3.org/Graphics/SVG/1.1/DTD/svg11.dtd" >
<svg viewBox="0 -410 2048 2048">
  <g transform="matrix(1 0 0 -1 0 1638)">
   <path fill="currentColor"
d="M1024 1526q126 0 242.5 -32.5t218 -92t184.5 -142.5t142.5 -184.5t92 -218t32.5 -242.5t-32.5 -242.5t-92 -218t-142.5 -184.5t-184.5 -142.5t-218 -92t-242.5 -32.5t-242.5 32.5t-218 92t-184.5 142.5t-142.5 184.5t-92 218t-32.5 242.5t32.5 242.5t92 218t142.5 184.5
t184.5 142.5t218 92t242.5 32.5zM1024 -218q115 0 221 30t198.5 84t168.5 130t130 168.5t84 198.5t30 221t-30 221t-84 198.5t-130 168.5t-168.5 130t-198.5 84t-221 30q-35 0 -69.5 -3t-68.5 -8q2 -5 5.5 -9.5t3.5 -12.5q0 -4 11 -15.5t25.5 -24t28.5 -22t20 -9.5q5 0 9 -1
q9 -2 19 -9q14 -2 28.5 -3t26.5 -2q13 -1 26 -1q12 0 19 -2q6 -2 8.5 -4t-5.5 -7v-50q-1 -2 -5 -4q-6 -4 -31 -11l-52 -16l-9 -26l-20 -55q-24 -38 -38.5 -63.5t-22.5 -40.5q-10 -18 -14 -28q-3 -10 -6 -16q-2 -6 -4.5 -10t-3.5 -2q-20 -8 -30.5 -11.5t-15.5 -5.5
q-6 -2 -8 -2q-1 0 -5 -5t-9 -11t-9 -12t-4 -8t-2 -6t-5 -11.5t-8 -20.5q9 -14 16 -21.5t12 -10.5q5 -4 10 -4t10 -1t11 -2t14 -3l36 -9l-15 -14q-15 1 -25 2t-15 1h-9h-8q-5 0 -12 0.5t-17 1.5l-87 35l-29 27l-49 40q-2 14 -1.5 31.5t1.5 31.5q1 17 2 33q1 15 1 26
q0 9 -1 14.5t-5 -0.5v88l-73 68l-85 20q-69 -57 -124 -127.5t-94 -152t-60 -172t-21 -186.5q0 -115 30 -221t84 -198.5t130 -168.5t168.5 -130t198.5 -84t221 -30zM1426 693l37 -69q-19 -15 -35.5 -25t-29.5 -15q-15 -7 -29 -10q-12 -4 -18 -10q-5 -5 -4.5 -13.5t15.5 -22.5
l6 -68q-38 -16 -61 -28.5t-35 -22.5q-14 -11 -20 -21q-4 -10 -7 -25q-2 -13 -3.5 -32t0.5 -46l25 -76l15 -65l-65 -20l-53 -32l29 -48l109 -48l-33 -26l-79 19l-135 85l-59 126q-19 39 -28 67.5t-12 47.5q-4 22 -3 37q0 13 -4 34q-3 17 -9.5 44.5t-17.5 65.5l-87 88l-38 72
l16 70l140 90l97 3l30 -42q78 14 119.5 15t61.5 -4q23 -6 26 -18q1 -13 6 -25q5 -11 14 -21.5t27 -16.5h54zM970 888l-52 16h148l36 -54l-71 25z" />
  </g>

</svg>
