<?xml version="1.0" standalone="no"?>
<!DOCTYPE svg PUBLIC "-//W3C//DTD SVG 1.1//EN" "http://www.w3.org/Graphics/SVG/1.1/DTD/svg11.dtd" >
<svg viewBox="0 -410 2048 2048">
  <g transform="matrix(1 0 0 -1 0 1638)">
   <path fill="currentColor"
d="M1936 614q0 -151 -45.5 -286t-127.5 -248q4 -9 -3 -16.5t-18 -12.5q-61 -81 -139.5 -145.5t-171 -110t-195.5 -69.5t-212 -24q-126 0 -242.5 32.5t-218 92t-184.5 142.5t-142.5 184.5t-92 218t-32.5 242.5t32.5 242.5t92 218t142.5 184.5t184.5 142.5t218 92t242.5 32.5
t242.5 -32.5t218 -92t184.5 -142.5t142.5 -184.5t92 -218t32.5 -242.5zM192 614q0 -115 30 -221t84 -198.5t130 -168.5t168.5 -130t198.5 -84t221 -30q140 0 264.5 42.5t229.5 119.5l-7 13q12 4 23 6l12 2q9 8 18 15.5t18 15.5q0 5 -1 9t-1.5 9t-1.5 10l27 12l38 23
q11 11 20.5 23t19.5 25l-23 4l-33 44l51 3l15 46q7 -11 12.5 -18.5t9.5 -13.5q4 -7 7 -12q63 99 98.5 213.5t35.5 240.5q0 136 -41.5 260.5t-116 227t-177.5 179.5t-225 119l17 -18l-40 -70l-31 -6l-70 59l-65 -37q-9 -5 -13.5 -9.5t-6.5 -9.5q-3 -5 -2 -10q0 -5 -1 -11
q-1 -5 -3.5 -13t-6.5 -19l55 -4l49 -16l22 -47l-4 -29v-60l-126 -15l-56 -52l45 -49l-3 -32l-22 -28l-109 -41l-102 37l-99 -41l-28 -17q-14 -18 -21 -31t-11 -21q-4 -10 -5 -17q-2 -6 -7 -8t-15 -0.5t-30 10.5h-4q-1 0 -2 1l63 -88l44 -36l127 -51l-42 -1l-40 -47l65 -17
l79 -18l45 20l50 -19l-34 -25l-72 -7l-136 25l-107 139l-50 37l3 52l-4 36q-7 1 -15.5 2.5t-16 3t-12.5 3t-5 2.5q0 2 -1 6t-2.5 10.5l-4.5 19.5l-66 24l-11 -7l-34 -248l-34 -69l12 -60l50 -23l-27 -51l-99 55l-56 97l-6 89l-11 78l-38 68l-4 -3q-10 -43 -14.5 -87.5
t-4.5 -91.5zM1520 38l-101 -58l-57 20l-9 46l-57 23l-122 29l-116 -2l-60 -32l-47 -26l-79 32l-49 108l-9 59l68 42l70 29l47 76h79l102 89l55 -63l9 -44q3 -5 5 -6l64 -28l72 20l53 96l44 -48q0 -19 6 -33t14 -24q9 -11 20 -21q10 -9 14 -17q4 -7 1.5 -14t-17.5 -12
l26 -100v-52zM1264 1100l-11 93l102 23l-16 46l-19 51l32 27q12 -11 21 -17t15 -11q7 -5 13 -8q6 -4 8 -11t2 -15.5t-1.5 -16.5t-1.5 -13q0 -4 -3 -13q-2 -8 -7 -21.5t-14 -33.5l-74 -12l-17 -26l15 -62zM1002 784l-31 66l24 41l35 -3l30 -34zM1109 945l-20 40l20 45l42 -57
zM926 673l14 -33l-91 11l-88 35l-22 58l96 -37zM1020 648l-45 52l98 -14l29 -43zM568 368l-22 -20l17 -36l-49 -15l-41 15l-1 49l26 34l46 3z" />
  </g>

</svg>
