<?xml version="1.0" standalone="no"?>
<!DOCTYPE svg PUBLIC "-//W3C//DTD SVG 1.1//EN" "http://www.w3.org/Graphics/SVG/1.1/DTD/svg11.dtd" >
<svg viewBox="0 -410 2048 2048">
  <g transform="matrix(1 0 0 -1 0 1638)">
   <path fill="currentColor"
d="M1634 1182q5 -2 7 -6t0 -9q-5 -12 -15 -7q-4 0 -6 1q-3 2 -7 3t-9 3q-8 2 -16 5t-16 5q0 -8 -1 -12l-38 -246q-5 -27 -27.5 -43t-49.5 -10q-3 1 -7 2t-7 2l-8 2l-1 -6q-8 -27 -33 -39t-51 -1q-20 8 -40.5 18t-37.5 18q-20 10 -39 19l-38 -384l66 -261q2 -10 2 -17v-339
q0 -30 -21 -51t-51 -21t-51 21t-21 51v330l-69 274q-1 1 -1 3l-74 15v-355q0 -14 -4 -25l-99 -272q-10 -29 -36.5 -41.5t-55.5 -1.5q-28 10 -41 36.5t-2 55.5l94 260v357q0 12 4 20l115 500l5 -1v1q-5 6 -3 10q8 21 27 32t40 9q4 0 12 -2l318 -67l65 203l-44 12t-45 11
q-6 1 -12 2.5t-12 2.5q1 -15 -2 -33q-6 -36 -25.5 -65t-47 -48.5t-61.5 -27.5t-70 -2t-65 25.5t-48.5 47t-27.5 61.5t-2 70q2 9 4.5 17.5t5.5 17.5q-32 4 -64.5 7t-64.5 5q-151 12 -275 -1q-22 -2 -32.5 -13t-15 -25.5t-5.5 -31.5t-2 -31.5t-4.5 -25t-14.5 -12.5
q-16 -4 -30.5 1t-25.5 17t-17.5 30t-6.5 40t16.5 35.5t38 21.5t42.5 11t29 4h1q69 8 144.5 9t158.5 -5q34 -3 68.5 -6t69.5 -8q27 47 76.5 71.5t106.5 14.5q57 -11 96 -51.5t48 -94.5q8 -2 16 -3.5t16 -3.5q23 -5 45 -11t45 -12l1 3q8 25 31.5 37t49.5 4q21 -7 33 -24
t11 -38q12 -9 20 -22q12 -4 23.5 -7.5t22.5 -7.5q5 -2 9 -3l8 -2q1 -1 3 -1q1 0 2 -1z" />
  </g>

</svg>
