<?xml version="1.0" standalone="no"?>
<!DOCTYPE svg PUBLIC "-//W3C//DTD SVG 1.1//EN" "http://www.w3.org/Graphics/SVG/1.1/DTD/svg11.dtd" >
<svg viewBox="0 -410 2048 2048">
  <g transform="matrix(1 0 0 -1 0 1638)">
   <path fill="currentColor"
d="M1599 638q29 -22 47 -55t18 -73v-160v-320h-64v128h-1152v-128h-64v320v160q0 39 18 72.5t47 55.5h-1v464q0 16 16 16h1120q16 0 16 -16zM1281 798q-79 0 -125.5 -7t-70.5 -19.5t-30.5 -29.5t-6.5 -36q0 -10 0.5 -19t3.5 -17h452h6q3 8 3.5 17t0.5 19q0 19 -6.5 36
t-30.5 29.5t-70.5 19.5t-125.5 7zM536 706q0 -10 0.5 -19t3.5 -17h4h454q3 8 3.5 17t0.5 19q0 19 -6.5 36t-30.5 29.5t-70.5 19.5t-125.5 7t-125.5 -7t-70.5 -19.5t-30.5 -29.5t-6.5 -36zM416 382h1216v128q0 26 -10 49.5t-27.5 41t-41 27.5t-49.5 10h-960q-26 0 -49.5 -10
t-41 -27.5t-27.5 -41t-10 -49.5v-128z" />
  </g>

</svg>
