<?xml version="1.0" standalone="no"?>
<!DOCTYPE svg PUBLIC "-//W3C//DTD SVG 1.1//EN" "http://www.w3.org/Graphics/SVG/1.1/DTD/svg11.dtd" >
<svg viewBox="0 -410 2048 2048">
  <g transform="matrix(1 0 0 -1 0 1638)">
   <path fill="currentColor"
d="M1087 301q15 -44 15 -94q0 -64 -24 -120t-66 -97.5t-98 -65.5t-119 -24t-119 24t-97.5 66t-65.5 98t-24 119q0 54 17.5 102.5t48 87.5t73 67t92.5 40q1 3 1 6t1 7l2 7l19 83q-74 -10 -138 -45t-111 -88t-74 -121.5t-27 -144.5q0 -84 31.5 -157t86 -128t128 -86.5
t156.5 -31.5q80 0 150.5 29t124.5 79.5t87.5 119t39.5 146.5l-96 121zM1004 1412q36 0 68 -13.5t56 -37.5t38 -56t14 -69q0 -36 -14 -68t-38 -56t-56 -38t-68 -14t-68 14t-56 38t-38 56t-14 68q0 37 14 69t38 56t56 37.5t68 13.5zM1625 124q-14 21 -39 26t-46 -9l-58 -38
l-268 335q-15 20 -42 26l-92 28l-85 27l63 345q9 51 3.5 79.5t-16.5 43.5q-12 17 -30 22l-142 16v-1q-16 0 -30 -7l-225 -117q-14 -8 -23 -20l-169 -241q-16 -22 -11.5 -48t27.5 -41q22 -15 47.5 -10.5t40.5 26.5l160 228l147 74l-61 -259l-21 -91q0 -2 -1 -7.5t-2.5 -12
t-2.5 -13.5t-2 -10q-3 -15 4.5 -29t21 -25.5t29.5 -19.5t31 -11l286 -62l279 -349q19 -23 48.5 -26.5t52.5 14.5q6 2 9 5l102 68q20 14 24.5 38.5t-9.5 45.5z" />
  </g>

</svg>
