<?xml version="1.0" standalone="no"?>
<!DOCTYPE svg PUBLIC "-//W3C//DTD SVG 1.1//EN" "http://www.w3.org/Graphics/SVG/1.1/DTD/svg11.dtd" >
<svg viewBox="0 -410 2048 2048">
  <g transform="matrix(1 0 0 -1 0 1638)">
   <path fill="currentColor"
d="M1664 767q0 -30 -25 -43q1 -41 -2.5 -83.5t-11.5 -85.5q-14 -71 -41.5 -121.5t-70.5 -78.5v-191q0 -27 -19.5 -46t-46.5 -19q-7 0 -17 2q-6 -28 -28.5 -47t-52.5 -19q-34 0 -58 24t-24 57v489q0 34 23.5 58t58.5 24q31 0 53.5 -20t27.5 -49q4 2 8 2h9q27 0 46.5 -18.5
t19.5 -45.5v-133q44 48 62 143q8 39 11.5 79.5t2.5 78.5q-12 6 -19.5 18t-7.5 26q0 105 -42 197.5t-115 162t-171 109.5t-210 40t-210 -40t-171 -109t-115 -162t-42 -198q0 -14 -7 -25.5t-18 -18.5q-1 -38 2 -78t11 -80q20 -97 64 -144v134q0 27 19 45.5t46 18.5h9t9 -2
q5 29 27.5 49t53.5 20q33 0 57 -24t24 -58v-489q0 -33 -23.5 -57t-57.5 -24q-30 0 -53 19t-28 47q-5 -1 -9 -1.5t-9 -0.5q-27 0 -46 19t-19 46v190q-45 28 -72.5 79t-41.5 122q-8 42 -11.5 84.5t-2.5 83.5q-26 15 -26 44q0 84 23 162.5t64.5 146.5t100 123.5t129.5 95
t153 61.5t170 22t170 -22t153 -61.5t129.5 -95.5t100 -124t64.5 -146t23 -162z" />
  </g>

</svg>
