<?xml version="1.0" standalone="no"?>
<!DOCTYPE svg PUBLIC "-//W3C//DTD SVG 1.1//EN" "http://www.w3.org/Graphics/SVG/1.1/DTD/svg11.dtd" >
<svg viewBox="0 -410 2048 2048">
  <g transform="matrix(1 0 0 -1 0 1638)">
   <path fill="currentColor"
d="M1024 1258q36 0 68 -14t56 -38t38 -56t14 -68t-14 -68t-38 -56t-56 -38t-68 -14t-68 14t-56 38t-38 56t-14 68t14 68t38 56t56 38t68 14zM1950 1302q6 -4 7 -10.5t-3 -13.5l-244 -337q-5 -5 -11.5 -6t-11.5 3l-77 57q-6 4 -7 10.5t3 11.5l104 143l-2 2q-3 2 -11 8
q-10 7 -21 14t-23 15l-45 27l-392 -448v-552v-448q0 -33 -23.5 -56.5t-56.5 -23.5t-56.5 23.5t-23.5 56.5v448h-64v-448q0 -33 -23.5 -56.5t-56.5 -23.5t-56.5 23.5t-23.5 56.5v512v488l-391 447q-11 -7 -21 -13t-21 -12l-22.5 -15t-20.5 -14q-8 -6 -11 -8q-2 -1 -4 -3h-2
l103 -141q9 -12 -3 -23l-77 -56q-6 -5 -12.5 -3.5t-10.5 6.5l-245 337q-4 5 -2.5 11.5t6.5 10.5l77 57q14 9 23 -3l104 -144v1q3 2 7 5t10 7q11 7 22 14.5t24 15.5l16 10t17 10q-16 20 -14 45.5t22 42.5t46 15t44 -22l18 -19q5 4 13 7q128 63 253 98t249 34q119 0 243.5 -35
t251.5 -97l12 -6l16 18q17 20 43.5 22t46.5 -15t22 -42t-13 -45q10 -6 18.5 -11.5t17.5 -10.5q13 -8 24 -15.5t22 -14.5q4 -2 7 -4t5 -4l2 -2l103 142q5 5 11.5 6t11.5 -3zM925 867h99h99l369 421q-120 58 -237.5 91t-230.5 33q-112 1 -229.5 -32t-238.5 -92l369 -422v1z
M1950 1167q6 -5 2 -11l-122 -168q-4 -6 -12 -2l-39 28q-2 2 -2.5 5.5t1.5 5.5l122 168q4 6 11 2zM272 1020q4 -8 -2 -12l-39 -28q-7 -4 -11 2l-122 168q-2 2 -1.5 5.5t2.5 5.5l39 28q6 5 12 -1z" />
  </g>

</svg>
