<?xml version="1.0" standalone="no"?>
<!DOCTYPE svg PUBLIC "-//W3C//DTD SVG 1.1//EN" "http://www.w3.org/Graphics/SVG/1.1/DTD/svg11.dtd" >
<svg viewBox="0 -410 2048 2048">
  <g transform="matrix(1 0 0 -1 0 1638)">
   <path fill="currentColor"
d="M1358 961q15 -51 17.5 -104t-6 -102.5t-28 -93.5t-49.5 -77q-24 -26 -41.5 -48t-30 -41.5t-21 -37.5t-13.5 -37q-3 -9 -5.5 -19t-5.5 -25q-5 -26 -8.5 -42.5t-7 -29.5t-7 -24.5t-8.5 -27.5q-23 -68 -51 -117t-64 -79t-81.5 -41.5t-102.5 -4.5t-94 33.5t-53.5 67t-14 91
t23.5 106.5q5 13 17 18.5t25 0.5t18 -17t0 -25q-32 -85 -11.5 -143.5t97.5 -68.5q43 -5 77.5 3.5t62 32.5t49.5 64.5t41 98.5l8.5 25.5t6.5 22.5t6.5 28t8.5 41q3 16 6 27l6 22q6 22 16 43.5t24 44t34 47.5t46 54q24 26 39.5 62.5t22.5 78.5t5 87t-15 89q-29 96 -98 151
t-175 55q-102 0 -164 -42t-94 -117q-11 -25 -17 -51t-10 -53q-5 -36 -3 -62q1 -13 -8 -23t-22 -10q-14 -1 -23.5 7.5t-10.5 22.5v4q0 14 1 31.5t3 37.5q4 31 11.5 61.5t19.5 59.5q38 93 116.5 145.5t200.5 52.5q64 0 117.5 -18t96 -51t73 -79.5t47.5 -104.5zM1107 763
q3 3 5.5 6.5t4.5 6.5q17 32 8.5 51.5t-49.5 24.5q-30 3 -81 -11q-30 -8 -63 -21q-14 -5 -27 -11t-26 -11q-5 -2 -8.5 -3.5t-7.5 -3.5h-1q4 -8 8.5 -15t9.5 -14t11 -12t11 -10l6 -3t3 -2q9 -5 12.5 -14t-1.5 -18t-14 -12.5t-18 1.5q-3 2 -7 4.5t-9 6.5q-15 11 -31 30
q-27 35 -38.5 81t-0.5 106t44 98t85 55q42 14 88 12.5t87 -15.5q39 -14 72 -46t52 -76q22 -51 23 -107t-22 -113q-26 -65 -68 -104q-5 -5 -10.5 -9.5t-12.5 -10.5q-3 -2 -10.5 -8t-9.5 -8q-15 -12 -25 -23t-16 -24.5t-8.5 -30t-2.5 -38.5q0 -11 -6.5 -17.5t-17.5 -6.5
q-10 0 -17 6.5t-7 17.5q0 28 4 50t12.5 39.5t22 33t32.5 30.5q2 2 9.5 8t10.5 8q6 5 10.5 9t9.5 8q18 17 32 37.5t25 48.5q19 49 18.5 95.5t-18.5 88.5q-11 23 -26.5 42.5t-33.5 33.5q-28 -32 -57 -53q-54 -40 -108.5 -50.5t-105.5 -1.5q-3 0 -5 0.5t-4 0.5q-5 -33 0 -60
q2 1 4.5 2t4.5 2q14 7 28 12.5t28 11.5q18 6 35 11.5t33 10.5q59 15 99 11q34 -4 55 -17.5t30 -33.5t6.5 -44.5t-15.5 -51.5v-2l-12 -18q-13 -17 -25.5 -28t-34.5 -26q-19 -13 -32.5 -26.5t-24 -31.5t-20 -43t-20.5 -62q-17 -56 -44.5 -86.5t-60.5 -38.5q-29 -7 -54.5 5
t-39.5 35q-12 22 -14 46t6.5 46t27 41t47.5 31q10 5 23 7t29 2q10 0 20.5 -1t21.5 -3q5 -1 8 -1t6 -1q17 45 38.5 71t54.5 49q20 13 30 21.5t19 22.5zM948 1028q-64 -21 -87 -81q2 -1 3.5 -1t3.5 -1q41 -8 86 1t90 42q11 8 21 18l21 21q-32 10 -69 11t-69 -10z" />
  </g>

</svg>
