<?xml version="1.0" standalone="no"?>
<!DOCTYPE svg PUBLIC "-//W3C//DTD SVG 1.1//EN" "http://www.w3.org/Graphics/SVG/1.1/DTD/svg11.dtd" >
<svg viewBox="0 -410 2048 2048">
  <g transform="matrix(1 0 0 -1 0 1638)">
   <path fill="currentColor"
d="M1063 1412q36 0 68 -14t56 -38t38 -56t14 -68q0 -37 -14 -69t-38 -56t-56 -37.5t-68 -13.5t-68 13.5t-56 37.5t-38 56t-14 69q0 36 14 68t38 56t56 38t68 14zM1611 -73l-19 44l-130 -55l-104 16q15 15 19.5 35.5t-3.5 40.5l-148 371q-5 13 -14 22t-21 15l-198 99l112 396
q1 0 1 -0.5t2 -0.5l206 -69l164 -91q23 -13 48.5 -5.5t39.5 30.5q13 23 5.5 48.5t-30.5 38.5l-170 94q-2 1 -5 2t-5 2l-213 70q-6 2 -9 2l-315 57q-16 5 -30 2l-206 -37q-10 -2 -14 -4l-216 -94q-25 -11 -34.5 -35.5t1.5 -48.5t35.5 -33.5t48.5 1.5l209 91l168 31l-115 -406
q-7 -17 -6.5 -35t11.5 -34l110 -171l-176 -175q-20 -20 -21.5 -47t15.5 -49l-62 10l-158 112l-28 -39l167 -120l89 -14q-19 -20 -23 -47q-3 -19 1 -37t14 -32.5t25.5 -24.5t33.5 -13q19 -3 37 1.5t32.5 14.5t24.5 25t13 34q4 30 -8 56l524 -79q-16 -10 -27 -25.5t-14 -35.5
q-3 -19 1 -37t14 -32.5t25.5 -24.5t33.5 -13q19 -3 37 1.5t32.5 14.5t24.5 25t13 34q4 21 -2 40.5t-19 34.5l64 -10zM730 -78q-5 -21 -22 -33.5t-38 -8.5q-21 3 -34 21t-9 39t21.5 33t38.5 9q22 -3 34.5 -20.5t8.5 -39.5zM1386 -193q-5 -21 -22 -33.5t-38 -9.5
q-21 4 -34 21.5t-9 38.5t21.5 34t38.5 9q22 -4 34.5 -21.5t8.5 -38.5zM711 37l218 215q18 18 21 43.5t-11 46.5l-35 55l199 -99l137 -345l3 -6l-541 81q2 3 4.5 5t4.5 4z" />
  </g>

</svg>
