<?xml version="1.0" standalone="no"?>
<!DOCTYPE svg PUBLIC "-//W3C//DTD SVG 1.1//EN" "http://www.w3.org/Graphics/SVG/1.1/DTD/svg11.dtd" >
<svg viewBox="0 -410 2048 2048">
  <g transform="matrix(1 0 0 -1 0 1638)">
   <path fill="currentColor"
d="M2048 550v-960h-1106q-43 24 -62 45t-21 38.5t9.5 32t29.5 26.5q43 27 127 46q77 15 161 32t164 37.5t151.5 45t123.5 55t79.5 67.5t21.5 82q-16 49 -81 88q-28 16 -69.5 31.5t-100.5 27t-137.5 18t-179.5 4.5q87 -5 151.5 -15t112 -22.5t78.5 -27t51 -29.5
q46 -34 45 -75q-5 -27 -44.5 -47.5t-104 -36.5t-147.5 -29t-174 -24.5t-185.5 -23t-181 -25t-159.5 -30t-122 -37.5q-70 -35 -104 -75q-15 -17 -23 -37.5t-4 -43.5t23.5 -47.5t59.5 -50.5h-430v960h498v430h-130q-11 0 -15 10.5t5 17.5l659 516q9 7 20 0l267 -209v149
q0 15 10 25t24 10h111q14 0 24 -10t10 -25v-240v-49l214 -167q9 -7 5 -17.5t-15 -10.5h-129l-1 -430h491zM1527 988v24h115l-183 144l-6 4v44v260q0 3 -3 3h-110q-2 0 -2 -3v-128v-88l-28 22l-282 220l-614 -478h116v-32v-665q0 -2 3 -2h348v503h293v-503h348q3 0 3 2z" />
  </g>

</svg>
