<?xml version="1.0" standalone="no"?>
<!DOCTYPE svg PUBLIC "-//W3C//DTD SVG 1.1//EN" "http://www.w3.org/Graphics/SVG/1.1/DTD/svg11.dtd" >
<svg viewBox="0 -410 2048 2048">
  <g transform="matrix(1 0 0 -1 0 1638)">
   <path fill="currentColor"
d="M1520 729q0 -36 -0.5 -91.5t-4.5 -121t-14 -137t-29 -141t-48.5 -132.5t-73.5 -111t-113 -80t-149 -40.5t-163.5 9t-157 68.5t-129.5 138.5t-80 219.5q-15 81 -16 127t5 67.5t16.5 24t20.5 -1.5q6 -3 19 -35.5t33 -80t49 -101t68 -99t88.5 -74.5t112.5 -27q62 2 92 41
t37.5 97t-1.5 127t-24.5 132t-32.5 110.5t-24 63.5q-6 14 -12.5 36t-9 49t0.5 56t15.5 57t35.5 52.5t60 42.5q-8 3 -8 14q-1 24 29.5 43.5t77.5 25.5q0 2 -4 14t-10 28t-14 33.5t-15 31.5q-11 20 -28.5 39t-40.5 39q-3 3 -12.5 10t-20 14.5t-18.5 13.5t-9 7q-16 12 -22 18
t-6 11q0 18 11.5 29.5t34.5 11.5q14 0 38 -18t48 -50q31 -42 55.5 -99t40.5 -130q51 0 86 -16.5t36 -42.5q0 -2 -2 -8q49 -14 84 -41.5t56.5 -63.5t31.5 -77t10 -82zM1022 1326q5 5 11 7.5t6 10.5q0 7 -10 6.5t-19 -6.5t-12.5 -15t3.5 -17q3 -4 6 -3t5.5 4t5 7t4.5 6z
M617 170q20 -47 53 -92q27 -38 69.5 -80t102.5 -74q-35 21 -62.5 45.5t-46.5 46.5q-22 26 -39 51q-65 104 -92 186.5t-34 139.5t-3.5 87t-0.5 30q-6 0 -8 -30.5t3 -79t19 -109t39 -121.5zM1116 1021q-11 -2 -17.5 -9.5t-2.5 -16.5q4 -10 12 -4t14 9q5 3 12 3.5t9 8.5
q2 6 -7 9t-20 0zM1156 271q8 49 2 112t-17.5 127t-25.5 122t-21 98q-8 40 1 74.5t19 61.5t13.5 44t-14.5 21t-35 -6.5t-30 -31t-21 -48.5t-8 -59q0 -34 7 -65.5t17.5 -63t23 -64t22.5 -66.5q7 -24 15 -69t12.5 -94.5t2.5 -96t-15 -75.5q-20 -44 -41.5 -63t-33.5 -25
q-1 -1 -3 -2q-4 -2 -6 -2q1 1 2.5 1.5t3.5 1.5t3 1q10 5 29 16.5t38.5 31t36.5 49t23 70.5z" />
  </g>

</svg>
