<?xml version="1.0" standalone="no"?>
<!DOCTYPE svg PUBLIC "-//W3C//DTD SVG 1.1//EN" "http://www.w3.org/Graphics/SVG/1.1/DTD/svg11.dtd" >
<svg viewBox="0 -410 2048 2048">
  <g transform="matrix(1 0 0 -1 0 1638)">
   <path fill="currentColor"
d="M690 549q12 7 6 19l-238 292q-8 13 6 10l305 -72q-11 29 -20 60t-14 64q-3 20 -2.5 40t3.5 40h-272q-16 0 -2 7l228 114q6 3 12 9t8 12l116 291q7 14 21 9l163 -53q6 -2 15 -2t15 2l162 54q6 2 12 -0.5t8 -8.5l116 -292q3 -6 8.5 -12t11.5 -9l228 -113q14 -7 -2 -7h-273
q3 -20 3.5 -40t-2.5 -40q-5 -32 -13.5 -63.5t-20.5 -60.5l307 72q6 2 8 -1.5t-2 -8.5l-238 -292q-8 -14 6 -19q69 -35 122 -76t92.5 -83.5t66.5 -85t44 -81.5q40 -92 46 -185h-1411q6 93 46 185q17 39 44 81.5t66 85t92 83t123 75.5zM728 734q-7 -35 2 -54t23 -28
q16 -11 38 -13q29 -1 48.5 3.5t42.5 18.5q22 15 34 47.5t18 69.5q3 14 14 26q9 11 26.5 21.5t48.5 18.5q-7 1 -14 1h-12q-6 0 -12 -1q-15 0 -35 -7t-37 -30q-8 -11 -11 -26.5t-5.5 -30t-6 -24.5t-12.5 -10t-12 6t-5 12.5t-5.5 12.5t-14.5 6h-92q-8 0 -14 -5.5t-7 -13.5z
M794 706q-23 0 -33.5 5.5t-14 11.5t-2 11.5l1.5 5.5h98q5 -13 -2 -20t-18 -10q-12 -4 -30 -4z" />
  </g>

</svg>
