<?xml version="1.0" standalone="no"?>
<!DOCTYPE svg PUBLIC "-//W3C//DTD SVG 1.1//EN" "http://www.w3.org/Graphics/SVG/1.1/DTD/svg11.dtd" >
<svg viewBox="0 -410 2048 2048">
  <g transform="matrix(1 0 0 -1 0 1638)">
   <path fill="currentColor"
d="M968 1183q-8 20 -2.5 38.5t20.5 23.5q14 5 29.5 -5.5t23.5 -30.5t2.5 -38.5t-20.5 -23.5q-14 -5 -29.5 5.5t-23.5 30.5zM980 1355q8 -20 -0.5 -39t-26.5 -26q-19 -7 -37.5 2.5t-25.5 29.5q-8 20 0 39t27 26q19 8 37 -2t26 -30zM995 1264q-7 -1 -9 3t0 9l16 28q3 6 8 6
t8 -6l15 -21q4 -6 1.5 -10t-8.5 -5zM950 1266q16 -2 7 -14l-21 -23q-5 -5 -10 -4t-7 7l-9 24q-3 6 0 10t10 3zM1348 98q2 -18 3 -36.5t1 -35.5q0 -5 0.5 -14.5t0.5 -17.5q-59 -17 -124.5 -27.5t-134.5 -10.5q-86 2 -192 17q-91 13 -215.5 39.5t-273.5 77.5q-13 5 -22 16.5
t-9 25.5v124q0 3 1.5 7t3.5 7q15 24 36.5 47t46.5 43.5t52.5 38.5t53.5 33q62 35 129 64q13 5 25.5 9t26.5 8q-5 -11 -3 -23q0 -71 119 -108q44 -14 90 -20.5t90 -6.5t83 6.5t68 19.5q14 -14 31 -33t25 -28q35 -40 50 -70t24 -57q3 -11 7 -35.5t7 -59.5zM730 420
q-19 -8 -28 -23t-4 -29q6 -15 23 -21t36 1q19 8 28 23t4 29q-6 15 -23 21t-36 -1zM727 292q-5 14 -22 20t-36 -1t-28 -22.5t-4 -29.5q5 -15 22.5 -21t35.5 2q19 7 28 22t4 30zM609 420q-20 -8 -29 -23t-3 -29q5 -15 22.5 -21t35.5 1q19 8 28 23t4 29q-5 15 -22 21t-36 -1z
M547 311q-19 -7 -28 -22.5t-4 -29.5q6 -15 23 -21t36 2q19 7 28 22t4 30q-6 15 -23 20.5t-36 -1.5zM418 194q46 -24 103.5 -39.5t116 -24t114.5 -11.5t99 -3t69.5 2.5t26.5 4.5q-84 -3 -175 8q-39 5 -82.5 13.5t-89.5 22t-93 32.5t-92 46zM1658 268q2 -3 4 -7t1 -7v-101
q0 -13 -8.5 -26.5t-19.5 -20.5q-38 -23 -82 -42.5t-81 -33.5q-44 -17 -86 -30q0 6 -0.5 12t-0.5 13q-2 20 -3 38.5t-3 36.5q-4 38 -7.5 63.5t-8.5 39.5q-11 31 -32.5 66.5t-57.5 70.5q-8 8 -27.5 20.5t-35.5 22.5q34 16 60 43t40 58q45 -13 81 -26.5t59 -25.5q34 -19 69 -44
q30 -21 67 -51.5t72 -68.5zM966 604q-2 59 -13.5 111.5t-28.5 103t-38.5 100.5t-43 104t-42.5 113.5t-37 129.5q-3 16 -2 37.5t10.5 43t29.5 39.5t55 27q41 10 70.5 7t49.5 -13.5t33 -25t22 -25.5q10 -14 23 -39t24 -62.5t19 -86.5t10 -109q4 -61 8 -131q3 -60 4.5 -138.5
t-1.5 -164.5q52 -2 84 -10t50 -18q21 -11 30 -25q10 -19 7 -42t-15.5 -45.5t-33 -42t-45.5 -31.5t-60.5 -18.5t-77 -7t-87 5.5t-88.5 20q-54 16 -75 37t-21.5 40.5t13.5 35.5t29 22q13 5 32 14q17 7 42.5 18t63.5 26zM925 971q1 -5 2.5 -10.5t3.5 -10.5l31 9q-2 5 -4 10.5
t-4 10.5q-6 20 -12.5 37t-13.5 32q-2 5 -4.5 9.5t-4.5 9.5q-1 3 -1.5 4l-1.5 3l-28 -15l3 -6t4 -8.5t4 -9.5q7 -14 13.5 -30.5t12.5 -34.5zM970 817l31 7q0 2 -0.5 4l-1.5 6q-1 5 -2 11t-3 14q-5 20 -12 41t-16 44l-31 -11zM1112 560q0 -14 -13.5 -18.5t-30.5 -4.5
q-19 0 -44 4q-12 2 -23 6q-9 3 -17 7.5t-10 10.5q2 -8 5.5 -13.5t8.5 -9.5t12 -7q17 -6 36.5 -10.5t39.5 -2.5q-5 -25 13 -41t41 -25q27 -11 63 -17q-38 6 -56.5 20.5t-24.5 30.5q-8 18 -4 39q8 3 12.5 9t6.5 11q3 6 3 13t-2 14q-2 6 -5.5 13.5t-10.5 14.5v-44zM897 1394
q-19 -10 -27.5 -25t-9.5 -33.5t4.5 -40.5t14.5 -45t26.5 -50t39 -48t45 -32.5t43.5 -3.5q20 7 25.5 30.5t2.5 53.5t-11.5 61.5t-16.5 54.5q-9 24 -24 42.5t-33.5 30t-39 13.5t-39.5 -8z" />
  </g>

</svg>
