<?xml version="1.0" standalone="no"?>
<!DOCTYPE svg PUBLIC "-//W3C//DTD SVG 1.1//EN" "http://www.w3.org/Graphics/SVG/1.1/DTD/svg11.dtd" >
<svg viewBox="0 -410 2048 2048">
  <g transform="matrix(1 0 0 -1 0 1638)">
   <path fill="currentColor"
d="M1576 443q15 -25 15 -64.5t-9.5 -83.5t-24.5 -89t-29.5 -81t-25 -58.5t-9.5 -22.5q-6 -11 -19 -11h-89q-5 0 -10 3.5t-7 8.5q-2 2 -2 6q-1 2 -1 3q-5 13 -13 41.5t-17 66t-16.5 79.5t-11.5 82q0 5 -1 9q-2 33 1 62t13 49q19 38 52.5 56.5t71 18.5t73.5 -19t59 -56z
M570 334q-1 -2 -1 -5q-2 -39 -10 -81.5t-18 -81t-19.5 -68t-14.5 -43.5q0 -2 -1 -4t-1.5 -3.5t-1.5 -3.5q-2 -5 -6.5 -8.5t-10.5 -3.5h-89q-5 0 -10.5 3.5t-7.5 8.5q-51 112 -70.5 187t-22.5 123q-4 55 8 88q3 7 8 13l1 1l9 12q23 27 55 39t66 8.5t65 -22t52 -52.5
q12 -19 16.5 -47t3.5 -60zM562 448q-23 36 -56 56t-69 24t-70 -8.5t-59 -42.5q-17 37 -25 75.5t-2 74t30.5 66t74.5 51.5q67 29 158 48.5t193.5 29t211 9.5t211.5 -9.5t194 -29t158 -48.5q41 -17 64.5 -41t33.5 -51q2 -4 4 -10q0 -2 2 -10q1 -3 1 -5.5t1 -4.5v-1v-9v-1
q1 -3 1 -10v-1v-9v-1q0 -2 -0.5 -4.5t-0.5 -5.5v-10v-1q-1 -2 -1 -5t-1 -5q-5 -26 -14 -52t-22 -51q-27 37 -65 54.5t-77 16t-74 -22t-54 -60.5q-19 -38 -16 -112q-5 0 -9.5 1t-9.5 2v2q1 4 1 8v8q1 13 1.5 25t1.5 24q2 15 3.5 27t3.5 21q3 9 6 21.5t8 26.5q2 4 2 7
q4 11 7 22.5t7 22.5q2 5 2.5 8t2.5 6q1 3 1 6q4 8 -6 8h-7q-5 -1 -9.5 -1h-9.5q-14 0 -27.5 -0.5t-26.5 -0.5h-32.5t-25.5 2q-21 3 -57 9q-4 1 -8 1t-7 1v55v7v2q0 4 -3 6t-6 1q-2 0 -3 -0.5l-3 -1.5q-4 -2 -7 -2.5t-7 -2.5l-45 -15q-3 -1 -6.5 -2t-6.5 -2q-17 -5 -30.5 -9
t-22.5 -6q-11 -2 -25.5 -4.5t-33.5 -5.5q-13 -2 -26.5 -3t-27.5 -3q-5 0 -9.5 -0.5t-9.5 -1.5q-3 0 -4 -0.5t-3 -0.5q-4 0 -5.5 -3t0.5 -6q2 -2 3 -4l2.5 -5t3.5 -6q5 -9 9.5 -18t9.5 -18q3 -4 7 -12q5 -12 9.5 -21.5t7.5 -17.5q6 -18 5 -53q0 -21 -3 -45q-1 -5 -1.5 -9
t-0.5 -9q-1 -1 -1 -3q-75 -2 -147.5 -11t-143.5 -23q3 73 -20 112zM1225 346q-46 5 -91 9t-90 9l-8 1q2 6 2 7q3 9 5.5 17.5t4.5 17.5q2 7 3.5 13t2.5 12q9 39 8 59q0 8 -1 18.5t-3 22.5q-2 6 -3 12.5t-2 13.5q-2 8 -3.5 15.5t-3.5 14.5v3q2 0 8 -2q11 -2 22 -4.5t22 -4.5
l18 -3q18 -3 32.5 -5t25.5 -4q11 -1 26 -1h33h26.5t27.5 1h17q-1 -3 -3 -11q-4 -11 -7.5 -22.5t-6.5 -22.5q0 -2 -1 -3.5t-1 -3.5q-5 -15 -8.5 -27.5t-5.5 -21.5t-3.5 -21.5t-3.5 -27.5q-1 -12 -1.5 -24.5t-1.5 -25.5q-1 -5 -1 -15zM1027 377q-1 -2 -1 -4.5t-2 -5.5l-78 3
l83 14q0 -2 -0.5 -3.5t-1.5 -3.5zM1324 152q5 -21 10.5 -41t11.5 -38q3 -11 5 -18h-830q2 4 3 7t2 8q6 18 12 37.5t12 39.5q8 29 14 56.5t10 53.5q3 19 5 36t3 34q66 12 153 22t187 10q29 0 58 -0.5t58 -3.5l228 -26h1q7 -1 13.5 -1.5t13.5 -2.5q1 -16 3 -32.5t5 -33.5
q4 -26 9.5 -53t12.5 -54zM1037 412q-2 -4 -2.5 -7.5t-2.5 -7.5l-146 -24q0 4 0.5 8t0.5 8q3 24 3 47q0 19 -1 33t-5 25q-3 8 -7 18t-11 22l-6 12q-5 9 -9.5 18t-9.5 18q-2 2 -2.5 3.5t-1.5 3.5q4 1 7 1t8 1q14 2 28 3t27 3q20 3 34.5 5.5t25.5 5.5q23 5 55 16q4 0 12 4
q11 4 22.5 7.5t22.5 8.5q2 1 5 1.5t6 2.5v-52q-9 2 -17.5 3.5t-16.5 3.5q-10 2 -14 3h-3q-1 0 -1 1q-8 2 -8 -8q0 -1 0.5 -1.5t0.5 -1.5l3 -9q2 -8 3 -15t3 -15q2 -6 2.5 -12.5t2.5 -12.5q2 -12 3 -22t2 -18q0 -17 -8 -55q-1 -6 -2 -12.5t-3 -12.5zM1638 89q17 -3 34 -9
q14 -5 30 -14.5t27 -24.5q6 -9 -4 -9h-211q-13 0 -4 9q11 15 26.5 24.5t29.5 14.5q17 6 34 9v387q7 14 12 28.5t9 28.5q13 49 8.5 90.5t-29.5 74.5v358h-134l61 204h184l62 -204h-135v-967z" />
  </g>

</svg>
