<?xml version="1.0" standalone="no"?>
<!DOCTYPE svg PUBLIC "-//W3C//DTD SVG 1.1//EN" "http://www.w3.org/Graphics/SVG/1.1/DTD/svg11.dtd" >
<svg viewBox="0 -410 2048 2048">
  <g transform="matrix(1 0 0 -1 0 1638)">
   <path fill="currentColor"
d="M1320 922q45 0 84 -18t68.5 -48.5t46.5 -72t17 -87.5q0 -47 -17 -88t-46.5 -71.5t-68.5 -48.5t-84 -18h-298l194 -280h-160l96 -320l-288 416h160l-55 184h-278q-37 0 -69.5 14.5t-57 40t-38.5 59.5t-14 73t14 73t38.5 59.5t57 40.5t69.5 15h1q9 58 36 107t67 84t91 55
t108 20q45 0 87.5 -14t79.5 -39.5t66 -61.5t47 -79q12 2 23.5 3.5t22.5 1.5z" />
  </g>

</svg>
