<?xml version="1.0" standalone="no"?>
<!DOCTYPE svg PUBLIC "-//W3C//DTD SVG 1.1//EN" "http://www.w3.org/Graphics/SVG/1.1/DTD/svg11.dtd" >
<svg viewBox="0 -410 2048 2048">
  <g transform="matrix(1 0 0 -1 0 1638)">
   <path fill="currentColor"
d="M1314 539q32 -32 39.5 -73.5t-2.5 -81.5q10 -41 2.5 -82.5t-39.5 -73.5l-362 -362q-23 -23 -51 -34t-57 -11t-57 11.5t-50 33.5q-23 22 -34 50.5t-11 57.5t11.5 57t33.5 50l302 303l-302 302q-32 32 -41 75t6 83q-15 41 -6 84t41 75l361 362q22 22 50.5 33.5t58 11.5
t57.5 -11.5t50 -33.5q22 -23 33 -51t11 -57t-11 -57t-33 -50l-306 -306zM771 968q-27 -27 -30 -64q22 21 50 31.5t56.5 10t55.5 -12t49 -33.5l22 -22l306 306q15 15 23 34t8 39t-8 39.5t-23 34.5q-31 31 -73.5 31t-73.5 -31zM918 866q-15 15 -34.5 23t-39.5 8t-39.5 -8
t-34.5 -23q-10 -10 -16 -22q7 -14 16 -23q15 -15 34.5 -23t39.5 -8t39.5 8t34.5 23l22 23zM1072 417l26 26q22 22 49 33t55.5 11.5t55.5 -9.5t50 -31q-5 33 -29 57l-305 306l-23 -22q-22 -22 -49 -33t-55.5 -11.5t-56.5 9.5t-50 31q3 -37 30 -64zM1298 383q-7 15 -18 25
q-15 16 -34 23.5t-39 7.5t-39.5 -8t-34.5 -23l-26 -25l26 -26q15 -15 34.5 -23t39.5 -8t39 8t34 23q12 12 18 26zM1280 262q24 24 29 58q-23 -21 -50.5 -31t-56 -9.5t-55.5 11.5t-49 33l-25 25l-303 -302q-15 -15 -22.5 -34.5t-7.5 -39.5t7.5 -39t22.5 -34t34.5 -23t39.5 -8
t39.5 8t34.5 23z" />
  </g>

</svg>
