<?xml version="1.0" standalone="no"?>
<!DOCTYPE svg PUBLIC "-//W3C//DTD SVG 1.1//EN" "http://www.w3.org/Graphics/SVG/1.1/DTD/svg11.dtd" >
<svg viewBox="0 -410 2048 2048">
  <g transform="matrix(1 0 0 -1 0 1638)">
   <path fill="currentColor"
d="M1024 777q67 0 126 -25.5t103.5 -69.5t70 -103.5t25.5 -126.5t-25.5 -126t-70 -103t-103.5 -69.5t-126 -25.5t-126 25.5t-103.5 69.5t-70 103t-25.5 126t25.5 126.5t70 103.5t103.5 69.5t126 25.5zM1166 581l15 -16l64 58l-15 16zM1014 655h21v86h-21v-86zM822 428v21
h-86v-21h86zM882 296l-15 16l-64 -58l15 -16zM882 581l-64 58l-15 -16l64 -58zM1034 252h-21v-87h21v87zM1024 300q28 0 53 10.5t43.5 29t29.5 43.5t11 53t-11 53t-29.5 44t-43.5 29.5t-53 10.5t-53 -10.5t-43.5 -29.5t-29.5 -44t-11 -53t11 -53t29.5 -43.5t43.5 -29
t53 -10.5zM1245 254l-64 58l-15 -16l64 -58zM1312 424v22h-86v-22h86zM1320 852q76 -63 120.5 -154.5t44.5 -197.5q0 -96 -36.5 -180t-99 -146.5t-146.5 -98.5t-179 -36t-179 36t-146.5 98.5t-99 146.5t-36.5 180q0 106 44.5 197.5t120.5 154.5v288q0 59 23.5 111t63.5 90.5
t94 61t115 22.5t115 -22.5t94 -61t63.5 -90.5t23.5 -111v-288zM808 907q49 26 103 39.5t113 13.5t113 -13.5t103 -39.5v234q0 42 -17 79.5t-46 65.5t-68.5 44t-84.5 16t-84.5 -16t-68.5 -44t-46 -65.5t-17 -79.5v-234zM996 906l28 -72l28 72h-56zM1024 113q70 0 132 26.5
t108 72.5t72.5 108t26.5 132t-26.5 132t-72.5 108.5t-108 73t-132 26.5t-132 -26.5t-108 -73t-72.5 -108.5t-26.5 -132t26.5 -132t72.5 -108t108 -72.5t132 -26.5zM1024 559q25 0 47.5 -9.5t39 -26.5t26 -39.5t9.5 -47.5t-9.5 -47.5t-26 -39t-39 -26t-47.5 -9.5
q-26 0 -48 9.5t-38.5 26t-26 39t-9.5 47.5t9.5 47.5t26 39.5t38.5 26.5t48 9.5z" />
  </g>

</svg>
