<?xml version="1.0" standalone="no"?>
<!DOCTYPE svg PUBLIC "-//W3C//DTD SVG 1.1//EN" "http://www.w3.org/Graphics/SVG/1.1/DTD/svg11.dtd" >
<svg viewBox="0 -410 2048 2048">
  <g transform="matrix(1 0 0 -1 0 1638)">
   <path fill="currentColor"
d="M1827 668q5 -3 3 -8.5t-8 -5.5h-120v-316q0 -36 -13.5 -68t-37.5 -56t-56 -38t-69 -14h-473v96h473q33 0 56.5 23.5t23.5 56.5v316h-120q-5 0 -7 5.5t3 8.5l168 132q4 5 9 0zM399 656q-5 -5 -9 0l-168 132q-5 4 -3 9t7 5h120v184q0 37 14 69t38 56t56 37.5t68 13.5h478
v-96h-478q-33 0 -56.5 -23.5t-23.5 -56.5v-184h120q6 0 8 -5.5t-3 -8.5zM1018 1109q-5 5 0 10l132 168q4 5 9 2.5t5 -7.5v-120h362q36 0 68 -14t56 -38t38 -56t14 -68v-161h-96v161q0 33 -23.5 56.5t-56.5 23.5h-362v-120q0 -5 -5.5 -7.5t-8.5 2.5zM1030 215q5 -5 0 -10
l-132 -168q-4 -5 -9 -2.5t-5 7.5v120h-362q-36 0 -68 13.5t-56 37.5t-38 56t-14 69v298h96v-298q0 -33 23.5 -56.5t56.5 -23.5h362v120q0 5 5.5 7.5t8.5 -2.5z" />
  </g>

</svg>
