<?xml version="1.0" standalone="no"?>
<!DOCTYPE svg PUBLIC "-//W3C//DTD SVG 1.1//EN" "http://www.w3.org/Graphics/SVG/1.1/DTD/svg11.dtd" >
<svg viewBox="0 -410 2048 2048">
  <g transform="matrix(1 0 0 -1 0 1638)">
   <path fill="currentColor"
d="M1038 892q-4 2 -8 5t-8 5l-8 6q-2 2 -4 3t-4 3t-4 3t-4 3q-20 15 -43.5 32.5t-38.5 31.5q-12 11 -28 27q-14 14 -34.5 33.5t-46.5 47.5q31 -25 54 -43t37 -30q17 -14 28 -23q8 -6 18 -14.5t21 -19.5q0 -1 0.5 -1t0.5 -1q1 0 4 -3q4 -2 5 -4q2 -1 4 -3l3.5 -3.5l3.5 -3.5
q1 -2 2 -2.5t2 -1.5q2 -1 2.5 -2t1.5 -1q1 -2 2 -2.5t2 -1.5l4 -4l4 -4l12 -12zM1226 42q5 -3 4 -5t-6 -2h-393q-13 0 -2 7q30 23 61 37t57 22q30 9 58 12v536h1l-4 3v1l-490 508h1024l-490 -508v-1l-4 -3h1v-535q29 -3 60 -12q26 -8 58.5 -22t64.5 -38zM998 867
q0 -26 20 -45t46 -19t45 19t19 45t-19 45t-45 19q-23 0 -41 -15q-10 10 -19.5 20t-19.5 19l-6 6l-2 2h326l160 166h-873l160 -166h184q5 -5 10 -8.5t11 -8.5q2 -2 5 -4t5 -4q11 -8 22.5 -17t23.5 -17q-12 -17 -12 -37z" />
  </g>

</svg>
