<?xml version="1.0" standalone="no"?>
<!DOCTYPE svg PUBLIC "-//W3C//DTD SVG 1.1//EN" "http://www.w3.org/Graphics/SVG/1.1/DTD/svg11.dtd" >
<svg viewBox="0 -410 2048 2048">
  <g transform="matrix(1 0 0 -1 0 1638)">
   <path fill="currentColor"
d="M1024 1446q36 0 68 -14t56 -38t38 -56t14 -68t-14 -68t-38 -56t-56 -38t-68 -14t-68 14t-56 38t-38 56t-14 68t14 68t38 56t56 38t68 14zM1290 1031q-13 11 -30.5 17.5t-34.5 9.5q-19 4 -41 4q-27 0 -46.5 -10t-36.5 -22t-35 -22t-42 -10t-41.5 10t-34 22t-36 22
t-49.5 10q-22 0 -42 -4q-17 -3 -35 -9t-28 -17q-12 -7 -21.5 -18t-17 -24.5t-11.5 -28t-4 -27.5v-416q0 -26 18 -50t44 -32l49 -16l47 -607q1 -13 10.5 -22.5t23.5 -9.5h256q14 0 23.5 9.5t10.5 22.5l48 607l48 15q13 4 24 12t19.5 19.5t13.5 24.5t5 26v417q0 26 -16 54.5
t-38 42.5zM1024 730q-5 0 -8.5 3.5t-3.5 8.5t3.5 8.5t8.5 3.5t8.5 -3.5t3.5 -8.5t-3.5 -8.5t-8.5 -3.5zM1024 794q-5 0 -8.5 3.5t-3.5 8.5t3.5 8.5t8.5 3.5t8.5 -3.5t3.5 -8.5t-3.5 -8.5t-8.5 -3.5zM1024 858q-5 0 -8.5 3.5t-3.5 8.5t3.5 8.5t8.5 3.5t8.5 -3.5t3.5 -8.5
t-3.5 -8.5t-8.5 -3.5z" />
  </g>

</svg>
