<?xml version="1.0" standalone="no"?>
<!DOCTYPE svg PUBLIC "-//W3C//DTD SVG 1.1//EN" "http://www.w3.org/Graphics/SVG/1.1/DTD/svg11.dtd" >
<svg viewBox="0 -410 2048 2048">
  <g transform="matrix(1 0 0 -1 0 1638)">
   <path fill="currentColor"
d="M1274 1151q41 -24 73 -53t51.5 -58t25 -56t-6.5 -48q-13 -23 -43.5 -32t-71.5 -4l-123 -308q39 -51 44.5 -92.5t-9.5 -67.5q-11 -19 -38.5 -26t-66.5 -2t-86.5 21t-97.5 42l-303 -447l235 486q-48 31 -85 64t-61 64t-32 58.5t3 46.5q15 27 56.5 43.5t107.5 5.5l202 256
q-27 33 -36 65.5t5 56.5q12 21 38 30t60.5 7t75.5 -15t83 -37zM1275 904q-13 3 -25 7.5t-22 9.5q-11 5 -23 12l-163 -282q16 -12 34 -22q16 -8 35.5 -15t40.5 -8z" />
  </g>

</svg>
