<?xml version="1.0" standalone="no"?>
<!DOCTYPE svg PUBLIC "-//W3C//DTD SVG 1.1//EN" "http://www.w3.org/Graphics/SVG/1.1/DTD/svg11.dtd" >
<svg viewBox="0 -410 2048 2048">
  <g transform="matrix(1 0 0 -1 0 1638)">
   <path fill="currentColor"
d="M738 224q1 -4 1 -12q0 -38 -14 -70.5t-39 -57.5t-58 -39t-70 -14q-38 0 -71 14t-57.5 39t-39 57.5t-14.5 70.5q0 3 0.5 6t0.5 6v3q1 4 1 12q4 33 20 61.5t40 49t54.5 32.5t65.5 12q34 0 64.5 -12t54.5 -32.5t39.5 -49t20.5 -61.5q1 -4 1 -12v-3zM550 940q3 10 12.5 17
t20.5 7h286v-726h-106q-5 38 -23 71.5t-45 58t-62.5 38.5t-74.5 14q-40 0 -75 -14t-62.5 -38.5t-45.5 -58t-23 -71.5h-106v363q0 22 15.5 37t36.5 15h156zM606 930q-11 0 -21 -7t-13 -18l-79 -252h345v277h-232zM1571 394q37 0 70.5 -14t58 -39t39 -58t14.5 -71t-14.5 -70.5
t-39 -57.5t-58 -39t-70.5 -14q-38 0 -70.5 14t-57.5 39t-39 57.5t-14 70.5t14 71t39 58t57.5 39t70.5 14zM1776 1068q11 0 18 -7.5t7 -18.5v-777q0 -10 -7.5 -17.5t-18.5 -7.5h-1q-5 38 -23 71t-45.5 57.5t-62.5 38.5t-75 14t-75 -14t-62.5 -38.5t-45.5 -57.5t-23 -71h-442
q-11 0 -18.5 7t-7.5 18v778q0 10 7.5 17.5t18.5 7.5h118l39 155h84l33 -155h582zM1062 1068l19 149l-36 -149h17zM1594 809h-155v155h-207v-156h-155v-207h155v-155h207v156h155v207z" />
  </g>

</svg>
