<?xml version="1.0" standalone="no"?>
<!DOCTYPE svg PUBLIC "-//W3C//DTD SVG 1.1//EN" "http://www.w3.org/Graphics/SVG/1.1/DTD/svg11.dtd" >
<svg viewBox="0 -410 2048 2048">
  <g transform="matrix(1 0 0 -1 0 1638)">
   <path fill="currentColor"
d="M1459 840q8 0 13.5 -6t5.5 -14v-102q0 -8 -5.5 -13.5t-13.5 -5.5h-51q-8 0 -13.5 5.5t-5.5 13.5v32h-10v-122q0 -75 -19 -139.5t-55.5 -114.5t-89.5 -82.5t-121 -43.5v-74h288q8 0 14 -5.5t6 -13.5v-103q0 -8 -6 -13.5t-14 -5.5h-716q-8 0 -14 5.5t-6 13.5v103
q0 8 6 13.5t14 5.5h288v74q-68 12 -120.5 45t-88.5 82.5t-54.5 114t-18.5 138.5v122h-13v-32q0 -8 -5.5 -13.5t-13.5 -5.5h-51q-8 0 -13.5 5.5t-5.5 13.5v102q0 8 5.5 14t13.5 6h51q8 0 13.5 -6t5.5 -14v-32h64v32q0 8 5.5 14t13.5 6h7v288q0 57 21.5 107t59 87.5t87.5 59
t107 21.5t107 -21.5t87.5 -59t59 -87.5t21.5 -107v-288h7q8 0 13.5 -6t5.5 -14v-32h64v32q0 8 5.5 14t13.5 6h51zM621 801h-13v-64h13v64zM1286 801h-524v-64h524v64zM787 616q0 -49 18.5 -92t51 -75.5t75.5 -51t92 -18.5t92 18.5t75 50.5t51 75t19 93v83h-474v-83zM787 840
h474v288q0 49 -19 92t-51 75t-75 50.5t-92 18.5t-92 -18.5t-75.5 -50.5t-51 -75t-18.5 -92v-288zM1363 136h-288h-102h-288v-64h678v64zM1056 174v114h-64v-114h64zM1341 750h-16v-32q0 -8 -5.5 -13.5t-13.5 -5.5h-7v-83q0 -57 -21.5 -107.5t-59 -88t-87.5 -59t-107 -21.5
t-107 21.5t-87.5 59t-59 88t-21.5 107.5v83h-7q-8 0 -13.5 5.5t-5.5 13.5v32h-13v-122q0 -67 16.5 -124.5t47.5 -101.5t76.5 -74t103.5 -41v21q0 8 5.5 13.5t13.5 5.5h102q8 0 13.5 -5.5t5.5 -13.5v-22q59 11 105 40.5t77.5 74t48 102t16.5 125.5v122zM1440 801h-13v-64h13
v64zM1024 1332q11 0 18.5 -7t7.5 -18t-7.5 -18.5t-18.5 -7.5t-18.5 7.5t-7.5 18.5t7.5 18t18.5 7zM973 1249q11 0 18 -7t7 -18t-7 -18.5t-18 -7.5t-18.5 7.5t-7.5 18.5t7.5 18t18.5 7zM1075 1249q11 0 18.5 -7t7.5 -18t-7.5 -18.5t-18.5 -7.5t-18 7.5t-7 18.5t7 18t18 7z
M1178 1249q11 0 18 -7t7 -18t-7 -18.5t-18 -7.5t-18.5 7.5t-7.5 18.5t7.5 18t18.5 7zM832 1153q11 0 18.5 -7t7.5 -18t-7.5 -18.5t-18.5 -7.5t-18.5 7.5t-7.5 18.5t7.5 18t18.5 7zM910 1153q11 0 18 -7t7 -18t-7 -18.5t-18 -7.5t-18.5 7.5t-7.5 18.5t7.5 18t18.5 7z
M987 1153q11 0 18.5 -7t7.5 -18t-7.5 -18.5t-18.5 -7.5t-18 7.5t-7 18.5t7 18t18 7zM1064 1153q11 0 18.5 -7t7.5 -18t-7.5 -18.5t-18.5 -7.5t-18.5 7.5t-7.5 18.5t7.5 18t18.5 7zM1142 1153q11 0 18 -7t7 -18t-7 -18.5t-18 -7.5t-18.5 7.5t-7.5 18.5t7.5 18t18.5 7z
M1219 1153q11 0 18.5 -7t7.5 -18t-7.5 -18.5t-18.5 -7.5t-18 7.5t-7 18.5t7 18t18 7zM870 1249q11 0 18.5 -7t7.5 -18t-7.5 -18.5t-18.5 -7.5t-18 7.5t-7 18.5t7 18t18 7zM947 1332q11 0 18.5 -7t7.5 -18t-7.5 -18.5t-18.5 -7.5t-18 7.5t-7 18.5t7 18t18 7zM1101 1332
q11 0 18 -7t7 -18t-7 -18.5t-18 -7.5t-18.5 7.5t-7.5 18.5t7.5 18t18.5 7z" />
  </g>

</svg>
