<?xml version="1.0" standalone="no"?>
<!DOCTYPE svg PUBLIC "-//W3C//DTD SVG 1.1//EN" "http://www.w3.org/Graphics/SVG/1.1/DTD/svg11.dtd" >
<svg viewBox="0 -410 2048 2048">
  <g transform="matrix(1 0 0 -1 0 1638)">
   <path fill="currentColor"
d="M1869 883v-845h-1690v845h199q2 8 4 17t6 18q12 32 35.5 62t60.5 58q112 85 337 132t581 48q8 23 26.5 37t43.5 14h112v-13h118v-124h-118v-16h-112q-23 0 -41 12t-27 32q-174 0 -315 -11.5t-250.5 -33.5t-188.5 -53t-131 -70q-31 -23 -49.5 -47t-27.5 -48q-3 -6 -5 -14
h1432zM1584 1151h99v86h-99v-86zM304 326h58l9 96h-57zM314 201h49l-13 96q6 0 9 3q2 1 3 3q0 2 1 5q0 2 0.5 4.5t-1.5 6.5h-43q2 -4 1.5 -6.5t-0.5 -4.5q-1 -3 -1 -5q-1 -2 -3 -3q-3 -3 -12 -3zM380 186l-7 61h-9l7 -51h-57v-10h66zM947 729h720v77h-720v-77zM438 326h58
l10 96h-58zM448 201h50l-14 96q7 0 10 3q2 1 2 3t1 5q0 2 0.5 4.5t-1.5 6.5h-42q2 -4 1.5 -6.5t-0.5 -4.5q-1 -3 -1 -5q-2 -2 -4 -3q-5 -3 -12 -3zM514 186l-7 61h-9l8 -51h-58v-10h66zM784 268h-29v346h-125v-538h154v192zM986 268h-29v346h-96v-346h-29v-192h154v192z
M1187 268h-29v346h-96v-346h-28v-192h153v192zM1389 268h-39v346h-86v-346h-29v-192h154v192zM1590 268h-28v346h-106v-346h-19v-192h153v192zM1792 614h-125v-346h-29v-192h154v538zM1792 806h-77v-77h77v77z" />
  </g>

</svg>
