<?xml version="1.0" standalone="no"?>
<!DOCTYPE svg PUBLIC "-//W3C//DTD SVG 1.1//EN" "http://www.w3.org/Graphics/SVG/1.1/DTD/svg11.dtd" >
<svg viewBox="0 -410 2048 2048">
  <g transform="matrix(1 0 0 -1 0 1638)">
   <path fill="currentColor"
d="M639 946q-33 -21 -81 -31.5t-100 -9.5t-101 12t-84 33q-2 2 -3.5 2t-3.5 2q11 43 29.5 89.5t38 89t37.5 77t30 54.5q12 23 37 25q22 2 61.5 6.5t89 9.5t105.5 10t112 9.5t108 7t93 2.5h1h14h15h1q41 0 93 -2.5t107.5 -7t111.5 -9.5t105.5 -10t89 -9.5t62.5 -6.5
q25 -2 37 -25q11 -20 29 -54.5t37.5 -77t37.5 -89t30 -89.5q-2 -2 -4 -2t-4 -2q-35 -22 -84 -33.5t-100.5 -12.5t-100 9.5t-81.5 32.5q2 10 5 19t6 17q4 12 2 23.5t-8.5 20.5t-16.5 14.5t-22 5.5h-334h-29h-333q-13 0 -23 -5.5t-16.5 -14.5t-8.5 -20.5t2 -23.5
q3 -8 5.5 -17.5t5.5 -18.5zM651 806q-13 -20 -42.5 -33.5t-67.5 -19.5t-80 -6t-80.5 7t-69 20t-44.5 33q-14 18 -15 47.5t6 65.5q34 -19 86 -29t107.5 -11.5t108.5 6t90 24.5q8 -32 9.5 -60.5t-8.5 -43.5zM1784 919q7 -35 5.5 -65t-15.5 -49t-44.5 -32t-69 -20t-80.5 -7.5
t-80 6t-67.5 20t-42.5 33.5q-10 16 -8 44t10 60q37 -17 90 -24.5t108.5 -6t107 12t86.5 28.5zM1562 439q24 -32 37 -69.5t13 -77.5v-158q0 -40 -28 -68t-68 -28h-1008q-40 0 -68 28t-28 68v158q0 40 13 77.5t37 69.5l280 361q5 5 5 14v64q0 11 7 17.5t17 6.5h48
q11 0 17.5 -6.5t6.5 -17.5v-48q0 -11 7 -17.5t17 -6.5h288q11 0 17.5 6.5t6.5 17.5v48q0 11 7 17.5t17 6.5h48q11 0 17.5 -6.5t6.5 -17.5v-64q0 -7 5 -14zM891 348q0 11 -7.5 18.5t-18.5 7.5h-43q-11 0 -19 -7.5t-8 -18.5v-44q0 -11 8 -18.5t19 -7.5h43q11 0 18.5 7.5
t7.5 18.5v44zM891 492q0 11 -7.5 18.5t-18.5 7.5h-43q-11 0 -19 -7.5t-8 -18.5v-44q0 -11 8 -18.5t19 -7.5h43q11 0 18.5 7.5t7.5 18.5v44zM891 636q0 11 -7.5 18.5t-18.5 7.5h-43q-11 0 -19 -7.5t-8 -18.5v-44q0 -11 8 -18.5t19 -7.5h43q11 0 18.5 7.5t7.5 18.5v44z
M1059 348q0 11 -7.5 18.5t-18.5 7.5h-43q-11 0 -19 -7.5t-8 -18.5v-44q0 -11 8 -18.5t19 -7.5h43q11 0 18.5 7.5t7.5 18.5v44zM1059 492q0 11 -7.5 18.5t-18.5 7.5h-43q-11 0 -19 -7.5t-8 -18.5v-44q0 -11 8 -18.5t19 -7.5h43q11 0 18.5 7.5t7.5 18.5v44zM1059 636
q0 11 -7.5 18.5t-18.5 7.5h-43q-11 0 -19 -7.5t-8 -18.5v-44q0 -11 8 -18.5t19 -7.5h43q11 0 18.5 7.5t7.5 18.5v44zM1227 348q0 11 -7.5 18.5t-18.5 7.5h-43q-11 0 -19 -7.5t-8 -18.5v-44q0 -11 8 -18.5t19 -7.5h43q11 0 18.5 7.5t7.5 18.5v44zM1227 492q0 11 -7.5 18.5
t-18.5 7.5h-43q-11 0 -19 -7.5t-8 -18.5v-44q0 -11 8 -18.5t19 -7.5h43q11 0 18.5 7.5t7.5 18.5v44zM1227 636q0 11 -7.5 18.5t-18.5 7.5h-43q-11 0 -19 -7.5t-8 -18.5v-44q0 -11 8 -18.5t19 -7.5h43q11 0 18.5 7.5t7.5 18.5v44z" />
  </g>

</svg>
