<?xml version="1.0" standalone="no"?>
<!DOCTYPE svg PUBLIC "-//W3C//DTD SVG 1.1//EN" "http://www.w3.org/Graphics/SVG/1.1/DTD/svg11.dtd" >
<svg viewBox="0 -410 2048 2048">
  <g transform="matrix(1 0 0 -1 0 1638)">
   <path fill="currentColor"
d="M1030 965q73 14 158 7.5t176 -41.5q8 -3 11 -10t0 -15t-10 -11t-15 0q-87 32 -166.5 38.5t-148.5 -5.5q-7 -2 -13 -3t-12 -3q-4 -2 -8 -2q-7 -3 -14 0.5t-10 11.5q-2 8 1.5 15t11.5 9q10 4 39 9zM939 1193q-31 29 -36 47t7.5 27t37 11.5t52 0t53 -8t39.5 -11.5t22.5 -2.5
t16.5 12.5t16.5 21t23.5 22.5t38.5 18t59.5 7.5t72 -9t67.5 -23.5t56.5 -32t38.5 -34.5t13.5 -31t-17 -21q-26 -11 -53 -37.5t-51 -60t-42 -68.5t-26 -62q-40 14 -88 23q-41 8 -94.5 11t-113.5 -6q6 16 5 34t-6 35.5t-14 34.5t-19 32q-24 35 -59 70zM1040 516q-12 8 -21 15
t-14 15q-11 16 -7 38q6 25 21 33q17 11 43 12zM1059 421q28 -15 42 -33q13 -15 8 -42q-4 -23 -24 -38q-19 -16 -51 -16zM1353 872q60 -48 114.5 -117.5t94.5 -159t61 -198.5t14 -236q-3 -51 -34.5 -91.5t-84.5 -72t-123 -54t-149.5 -35.5t-164.5 -17t-168 1t-159 18.5
t-138.5 35.5t-107 52.5t-63.5 69.5q-47 97 -31 193t87.5 197t194 209.5t287.5 229.5q22 11 56 17t72.5 7.5t78 -1.5t73 -9.5t58 -16.5t32.5 -22zM1211 553q3 13 -2 28q-4 16 -15 35q-14 25 -33 37q-22 14 -51 23l6 32q5 25 -14 28q-18 4 -24 -20l-6 -32q-63 7 -101 -19
q-39 -27 -48 -77q-7 -37 4 -67q6 -14 14.5 -25.5t20.5 -20.5t27.5 -18.5t34.5 -18.5l-26 -137q-21 11 -29 23q-10 12 -14 27q-2 7 -3 17t-3 23q-1 11 -10 20q-7 7 -21 10q-17 3 -29 -5q-13 -10 -16 -24q-2 -9 -2 -19t3 -21q4 -21 18 -44q7 -11 16.5 -20.5t20.5 -18.5
q21 -17 57 -28l-16 -79q-2 -14 0 -21q3 -7 14 -9q12 -3 17 4q5 8 8 25l14 74q44 -5 77 8q35 12 56 39q22 29 28 60q6 27 0 51q-6 25 -21 44t-34 31q-10 6 -23.5 14t-31.5 16l24 122q35 -17 38 -57q1 -31 31 -39q15 -3 28 6q15 10 16 23z" />
  </g>

</svg>
