<?xml version="1.0" standalone="no"?>
<!DOCTYPE svg PUBLIC "-//W3C//DTD SVG 1.1//EN" "http://www.w3.org/Graphics/SVG/1.1/DTD/svg11.dtd" >
<svg viewBox="0 -410 2048 2048">
  <g transform="matrix(1 0 0 -1 0 1638)">
   <path fill="currentColor"
d="M1454 372q12 2 18 -8t-3 -18q-75 -74 -170.5 -114t-202.5 -40q-110 0 -206 41.5t-167.5 113t-113 167.5t-41.5 206q0 109 41.5 205.5t113 168t167.5 113t206 41.5q11 0 15 -10.5t-5 -17.5q-1 -1 -2.5 -3t-4.5 -4q-5 -5 -10 -9.5t-10 -10.5q-16 -17 -31 -36t-30 -41
q-48 -72 -71.5 -152t-12.5 -166q0 -4 6.5 -13t17.5 -18q28 -27 65 -31q8 -2 12 -7.5t2 -12.5q-5 -19 -15 -33t-25 -28q-2 -1 -6 -4.5t-8.5 -7l-9 -7t-6.5 -5.5q46 -112 121.5 -173.5t173.5 -82.5q35 -8 69 -10t67 0q12 1 22.5 2t19.5 2q5 0 11 2q1 0 1.5 0.5t1.5 0.5z
M1096 222q88 0 167.5 28.5t145.5 81.5h-9q-35 -2 -71.5 0t-73.5 10q-94 20 -169.5 75.5t-126.5 152.5l-28 -4t-27 -2q8 3 17 6.5t16 6.5q8 4 15 7q-4 8 -8 16.5t-7 17.5q-8 20 9 35q4 5 16.5 14.5t14.5 10.5q16 15 23 28q-19 5 -36.5 15t-30.5 22t-21.5 25t-9.5 24
q-11 93 13.5 178t76.5 162q15 23 31 43t32 37q-95 -8 -178 -49.5t-144.5 -107.5t-97 -153t-35.5 -184q0 -103 39 -193t106.5 -157.5t157.5 -106.5t193 -39zM772 760q31 4 49.5 9t28.5 10q11 5 16 12l33 -21q-19 -8 -40.5 -10t-41.5 -2q-23 0 -45 2z" />
  </g>

</svg>
