<?xml version="1.0" standalone="no"?>
<!DOCTYPE svg PUBLIC "-//W3C//DTD SVG 1.1//EN" "http://www.w3.org/Graphics/SVG/1.1/DTD/svg11.dtd" >
<svg viewBox="0 -410 2048 2048">
  <g transform="matrix(1 0 0 -1 0 1638)">
   <path fill="currentColor"
d="M1443 672q29 0 55 -11.5t45 -31.5t30 -46.5t11 -56.5t-11 -57t-30 -46.5t-45 -31t-55 -11.5h-410q-24 0 -45.5 9.5t-37 26t-25 38.5t-9.5 47t9.5 47.5t25.5 39t37.5 26t45.5 9.5q9 57 44 98q2 3 4.5 5.5t4.5 5.5l4 4q4 3 7 7q4 2 5 4q2 2 5 4t5 4q3 3 8 5l3 3q8 5 15 8.5
l15 7.5q18 7 37 11t39 4q60 0 110 -34.5t74 -91.5q12 4 29 4zM1000 1186q-14 0 -23 9t-9 23v224q0 14 9 23t23 9t23 -9t9 -23v-224q0 -14 -9 -23t-23 -9zM1288 898q0 14 9 23t23 9h224q14 0 23 -9t9 -23t-9 -23t-23 -9h-224q-14 0 -23 9t-9 23zM712 898q0 -14 -9 -23t-23 -9
h-224q-14 0 -23 9t-9 23t9 23t23 9h224q14 0 23 -9t9 -23zM1247 1102q-9 -9 -22.5 -9.5t-22.5 9.5q-10 10 -10 23t10 23l158 158q10 10 23 10t23 -10q9 -10 9 -23t-9 -23zM753 694q9 9 22.5 9.5t22.5 -9.5q10 -10 10 -23t-10 -23l-158 -158q-10 -10 -23 -10t-23 10
q-9 10 -9 23t9 23zM798 1148q10 -10 10 -23t-10 -23q-9 -10 -22 -10t-23 10l-159 158q-10 9 -10 22t10 23q9 10 22 10t23 -10zM1191 855q-66 -10 -117.5 -49.5t-79.5 -99.5q-38 2 -71 18t-58 42t-39 60t-14 72q0 40 15 75t41 61t61 41t75 15t75 -15t61 -41t41 -61t15 -75
q0 -21 -5 -43z" />
  </g>

</svg>
