<?xml version="1.0" standalone="no"?>
<!DOCTYPE svg PUBLIC "-//W3C//DTD SVG 1.1//EN" "http://www.w3.org/Graphics/SVG/1.1/DTD/svg11.dtd" >
<svg viewBox="0 -410 2048 2048">
  <g transform="matrix(1 0 0 -1 0 1638)">
   <path fill="currentColor"
d="M1440 876q40 0 76 -16t62.5 -43.5t42 -65t15.5 -79.5t-15.5 -79t-42 -64.5t-62.5 -43.5t-76 -16h-570q-33 0 -62.5 13t-51.5 36t-35 54t-13 66t13 66t35 54t51.5 36t63.5 13q9 52 33.5 96t61 75.5t82.5 49.5t97 18q41 0 79.5 -12.5t71.5 -35.5t59.5 -55t42.5 -71
q19 4 42 4zM800 1192q-5 0 -9.5 4.5t-4.5 10.5v141q0 14 14 14t14 -14v-141q0 -6 -4 -10.5t-10 -4.5zM530 1230q-8 10 0 20q11 11 20 0l100 -100q10 -10 0 -20q-4 -5 -9.5 -5t-10.5 5zM589 980q0 -5 -4.5 -9t-10.5 -5h-141q-6 0 -10.5 4t-4.5 10t4.5 10.5t10.5 4.5h141
q6 0 10.5 -4.5t4.5 -10.5zM970 1130q-4 -4 -10 -4t-10 4q-8 10 0 20l100 100q4 5 9.5 5t10.5 -5q8 -10 0 -20zM630 831q11 9 20 0q11 -11 0 -20l-100 -100q-9 -11 -20 0q-9 9 0 20zM819 867q-20 -4 -39 -11.5t-34 -19.5q-45 17 -72.5 56t-27.5 89q0 32 12 60.5t33 49.5
t49.5 33t60.5 12q49 0 88 -27t56 -69q-45 -29 -77 -73t-46 -99q0 -1 -3 -1z" />
  </g>

</svg>
