<?xml version="1.0" standalone="no"?>
<!DOCTYPE svg PUBLIC "-//W3C//DTD SVG 1.1//EN" "http://www.w3.org/Graphics/SVG/1.1/DTD/svg11.dtd" >
<svg viewBox="0 -410 2048 2048">
  <g transform="matrix(1 0 0 -1 0 1638)">
   <path fill="currentColor"
d="M1550 990q-21 4 -39 3.5t-33 -4t-26.5 -8.5t-20.5 -9q-3 -1 -5.5 -2t-4.5 -2l-137 -38q-16 -4 -11 -20q4 -16 20 -11l121 34q8 -6 26.5 -15.5t40 -16t42 -7.5t32.5 10q14 12 26.5 25t16 24t-6.5 21t-41 16zM613 1104l102 -84q5 -5 11.5 -4t11.5 6q4 5 3 11.5t-6 10.5
l-111 92l-4 4t-6 7q-6 7 -15 16t-21 18.5t-28.5 17.5t-37.5 13q-31 6 -44 1.5t-14.5 -16.5t5 -28.5t14.5 -32.5q7 -15 25.5 -23t40.5 -11t42.5 -2t31.5 4zM1012 318l-29 24q-5 5 -11.5 12t-9.5 14l-8 14q-7 12 -20 14l-96 21q-5 2 -11.5 0t-11.5 -5l-13 -10q-5 -4 -13.5 -8
t-16.5 -6l-39 -11q-5 -1 -9 -5.5t-6 -9.5l-72 -338q-2 -10 7 -10l42 -9l55 257q5 22 24 34.5t40 7.5l94 -20q22 -5 34.5 -24t7.5 -40l-54 -254l32 -6q14 -2 17 0t6 16l9 40l60 284q1 4 -1.5 9.5t-6.5 8.5zM618 665q-2 -11 -5.5 -22t-7.5 -22l185 29l-158 202q-4 -2 -4 -7v-2
v-7q1 -24 0.5 -50t-2.5 -50q-1 -40 -8 -71zM906 272l-94 20q-17 3 -31.5 -6t-18.5 -26l-54 -257l-3 -14l-32 -152q-4 -18 -0.5 -35.5t13 -32t24 -24.5t32.5 -14t35.5 -0.5t32 13t25 24t14.5 32.5l33 157l2 8l54 257q3 17 -6 31.5t-26 18.5zM1242 974q-3 5 -9 9t-11 5
l-408 87q-5 1 -12 -0.5t-12 -4.5l-40 -26q2 -6 3 -10q2 -11 -7 -21q-8 -10 -21 -10q-11 0 -18 6l-5 5l-112 -73q-8 -5 -3 -13q19 -25 29.5 -37.5t15.5 -18.5l7 -8l239 -305q3 -5 9.5 -8.5t12.5 -5.5l30 -6q6 -2 13.5 -0.5t12.5 3.5l343 181l74 38q8 5 3 12l-53 79l-1 1
l-22 34l-3 -1q-3 -1 -8 -1q-21 0 -27 21q-3 8 -0.5 15t7.5 12zM858 856q-4 -17 -13.5 -30.5t-23 -22t-30 -12t-33.5 0.5q-17 3 -31 13t-22.5 23.5t-12 30t0.5 33.5q7 34 36 53t64 11q34 -8 53 -36.5t12 -63.5zM949 548l-64 14l38 481l185 -39zM1234 776q-4 -17 -13.5 -30.5
t-23 -22t-30 -12t-33.5 0.5q-17 3 -31 13t-22.5 23.5t-12 30t0.5 33.5q7 34 36 53t64 11q34 -8 53 -36.5t12 -63.5zM783 1080q7 5 16.5 7t17.5 0l407 -87q8 -2 15.5 -7t12.5 -12l26 -40q1 0 1 0.5t1 0.5l91 26l45 12q2 1 4.5 2t4.5 2l5 2q11 4 27 10.5t37 8.5l-19 51
q-7 18 -21.5 28.5t-31.5 12.5l-338 87l-1 -1q-5 1 -16 -1l-254 -39q-12 -2 -20 -7l-92 -48l41 -34zM1540 884q-5 -1 -9.5 -1.5t-9.5 -0.5q-15 0 -30.5 3.5t-30.5 9.5t-28 12.5t-21 12.5l-20 -6l19 -49l-76 -9l50 -75q5 -8 3 -16.5t-10 -12.5l-49 -26h5l173 23q15 2 27 10.5
t19.5 20.5t9 26.5t-3.5 29.5zM1283 642q-3 -9 -8 -19q-3 -8 -6.5 -16t-6.5 -16q-12 -33 -18 -59q-5 -24 -6 -45l56 -51l-48 -21q3 -16 0 -31l-20 -96q-2 -7 -6 -16t-9 -16q-2 -4 -4 -6q-2 -4 -5.5 -8t-6.5 -9l259 116q18 8 28.5 22.5t13.5 31.5t-2.5 34.5t-19.5 30.5z
M602 890l-24 32q-6 8 -5 16.5t9 13.5l111 70l-45 37l-101 -53q-23 -12 -31 -37.5t5 -48.5q11 -23 34.5 -31.5t46.5 1.5zM1072 591l157 -75q1 5 1.5 9.5t1.5 9.5q2 13 7 28l11 33q3 8 6.5 15.5t6.5 16.5q6 14 11.5 27t11.5 26q2 5 4 8.5t4 8.5l4 6q1 2 0.5 3.5t-0.5 3.5z
M1341 900l-30 -8l15 -23zM1202 265q4 5 7.5 12.5t4.5 14.5l20 96q3 14 0 28v1q0 1 -0.5 1.5t-0.5 1.5q-2 8 -3 13q-3 17 -3.5 34t0.5 35l-169 81l-97 -51q-7 -4 -16.5 -5.5t-17.5 0.5l-30 6q-8 2 -16 7.5t-13 11.5l-70 88v-2l-199 -30q-1 -2 -1 -3t-1 -3q-5 -9 -9.5 -17
t-9.5 -16l-6 -9q-2 -2 -2 -3q-4 -5 -7.5 -12.5t-4.5 -13.5l-20 -96q-2 -6 -2 -14.5t1 -14.5q0 -2 1 -3q0 -6 1 -8q3 -14 6 -30q9 -45 21 -91q5 -17 10 -31t10 -27q5 -15 14.5 -33.5t20.5 -39.5q4 -7 7 -13.5t7 -13.5q3 -6 6.5 -12t6.5 -11l58 271q2 8 8.5 15t14.5 9l39 10
q6 2 13.5 5.5t12.5 7.5l13 9q15 11 34 8l96 -21q8 -2 15.5 -8t11.5 -12l8 -14q3 -5 8.5 -11.5t10.5 -10.5l29 -24q7 -5 10 -14.5t1 -17.5l-57 -271q5 5 10.5 9t10.5 8q3 2 5.5 4t5.5 4q25 20 44 35.5t30 26.5q9 9 20.5 22t25.5 30q2 4 5.5 7.5t6.5 8.5q11 14 22.5 28.5
t22.5 30.5q4 5 7.5 10t7.5 9q1 4 4 8zM1287 1503q36 0 68 -14t56 -38t38 -56t14 -68t-14 -68t-38 -56t-56 -38t-68 -14t-68 14t-56 38t-38 56t-14 68t14 68t38 56t56 38t68 14z" />
  </g>

</svg>
