<?xml version="1.0" standalone="no"?>
<!DOCTYPE svg PUBLIC "-//W3C//DTD SVG 1.1//EN" "http://www.w3.org/Graphics/SVG/1.1/DTD/svg11.dtd" >
<svg viewBox="0 -410 2052 2048">
  <g transform="matrix(1 0 0 -1 0 1638)">
   <path fill="currentColor"
d="M2044 558q1 -1 3 -1q2 -1 5 -1v-966h-2048q0 181 -0.5 319t-1 240t-1 172t-0.5 116q-1 107 -1 123q4 3 7.5 6t8.5 7q13 11 25 22t23 22l15 15l16.5 16.5t14.5 15.5q9 11 17 21.5t16 22.5q3 5 5.5 9.5t5.5 9.5q2 2 5.5 8t4.5 8q6 9 10 17q6 9 12 18.5t13 18.5q44 61 80 51
q15 -4 28.5 -19.5t27.5 -44.5q7 -12 15 -32q2 -5 8 -18.5t8 -17.5q28 -61 77 -60.5t118 51.5q23 18 56 93q7 15 14 33.5t16 42.5q2 6 7 18.5t10 25.5t9 24.5t6 15.5q23 60 42 104.5t36.5 76t34 51t34.5 28.5q20 11 35.5 17t29.5 8.5t27.5 1.5t28.5 -5q2 -1 3 -1t3 -1
q22 -5 36.5 -6t34.5 4q17 4 32.5 14t40.5 31q1 0 3.5 2.5t4.5 3.5q5 5 8 7q21 17 39.5 27t36.5 11t36 -7.5t38 -26.5q15 -14 30.5 -34t35.5 -53t45.5 -81t61.5 -116q1 0 2 -2q20 -39 35.5 -68t28 -51.5t23 -40.5t21.5 -35q53 -88 82 -94q25 -5 41 8t37 54q20 37 35.5 51.5
t39.5 14.5q28 0 52 -33q3 -5 14.5 -24.5t26 -44.5t29.5 -49.5t25 -39.5q23 -32 45.5 -54.5t44.5 -35.5q14 -11 26 -14zM1820 810q-20 27 -38 26q-19 0 -33 -15q-11 -15 -3.5 -30t24.5 -28q10 -8 19 -14.5t19 -12.5t20.5 -12.5t24.5 -16.5q14 -11 32 -28t34 -33q-1 2 -5 6
q-11 15 -26 40t-29 50t-25 44.5t-14 23.5zM837 1206q-32 -17 -63.5 -76t-74.5 -173q7 11 16.5 21t21 16.5t25 7t28.5 -7.5q17 -10 29.5 -28.5t22.5 -40.5t18.5 -43t17.5 -35.5t19.5 -18.5t24.5 9q21 19 27 41t8.5 41.5t7.5 33.5t23 19t35 3t39.5 -13.5t53 -34t76.5 -59.5
q30 -24 46.5 -24.5t24 13.5t9.5 38t4.5 49t8.5 46.5t22 29.5q17 9 40.5 -2t49 -32.5t49.5 -48t42 -48.5q-12 23 -27 51.5l-35 66.5l-2 2q-35 67 -61 114.5t-45.5 79.5t-34.5 52t-29 33q-35 32 -62.5 29.5t-65.5 -34.5q-3 -2 -8 -7q-1 0 -2 -1q-3 -3 -6 -5q-26 -22 -43 -32.5
t-37 -15.5q-23 -5 -39.5 -4.5t-39.5 6.5q-6 2 -5 2q-27 7 -49.5 3.5t-59.5 -23.5zM278 832q-18 5 -36 -16q-2 -3 -3.5 -11t0 -18.5t7.5 -21.5t20 -21q39 -27 66.5 -45t46.5 -29q-13 14 -24 38q-2 4 -8 17.5t-8 18.5q-5 10 -8 17.5t-7 14.5q-27 52 -46 56zM1028 1160
q-23 0 -53.5 -1.5t-57.5 -1.5t-46 3t-19 12q0 18 21.5 30t70.5 3q24 -5 46.5 -7.5t44.5 0.5t43 13.5t44 32.5q22 21 40.5 31t32 10.5t23 -6t14.5 -17.5t2 -22.5t-11 -22t-19 -19.5t-22 -16q-23 -14 -65 -18t-89 -4z" />
  </g>

</svg>
