<?xml version="1.0" standalone="no"?>
<!DOCTYPE svg PUBLIC "-//W3C//DTD SVG 1.1//EN" "http://www.w3.org/Graphics/SVG/1.1/DTD/svg11.dtd" >
<svg viewBox="0 -410 2048 2048">
  <g transform="matrix(1 0 0 -1 0 1638)">
   <path fill="currentColor"
d="M160 782q0 8 4.5 11t11.5 -2l272 -170v-408l-272 -169q-7 -5 -11.5 -2.5t-4.5 10.5v730zM1869 686q8 0 13 -5.5t5 -13.5v-307q0 -8 -5 -12.5t-13 -2.5l-78 19q-8 2 -13 9t-5 15v29h-77v-292q0 -6 -4.5 -10.5t-11.5 -4.5h-1043q-16 0 -16 15v100h-154v384h1h153v100
q0 6 4.5 10.5t11.5 4.5h45q16 -18 35.5 -31.5t39.5 -27.5l716 -465q18 -13 41 -13t40.5 14t23.5 35l1 4q1 0 1 3l89 481h11q16 0 16 -15v-61h77v19q0 8 5.5 13.5t13.5 5.5h77zM938 196h-250v-19h250v19zM938 273h-250v-19h250v19zM938 350h-250v-19h250v19zM710 724
q-37 36 -58.5 83.5t-21.5 103.5q0 53 20.5 100t55.5 82t82.5 55.5t101.5 20.5t101 -20.5t82 -55.5t55.5 -82t20.5 -100q0 -56 -21.5 -103.5t-58.5 -83.5h1q-35 -34 -81 -53.5t-99 -19.5q-54 0 -100 19.5t-81 53.5h1zM774 763q0 -17 11 -28t28 -11q16 0 27 11t11 28
q0 16 -11 27t-27 11q-17 0 -28 -11t-11 -27zM928 763q0 -17 11 -28t27 -11q17 0 28 11t11 28q0 16 -11 27t-28 11q-16 0 -27 -11t-11 -27zM1043 955q-16 0 -27 -11t-11 -28q0 -16 11 -27t27 -11q17 0 28 11t11 27q0 17 -11 28t-28 11zM966 1108q-16 0 -27 -10.5t-11 -27.5
t11 -27.5t27 -10.5q17 0 28 10.5t11 27.5t-11 27.5t-28 10.5zM890 955q-17 0 -28 -11t-11 -28q0 -16 11 -27t28 -11q16 0 27 11t11 27q0 17 -11 28t-27 11zM813 1108q-17 0 -28 -10.5t-11 -27.5t11 -27.5t28 -10.5q16 0 27 10.5t11 27.5t-11 27.5t-27 10.5zM736 955
q-17 0 -27.5 -11t-10.5 -28q0 -16 10.5 -27t27.5 -11t27.5 11t10.5 27q0 17 -10.5 28t-27.5 11zM1246 724q-36 36 -57 83.5t-21 102.5q0 54 20.5 101t55.5 82.5t82 56.5t101 21t101 -20t82 -55.5t55.5 -82.5t20.5 -101q0 -49 -17 -92.5t-46.5 -77.5t-69.5 -56.5t-87 -29.5
h-2q-6 -2 -10 -2q-2 -1 -6 -1q-2 -1 -7 -1h-13h-14h-4q-2 0 -4 0.5t-4 0.5t-3.5 0.5t-3.5 0.5t-3 0.5t-3 0.5q-3 1 -8 1q-2 0 -2.5 0.5t-2.5 0.5q-3 0 -9 2q-1 0 -1.5 0.5t-2.5 0.5t-4 0.5t-5 1.5h-1q-1 0 -2 1l-9 3q-1 0 -1.5 0.5t-1.5 0.5q-6 2 -9 4q-1 0 -1 0.5t-1 0.5
q-3 1 -5.5 2t-4.5 2l-1 1q-2 2 -5 2.5t-6 2.5t-6 3t-5 3l-5 2.5t-5 3.5q-21 13 -39 30zM1312 763q0 -17 11 -28t27 -11q17 0 28 11t11 28q0 16 -11 27t-28 11q-16 0 -27 -11t-11 -27zM1466 763q0 -17 10.5 -28t27.5 -11t27.5 11t10.5 28q0 16 -10.5 27t-27.5 11t-27.5 -11
t-10.5 -27zM1581 955q-17 0 -28 -11t-11 -28q0 -16 11 -27t28 -11q16 0 27 11t11 27q0 17 -11 28t-27 11zM1504 1108q-17 0 -27.5 -10.5t-10.5 -27.5t10.5 -27.5t27.5 -10.5t27.5 10.5t10.5 27.5t-10.5 27.5t-27.5 10.5zM1427 955q-16 0 -27 -11t-11 -28q0 -16 11 -27
t27 -11q17 0 28 11t11 27q0 17 -11 28t-28 11zM1350 1108q-16 0 -27 -10.5t-11 -27.5t11 -27.5t27 -10.5q17 0 28 10.5t11 27.5t-11 27.5t-28 10.5zM1274 955q-17 0 -28 -11t-11 -28q0 -16 11 -27t28 -11q16 0 27 11t11 27q0 17 -11 28t-27 11zM1514 206q-17 0 -30 10
q-18 15 -18 38q0 20 14 34t34 14t34 -14t14 -34q0 -2 -0.5 -3.5t-0.5 -3.5l-1 -3q-4 -17 -16.5 -27.5t-29.5 -10.5zM1570 292q-9 13 -23.5 21t-32.5 8q-27 0 -47 -19.5t-20 -47.5q0 -6 2 -14l-612 397q13 -3 26 -4t27 -1q63 0 116 25t92 67h123q38 -42 91.5 -67t115.5 -25
t115.5 25t91.5 67h15z" />
  </g>

</svg>
