<?xml version="1.0" standalone="no"?>
<!DOCTYPE svg PUBLIC "-//W3C//DTD SVG 1.1//EN" "http://www.w3.org/Graphics/SVG/1.1/DTD/svg11.dtd" >
<svg viewBox="0 -410 2048 2048">
  <g transform="matrix(1 0 0 -1 0 1638)">
   <path fill="currentColor"
d="M1603 1036q1 -4 1 -7.5t2 -7.5l-1 -617q0 -30 -11.5 -59.5t-32 -55t-48 -45t-59.5 -30.5q-42 -14 -83.5 -14.5t-76.5 10.5t-62 34t-39 55t-7 65.5t24.5 64t51.5 55.5t74 40q26 9 51.5 13.5t50.5 6.5q20 4 34 12t23 22t13 36.5t4 54.5v237v60l-648 -146l-1 -581
q0 -30 -11.5 -59.5t-31.5 -55t-47.5 -45t-59.5 -30.5q-42 -14 -83.5 -14.5t-77 10.5t-62.5 34t-39 55t-7 66t24.5 64.5t51.5 55t74 39.5q26 9 51.5 13.5t49.5 6.5q20 4 34.5 12t23.5 22.5t13 37t4 54.5v351v15v149q-2 21 9 37.5t31 21.5l731 165q21 5 38.5 -6.5t22.5 -32.5
q3 -8 1 -17v-152zM863 925l648 147v58v1l-648 -147v-59z" />
  </g>

</svg>
