<?xml version="1.0" standalone="no"?>
<!DOCTYPE svg PUBLIC "-//W3C//DTD SVG 1.1//EN" "http://www.w3.org/Graphics/SVG/1.1/DTD/svg11.dtd" >
<svg viewBox="0 -410 2048 2048">
  <g transform="matrix(1 0 0 -1 0 1638)">
   <path fill="currentColor"
d="M626 997q-3 -3 -4 -2q-2 -1 -6 1q-3 3 -3 8l-11 69v7q0 3 3 5q3 3 5 3h4q2 0 4 -2l3 -3q2 -3 3 -4l44 -48l-9 53q0 7 1 8q1 2 6 4q2 0 6 -2q1 0 3 -7l11 -71q3 -12 -8 -14h-4q-2 0 -4 2q-3 0 -4 3q-3 1 -4 4l-43 47l8 -53q1 -4 -1 -8zM1252 1109l-246 -39l-2 13l246 39z
M1246 1189l2 -13l-247 -39l-2 13zM695 1089q-1 4 0 7q1 1 1.5 2t1.5 2q2 1 3.5 1t3.5 1l48 8q3 1 7 -1q3 -2 3 -5q0 -4 -1 -5q-3 -3 -7 -3l-41 -7l3 -22l38 6q3 1 7 -1q3 0 3 -4q0 -2 -2 -6q-2 -3 -5 -3l-39 -7l4 -25l43 6q3 1 7 -1q3 0 3 -4t-2 -6q-2 -3 -6 -3l-50 -8
q-6 0 -8 1q-4 3 -4 8zM773 1100q-3 4 -3 8t2 6q3 3 6 3t7 -2l2 -4t3 -5l20 -51l5 51q1 3 1 5t1 4q1 1 1 2.5t2 2.5q2 2 7 4q6 0 7 -1q4 -2 4 -4q1 -2 2 -3.5t2 -4.5l22 -47l3 54q0 2 0.5 3.5t0.5 2.5q0 3 2 5q0 3 4 3q5 0 7 -2q1 -2 2 -3t1 -3v-8l-6 -63v-9q0 -3 -3 -6
q-1 -1 -6 -3t-7 1q-4 0 -4 4q-3 3 -4 8l-24 52l-6 -56l-1.5 -6t-0.5 -4q0 -4 -2 -6l-6 -3q-4 -1 -6 0t-4 3q-1 0 -3 5l-3 6zM904 1096q-2 2 -3.5 5t-2.5 6q-2 8 1 13q2 3 4.5 6t6.5 5q3 2 7.5 3.5t9.5 1.5q9 1 15 0q5 0 11 -4q2 -1 3.5 -2.5l3.5 -3.5q3 -3 3 -7q0 -5 -1 -7
q-2 -1 -3 -2t-3 -1q-3 0 -5 1q-2 2 -4 5l-3.5 3.5l-3.5 3.5q-3 3 -11 1t-11 -5q-5 -4 -4 -8q2 -4 3 -5t2 -1t3 -1q2 -2 5 -2q2 0 4 -0.5t5 -0.5q10 0 14 -1l12 -3q3 -2 8 -7q1 -2 2 -4.5t2 -6.5q0 -10 -2 -15q-3 -6 -10 -12q-9 -6 -19 -7q-13 -1 -23 2q-8 4 -11 8
q-5 6 -6 11q0 5 2 7q3 3 5 3q2 1 6 -1q1 -1 4 -5q2 -2 2.5 -3.5t2.5 -2.5q1 -1 6 -4q4 -1 10 0q10 2 13 5q2 3 3 5.5t0 5.5q-2 4 -4 7q-2 2 -4 2t-4 1q-6 2 -12 2q-5 0 -9 0.5t-8 1.5q-8 2 -12 7zM1276 962l-363 -57l-2 12l363 58zM1287 732l-327 -52l-2 13l327 51z
M1314 658l-343 -55l-2 13l343 55zM923 829l-2 12l349 56l2 -13zM939 760l-2 13l338 53l2 -12zM1377 164l-174 -28l-28 176l174 27zM1341 412l-611 -97l-2 13l611 97zM1495 138l14 -59l-837 -133l-15 422l-172 767l785 242l-19 -121l71 12l25 -476l36 -160l181 -470z
M1477 100l-156 689l-24 449l-782 -124l167 -742l14 -396zM734 139l-2 13l394 62l2 -13zM1328 493l-611 -97l-2 13l611 97zM724 224l393 63l2 -13l-393 -62zM934 597l-247 -39l-69 314l247 38zM701 490l612 97l2 -13l-612 -96zM1260 1064l4 -26l-643 -101l-4 25zM746 64
l-2 13l167 26l2 -12z" />
  </g>

</svg>
