<?xml version="1.0" standalone="no"?>
<!DOCTYPE svg PUBLIC "-//W3C//DTD SVG 1.1//EN" "http://www.w3.org/Graphics/SVG/1.1/DTD/svg11.dtd" >
<svg viewBox="0 -410 2048 2048">
  <g transform="matrix(1 0 0 -1 0 1638)">
   <path fill="currentColor"
d="M1024 1382q106 0 204 -27.5t183.5 -77.5t155.5 -120t120 -155.5t77.5 -183.5t27.5 -204t-27.5 -204t-77.5 -183.5t-120 -155.5t-155.5 -120t-183.5 -77.5t-204 -27.5t-204 27.5t-183.5 77.5t-155.5 120t-120 155.5t-77.5 183.5t-27.5 204t27.5 204t77.5 183.5t120 155.5
t155.5 120t183.5 77.5t204 27.5zM1024 1286q-131 0 -247.5 -47t-206 -129t-146.5 -193t-69 -239h1338q-12 128 -69 239t-146.5 193t-206 129t-247.5 47zM1024 -58q134 0 253 49t209 134.5t145.5 201t63.5 247.5h-1341q5 -88 31.5 -169.5t71.5 -151.5t105.5 -127.5t133 -98
t155.5 -63t173 -22.5z" />
  </g>

</svg>
