<?xml version="1.0" standalone="no"?>
<!DOCTYPE svg PUBLIC "-//W3C//DTD SVG 1.1//EN" "http://www.w3.org/Graphics/SVG/1.1/DTD/svg11.dtd" >
<svg viewBox="0 -410 2048 2048">
  <g transform="matrix(1 0 0 -1 0 1638)">
   <path fill="currentColor"
d="M1800 1406q16 0 16 -16v-1552q0 -16 -16 -16h-1552q-16 0 -16 16v1552q0 16 16 16h1552zM1784 1358q0 16 -16 16h-1488q-16 0 -16 -16v-1488q0 -16 16 -16h1488q16 0 16 16v1488zM1744 1350q16 0 16 -16v-1440q0 -16 -16 -16h-1440q-16 0 -16 16v1440q0 16 16 16h1440z
M412 -50q14 14 17.5 29.5t-10.5 29.5t-29.5 10.5t-29.5 -17.5q-5 -7 -12 -19q-6 -11 -14 -29t-17 -47q29 9 47 17t29 14q12 7 19 12zM419 1219q14 14 10.5 29.5t-17.5 29.5q-7 5 -19 12q-11 6 -29 13.5t-47 17.5q9 -29 17 -47t14 -29q7 -12 12 -19q14 -14 29.5 -17.5
t29.5 10.5zM1600 1190h-1152v-1152h1152v1152zM1636 -50q7 -5 19 -12q11 -6 29 -14t47 -17q-10 29 -17.5 47t-13.5 29q-7 12 -12 19q-14 14 -29.5 17.5t-29.5 -10.5t-10.5 -29.5t17.5 -29.5zM1688 1226q5 7 12 19q6 11 13.5 29t17.5 47q-29 -10 -47 -17.5t-29 -13.5
q-12 -7 -19 -12q-14 -14 -17.5 -29.5t10.5 -29.5t29.5 -10.5t29.5 17.5zM671 316l299 298l-299 298l55 55l298 -299l298 299l55 -55l-299 -298l299 -298l-55 -55l-298 299l-298 -299z" />
  </g>

</svg>
