<?xml version="1.0" standalone="no"?>
<!DOCTYPE svg PUBLIC "-//W3C//DTD SVG 1.1//EN" "http://www.w3.org/Graphics/SVG/1.1/DTD/svg11.dtd" >
<svg viewBox="0 -410 2048 2048">
  <g transform="matrix(1 0 0 -1 0 1638)">
   <path fill="currentColor"
d="M1027 1438q114 0 219 -29.5t196.5 -83t167 -129t129 -167t83 -196.5t29.5 -219t-29.5 -219t-83 -196.5t-129 -167t-167 -129t-196.5 -83t-219 -29.5t-219 29.5t-196.5 83t-167 129t-129 167t-83 196.5t-29.5 219t29.5 219t83 196.5t129 167t167 129t196.5 83t219 29.5z
M1578 68q106 106 165.5 245.5t59.5 300.5q0 107 -27.5 206.5t-78 185.5t-121.5 157t-157 121.5t-185.5 78t-206.5 27.5q-161 0 -300 -60t-245 -164l203 -203q-2 -3 -5 -6q-16 -17 -29 -29l-202 203q-93 -103 -145.5 -235.5t-52.5 -281.5q0 -107 27.5 -206.5t78 -185.5
t121.5 -157t157 -121.5t185.5 -78t206.5 -27.5q150 0 281.5 52t235.5 145l-178 174l24 46zM888 673q8 0 14.5 -6t6.5 -15q0 -8 -6.5 -14t-14.5 -6h-9q-1 -15 -10.5 -24.5t-23.5 -9.5t-24 9.5t-11 24.5h-8q-9 0 -15 6t-6 14q0 9 6 15t15 6h86zM1078 465q5 -1 8 -5t1 -9
q-1 -5 -5 -8t-9 -1q-29 8 -56 8.5t-50 -4.5q-10 -2 -12 -2t-2.5 -0.5t-1.5 -0.5q-5 -2 -9 0t-6 7t0.5 9t7.5 6q2 1 7 2t11 2q26 5 55.5 4.5t60.5 -8.5zM1410 879q25 -23 60 -32.5t67.5 -17.5t55 -21.5t22.5 -44.5q0 -26 -17.5 -39t-48 -18t-73 -3t-93.5 7l79 -295l-52 49
l-23 -202l-25 43q-8 -29 -27 -69q-17 -34 -46.5 -82.5t-78.5 -111.5l-42 46l-140 -96l-150 96l-65 -46q-44 69 -71.5 119.5t-43.5 84.5q-18 40 -27 67l-30 -52l-23 203l-52 -50l80 304q-45 -3 -83 -3t-65.5 4.5t-43 15t-15.5 28.5q0 34 20.5 50t50.5 26t64.5 20.5t63.5 34.5
q21 17 48 46.5t56.5 62t60.5 64.5t62.5 54.5t61 31.5t56.5 -4q7 -4 14 -15q6 -9 14 -25t16 -43q4 25 11 40.5t13 25.5q7 11 15 17q26 15 55.5 6t60.5 -32.5t62.5 -57t61 -68.5t56 -67t48.5 -51zM1098 711l96 20q-65 6 -131 9l35 -35v6zM1005 911l-76 -57q-10 -7 -3 -17
q3 -4 8 -4.5t9 2.5l81 61l81 -61q4 -3 9 -2.5t8 4.5q7 10 -3 17l-76 57l76 57q10 7 3 16q-3 5 -8 5.5t-9 -2.5l-81 -62l-81 62q-4 3 -9 2.5t-8 -5.5q-7 -9 3 -16zM1009 432q21 0 39 -2.5t31.5 -3t21.5 2t8 13.5q0 21 -29 35.5t-71 14.5t-71 -14.5t-29 -35.5q0 -10 8 -13
t21.5 -2t31.5 3t39 2zM1028 548q63 -1 120 -10.5t103 -21.5l-49 49q-4 -1 -11 -1q-32 0 -54 22.5t-22 53.5q0 9 1 12l-87 88h-3q-45 0 -90.5 -2t-90.5 -5l91 -20v-29l-194 20l36 24q-14 -1 -26.5 -1.5t-25.5 -2.5l-67 -152l13 -90q10 4 36 13t64.5 19.5t86 19.5t100.5 13
q-16 11 -20 25.5t7 30.5q13 17 32 19q15 1 31 -6v14q0 12 12 12q5 0 8.5 -3.5t3.5 -8.5l-1 -34q0 -8 -6.5 -11t-12.5 2q-1 0 -1.5 0.5t-1.5 0.5q-3 2 -7 4q-12 8 -23 6q-10 -2 -15 -10q-8 -11 10 -24q11 -6 24.5 -10.5t23.5 -4.5q3 0 5 -1zM1327 716q-17 2 -35 4l-36 4
l34 -23l-172 -17l12 -12q11 6 26.5 7t34.5 1q16 0 29.5 -0.5t24 -4t16.5 -11.5t6 -24q0 -21 -11 -38.5t-29 -27.5l70 -70q20 -7 35 -12t23 -8l12 88z" />
  </g>

</svg>
