<?xml version="1.0" standalone="no"?>
<!DOCTYPE svg PUBLIC "-//W3C//DTD SVG 1.1//EN" "http://www.w3.org/Graphics/SVG/1.1/DTD/svg11.dtd" >
<svg viewBox="0 -410 2048 2048">
  <g transform="matrix(1 0 0 -1 0 1638)">
   <path fill="currentColor"
d="M1567 1157q75 -75 125 -164t75 -184.5t25 -194.5t-25 -194.5t-75 -184.5t-125 -164t-164 -125t-184.5 -75t-194.5 -25t-194.5 25t-184.5 75t-164 125t-125 164t-75 184.5t-25 194.5t25 194.5t75 184.5t125 164t164 125t184.5 75t194.5 25t194.5 -25t184.5 -75t164 -125z
M1499 1089q-93 93 -208.5 142t-237 54.5t-240 -33t-217.5 -120.5l350 -348q66 -3 129.5 -5.5t115 0.5t88 12.5t49.5 30.5q21 42 11 78q-4 15 -15 30.5t-33 28.5t-56 23.5t-83 15.5q69 2 119 -4t85 -18t56.5 -28t33.5 -33q28 -40 18 -93q-10 -37 -51.5 -59.5t-103 -34.5
t-137 -15.5t-153.5 -3.5l223 -223h294v-128h-166l172 -172q82 99 120.5 217.5t33 240t-54.5 237t-142 208.5zM549 139q95 -95 213.5 -144t243 -52.5t245 39t219.5 130.5l-247 246h-519v128h391l-225 225q-87 1 -155.5 -1.5t-98.5 -15.5q-34 -17 -52 -42q-16 -21 -18 -52.5
t30 -73.5q-23 10 -38 23t-24 28t-12.5 30.5t-3.5 30.5q-1 34 14 72q11 23 37.5 38t64 23.5t83.5 12t97 3.5l-272 273q-88 -99 -130.5 -219.5t-39 -245t52.5 -243t144 -213.5zM624 486h64v-128h-64v128zM576 486h32v-128h-32v128z" />
  </g>

</svg>
