<?xml version="1.0" standalone="no"?>
<!DOCTYPE svg PUBLIC "-//W3C//DTD SVG 1.1//EN" "http://www.w3.org/Graphics/SVG/1.1/DTD/svg11.dtd" >
<svg viewBox="0 -410 2048 2048">
  <g transform="matrix(1 0 0 -1 0 1638)">
   <path fill="currentColor"
d="M1567 1157q75 -75 125 -164t75 -184.5t25 -194.5t-25 -194.5t-75 -184.5t-125 -164t-164 -125t-184.5 -75t-194.5 -25t-194.5 25t-184.5 75t-164 125t-125 164t-75 184.5t-25 194.5t25 194.5t75 184.5t125 164t164 125t184.5 75t194.5 25t194.5 -25t184.5 -75t164 -125z
M1499 1089q-93 93 -208.5 142t-237 54.5t-240 -33t-217.5 -120.5l946 -946q82 99 120.5 217.5t33 240t-54.5 237t-142 208.5zM549 139q95 -95 213.5 -144t243 -52.5t245 38.5t219.5 130l-948 949q-88 -99 -130.5 -219.5t-39 -245t52.5 -243t144 -213.5z" />
  </g>

</svg>
