<?xml version="1.0" standalone="no"?>
<!DOCTYPE svg PUBLIC "-//W3C//DTD SVG 1.1//EN" "http://www.w3.org/Graphics/SVG/1.1/DTD/svg11.dtd" >
<svg viewBox="0 -410 2048 2048">
  <g transform="matrix(1 0 0 -1 0 1638)">
   <path fill="currentColor"
d="M1653 1172q8 0 13.5 -6t5.5 -14v-1305q0 -8 -5.5 -13.5t-13.5 -5.5h-1143q-8 0 -13.5 5.5t-5.5 13.5v96h-96q-8 0 -13.5 5.5t-5.5 13.5v1306q0 8 5.5 13.5t13.5 5.5h212q1 22 8 42t18 35t26.5 24t33.5 9q37 0 60 -32.5t25 -77.5h97q1 22 7.5 42t18 35t27 24t33.5 9
q37 0 60 -32.5t25 -77.5h99q1 22 7.5 42t17.5 35t26.5 24t33.5 9q37 0 60.5 -32.5t25.5 -77.5h222q8 0 13.5 -5.5t5.5 -13.5v-96h96zM1230 1349q-13 0 -24 -17.5t-12 -44.5h74q-2 27 -13 44.5t-25 17.5zM962 1349q-14 0 -25 -17.5t-12 -44.5h74q-2 27 -13 44.5t-24 17.5z
M693 1349q-14 0 -24.5 -17.5t-12.5 -44.5h74q-2 27 -13 44.5t-24 17.5zM414 -19h1104v1267h-320q5 -16 14 -25.5t18 -9.5q11 0 17.5 -6.5t6.5 -17.5q0 -10 -6.5 -17t-17.5 -7q-30 0 -52 24t-30 59h-219q5 -16 14 -25.5t19 -9.5t17 -6.5t7 -17.5q0 -10 -7 -17t-17 -7
q-31 0 -53 24t-30 59h-219q5 -16 14 -25.5t19 -9.5t17 -6.5t7 -17.5q0 -10 -7 -17t-17 -7q-31 0 -53 24t-30 59h-196v-1267zM1634 1133h-77v-1171q0 -8 -5.5 -13.5t-13.5 -5.5h-1008v-77h1104v1267z" />
  </g>

</svg>
