<?xml version="1.0" standalone="no"?>
<!DOCTYPE svg PUBLIC "-//W3C//DTD SVG 1.1//EN" "http://www.w3.org/Graphics/SVG/1.1/DTD/svg11.dtd" >
<svg viewBox="0 -410 2048 2048">
  <g transform="matrix(1 0 0 -1 0 1638)">
   <path fill="currentColor"
d="M1256 1117q-32 11 -42 47t8 90q6 17 17 33t25 30q11 11 24 21.5t27 17.5l6 3q3 2 9 4.5t14 7.5l3 -6l2 -4l1 -2q23 -42 25 -95q2 -34 -8 -60q-18 -54 -48.5 -76t-62.5 -11zM1600 584q1 -9 2 -15t1 -10v-7q2 -18 1 -36t-4 -36q-5 -25 -13.5 -47.5t-22.5 -40.5
q-40 -53 -82 -66.5t-73 10.5q-32 23 -30 67t42 97q9 12 20.5 22.5t24.5 19.5q50 34 108 42h5q5 0 20 3zM748 825q-13 -40 -59 -54.5t-115 8.5q-46 15 -84 53q-14 14 -27 30.5t-24 33.5q-4 7 -7 12.5t-6 11.5l-1 2q-1 2 -1.5 4t-2.5 6q5 2 7.5 4t4.5 3t4 1q54 31 121 34
q40 3 76 -9q69 -23 98.5 -60.5t15.5 -79.5zM1466 1074q103 -42 142.5 -116t0.5 -173q-38 -93 -110 -122t-166 1l33 -608l113 -109l-22 -23l-88 84l7 -125l-32 -2l-9 160l-52 50l61 -225l-31 -8l-75 276l-276 266q-69 -75 -149.5 -85t-158.5 55q-81 69 -81.5 153t70.5 169
q35 42 74.5 66.5t80.5 31t83 -6t82 -46.5q39 -32 58.5 -70t21.5 -78.5t-13.5 -82.5t-47.5 -82l240 -230l-164 602q-99 -33 -175.5 -3t-112.5 127q-36 101 6 174t146 111q51 18 97 20t85 -13t69 -47t48 -81l9 -27q45 37 106 41t130 -24zM1004 626q-8 23 -23 45t-39 41
q-47 40 -98 46q29 -38 44 -91t10 -121q26 16 52 35.5t54 44.5zM708 600q5 -2 9 -4t9 -4q38 -17 66 -4q7 32 -6 71zM761 670q-33 3 -65 0q-8 -1 -14 -1.5t-12 -0.5q1 -15 3 -29.5t5 -28.5zM690 584l-4.5 3t-3.5 1q7 -21 15.5 -40.5t19.5 -36.5q2 -5 8 -13q3 2 11 8
q18 15 32 33q5 5 8 10.5t6 10.5q-32 -5 -66 11q-8 3 -14 6.5t-12 6.5zM787 524q-7 -9 -14 -16.5t-15 -14.5q54 9 114 39q4 31 3 58.5t-6 51.5q-25 13 -59 21q13 -39 6.5 -74t-29.5 -65zM813 759q-67 -6 -124 -66q2 1 6 1q22 2 44 1.5t44 -3.5q41 -4 79 -20q-15 43 -39 75
q-3 4 -5.5 7t-4.5 5zM647 645q-47 -68 -41 -133q0 -1 1 -1l2 -1q2 -2 4.5 -2.5t5.5 -2.5q17 -7 43 -12q9 -2 19 -2.5t21 -1.5l-6 9q-19 32 -31.5 68.5t-17.5 78.5zM675 394q71 -60 141.5 -47t133.5 88q71 84 60 165q-98 -86 -186.5 -115t-165.5 -15q-14 2 -25 5.5t-22 8.5
q8 -24 24 -47t40 -43zM1584 933q-24 58 -98 98q13 -32 19 -65t7 -65q0 -10 -0.5 -17.5t-1.5 -15.5q27 14 48 35q12 10 20 22q3 3 4 5t2 3zM1346 826q24 1 45 4t41 8q7 2 13.5 3.5t12.5 3.5q-15 3 -30 9q-38 15 -63 43.5t-32 72.5q-24 -20 -42 -46q18 -47 55 -98zM1454 1040
q-1 -1 -2.5 -1.5t-2.5 -1.5q-16 -5 -28 -12q-23 -12 -47 -25l101 -15q-4 14 -9 27.5t-12 27.5zM1385 912q32 3 61 40l4 6l4 6l-97 13q4 -38 28 -65zM1464 938q-13 -17 -27 -28.5t-31 -16.5q13 -9 32 -17q9 -4 18.5 -6t18.5 -4q3 -1 5.5 -1.5t5.5 -0.5v4q1 8 1 16v17
q0 16 -2 31.5t-5 31.5q-2 -2 -2 -4q-3 -6 -6 -11.5t-8 -10.5zM1427 1054q-42 14 -79 13t-68 -15q-3 -12 -3 -27q-2 -35 7 -71q11 12 23 23.5t26 22.5q35 28 77 47q5 2 9 3.5t8 3.5zM1253 1035q-39 -29 -61 -83q-22 -55 -14 -105q38 -10 72 -14.5t66 -6.5q-37 53 -51.5 103
t-12.5 96q0 2 0.5 5t0.5 5zM1191 1073q-9 25 -21.5 44.5t-27.5 34.5v-8q-2 -25 -9.5 -51.5t-21.5 -55.5q-20 -41 -59 -85q26 0 53 1.5t57 6.5q0 1 0.5 1.5t0.5 1.5q8 19 18 35.5t21 30.5l-4 22t-7 22zM895 998q0 -1 -1 -2q3 0 6 0.5t6 0.5q18 3 35.5 8.5t32.5 16.5
q-23 9 -40 29q-15 15 -24 33q-2 3 -3 6t-3 6q-8 -34 -10 -68v-15.5t1 -14.5zM932 1171q-5 -11 -9.5 -21t-9.5 -21q-2 -4 -4 -12l101 11q-6 4 -10 7q-14 8 -27 15.5t-27 13.5q-4 2 -7.5 3.5t-6.5 3.5zM998 1041q23 25 31 64l-97 -10q5 -8 9.5 -15t10.5 -13q11 -11 22 -17.5
t24 -8.5zM1000 1011q-17 -14 -37 -22.5t-41 -12.5q43 -16 98 -21q45 45 69 93q1 2 1 4q-15 24 -39 45q-10 -53 -51 -86zM1118 1170q-64 38 -157 14q13 -6 26.5 -13.5t26.5 -15.5q56 -35 88 -79q7 18 10.5 35.5t5.5 34.5v24zM902 1163q-76 -36 -104 -94q2 -2 5 -8
q4 -5 8.5 -10.5t10.5 -10.5q10 -11 22 -21t26 -18v29q2 26 6.5 52.5t14.5 54.5q2 7 5 13t6 13zM800 932q32 -88 99 -112t160 9q26 9 47.5 21.5t39.5 26.5q0 26 8 58q-78 -11 -141 -4.5t-115 29.5q-29 12 -52 28t-40 34q-5 5 -9 9.5t-7 8.5q-12 -49 10 -108zM1332 88l-32 586
h4q-66 26 -105.5 69t-50.5 97q-14 -9 -28.5 -17.5t-31.5 -15.5l178 -656zM1578 796q24 59 16 108q-4 -5 -8.5 -10t-10.5 -10q-25 -23 -59 -41.5t-78 -29.5q-53 -13 -115.5 -11.5t-136.5 18.5q29 -76 131 -117q91 -37 159 -15t102 108z" />
  </g>

</svg>
