<?xml version="1.0" standalone="no"?>
<!DOCTYPE svg PUBLIC "-//W3C//DTD SVG 1.1//EN" "http://www.w3.org/Graphics/SVG/1.1/DTD/svg11.dtd" >
<svg viewBox="0 -410 2048 2048">
  <g transform="matrix(1 0 0 -1 0 1638)">
   <path fill="currentColor"
d="M1024 590q107 0 206 -10t185 -28t156.5 -43.5t121 -56t78 -66.5t27.5 -74t-27.5 -73t-78 -66t-121 -56t-156.5 -43t-185 -28t-206 -10t-206 10t-185 28t-156.5 43t-121 56t-78 66t-27.5 73t27.5 74t78 66.5t121 56t156.5 43.5t185 28t206 10zM338 326q0 -38 42 -74.5
t114 -65t168.5 -45.5t205.5 -17q-126 15 -213.5 40.5t-141 56.5t-75 65.5t-16.5 68t34.5 63.5t78.5 53q-91 -26 -144 -63.5t-53 -81.5z" />
  </g>

</svg>
