<?xml version="1.0" standalone="no"?>
<!DOCTYPE svg PUBLIC "-//W3C//DTD SVG 1.1//EN" "http://www.w3.org/Graphics/SVG/1.1/DTD/svg11.dtd" >
<svg viewBox="0 -410 2048 2048">
  <g transform="matrix(1 0 0 -1 0 1638)">
   <path fill="currentColor"
d="M1596 924q15 -21 24.5 -45t9.5 -52v-717q0 -32 -12.5 -60.5t-33.5 -49.5t-49.5 -33t-60.5 -12h-898q-32 0 -60.5 12t-49.5 33t-33 49.5t-12 60.5v716q0 59 37 101l91 133q8 11 23.5 19.5t29.5 8.5h91l27 65q2 5 6.5 5.5t6.5 -4.5l2 -4l9 -12q15 -19 37 -37l8 -6t9 -6h100
q-36 35 -41 73.5t32 76.5q36 38 70 30t59 -53q13 -22 21.5 -49t11.5 -51q7 18 14.5 35.5t16.5 34.5q34 66 76.5 98t94.5 16q52 -17 62.5 -52t-21.5 -80q-15 -21 -38 -41.5t-52 -38.5h152q6 8 10 0h83q14 0 30 -8t24 -20zM727 1134q-6 -14 -12 -28.5t-12 -29.5q-1 -2 -2 -4.5
t0 -4.5q2 -6 5 -8q30 -33 69.5 -52.5t82.5 -25t86 4t80 34.5q3 2 7 4t8 0q2 0 4 -2l4 -4q25 -30 61 -45.5t74 -23.5q57 -11 115.5 -4.5t105.5 39.5q-11 22 -22 43l-22 42q-26 -25 -60.5 -38t-70.5 -16t-72 2t-71 13q-5 1 -8.5 3t-2.5 7q0 3 2.5 4t5.5 3q56 20 108 49t88 76
q14 17 21.5 39.5t-3.5 41.5q-10 16 -28 24q-12 6 -25 10t-27 3q-32 -2 -57.5 -24.5t-43.5 -49.5q-22 -34 -38 -70.5t-26 -75.5q-2 -10 -8 -10q-4 0 -5 4.5t-1 8.5q2 38 -7.5 74.5t-30.5 68.5q-8 14 -20.5 25t-28.5 12q-13 1 -24 -5t-20 -14q-16 -14 -26.5 -32.5t-9.5 -38.5
q2 -20 13 -36.5t26 -30.5q31 -30 66 -47q5 -2 8 -6t1 -7q-2 -2 -4.5 -2.5t-4.5 -1.5q-35 -2 -70.5 3t-68 18t-60.5 33t-49 48zM781 988q-12 6 -23 12t-22 14h-206l-17 -26h268zM1051 -46h-43v1034h-14q10 5 20.5 10.5t20.5 11.5q10 -12 22 -22h-7v-1034h1zM1539 988l-19 26
h-115l13 -26h121zM1237 1192q-4 -4 -20 -14q-14 -8 -39.5 -23t-70.5 -39q16 47 33.5 71.5t31.5 36.5q17 13 32 16q20 0 29.5 -5.5t11.5 -13.5t-1 -16t-7 -13zM951 1201q12 0 22 -11q8 -10 14 -32t4 -66q-18 5 -31 12.5t-21 14.5q-10 8 -16 15q-8 10 -11 20.5t0 20t12.5 16.5
t26.5 10z" />
  </g>

</svg>
