<?xml version="1.0" standalone="no"?>
<!DOCTYPE svg PUBLIC "-//W3C//DTD SVG 1.1//EN" "http://www.w3.org/Graphics/SVG/1.1/DTD/svg11.dtd" >
<svg viewBox="0 -410 2048 2048">
  <g transform="matrix(1 0 0 -1 0 1638)">
   <path fill="currentColor"
d="M1632 998q33 0 62 -12.5t51 -34.5t34.5 -51t12.5 -62v-640q0 -33 -12.5 -62t-34.5 -51t-51 -34.5t-62 -12.5h-1216q-33 0 -62 12.5t-51 34.5t-34.5 51t-12.5 62v640q0 33 12.5 62t34.5 51t51 34.5t62 12.5h1216zM1616 294q-20 0 -34 -14t-14 -34t14 -34t34 -14t34 14
t14 34t-14 34t-34 14zM1536 422v416h-1152v-416h1152zM1408 310q0 16 -16 16h-224q-16 0 -16 -16v-32q0 -16 16 -16h224q16 0 16 16v32zM1024 310q0 16 -16 16h-224q-16 0 -16 -16v-32q0 -16 16 -16h224q16 0 16 16v32zM318 858q16 39 34 53.5t46 22.5q7 2 54.5 5t120 6
t162.5 6t182 6t178.5 6t152.5 5t103.5 3t31.5 1h-973q-26 0 -49.5 -10t-41 -27.5t-27.5 -41t-10 -49.5v-512q0 -12 0.5 2t2 46t3.5 77t4.5 94.5t5 100t6 93t7 73t7.5 40.5zM640 310q0 16 -16 16h-224q-16 0 -16 -16v-32q0 -16 16 -16h224q16 0 16 16v32zM1757 726
q0 12 -0.5 -2.5t-2 -46t-3.5 -76.5t-4.5 -95t-5.5 -100.5t-6 -93t-6.5 -72.5t-7.5 -40q-8 -20 -16 -33t-17.5 -21t-21 -13t-25.5 -9q-7 -2 -54.5 -5t-120 -6t-162.5 -6.5t-182 -6.5t-178.5 -5.5t-152.5 -4.5t-103.5 -3t-31.5 -1h973q26 0 49.5 10t41 27.5t27.5 41t10 49.5
v512z" />
  </g>

</svg>
