<?xml version="1.0" standalone="no"?>
<!DOCTYPE svg PUBLIC "-//W3C//DTD SVG 1.1//EN" "http://www.w3.org/Graphics/SVG/1.1/DTD/svg11.dtd" >
<svg viewBox="0 -410 2048 2048">
  <g transform="matrix(1 0 0 -1 0 1638)">
   <path fill="currentColor"
d="M1024 1382q106 0 204 -27.5t183.5 -77.5t155.5 -120t120 -155.5t77.5 -183.5t27.5 -204t-27.5 -204t-77.5 -183.5t-120 -155.5t-155.5 -120t-183.5 -77.5t-204 -27.5t-204 27.5t-183.5 77.5t-155.5 120t-120 155.5t-77.5 183.5t-27.5 204t27.5 204t77.5 183.5t120 155.5
t155.5 120t183.5 77.5t204 27.5zM1024 -58q93 0 178.5 24t160.5 68t136 105t105 136t68 160.5t24 178.5t-24 178.5t-68 160.5t-105 136t-136 105t-160.5 68t-178.5 24t-178.5 -24t-160.5 -68t-136 -105t-105 -136t-68 -160.5t-24 -178.5t24 -178.5t68 -160.5t105 -136
t136 -105t160.5 -68t178.5 -24zM1236 1054q79 -21 130 -88q53 -68 53 -177q0 -84 -30 -141t-77 -89q-48 -34 -95 -43q-32 -8 -79.5 -10.5t-110.5 -2.5h-119v-343h-183v908h293q85 0 138.5 -3.5t79.5 -10.5zM1210 716q20 29 20 70q0 50 -28 82q-30 31 -74 40q-33 6 -132 6
h-89v-258h100q109 0 145 15q37 15 58 45z" />
  </g>

</svg>
