<?xml version="1.0" standalone="no"?>
<!DOCTYPE svg PUBLIC "-//W3C//DTD SVG 1.1//EN" "http://www.w3.org/Graphics/SVG/1.1/DTD/svg11.dtd" >
<svg viewBox="0 -410 2048 2048">
  <g transform="matrix(1 0 0 -1 0 1638)">
   <path fill="currentColor"
d="M2048 550v-960h-1126q-48 33 -69.5 62t-24 53.5t10 45t33.5 36.5q48 38 142 64q87 20 181 43.5t183.5 52t169 63t138 77t89.5 94t24 113.5q-17 70 -90 123q-31 22 -77.5 43.5t-113 37t-154 24.5t-201.5 6q97 -6 170 -19.5t125.5 -31.5t87.5 -38.5t57 -40.5
q51 -48 51 -104q-5 -38 -49.5 -66.5t-116.5 -50.5t-165 -40t-195.5 -34.5t-208 -32t-202 -34.5t-178.5 -41.5t-137 -52.5q-79 -48 -117 -104q-16 -24 -25 -52.5t-4.5 -60t26 -65.5t66.5 -70h-348v960h560v208h-304l228 192h-164l216 192h-152l224 192l224 -192h-152
l216 -192h-164l185 -156l213 180h-234l296 264h-208l312 272l312 -272h-200l296 -264h-234l322 -272h-432v-152h688zM1232 702h-424l66 56h-218v-208h576v152z" />
  </g>

</svg>
