<?xml version="1.0" standalone="no"?>
<!DOCTYPE svg PUBLIC "-//W3C//DTD SVG 1.1//EN" "http://www.w3.org/Graphics/SVG/1.1/DTD/svg11.dtd" >
<svg viewBox="0 -410 2048 2048">
  <g transform="matrix(1 0 0 -1 0 1638)">
   <path fill="currentColor"
d="M1735 906q6 0 13 -2q14 -4 26 -17q-7 -8 -14 -12t-13 -6q-7 -3 -13 -3q-11 0 -20 4.5t-14 9.5q-1 0 -1.5 -0.5t-1.5 -0.5q-8 -2 -17 -3.5t-18 -3.5q7 0 17 -4q8 -4 15 -10q6 -5 12 -14.5t10 -22.5q-12 -6 -22.5 -7.5t-18.5 -0.5q-10 1 -17 4q-17 8 -25.5 22.5t-10.5 20.5
q-17 -5 -32.5 -9.5t-30.5 -10.5q11 0 23.5 -3t23.5 -11q7 -5 13 -14q5 -8 9 -19t5 -25q-15 -3 -26.5 -1.5t-19.5 4.5q-10 4 -17 9q-15 11 -20 28t-7 25q-23 -10 -45 -20.5t-43 -23.5q13 2 34 -0.5t38 -16.5q9 -8 17 -19q6 -10 11.5 -24t6.5 -33q-19 -5 -34 -3t-26 6
q-13 4 -23 12q-20 16 -26.5 38.5t-7.5 33.5q-16 -11 -30.5 -21t-28.5 -22q2 -6 2 -10q0 -5 -13 2q-7 -6 -14.5 -13t-14.5 -14q-33 -30 -58.5 -63t-45.5 -65q-8 -11 -13.5 -21.5t-10.5 -19.5q-1 -3 -2 -5l-2 -4q-4 -29 -10.5 -58t-17.5 -53q-13 -28 -40 -57t-62 -53t-76 -41
t-82 -21q-26 -45 -34 -83.5t-8 -66.5q0 -33 9 -59q-59 1 -100.5 4.5t-67.5 8.5q-31 5 -51 12l58 20l-208 79l58 9l-217 88q71 -13 128 -14.5t102.5 5.5t80 20t60.5 29q59 37 88 92l-60 -20v48h-76l30 38l-100 41l56 13q-75 18 -130 50t-90 64q-42 37 -70 79
q-34 55 -53.5 108.5t-30.5 108.5t-16 112.5t-9 119.5q35 -42 72.5 -74.5t68.5 -55.5q36 -27 70 -48q87 -53 153.5 -74.5t125.5 -29.5q1 0 -6 23t-12.5 63t-6.5 93.5t12 115t44 126.5t89 129q-10 -67 -4.5 -119.5t16.5 -89.5q12 -43 30 -76q25 -41 56 -84t56.5 -87.5
t40.5 -90t9 -89.5q27 26 53.5 40t47.5 21q25 8 46 9q40 0 61.5 -11t36.5 -28q1 -2 4 -6q4 -6 13 -23q8 -6 16 -14.5t14 -17.5q14 12 29.5 22t31.5 21l-9.5 9.5t-13 16.5t-11.5 21.5t-5 25.5q0 12 4 24q4 11 11.5 24t22.5 27q14 -13 22.5 -26t12.5 -24q4 -13 5 -25
q1 -22 -10.5 -40.5t-20.5 -27.5q41 25 89 45q-6 6 -16.5 20.5t-11.5 34.5q-1 9 3 19q2 8 8.5 18t17.5 20q11 -10 17.5 -20t9.5 -18q4 -10 4 -19q1 -17 -7 -30t-15 -21q34 13 72 24q-5 6 -11 21.5t-2 32.5q2 8 7 16q4 7 11.5 14.5t19.5 14.5q8 -11 11 -21t4 -18q1 -10 0 -18
q-3 -13 -12 -23t-16 -15q15 4 30.5 7.5t32.5 6.5h2q-2 4 -7 16t-1 26q2 6 6 12q3 5 8.5 10.5t15.5 10.5q5 -8 7.5 -16t3.5 -14q1 -7 -1 -14q-2 -6 -5 -10.5t-7 -9.5q10 4 17 4zM1337 715q6 6 12.5 11.5t12.5 10.5q-5 2 -11 4t-13 3q-7 -17 -22 -28t-31.5 -20.5t-31 -18.5
t-19.5 -21t-8 -36.5t-7 -54.5q2 5 5 9.5t6 9.5q21 34 47 67t60 64z" />
  </g>

</svg>
