<?xml version="1.0" standalone="no"?>
<!DOCTYPE svg PUBLIC "-//W3C//DTD SVG 1.1//EN" "http://www.w3.org/Graphics/SVG/1.1/DTD/svg11.dtd" >
<svg viewBox="0 -410 2048 2048">
  <g transform="matrix(1 0 0 -1 0 1638)">
   <path fill="currentColor"
d="M270 712q-49 38 -79 72t-44 60t-13.5 42.5t14.5 20.5q7 2 44.5 -13t91 -40.5t117.5 -57.5t125 -63t112.5 -58.5t80.5 -42.5q-75 -18 -129 -36t-96 -38q-57 36 -115 75.5t-109 78.5zM1076 488q136 -64 240 -114t181.5 -89t131.5 -67t90 -48q84 -47 99 -64q6 -16 -10 -29.5
t-52.5 -19t-93 -0.5t-131.5 25q-98 28 -216 69q-101 35 -236.5 89t-291.5 129zM1906 817q3 -5 0 -8.5t-8 -1.5l-315 94q-6 -40 -17 -86t-29.5 -91t-46.5 -84t-67 -64q-34 -21 -99.5 -52.5t-150.5 -66.5q-17 8 -32 15t-29 14q-7 3 -12.5 6t-10.5 5q-3 2 -8 4q-5 3 -11 0
l-289 -119q-8 -4 -8.5 -13t9.5 -14l6 -3q5 -2 10.5 -4.5t11.5 -5.5q7 -3 13.5 -6.5t14.5 -6.5q-95 -33 -187 -61t-172.5 -47.5t-144.5 -28t-101 -1.5q-50 9 -71 33t-8.5 58t60 75t134.5 85q3 3 5 4q32 27 64 49.5t61 38.5q54 29 129.5 52.5t160.5 43t173.5 37t169 35.5
t146.5 38t107 44q54 32 84 70.5t45 74.5l-321 124q-5 2 -5 7t5 7l70 25h4l269 -72v21q0 6 4 8.5t9 -0.5l65 -33q0 -3 -0.5 -6t-0.5 -6v-7l271 -114q3 0 3 -3zM354 428q3 -9 12.5 -17.5t22.5 -16.5q3 4 6 7l7 7q4 5 8.5 10t9.5 10q16 18 34 34l4 4l-1 1q-10 7 -15 12.5
t-8 10.5q-2 -2 -3 -2t-3 -2q-22 -14 -40 -28q-11 -8 -19.5 -15.5t-14.5 -14.5zM539 430q-14 4 -27 8.5t-22 9.5q-11 5 -20 11l-3.5 -3.5l-3.5 -3.5q-8 -8 -16.5 -16t-16.5 -16q-5 -6 -9 -10.5t-9 -9.5q-3 -4 -5.5 -7t-4.5 -6q23 -13 47.5 -19.5t41.5 -3.5z" />
  </g>

</svg>
