<?xml version="1.0" standalone="no"?>
<!DOCTYPE svg PUBLIC "-//W3C//DTD SVG 1.1//EN" "http://www.w3.org/Graphics/SVG/1.1/DTD/svg11.dtd" >
<svg viewBox="0 -410 2048 2048">
  <g transform="matrix(1 0 0 -1 0 1638)">
   <path fill="currentColor"
d="M1821 1090q9 0 9 -10v-353v-403v-273q0 -10 -9 -10h-1594q-9 0 -9 10v273v403v222q0 10 9 10h19v50q0 12 8.5 20.5t20.5 8.5h211q12 0 20.5 -8.5t8.5 -20.5v-50h10v50q0 12 8.5 20.5t20.5 8.5h211q12 0 20.5 -8.5t8.5 -20.5v-50h18v121q0 10 10 10h999zM1508 969h162v20
v20v40h-162v-40v-20v-20zM903 1050q-17 0 -28.5 -11.5t-11.5 -28.5t12 -28.5t28 -11.5q17 0 28.5 11.5t11.5 28.5t-11.5 28.5t-28.5 11.5zM266 959h230v50q0 10 -10 10h-211q-9 0 -9 -10v-50zM909 362q-32 43 -49.5 94.5t-17.5 109.5q0 33 5.5 63.5t16.5 59.5h-608v-327h653
zM1186 284q58 0 109.5 22t89.5 60.5t60.5 89.5t22.5 110q0 58 -22 109.5t-60.5 90t-90 60.5t-109.5 22q-59 0 -110.5 -22t-89.5 -60.5t-60.5 -90t-22.5 -109.5q0 -59 22.5 -110t60.5 -89.5t89.5 -60.5t110.5 -22zM1792 689h-286q23 -58 23 -123q0 -57 -17.5 -109t-49.5 -95
h330v327zM1518 1040h142v-30h-142v30zM1222 603l124 -37l-124 -37l-36 -125l-37 125l-125 37l125 37l37 125z" />
  </g>

</svg>
