<?xml version="1.0" standalone="no"?>
<!DOCTYPE svg PUBLIC "-//W3C//DTD SVG 1.1//EN" "http://www.w3.org/Graphics/SVG/1.1/DTD/svg11.dtd" >
<svg viewBox="0 -410 2048 2048">
  <g transform="matrix(1 0 0 -1 0 1638)">
   <path fill="currentColor"
d="M736 972q-5 0 -7.5 3.5t-2.5 8.5v115q0 11 10 11h576q5 0 7.5 -3.5t2.5 -7.5v-115q0 -12 -10 -12h-576zM1139 994h162v94h-162v-94zM746 994h162v94h-162v-94zM1751 724v-57l-93 -58l-54 115h147zM394 609l-94 58v57h148zM1037 1240h-26l13 147zM946 1203l-62 134
l84 -121zM907 1135l-121 85l134 -63zM1128 1157l134 63l-121 -85zM1102 1203l-22 13l84 121zM1722 332q5 0 8.5 -3t3.5 -8v-115q0 -5 -3.5 -7.5t-8.5 -2.5h-64v-33q0 -6 -4.5 -10.5t-10.5 -4.5h-43v-100q0 -6 -4 -10.5t-10 -4.5h-202q-6 0 -10 4.5t-4 10.5v100h-692v-100
q0 -6 -4 -10.5t-10 -4.5h-202q-6 0 -10 4.5t-4 10.5v100h-43q-6 0 -10.5 4.5t-4.5 10.5v33h-57q-11 0 -11 10v116q0 10 11 10h57v206q0 5 2 13.5t4 13.5l162 377q2 5 8 9t12 4h892q6 0 12 -4t8 -9l162 -377q2 -5 4 -13t2 -14v-206h64zM743 421q-7 0 -7 -7v-14q0 -8 7 -8h562
q7 0 7 8v14q0 7 -7 7h-562zM736 462q0 -3 2 -5.5t5 -1.5h562q7 0 7 7v14q0 8 -7 8h-562q-7 0 -7 -8v-14zM1600 480q0 14 -14 14h-202q-14 0 -14 -14v-87q0 -14 14 -14h202q14 0 14 14v87zM480 652h1084l-108 252h-871zM448 393q0 -14 14 -14h202q14 0 14 14v87q0 14 -14 14
h-202q-14 0 -14 -14v-87zM1712 310h-1368v-94h1368v94z" />
  </g>

</svg>
