<?xml version="1.0" standalone="no"?>
<!DOCTYPE svg PUBLIC "-//W3C//DTD SVG 1.1//EN" "http://www.w3.org/Graphics/SVG/1.1/DTD/svg11.dtd" >
<svg viewBox="0 -410 2048 2048">
  <g transform="matrix(1 0 0 -1 0 1638)">
   <path fill="currentColor"
d="M1326 754q37 0 69 -14t56 -38t37.5 -56t13.5 -68t-13.5 -68t-37.5 -56t-56 -38t-69 -14q-36 0 -68 14t-56 38t-38 56t-14 68t14 68t38 56t56 38t68 14zM2048 352v-10v-304h-2048v320h6q12 0 46.5 3t78 10.5t88 20.5t77.5 32q36 21 59.5 16.5t46 -18t50 -28t70.5 -14.5
q28 0 49.5 7.5t38.5 18.5t32 22.5t31 19t35 8.5t45 -9q26 -11 61 -26.5t80 -31.5l74 86l-142 233q-14 22 -9 46t25 39l276 207q21 17 47 12.5t42 -24.5q17 -22 12.5 -48t-25.5 -42l-229 -172l105 -174l208 -189l36 8t38 9q77 22 125.5 31t79.5 8.5t48 -7t30.5 -15t28 -16
t39.5 -9.5q24 -2 39.5 -2t28 1.5t24 4.5t27.5 8t39 11t59 13q39 8 63.5 5t38.5 -12t19.5 -21t6.5 -22v-1v-5z" />
  </g>

</svg>
