<?xml version="1.0" standalone="no"?>
<!DOCTYPE svg PUBLIC "-//W3C//DTD SVG 1.1//EN" "http://www.w3.org/Graphics/SVG/1.1/DTD/svg11.dtd" >
<svg viewBox="0 -410 2048 2048">
  <g transform="matrix(1 0 0 -1 0 1638)">
   <path fill="currentColor"
d="M628 789h-1h1zM707 808q2 -1 3 -2t3 -2q-2 1 -3 2t-3 2zM626 790q-5 2 -11 3t-12 3q6 -2 12 -3t11 -3zM1798 624q12 -6 12 -23l-248 -557q-7 -12 -21 -7l-854 380q-4 1 -7 6l-121 187q-4 7 -1 14l56 126q19 -5 36.5 -9t33.5 -6q4 -1 7.5 -1t6.5 -1q5 -21 19 -38t35 -27
q18 -8 37 -8t36 6.5t31 19.5t22 31t8.5 37t-6 36t-19.5 31.5t-31 22.5q-24 11 -49 8t-45 -17l-3 -3q-1 0 -3 -2l8 -8l1 -1q9 -8 15 -15l1 -1q2 -1 2.5 -2.5t2.5 -2.5q0 -1 0.5 -1t0.5 -1q3 -3 5 -6l4 -6v-2l2 -4q1 0 1 -1q1 -2 1 -5q3 -14 -6 -22.5t-25 -11.5h-9h-1h-11
q-6 0 -12 0.5t-14 1.5q-3 1 -6 1t-6 1q-28 3 -68 14q-6 2 -12.5 3.5t-12.5 3.5q0 1 -1 1q-6 2 -12 3.5t-12 3.5l-4 2q-5 2 -10.5 3.5t-10.5 3.5q-2 0 -6 2q-7 2 -13 4.5t-13 4.5q-58 22 -107 47t-86 51t-59.5 53t-26.5 54q-6 36 18 48.5t69 3.5q34 -7 79.5 -25.5t98.5 -44.5
q5 -3 11 -6t11 -6q1 0 2 -1q5 -3 10.5 -5.5t10.5 -5.5q1 -1 1.5 -1t1.5 -1q10 -4 20 -11q1 -1 1.5 -1t1.5 -1l10 -6l10 -6h1q17 -10 32.5 -19t29.5 -19q5 -4 9 -7t9 -6l5 11l32 70q3 7 11 9l221 36q4 1 9 0zM746 778q-6 13 -34 38q-1 -1 -5 -7l-1 -1q-4 -6 -5 -10
q-4 -8 -7 -22q-2 0 -3.5 0.5t-3.5 0.5q-13 2 -27.5 5t-31.5 8l12 28l17 38q-37 26 -82 53t-92 51q-52 26 -96 43.5t-76 24.5q-32 6 -47 0.5t-11 -25.5q8 -45 79 -94.5t185 -92.5q46 -17 90 -30t79 -18q16 -2 29.5 -3t21.5 1q1 0 2 0.5t2 0.5l9 2z" />
  </g>

</svg>
