<?xml version="1.0" standalone="no"?>
<!DOCTYPE svg PUBLIC "-//W3C//DTD SVG 1.1//EN" "http://www.w3.org/Graphics/SVG/1.1/DTD/svg11.dtd" >
<svg viewBox="0 -410 2048 2048">
  <g transform="matrix(1 0 0 -1 0 1638)">
   <path fill="currentColor"
d="M1632 1078q14 0 23 -9t9 -23v-704q0 -14 -9 -23t-23 -9h-325l57 -250q2 -8 -3 -14t-13 -6h-704q-8 0 -13 6t-3 14l57 250h-269q-14 0 -23 9t-9 23v704q0 14 9 23t23 9h256q14 0 23 -9t9 -23v-128q0 -14 9 -23t23 -9h16v448q0 16 16 16h344q9 0 14 -8l165 -172q3 -2 3 -4
v-1q2 -2 2 -4v-1v-2v-272h16q14 0 23 9t9 23v128q0 14 9 23t23 9h256zM1127 1174h115l-115 120v-120zM784 886h480v256h-153q-16 0 -16 16v160h-311v-432zM699 374l23 104h-66q-16 0 -16 -16v-72q0 -16 16 -16h43zM1329 72l-94 414h-477l-94 -414h665zM1344 462q0 16 -16 16
h-58l23 -104h35q16 0 16 16v72zM1600 774q0 16 -16 16h-224q-16 0 -16 -16v-160q0 -16 16 -16h224q16 0 16 16v160zM1368 758h128v-48h-128v48zM1368 678h208v-16h-208v16zM1368 646h208v-16h-208v16zM1536 758h40v-48h-40v48z" />
  </g>

</svg>
