<?xml version="1.0" standalone="no"?>
<!DOCTYPE svg PUBLIC "-//W3C//DTD SVG 1.1//EN" "http://www.w3.org/Graphics/SVG/1.1/DTD/svg11.dtd" >
<svg viewBox="0 -410 2048 2048">
  <g transform="matrix(1 0 0 -1 0 1638)">
   <path fill="currentColor"
d="M1506 629q-9 5 -18 8.5t-19 8.5v20l112 18v-42l-51 -11v-5h51v-39q-20 12 -36 21zM1580 636h206v-6h-206h-29zM1434 326q23 0 38 -16q16 -18 16 -43q0 -28 -17 -45t-42 -17q-28 0 -46 22q-17 20 -17 70q0 52 18 73q19 22 49 22q20 0 34 -12q13 -9 18 -33l-35 -4
q0 9 -6 15q-5 5 -14 5q-11 0 -19 -11q-7 -9 -9 -41q12 15 32 15zM1447 240q7 9 7 25q0 17 -8 27q-6 8 -17 8q-9 0 -17 -8q-7 -7 -7 -24q0 -18 8 -26q8 -10 18 -10q5 0 9 2.5t7 5.5zM854 360q27 0 50.5 -12t41 -32.5t27.5 -48.5t10 -60q0 -57 -29 -97q-18 -27 -45.5 -42.5
t-53.5 -15.5h-1h-40h-5q-28 2 -55.5 20t-44.5 44q-25 39 -25 90q0 32 10 60t28 49t41.5 33t50.5 12h2h35h3zM862 98q19 0 36 8.5t30 23.5t20 34.5t7 41.5t-7 41.5t-20 34.5t-30 23.5t-36 8.5t-36 -8.5t-29.5 -23.5t-19.5 -34.5t-7 -41.5t7 -41.5t19.5 -34.5t29 -23.5
t36.5 -8.5zM1817 360q27 0 50.5 -12t41 -32.5t28 -48.5t10.5 -60q0 -5 -0.5 -10.5t-0.5 -10.5l-2 -2q-1 -10 -5 -23q-12 -38 -36.5 -64.5t-53.5 -37.5q-17 -7 -36 -7h-37q-13 0 -28 5.5t-29 13.5t-25.5 18.5t-17.5 19.5q-14 20 -21.5 44.5t-7.5 52.5q0 32 10.5 60t28 49
t41 33t50.5 12h2h35h3zM1826 98q19 0 36 8.5t29.5 23.5t19.5 34.5t7 41.5t-7 41.5t-19.5 34.5t-29.5 23.5t-36 8.5q-20 0 -36.5 -8.5t-29.5 -23.5t-20 -34.5t-7 -41.5t7 -41.5t20 -34.5t29.5 -23.5t36.5 -8.5zM1955 292q6 -18 6.5 -36t-2.5 -35q-2 32 -14 59.5t-30.5 48
t-43.5 32t-53 11.5h-2h-35h-3q-30 0 -55.5 -13t-45 -35.5t-30.5 -53t-11 -64.5q0 -27 7 -52t19 -45h-692q12 20 19 45t7 52q0 34 -11 64.5t-30.5 53t-45.5 35.5t-55 13h-3h-35h-2q-30 0 -56 -13t-45.5 -35.5t-30.5 -53t-11 -64.5q0 -47 22 -88l-462 91l-1 59q2 2 3 3.5
t2 3.5q7 9 18 21q31 36 74 67q54 38 117.5 62t139.5 31q36 4 68.5 5t65 -0.5t67.5 -6t77 -10.5q27 -4 43.5 -6t27.5 -3.5t19 -2.5t19 -2q40 -4 75.5 -1.5t72.5 10.5q12 3 22.5 5.5t23.5 6.5t31.5 10t48.5 16q37 13 67.5 22t57 14.5t50.5 8.5t50 3q66 2 131 -17.5t134 -62.5
q4 -2 8 -5q2 -1 3.5 -2t3.5 -2q4 -3 9 -5.5t7 -4.5q9 -7 18 -11q4 -2 7.5 -4t6.5 -4q25 -14 69 -31q42 -17 67 -47v-1q2 -2 4 -4.5t4 -4.5q9 -14 13 -27zM841 436h10t15 1q-8 2 -13 3l-10 2t-9 1q-134 5 -237 -17.5t-180 -65.5q-48 -28 -81 -59q-5 -5 -14 -12.5t-10 -8.5
h-58l-4 -2q-1 -1 -1 -2l-2 -2q-1 -1 -3 -5l75 -1l19 19q4 4 6 5q30 30 78 57q75 43 179 61.5t233 25.5h7zM1427 174q25 0 47.5 9.5t39.5 26.5t26.5 39t9.5 48q0 25 -9.5 47.5t-26.5 39.5t-39.5 26.5t-47.5 9.5q-26 0 -48 -9.5t-39 -26.5t-26.5 -39.5t-9.5 -47.5
q0 -26 9.5 -48t26.5 -39t39 -26.5t48 -9.5zM1826 302q33 0 56.5 -28t23.5 -68t-23.5 -68t-56.5 -28q-17 0 -31.5 7.5t-25.5 20.5t-17.5 30.5t-6.5 37.5q0 40 23.5 68t57.5 28zM862 302q34 0 57.5 -28t23.5 -68q0 -20 -6.5 -37.5t-17.5 -30.5t-26 -20.5t-31 -7.5
q-33 0 -56.5 28t-23.5 68t23.5 68t56.5 28zM221 201l230 -46q-15 -45 -48.5 -73t-75.5 -28h-43q-28 0 -52.5 12.5t-43 34.5t-29 51t-10.5 62t10.5 62t29 51t43.5 34.5t53 12.5h2h35q-47 -34 -76 -68q-6 -6 -10.5 -11.5t-8.5 -10.5q-1 -3 -5 -7q0 -1 -0.5 -1t-0.5 -1l-1 -2z
M1119 452q-2 -1 -5 -1.5t-5 -1.5q-20 20 -25.5 48t5.5 55q7 18 21 31t31 20.5t36 7.5t37 -7q13 -4 24 -14q2 5 3.5 8.5t3.5 7.5l21 62q2 6 8.5 10.5t13.5 4.5h29q7 0 15.5 -1t15.5 -3q40 -11 75 -24.5t61 -25.5q31 -14 57 -28q30 -17 65 -41t66 -47t54.5 -41t30.5 -24l-3 3
q-73 47 -142 68t-139 20q-32 -1 -61 -5t-62 -12l-25 131q-2 8 -10 8h-21q-8 0 -11 -7l-28 -80q11 -16 16 -35t1 -39q-11 -5 -28 -10q-29 -10 -47.5 -16t-31.5 -10t-23.5 -6.5t-22.5 -5.5zM1873 388q-44 17 -67 30q-4 2 -6.5 3.5t-5.5 3.5v240l112 18v-312q-8 5 -16 9t-17 8z
M1102 448q-59 -12 -127 -4q-9 1 -16.5 1.5t-16 1.5t-20.5 2.5t-30 4.5q66 0 116 8.5t76 15.5q6 -17 18 -30z" />
  </g>

</svg>
