<?xml version="1.0" standalone="no"?>
<!DOCTYPE svg PUBLIC "-//W3C//DTD SVG 1.1//EN" "http://www.w3.org/Graphics/SVG/1.1/DTD/svg11.dtd" >
<svg viewBox="0 -410 2048 2048">
  <g transform="matrix(1 0 0 -1 0 1638)">
   <path fill="currentColor"
d="M1840 878q16 0 16 -16v-801q0 -16 -16 -16h-1632q-16 0 -16 16v800q0 16 16 16h48q0 11 7 20t19 11l1304 253q9 2 17 -1t13 -9l48 9l-2 12l68 22l14 -70l-72 -6l-2 14l-47 -8q-2 -9 -8.5 -15.5t-16.5 -8.5l-1138 -222h1380zM320 686h728v18h-664q-4 0 -4 4v42q0 4 4 4
t4 -4v-38h120v34q0 4 4 4t4 -4v-34h120v34q0 4 4 4t4 -4v-34h120v34q0 4 4 4t4 -4v-34h120v34q0 4 4 4t4 -4v-34h120v34q0 4 4 4t4 -4v-34h20v82q0 8 8 8t8 -8v-82h84v34q0 4 4 4t4 -4v-34h120v34q0 4 4 4t4 -4v-34h120v34q0 4 4 4t4 -4v-34h120v34q0 4 4 4t4 -4v-34h120v38
q0 4 4 4t4 -4v-42q0 -4 -4 -4h-600v-18h664v128h-1408v-128zM576 110q53 0 100 20t81.5 54.5t54.5 81.5t20 100t-20 100t-54.5 81.5t-81.5 54.5t-100 20t-100 -20t-81.5 -54.5t-54.5 -81.5t-20 -100t20 -100t54.5 -81.5t81.5 -54.5t100 -20zM1152 110q26 0 45 19t19 45
t-19 45t-45 19t-45 -19t-19 -45t19 -45t45 -19zM1344 110q26 0 45 19t19 45t-19 45t-45 19t-45 -19t-19 -45t19 -45t45 -19zM1600 110q26 0 49.5 10t41 27.5t27.5 41t10 49.5t-10 49.5t-27.5 41t-41 27.5t-49.5 10t-49.5 -10t-41 -27.5t-27.5 -41t-10 -49.5t10 -49.5
t27.5 -41t41 -27.5t49.5 -10zM1754 233q2 0 5 5q0 33 -12.5 61.5t-34 50t-50 34t-61.5 12.5t-61.5 -12.5t-50.5 -34t-34.5 -50t-12.5 -61.5q0 -41 19.5 -75.5t52.5 -56.5q2 -4 6 2q4 2 -2 6q-31 20 -49 53t-18 71q0 31 11.5 58t32 47t47.5 32t58 12t58 -12t47 -32t32 -47
t12 -58q0 -5 5 -5zM576 590q46 0 87 -17.5t71.5 -48t48 -71.5t17.5 -87q0 -47 -17.5 -87.5t-48 -71t-71.5 -48t-87 -17.5q-47 0 -87.5 17.5t-71 48t-48 71t-17.5 87.5q0 46 17.5 87t48 71.5t71 48t87.5 17.5zM1600 350q8 0 8 -8v-64q0 -8 -8 -8t-8 8v64q0 8 8 8z" />
  </g>

</svg>
