<?xml version="1.0" standalone="no"?>
<!DOCTYPE svg PUBLIC "-//W3C//DTD SVG 1.1//EN" "http://www.w3.org/Graphics/SVG/1.1/DTD/svg11.dtd" >
<svg viewBox="0 -410 2048 2048">
  <g transform="matrix(1 0 0 -1 0 1638)">
   <path fill="currentColor"
d="M931 348h-47l85 82h14zM695 88q11 0 18.5 -4.5t7.5 -9.5t-7.5 -9.5t-18.5 -4.5t-18 4.5t-7 9.5t7 9.5t18 4.5zM835 193h-93l115 111h47zM810 247q0 -8 7.5 -12t18.5 -4t18.5 4.5t7.5 11.5t-7.5 11.5t-18.5 4.5t-18.5 -4.5t-7.5 -11.5zM527 -300h-285l220 212h197z
M460 -220q20 0 34 9t15 24q0 15 -14.5 24.5t-34.5 9.5t-34.5 -10t-14.5 -24q0 -15 14.5 -24t34.5 -9zM704 -18h-172l170 170h107zM657 74q0 -11 11 -18.5t27 -7.5t27.5 7.5t11.5 18.5t-11.5 18.5t-27.5 7.5t-27 -7.5t-11 -18.5zM460 -170q14 0 23.5 -5.5t9.5 -12.5
q0 -6 -9.5 -11.5t-23.5 -5.5t-23.5 5.5t-9.5 11.5q0 7 9.5 12.5t23.5 5.5zM1084 304l43 -110h-206l43 110h120zM904 152h240l66 -170h-372zM1117 348l-52 82h17l84 -82h-49zM1240 151h100l178 -169h-173zM1351 98q-16 0 -27 -7.5t-11 -18.5q0 -12 11 -19.5t27 -7.5t27.5 7.5
t11.5 19.5q0 11 -11.5 18.5t-27.5 7.5zM1351 57q-11 0 -18 4.5t-7 9.5t7 9t18 4t18.5 -4t7.5 -9t-7.5 -9.5t-18.5 -4.5zM1013 430h22l32 -82h-86zM1388 -88h198l212 -211h-278zM1576 -151q-20 0 -34.5 -9t-14.5 -24t14.5 -24.5t34.5 -9.5t34.5 9.5t14.5 24.5t-14.5 24
t-34.5 9zM1144 304h44l118 -110h-93zM1212 263q-11 0 -18.5 -4.5t-7.5 -11.5t7.5 -11.5t18.5 -4.5t18.5 4.5t7.5 11.5t-7.5 11.5t-18.5 4.5zM1238 -88l82 -211h-592l82 211h428zM1451 702q45 20 83.5 20.5t77.5 -11t81 -33t93 -44t115 -44t147 -34.5v-7v-959h-2048v960h2h-2
v64q17 -5 46 1.5t58 17.5q33 12 70 29q41 18 82 49t86.5 64t98 63t116.5 45q42 10 73.5 2t56.5 -28.5t46 -50t41.5 -62t43.5 -65.5t52 -60.5t66.5 -46t87.5 -22.5h38q38 0 73 8t60 20q35 17 66 32.5t62 30.5l62 30t66 31zM1920 -346l-896 840l-896 -840h1210h212h370z
M1576 -201q-14 0 -23.5 5.5t-9.5 11.5q0 7 9.5 12.5t23.5 5.5t23.5 -5.5t9.5 -12.5q0 -6 -9.5 -11.5t-23.5 -5.5zM986 404l-287 -734h-172zM1349 -330l-287 734l459 -734h-172z" />
  </g>

</svg>
