<?xml version="1.0" standalone="no"?>
<!DOCTYPE svg PUBLIC "-//W3C//DTD SVG 1.1//EN" "http://www.w3.org/Graphics/SVG/1.1/DTD/svg11.dtd" >
<svg viewBox="0 -410 2048 2048">
  <g transform="matrix(1 0 0 -1 0 1638)">
   <path fill="currentColor"
d="M1672 864l-5 -24l-249 60l1 13zM1400 981l-10 8l165 197l19 -15zM1418 955l240 96l8 -23l-242 -85zM909 398q-90 0 -169 34t-138.5 93.5t-93.5 139t-34 169.5t34 169.5t93.5 139t139 93.5t169.5 34q79 0 140 -19.5t105.5 -49t74.5 -65t49 -66.5t28 -54t11 -28
q-21 -18 -51 -33.5t-57 -26.5q-32 -13 -65 -24q17 -32 44 -53q23 -18 61.5 -27t94.5 10q0 -90 -34 -169.5t-93.5 -139t-139 -93.5t-169.5 -34zM938 384q118 -5 222 -43q44 -16 90 -41t87.5 -61.5t76 -86t56.5 -113.5h-1094q28 64 67 113.5t83.5 86t92.5 61.5t94 41
q107 38 225 43z" />
  </g>

</svg>
