<?xml version="1.0" standalone="no"?>
<!DOCTYPE svg PUBLIC "-//W3C//DTD SVG 1.1//EN" "http://www.w3.org/Graphics/SVG/1.1/DTD/svg11.dtd" >
<svg viewBox="0 -410 2048 2048">
  <g transform="matrix(1 0 0 -1 0 1638)">
   <path fill="currentColor"
d="M1457 -102l-74 65q-20 17 -44 44.5t-39 50.5l-393 586q4 14 6.5 26t3.5 20q1 10 1 17t-2 16q-3 15 -15 36l-87 23l-150 -100q-10 -7 -17 4l-38 66q-7 12 5 17l161 80l28 104l-100 173q-31 -5 -58 8t-43 39q-11 19 -14 40t2.5 40.5t18 36t32.5 27.5q35 20 75 8.5t63 -49.5
q16 -27 13 -58t-22 -54l101 -173l104 -28l151 100q4 3 9 2t7 -6l39 -67q3 -5 1.5 -9.5t-6.5 -6.5l-162 -80l-23 -87q15 -23 26 -32q6 -6 11 -9t13 -7q13 -6 45 -15l312 -634q6 -12 12 -27t11.5 -31.5t10 -32.5t6.5 -29zM715 1182q19 11 24.5 31t-5.5 39q-11 17 -31 23
t-39 -5q-18 -11 -23.5 -31t5.5 -39q10 -18 30 -23.5t39 5.5zM927 814l-64 111l-23 -87zM1318 68q21 -32 40 -54t34 -35.5t23.5 -19.5l8.5 -6l-443 768l-25 -14v-22q0 -5 -1 -9l-2 -10t-2.5 -10.5t-4.5 -12.5q97 -151 167 -259t116 -179q54 -83 89 -137z" />
  </g>

</svg>
