<?xml version="1.0" standalone="no"?>
<!DOCTYPE svg PUBLIC "-//W3C//DTD SVG 1.1//EN" "http://www.w3.org/Graphics/SVG/1.1/DTD/svg11.dtd" >
<svg viewBox="0 -410 2048 2048">
  <g transform="matrix(1 0 0 -1 0 1638)">
   <path fill="currentColor"
d="M1154 984q97 -14 185 -56.5t167.5 -100.5t151 -124.5t135.5 -128.5q-40 -59 -96.5 -120t-129 -113t-160 -89.5t-189.5 -50.5q-15 -2 -45.5 -3t-68.5 -1.5t-79.5 -0.5t-79.5 0.5t-68 1.5t-45 3q-102 13 -190 50.5t-160 89.5t-129 113t-97 120q61 60 132.5 126.5t152.5 125
t171 102t187 57.5q23 3 39.5 -3t30 -14.5t26.5 -16t29 -7.5q17 0 30 7.5t27 16t31 14.5t42 2zM1024 573q103 0 186.5 3t142 7.5t90 9.5t31.5 9q-10 18 -43.5 38t-90 37t-136 28.5t-180.5 11.5t-179.5 -11.5t-134 -29t-89 -37.5t-43.5 -37q0 -3 31 -8t88.5 -9.5t140 -8
t186.5 -3.5z" />
  </g>

</svg>
