<?xml version="1.0" standalone="no"?>
<!DOCTYPE svg PUBLIC "-//W3C//DTD SVG 1.1//EN" "http://www.w3.org/Graphics/SVG/1.1/DTD/svg11.dtd" >
<svg viewBox="0 -410 2048 2048">
  <g transform="matrix(1 0 0 -1 0 1638)">
   <path fill="currentColor"
d="M784 1240q26 0 49 -10t40 -27t27 -40t10 -49t-10 -49t-27 -40t-40 -27t-49 -10t-49 10t-40 27t-27 40t-10 49t10 49t27 40t40 27t49 10zM1482 960q3 -1 13 -3t24 -4q-18 -26 -18 -58q0 -21 8 -39.5t21.5 -32.5t32 -22t39.5 -8t39.5 8t32.5 22t22 32.5t8 39.5q0 35 -21 61
q-2 28 -25 47t-56 19q-27 0 -47.5 -13.5t-28.5 -33.5q-12 1 -22 1.5t-16 0.5q-16 0 -15.5 -7.5t9.5 -9.5zM1754 760q-7 6 -17 9.5t-20 5.5q-11 2 -23 2q-16 0 -27 -6t-21 -12.5t-20.5 -12.5t-23.5 -6q-14 0 -24 6t-20 12.5t-21 12.5t-28 6q-14 0 -25 -2q-10 -2 -20.5 -5.5
t-15.5 -9.5q-14 -8 -22.5 -24.5t-8.5 -32.5v-173l-60 382q-2 10 -7 15q-11 27 -40 35q-13 6 -30 4l-18 -2q-12 -2 -18.5 -5.5t-10.5 -7t-8 -6t-10 -2.5t-10 2.5t-8.5 6t-10.5 7t-16 5.5q-8 1 -17 2q-8 0 -16.5 -0.5t-16.5 -4.5q-14 -3 -24.5 -12.5t-16.5 -22.5q-5 -7 -5 -14
l-60 -393q-2 -12 5 -21.5t19 -11.5q8 -2 15 1.5t12 9.5l-32 -293q-2 -10 4.5 -17t16.5 -7h97l15 -115q1 -10 8 -16.5t17 -6.5h47q9 0 16.5 6.5t8.5 16.5l15 115h98q10 0 16 7t5 17l-33 298q10 -18 30 -15q16 3 23 18v-41q0 -15 10.5 -28.5t24.5 -18.5l28 -9l27 -349
q1 -8 6.5 -13.5t13.5 -5.5h148q18 0 20 19l27 349l28 9q14 5 25 18.5t11 28.5v240q0 15 -9 31.5t-23 24.5zM1242 883l-26 13l-26 -13q-8 -5 -14 -1t-6 14q0 9 6 13t14 -1l26 -12l26 12q8 5 14.5 1t5.5 -13q0 -10 -6 -14t-14 1zM1216 1240q26 0 49 -10t40 -27t27 -40t10 -49
t-10 -49t-27 -40t-40 -27t-49 -10t-49 10t-40 27t-27 40t-10 49t10 49t27 40t40 27t49 10zM975 942q-9 8 -22 12.5t-25 6.5q-14 3 -29 3q-20 0 -34 -7t-26 -16t-25 -16t-30 -7t-29.5 7t-24.5 16t-26 16t-35 7q-17 0 -31 -3q-13 -2 -25 -6t-20 -12q-17 -10 -28 -30.5
t-11 -40.5v-25q-9 4 -17 10.5t-24 6.5h-1q6 16 6 36q0 21 -8 39.5t-21.5 32t-32 21.5t-39.5 8t-39.5 -8t-32.5 -21.5t-22 -32t-8 -39.5q0 -17 7 -36q-12 -2 -19.5 -6.5t-14 -8.5t-13.5 -5t-18 4q-2 -12 3 -20.5t10 -13.5q6 -6 15 -9q8 -2 18 6t24 40q13 -24 36.5 -38.5
t52.5 -14.5q30 0 54 15.5t37 41.5q7 -17 13.5 -27.5t11.5 -15.5t10 -6.5t9 -0.5q1 0 1 0.5t1 0.5v-214l-23 147q-1 6 -5 11q-12 23 -32 28q-11 4 -25 4q-7 0 -14 -2q-9 -2 -14.5 -4.5t-9 -5t-6.5 -4.5t-8 -2t-8.5 2t-7 4.5t-8 5t-12.5 4.5q-6 2 -13 2q-6 0 -13 -1t-14 -3
q-21 -5 -33 -28q-4 -6 -5 -10l-48 -315q-2 -10 4 -17t16 -9q12 -3 21 9l-23 -236q-2 -19 17 -19h77l12 -92q1 -8 6.5 -13t13.5 -5h37q8 0 14 5t7 13l11 92h79q8 0 13 5.5t3 13.5l-26 238q3 -7 9.5 -10t14.5 -2q10 2 15.5 9.5t3.5 16.5l-19 121q6 -11 16 -19.5t21 -11.5
l35 -10l34 -438q1 -10 8 -16.5t16 -6.5h185q10 0 17 6.5t8 16.5l34 438l36 10q18 5 31 22.5t13 36.5v299q0 20 -11 40t-28 30zM464 681q-8 0 -17 6.5t-17 12.5q7 -11 15 -26.5t9 -21.5l-28 -4l-8 55l-9 -55l-28 4q1 6 10 22t15 27q-7 -6 -17 -12.5t-18 -6.5q-6 0 -9 6
t-2.5 14.5t3.5 17.5t8 14q4 4 11 4q5 0 14 -5t22 -19q11 14 20 18t15 5q7 0 11 -3q5 -5 8 -14t3.5 -17.5t-2.5 -15t-9 -6.5zM784 725q-9 0 -9 9t9 9t9 -9t-9 -9zM784 772q-9 0 -9 8q0 9 9 9t9 -9q0 -8 -9 -8zM784 817q-9 0 -9 9t9 9t9 -9t-9 -9z" />
  </g>

</svg>
