<?xml version="1.0" standalone="no"?>
<!DOCTYPE svg PUBLIC "-//W3C//DTD SVG 1.1//EN" "http://www.w3.org/Graphics/SVG/1.1/DTD/svg11.dtd" >
<svg viewBox="0 -410 2048 2048">
  <g transform="matrix(1 0 0 -1 0 1638)">
   <path fill="currentColor"
d="M616 652q17 0 27.5 -10.5t10.5 -27.5t-10.5 -27.5t-27.5 -10.5h-269q-16 0 -27 10.5t-11 27.5t11 27.5t27 10.5h269zM452 180q11 -12 11 -28t-11 -27t-27 -11t-27 11l-191 191q-11 11 -11 27t11 27t27 11t28 -11zM262 858q-11 -11 -27 -11t-27 11t-11 27t11 27l190 191
q11 11 27 11t27 -11t11 -27t-11 -28z" />
  </g>

</svg>
