<?xml version="1.0" standalone="no"?>
<!DOCTYPE svg PUBLIC "-//W3C//DTD SVG 1.1//EN" "http://www.w3.org/Graphics/SVG/1.1/DTD/svg11.dtd" >
<svg viewBox="0 -410 2048 2048">
  <g transform="matrix(1 0 0 -1 0 1638)">
   <path fill="currentColor"
d="M1024 271q17 0 27.5 -11.5t10.5 -27.5v-268q0 -17 -10.5 -28t-27.5 -11t-27.5 11t-10.5 28v268q0 17 10.5 28t27.5 11zM1513 68q11 -11 11 -27t-11 -27l-191 -190q-11 -12 -27 -12t-27 12q-11 11 -11 27t11 27l190 190q12 12 28 12t27 -12zM780 -122q11 -11 11 -27
t-11 -27q-11 -12 -27 -12t-27 12l-191 190q-11 11 -11 27t11 27q11 12 27 12t28 -12z" />
  </g>

</svg>
