<?xml version="1.0" standalone="no"?>
<!DOCTYPE svg PUBLIC "-//W3C//DTD SVG 1.1//EN" "http://www.w3.org/Graphics/SVG/1.1/DTD/svg11.dtd" >
<svg viewBox="0 -410 2048 2048">
  <g transform="matrix(1 0 0 -1 0 1638)">
   <path fill="currentColor"
d="M943 1018q0 -17 -11 -27.5t-27 -10.5q-17 0 -28 10.5t-11 27.5v269q0 16 11 27t28 11q16 0 27 -11t11 -27v-269zM1394 1236q11 -11 11 -27t-11 -27t-27 -11t-27 11l-190 190q-12 11 -12 27t12 27q11 11 27 11t27 -11zM606 1426q12 11 28 11t27 -11t11 -27t-11 -27
l-190 -190q-11 -11 -27 -11t-27 11t-11 27t11 27z" />
  </g>

</svg>
