<?xml version="1.0" standalone="no"?>
<!DOCTYPE svg PUBLIC "-//W3C//DTD SVG 1.1//EN" "http://www.w3.org/Graphics/SVG/1.1/DTD/svg11.dtd" >
<svg viewBox="0 -410 2048 2048">
  <g transform="matrix(1 0 0 -1 0 1638)">
   <path fill="currentColor"
d="M1641 726q6 -2 8 -7t-2 -10l-550 -744q-11 -12 -25 -7l-667 250q-9 4 -9 14v235q0 4 2 8l1 1q2 2 3 2l51 63v177q0 1 2 7l1 1l2 2l507 620q9 11 23 7l584 -165q13 -3 6 -15l-36 -48q-2 -6 -4.5 -18t-4.5 -25.5l-4 -27t-2 -23.5v-9l114 -32q6 -2 8 -6.5t-3 -10.5l-40 -53
q-2 -8 -4.5 -21t-5 -28t-4.5 -30t-2 -26q0 -14 3 -33t6 -36zM502 700q-12 0 -12 -14v-166l571 -213l466 621q-5 23 -7.5 39.5t-4.5 28.5q-2 13 -2 24q0 14 3 34.5t6 37.5l-445 -594q-9 -11 -23 -6zM1590 700q-6 26 -9 44.5t-5 31.5q-2 15 -2 26q0 15 3.5 38t7.5 43
l-495 -660q-11 -12 -25 -7l-614 230q-10 1 -13 -15v-185l635 -236z" />
  </g>

</svg>
