<?xml version="1.0" standalone="no"?>
<!DOCTYPE svg PUBLIC "-//W3C//DTD SVG 1.1//EN" "http://www.w3.org/Graphics/SVG/1.1/DTD/svg11.dtd" >
<svg viewBox="0 -410 2048 2048">
  <g transform="matrix(1 0 0 -1 0 1638)">
   <path fill="currentColor"
d="M1470 68l-138 -210l-288 598l-369 -538l-90 237l351 462q-33 74 -52.5 138.5t-29 119t-10 99.5t3.5 81q10 84 45 141q50 69 111 113t124 55.5t122.5 -14t106.5 -96.5q30 -60 22 -152q-3 -39 -15 -88.5t-37 -110.5t-64.5 -133.5t-99.5 -157.5zM1080 1198q-52 -37 -73 -91
q-9 -23 -12.5 -52.5t3.5 -64.5t26.5 -76.5t55.5 -89.5q38 56 62.5 96.5t38.5 66.5q17 31 25 51q12 31 11.5 70.5t-15.5 69t-45 39.5t-77 -19z" />
  </g>

</svg>
