<?xml version="1.0" standalone="no"?>
<!DOCTYPE svg PUBLIC "-//W3C//DTD SVG 1.1//EN" "http://www.w3.org/Graphics/SVG/1.1/DTD/svg11.dtd" >
<svg viewBox="0 -410 2048 2048">
  <g transform="matrix(1 0 0 -1 0 1638)">
   <path fill="currentColor"
d="M1318 662q4 -26 -8.5 -45t-32 -32t-41 -21t-34.5 -12q2 -24 3 -49t1 -49q0 -91 -23 -169h-321q-11 39 -17 81.5t-6 87.5q0 24 1.5 49t3.5 49q-13 3 -34 11t-40.5 21.5t-32 32.5t-7.5 45q6 28 18 57q11 25 29 55.5t48 60.5q3 4 8 6q3 1 5 2h5q5 -2 3 -5q-6 -15 -11 -32.5
l-9 -31.5q-4 -18 -8 -34q-5 -20 12.5 -30.5t37.5 -15.5q8 33 21.5 64t25.5 53h217q11 -22 25 -53t22 -64q19 4 37 15t13 31q-4 16 -8 34q-4 15 -9 32t-10 32q-2 4 2 5h6q2 -1 5 -2q4 -1 7 -6q30 -30 48.5 -60.5t29.5 -55.5q12 -29 18 -57zM1023 24q-14 0 -33 15.5t-40 44
t-41.5 68t-36.5 87.5h302q-16 -48 -36.5 -87.5t-41.5 -68t-40.5 -44t-32.5 -15.5zM1023 844q-23 0 -43 8.5t-35 24.5t-24 38t-9 49q2 22 14 56q11 29 33 74.5t64 109.5q42 -64 64 -109.5t33 -74.5q12 -34 14 -56q0 -54 -32 -87t-79 -33zM1024 1157q-34 -51 -52 -87.5
t-26 -59.5q-10 -27 -11 -45q0 -43 26 -69.5t63 -26.5t63 26.5t26 69.5q-1 18 -11 45q-8 23 -26.5 59.5t-51.5 87.5zM1024 890q-29 0 -50 21t-21 56q1 14 9 36q7 19 21 47.5t41 69.5q26 -41 40.5 -69.5t21.5 -47.5q8 -22 9 -36q0 -35 -21 -56t-50 -21zM1024 1064
q-16 -25 -24.5 -42t-12.5 -28q-4 -13 -5 -22q0 -21 12.5 -34t29.5 -13t29.5 13t12.5 34q-1 9 -5 22q-4 11 -12.5 28t-24.5 42z" />
  </g>

</svg>
