<?xml version="1.0" standalone="no"?>
<!DOCTYPE svg PUBLIC "-//W3C//DTD SVG 1.1//EN" "http://www.w3.org/Graphics/SVG/1.1/DTD/svg11.dtd" >
<svg viewBox="0 -410 2048 2048">
  <g transform="matrix(1 0 0 -1 0 1638)">
   <path fill="currentColor"
d="M1086 793q48 5 98 3q45 -1 88 -6.5t81 -16.5v-321q-39 -11 -81.5 -17t-87.5 -6q-24 0 -49 1.5t-49 3.5q-3 -13 -11 -34t-21.5 -40.5t-32.5 -32t-45 -7.5q-28 6 -57 18q-25 11 -56 29t-60 48q-4 3 -6 8q-1 3 -2 5t0 5q0 2 1.5 3.5t3.5 -0.5q15 -6 32 -11t32 -9l34 -8
q20 -5 30.5 12.5t15.5 37.5q-33 8 -64 21.5t-53 25.5v217q22 11 53 25t64 22q-2 9 -6 19t-9.5 18t-13 12t-17.5 1q-16 -4 -34 -8q-15 -4 -32.5 -9t-31.5 -10q-5 -3 -5 2q-1 2 0 6q1 2 2 5q1 4 6 7q29 30 60 48.5t56 29.5q29 12 57 18q26 4 45 -8.5t32 -32t21 -40.5t12 -34z
M1398 766q48 -16 87.5 -36.5t68 -41.5t44 -40.5t15.5 -32.5q0 -14 -16 -33t-44 -40t-67.5 -41.5t-87.5 -36.5v302zM674 726q27 0 49 -9t38 -24t24.5 -35t8.5 -43q0 -47 -33 -79t-87 -32q-22 2 -56 14q-29 11 -74.5 33t-109.5 64q64 42 109.5 64t74.5 33q34 12 56 14z
M673 525q43 0 69.5 26t26.5 63t-26.5 63t-69.5 26q-18 -1 -45 -11q-23 -8 -59.5 -26.5t-87.5 -51.5q51 -34 87.5 -52t59.5 -26q27 -10 45 -11zM671 685q34 0 55.5 -21t21.5 -50t-21 -50t-56 -21q-14 1 -36 9q-19 7 -47.5 21t-69.5 41q41 26 69.5 40.5t47.5 21.5q22 8 36 9z
M666 572q21 0 34 12.5t13 29.5t-13 29.5t-34 12.5q-9 -1 -22 -5q-11 -4 -28.5 -12.5t-41.5 -24.5q24 -16 41.5 -24.5t28.5 -12.5q13 -4 22 -5z" />
  </g>

</svg>
