<?xml version="1.0" standalone="no"?>
<!DOCTYPE svg PUBLIC "-//W3C//DTD SVG 1.1//EN" "http://www.w3.org/Graphics/SVG/1.1/DTD/svg11.dtd" >
<svg viewBox="0 -410 2048 2048">
  <g transform="matrix(1 0 0 -1 0 1638)">
   <path fill="currentColor"
d="M1150 820q-10 3 -17.5 -1t-13 -11.5t-9 -17t-5.5 -18.5q33 -8 64 -22t53 -26v-216q-22 -12 -53 -25.5t-64 -22.5q2 -9 5.5 -19t9 -17.5t13 -11.5t17.5 -1q17 4 35 8q15 4 32 8.5t32 10.5q3 2 5 -3v-5q-1 -2 -2 -5q-2 -7 -6 -8q-30 -30 -61 -48t-56 -29q-29 -12 -56 -18
q-26 -4 -45 8.5t-32 31.5t-21 40t-12 34q-25 -2 -49.5 -3t-48.5 -1q-91 0 -169 23v321q39 11 81.5 17t87.5 6q24 0 48.5 -1.5t49.5 -3.5q3 13 11 34t21.5 40.5t32.5 31.5t45 8q27 -6 56 -18q25 -11 56 -29.5t61 -47.5q4 -3 6 -8q1 -3 2 -5v-6q-1 -4 -5 -2q-15 5 -32.5 10.5
t-32.5 9.5q-18 4 -34 8zM434 615q0 13 15.5 32.5t44 40.5t68 41.5t87.5 36.5v-302q-48 16 -87.5 36.5t-68 41.5t-44 40t-15.5 33zM1377 685q14 -1 36 -9q19 -7 47.5 -21.5t69.5 -40.5q-41 -27 -69.5 -41t-47.5 -21q-22 -8 -36 -9q-35 0 -56 21t-21 50t21 50t56 21zM1335 614
q0 -18 13 -30t34 -12q9 1 22 5q11 4 28 12.5t42 24.5q-25 16 -42 24.5t-28 12.5q-13 4 -22 5q-21 0 -34 -12t-13 -30zM1374 726q22 -2 56 -14q29 -11 74.5 -33t109.5 -64q-64 -42 -109.5 -64t-74.5 -33q-34 -12 -56 -14q-54 0 -87 32t-33 79q0 23 9 43t24.5 35t37.5 24t49 9
zM1279 614q0 -38 26.5 -63.5t69.5 -25.5q18 1 45 11q23 8 59.5 26t87.5 52q-51 33 -87.5 51.5t-59.5 26.5q-27 10 -45 11q-43 0 -69.5 -25.5t-26.5 -63.5z" />
  </g>

</svg>
