<?xml version="1.0" standalone="no"?>
<!DOCTYPE svg PUBLIC "-//W3C//DTD SVG 1.1//EN" "http://www.w3.org/Graphics/SVG/1.1/DTD/svg11.dtd" >
<svg viewBox="0 -410 2048 2048">
  <g transform="matrix(1 0 0 -1 0 1638)">
   <path fill="currentColor"
d="M1206 236l18 -26t17 -27q14 -24 -2.5 -45.5t-51.5 -37t-82 -24.5t-95 -9t-95.5 9.5t-82 25.5t-50 37t-0.5 44q8 13 16.5 25t16.5 24q39 -17 88 -26.5t103 -9.5q57 0 108.5 10.5t91.5 29.5zM1040 973q53 -3 99 -14t79.5 -28.5t53 -39.5t19.5 -47q0 -27 -22.5 -50.5
t-61 -41t-90.5 -27.5t-111 -10t-111 10t-91 27.5t-61.5 41t-22.5 50.5q0 25 20.5 48t56 40.5t83 28.5t102.5 13l1 -126q0 -12 8.5 -20t20.5 -8t20.5 8t8.5 20zM996 1095q-8 4 -13 12t-5 17q0 13 9 22.5t23 9.5q13 0 22.5 -9.5t9.5 -22.5q0 -9 -5 -16.5t-12 -11.5l1 -248
q0 -6 -4 -10.5t-10 -4.5t-10 4.5t-4 10.5l-1 126zM998 1147q-10 0 -10 -11q0 -10 10 -10q12 0 12 10q0 5 -3.5 8t-8.5 3zM1878 524q11 -5 6 -19l-116 -287q-2 -5 -7.5 -7.5t-10.5 -0.5l-460 186v-42q0 -30 -22.5 -56t-61 -45.5t-90 -31t-110.5 -11.5t-111 11.5t-90.5 31
t-61 45.5t-22.5 56l-1 372l-72 29q-6 2 -8.5 7.5t-0.5 10.5q2 6 8 8.5t11 0.5l62 -24v16l-57 22q-11 4 -21.5 -1t-15.5 -16q-4 -11 1 -21.5t16 -15.5l65 -24l-44 -114q-2 -5 -7.5 -7.5t-10.5 -0.5l-471 180q-5 2 -7.5 7.5t-0.5 11.5l111 289q5 12 19 8l450 -174
q-42 -34 -42 -74q0 -30 23.5 -56t64.5 -45.5t96 -31t117 -11.5q50 0 95 7.5t82.5 21t65 31.5t42.5 40v-200l134 -50q13 -5 9 -18q-2 -6 -8 -8.5t-11 -0.5l-123 46v-110l34 82l84 -32q11 -4 21.5 1t15.5 16t0 21.5t-17 15.5l-83 31l45 111q2 5 7.5 7.5t10.5 0.5z" />
  </g>

</svg>
