<?xml version="1.0" standalone="no"?>
<!DOCTYPE svg PUBLIC "-//W3C//DTD SVG 1.1//EN" "http://www.w3.org/Graphics/SVG/1.1/DTD/svg11.dtd" >
<svg viewBox="0 -410 2048 2048">
  <g transform="matrix(1 0 0 -1 0 1638)">
   <path fill="currentColor"
d="M1024 1318q155 0 264.5 -35.5t178.5 -107t101 -179.5t32 -254q0 -97 -25 -196.5t-68 -192t-100 -173.5t-121 -141t-131.5 -94.5t-130.5 -34.5q-64 0 -132 34.5t-132 94.5t-120.5 141t-99 173t-67.5 191.5t-25 197.5q0 145 31.5 253.5t100.5 180t178.5 107t265.5 35.5z
M972 540q11 24 5 52.5t-26.5 57.5t-53 55t-74.5 46q-42 19 -83 27t-76 5t-61 -16.5t-37 -37.5t-5 -52.5t26.5 -57t53 -55t74.5 -45.5q42 -20 83 -28t76 -5t61 16.5t37 37.5zM1335 520q42 19 74.5 45.5t53 55t26.5 57t-5 52.5t-37 37.5t-61 16.5t-76 -5t-83 -27
q-42 -20 -74.5 -46t-53 -55t-26.5 -57.5t5 -52.5t37 -37.5t61 -16.5t76 5t83 28z" />
  </g>

</svg>
