<?xml version="1.0" standalone="no"?>
<!DOCTYPE svg PUBLIC "-//W3C//DTD SVG 1.1//EN" "http://www.w3.org/Graphics/SVG/1.1/DTD/svg11.dtd" >
<svg viewBox="0 -410 2048 2048">
  <g transform="matrix(1 0 0 -1 0 1638)">
   <path fill="currentColor"
d="M960 472h144v-594h-144v594zM1432 966q0 -72 -23.5 -137t-65.5 -117.5t-99 -89.5t-124 -53v-60q0 -10 -6.5 -16.5t-16.5 -6.5h-130q-10 0 -16.5 6.5t-6.5 16.5v57q-70 14 -130 50.5t-104 89.5t-69 119.5t-25 140.5q0 85 32 159t87.5 129.5t129.5 87.5t159 32t159 -32
t129.5 -87.5t87.5 -129.5t32 -159zM1024 606q75 0 140.5 28.5t114 77t77 114t28.5 140.5t-28.5 140.5t-77 114t-114 77t-140.5 28.5t-140.5 -28.5t-114 -77t-77 -114t-28.5 -140.5t28.5 -140.5t77 -114t114 -77t140.5 -28.5zM766 974q17 0 28 -11t11 -27q0 -17 -11 -28
t-28 -11q-16 0 -27 11t-11 28q0 16 11 27t27 11zM1024 1316q73 0 136.5 -27.5t111 -75t75 -111.5t27.5 -136t-27.5 -136t-75 -111.5t-111.5 -75t-136 -27.5t-136 27.5t-111.5 75t-75 111.5t-27.5 136t27.5 136t75 111.5t111 75t136.5 27.5zM1024 640q67 0 126.5 25.5t104 70
t70 103.5t25.5 127q0 67 -25.5 126.5t-70 104t-104 70t-126.5 25.5q-68 0 -127 -25.5t-103.5 -70t-70 -104t-25.5 -126.5q0 -68 25.5 -127t70 -103.5t103.5 -70t127 -25.5zM973 1259q58 13 87 5t34 -25t-12.5 -36.5t-51.5 -27.5q-35 -9 -62 -20.5t-48.5 -28t-39.5 -38
t-36 -49.5t-33 -34.5t-25.5 0.5t-15.5 23t-2 33q3 16 13.5 44t34 57.5t61.5 56t96 40.5z" />
  </g>

</svg>
