<?xml version="1.0" standalone="no"?>
<!DOCTYPE svg PUBLIC "-//W3C//DTD SVG 1.1//EN" "http://www.w3.org/Graphics/SVG/1.1/DTD/svg11.dtd" >
<svg viewBox="0 -410 2048 2048">
  <g transform="matrix(1 0 0 -1 0 1638)">
   <path fill="currentColor"
d="M1600 162q26 0 45 -19t19 -45v-48q0 -16 -16 -16h-1248q-16 0 -16 16v48q0 26 19 45t45 19h24q0 17 11.5 28.5t28.5 11.5h11v26q-32 7 -53.5 33t-21.5 61q0 32 18.5 56.5t47.5 34.5q-13 25 -17 58t-2 89q1 12 1 19v15q0 62 30 115.5t85 94.5t133.5 68t174.5 36
q-20 15 -20 38v5q-1 17 3 27t18 18q24 14 104 14q79 0 104 -14q14 -8 18 -18t3 -27v-5q0 -21 -20 -38q96 -9 174.5 -36t133.5 -68t85 -94.5t30 -115.5q0 -8 0.5 -15t0.5 -19q1 -56 -2.5 -89t-16.5 -58q29 -10 47.5 -34.5t18.5 -56.5q0 -35 -21.5 -60.5t-53.5 -33.5v-26h11
q17 0 28.5 -11.5t11.5 -28.5h24zM1520 594q0 53 -26 99.5t-74.5 83.5t-117.5 62t-156 36q34 -7 78.5 -21.5t88.5 -40t83 -63t62 -90.5q10 -26 16 -57t7.5 -63.5t-1.5 -64t-10 -57.5h31q7 11 11 23.5t6.5 29t3 38t-0.5 50.5q-1 13 -1 20v15zM931 947q0 -12 24.5 -22.5
t68.5 -10.5t68.5 10.5t24.5 22.5v6q0 9 -0.5 11.5t-4.5 4.5q-8 5 -29.5 8t-58.5 3t-58.5 -3t-29.5 -8q-4 -2 -4.5 -4.5t-0.5 -11.5v-6zM527 559q0 -29 0.5 -50.5t3 -38t6.5 -29t11 -23.5h862q5 14 7 43t0.5 65t-8 74.5t-18.5 71.5q-18 48 -55 83.5t-80 60.5t-83.5 40.5
t-65.5 22.5q-39 3 -83 3q-113 0 -205 -21.5t-156.5 -60t-99.5 -91.5t-35 -115q0 -8 -0.5 -15t-0.5 -20zM480 322q0 -26 19 -45t45 -19h960q26 0 45 19t19 45t-19 45t-45 19h-960q-26 0 -45 -19t-19 -45zM1038 1107h-28l14 163zM937 1066l-69 149l94 -135zM1111 1066l-25 14
l94 135z" />
  </g>

</svg>
