<?xml version="1.0" standalone="no"?>
<!DOCTYPE svg PUBLIC "-//W3C//DTD SVG 1.1//EN" "http://www.w3.org/Graphics/SVG/1.1/DTD/svg11.dtd" >
<svg viewBox="0 -410 2048 2048">
  <g transform="matrix(1 0 0 -1 0 1638)">
   <path fill="currentColor"
d="M872 1274h136v-115h-136v115zM1044 1274h136v-115h-136v115zM2048 550v-960h-2048v960h302q90 70 269 58q-12 27 -25 55q-11 24 -26 53.5t-32 56.5l175 110l-37 205q-2 6 1.5 11.5t10.5 7.5l178 45v162q0 16 16 16h72v144h240v-144h74q6 0 11 -4.5t5 -11.5v-163l178 -45
q6 -2 9.5 -7t2.5 -11l-37 -207l174 -108q-14 -28 -27 -57t-24 -53q-12 -28 -23 -55q86 5 150 -10t107 -48h304zM977 174q5 -5 8.5 -9.5t8.5 -9.5q0 1 -0.5 1.5t-0.5 1.5q-11 44 -26 87t-36 84q-51 103 -129 165.5t-186 76.5q-4 0 -12 1t-16 1.5t-15 1.5t-9 1h-11h-9.5
t-16 0.5t-16 0.5h-8.5q-4 -1 -13.5 -1h-11.5q-3 -1 -12 -1.5t-11 -1.5q-4 -1 -11.5 -1.5t-9.5 -1.5q-3 -1 -7 -1.5t-8 -1.5q-2 0 -8 -1.5t-9 -2.5q-2 -1 -3 -1t-3 -1q-4 -1 -11 -3t-8 -3q-3 -2 -6.5 -3t-6.5 -3q-21 -9 -37.5 -21.5t-29.5 -26.5q-32 -37 -36.5 -85t17.5 -92
q20 -38 56.5 -60.5t77.5 -23.5q44 0 78.5 26t54.5 78q2 6 7 8.5t10.5 1.5t9.5 -5t4 -11v-4q1 -2 1 -5t1 -7q1 -10 3.5 -19.5t6.5 -18.5q16 -36 50.5 -47.5t95.5 11.5q69 25 130 4t113 -78zM1026 154v952l330 -206l32 180l-176 44q-12 2 -12 15v159h-353v-159q0 -13 -12 -15
l-176 -44l33 -179l328 205v-952h8h-2zM1766 325q23 43 18.5 92t-36.5 87q-13 14 -29.5 26.5t-37.5 21.5q-12 3 -19 7q-1 1 -4 1q-5 2 -9 3l-8 2q-2 1 -2.5 1t-2.5 1q-5 1 -9 1.5t-9 2.5q-1 0 -2 0.5t-2 0.5q-6 0 -11.5 1t-11.5 2h-1q-26 3 -55 3.5t-61 -2.5
q-11 -1 -22.5 -1.5t-22.5 -2.5q-109 -14 -186 -76.5t-129 -165.5q-21 -42 -36 -84.5t-26 -86.5q0 -1 -0.5 -1t-0.5 -1v-1q5 5 8.5 9.5t8.5 9.5q52 56 112.5 77.5t130.5 -4.5q61 -22 95.5 -10.5t50.5 47.5q7 16 10 38q2 8 2 12v4q0 6 4 10t9 5t10.5 -1.5t7.5 -8.5
q20 -51 54.5 -77.5t78.5 -25.5q41 1 77 23.5t56 60.5z" />
  </g>

</svg>
