<?xml version="1.0" standalone="no"?>
<!DOCTYPE svg PUBLIC "-//W3C//DTD SVG 1.1//EN" "http://www.w3.org/Graphics/SVG/1.1/DTD/svg11.dtd" >
<svg viewBox="0 -410 2048 2048">
  <g transform="matrix(1 0 0 -1 0 1638)">
   <path fill="currentColor"
d="M765 879l-50 14l95 71q5 -15 10 -30.5t10 -31.5q4 -11 7.5 -20.5t7.5 -19.5zM999 1128q2 5 1 6q2 5 4 10.5t4 11.5q19 49 45 63t52 3.5t49.5 -42t37.5 -74.5l34 34v23q-11 2 -18 11t-7 20v32q0 14 9 23t23 9h102q14 0 23 -9t9 -23v-32q0 -11 -7 -20t-18 -11v-23l64 -64
q13 -12 24 -29t20 -36.5t14.5 -39.5t7.5 -39l21 -12l-20 -13l-13 -9v22q0 18 -5 38.5t-13.5 40.5t-19.5 38t-24 31l-67 65q-1 2 -1 5v23h-90v-23q0 -3 -2 -5l-40 -40l-26 -25q-4 -4 -6 -7l-1 -1q-2 -1 -3 -2.5t-3 -3.5v-1l-6 -8t-6 -9q-2 -4 -3 -5q-2 -3 -3.5 -6l-3.5 -7
q-2 -3 -3.5 -6.5t-3.5 -6.5v-1q-3 -7 -5.5 -13.5t-4.5 -13.5q0 -1 -0.5 -1t-0.5 -1q-1 -3 -1.5 -5.5t-1.5 -5.5q-1 -1 -1 -3q-1 -3 -1 -6.5t-1 -6.5v-2q-2 -6 -2 -10v-3q-1 -3 -1 -11v-8v-18v-84l-27 1l-97 20q-1 5 -1.5 8.5t-1.5 7.5q0 2 -0.5 3.5t-0.5 3.5v9.5t-1 9.5
q-1 1 -1 5q-1 6 -1 12t-1 12v3v20v8v16v9v16v8v17v7l3 24v4q1 5 1 10t1 10q1 2 1 4t1 4q1 5 1 8.5t1 7.5q0 3 0.5 5t1.5 4q1 9 3 15q1 3 1 5t1 4q3 8 5 15zM1215 1197q0 -19 19 -19h103q8 0 13.5 5.5t5.5 13.5v32q0 8 -5.5 13.5t-13.5 5.5h-103q-8 0 -13.5 -5.5t-5.5 -13.5
v-32zM1098 911l-14 -7q-6 -3 -12 -7.5t-10 -10.5l36 7v18zM1133 1040q-19 2 -36 -1q-14 -2 -28.5 -8t-22.5 -20l81 17zM1156 1112q-16 12 -35.5 10.5t-36.5 -8.5q-20 -8 -41 -22zM860 860q-10 26 -21 57t-21 64t-17.5 67t-10.5 67q-6 57 7.5 108.5t39 80t58.5 25t68 -56.5
q14 -22 25 -44.5t19 -46.5q-2 -5 -4.5 -10t-4.5 -10q-10 -19 -16 -45q-23 2 -45 -3q-19 -5 -38.5 -16.5t-32.5 -34.5q12 7 23 12t20 10q10 4 19 9q15 8 29.5 12t23.5 7q-8 -27 -11.5 -56t-5.5 -60q-14 -5 -26 -11q-11 -6 -22.5 -14.5t-19.5 -22.5q13 6 24.5 11.5t20.5 9.5
q11 4 19 8l4 2q-2 -71 9 -143zM966 1213q-33 6 -54.5 1.5t-34 -12t-17.5 -14.5l-5 -7zM784 25q-4 -22 2 -41q-36 -12 -86 -12q-104 0 -149.5 44t-31.5 121q11 61 59.5 90t121.5 29q29 0 58 -6q12 -2 22.5 -6t21.5 -9q6 -3 9 -5q1 -1 1.5 -1t1.5 -1l4 -2l4 -2l1 -1
q3 -2 6.5 -5t6.5 -5l3 -3l5 -5q2 -1 2 -1.5t2 -2.5q2 -1 2 -2t2 -3q2 -1 2.5 -2.5t2.5 -2.5q1 -2 3 -4t3.5 -5l2.5 -5q1 -1 1 -1.5t1 -1.5q2 -2 2 -4t2 -4l2 -4q1 -2 3 -8q1 -2 1 -4q1 -3 2 -6.5t2 -6.5q0 -7 1 -10v-3q0 -2 0.5 -4t0.5 -4v-3v-9v-1q0 -2 -0.5 -5t-0.5 -5v-1
q-40 -3 -66.5 -19t-32.5 -48zM768 206l-34 15l21 14l-40 -2q3 5 3.5 8.5t0.5 5.5t-1 3q-3 2 -5 2t-6 -2q-1 -1 -2 -3t-2 -4.5t0 -7.5l-34 17l12 -26l-27 -17l40 5l8 -29l16 26zM1009 23q8 -35 -19 -57.5t-87 -22.5q-61 0 -87 21t-18 59q6 30 34 44t71 14q40 0 69.5 -15
t36.5 -43zM1530 40l-192 -136l-332 58q25 26 16 63q-9 33 -41.5 50.5t-77.5 17.5h-6q2 23 -3 47q-11 50 -47.5 81t-88.5 43l12 309l-61 305l-1 4l54 -15l94 -20l220 -47l238 -12l146 96l13 8l24 16v-2l15 -476zM1366 337l-28 328h-4l15 -332l-9 -397z" />
  </g>

</svg>
