<?xml version="1.0" standalone="no"?>
<!DOCTYPE svg PUBLIC "-//W3C//DTD SVG 1.1//EN" "http://www.w3.org/Graphics/SVG/1.1/DTD/svg11.dtd" >
<svg viewBox="0 -410 2048 2048">
  <g transform="matrix(1 0 0 -1 0 1638)">
   <path fill="currentColor"
d="M1923 532l-266 -58l161 -130l-257 -43l281 -360l-616 274l-81 -187l-121 150l-179 -150l-83 187l-248 -91l25 195l-277 -18l129 173l-266 58l213 126l-213 125l266 58l-129 173l277 -18l-25 195l248 -91l83 187l179 -150l179 150l83 -187l248 91l-25 -195l277 18
l-129 -173l266 -58l-213 -125z" />
  </g>

</svg>
