<?xml version="1.0" standalone="no"?>
<!DOCTYPE svg PUBLIC "-//W3C//DTD SVG 1.1//EN" "http://www.w3.org/Graphics/SVG/1.1/DTD/svg11.dtd" >
<svg viewBox="0 -410 2048 2048">
  <g transform="matrix(1 0 0 -1 0 1638)">
   <path fill="currentColor"
d="M1468 876q40 0 76 -16t62.5 -43.5t42.5 -65t16 -79.5t-15.5 -79t-42 -64.5t-62.5 -43.5t-76 -16h-571q-33 0 -62.5 13t-51.5 36t-35 54t-13 66t13 66t35 54t51.5 36t63.5 13q9 52 33.5 96t61 75.5t82.5 49.5t97 18q41 0 79.5 -12.5t71.5 -35.5t59.5 -55t42.5 -71
q19 4 42 4zM1178 264q8 -11 5.5 -24t-13.5 -20q-9 -6 -18 -6q-17 0 -26 14l-64 96q-8 11 -5.5 24t13.5 20q11 8 24 5.5t20 -13.5zM1402 264q8 -11 5.5 -24t-13.5 -20q-9 -6 -18 -6q-17 0 -26 14l-64 96q-8 11 -5.5 24t13.5 20q11 8 24 5.5t20 -13.5zM816 1238q-16 0 -16 16
v160q0 16 16 16t16 -16v-160q0 -16 -16 -16zM510 1281q-10 11 0 23q11 10 23 0l113 -114q5 -5 5 -11t-5 -11t-11 -5t-11 5zM1008 1168q-5 -5 -11 -5t-11 5t-5 11t5 11l112 113q11 10 23 0q10 -12 0 -23zM624 828q5 5 11 5t11 -5t5 -11t-5 -11l-112 -113q-12 -10 -23 0
q-10 11 0 23zM576 998q0 -16 -16 -16h-160q-16 0 -16 16t16 16h160q16 0 16 -16zM841 869q3 1 1.5 0t-1.5 0zM838 868q-47 -6 -84 -35q-51 20 -82.5 64t-31.5 101q0 36 14 68t38 56t56 38t68 14q56 0 99.5 -31t63.5 -79q-51 -32 -87 -82t-51 -113q-1 -1 -3 -1z" />
  </g>

</svg>
