<?xml version="1.0" standalone="no"?>
<!DOCTYPE svg PUBLIC "-//W3C//DTD SVG 1.1//EN" "http://www.w3.org/Graphics/SVG/1.1/DTD/svg11.dtd" >
<svg viewBox="0 -410 2048 2048">
  <g transform="matrix(1 0 0 -1 0 1638)">
   <path fill="currentColor"
d="M1112 1470q36 0 68 -14t56 -38t38 -56t14 -68t-14 -68t-38 -56t-56 -38t-68 -14t-68 14t-56 38t-38 56t-14 68t14 68t38 56t56 38t68 14zM1845 -141q1 -20 -3.5 -28.5t-19.5 -8.5t-30 3t-38 10q-3 1 -24.5 8.5t-57 19.5t-83.5 28t-103 35q68 -11 136.5 -21.5t138.5 -21.5
q5 -1 19 -2t26 6q4 4 4 15q0 10 -3.5 27.5t-14.5 49.5q5 -19 2 -28.5t-17 -11.5q-15 -2 -31 -2t-39 3q-5 0 -41.5 6t-95.5 15t-135.5 21t-161.5 26q6 6 11 19l144 387q11 29 -3 57t-44 37l-48 15l113 273q24 2 40.5 20t16.5 43q0 26 -19 45t-45 19h-82l-118 105
q-11 9 -21 12v1l-157 34l-147 31q-13 2 -26 2t-26 -8l-197 -112q-16 -9 -24 -23.5t-8.5 -30.5t7 -31t22.5 -24l77 -48l-481 -223q-12 19 -28.5 29t-31.5 3q-17 -6 -21.5 -26t1.5 -43l-22 -11q-6 -2 -8.5 -8.5t0.5 -12.5t9.5 -8.5t12.5 0.5l21 9q11 -19 27.5 -28.5t31.5 -3.5
q17 7 21.5 26.5t-1.5 42.5l502 233l61 -38l-49 -228q-3 -26 11.5 -48t40.5 -30l254 -72l-102 -274q-2 -5 -3 -10t-1 -10q-54 18 -109 37q-48 17 -104.5 36.5t-109.5 38.5l-16 -46q46 -16 100.5 -34.5t102.5 -35.5l110 -38q-63 9 -130 20q-57 9 -127 20t-136 22l-7 -47
q53 -9 110 -18t113 -18t110.5 -17.5t102.5 -15.5q114 -18 223 -35q134 -46 280.5 -96.5t298.5 -102.5q5 -2 18.5 -5.5t26.5 1.5q4 2 7 13q2 9 2 28t-5 52zM207 616q13 4 27 -20l-32 -15q-3 14 -1.5 23.5t6.5 11.5zM241 533q-12 -4 -27 19l32 16q6 -29 -5 -35zM1290 812
q8 -8 19.5 -12t22.5 -4h79l-109 -264l-183 54l67 317zM822 930l50 29l-11 -53zM1123 69l123 329l20 -6l-117 -315q-7 -18 -4 -33q-8 2 -15 5t-15 5q2 4 4 7.5t4 7.5z" />
  </g>

</svg>
