<?xml version="1.0" standalone="no"?>
<!DOCTYPE svg PUBLIC "-//W3C//DTD SVG 1.1//EN" "http://www.w3.org/Graphics/SVG/1.1/DTD/svg11.dtd" >
<svg viewBox="0 -410 2048 2048">
  <g transform="matrix(1 0 0 -1 0 1638)">
   <path fill="currentColor"
d="M1320 922q45 0 84 -18t68.5 -48.5t46.5 -72t17 -87.5q0 -47 -17 -88t-46.5 -71.5t-68.5 -48.5t-84 -18h-629q-37 0 -69.5 14.5t-57 40t-38.5 59.5t-14 73t14 73t38.5 59.5t57 40.5t69.5 15h1q9 58 36 107t67 84t91 55t108 20q45 0 87.5 -14t79.5 -39.5t66 -61.5t47 -79
q12 2 23.5 3.5t22.5 1.5zM1384 166l-78 -41l50 -6l-2 -15l-72 9l-57 -29l57 -31l72 10l2 -15l-50 -7l78 -41l-8 -12l-78 40l18 -42l-15 -6l-27 60l-56 30v-59l44 -51l-12 -9l-32 36v-77h-17v77l-31 -36l-14 9l45 51v61l-59 -32l-27 -60l-15 6l18 42l-78 -40l-8 12l78 41
l-50 7l2 15l72 -10l57 31l-57 29l-72 -9l-2 15l50 6l-78 41l8 14l78 -41l-18 42l15 6l27 -61l59 -30v60l-45 52l14 8l31 -36v82h17v-82l32 36l12 -8l-44 -52v-59l56 29l27 61l15 -6l-18 -42l78 41zM1024 358l-78 -41l50 -6l-2 -15l-72 9l-57 -29l57 -31l72 10l2 -15l-50 -7
l78 -41l-8 -12l-78 40l18 -42l-15 -6l-27 60l-56 30v-59l44 -51l-12 -9l-32 36v-77h-17v77l-31 -36l-14 9l45 51v61l-59 -32l-27 -60l-15 6l18 42l-78 -40l-8 12l78 41l-50 7l2 15l72 -10l57 31l-57 29l-72 -9l-2 15l50 6l-78 41l8 14l78 -41l-18 42l15 6l27 -61l59 -30v60
l-45 52l14 8l31 -36v82h17v-82l32 36l12 -8l-44 -52v-59l56 29l27 61l15 -6l-18 -42l78 41z" />
  </g>

</svg>
