<?xml version="1.0" standalone="no"?>
<!DOCTYPE svg PUBLIC "-//W3C//DTD SVG 1.1//EN" "http://www.w3.org/Graphics/SVG/1.1/DTD/svg11.dtd" >
<svg viewBox="0 -410 2048 2048">
  <g transform="matrix(1 0 0 -1 0 1638)">
   <path fill="currentColor"
d="M1093 1270q43 11 89 -14.5t89 -79.5t80 -131.5t62 -170.5t31.5 -178.5t-4.5 -154t-38 -113.5t-70 -56q-21 -6 -42 -3q-4 1 -8 1.5t-8 1.5q-2 1 -3.5 1t-3.5 1q-13 3 -28.5 6t-32.5 7q-50 10 -102 19.5t-107 19.5q-5 1 -9.5 1.5t-9.5 1.5q-17 3 -34.5 3.5t-41.5 -1.5
t-57 -6t-79 -11q-19 -3 -31.5 -4.5t-24.5 -3.5q-9 -2 -16.5 -2.5t-15.5 -1.5l103 -385q6 -21 2.5 -41t-13.5 -37.5t-26 -30t-37 -18.5t-41 -3t-37.5 13t-30 26.5t-18.5 37.5l-121 449q-10 4 -18.5 8t-16.5 9q-2 -2 -3 -2q-46 -12 -74 -16t-53 1q-35 7 -58 30.5t-34 68.5
q-12 44 -4 76t34 55q20 17 46 27.5t72 22.5q2 5 4.5 9t5.5 9q20 28 50 50.5t80 47.5q7 4 23 12t33 16t31 15t17 9q34 17 61 32t53 31q32 21 60 42.5t54 46.5q73 70 120 116.5t72 74.5q4 4 6.5 7t5.5 6q13 20 30 34t37 19zM342 548q-17 63 -5 110l-39 -13q-3 -17 -1 -42
t12 -60q8 -27 16 -47q11 -25 23 -40q2 -3 4 -4.5t3 -3.5q8 2 18 3.5t21 4.5q-36 36 -52 92zM233 521q10 -35 26 -52.5t40 -22.5q10 -2 16 -2q-11 16 -21 39q-5 11 -9 24t-8 27q-15 59 -14 94q-2 -2 -5 -4t-5 -4q-19 -17 -24.5 -40.5t4.5 -58.5zM1023 1010q-4 -1 -7 -2.5
t-6 -3.5q0 -51 8 -109t24 -119q17 -60 38.5 -113.5t47.5 -98.5q10 0 14 1q21 6 35 28.5t20 56.5t3 76.5t-15 88.5t-31 84.5t-41 65t-45.5 39t-44.5 6.5zM665 369q-2 8 -9.5 12.5t-15.5 2.5q-8 -3 -12 -10t-2 -15l96 -357q2 -8 9 -12t15 -2q9 2 13 9t2 15zM1145 434
q11 2 16 8t-6 22q-44 54 -81 132t-63 172q-23 86 -30 166t1 146q-2 20 -12 19.5t-20 -7.5q-44 -44 -105 -102q-53 -50 -119 -92q-27 -17 -55 -32.5t-61 -32.5q-5 -2 -22.5 -11t-37.5 -18q-8 -6 -20 -21t-21 -39.5t-10.5 -60t11.5 -83.5q15 -56 38.5 -88.5t46.5 -50t40.5 -23
t20.5 -5.5q12 2 24.5 3.5t25.5 3.5q12 2 25 3.5t31 4.5q48 7 82 11.5t59 6t44 1t38 -3.5l18 -3q36 -6 71.5 -12.5t70.5 -13.5zM1367 1079q57 -18 100.5 -62.5t60.5 -107.5q17 -62 1.5 -121t-54.5 -104q13 58 16.5 108.5t-8 97.5t-39.5 93.5t-77 95.5zM1438 1140
q69 -22 121 -75t72 -128t2.5 -146t-65.5 -124q22 72 28.5 134.5t-7.5 120t-50.5 111.5t-100.5 107zM1753 969q24 -89 2 -174.5t-79 -149.5q32 83 41 159t-9 146.5t-64 136t-123 126.5q41 -13 78 -36t67 -54t52.5 -70t34.5 -84z" />
  </g>

</svg>
