<?xml version="1.0" standalone="no"?>
<!DOCTYPE svg PUBLIC "-//W3C//DTD SVG 1.1//EN" "http://www.w3.org/Graphics/SVG/1.1/DTD/svg11.dtd" >
<svg viewBox="0 -410 2048 2048">
  <g transform="matrix(1 0 0 -1 0 1638)">
   <path fill="currentColor"
d="M1362 496q-11 -21 -24 -39l156 -48q10 -3 15 -12l127 -240q5 -9 2 -18.5t-12 -14.5t-18 -2t-14 12l-122 233l-171 52q-16 -15 -41 -28l160 -139q8 -8 8 -17l19 -271q1 -11 -5.5 -18t-16.5 -8q-11 -1 -18 5.5t-8 16.5l-17 262l-160 139q2 -10 3 -19t1 -20
q0 -47 -10.5 -86.5t-39.5 -66.5q5 -11 10 -25t2 -25q-3 -7 -10 -17q-7 -8 -19 -21.5t-33 -30.5q13 17 18.5 29.5t7.5 21.5q2 11 1 18l-5 12.5t-8 15.5q-2 -1 -3.5 -2t-3.5 -1q-6 -15 -20.5 -25t-31.5 -10q-25 0 -41 18h-10h-1q-18 -18 -41 -18q-17 0 -30.5 9t-19.5 23v-1
q-2 0 -4 1l-4 2q-3 -8 -5.5 -13.5t-4.5 -10.5q-2 -7 1 -18q2 -9 7.5 -21.5t18.5 -29.5q-21 17 -33.5 30.5t-18.5 21.5q-8 10 -10 17q-2 9 1 20.5t8 22.5q-36 26 -48 68t-12 92q0 25 6 48l-170 -150l-19 -260q-1 -11 -8 -17.5t-17 -5.5q-11 1 -17.5 8t-5.5 18l19 271
q2 11 8 17l165 143q-10 6 -19 12t-17 14l-179 -56l-123 -232q-5 -8 -14.5 -11t-18.5 2q-8 5 -11.5 14.5t1.5 18.5l128 240q5 9 14 12l166 51q-11 15 -21 35l-238 54q-9 4 -13 9l-192 256q-6 8 -5 18t9 16t18 4.5t16 -9.5l186 -248l196 -45q-3 11 -5.5 22.5t-4.5 22.5
l-169 104q-9 6 -11 16l-114 600q-2 10 3.5 18t15.5 10t18 -3.5t10 -15.5l112 -590l129 -79q-3 50 3 106q5 60 23 118t44.5 110t60.5 96t72.5 76t80 50t83.5 18q62 0 122.5 -39t111 -104.5t85.5 -150t45 -174.5q3 -26 4 -51t1 -48l116 72l112 590q2 10 10.5 15.5t17.5 3.5
q10 -2 16 -10t4 -18l-115 -600q-2 -10 -11 -16l-155 -96q-2 -14 -4.5 -26.5t-6.5 -24.5l184 41l186 249q6 8 16 9.5t18 -4.5t9 -16t-5 -18l-192 -256q-5 -6 -13 -8zM912 1014q14 -88 41 -153.5t59 -112.5q-14 -21 -31 -42q-14 -19 -32 -41t-37 -43q20 12 40.5 31t36.5 36
q18 20 35 43q17 -23 35 -43q16 -17 36 -36t41 -31q-20 21 -37.5 43t-31.5 41q-17 21 -31 42q32 47 59.5 112.5t40.5 153.5q-10 -38 -24 -74t-27 -65q-16 -33 -32 -63q-7 -12 -14 -23.5t-15 -22.5q-8 11 -15 23t-14 23q-17 30 -32 63q-14 29 -27.5 65t-23.5 74zM874 200
q0 -2 1 -3q-1 0 -1 3zM877 193q0 -1 0.5 -1t0.5 -2q0 2 -1 3zM909 191q9 0 15.5 6.5t6.5 15.5t-6.5 16t-15.5 7t-16 -6.5t-7 -16.5q0 -9 7 -15.5t16 -6.5zM934 150q0 -5 3 -6q-1 1 -1.5 2.5t-1.5 3.5zM988 133q14 0 23 9.5t9 22.5q0 14 -9 23t-23 9t-23 -9t-9 -23
q0 -13 9 -22.5t23 -9.5zM1030 129q1 2 2 2.5t2 2.5q0 -1 3 -4q-1 2 -2 2t-1 2q-3 -3 -4 -5zM1080 133q14 0 23 9.5t9 22.5q0 14 -9 23t-23 9t-23 -9t-9 -23q0 -13 9 -22.5t23 -9.5zM1129 194l3 -6zM1159 199q9 0 16 6.5t7 15.5q0 10 -7 16.5t-16 6.5t-15.5 -7t-6.5 -16
t6.5 -15.5t15.5 -6.5zM1179 188q3 1 3 3z" />
  </g>

</svg>
