<?xml version="1.0" standalone="no"?>
<!DOCTYPE svg PUBLIC "-//W3C//DTD SVG 1.1//EN" "http://www.w3.org/Graphics/SVG/1.1/DTD/svg11.dtd" >
<svg viewBox="0 -410 2048 2048">
  <g transform="matrix(1 0 0 -1 0 1638)">
   <path fill="currentColor"
d="M171 1016q-1 3 -1 8v3v337l246 -140h-214v-152q33 23 96.5 44.5t155.5 43.5q50 12 104.5 23.5t102.5 19.5t86 13t55 5q57 0 109.5 -14t114.5 -50q1 0 5 2q4 1 8.5 2t9.5 3q28 9 65 17q2 0 3 0.5t3 0.5v83l108 -61h-76v-16q32 6 66.5 10t69.5 6v108l134 -76h-102v-32
q41 2 82.5 0t85.5 -7v141l152 -86h-120v-59q51 -8 97 -23.5t87 -37.5v173l180 -101h-60h-85v-92q45 -29 78 -65t49 -76q25 -63 6 -120q0 -2 -0.5 -2.5t-0.5 -1.5l-57 -201h41q-13 -12 -26.5 -22.5t-27.5 -21.5l-39 -133q6 4 11 7.5t10 7.5l18 12l69 3q-5 -5 -10.5 -10
t-11.5 -10q-3 -3 -5 -4q-6 -5 -12 -9.5t-12 -9.5h-1q-11 -10 -25 -19q-1 -1 -3 -1q-6 -5 -13 -9t-14 -9l-10 -6l-10 -6l-43 -149q-1 -6 -9 -10q-151 -71 -307.5 -104t-320.5 -33q-128 0 -248 18t-233 50q-40 11 -75 23t-67 24q-11 5 -20.5 8.5t-17.5 6.5q-3 2 -6 3.5t-8 3.5
q-6 2 -9 10l-125 460q-36 20 -60 41h48l-68 248q-2 6 -3 10zM728 706q-85 24 -161.5 51t-141 56.5t-115 60.5t-84.5 62l49 -179q4 -2 23.5 -10t48 -20t63 -26.5t68.5 -28t64 -25t50 -18.5q155 -52 304.5 -84.5t292.5 -40.5q178 -11 325 22t260 114l37 128q-71 -66 -212 -108
q-83 -25 -184 -33.5t-213.5 -2t-232.5 27t-241 54.5zM346 891q38 -22 83.5 -44t99.5 -42v164zM678 754q15 -5 29.5 -8.5t29.5 -8.5q57 -16 113.5 -28.5t113.5 -23.5v283zM1486 838q-59 12 -119 39l-38 -223q69 2 131 9.5t117 22.5zM1584 737v95q-8 -1 -16.5 -1h-16.5
q-6 0 -12 0.5t-12 0.5zM1338 892q-50 25 -100 64l-64 -81l36 -21h-53l-142 -177q74 -11 144.5 -17t137.5 -6zM1116 854h-120v-149zM1214 977q-32 27 -60.5 50t-54.5 42l-114 -85l161 -92zM1650 844q-15 -6 -34 -9v-137q52 17 91.5 37t67.5 43zM1616 868q31 6 52 22h-52v-22z
M1758 574q-121 -74 -267.5 -101t-302.5 -18q-146 8 -299 41t-310 87q-22 7 -56 19t-73 27t-79.5 32t-76.5 35l116 -424q1 -1 5 -3q8 -3 17 -6.5t20 -8.5q30 -11 64.5 -23t73.5 -23q14 -4 28 -7t28 -7v310l184 -47v-298q57 -8 115 -12.5t118 -4.5q89 0 175.5 10t171.5 30v208
l140 48v-216q30 11 60 23.5t60 26.5l32 112q-67 -34 -137 -54v48q42 14 80.5 30t73.5 36zM1758 930l72 -41h-117q-11 -15 -27 -27l115 -61q34 36 42 76.5t-9 82.5zM1698 1033q27 -35 30 -80l91 35q-31 49 -90 91zM1602 1100q5 -2 9.5 -4t9.5 -4q16 -7 29.5 -15.5t24.5 -18.5
l26 38q-36 22 -78 37zM1502 1126q37 -6 68 -15l22 33q-39 12 -81 18zM1479 1166q-34 4 -69 6l1 -36l30 -2t29 -3zM1318 1173l2 -34h29.5t28.5 -1l-1 35h-59zM1287 1172q-13 -1 -25.5 -2t-26.5 -2l11 -32q11 1 21.5 1t21.5 1zM1203 1164q-13 -2 -25 -4l-24 -4l8 -27
q13 2 25.5 2.5t25.5 1.5zM1164 1097l-22 -2l-22 -2q26 -20 55 -43t61 -50q11 -11 23.5 -20.5t24.5 -17.5q18 1 50.5 2t70.5 -2t75.5 -12.5t64.5 -28.5q14 -10 23 -18t16 -15v143l110 -63q-13 63 -89.5 96.5t-205.5 39.5q-57 3 -116 1t-119 -8zM1121 1149q-14 -3 -27.5 -6.5
t-25.5 -6.5l24 -16q4 0 14 2l24 3l-8 24h-1zM1072 1088q-32 23 -59.5 39t-53.5 27l-277 -119l93 -53h-214v-189l40 -14t41 -14l-1 1zM214 1040q-12 -11 -12 -16l3 -8q20 -49 108 -105l216 93v119l118 -67l269 114q-29 10 -57 14t-58 4q-16 0 -53 -5t-84 -13t-100.5 -19
t-102.5 -23q-60 -15 -108.5 -30t-83.5 -29q-38 -15 -55 -29zM269 550q3 -2 6.5 -3t7.5 -3l17 -60q-38 17 -70.5 33t-52.5 33h92zM2048 550v-960h-2048v960h152l12 -10q47 -37 142 -76l58 -211q4 -13 18 -21q5 -2 8 -3t6 -3q8 -4 17.5 -7.5t20.5 -8.5q33 -13 69 -24.5
t75 -22.5q119 -34 240.5 -51.5t244.5 -17.5q170 0 328 34t307 104q13 6 16 20l41 144q35 20 65.5 43t58.5 49l31 29l-117 -4l-4 -3h-1l11 40h249zM1197 334q52 -2 100 1t96 9v-48q-96 -12 -197 -9q-86 2 -173.5 12t-178.5 27v49q91 -18 179 -28.5t174 -12.5z" />
  </g>

</svg>
