<?xml version="1.0" standalone="no"?>
<!DOCTYPE svg PUBLIC "-//W3C//DTD SVG 1.1//EN" "http://www.w3.org/Graphics/SVG/1.1/DTD/svg11.dtd" >
<svg viewBox="0 -410 2048 2048">
  <g transform="matrix(1 0 0 -1 0 1638)">
   <path fill="currentColor"
d="M632 621q11 -8 19 -19h-19v19zM520 474h96v-96h-96v96zM520 362h96v-32q-43 -29 -96 -32v64zM520 586h96v-96h-96v96zM632 474h64q-3 -53 -32 -96h-32v96zM632 586h32q29 -43 32 -96h-64v96zM632 362h19q-4 -5 -9 -10t-10 -9v19zM520 666q55 -3 96 -32v-32h-96v64z
M504 362v-64q-55 3 -96 32v32h96zM408 474h96v-96h-96v96zM408 586h96v-96h-96v96zM504 602h-96v32q41 29 96 32v-64zM392 343q-11 8 -19 19h19v-19zM1168 602q17 0 28.5 -11.5t11.5 -28.5v-224q0 -17 -11.5 -28.5t-28.5 -11.5h-352q-17 0 -28.5 11.5t-11.5 28.5v224
q0 17 11.5 28.5t28.5 11.5h352zM1152 546h-320v-94h320v94zM373 602q8 11 19 19v-19h-19zM360 378q-14 20 -22 45t-10 51h64v-96h-32zM328 490q2 27 10 51.5t22 44.5h32v-96h-64zM1480 362h96v-32q-43 -29 -96 -32v64zM1592 621q11 -8 19 -19h-19v19zM1480 586h96v-96h-96
v96zM1480 474h96v-96h-96v96zM1333 602q8 11 19 19v-19h-19zM1464 362v-64q-55 3 -96 32v32h96zM1592 586h32q29 -43 32 -96h-64v96zM1288 490q2 27 10 51.5t22 44.5h32v-96h-64zM1654 786q42 -11 78.5 -36t64 -59.5t43.5 -76t16 -84.5v-80q0 -86 -32.5 -162t-89 -132.5
t-132.5 -89t-162 -32.5h-96q-48 0 -84 5t-60 12q-28 8 -48 18h-320q-19 -10 -47 -18q-24 -7 -60 -12t-85 -5h-32q-86 0 -162 32.5t-132.5 89t-89 132.5t-32.5 162v80q0 43 16 84.5t43.5 76t64 59.5t78.5 36q29 7 63 15t64 14q35 7 71 14v107q0 36 14.5 67.5t39.5 54.5
t58.5 36.5t71.5 13.5h432q38 0 71.5 -13.5t58.5 -36.5t39.5 -54.5t14.5 -67.5v-97q45 -7 92 -16q40 -8 85.5 -17.5t84.5 -19.5zM688 844q73 10 157.5 16.5t178.5 6.5q74 0 142 -4.5t130 -10.5v84q0 31 -25 53.5t-63 22.5h-432q-38 0 -63 -22.5t-25 -53.5v-92zM768 802v-128
h448v128h-448zM512 282q41 0 77.5 16t63.5 43t43 63.5t16 77.5q0 40 -15 76t-41 63t-61 43t-75 18h-16q-40 -2 -75 -18t-61 -43t-41 -63t-15 -76q0 -41 16 -77.5t43 -63.5t63.5 -43t77.5 -16zM832 226h-64v-64h64v64zM960 226h-64v-64h64v64zM1088 226h-64v-64h64v64z
M1216 226h-64v-64h64v64zM1224 562q0 23 -16.5 39.5t-39.5 16.5h-352q-23 0 -39.5 -16.5t-16.5 -39.5v-224q0 -23 16.5 -39.5t39.5 -16.5h352q23 0 39.5 16.5t16.5 39.5v224zM1472 282q41 0 77.5 16t63.5 43t43 63.5t16 77.5q0 40 -15 76t-41 63t-61 43t-75 18h-16
q-40 -2 -75 -18t-61 -43t-41 -63t-15 -76q0 -41 16 -77.5t43 -63.5t63.5 -43t77.5 -16zM1592 474h64q-3 -53 -32 -96h-32v96zM1480 666q55 -3 96 -32v-32h-96v64zM1592 362h19q-4 -5 -9 -10t-10 -9v19zM1464 602h-96v32q41 29 96 32v-64zM1368 474h96v-96h-96v96zM1368 586
h96v-96h-96v96zM1352 343q-11 8 -19 19h19v-19zM1320 378q-14 20 -22 45t-10 51h64v-96h-32z" />
  </g>

</svg>
