<?xml version="1.0" standalone="no"?>
<!DOCTYPE svg PUBLIC "-//W3C//DTD SVG 1.1//EN" "http://www.w3.org/Graphics/SVG/1.1/DTD/svg11.dtd" >
<svg viewBox="0 -410 2048 2048">
  <g transform="matrix(1 0 0 -1 0 1638)">
   <path fill="currentColor"
d="M775 618q10 9 23 9.5t23 -9.5t10 -23t-10 -23l-159 -158q-9 -10 -22 -10t-23 10t-10 23t10 23zM1273 1026q-10 -9 -23 -9.5t-23 9.5t-10 23t10 23l159 158q9 10 22 10t23 -10t10 -23t-10 -23zM736 822q0 -14 -9 -23t-23 -9h-224q-14 0 -23 9t-9 23t9 23t23 9h224
q14 0 23 -9t9 -23zM1024 1110q-14 0 -23 9t-9 23v224q0 14 9 23t23 9t23 -9t9 -23v-224q0 -14 -9 -23t-23 -9zM820 1071q10 -10 10 -23t-10 -23t-23 -10t-23 10l-158 159q-10 9 -10 22t10 23t23 10t23 -10zM1568 854q14 0 23 -9t9 -23t-9 -23t-23 -9h-224q-14 0 -23 9t-9 23
t9 23t23 9h224zM1431 460q10 -10 10 -23t-10 -23t-23 -10t-22 10l-159 158q-10 10 -10 23t10 23t23 10t23 -10zM1024 534q14 0 23 -9t9 -23v-224q0 -14 -9 -23t-23 -9t-23 9t-9 23v224q0 14 9 23t23 9zM1024 1014q40 0 75 -15t61 -41t41 -61t15 -75t-15 -75t-41 -61t-61 -41
t-75 -15t-75 15t-61 41t-41 61t-15 75t15 75t41 61t61 41t75 15z" />
  </g>

</svg>
