<?xml version="1.0" standalone="no"?>
<!DOCTYPE svg PUBLIC "-//W3C//DTD SVG 1.1//EN" "http://www.w3.org/Graphics/SVG/1.1/DTD/svg11.dtd" >
<svg viewBox="0 -410 2048 2048">
  <g transform="matrix(1 0 0 -1 0 1638)">
   <path fill="currentColor"
d="M1478 335q26 -25 62 -43q31 -16 77.5 -27.5t110.5 -7.5q-7 -12 -22 -21.5t-34.5 -16.5t-43 -12t-46.5 -8q-55 -7 -120 -8q-50 0 -90 12.5t-71 32t-53.5 43.5t-38.5 47.5t-25.5 44t-13.5 32.5q-1 2 -6 10.5t-13 12.5l-8 2q-5 1 -11 1.5t-14 -0.5h1q-22 -1 -45.5 -2
t-46.5 -1q-107 0 -206.5 17.5t-185.5 49.5t-157 77t-121.5 99.5t-78 117.5t-27.5 131t27.5 131t78 117.5t121.5 99.5t157 77t185.5 49.5t206.5 17.5t206.5 -17.5t185.5 -49.5t157 -77t121.5 -99.5t78 -117.5t27.5 -131q0 -60 -22 -116t-62 -106t-96.5 -93t-126.5 -77
q-11 -7 -19 -13.5t-13 -12.5q-6 -7 -10 -13q-5 -9 -9.5 -25t-4 -37t8.5 -44.5t29 -45.5z" />
  </g>

</svg>
