<?xml version="1.0" standalone="no"?>
<!DOCTYPE svg PUBLIC "-//W3C//DTD SVG 1.1//EN" "http://www.w3.org/Graphics/SVG/1.1/DTD/svg11.dtd" >
<svg viewBox="0 -410 2048 2048">
  <g transform="matrix(1 0 0 -1 0 1638)">
   <path fill="currentColor"
d="M1027 1410q107 0 206.5 -17.5t185.5 -49.5t157 -77t121.5 -99.5t78 -117.5t27.5 -131t-27.5 -131t-78 -117.5t-121.5 -99.5t-157 -77t-185.5 -49.5t-206.5 -17.5q-46 0 -92 3h1q-8 1 -14.5 0.5t-10.5 -1.5q-5 -1 -8 -2q-8 -4 -12.5 -12.5t-5.5 -10.5q-7 -18 -25.5 -53.5
t-53 -70.5t-87 -61.5t-127.5 -26.5q-65 1 -120 8q-23 3 -46.5 8t-43 12t-34.5 16.5t-22 21.5q63 -4 110 8t78 28q36 18 62 42q21 22 29 45.5t8.5 44.5t-4 37t-9.5 25q-4 6 -10 13q-11 12 -32 26q-70 34 -126.5 77t-96.5 93t-62 106t-22 116q0 68 27.5 131t78 117.5
t121.5 99.5t157 77t185.5 49.5t206.5 17.5z" />
  </g>

</svg>
