<?xml version="1.0" standalone="no"?>
<!DOCTYPE svg PUBLIC "-//W3C//DTD SVG 1.1//EN" "http://www.w3.org/Graphics/SVG/1.1/DTD/svg11.dtd" >
<svg viewBox="0 -410 2048 2048">
  <g transform="matrix(1 0 0 -1 0 1638)">
   <path fill="currentColor"
d="M240 1238h1568v-864h-1568v864zM1010 1012q-3 0 -5.5 -2.5t-0.5 -4.5l71 -397q2 -8 10 -8h74q8 0 12 8l219 398q5 7 -4 7h-68q-7 0 -12 -7l-163 -298q-1 -3 -2.5 -3t-2.5 3l-49 296q-2 8 -10 8h-69zM654 944h121l-72 -344h85l72 344h119l15 68h-325zM1856 1286v-960h-752
v-148q-5 -11 -18 -17t-27 -8q-16 -4 -35 -3q-19 -1 -35 3q-14 2 -27 8t-18 17v148h-752v960h1664zM1824 1246q0 8 -8 8h-1584q-8 0 -8 -8v-880q0 -8 8 -8h1584q8 0 8 8v880zM1120 225q49 -5 90 -13.5t71 -20.5t46.5 -26.5t16.5 -30.5q0 -20 -25 -37.5t-68.5 -30.5
t-102 -20.5t-124.5 -7.5t-124.5 7.5t-102 20.5t-68.5 30.5t-25 37.5q0 16 16.5 30.5t46.5 26.5t71 20.5t90 13.5v-56q6 -14 21.5 -21t32.5 -10q19 -4 42 -4t42 4q17 3 32.5 10t21.5 21v56z" />
  </g>

</svg>
