<?xml version="1.0" standalone="no"?>
<!DOCTYPE svg PUBLIC "-//W3C//DTD SVG 1.1//EN" "http://www.w3.org/Graphics/SVG/1.1/DTD/svg11.dtd" >
<svg viewBox="0 -410 2048 2048">
  <g transform="matrix(1 0 0 -1 0 1638)">
   <path fill="currentColor"
d="M1084 251q32 -17 52 -49t20 -71q0 -28 -10.5 -53t-29 -43.5t-43.5 -29t-53 -10.5t-53 10.5t-43.5 29t-29 43.5t-10.5 53q0 39 20 71t52 49v556h128v-556zM1180 336q50 -36 77 -87.5t27 -113.5q0 -53 -21 -100t-57 -82t-84 -55.5t-102 -20.5t-101 20t-81.5 55t-54 82
t-19.5 101q0 60 24.5 112t71.5 88v856q0 33 12.5 62.5t34 51t51 34t62.5 12.5t62.5 -12.5t51 -34t34 -51t12.5 -62.5v-855zM1020 -59q41 0 77.5 15.5t64 42t43.5 61.5t16 75q0 49 -23 89t-67 68q-8 5 -12 14t-2 18q-1 1 -1 3v864q0 40 -28 68t-68 28t-68 -28t-28 -68v-864
q0 -1 -0.5 -1.5t-0.5 -1.5q5 -19 -13 -32q-40 -26 -61 -67t-21 -90q0 -41 15 -76t40.5 -61.5t60.5 -41.5t76 -15z" />
  </g>

</svg>
