<?xml version="1.0" standalone="no"?>
<!DOCTYPE svg PUBLIC "-//W3C//DTD SVG 1.1//EN" "http://www.w3.org/Graphics/SVG/1.1/DTD/svg11.dtd" >
<svg viewBox="0 -410 2048 2048">
  <g transform="matrix(1 0 0 -1 0 1638)">
   <path fill="currentColor"
d="M1728 909q34 -15 28 -39q1 -58 -6 -135t-21 -162t-34 -172.5t-44 -165.5q-32 -101 -67.5 -177t-75.5 -122.5t-83.5 -61.5t-90.5 6q-45 20 -92 74.5t-91.5 133t-84 175t-68.5 200.5q-2 10 -5 19t-5 19q-38 -1 -59.5 -6t-30.5 -15q-13 -16 -3 -61.5t55 -126.5
q47 -86 46.5 -147t-54.5 -97q-37 -25 -104 -33q-11 -2 -22.5 -3t-25 -1.5t-31 -1.5t-40.5 -1q-25 -1 -37 -1.5t-26 -1.5q-60 -3 -104 -11t-73.5 -23t-46 -37.5t-22.5 -55.5l-24 82l-71 -66q11 60 44.5 102t87.5 66q41 18 89.5 26.5t114.5 11.5q14 1 27 1.5l39 1.5q40 1 69 3
t49.5 5t33 7t21.5 10q7 4 9 8.5t2 13.5q0 32 -35 95q-27 51 -44 93.5t-23 78.5q-50 -45 -99 -81.5t-94.5 -62.5t-86 -40t-73.5 -14q-52 0 -86 31.5t-51.5 90t-19 142.5t10.5 189q6 51 15 104q0 5 1 8.5t2 7.5q12 71 29 142.5t35.5 137.5t39 123t40.5 100q3 11 13 17t30 6
q45 -1 79 -13.5t58 -35.5q3 2 6.5 4.5t8.5 5.5q30 19 68 35q57 25 123 38t140 12q95 -2 194.5 -29t205.5 -84l-94 -8l48 -76q-95 51 -183.5 75.5t-172.5 25.5q-63 2 -119 -9.5t-105 -31.5q-16 -7 -29.5 -14t-25.5 -14q-8 -7 -13 -9q2 -6 3 -12t3 -13q3 -17 3 -28
q94 -47 191.5 -74.5t182.5 -27.5q64 0 84.5 -38.5t-0.5 -104.5q-3 -8 -6 -16.5t-7 -16.5q27 -9 57 -15q96 109 170 167.5t132 72.5q62 16 102.5 -10.5t58.5 -78.5q5 -12 10 -34.5t8 -37.5q10 -2 20.5 -5.5t21.5 -8.5zM1724 875q-2 1 -8 5q-60 24 -105 15t-78 -43
q-7 -6 -12.5 -12.5t-10.5 -14.5q11 1 21 2l20 2q51 6 91.5 15t63.5 20q15 7 18 11zM1530 992q-35 -9 -88 -49.5t-124 -116.5q38 -3 76.5 -4t77.5 1q2 3 4 7t5 9q13 21 29 37q32 32 75 46q-2 8 -4 22t-4 20q-7 20 -17 26.5t-30 1.5zM650 1212q-20 35 -55 55t-90 21h-11
q2 -3 4.5 -7t7.5 -10q17 -20 50 -44.5t78 -50.5q8 -5 17.5 -10t18.5 -10q-1 0 -1 1v3q-5 27 -19 52zM515 900q4 34 5.5 56.5t-0.5 36t-8 20.5t-17 11q-13 5 -33 -5.5t-43 -33.5q-10 -10 -18.5 -21t-16.5 -21q-2 -2 -2 -3.5t-2 -3.5q7 9 18.5 19.5t24 18t26.5 8.5t26 -9
t21.5 -34t15.5 -67q2 13 3 28zM332 672q-12 -98 -10.5 -175.5t15.5 -131.5t41 -82.5t67 -28.5q31 0 71 15t85 42t94 65.5t99 85.5q3 49 29 82q17 20 40 32t52 18q3 1 5.5 1t5.5 1q18 20 34 40q-7 44 -8.5 81.5t1.5 67.5q7 69 41.5 96t92.5 1q8 -3 14.5 -5.5t14.5 -5.5
q5 9 7.5 17t5.5 16q17 51 4 75.5t-58 24.5q-53 0 -110.5 10.5t-117 29.5t-118 46t-113.5 59q-46 27 -81 53.5t-54 48.5q-2 1 -4 5q-23 -52 -44 -119t-41 -142q4 3 9 9q28 27 54 40t48 4q35 -16 40 -60q1 -8 1.5 -15.5t-0.5 -17t-2.5 -23.5t-3.5 -35q-2 -11 -3 -19.5
t-1 -17.5q0 -1 -0.5 -1.5t-0.5 -2.5q0 -3 -1 -8.5t-2 -11.5q-5 -24 -15 -45q-15 -32 -38.5 -50t-56.5 -19q8 -12 17 -19q9 -8 19 -11q6 -3 8 -3q10 -2 10 -13q-1 -5 -5 -8t-9 -2q-2 1 -4.5 1.5t-7.5 2.5q-13 4 -26 14q-20 17 -31 48q-2 6 2 11t11 4q32 -5 54 9.5t36 43.5
q4 8 6.5 17t5.5 17q-2 0 -4 1t-4 1q-3 1 -11 6.5t-16 11.5t-13.5 10t-4.5 4q-21 13 -39 21q-29 11 -44 11q-2 -8 -3 -15.5t-3 -15.5q16 -9 25.5 -25t9.5 -36q0 -26 -16.5 -45.5t-41.5 -23.5q-2 -17 -4.5 -34t-4.5 -33zM1686 507q0 3 0.5 5.5t-0.5 6.5q-3 20 -17 40
q-5 7 -10 14.5t-13 22.5q-1 0 -2 2q-14 26 -22.5 36t-16.5 10q-17 0 -27 -15.5t-21 -56.5q0 -1 -1.5 -5.5t-3 -10.5l-3 -12t-2.5 -9l-4 -16t-5 -15q23 37 42 54.5t34.5 21.5t27.5 -3t20.5 -19t14.5 -26t9 -25zM1696 564q13 76 20.5 147t6.5 128q-1 -1 -2.5 -1.5t-2.5 -1.5
q-27 -12 -69.5 -21.5t-95.5 -15.5q-63 -7 -128 -7.5t-127 6t-119 20.5t-105 35q-79 36 -89 -70q-6 -54 6 -134t38 -174q28 -101 66 -194.5t80.5 -169.5t86.5 -128.5t85 -70.5q37 -17 73.5 -2t71 58.5t67 114t62.5 164.5q16 52 30.5 109t26.5 116q-6 3 -16.5 5t-27.5 3
q-24 0 -58 -7q-2 -1 -6 -1q-3 -1 -4 -1.5t-3 -0.5q-10 -2 -12 -2q-14 -3 -21 -2q0 1 -2 1q-5 -29 -2 -54q5 -25 19 -42t41 -25q6 -2 8 -8t-3 -11q-5 -6 -10.5 -11t-12.5 -9q-16 -10 -31.5 -12.5t-30.5 -0.5h-2q-1 0 -2 1q-5 1 -8 5t-1 9q1 5 5 8t9 1q0 -1 3 -1
q11 -1 22.5 0.5t22.5 9.5q2 1 2.5 1.5t2.5 1.5q-25 11 -38.5 31.5t-18.5 47.5q-2 17 -1 35t4 35q2 7 3 11.5t2 7.5q0 2 1 4q3 9 6 18.5t6 20.5q1 3 2.5 9l3 12t3 11t1.5 6q13 48 27.5 68.5t44.5 20.5q17 0 28 -13.5t32 -44.5q0 -1 1 -2q8 -14 12.5 -21t9.5 -13q2 -2 3.5 -5
t3.5 -5zM1165 505q-2 0 -3.5 -0.5t-3.5 -0.5l-3 -1.5t-3 -0.5q-10 -2 -12 -2q-14 -3 -21 -2q-14 2 -18.5 11.5t0.5 24.5q20 59 82 98q24 15 53 27.5t76 28.5q42 14 59 -19q12 -23 9 -66q-1 -15 -4 -33t-7 -34.5t-8 -30t-7 -21.5q-8 -16 -32 -6q-4 2 -16.5 8t-16.5 8
q-17 8 -33 12.5t-33 5.5q-24 0 -58 -7zM1123 527q0 -2 -0.5 -2.5t-0.5 -2.5h4q50 34 85 49t59 17t37.5 -6.5t20.5 -21t8.5 -26.5t1.5 -24q5 19 10.5 45.5t7.5 48.5q2 18 0 32t-6 22q-5 8 -11.5 10t-19.5 -3q-46 -16 -79 -30.5t-56.5 -30.5t-38 -34.5t-22.5 -42.5zM1216 108
q72 83 136 119q27 15 55.5 21.5t55 -3t49 -38.5t38.5 -85q-17 17 -42 25.5t-49 12.5q-28 4 -58 4q-31 -3 -63 -9q-27 -6 -60 -16.5t-62 -30.5zM1246 332q0 -24 -13 -34t-31 -10t-31 10t-13 34q0 11 5 30q4 17 13 43.5t26 68.5q17 -42 25 -68.5t13 -43.5q4 -19 6 -30z
M694 762q-20 2 -20 17q0 14 21 40.5t51 50.5q36 29 70 42t61 4q46 -17 55 -65q1 -9 1.5 -17t0 -18.5t-2 -24.5t-3.5 -35q-2 -11 -2 -18.5t-1 -14.5q-2 -17 -12 -24t-24 1q-3 1 -11 6.5l-16 11t-14 9.5t-5 4q-10 7 -19.5 12.5t-19.5 8.5l-6 3q-18 6 -35 7.5t-43 -0.5
q-14 -1 -18 -1t-8 1zM761 853q-14 -11 -26 -22.5t-21 -22.5q-5 -5 -9 -13q9 7 25.5 18.5t36 20.5t40.5 12t40 -6t33.5 -33.5t21.5 -70.5q0 5 1 10.5t2 13.5q2 20 3.5 33.5t2 23t0 17t-1.5 14.5q-6 34 -40 47q-20 7 -48 -4.5t-60 -37.5zM804 700q29 0 50 -20.5t21 -50.5
q0 -29 -21 -50t-50 -21t-50 21t-21 50q0 30 21 50.5t50 20.5zM474 533q30 -10 75 -15q38 -5 96 -4.5t138 13.5q-130 -86 -228 -108q-42 -9 -80.5 -5.5t-66.5 29t-41.5 77.5t-4.5 139q5 -33 23 -56.5t38 -39.5q23 -18 51 -30z" />
  </g>

</svg>
