<?xml version="1.0" standalone="no"?>
<!DOCTYPE svg PUBLIC "-//W3C//DTD SVG 1.1//EN" "http://www.w3.org/Graphics/SVG/1.1/DTD/svg11.dtd" >
<svg viewBox="0 -410 2048 2048">
  <g transform="matrix(1 0 0 -1 0 1638)">
   <path fill="currentColor"
d="M539 260q-15 16 -24 36t-10 44l-27 1q-45 1 -78 15t-51 36.5t-19.5 52t16.5 62.5l-16 5q-43 13 -67.5 34.5t-29.5 48t9 54.5t48 54q-33 25 -47 53.5t-9 54.5t29 48t67 35l16 5q-15 28 -13 57t19 53t49 39.5t77 16.5l27 1q1 28 19.5 53.5t48 43t68.5 24t83 -4.5l19 -5
q18 28 50.5 46.5t71.5 25t80.5 -1t78.5 -31.5q37 24 77.5 33t78.5 3.5t71 -24.5t54 -51l19 5q43 11 82 7.5t68.5 -19.5t47.5 -42.5t20 -61.5l28 -1q45 -1 77.5 -14.5t50.5 -36t19.5 -52t-16.5 -62.5l16 -5q43 -13 67.5 -35t29.5 -48t-9 -54.5t-48 -53.5q33 -26 47 -54
t9 -54.5t-29 -48.5t-67 -35l-16 -4q15 -28 13 -57t-19 -52.5t-48.5 -39.5t-76.5 -17l-28 -1q-2 -27 -19.5 -53t-47.5 -43.5t-69 -24t-82 4.5l-19 5q-18 -28 -50.5 -46.5t-71.5 -25t-80.5 1t-78.5 31.5q-37 -24 -77.5 -33t-79 -3.5t-71 24.5t-53.5 51l-19 -5q-36 -9 -68 -8
q18 -21 18 -46q0 -19 -10 -36t-27.5 -29.5t-41 -19.5t-49.5 -7q-27 0 -50 7t-40.5 19.5t-27.5 29.5t-10 36q0 17 9.5 33t26 28t38.5 19.5t47 8.5zM375 -27q-29 0 -50.5 15t-21.5 36t21 36.5t51 15.5t51 -15.5t21 -36.5t-21 -36t-51 -15z" />
  </g>

</svg>
