<?xml version="1.0" standalone="no"?>
<!DOCTYPE svg PUBLIC "-//W3C//DTD SVG 1.1//EN" "http://www.w3.org/Graphics/SVG/1.1/DTD/svg11.dtd" >
<svg viewBox="0 -410 2048 2048">
  <g transform="matrix(1 0 0 -1 0 1638)">
   <path fill="currentColor"
d="M1509 260q25 -1 47 -8.5t38.5 -19.5t26 -28t9.5 -33q0 -19 -10.5 -36t-27.5 -29.5t-40.5 -19.5t-49.5 -7q-27 0 -50 7t-40.5 19.5t-27.5 29.5t-10 36q0 26 17 46q-30 -1 -68 8l-19 5q-21 -32 -54 -51t-71 -24.5t-78.5 3.5t-77.5 33q-37 -24 -78.5 -31.5t-80.5 -1
t-71.5 25t-50.5 46.5l-19 -5q-43 -11 -82 -4.5t-68.5 24t-48 43.5t-19.5 53l-27 1q-45 1 -76.5 17t-49 39.5t-19.5 52.5t13 57l-16 4q-43 13 -67 35t-29 48.5t9 54.5t47 54q-34 25 -48 53.5t-9 54.5t29.5 48t67.5 35l16 5q-18 33 -16.5 62.5t19.5 52t51 36t78 14.5l27 1
q2 35 20 62t48 43t69 19.5t82 -8.5l20 -6q21 32 53.5 51.5t71 24.5t79 -3.5t77.5 -32.5q37 24 78.5 31.5t80.5 1t71.5 -25.5t50.5 -47l19 5q43 11 82 4.5t68.5 -24t47.5 -43t20 -53.5l27 -1q45 -1 76.5 -16.5t49 -39.5t19.5 -52.5t-13 -56.5l16 -5q43 -13 67 -35t29 -48
t-9 -54.5t-47 -53.5q34 -26 48 -54t9 -54.5t-29.5 -48t-67.5 -34.5l-16 -5q18 -33 16.5 -62.5t-19.5 -52t-51 -36.5t-78 -15l-27 -1q-1 -24 -10 -44t-24 -36zM1673 -27q-30 0 -51 15t-21 36t21 36.5t51 15.5t51 -15.5t21 -36.5t-21.5 -36t-50.5 -15z" />
  </g>

</svg>
