<?xml version="1.0" standalone="no"?>
<!DOCTYPE svg PUBLIC "-//W3C//DTD SVG 1.1//EN" "http://www.w3.org/Graphics/SVG/1.1/DTD/svg11.dtd" >
<svg viewBox="0 -410 2048 2048">
  <g transform="matrix(1 0 0 -1 0 1638)">
   <path fill="currentColor"
d="M489 125l-184 318l38 22l184 -318zM790 724l183 -320l-432 -249l-184 318zM838 752l184 -320l-36 -20l-182 320zM1841 896q-23 -14 -30 -39.5t7 -48.5l-610 -352q-14 23 -39 30t-48 -6q-23 -14 -30 -39.5t7 -48.5l-610 -352q-14 23 -39 30t-48 -6l-12 20q14 9 18 25
t-4 30t-24 18t-30 -4l-24 42q14 8 18 24t-4 30t-24 18.5t-30 -3.5l-24 41q14 8 18 24t-4 31q-8 14 -24 18t-30 -4l-12 21q23 13 30 38.5t-7 48.5l610 352q6 -11 16 -18.5t22 -11t24.5 -2t24.5 8.5q23 13 30 38.5t-7 48.5l610 352q6 -11 16 -18.5t22 -11t24.5 -2t24.5 8.5
l12 -21q-14 -8 -18.5 -24t3.5 -30q9 -15 25 -19t30 4l24 -41q-14 -9 -18.5 -25t3.5 -30q9 -14 25 -18t30 4l24 -42q-14 -8 -18.5 -24t3.5 -30q9 -14 25 -18.5t30 3.5zM940 792q-14 -9 -18 -25t4 -30t24 -18t30 4t18.5 24t-4.5 30q-8 14 -24 18.5t-30 -3.5zM1038 423
q5 3 3 11l-192 333q-5 6 -11 3l-49 -28l-7 -4l-433 -250l-14 -8l-45 -26q-7 -3 -3 -11l192 -333q5 -7 11 -3l498 287l7 4zM990 626q8 -14 24 -18.5t30 4.5q14 8 18.5 24t-4.5 30q-8 14 -24 18.5t-30 -4.5q-14 -8 -18.5 -24t4.5 -30zM1108 500q14 9 18 25t-4 30t-24 18
t-30 -4t-18.5 -24t4.5 -30q8 -14 24 -18.5t30 3.5zM1758 839q7 3 3 11l-192 333q-5 6 -11 3l-49 -28l-7 -4l-433 -250l-14 -8l-45 -26q-7 -3 -3 -11l192 -333q5 -7 11 -3l498 287l7 4zM1559 1168l184 -320l-36 -20l-183 320zM1209 541l-184 318l38 22l184 -318zM1510 1140
l184 -320l-432 -249l-184 318z" />
  </g>

</svg>
