<?xml version="1.0" standalone="no"?>
<!DOCTYPE svg PUBLIC "-//W3C//DTD SVG 1.1//EN" "http://www.w3.org/Graphics/SVG/1.1/DTD/svg11.dtd" >
<svg viewBox="0 -410 2048 2048">
  <g transform="matrix(1 0 0 -1 0 1638)">
   <path fill="currentColor"
d="M1617 872q63 -90 105 -183t60 -192q2 -7 -6 -9l-54 -12q-8 -2 -9 4q-9 13 -17 25q-8 10 -15.5 20.5l-12.5 17.5q-29 37 -62.5 75.5t-74.5 79.5l-125 -54q-5 -3 -9 1l-57 57l-270 -270l40 -40l16 16l317 -316l-125 -125l-316 317l16 16l-40 40l-40 -40l18 -17l-317 -317
l-125 125l317 317l16 -16l40 40l-255 255q-35 -21 -75 -28.5t-80 -3t-77 22.5t-67 48t-48 67t-23 76.5t2.5 79t28.5 75.5q6 9 13 2l170 -170l79 79l-169 169q-3 3 -2.5 7t3.5 6q36 20 76 27.5t79 2t75.5 -23t66.5 -47.5t48 -67t22.5 -77t-3 -79.5t-28.5 -75.5l255 -255
l271 270l-44 44q-5 6 0 12l30 30l-82 83q-21 -12 -45.5 -9t-41.5 20l-46 46q-6 5 0 11l226 227q6 4 12 0l45 -46q17 -17 20.5 -41t-7.5 -44l83 -83l32 32q5 4 11 0q1 -1 7 -6t9 -8q8 -9 18 -19l21 -21q31 -33 61 -70t59 -78zM635 806l-11 42l-42 12l-32 -32l12 -42l42 -11z
" />
  </g>

</svg>
