<?xml version="1.0" standalone="no"?>
<!DOCTYPE svg PUBLIC "-//W3C//DTD SVG 1.1//EN" "http://www.w3.org/Graphics/SVG/1.1/DTD/svg11.dtd" >
<svg viewBox="0 -410 2049 2048">
  <g transform="matrix(1 0 0 -1 0 1638)">
   <path fill="currentColor"
d="M2049 550v-960h-1107q-43 24 -62 45t-21 38.5t10 32t30 26.5q43 27 127 46q78 15 166 23t174.5 16t165.5 17.5t137.5 27.5t90.5 46t26 73q-14 50 -65 85q-22 15 -54.5 28.5t-78.5 22.5t-106.5 11.5t-138.5 -3.5q65 0 113 -6t83 -16.5t57.5 -23.5t36.5 -26q33 -32 31 -72
q-5 -27 -45.5 -44t-106 -27.5t-150.5 -16t-178 -9t-188.5 -7.5t-182 -11t-159.5 -19.5t-120 -33.5q-68 -33 -107 -70q-17 -16 -28.5 -34t-14 -37.5t8 -40t38.5 -41.5h-430v960h169v303h-89q-9 0 -12.5 9t4.5 14l193 149v60h-89q-9 0 -12.5 9t4.5 14l461 356q7 7 16 0
l184 -142v100q0 11 7 18.5t18 7.5h77q11 0 18.5 -7.5t7.5 -18.5v-165v-34l148 -115q8 -5 4.5 -14t-12.5 -9h-89v-110l326 251q10 9 19 0l231 -178v126q0 14 9 23t23 9h96q13 0 22.5 -9t9.5 -23v-206v-43l185 -143q10 -7 6 -18t-15 -11h-112v-203h240zM916 862l-99 -77h96
v-98q0 -49 0.5 -121.5t0.5 -169.5v-215h304v432h256v-432h304v571v32h2h94l-155 120l-6 5v40v225h-96v-110v-26v-53l-26 19l-246 190zM290 1111h2v-26v-40l242 187q7 7 16 0l184 -142v100q0 11 7 18.5t18 7.5h77q11 0 18.5 -7.5t7.5 -18.5v-165v-34l84 -65l37 29v130v26h3
h75l-124 96l-5 3v32v180h-77v-89v-21v-42l-21 16l-196 152l-424 -327h76zM118 880h76h2v-26v-458h243v346h205v-346h236l8 357h-120q-11 0 -15 11t5 18l168 130l-85 63l-5 3v32v180h-77v-89v-21v-42l-21 16l-196 152l-424 -327v1z" />
  </g>

</svg>
