<?xml version="1.0" standalone="no"?>
<!DOCTYPE svg PUBLIC "-//W3C//DTD SVG 1.1//EN" "http://www.w3.org/Graphics/SVG/1.1/DTD/svg11.dtd" >
<svg viewBox="-1 -411 2048 2048">
  <g transform="matrix(1 0 0 -1 0 1638)">
   <path fill="currentColor"
d="M363 610q1 2 1 5l308 -12q-1 -2 -1 -5q-2 -5 -3.5 -11t-3.5 -13q-5 -19 -9.5 -37.5t-9.5 -37.5l-3.5 -14t-2.5 -13q-8 -36 -13.5 -64.5t-7.5 -45.5q-81 2 -159.5 5.5t-136.5 11.5q-4 1 -7.5 1t-6.5 1q-1 1 -3 1q-2 1 -4 1t-4 1q2 15 8 42t17 63q2 7 4.5 14t4.5 14
q6 17 12 35l12 36q2 6 4 11.5t4 10.5zM264 375q69 -18 234 -24q34 -2 68 -2.5t72 -1.5t82 -1h98q36 3 93.5 10t127.5 16.5t151 20.5t164 23.5l166 25t159 25.5q-263 -62 -565 -119q-75 -14 -150 -27t-151 -26q-35 -2 -85 -2.5t-105.5 1t-112.5 4t-106 6.5t-85.5 9t-50.5 10
q-1 2 -4 2q-4 5 -4 15q-1 13 2 29q0 3 1 5zM671 639q5 0 8.5 -3.5t3.5 -8.5t-3.5 -8.5t-8.5 -3.5q-12 0 -12 12q0 5 3.5 8.5t8.5 3.5zM381 652q12 0 12 -12q0 -5 -3.5 -8.5t-8.5 -3.5t-8.5 3.5t-3.5 8.5t3.5 8.5t8.5 3.5zM261 309q21 -8 72.5 -14t117.5 -10.5t138 -7
t134 -1.5l-722 -148v423h234q-20 -69 -21 -112.5t25 -55.5q3 -2 9 -4q0 -4 -1 -7q-2 -8 -2.5 -16.5t-0.5 -16.5q1 -5 1.5 -9t2.5 -8q-17 -3 -47.5 -8.5t-65.5 -12t-71 -13t-63 -11.5v-16q30 6 71.5 13.5t81 14.5t69.5 12.5t38 7.5zM2046 551v-960h-78h-499h-499h-499h-249
h-125h-62q-5 0 -16.5 -1t-15.5 1q-4 3 -3 11.5t1 13.5v497q484 94 969 190.5t968 202.5q21 5 41.5 14.5t26.5 30.5h40zM281 387q-35 8 -46 28.5t-3 56.5q28 117 75.5 226.5t116.5 209.5q11 17 23 31.5t29 25.5q20 12 43.5 15.5t46.5 5.5q52 3 104 4t104 0q46 -1 91.5 -4.5
t90.5 -12.5q44 -9 85 -22.5t83 -28.5q402 -140 804 -282q14 -5 26.5 -10.5t23.5 -13.5q10 -9 16 -22.5t2 -27.5q-3 -8 -8 -15q-10 -12 -26.5 -18t-32.5 -9q-458 -82 -920 -141q-94 -12 -187 -20.5t-187 -0.5q25 161 75 315.5t124 300.5q-68 4 -134.5 3.5t-133.5 -4.5
q-11 -1 -22.5 -3t-21.5 -8q-8 -5 -12.5 -12t-9.5 -15q-77 -129 -132 -267.5t-87 -284.5zM1700 576l233 -4v16l-215 47zM1591 577l59 -1l21 70l-57 13zM1434 580l107 -1l26 90l-102 22zM1245 584l140 -2l34 121l-134 29zM1021 588l173 -4l44 159l-158 35z" />
  </g>

</svg>
