<?xml version="1.0" standalone="no"?>
<!DOCTYPE svg PUBLIC "-//W3C//DTD SVG 1.1//EN" "http://www.w3.org/Graphics/SVG/1.1/DTD/svg11.dtd" >
<svg viewBox="0 -410 2048 2048">
  <g transform="matrix(1 0 0 -1 0 1638)">
   <path fill="currentColor"
d="M1320 918q45 0 84 -18t68.5 -48.5t46.5 -72t17 -87.5q0 -47 -17 -88t-46.5 -71.5t-68.5 -48.5t-84 -18h-629q-37 0 -69.5 14.5t-57 40t-38.5 59.5t-14 73t14 73t38.5 59.5t57 40.5t69.5 15h1q9 58 36 107t67 84t91 55t108 20q45 0 87.5 -14t79.5 -39.5t66 -61.5t47 -79
q12 2 23.5 3.5t22.5 1.5zM1066 285q0 -26 16.5 -43t42.5 -28.5t58 -21t63 -20t57.5 -25.5t41.5 -38q23 -35 3 -81.5t-97 -115.5q-18 -19 -27 -39q-8 -17 -7.5 -39t20.5 -45q-26 18 -37 41.5t-14 44.5q-4 25 0 51q4 21 17.5 37.5t27 31.5t21.5 31t0 37q-3 8 -25 15t-55.5 14
t-75 15.5t-84 19.5t-82.5 26t-71 35t-48.5 46.5t-15.5 61.5l130 10l-125 17q3 9 7 18.5t9 19.5l160 13l-140 18q7 10 14.5 19t15.5 20h321q-46 -28 -70.5 -54t-35.5 -46q-13 -24 -15 -46z" />
  </g>

</svg>
