<?xml version="1.0" standalone="no"?>
<!DOCTYPE svg PUBLIC "-//W3C//DTD SVG 1.1//EN" "http://www.w3.org/Graphics/SVG/1.1/DTD/svg11.dtd" >
<svg viewBox="0 -410 2048 2048">
  <g transform="matrix(1 0 0 -1 0 1638)">
   <path fill="currentColor"
d="M1064 134q26 0 49.5 -8.5t38.5 -23.5q40 -40 40 -96q0 -57 -40 -96q-34 -32 -88 -32q-56 0 -88 40q-22 16 -31 38t-9 50q0 29 9 52.5t31 43.5q16 15 38 23.5t50 8.5zM1408 1230q128 -113 128 -296q0 -159 -80 -256q-11 -17 -55.5 -60t-120.5 -108q-38 -32 -56.5 -68
t-26 -69.5t-7 -62.5t1.5 -48h-264q3 60 10.5 116t29.5 100q20 41 81 106.5t167 157.5q29 24 44.5 54.5t23.5 57.5q9 32 12 64q-4 99 -64 160q-29 29 -71 47.5t-97 18.5q-27 0 -55 -6t-53.5 -18t-47 -28.5t-36.5 -37.5q-26 -38 -46 -93.5t-18 -122.5h-288q0 39 7.5 92t29 110
t59 112.5t98 99.5t146.5 71t204 27q50 0 98.5 -8.5t92.5 -24.5t83 -38t70 -49z" />
  </g>

</svg>
