<?xml version="1.0" standalone="no"?>
<!DOCTYPE svg PUBLIC "-//W3C//DTD SVG 1.1//EN" "http://www.w3.org/Graphics/SVG/1.1/DTD/svg11.dtd" >
<svg viewBox="0 -410 2048 2048">
  <g transform="matrix(1 0 0 -1 0 1638)">
   <path fill="currentColor"
d="M542 614q0 -75 22 -144t62 -127.5t96 -104.5t125 -73l-48 -121q-87 34 -158.5 92t-122 132.5t-78.5 162.5t-28 183q0 116 40.5 219t111 184t167 134t207.5 69v124l230 -202l-230 -202v148q-84 -15 -156.5 -57.5t-126 -105.5t-83.5 -142.5t-30 -168.5zM1636 614
q0 -116 -40.5 -219t-111 -183.5t-167 -134t-207.5 -69.5v-124l-230 202l230 201v-148q84 15 156.5 58t126 105.5t83.5 142t30 168.5q0 75 -22 144.5t-62 128t-96 104t-124 72.5l48 121q87 -34 158 -91.5t121.5 -132t78.5 -162.5t28 -183z" />
  </g>

</svg>
