<?xml version="1.0" standalone="no"?>
<!DOCTYPE svg PUBLIC "-//W3C//DTD SVG 1.1//EN" "http://www.w3.org/Graphics/SVG/1.1/DTD/svg11.dtd" >
<svg viewBox="0 -410 2048 2048">
  <g transform="matrix(1 0 0 -1 0 1638)">
   <path fill="currentColor"
d="M464 22h-288v1152v32v256h1184v-288h-125l-1 -146q48 -9 79 -46t31 -87q0 -28 -10.5 -53t-29 -43.5t-43.5 -29t-53 -10.5t-53 10.5t-43.5 29t-29 43.5t-10.5 53h32q0 -44 30 -74t74 -30t74 30t30 74q0 39 -25 67.5t-62 34.5h-23l1 177h-739v-1152zM691 1206l-211 94
l-210 -94h194h227zM423 630l-104 233l-103 -233h207zM216 598l104 -233l104 233h-208zM422 1174h-206l103 -232zM1266 1206l-210 94l-211 -94h421zM1328 1420l-233 -103l233 -104v207zM844 1430l212 -95l214 95h-426zM784 1214l233 104l-233 104v-208zM752 1421l-233 -104
l233 -103v207zM264 1430l215 -95l214 95h-429zM208 1214l232 103l-232 103v-206zM208 691l94 211l-94 210v-421zM208 116l94 210l-94 211v-421zM422 54l-103 233l-104 -233h207zM432 538l-95 -212l95 -214v426zM432 1118l-95 -215l95 -214v429zM1504 526h-96v64h96v192h-96
v64h96v128h64v-128h192v128h64v-128h96v-64h-96v-192h96v-64h-96v-128h-64v128h-192v-128h-64v128zM1568 590h192v192h-192v-192zM2048 550v-960h-2048v960h169v-534h304v534h927v-32h96v-128h80v128h176v-128h80v128h96v32h120z" />
  </g>

</svg>
