<?xml version="1.0" standalone="no"?>
<!DOCTYPE svg PUBLIC "-//W3C//DTD SVG 1.1//EN" "http://www.w3.org/Graphics/SVG/1.1/DTD/svg11.dtd" >
<svg viewBox="0 -410 2048 2048">
  <g transform="matrix(1 0 0 -1 0 1638)">
   <path fill="currentColor"
d="M852 777q67 0 126 -25.5t103.5 -69.5t70 -103.5t25.5 -126.5t-25.5 -126t-70 -103t-103.5 -69.5t-126 -25.5t-126 25.5t-103.5 69.5t-70 103t-25.5 126t25.5 126.5t70 103.5t103.5 69.5t126 25.5zM994 581l15 -16l64 58l-15 16zM842 655h21v86h-21v-86zM650 428v21h-86
v-21h86zM710 296l-15 16l-64 -58l15 -16zM710 581l-64 58l-15 -16l64 -58zM862 252h-21v-87h21v87zM852 300q28 0 53 10.5t43.5 29t29.5 43.5t11 53t-11 53t-29.5 44t-43.5 29.5t-53 10.5t-53 -10.5t-43.5 -29.5t-29.5 -44t-11 -53t11 -53t29.5 -43.5t43.5 -29t53 -10.5z
M1073 254l-64 58l-15 -16l64 -58zM1140 446h-86v-22h86v22zM1364 1426q61 0 115 -22.5t94 -61t63.5 -90.5t23.5 -111v-371h-33l-47 40v43h47q-1 23 -6 44q-5 18 -14.5 37.5t-26.5 33.5v172q0 42 -17 79.5t-46 65.5t-68.5 44t-84.5 16t-84.5 -16t-68.5 -44t-46 -65.5
t-17 -79.5v-288q76 -63 120.5 -154.5t44.5 -197.5q0 -96 -36.5 -180t-99 -146.5t-146.5 -98.5t-179 -36t-179 36t-146.5 98.5t-99 146.5t-36.5 180q0 95 36.5 179t99 146.5t146.5 98.5t179 36q59 0 113 -13.5t103 -39.5v234q0 59 23.5 111t63.5 90.5t94 61t115 22.5z
M824 906l28 -72l28 72h-56zM1191 452q0 70 -26.5 132t-72.5 108.5t-108 73t-132 26.5t-132 -26.5t-108 -73t-72.5 -108.5t-26.5 -132t26.5 -132t72.5 -108t108 -72.5t132 -26.5t132 26.5t108 72.5t72.5 108t26.5 132zM852 559q25 0 47.5 -9.5t39 -26.5t26 -39.5t9.5 -47.5
t-9.5 -47.5t-26 -39t-39 -26t-47.5 -9.5q-26 0 -48 9.5t-38.5 26t-26 39t-9.5 47.5t9.5 47.5t26 39.5t38.5 26.5t48 9.5z" />
  </g>

</svg>
