<?xml version="1.0" standalone="no"?>
<!DOCTYPE svg PUBLIC "-//W3C//DTD SVG 1.1//EN" "http://www.w3.org/Graphics/SVG/1.1/DTD/svg11.dtd" >
<svg viewBox="0 -410 2048 2048">
  <g transform="matrix(1 0 0 -1 0 1638)">
   <path fill="currentColor"
d="M1580 609h1v-384h-154v-100q0 -6 -4.5 -10.5t-11.5 -4.5h-1043q-16 0 -16 15v292h-78v-29q0 -8 -5 -15t-13 -9l-78 -19q-8 -2 -13 2.5t-5 12.5v307q0 8 5.5 13.5t13.5 5.5h77q8 0 13.5 -5.5t5.5 -13.5v-19h77v61q0 6 4.5 10.5t11.5 4.5h73l287 240q10 10 26 10h462
q17 0 28.5 -11.5t11.5 -28.5v-210h18l78 116q-8 11 -8 30q0 26 19 45t45 19h321q26 0 45 -19t19 -45t-19 -45t-45 -19h-321h-2l-55 -82h60q16 0 16 -15v-100h153zM566 724h610v170h-407zM1296 577q0 16 -16 16h-792q-16 0 -16 -16v-320q0 -16 16 -16h792q16 0 16 16v320z
M1872 792q7 4 11 1t4 -11v-729q0 -8 -4.5 -10.5t-11.5 1.5l-271 170v408zM504 561h760v-288h-760v288z" />
  </g>

</svg>
