<?xml version="1.0" standalone="no"?>
<!DOCTYPE svg PUBLIC "-//W3C//DTD SVG 1.1//EN" "http://www.w3.org/Graphics/SVG/1.1/DTD/svg11.dtd" >
<svg viewBox="0 -410 2048 2048">
  <g transform="matrix(1 0 0 -1 0 1638)">
   <path fill="currentColor"
d="M1628 685q-35 -4 -69.5 -10t-66.5 -15q-36 -11 -66 -24l266 -48q6 -2 6 -8v-544q0 -8 -6 -8q-125 -27 -220 -48t-165 -36t-118 -25.5t-79 -17.5q-73 -16 -84 -18l-662 145q-6 0 -6 8v544q0 6 6 8q146 26 252.5 46t177.5 33q83 15 140 25q-3 5 -6.5 9t-5.5 7q-7 8 -14 17
t-15 19q-9 13 -18.5 27t-19.5 29q-14 23 -28.5 47t-28.5 49q-12 18 -18 31q-2 2 -2.5 4.5t-2.5 4.5q-1 1 -1 3q-5 8 0 16q2 2 4 5t5 8q5 7 11.5 15t14.5 17q20 24 44.5 48.5t52.5 47.5q46 38 95.5 66.5t104.5 46.5q68 23 126 41t106 32q17 5 32 9t27 7q4 1 7.5 2t6.5 2
q2 0 3 0.5t2 0.5q17 2 19 -15q1 0 1 -4q1 -3 1 -6.5t1 -7.5q1 -11 2 -22.5t3 -24.5q5 -38 11.5 -74t15.5 -70q19 -77 40 -126q29 -61 83 -124q18 -21 36.5 -40.5t37.5 -38.5q7 -7 13 -12.5t11 -10.5l3.5 -3.5l3.5 -3.5l2 -2q8 -8 4.5 -17.5t-14.5 -10.5h-4q-3 0 -6 -0.5
t-6 -0.5q-11 0 -22 -1t-24 -3zM1042 566q-5 5 -8 9q-4 4 -7.5 8t-8.5 9q-4 6 -8 10l-214 41l-74 -13zM1396 529l-106 20q-15 -15 -18 -28l39 -8zM1399 660q19 8 39.5 15.5t43.5 12.5q34 9 69.5 16t72.5 12q8 1 14 1t13 1q-2 2 -3.5 3t-3.5 3q-20 20 -39 40.5t-37 42.5
q-56 68 -86 131q-13 27 -23.5 60t-20.5 72q-8 35 -15 72t-12 75q-2 14 -3.5 25.5t-3.5 22.5q-12 -3 -26.5 -6.5t-31.5 -8.5q-48 -14 -105 -31.5t-126 -40.5q-52 -17 -99 -44.5t-90 -62.5q-27 -23 -50 -46.5t-43 -46.5q-8 -8 -13.5 -16t-10.5 -14q-1 -1 -1.5 -2t-1.5 -2
q-1 0 2 -3q5 -7 9 -15t9 -16l28 -48t28 -46q19 -30 36 -54q8 -10 14.5 -18.5t13.5 -16.5q6 -7 15 -18l18 -22t16 -19l7 -8q13 -15 22 -26t18 -21q5 -5 8.5 -8t7.5 -8q5 -6 11 -12l12 -12t4 -15l156 -31q3 16 18 34t36.5 35.5t48.5 34t55 29.5zM1114 541l-36 34l-12 -23z" />
  </g>

</svg>
