<?xml version="1.0" standalone="no"?>
<!DOCTYPE svg PUBLIC "-//W3C//DTD SVG 1.1//EN" "http://www.w3.org/Graphics/SVG/1.1/DTD/svg11.dtd" >
<svg viewBox="0 -410 2048 2048">
  <g transform="matrix(1 0 0 -1 0 1638)">
   <path fill="currentColor"
d="M1843 823q4 -9 0 -18t-14 -13l-107 -37l-247 -775l85 -116q6 -8 4.5 -17.5t-9.5 -15.5t-18 -4.5t-15 9.5l-83 109h-823l-82 -109q-6 -8 -16 -9.5t-18 4.5t-9.5 15.5t4.5 17.5l84 112l-249 780l-101 36q-9 3 -13.5 12t-1.5 18t12 13.5t19 0.5l105 -36l660 482v96
q0 11 6.5 17.5t17.5 6.5q10 0 17 -6.5t7 -17.5v-106l648 -473l107 38q9 4 17.5 -0.5t12.5 -13.5zM1058 1212v-165l427 -326l165 59zM1058 569l169 60l-169 133v-193zM1010 767l-177 -139l177 -62v201zM819 584l55 -218l118 156zM909 332h241l-121 160zM1186 362l56 222
l-176 -62zM1431 702l-373 285v-163l222 -176zM1010 997l-385 -294l153 -55l232 182v167zM613 656l131 -462l92 122l-73 287zM782 164h494l-90 120h-314zM1311 197l131 458l-146 -51l-74 -289zM404 781l166 -59l440 334v168zM614 24l93 122l-151 530l-169 60zM1406 -7
l-93 123h-567l-93 -123h753zM1665 735l-168 -60l-150 -527l92 -121z" />
  </g>

</svg>
