<?xml version="1.0" standalone="no"?>
<!DOCTYPE svg PUBLIC "-//W3C//DTD SVG 1.1//EN" "http://www.w3.org/Graphics/SVG/1.1/DTD/svg11.dtd" >
<svg viewBox="0 -410 2048 2048">
  <g transform="matrix(1 0 0 -1 0 1638)">
   <path fill="currentColor"
d="M1217 878q-11 -7 -23 -8.5t-23 -1.5q-12 0 -24 3q3 -4 8 -8q5 -3 11 -7t16 -6q-20 -1 -35 0t-25 3q-11 2 -19 4l35 -22q-31 6 -57 14q-23 7 -44.5 16.5t-30.5 21.5q35 -11 62.5 -9.5t46.5 9.5q22 8 37 23q13 -12 24.5 -18.5t20.5 -9.5q11 -4 20 -4zM964 935q-12 -3 0 3
t37.5 14.5t59.5 16t66 9.5l12 -28q-54 -3 -87.5 -6t-53.5 -5q-23 -3 -34 -4zM1377 749q-7 -5 -16 -9.5t-21 -9.5l-16 -6t-17 -5q1 -11 5 -21q3 -12 11 -20q11 -11 7.5 -24t-15.5 -30l-9 -12q-4 -5 -8 -9.5t-8 -9.5q0 -2 1 -5t2 -7q5 -23 5 -42q2 -23 -6 -41q-4 -10 -9.5 -16
t-14.5 -10t-23 -6t-33 -3q-17 -1 -29 -2t-22 -2t-19 -2.5t-20 -3.5q-35 -6 -92 -52q-15 -11 -30 -24.5t-31 -28.5q-19 -18 -37 -37t-35 -39q-6 -6 -11.5 -12.5t-10.5 -11.5q-1 -3 -2.5 -4.5t-2.5 -3.5q-2 0 -2 -2q-10 -12 -22 -2q-6 4 -6.5 10.5t3.5 11.5q1 0 3 2t3 4t3 4
q5 5 10.5 11.5t11.5 13.5q17 20 35.5 39.5t38.5 38.5q17 16 32 30t30 26q32 25 58.5 39.5t49.5 18.5l21 3.5t19.5 2.5t22.5 2t30 2q29 2 39 4.5t13 10.5q4 9 4 28q0 16 -5 36q0 8 -3 14q-1 1 -1 3v1q-2 9 5 19q3 2 5 5q4 4 7 8t7 8q2 4 8 12q6 10 8 16q-9 11 -16 29
q-4 13 -6 29q-1 5 -1 8v6q0 13 12 16h3q4 1 10 3l30 9q20 8 28 15q4 2 4 3t-3 4q-4 6 -16 14q-3 3 -10 8.5t-15 12t-15 12t-10 7.5q-11 9 -20.5 17t-17.5 15l-17 17q-8 9 -16.5 22.5t-22.5 34.5q-1 2 -5 8q-12 20 -18.5 31t-10.5 17l-6 9t-5 6q-43 51 -93 73.5t-110 23.5
q-48 1 -102 -11t-133 -39q-71 -24 -128 -38.5t-101 -16.5q-56 -3 -87.5 15t-31.5 61q0 38 18 57.5t50 21.5q11 1 21 -0.5t21 -3.5q6 -2 10 -3t6 -2q14 -7 9 -21q-2 -6 -8.5 -8.5t-12.5 -0.5h-1q-1 0 -2 1q-6 2 -9 2q-17 6 -33 4q-18 -1 -27.5 -11.5t-9.5 -35.5q0 -49 86 -43
q82 4 220 53q41 14 75 24t63 16.5t55.5 9.5t52.5 3q67 -1 123 -26.5t103 -81.5q3 -4 5.5 -7t6.5 -9.5t11.5 -18.5t20.5 -33l2 -4l2 -4q12 -20 21 -32.5t15 -19.5q1 -2 2.5 -3.5t2.5 -3.5q11 -5 26.5 -10.5t29.5 -3.5q-9 -7 -16 -10q-4 -2 -10 -3q4 -3 7 -6t8 -7
q3 -2 10 -7.5t15 -12t15 -12t10 -8.5q15 -11 22 -19t10 -15q5 -20 -17 -38zM718 1038q6 3 12.5 1t8.5 -8t0 -12.5t-8 -9.5q-1 -1 -3 -1q-2 -1 -4.5 -2t-4.5 -2q-12 -7 -32 -15q-25 -11 -51.5 -21.5t-53.5 -20.5q-21 -8 -41 -15t-39 -13q-52 -17 -94.5 -26t-73.5 -9
q-48 0 -80 17t-40 47q-9 29 6.5 54.5t47.5 36.5q6 2 12 -1.5t8 -9.5t-1 -12t-9 -8q-21 -7 -30 -21.5t-4 -29.5q6 -18 28.5 -29.5t61.5 -11.5q28 0 68 8.5t90 24.5q37 12 78 27q27 11 53 21.5t51 21.5q9 4 16.5 7t15.5 6q6 4 8 4zM294 714q-46 -11 -80 -1.5t-50 37.5
q-14 26 -5.5 54.5t37.5 46.5q6 3 12.5 1t9.5 -7q3 -6 1.5 -12.5t-6.5 -9.5q-19 -12 -24.5 -28t2.5 -30q9 -16 34 -22t62 2q26 6 59.5 21.5t75.5 39.5q16 9 31.5 18.5t32.5 20.5q26 17 52.5 35t51.5 37q9 7 17 13t15 11q8 6 9 7q1 0 1 0.5t1 0.5l1 1q13 10 23 -2
q9 -14 -3 -23l-1 -1q-1 0 -1 -0.5t-1 -0.5q-1 -1 -9 -7q-7 -5 -15 -11t-17 -13q-26 -19 -53 -37.5t-54 -35.5q-17 -11 -33 -21t-32 -19q-86 -51 -144 -65zM319 486q-40 -27 -75 -30.5t-58 14.5q-24 19 -25.5 49t18.5 57q10 11 23 3q11 -10 3 -23q-14 -17 -13 -33.5t14 -26.5
q14 -12 39 -9t57 25q32 21 76 72q15 17 30 36t31 40q20 27 40.5 56.5t39.5 59.5q7 11 13 20.5t11 17.5q3 4 7 10q0 1 0.5 1.5t0.5 1.5t1 1q3 6 9.5 8t12.5 -2q6 -3 7.5 -9.5t-2.5 -12.5l-2 -4q-2 -2 -3.5 -5t-3.5 -6q-5 -8 -11.5 -18t-12.5 -20q-20 -30 -40.5 -59.5
t-41.5 -58.5q-17 -22 -32 -41t-30 -36q-23 -26 -43.5 -45.5t-39.5 -32.5zM405 349q-12 -15 -23 -26q-35 -34 -68.5 -45t-61.5 3q-26 14 -34 42.5t6 59.5q3 6 9.5 8.5t12.5 -0.5t8 -9.5t0 -12.5q-10 -20 -5.5 -36t18.5 -24q17 -9 41.5 -0.5t50.5 35.5q5 5 10 11t10 13
q19 25 38.5 60.5t40.5 80.5q15 32 29.5 66t27.5 69q5 12 9 23t8 21q2 4 2.5 7.5t2.5 5.5q1 2 1 4q2 6 8 9t12 1t9 -8t1 -12q0 -1 -2 -5l-2 -6t-2 -7q-4 -10 -8 -21.5t-9 -23.5q-28 -71 -58 -136q-42 -92 -82 -147zM657 776q7 -1 10.5 -6t2.5 -11v-6q-2 -7 -3 -16
q-2 -13 -4.5 -27.5t-5.5 -30.5q-9 -46 -17.5 -90.5t-18.5 -86.5q-20 -83 -38.5 -141.5t-37.5 -90.5q-25 -41 -56 -59t-61 -11q-29 7 -43.5 33.5t-6.5 59.5q3 15 19 12q15 -3 12 -19q-5 -21 2.5 -36t23.5 -19q19 -5 40.5 9t41.5 46q17 29 35 86t37 136q10 42 19 86.5t17 89.5
q3 15 5.5 29.5t4.5 27.5q1 5 1.5 8.5t1.5 7.5v6q4 16 19 13zM1825 405q23 -19 36.5 -45t12.5 -50q-2 -29 -23.5 -45.5t-60.5 -16.5q-5 0 -8.5 3.5t-3.5 8.5q0 12 12 12q30 0 44.5 10.5t15.5 28.5q0 17 -11 37.5t-30 37.5q-38 32 -104 61t-163 58q-39 12 -73 20t-63 13
q-11 2 -19.5 3t-16.5 2q-2 0 -4 0.5t-4 0.5h-3q-5 0 -8 3.5t-3 8.5q2 12 13 12q2 0 5 -0.5t8 -0.5q8 -1 16.5 -2t19.5 -3q61 -9 140 -33q99 -29 166.5 -59t108.5 -65zM1362 644q5 0 8 1q8 1 16.5 2t19.5 3q29 5 63 13t73 20q192 57 267 119q19 17 30 37.5t11 37.5
q-1 18 -15.5 28.5t-44.5 10.5q-12 0 -12 12q0 5 3.5 8.5t8.5 3.5q39 0 60.5 -16.5t23.5 -45.5q1 -24 -12.5 -49.5t-36.5 -45.5q-79 -66 -275 -124q-39 -12 -74.5 -20t-65.5 -13q-10 -2 -19 -3t-17 -2q-5 0 -8 -0.5t-5 -0.5q-13 0 -13 12q-1 5 2.5 8.5t8.5 3.5h3zM1855 541
q23 -8 34.5 -23.5t9.5 -33.5q-1 -16 -11.5 -28.5t-25.5 -14.5q-12 -2 -14 11q-1 5 2 8.5t8 4.5q6 1 11 7t5 14q2 21 -28 33q-12 5 -51 11t-100 14q-20 3 -42 5.5t-45 5.5q-41 5 -83 9t-86 9q-16 2 -29.5 3t-26.5 3q-5 0 -8.5 0.5t-7.5 0.5q-1 0 -1.5 0.5t-1.5 0.5h-2
q-5 0 -8.5 4t-2.5 9v2v1q-2 11 11 13h2q1 0 1.5 0.5t1.5 0.5q4 1 8 1h8q13 2 27 3t29 3q44 5 86 9t83 9q23 3 45 5.5t42 5.5q61 8 100 14.5t51 10.5q30 12 28 33q0 8 -5 14t-11 7q-5 1 -8 5t-2 9t5 8t9 2q15 -2 25.5 -14.5t11.5 -28.5q2 -18 -9.5 -33.5t-34.5 -23.5
q-14 -5 -53 -11.5t-102 -14.5q-20 -3 -42.5 -5.5t-45.5 -5.5q-38 -5 -77.5 -9t-80.5 -8q41 -5 80.5 -9.5t77.5 -8.5q24 -2 46 -5t42 -5q63 -8 102 -15t53 -12z" />
  </g>

</svg>
