<?xml version="1.0" standalone="no"?>
<!DOCTYPE svg PUBLIC "-//W3C//DTD SVG 1.1//EN" "http://www.w3.org/Graphics/SVG/1.1/DTD/svg11.dtd" >
<svg viewBox="0 -410 2048 2048">
  <g transform="matrix(1 0 0 -1 0 1638)">
   <path fill="currentColor"
d="M1022 1446q37 0 69 -14t56 -38t37.5 -56t13.5 -68t-13.5 -68t-37.5 -56t-56 -38t-69 -14q-36 0 -68 14t-56 38t-38 56t-14 68t14 68t38 56t56 38t68 14zM1272 399q17 2 26.5 15.5t7.5 29.5l-86 547q-2 13 -9 19q-8 17 -22.5 30t-32.5 18q-10 5 -21 6t-22 0q-12 -1 -25 -3
q-16 -3 -25 -8t-15 -9.5t-11 -8t-14 -3.5t-15 3.5t-12 8t-14 9.5t-22 8q-12 2 -23 3q-10 1 -22.5 -0.5t-24.5 -6.5q-18 -4 -33 -17.5t-23 -31.5q-3 -3 -4.5 -8t-3.5 -10l-83 -546q-2 -17 7.5 -30.5t26.5 -15.5q24 -3 38 16l-44 -408q-2 -14 6.5 -23t22.5 -9h135l20 -160
q2 -14 12.5 -23t23.5 -9h64q14 0 24 9t12 23l20 160h137q14 0 22.5 9t6.5 23l-46 414q5 -11 16 -17t25 -4zM1058 948l-36 18l-35 -18q-12 -6 -20.5 -1t-8.5 19t8.5 19t20.5 -1l35 -18l36 18q12 6 20 1t8 -19t-8 -19t-20 1z" />
  </g>

</svg>
