<?xml version="1.0" standalone="no"?>
<!DOCTYPE svg PUBLIC "-//W3C//DTD SVG 1.1//EN" "http://www.w3.org/Graphics/SVG/1.1/DTD/svg11.dtd" >
<svg viewBox="0 -410 2048 2048">
  <g transform="matrix(1 0 0 -1 0 1638)">
   <path fill="currentColor"
d="M751 987l-11 19q16 10 22 12q4 2 7 2q2 0 5 -1q4 -1 14 -8v-24l-15 -16zM1098 1032l-28 34l5 12h19l4 -18l14 -7l17 12l18 -1l19 -7l-10 -14l25 -5l-36 -9zM1585 876l57 11l-8 22l-11 25l18 13q6 -5 11 -8.5t9 -5.5q4 -3 7 -4q8 -4 6 -12.5t-2 -13.5q0 -3 -2 -7t-4.5 -10
t-7.5 -16l-41 -6l-11 -12l9 -30l-25 10zM722 827l-44 3l12 18l24 7q4 0 4 -3zM414 1040q5 1 10.5 3t12.5 4t12.5 5.5t10.5 7.5t9 7.5t9 3.5q6 0 10.5 -2.5t9.5 -4.5q7 -3 16 -3t17.5 0.5t16.5 -0.5t15 -5q0 -6 -4.5 -9t-10 -6t-10.5 -6t-5 -8q-1 -5 2.5 -9t8.5 -7
q-9 -8 -16.5 -17.5t-5.5 -21.5q2 -8 6.5 -16.5t-1.5 -14.5q-19 1 -34.5 -11t-20.5 -30q-10 -2 -19.5 0t-19.5 1q-11 -1 -18 -6.5t-9 -15.5q-8 1 -15.5 10t-3.5 18q2 4 5 7t7 6q15 12 18 32q-8 1 -13.5 8.5t-3.5 15.5q-8 3 -15.5 4.5t-15.5 3.5q4 6 8.5 11.5t8.5 10.5
q5 5 11.5 5h12.5t12 2t8 8q-5 2 -8.5 3.5t-7.5 3.5v12zM929 960l-31 24l32 36l48 -10l-30 -25l4 -21zM1503 545l-60 30l60 1l150 -16l33 -33l16 -23l-32 14l-24 15l-33 -16l-23 22h-58zM1453 615l-26 25l55 -7l17 -21zM1902 596l11 12l1 41l13 3q9 -10 14 -11q3 -2 5 -1
q3 0 -0.5 -7t-5.5 -7q-1 0 -0.5 -5t1 -11t1 -11.5t0.5 -6.5t-3 -3q-2 -2 -6 -5t-12 -7l-31 9zM1475 714l-33 -34l-17 32l13 20l20 -2zM1502 758l-11 18l11 22l24 -27zM526 916l13 -11l-33 -12v8q0 4 3 6zM1379 543l-76 13l-61 66l-28 18l2 25l-2 18q-9 1 -18.5 2.5t-9.5 2.5
l-1 2q-1 1 -4 15l-38 11l-16 -7l-20 -29l-49 24v18l-30 6q-6 1 -12 1q-4 0 -8 1q-7 2 -4 6l-11 16h-23l45 -65l18 17l46 -24l-75 -29l-134 81l4 18l21 16q-29 -17 -47 -20q-10 -3 -16 -2q-17 2 -27 5.5t-17 3.5q-4 0 -6 1l16 -29q-17 -4 -27.5 -7t-16.5 -5q-7 -3 -10 -4
q-5 -3 -11 -3q-5 0 -12.5 2t-18.5 8q-11 10 -17.5 15t-10.5 8t-6 4q-3 0 -2 4q1 3 5 10t15 19l64 19l-6 27l23 6l-3 -19l34 -4l20 13l13 18l-1 19l-4 15l-16 -5v-21q0 -1 -1 -2q-3 -3 -10 -6l-46 12l15 23l22 14l27 7l25 4l4 -7q1 -1 2 -3l2 -4l2 -8q1 -2 5 -4q2 -1 4 -1
q8 -1 12 -1q10 0 6 4q7 2 11 4l6 3l3 1h14l13 -1l21 -8l24 9l-7 9q-6 10 -8 19q-1 4 -1 8q0 8 9 4.5t26 -3.5q6 -1 11 -2q5 -2 9.5 -3.5t7.5 -6.5l20 16l-4 19q3 4 11 6.5t16 3.5q10 1 20 1q10 1 17 5q6 4 10 12.5t0 25.5q23 1 38.5 1.5t25.5 0.5h19q9 0 11 1.5t1 4t-3.5 5
t-2.5 5.5q0 2 -1 6q-1 5 -6 16q42 7 69.5 10t44.5 5q19 2 30 1q9 0 21 -4q10 -3 24 -8.5t31 -13.5l36 20l36 -14l28 -8l1 10l-14 25l52 3h14h65q2 0 4 -1q3 -2 3 -6q31 -12 45 -18q8 -4 12 -5q3 -3 2 -6q-1 -2 -7 -5.5t-21 -6.5l-23 -6l-49 -27l25 -10l-22 -33l-18 -4
l-39 29l-37 -17q-5 -3 -7 -5.5t-4 -4.5q-2 -3 -2 -5t-1 -5t-1.5 -7t-2.5 -9l31 -1l27 -8l13 -23l-2 -14v-29l-72 -7l-32 -25l26 -24l-2 -15l-12 -14l-62 -20l-58 17l-56 -20l-16 -8q-8 -9 -11.5 -15.5t-5.5 -10.5q-2 -5 -2 -8t-4 -4q-3 -1 -8.5 -0.5t-16.5 5.5h-4l35 -42
l25 -18l72 -24h-24l-23 -23l37 -8l44 -9l26 10l28 -9l-19 -12zM1793 400q9 -6 9.5 -10.5t-2 -7t-6 -4t-4.5 -1.5l16 -53v-27l-16 -46l-58 -31l-34 11l-5 24l-34 12l-72 15l-69 -2l-36 -16l-28 -14l-47 17l-29 57l-5 31l41 21l41 16l28 40h47l60 47l33 -33v-27q0 -4 4 -4
l51 -4l40 -4l25 59l26 -26q0 -10 3.5 -17t8.5 -12q5 -6 12 -11zM1348 643l52 -16l7 -16l-51 5l-50 17l-12 27zM2014 181q4 -5 -0.5 -9t-11.5 -7t-14.5 -5t-10.5 -2q-3 -1 -7 -2q-4 -2 -10.5 -3.5t-15.5 -6.5q3 -8 5 -12.5t3 -7.5q1 -4 1 -6q-1 -2 -3 -5l-5.5 -5.5
t-11.5 -6.5q-11 -2 -18 -2.5t-12 -1.5t-9 -1q-3 0 -7 1q-3 1 -7 2t-7 4l-6 11q5 2 10.5 2t9.5 1q4 0 8 1q11 0 12.5 5t1.5 10v5q0 2 -1 4.5t-2 6.5l16 6l32 17l15 20l-15 2l-19 24l30 1l9 24q8 -9 11.5 -14.5t5.5 -8.5l3 -6v-3q0 -2 -1 -4l-2 -4q5 -5 9.5 -8.5t7.5 -7.5
q4 -4 6 -8zM1871 629l-9 31l32 14q3 3 5 -2l7 -8l-14 -8l7 -20zM505 541l20 -29l-39 13l-32 7l-28 9h79zM391 504q-4 0 -11.5 0.5t-5.5 1.5l-47 19l-16 15l-26 21q-2 8 -2 16.5t1 16.5l2 18q1 8 1 14q0 5 -1 8.5t-3 0.5l-114 118q-3 4 -3 8v3q-1 1 -3 2t-5.5 2t-11.5 1
l-27 12l-9 11l-2 14q-2 -1 -5 -1q-3 -1 -13 -1q-6 1 -4 7q1 3 2 5q1 1 5 4q2 2 6.5 4t10.5 4l-29 12l-26 9l2 32l-24 19l8 9h43l34 -3q-2 5 -3 8t-2 5t-1 3q0 2 1 10t0 10q0 1 -1 3q-2 3 -3 13l16 22l-11 6l-8 10l12 13l-9 3q2 5 -3 3l-6 -2l-10 -5q-5 -2 -11.5 -4.5
t-15.5 -5.5l-11 2l2 11l5 6l11 -7l8 10l-2 8l14 2q1 0 3 1t4 1l9 6l10 -13l23 -11l26 8l19 -6l30 -6l18 9l19 -14l-37 -19l27 -25l16 8l8 13l1 12l13 1l11 -16l-2 -15h11l7 10l12 -5l-3 -11l15 -10q9 2 10 -1q1 -2 1 -4t1 -6q1 -3 2.5 -7t4.5 -9l-17 -2l-22 4l-34 4l-5 -9
l10 -30q3 -5 1 -7q-2 -1 -4 -1h-6h-7.5t-9.5 1l-12 -8l1 -14l-2 -1q5 -5 11 -10q10 -9 27 -24q28 14 43.5 21t23.5 10q9 4 11 4q2 -1 5 -2q5 -2 6 -1q10 -5 16.5 -7.5t11.5 -4.5l8 -4q7 -3 4.5 -5t-2.5 -6t2.5 -6t2.5 -7q0 -3 6 -9t14 -13t15.5 -12t10.5 -5q2 0 5 -1
q6 -2 10 -4q8 -2 15.5 -3t13.5 -1q7 -1 14 0q6 0 10 -1q8 -2 2 -7v-27q0 -1 -2 -2t-17 -6l-28 -8l-5 -14l-11 -30q-13 -20 -20.5 -33.5t-12.5 -21.5q-5 -10 -7 -16q-2 -5 -4 -9q-4 -8 -4 -6q-21 -9 -25 -10l-4 -1q-2 0 -8 -8.5t-6 -10.5l-1 -3q-1 -2 -2.5 -6.5t-4.5 -11.5
q5 -8 9 -11.5t6 -5.5q3 -2 5 -2h5q2 0 6 -1t9 -2l19 -5l-7 -7q-8 1 -13.5 1.5t-8.5 0.5h-5zM1051 636q20 -32 29 -39q5 -5 9 -5q2 0 6 -1q6 -1 14 -7l-19 -14l-12 -5l-14 -9q-23 -6 -32.5 -11t-12.5 -8q-4 -4 0 -7q3 -3 7 -6q8 -8 8 -12l-27 -19l9 -29q-4 -5 -5.5 -7.5
t-3.5 -3.5q-2 -2 -3 -1q-1 0 -1 -2q-1 -3 0 -14q2 -5 2 -8t1 -5q0 -2 1 -3q0 -1 -1 -3l-2.5 -5t-4.5 -8l-36 -33l-35 -24h-47l-7 51q5 2 9 3t7 2q4 1 6 1t2 2t-2.5 5.5t-10.5 11.5l-4 24l-28 37l-12 10l2 19l18 18l-47 19q-21 8 -33 10q-6 1 -10 1q-19 0 -25 15q-1 2 -1 5
q0 6 5 10l4 21l-21 17l-3 18v36l30 25q28 3 38 7q7 2 11 5q4 2 6 2q4 0 0 -10q14 -5 21.5 -7.5t11.5 -3.5q4 -2 4 -1q-1 -1 -1 -2v-3.5t2 -6.5l20 -9l22 21l15 -6l-1 -21l22 -5l38 4q3 0 1 -2l-16 -9l16 2l27 -27l34 14zM194 1026q3 2 5.5 2.5t4.5 2.5q-8 2 -16 4.5t-16 4.5
q7 2 13 3t12 3q7 2 14.5 3.5t14.5 3.5v-13q-5 -1 -10 -1t-10 -1q23 -12 43 3q-4 5 -2 15q5 -1 8.5 -1t8.5 -1q4 -8 5 -12q13 2 26.5 4.5t26.5 4.5q-3 4 -6 7t-6 7q15 7 31 7.5t32 -0.5t32.5 -2t31.5 3q-1 -4 -1.5 -8t-1.5 -9q-6 1 -12 1t-12 -2t-9.5 -8t-1.5 -12
q-11 2 -17 12l-2.5 -5t-2.5 -6q14 0 21 -13q-11 0 -20.5 0.5t-19.5 0.5q5 -3 8 -8.5t-2 -7.5q-2 -1 -6 -1q-12 1 -23.5 1.5t-22.5 2.5q1 2 1 4.5t1 4.5q-8 -3 -15.5 -6.5t-15.5 -7.5l-5 2.5l-12 6l-13 6.5t-8 3q-8 1 -14.5 -0.5t-12 -2.5t-11.5 -0.5t-13 5.5zM1057 472
l20 -15l-13 -12l-4 -25l-23 -2l-1 14l10 16l-8 12zM699 428l20 -36q-10 -8 -19 -13.5t-16 -8.5q-8 -4 -15 -6q-6 -1 -10 -5q-3 -3 -2.5 -7.5t8.5 -11.5l3 -37q-20 -8 -32 -15.5t-19 -12.5q-8 -6 -11 -11q-2 -5 -4 -13q-2 -7 -2.5 -17.5t1.5 -24.5l13 -41l8 -35l-35 -11
l-29 -18l16 -26l58 -26l-18 -14l-42 10l-73 46l-32 68q-11 21 -15.5 36.5t-6.5 25.5q-2 11 -1 20q0 7 -2 18q-3 19 -15 59l-46 47l-21 40l9 37l75 49l52 1l16 -23q42 8 64 8.5t33 -2.5q12 -4 14 -10q0 -8 3 -14q2 -5 7 -11t15 -9h30z" />
  </g>

</svg>
