<?xml version="1.0" standalone="no"?>
<!DOCTYPE svg PUBLIC "-//W3C//DTD SVG 1.1//EN" "http://www.w3.org/Graphics/SVG/1.1/DTD/svg11.dtd" >
<svg viewBox="0 -410 2048 2048">
  <g transform="matrix(1 0 0 -1 0 1638)">
   <path fill="currentColor"
d="M1700 1026l-2 -221h-318l2 221h318zM700 662h512v-40h-512v40zM374 638v1q0 2 1 3l65 150q3 10 13 8q16 -2 31 1t29 8q10 4 21 11l6 4q5 5 10.5 4t8.5 -6l64 -94q7 -11 -3 -18q-12 -9 -22 -19q-17 -17 -26 -36q-7 -14 -8 -17q-3 -9 -12 -9l-164 -4h-3h-1q-1 0 -2 1l-1 1
q0 1 -2 1h-1q0 2 -1 3l-2 2v1q-1 1 -1 2v2zM417 673l56 38q-2 10 1.5 20t12.5 16q12 8 26 5t22 -15t5.5 -26t-14.5 -22q-9 -6 -20 -6t-19 6l-56 -37l111 3q2 3 3 5.5t3 6.5q13 22 30 41q7 9 16 16l-49 72q-10 -7 -23 -11q-31 -11 -62 -10zM502 726q-7 -4 -3 -12q5 -7 12 -2
q7 4 3 12q-4 6 -12 2zM641 911l99 -146l-80 -54l-99 146zM1144 1027l-112 166l162 110q24 16 51 12.5t41 -23.5l44 -67q14 -20 7.5 -46.5t-31.5 -42.5l-6 -4l34 -50q0 -2 1 -3t1 -2q1 0 1 -1v-2v-2q0 -12 -11 -20l-222 -149q-10 -6 -15 1l-11 17q-7 9 4 15l164 111q9 7 4 15
l-17 25l-25 -17zM933 1110l89 61l100 -147l-368 -248l-99 147l271 182zM1764 1110q8 0 14 -6t6 -14v-1024q0 -8 -6 -14t-14 -6h-1480q-8 0 -14 6t-6 14v1024q0 8 6 14t14 6h620l-59 -40h-541v-984h1440v984h-391q1 10 -6 21l-13 19h430zM700 534h512v-40h-512v40zM700 406
h512v-40h-512v40z" />
  </g>

</svg>
