<?xml version="1.0" standalone="no"?>
<!DOCTYPE svg PUBLIC "-//W3C//DTD SVG 1.1//EN" "http://www.w3.org/Graphics/SVG/1.1/DTD/svg11.dtd" >
<svg xmlns="http://www.w3.org/2000/svg" xmlns:xlink="http://www.w3.org/1999/xlink" version="1.1" viewBox="0 -410 2048 2048">
  <g transform="matrix(1 0 0 -1 0 1638)">
   <path fill="currentColor"
d="M861 969h-109q-113 0 -166 -4t-64 -5q-43 -7 -86 -38q-107 -77 -107 -224q0 -91 59 -153q58 -60 145 -60q148 0 236 114q98 130 98 313v56zM1326 1165q27 0 45.5 -20t18.5 -48v-62q0 -27 -18.5 -46.5t-45.5 -19.5h-248q-2 0 -7 -1t-7 -3v-588q0 -11 -2 -24t-13 -24
q-5 -5 -12.5 -9.5t-20.5 -4.5h-93q-21 0 -38.5 16.5t-17.5 51.5v74q-141 -169 -362 -169q-91 0 -165.5 27t-134.5 84q-121 114 -121 284q0 250 223 387q-187 108 -187 285q0 157 122 252q118 90 315 90q67 0 132.5 -10t130.5 -32q21 -7 34 -23.5t13 -37.5v-78
q0 -26 -19 -44.5t-47 -18.5q-13 0 -23 5q-117 47 -232 47q-90 0 -142 -45q-49 -41 -49 -110q0 -50 21 -83t68 -56q48 -24 128 -35t205 -11h549z" />
  </g>

</svg>
