<?xml version="1.0" standalone="no"?>
<!DOCTYPE svg PUBLIC "-//W3C//DTD SVG 1.1//EN" "http://www.w3.org/Graphics/SVG/1.1/DTD/svg11.dtd" >
<svg xmlns="http://www.w3.org/2000/svg" xmlns:xlink="http://www.w3.org/1999/xlink" version="1.1" viewBox="0 -410 2048 2048">
  <g transform="matrix(1 0 0 -1 0 1638)">
   <path fill="currentColor"
d="M851 973q0 13 -12 21t-25 8h-109q-92 0 -150.5 -2.5t-85.5 -7.5q-54 -9 -101 -43q-119 -86 -119 -251q0 -107 68 -176q68 -70 168 -70q80 0 146 31.5t116 96.5q51 66 77.5 147.5t26.5 184.5v61zM851 457q0 11 -6.5 18.5t-16 10.5t-19.5 0.5t-17 -10.5
q-128 -155 -334 -155q-167 0 -278 102q-112 106 -112 260q0 231 208 359q16 10 16 26.5t-16 26.5q-172 105 -172 260q0 142 110 225q57 43 128.5 63.5t166.5 20.5q65 0 127 -9.5t127 -30.5q9 -3 16 -11t7 -19v-78q0 -16 -14 -25.5t-31 -2.5q-121 49 -243 49q-100 0 -163 -52
q-61 -52 -61 -135q0 -116 108 -168q54 -27 139.5 -38t207.5 -11h550q13 0 22 -11.5t9 -24.5v-62q0 -13 -9 -23t-22 -10h-249q-6 0 -14 -2t-15.5 -6t-12.5 -9.5t-5 -11.5v-590q0 -13 -0.5 -23.5t-13.5 -10.5h-94q-13 0 -18.5 10.5t-5.5 23.5v74z" />
  </g>

</svg>
