<?xml version="1.0" standalone="no"?>
<!DOCTYPE svg PUBLIC "-//W3C//DTD SVG 1.1//EN" "http://www.w3.org/Graphics/SVG/1.1/DTD/svg11.dtd" >
<svg xmlns="http://www.w3.org/2000/svg" xmlns:xlink="http://www.w3.org/1999/xlink" version="1.1" viewBox="-64 -410 2048 2048">
  <g transform="matrix(1 0 0 -1 0 1638)">
   <path fill="currentColor"
d="M1410 1427q18 -18 18 -47q0 -12 -2 -24t-4 -26q-32 -127 -168 -186q-58 -25 -140 -25q-38 0 -72 4.5t-56 9.5l-260 -666q-8 -18 -23 -29.5t-35 -12.5h-28q-16 -1 -30 6.5t-24 21.5q-18 29 -6 60q16 42 38 99.5t42 108.5q-50 -48 -106 -88t-120 -72q-38 -20 -75 -32
t-70 -18.5t-60 -8.5t-45 -1h-8q-4 0 -9 0.5t-7 0.5q-66 3 -110 33.5t-69 72t-35 86.5t-10 79q0 257 122 422q32 44 69 79t77 59t80 37t80 13q18 0 36 -3q40 -7 68 -28t42 -47l12 6q62 31 127 35t141 -19l282 -84q26 -8 51 -11t47 -3q30 0 49 6t30 16t17 22t10 24q4 14 3 26
t-5 26q-6 22 3 43t29 32l24 14q20 11 42 8t38 -19zM130 976q22 2 47 6.5t48 10.5t42 13.5t29 15.5q64 52 64 122q0 35 -15 49.5t-51 14.5q-54 0 -102 -71q-44 -65 -62 -161zM248 670q84 1 147 20t110 48.5t83 66t68 72.5q28 31 53 68t46 69.5t33 56.5t16 29l26 72l-62 15
q-30 8 -62 12t-60 4q-76 0 -128 -23q-12 -56 -41 -105t-77 -96q-30 -29 -67 -50.5t-75 -36t-75 -22.5t-69 -11q-2 -48 9 -86.5t35 -64.5q16 -18 39 -28.5t51 -9.5z" />
  </g>

</svg>
