<?xml version="1.0" standalone="no"?>
<!DOCTYPE svg PUBLIC "-//W3C//DTD SVG 1.1//EN" "http://www.w3.org/Graphics/SVG/1.1/DTD/svg11.dtd" >
<svg xmlns="http://www.w3.org/2000/svg" xmlns:xlink="http://www.w3.org/1999/xlink" version="1.1" viewBox="-54 -410 2048 2048">
  <g transform="matrix(1 0 0 -1 0 1638)">
   <path fill="currentColor"
d="M1677 1485q0 -48 -18 -92t-53 -79l-942 -942q2 -71 -24 -136.5t-77 -116.5q-44 -44 -98.5 -70t-114.5 -31h-2l-372 -21h-2q-12 0 -20 8q-8 10 -8 22l19 359l3 11l1 2h-2q5 61 31 116t70 99q51 51 116.5 77t136.5 24l942 942q35 35 79 53t92 18q50 0 93.5 -18t78.5 -53
t53 -78.5t18 -93.5zM374 688l263 -263l103 101l-265 265zM341 73q44 18 57.5 49.5t8.5 59.5q-5 27 -27 51.5t-60 24.5q-24 -1 -43.5 -13.5t-37.5 -26.5q-17 -14 -36 -26t-41 -12q-28 0 -50 21q-17 15 -23.5 31.5t-7 32.5t3.5 31.5t9 28.5q8 27 9.5 44t-16.5 34
q-5 5 -11.5 9.5t-13.5 4.5q-12 0 -24 -13.5t-17 -26.5l-17 -322zM523 159q44 43 66 99t20 117l-285 285q-61 2 -117 -20t-99 -66q-23 -23 -39.5 -49t-27.5 -55q5 1 10.5 2t10.5 1q17 0 32.5 -8t31.5 -22q18 -18 25.5 -36.5t7.5 -35.5t-4 -33.5t-8 -29.5q-9 -27 -10 -40.5
t13 -25.5q5 -5 8 -5t4 -1q8 0 19.5 8t22.5 18q22 17 48.5 34t61.5 17q58 0 98.5 -34t50.5 -88q2 -20 0.5 -41t-11.5 -42q40 18 71 51zM1566 1354q27 26 41.5 60t14.5 71q0 38 -14.5 72t-41.5 60q-26 27 -60.5 40t-70.5 13t-70.5 -13t-61.5 -40l-788 -787l264 -264z" />
  </g>

</svg>
