<?xml version="1.0" standalone="no"?>
<!DOCTYPE svg PUBLIC "-//W3C//DTD SVG 1.1//EN" "http://www.w3.org/Graphics/SVG/1.1/DTD/svg11.dtd" >
<svg xmlns="http://www.w3.org/2000/svg" xmlns:xlink="http://www.w3.org/1999/xlink" version="1.1" viewBox="0 -410 2048 2048">
  <g transform="matrix(1 0 0 -1 0 1638)">
   <path fill="currentColor"
d="M1252 640q-16 18 -29 41t-26 51l-10 23q-15 35 -34 63.5t-42 50.5q-21 20 -52 42t-75 46v-14q0 -138 65.5 -212t202.5 -91zM1465 631q11 -8 17.5 -17t4.5 -20q-2 -21 -22 -28q-62 -21 -139 -21q-56 0 -115.5 12t-113 37t-95.5 63t-63 90l-4 3l-4 -2q-72 -85 -179 -69
q-22 3 -38 9.5t-36 22.5q-41 31 -61.5 70.5t-26.5 77.5t-1.5 68.5t13.5 42.5q8 11 16 13.5t13 2.5q10 0 18 -5.5t11 -11.5q2 -4 5 -10.5t5 -17.5q5 -17 12 -38.5t19 -41t29 -32.5t41 -13h4q31 0 50.5 17t31 39.5t15.5 44t4 29.5q0 92 -102 172q-51 40 -107.5 60.5
t-119.5 20.5q-128 0 -210 -84q-84 -84 -84 -212q0 -118 69 -187q5 -4 8 -7.5t8 -7.5q13 -11 17 -27t-2 -31q-8 -22 -30.5 -30.5t-42.5 3.5q-20 11 -38 24t-36 29q-121 106 -124 264q-2 78 30.5 149t92.5 122q109 93 270 93q51 0 107.5 -12.5t117.5 -38.5q60 -26 113 -59
t102 -73l30 -25q54 -44 100 -66.5t88 -22.5q52 0 85 30q34 30 34 73q0 56 -46 99q-47 41 -111 41q-72 0 -127 -58q-10 -11 -24.5 -12t-26.5 7l-6 4q-12 8 -14 26q-1 16 8 27q98 125 252 125q114 0 190 -65q79 -67 79 -166q0 -77 -41.5 -129.5t-121.5 -76.5q-4 -2 -4 -4l2 -5
q24 -16 35 -27q16 -16 29 -39t22 -45t14 -38.5t5 -17.5q8 -27 19.5 -45.5t24 -32t25.5 -22t25 -15.5z" />
  </g>

</svg>
