<?xml version="1.0" standalone="no"?>
<!DOCTYPE svg PUBLIC "-//W3C//DTD SVG 1.1//EN" "http://www.w3.org/Graphics/SVG/1.1/DTD/svg11.dtd" >
<svg xmlns="http://www.w3.org/2000/svg" xmlns:xlink="http://www.w3.org/1999/xlink" version="1.1" viewBox="0 -410 2048 2048">
  <g transform="matrix(1 0 0 -1 0 1638)">
   <path fill="currentColor"
d="M586 957q-44 -24 -75 -46t-52 -42q-23 -22 -42 -50.5t-34 -63.5l-10 -23q-13 -28 -26 -51t-29 -41q137 17 202.5 91.5t65.5 211.5v14zM1365 1204q60 -51 92.5 -122t30.5 -149q-3 -158 -124 -264q-18 -16 -36 -29t-38 -24q-20 -12 -42.5 -3.5t-30.5 30.5q-6 15 -2 31
t17 27q5 4 8 7.5t8 7.5q69 69 69 187q0 128 -84 212q-83 84 -210 84q-126 0 -227 -80q-102 -80 -102 -173q0 -8 4 -29.5t15.5 -44t31 -39.5t50.5 -17h4q24 0 41 13t29 32.5t19 41t12 38.5q2 11 5 17.5t5 10.5q3 6 11 11.5t18 5.5q5 0 13 -2.5t16 -13.5q9 -12 13.5 -42.5
t-1.5 -68.5t-26.5 -77.5t-61.5 -70.5q-20 -16 -36 -22.5t-38 -9.5q-107 -16 -179 69l-4 2l-4 -3q-21 -52 -63 -90t-95.5 -63t-113.5 -37t-115 -12q-78 0 -139 21q-20 7 -22 28q-2 11 4.5 20t17.5 17l5 3q12 7 25 15.5t25.5 22t24 32t19.5 45.5q0 1 5 17.5t14 38.5t22 45
t29 39q11 11 35 27l2 5q-1 0 -1.5 1.5t-2.5 2.5q-80 24 -121.5 76.5t-41.5 129.5q0 99 79 166q76 65 190 65q154 0 252 -125q9 -11 8 -27q-2 -17 -14 -26l-6 -4q-12 -8 -26.5 -7t-24.5 12q-55 58 -127 58q-64 0 -111 -41q-46 -43 -46 -99q0 -43 34 -72q34 -31 85 -31
q84 0 188 89l30 26q95 80 215 131q61 26 117.5 38.5t107.5 12.5q160 0 270 -93z" />
  </g>

</svg>
