<?xml version="1.0" standalone="no"?>
<!DOCTYPE svg PUBLIC "-//W3C//DTD SVG 1.1//EN" "http://www.w3.org/Graphics/SVG/1.1/DTD/svg11.dtd" >
<svg xmlns="http://www.w3.org/2000/svg" xmlns:xlink="http://www.w3.org/1999/xlink" version="1.1" viewBox="0 -410 2048 2048">
  <g transform="matrix(1 0 0 -1 0 1638)">
   <path fill="currentColor"
d="M1252 1359q-137 -17 -202.5 -91.5t-65.5 -211.5v-14q44 24 75 46t52 42q46 45 76 115l10 22q13 28 26 51t29 41zM1465 1433q20 -7 22 -28q2 -11 -4.5 -20t-17.5 -17l-5 -3q-12 -7 -25 -15.5t-25.5 -21.5t-24 -32t-19.5 -46q0 -2 -5 -18t-14 -38t-22 -45t-29 -39
q-11 -11 -35 -27l-2 -5q1 0 1.5 -1.5t2.5 -2.5q80 -24 121.5 -76.5t41.5 -129.5q0 -99 -79 -166q-76 -65 -190 -65q-154 0 -252 125q-9 11 -8 27q2 17 14 26l6 4q12 8 26.5 7t24.5 -12q55 -58 127 -58q64 0 111 41q46 43 46 99q0 43 -34 72q-34 31 -85 31q-84 0 -188 -89
l-30 -26q-95 -80 -215 -131q-61 -26 -117.5 -38.5t-107.5 -12.5q-161 0 -270 93q-60 51 -92.5 122t-30.5 149q3 158 124 264q18 16 36 29t38 24q20 12 42.5 3.5t30.5 -30.5q6 -15 2 -31t-17 -27q-5 -4 -8 -7.5t-8 -7.5q-69 -69 -69 -187q0 -128 84 -212q82 -84 210 -84
q126 0 227 80q102 79 102 173q0 8 -4 29.5t-15.5 44t-31 39.5t-50.5 17h-4q-24 0 -41 -13t-29 -32.5t-19 -41t-12 -38.5q-2 -11 -5 -17.5t-5 -10.5q-3 -6 -11 -11.5t-18 -5.5q-5 0 -13 2.5t-16 13.5q-9 12 -13.5 42.5t2 68t26.5 77t61 71.5q20 16 36 22.5t38 9.5
q107 16 179 -69l4 -2l4 3q21 52 63 90t95.5 63t113 37t115.5 12q77 0 139 -21z" />
  </g>

</svg>
