<?xml version="1.0" standalone="no"?>
<!DOCTYPE svg PUBLIC "-//W3C//DTD SVG 1.1//EN" "http://www.w3.org/Graphics/SVG/1.1/DTD/svg11.dtd" >
<svg xmlns="http://www.w3.org/2000/svg" xmlns:xlink="http://www.w3.org/1999/xlink" version="1.1" viewBox="0 -410 2048 2048">
  <g transform="matrix(1 0 0 -1 0 1638)">
   <path fill="currentColor"
d="M586 1056q0 138 -65.5 212t-202.5 91q16 -18 29 -41t26 -51l10 -22q31 -73 76 -115q21 -20 52 -42t75 -46v14zM1364 1330q121 -106 124 -264q2 -78 -30.5 -149t-92.5 -122q-110 -93 -270 -93q-51 0 -107.5 12.5t-117.5 38.5q-60 26 -113 59t-102 73l-30 25
q-54 44 -100 66.5t-88 22.5q-52 0 -85 -30q-34 -30 -34 -73q0 -56 46 -99q47 -41 111 -41q72 0 127 58q10 11 24.5 12t26.5 -7l6 -4q12 -9 14 -26q1 -16 -8 -27q-98 -125 -252 -125q-114 0 -190 65q-79 67 -79 166q0 77 41.5 129.5t121.5 76.5q2 1 2.5 2.5t1.5 1.5l-2 5
q-24 16 -35 27q-16 16 -29 39t-22 45t-14 38t-5 18q-8 27 -19.5 46t-24 32t-25.5 21.5t-25 15.5l-5 3q-11 8 -17.5 17t-4.5 20q2 21 22 28q61 21 139 21q55 0 115 -12t113.5 -37t95.5 -63t63 -90l4 -3l4 2q72 85 179 69q22 -3 38 -9.5t36 -22.5q40 -32 60.5 -71.5t27 -77
t2 -68t-13.5 -42.5q-8 -11 -15.5 -13.5t-13.5 -2.5q-10 0 -18 5.5t-11 11.5q-2 4 -5 10.5t-5 17.5q-5 17 -12 38.5t-19 41t-29 32.5t-41 13h-4q-31 0 -50.5 -17t-31 -39.5t-15.5 -44t-4 -29.5q0 -93 102 -172q51 -40 107.5 -60.5t119.5 -20.5q127 0 210 84q84 84 84 212
q0 118 -69 187q-5 4 -8 7.5t-8 7.5q-13 11 -17 27t2 31q8 22 30.5 30.5t42.5 -3.5q20 -11 38 -24t36 -29z" />
  </g>

</svg>
