<?xml version="1.0" standalone="no"?>
<!DOCTYPE svg PUBLIC "-//W3C//DTD SVG 1.1//EN" "http://www.w3.org/Graphics/SVG/1.1/DTD/svg11.dtd" >
<svg xmlns="http://www.w3.org/2000/svg" xmlns:xlink="http://www.w3.org/1999/xlink" version="1.1" viewBox="0 -410 2048 2048">
  <g transform="matrix(1 0 0 -1 0 1638)">
   <path fill="currentColor"
d="M741 628q27 -4 47.5 -3t34.5 3l27 3v13q-3 -1 -10 -1h-20q-14 0 -32.5 2t-46.5 5v-22zM669 658q-27 7 -60.5 19t-68 28.5t-66.5 37.5t-56 45q-49 50 -74 105.5t-25 119.5q0 45 19 92.5t56 98.5q-135 -108 -135 -252q0 -128 114 -222q59 -49 137 -75.5t159 -35.5v39z
M850 1241q0 13 -5 28t-14 23q-16 14 -37.5 19.5t-39.5 -8.5q-5 -5 -7 -12q-4 -8 -5 -20.5t-1 -33.5v-491q0 -29 28 -37q11 -3 20 -3.5t19 -2.5q17 -3 29.5 8t12.5 29v501zM669 1253q0 18 -16.5 30t-34.5 8q-45 -10 -87 -28.5t-74 -45.5q-78 -68 -78 -168q0 -48 16 -93.5
t56 -87.5q30 -32 71.5 -58.5t86.5 -49.5q9 -5 19.5 -4t19.5 6t15 13t6 19v459zM1240 769q-71 -56 -143.5 -97t-147.5 -70q-11 -4 -19 -13.5t-8 -22.5v-640q0 -11 -3.5 -19t-12.5 -8q-10 -14 -20 -15.5t-18 4.5t-13 17t-5 21v606q0 17 -13.5 29t-31.5 8q-8 -2 -16 -3t-17 -3
q-31 -7 -31 -39v-598q0 -11 -6 -19t-17 -8h5q-10 -14 -19.5 -15.5t-17 4.5t-12.5 17t-5 21v597q0 17 -12.5 26t-26.5 13q-41 4 -83 13t-83 22.5t-79 32.5t-70 43q-138 105 -138 252q0 77 30.5 144t98.5 126q63 55 143.5 94.5t184.5 62.5q14 4 24.5 14t10.5 24v96
q0 5 0.5 12.5t2.5 14t5 11.5t8 5q20 0 38 -11t18 -32v-72q0 -17 7 -29t24 -10q8 1 18.5 0.5t20.5 0.5q14 3 23 17q8 12 14.5 33.5t3.5 63.5q-2 11 4 25t17 14h-3q19 0 35.5 -11t16.5 -32v-86q0 -14 10.5 -24.5t25.5 -12.5q72 -14 148 -37t143 -55q12 -6 18.5 -18.5
t2.5 -26.5l-43 -144q-4 -12 -14 -18t-22 -6q-14 0 -23.5 6.5t-11.5 20.5q-2 16 -1 33t-1.5 34t-9.5 33.5t-25 33.5q-19 17 -59 31t-90 23q-19 3 -33.5 -8.5t-14.5 -30.5v-491q0 -18 15 -29t33 -8q63 11 114 38t105 67q6 4 13.5 4t14.5 -2.5t13.5 -5t11.5 -2.5h1q4 0 5.5 -4
t1 -10t-3 -12t-6.5 -10z" />
  </g>

</svg>
