<?xml version="1.0" standalone="no"?>
<!DOCTYPE svg PUBLIC "-//W3C//DTD SVG 1.1//EN" "http://www.w3.org/Graphics/SVG/1.1/DTD/svg11.dtd" >
<svg xmlns="http://www.w3.org/2000/svg" xmlns:xlink="http://www.w3.org/1999/xlink" version="1.1" viewBox="0 -410 2048 2048">
  <g transform="matrix(1 0 0 -1 0 1638)">
   <path fill="currentColor"
d="M1042 -85q-108 0 -208 28t-187 79t-159 123t-123 159t-79 187t-28 208t28 208.5t79 187.5t123 159t159 123t187 79t208 28t209 -28t188 -79t159 -123t123 -159t79 -187.5t28 -208.5t-28 -208t-79 -187t-123 -159t-159 -123t-188 -79t-209 -28zM1042 1421q-100 0 -192 -26
t-172 -72.5t-146 -112.5t-112 -146.5t-72 -172.5t-26 -192t26 -192t72 -172t112 -146t146 -112.5t173 -72.5t191 -26q100 0 192 26t173 72.5t147 112.5t112 146t72 172t26 192t-26 192t-72 172.5t-112 146.5t-147 112.5t-173 72.5t-192 26zM1042 483q-44 0 -83 17t-69 46.5
t-47 69t-17 84.5t17 84t47 68.5t69 46.5t83 17q46 0 85 -17t69 -46.5t47 -68.5t17 -84t-17 -84.5t-47 -69t-69 -46.5t-85 -17zM1042 853q-32 0 -59 -12t-48 -33t-33 -49t-12 -59q0 -32 12 -60t33 -49t48 -33t59 -12t60 12t49 33t33 49t12 60q0 31 -12 59t-33 49t-49 33
t-60 12z" />
  </g>

</svg>
