<?xml version="1.0" standalone="no"?>
<!DOCTYPE svg PUBLIC "-//W3C//DTD SVG 1.1//EN" "http://www.w3.org/Graphics/SVG/1.1/DTD/svg11.dtd" >
<svg xmlns="http://www.w3.org/2000/svg" xmlns:xlink="http://www.w3.org/1999/xlink" version="1.1" viewBox="0 -410 2048 2048">
  <g transform="matrix(1 0 0 -1 0 1638)">
   <path fill="currentColor"
d="M165 1033q11 11 24 10.5t23 -10.5l352 -350q10 -9 9.5 -22.5t-9.5 -24.5l-25 -24q-11 -11 -24.5 -10.5t-22.5 10.5l-350 350q-11 11 -11 23.5t11 23.5zM472 631q-9 10 -9.5 23t9.5 23l682 681q10 10 23.5 10.5t21.5 -10.5l27 -25q9 -10 9.5 -23.5t-9.5 -23.5l-682 -680
q-10 -10 -23 -10.5t-22 10.5z" />
  </g>

</svg>
