<?xml version="1.0" standalone="no"?>
<!DOCTYPE svg PUBLIC "-//W3C//DTD SVG 1.1//EN" "http://www.w3.org/Graphics/SVG/1.1/DTD/svg11.dtd" >
<svg xmlns="http://www.w3.org/2000/svg" xmlns:xlink="http://www.w3.org/1999/xlink" version="1.1" viewBox="0 -410 2048 2048">
  <g transform="matrix(1 0 0 -1 0 1638)">
   <path fill="currentColor"
d="M392 1303q8 8 20 8t20 -8l576 -576q8 -8 8 -20t-8 -20l-22 -22q-8 -8 -20 -8t-20 8l-576 577q-8 8 -8 20t8 20zM370 687q-8 8 -8 20t8 20l576 576q8 8 20 8t20 -8l22 -21q8 -8 8 -20t-8 -20l-576 -577q-8 -8 -20 -8t-20 8zM688 403q-124 0 -233 47t-190 128.5t-128 191
t-47 233.5t47 233t128 190.5t190 128.5t233 47t234 -47t191 -128.5t128 -190.5t47 -233t-47 -233.5t-128 -191t-191 -128.5t-234 -47v33v33q112 0 209 41t169 115q74 73 115 169.5t41 208.5t-41 208t-115 169q-72 74 -169 115t-209 41t-208 -41t-168 -115q-74 -73 -115 -169
t-41 -208t41 -208.5t115 -169.5q72 -74 168 -115t208 -41v-33v-33z" />
  </g>

</svg>
