<?xml version="1.0" standalone="no"?>
<!DOCTYPE svg PUBLIC "-//W3C//DTD SVG 1.1//EN" "http://www.w3.org/Graphics/SVG/1.1/DTD/svg11.dtd" >
<svg xmlns="http://www.w3.org/2000/svg" xmlns:xlink="http://www.w3.org/1999/xlink" version="1.1" viewBox="0 -410 2048 2048">
  <g transform="matrix(1 0 0 -1 0 1638)">
   <path fill="currentColor"
d="M682 1618q84 0 163 -22t147 -62t125 -96.5t97 -124.5t62 -146.5t22 -163.5t-22 -163.5t-62 -147t-97 -125t-125 -96.5t-147 -62t-163 -22q-128 0 -240 48.5t-195 132t-132 195.5t-49 240q0 127 49 239t132 195.5t195 132t240 48.5zM682 485q106 0 201 40.5t165 111
t111 165t41 201.5t-41 201t-111 164.5t-165 111t-201 40.5q-108 0 -202 -40.5t-164 -111t-111 -164.5t-41 -201t41 -201.5t111 -165t164 -111t202 -40.5zM1026 1280q0 -18 -14 -31l-246 -246l246 -247q14 -13 14 -31t-14 -31l-22 -22q-12 -13 -30 -13t-32 13l-246 247
l-246 -247q-14 -13 -32 -13t-30 13l-22 22q-14 13 -14 31t14 31l246 247l-246 246q-14 13 -14 31t14 31l22 22q12 12 30 12.5t32 -12.5l246 -247l246 247q14 13 32 13t30 -13l22 -22q14 -13 14 -31z" />
  </g>

</svg>
