<?xml version="1.0" standalone="no"?>
<!DOCTYPE svg PUBLIC "-//W3C//DTD SVG 1.1//EN" "http://www.w3.org/Graphics/SVG/1.1/DTD/svg11.dtd" >
<svg xmlns="http://www.w3.org/2000/svg" xmlns:xlink="http://www.w3.org/1999/xlink" version="1.1" viewBox="0 -410 2048 2048">
  <g transform="matrix(1 0 0 -1 0 1638)">
   <path fill="currentColor"
d="M1312 1453q36 0 62 -26t26 -62v-1276q0 -37 -26 -62.5t-62 -25.5h-1000q-36 0 -62 25.5t-26 62.5v1276q0 36 26 62t62 26h1000zM1342 1365q0 12 -9 20.5t-21 8.5h-1000q-12 0 -21 -8.5t-9 -20.5v-1276q0 -12 9 -21t21 -9h1000q12 0 21 9t9 21v1276zM1402 1727q18 0 34 -7
t28 -19t19 -28t7 -34v-68q0 -18 -7 -34t-19 -27.5t-28 -18.5t-34 -7h-1180q-18 0 -34 7t-28 18.5t-19 27.5t-7 34v68q0 18 7 34t19 28t28 19t34 7h378q0 5 -1 9t-1 8q0 32 22 54t54 22h276q32 0 55 -22t23 -54q0 -4 -2 -8t-2 -9h378zM656 1744q0 -7 5 -12t13 -5h276
q8 0 13 5t5 12q0 8 -5 13t-13 5h-276q-8 0 -13 -5t-5 -13zM1430 1639q0 12 -8 21t-20 9h-452h-276h-452q-12 0 -20 -9t-8 -21v-68q0 -12 8 -20.5t20 -8.5h1180q12 0 20 8.5t8 20.5v68zM498 1264q18 0 34 -7t29 -19t20 -28t7 -34v-670q0 -18 -7 -34t-20 -28.5t-29 -19.5
t-34 -7h-22q-18 0 -34 7t-28 19.5t-19 28.5t-7 34v670q0 36 26 62t62 26h22zM528 1176q0 12 -9 20.5t-21 8.5h-22q-12 0 -20 -8.5t-8 -20.5v-670q0 -12 8 -21t20 -9h22q12 0 21 9t9 21v670zM824 1264q18 0 34 -7t28 -19t19 -28t7 -34v-670q0 -18 -7 -34t-19 -28.5t-28 -19.5
t-34 -7h-22q-18 0 -34 7t-29 19.5t-20 28.5t-7 34v670q0 18 7 34t20 28t29 19t34 7h22zM852 1176q0 12 -8 20.5t-20 8.5h-22q-12 0 -21 -8.5t-9 -20.5v-670q0 -12 9 -21t21 -9h22q12 0 20 9t8 21v670zM1150 1264q36 0 62 -26t26 -62v-670q0 -18 -7 -34t-19 -28.5t-28 -19.5
t-34 -7h-22q-18 0 -34 7t-28 19.5t-19 28.5t-7 34v670q0 36 26 62t62 26h22zM1180 1176q0 12 -9 20.5t-21 8.5h-22q-12 0 -21 -8.5t-9 -20.5v-670q0 -12 9 -21t21 -9h22q12 0 21 9t9 21v670z" />
  </g>

</svg>
