<?xml version="1.0" standalone="no"?>
<!DOCTYPE svg PUBLIC "-//W3C//DTD SVG 1.1//EN" "http://www.w3.org/Graphics/SVG/1.1/DTD/svg11.dtd" >
<svg xmlns="http://www.w3.org/2000/svg" xmlns:xlink="http://www.w3.org/1999/xlink" version="1.1" viewBox="-53 -410 2048 2048">
  <g transform="matrix(1 0 0 -1 0 1638)">
   <path fill="currentColor"
d="M1676 1369q0 -21 -17 -40l-1096 -1096l-136 -136q-8 -8 -18 -12.5t-22 -4.5q-11 0 -20 4.5t-17 11.5l-39 39l-286 -151l-13 -4q-12 0 -21 9l-34 35q-15 15 -6 33l152 287l-40 38q-15 17 -15 37q0 25 17 40l136 136l1096 1097q17 15 40.5 15t39.5 -15l282 -283
q17 -15 17 -40zM1474 1224l-282 282l-1007 -1006l284 -282zM431 178l-284 284l-43 -43l53 -51q7 -7 8 -15.5t-3 -16.5l-151 -287l6 -6l287 152q8 4 16.5 2t15.5 -8l54 -54zM1619 1369l-282 283l-106 -106l283 -282zM1139 1171q27 -27 24 -71t-27.5 -95.5t-66 -107
t-92.5 -106.5q-42 -43 -86 -78t-85.5 -59.5t-78.5 -37.5t-67 -13q-26 0 -41.5 8t-23.5 17q-27 27 -24 71t27.5 95.5t66.5 107.5t93 107q43 42 86.5 76.5t85 59t78.5 38t67 13.5q26 0 41 -8t23 -17zM937 829q53 54 89 104t56 90.5t24.5 69.5t-6.5 40q-4 2 -10.5 4t-14.5 2
q-20 0 -49 -10t-65.5 -31t-78 -53t-85.5 -76q-53 -53 -89 -103t-55.5 -90.5t-24 -69t6.5 -39.5q10 -10 38 -6t69 23.5t91 55.5t104 89z" />
  </g>

</svg>
