<?xml version="1.0" standalone="no"?>
<!DOCTYPE svg PUBLIC "-//W3C//DTD SVG 1.1//EN" "http://www.w3.org/Graphics/SVG/1.1/DTD/svg11.dtd" >
<svg xmlns="http://www.w3.org/2000/svg" xmlns:xlink="http://www.w3.org/1999/xlink" version="1.1" viewBox="0 -410 2048 2048">
  <g transform="matrix(1 0 0 -1 0 1638)">
   <path fill="currentColor"
d="M764 1132q2 -8 8 -11t12 -2.5t11 5.5t5 13v455q0 14 -13 18t-21 -9l-84 -144q-1 -4 -1.5 -7t-0.5 -7zM702 1097q6 -6 13 -6t12 4t7 10.5t-2 13.5l-228 393q-8 13 -21 9t-13 -18v-166q0 -9 6 -13zM666 1035q8 -2 14 1t8 9t0.5 12.5t-8.5 10.5l-394 228q-6 3 -11.5 2
t-9.5 -5t-5.5 -10t2.5 -12l84 -144q2 -6 10 -8zM668 964q8 2 11 8t2 12t-6 10.5t-13 4.5h-454q-14 0 -18 -13t8 -20l144 -84q8 -3 14 -2zM702 902q6 6 6 13t-4 12t-10.5 6.5t-13.5 -2.5l-392 -228q-12 -7 -9 -20t17 -13h166q7 0 14 5zM764 866q2 8 -1 13.5t-9 8t-12 1
t-10 -8.5l-228 -394q-8 -13 1.5 -22.5t22.5 -1.5l144 82q6 5 8 11zM836 867q-2 7 -8 10.5t-12 2.5t-11 -5.5t-5 -12.5v-455q0 -14 13 -18t21 9l84 144q1 4 1.5 7t0.5 7zM898 902q-6 6 -13 6t-12 -4t-7 -10.5t2 -13.5l228 -393q4 -7 9.5 -9t11 -0.5t9.5 6.5t4 12v166
q0 8 -6 13zM934 964q-8 2 -14 -1.5t-8 -9.5t-0.5 -12.5t8.5 -10.5l394 -227q6 -3 12 -2t10 5t5 10t-3 12l-84 144q-2 6 -10 8zM932 1035q-8 -2 -11 -8t-2 -12t6 -11t13 -5h454q7 0 12 4t6.5 10t-0.5 11.5t-8 8.5l-144 84q-8 3 -14 2zM898 1097q-6 -6 -6 -13t4 -12t10.5 -6.5
t13.5 2.5l392 228q12 7 9 20t-17 13h-166q-6 0 -14 -5zM836 1133q-2 -8 1 -13.5t9 -8t12 -1t10 8.5l228 393q8 14 -2 23t-22 2l-144 -83q-6 -3 -8 -11zM156 1353q-4 9 1 18t15 9h230q18 0 18 18v230q0 11 9 16t17 -1l198 -114q17 -8 26 6l114 198q5 9 16 9t16 -9l114 -198
q9 -14 26 -6l198 114q8 6 17 1t9 -16v-230q0 -18 18 -18h230q12 0 16.5 -9t-0.5 -18l-114 -198q-4 -7 -2 -14t8 -11l198 -115q8 -5 8 -15.5t-8 -15.5l-198 -115q-6 -4 -8 -11t2 -14l114 -198q5 -9 0.5 -18t-16.5 -9h-230q-18 0 -18 -18v-229q0 -11 -9 -16t-17 0l-198 114
q-17 8 -26 -6l-114 -198q-5 -9 -16 -9t-16 9l-114 198q-9 14 -26 6l-198 -114q-8 -5 -17 0t-9 16v229q0 18 -18 18h-230q-10 0 -15 9t-1 18l114 198q4 7 2 14t-8 11l-198 115q-8 5 -8 15.5t8 15.5l198 115q6 4 8 11t-2 14z" />
  </g>

</svg>
