<?xml version="1.0" standalone="no"?>
<!DOCTYPE svg PUBLIC "-//W3C//DTD SVG 1.1//EN" "http://www.w3.org/Graphics/SVG/1.1/DTD/svg11.dtd" >
<svg xmlns="http://www.w3.org/2000/svg" xmlns:xlink="http://www.w3.org/1999/xlink" version="1.1" viewBox="0 -410 2048 2048">
  <g transform="matrix(1 0 0 -1 0 1638)">
   <path fill="currentColor"
d="M173 540q0 307 216.5 523.5t523.5 216.5t523.5 -216.5t216.5 -523.5t-216.5 -523.5t-523.5 -216.5t-523.5 216.5t-216.5 523.5zM272 540q0 -266 187.5 -453.5t453.5 -187.5t454 187.5t188 453.5t-188 454t-454 188t-453.5 -188t-187.5 -454zM679 47q28 158 91 270
t293 413l82 107h-510v137h599v-98q-386 -500 -405 -829h-150z" />
  </g>

</svg>
