<?xml version="1.0" standalone="no"?>
<!DOCTYPE svg PUBLIC "-//W3C//DTD SVG 1.1//EN" "http://www.w3.org/Graphics/SVG/1.1/DTD/svg11.dtd" >
<svg xmlns="http://www.w3.org/2000/svg" xmlns:xlink="http://www.w3.org/1999/xlink" version="1.1" viewBox="0 -410 2048 2048">
  <g transform="matrix(1 0 0 -1 0 1638)">
   <path fill="currentColor"
d="M741 1253q-12 -7 -25 -3t-20 15q-7 12 -3.5 25t15.5 20v1q12 7 25 3.5t20 -15.5t3.5 -25t-15.5 -20v-1zM760 702l1 -3v-579q0 -11 -6.5 -20t-16.5 -14q-10 -2 -13 -2h-1q-3 0 -13 2q-10 5 -16.5 14t-6.5 20v570l-212 368q-8 14 -4 27.5t17 21.5t27.5 4.5t22.5 -17.5
l217 -376l1 -2l2 -7zM1246 437q12 -7 15.5 -20t-3.5 -25v-1q-7 -11 -20 -15t-25 3l-1 1q-12 7 -15.5 20t3.5 25q8 12 21 15.5t24 -3.5h1zM202 963q-12 7 -15.5 20t3.5 25t20.5 16t24.5 -4q12 -7 15.5 -20t-3.5 -24v-1q-7 -12 -20.5 -15.5t-24.5 3.5zM450 224q11 -8 15 -21
t-3 -24l-1 -1q-7 -12 -20 -15.5t-25 3.5t-15.5 20t3.5 25v1q8 12 21 15.5t25 -3.5zM1033 1234q12 -7 16 -20.5t-4 -24.5q-7 -12 -20 -15.5t-24 3.5h-1q-12 7 -15.5 20.5t3.5 24.5q7 12 20 15.5t25 -3.5zM1045 211q7 -12 3.5 -25t-15.5 -20h-1q-12 -7 -25 -3.5t-20 15.5v1
q-7 11 -3.5 24t15.5 21q12 7 25 3.5t20 -15.5zM403 1189q-7 12 -3 25t15 20h1q12 7 25 3.5t20 -15.5t3.5 -25t-14.5 -20h-1q-12 -8 -25 -4.5t-21 15.5v1zM249 425q7 -12 3.5 -25t-15.5 -20l-1 -1q-12 -7 -25 -3t-20 15v1q-7 12 -3.5 25t15.5 20h1q11 7 24 3.5t21 -15.5z
M1259 1008q7 -12 3.5 -25t-15.5 -20h-1q-11 -7 -24.5 -3.5t-20.5 15.5t-3.5 25t15.5 20l1 1q12 7 25 3t20 -15v-1zM141 733q14 0 23.5 -9.5t9.5 -23.5v-1q0 -14 -9.5 -23.5t-23.5 -9.5t-23.5 9.5t-9.5 23.5v1q0 14 9.5 23.5t23.5 9.5zM1309 733q14 0 23.5 -9.5t9.5 -23.5v-1
q0 -14 -9.5 -23.5t-23.5 -9.5t-23.5 9.5t-9.5 23.5v1q0 14 9.5 23.5t23.5 9.5zM1186 238q97 97 143.5 210.5t46.5 251.5t-46.5 250.5t-143.5 209.5t-210 144t-251 47q-139 0 -251.5 -47t-209.5 -144t-144 -209.5t-47 -250.5t47 -251t144 -210t209.5 -144t251.5 -47
q138 0 251 46.5t210 143.5zM1237 1211q212 -212 212 -511q0 -301 -212 -513t-512 -212q-301 0 -512 213q-213 213 -213 512q0 298 213 511t512 213q300 0 512 -213z" />
  </g>

</svg>
