<?xml version="1.0" standalone="no"?>
<!DOCTYPE svg PUBLIC "-//W3C//DTD SVG 1.1//EN" "http://www.w3.org/Graphics/SVG/1.1/DTD/svg11.dtd" >
<svg xmlns="http://www.w3.org/2000/svg" xmlns:xlink="http://www.w3.org/1999/xlink" version="1.1" viewBox="0 -410 2048 2048">
  <g transform="matrix(1 0 0 -1 0 1638)">
   <path fill="currentColor"
d="M1517 1531q12 0 20 -8.5t8 -20.5v-1058q0 -12 -8 -20t-20 -8h-147v-147q0 -12 -9 -21t-21 -9h-147v-146q0 -12 -8 -20.5t-21 -8.5h-1057q-12 0 -20 8.5t-8 20.5v1056q0 12 8 21t20 9h147v146q0 12 9 20.5t21 8.5h146v148q0 12 8.5 20.5t21.5 8.5h1057zM1135 1119h-998
v-997h998v997zM1310 1296h-996v-117h850q13 0 21 -9t8 -21v-850h117v997zM1487 1472h-998v-118h851q12 0 21 -8.5t9 -20.5v-851h117v998z" />
  </g>

</svg>
