<?xml version="1.0" standalone="no"?>
<!DOCTYPE svg PUBLIC "-//W3C//DTD SVG 1.1//EN" "http://www.w3.org/Graphics/SVG/1.1/DTD/svg11.dtd" >
<svg xmlns="http://www.w3.org/2000/svg" xmlns:xlink="http://www.w3.org/1999/xlink" version="1.1" viewBox="0 -410 2048 2048">
  <g transform="matrix(1 0 0 -1 0 1638)">
   <path fill="currentColor"
d="M1104 1085q12 0 20.5 -8.5t8.5 -20.5t-8.5 -20.5t-20.5 -8.5h-903q-13 0 -21.5 8.5t-8.5 20.5t8.5 20.5t21.5 8.5h903zM1104 874q12 0 20.5 -9t8.5 -21t-8.5 -21t-20.5 -9h-903q-13 0 -21.5 9t-8.5 21t8.5 21t21.5 9h903zM1104 660q12 0 20.5 -8.5t8.5 -20.5
q0 -13 -8.5 -21t-20.5 -8h-903q-13 0 -21.5 8t-8.5 21q0 12 8.5 20.5t21.5 8.5h903zM1104 448q12 0 20.5 -8.5t8.5 -20.5q0 -13 -8.5 -21.5t-20.5 -8.5h-903q-13 0 -21.5 8.5t-8.5 21.5q0 12 8.5 20.5t21.5 8.5h903zM1104 235q12 0 20.5 -9t8.5 -21t-8.5 -20t-20.5 -8h-903
q-13 0 -21.5 8t-8.5 20t8.5 21t21.5 9h903zM1556 1670q12 0 20 -8.5t8 -21.5v-1381q0 -12 -8 -20.5t-20 -8.5h-131v-130q0 -12 -8 -21t-20 -9h-131v-129q0 -13 -9 -21.5t-21 -8.5h-1169q-12 0 -20 8.5t-8 21.5v1381q0 12 8 20.5t20 8.5h131v130q0 12 8 21t20 9h131v129
q0 13 9 21.5t21 8.5h1169zM1208 1292h-1111v-1323h1111v1323zM1367 1453h-1111v-102h980q12 0 21 -8.5t9 -20.5v-1194h101v1325zM1526 1612h-1111v-101h982q12 0 20 -9t8 -21v-1192h101v1323z" />
  </g>

</svg>
