<?xml version="1.0" standalone="no"?>
<!DOCTYPE svg PUBLIC "-//W3C//DTD SVG 1.1//EN" "http://www.w3.org/Graphics/SVG/1.1/DTD/svg11.dtd" >
<svg xmlns="http://www.w3.org/2000/svg" xmlns:xlink="http://www.w3.org/1999/xlink" version="1.1" viewBox="-14 -410 2048 2048">
  <g transform="matrix(1 0 0 -1 0 1638)">
   <path fill="currentColor"
d="M1610 1966q12 0 20 -9t8 -21v-1913q0 -12 -8 -20.5t-20 -8.5h-131v-130q0 -12 -9 -21t-21 -9h-129v-129q0 -12 -9 -21t-21 -9h-1276q-12 0 -20 9t-8 21v1913q0 12 8 20.5t20 8.5h131v130q0 12 9 21t21 9h129v129q0 12 9 21t21 9h1276zM1262 1588h-1218v-1855h1218v1855z
M1421 -106v129v1724h-1218v-100h1087q12 0 21 -8.5t9 -20.5v-1724h101zM1580 1908h-1218v-101h1087q12 0 21 -9t9 -21v-1724h101v1855z" />
  </g>

</svg>
