<?xml version="1.0" standalone="no"?>
<!DOCTYPE svg PUBLIC "-//W3C//DTD SVG 1.1//EN" "http://www.w3.org/Graphics/SVG/1.1/DTD/svg11.dtd" >
<svg xmlns="http://www.w3.org/2000/svg" xmlns:xlink="http://www.w3.org/1999/xlink" version="1.1" viewBox="0 -410 2048 2048">
  <g transform="matrix(1 0 0 -1 0 1638)">
   <path fill="currentColor"
d="M685 1664q-19 0 -32 13t-13 31q0 19 13 32t32 13q18 0 31 -13t13 -32q0 -18 -13 -31t-31 -13zM685 1730q-9 0 -15.5 -6t-6.5 -16q0 -9 6.5 -15t15.5 -6t15 6t6 15q0 10 -6 16t-15 6zM1553 1432q21 -22 32 -49.5t11 -56t-11 -55.5t-32 -49l-223 -221v-921q0 -30 -21 -52
t-52 -22h-1145q-30 0 -51.5 22t-21.5 52v1496q0 31 21.5 52t51.5 21h350q17 20 40 32.5t50 12.5h17l-2 14q0 24 9.5 45.5t25.5 37.5t37.5 25.5t45.5 9.5t45.5 -9.5t37.5 -25.5t25 -37.5t9 -45.5l-2 -14h17q28 0 51 -12.5t40 -32.5h349q31 0 52 -21t21 -52v-158l14 14
q21 21 48 31t55.5 10t56.5 -10t49 -31zM933 1591l2 -15v-15h194q12 0 20 -8t8 -20v-286l115 113v216q0 6 -4.5 10.5t-10.5 4.5h-324zM671 551l169 10q11 4 17 10.5t8 13t2 11.5v8q-2 11 -11 21t-24 10q-9 0 -18 -5.5t-17 -13.5q-11 -8 -23.5 -16t-29.5 -8q-20 0 -36 15
q-12 11 -16.5 22.5t-5 22.5t2 21t5.5 18q5 15 5 19t-5 9l-5 4l-8 -12zM924 615q1 -5 1 -9.5v-9.5l10 8q22 18 31.5 46.5t11.5 57.5l-149 149q-30 0 -57 -11t-48 -33q-8 -7 -13.5 -15.5t-10.5 -17.5q9 -2 18 -6.5t17 -12.5q12 -12 16.5 -24.5t5 -24.5t-2 -22l-4.5 -18
q-5 -14 -5 -17t2 -5q0 1 4.5 5t8.5 7q11 9 28 20t40 11q38 0 64 -21.5t32 -56.5zM1044 797l-126 127l-36 -38l125 -125zM1099 1187v316h-170q-10 -38 -41 -61.5t-71 -23.5h-265q-39 0 -70 23.5t-42 61.5h-176v-1155h835v421l-63 -64q-2 -39 -16.5 -76.5t-43.5 -66.5
q-25 -25 -58 -40.5t-69 -18.5h-1l-205 -12h-3q-13 0 -20 8q-4 5 -6.5 11t-1.5 12l9 198l3 8h-1q8 76 60 127q29 29 66 44.5t78 15.5zM552 1636q-24 0 -41 -17.5t-17 -42.5v-40q0 -25 17 -42.5t41 -17.5h265q24 0 41 17.5t17 42.5v40q0 25 -17 42.5t-41 17.5h-44l-7 1l-6 -1
l-13 4q-11 5 -14 16.5t3 22.5q7 16 7 29q0 25 -17 41.5t-41 16.5q-25 0 -41.5 -16.5t-16.5 -41.5q0 -16 6 -29q7 -11 4 -22t-14 -17q-12 -7 -22 -4h-4h-45zM1272 942l-115 -114v-510q0 -12 -8 -20t-20 -8h-895q-12 0 -21 8t-9 20v1215q0 12 9 20t21 8h201v15l1 15h-324
q-6 0 -10 -4.5t-4 -10.5v-1496q0 -6 4 -10.5t10 -4.5h1145q6 0 10.5 4.5t4.5 10.5v862zM1511 1264q13 13 19.5 29.5t6.5 33.5t-6.5 33.5t-19.5 29.5q-26 26 -63.5 26t-63.5 -26l-425 -425l127 -126z" />
  </g>

</svg>
