<?xml version="1.0" standalone="no"?>
<!DOCTYPE svg PUBLIC "-//W3C//DTD SVG 1.1//EN" "http://www.w3.org/Graphics/SVG/1.1/DTD/svg11.dtd" >
<svg xmlns="http://www.w3.org/2000/svg" xmlns:xlink="http://www.w3.org/1999/xlink" version="1.1" viewBox="0 -410 2048 2048">
  <g transform="matrix(1 0 0 -1 0 1638)">
   <path fill="currentColor"
d="M741 1256q-12 -7 -25 -3t-20 15q-7 12 -3.5 25t15.5 20v1q12 7 25 3t20 -15q7 -12 3.5 -25t-15.5 -20v-1zM973 341q8 -14 4 -27.5t-17 -21.5t-27.5 -4.5t-22.5 17.5l-149 259v-441q0 -9 -6 -18q-3 -9 -11 -15t-19 -6h-1q-11 0 -19 6t-11 15q-6 9 -6 18v579l1 6l1 1
q2 13 11.5 21.5t22.5 8.5t22 -7.5t13 -18.5zM249 425q7 -12 3.5 -25t-15.5 -20l-1 -1q-12 -7 -25 -3t-20 15v1q-7 12 -3.5 25t15.5 20h1q11 7 24.5 3.5t20.5 -15.5zM1259 1008q7 -12 3.5 -25t-15.5 -20q-11 -7 -24.5 -3.5t-20.5 15.5v1q-7 11 -3.5 24t15.5 20q11 8 24.5 4
t20.5 -16zM1045 211q7 -12 3.5 -25t-15.5 -20t-25 -3.5t-20 15.5l-1 1q-7 11 -3 24t15 21q12 7 25 3t21 -15v-1zM448 1177q-11 -7 -24 -3.5t-20 15.5q-8 11 -4 24.5t16 20.5t25 3.5t20 -15.5q7 -11 3.5 -24.5t-15.5 -20.5h-1zM450 224q12 -8 15.5 -21t-3.5 -24v-1
q-7 -12 -20 -15.5t-25 3.5h-1q-12 7 -15.5 20t3.5 25l1 1q7 12 20 15.5t25 -3.5zM1034 1234q11 -7 15 -20t-3 -25v-1q-8 -12 -21 -15.5t-25 4.5h-1q-11 7 -14.5 20t3.5 25t20 15.5t25 -3.5h1zM1246 437q12 -7 15.5 -20t-3.5 -25v-1q-7 -11 -20 -15t-25 3l-1 1
q-12 7 -15.5 20t3.5 25q8 12 21 15.5t24 -3.5h1zM202 963q-12 7 -15.5 20t3.5 25v1q7 11 20 15t25 -3l1 -1q12 -7 15.5 -20t-3.5 -25t-20.5 -15.5t-24.5 3.5h-1zM1308 733q14 0 23.5 -9.5t9.5 -23.5v-1q0 -14 -9.5 -23.5t-23.5 -9.5t-23.5 9.5t-9.5 23.5v1q0 14 9.5 23.5
t23.5 9.5zM140 733q14 0 23.5 -9.5t9.5 -23.5v-1q0 -14 -9.5 -23.5t-23.5 -9.5t-23.5 9.5t-9.5 23.5v1q0 14 9.5 23.5t23.5 9.5zM1185 239q97 97 144 209.5t47 250.5q0 139 -47 251.5t-144 209.5t-209.5 144t-251.5 47q-138 0 -251 -47t-210 -144t-143.5 -209.5
t-46.5 -251.5q0 -138 46.5 -251t143.5 -210t210 -143.5t251 -46.5q139 0 251.5 47t209.5 144zM1236 1211q213 -213 213 -512q0 -298 -213 -511q-212 -213 -512 -213t-512 212t-212 512t212 512q211 213 512 213q299 0 512 -213z" />
  </g>

</svg>
