<?xml version="1.0" standalone="no"?>
<!DOCTYPE svg PUBLIC "-//W3C//DTD SVG 1.1//EN" "http://www.w3.org/Graphics/SVG/1.1/DTD/svg11.dtd" >
<svg xmlns="http://www.w3.org/2000/svg" xmlns:xlink="http://www.w3.org/1999/xlink" version="1.1" viewBox="0 -410 2048 2048">
  <g transform="matrix(1 0 0 -1 0 1638)">
   <path fill="currentColor"
d="M173 540q0 307 216.5 523.5t523.5 216.5t523.5 -216.5t216.5 -523.5t-216.5 -523.5t-523.5 -216.5t-523.5 216.5t-216.5 523.5zM272 540q0 -266 187.5 -453.5t453.5 -187.5t454 187.5t188 453.5t-188 454t-454 188t-453.5 -188t-187.5 -454zM676 78v184h74l2 -26
q3 -80 25 -93q54 -32 129 -32q83 0 132.5 59t49.5 157q0 104 -62 155.5t-187 51.5h-77v63h41q132 0 198 48t66 143q0 86 -42 128.5t-127 42.5q-87 0 -110 -19t-29 -94l-2 -22h-74v162q101 36 228 36q140 0 210 -55t70 -165q0 -79 -40 -136t-120 -92q94 -25 141 -85.5
t47 -156.5q0 -131 -83.5 -207t-227.5 -76q-136 0 -232 29z" />
  </g>

</svg>
