<?xml version="1.0" standalone="no"?>
<!DOCTYPE svg PUBLIC "-//W3C//DTD SVG 1.1//EN" "http://www.w3.org/Graphics/SVG/1.1/DTD/svg11.dtd" >
<svg xmlns="http://www.w3.org/2000/svg" xmlns:xlink="http://www.w3.org/1999/xlink" version="1.1" viewBox="0 -410 2048 2048">
  <g transform="matrix(1 0 0 -1 0 1638)">
   <path fill="currentColor"
d="M741 1232q-12 -7 -25 -3.5t-20 15.5t-3.5 25t15.5 20v1q12 7 25 3t20 -15q7 -12 3.5 -25t-15.5 -20v-1zM1119 489q14 -8 17.5 -22t-4.5 -27t-21.5 -17t-27.5 4l-322 186v-514q0 -11 -6 -18q-3 -9 -11 -15t-19 -6h-1q-11 0 -19 6t-11 15q-6 7 -6 18v579l1 2q1 14 11 24
t24 10q18 0 28 -13zM249 400q7 -11 3.5 -24t-15.5 -21h-1q-12 -7 -25 -3.5t-20 15.5v1q-7 12 -3.5 25t15.5 20h1q11 7 24.5 3.5t20.5 -15.5v-1zM1259 984q7 -12 3.5 -25t-15.5 -20q-11 -7 -24.5 -3.5t-20.5 15.5t-3.5 25t15.5 20q11 8 24.5 4t20.5 -16zM1045 187
q7 -12 3.5 -25t-15.5 -20t-25 -3.5t-20 15.5l-1 1q-7 11 -3 24t15 20q12 8 25 4t21 -15v-1zM448 1153q-11 -7 -24 -3.5t-20 15.5q-8 11 -4 24.5t16 20.5t25 3.5t20 -15.5q7 -11 3.5 -24.5t-15.5 -20.5h-1zM450 199q12 -7 15.5 -20t-3.5 -25t-20 -15.5t-25 3.5h-1
q-12 7 -15.5 20t3.5 25l1 1q7 12 20 15.5t25 -3.5v-1zM999 1153q-11 7 -14.5 20t3.5 25t20 15.5t25 -3.5h1q11 -7 15 -20t-3 -25v-1q-8 -12 -21 -15.5t-25 3.5zM1246 413q12 -7 15.5 -20t-3.5 -25v-1q-7 -12 -20 -15.5t-25 3.5h-1q-12 8 -15.5 21t3.5 24v1q8 12 21 15.5
t24 -3.5h1zM202 939q-12 7 -15.5 20t3.5 25v1q7 11 20 15t25 -3l1 -1q12 -7 15.5 -20t-3.5 -25t-20.5 -16t-24.5 3zM1308 709q14 0 23.5 -9.5t9.5 -23.5v-1q0 -14 -9.5 -23.5t-23.5 -9.5t-23.5 9.5t-9.5 23.5v1q0 14 9.5 23.5t23.5 9.5zM140 709q14 0 23.5 -9.5t9.5 -23.5
v-1q0 -14 -9.5 -23.5t-23.5 -9.5t-23.5 9.5t-9.5 23.5v1q0 14 9.5 23.5t23.5 9.5zM1185 215q97 97 144 209.5t47 250.5q0 139 -47 251.5t-144 209.5t-209.5 144t-251.5 47q-138 0 -251 -47t-210 -144q-190 -190 -190 -461q0 -138 46.5 -251t143.5 -210t210 -144t251 -47
q139 0 251.5 47.5t209.5 144.5zM1236 1187q213 -213 213 -512q0 -298 -213 -512q-212 -212 -512 -212q-301 0 -512 211q-212 212 -212 513q0 300 212 512q211 213 512 213q299 0 512 -213z" />
  </g>

</svg>
