<?xml version="1.0" standalone="no"?>
<!DOCTYPE svg PUBLIC "-//W3C//DTD SVG 1.1//EN" "http://www.w3.org/Graphics/SVG/1.1/DTD/svg11.dtd" >
<svg xmlns="http://www.w3.org/2000/svg" xmlns:xlink="http://www.w3.org/1999/xlink" version="1.1" viewBox="0 -410 2048 2048">
  <g transform="matrix(1 0 0 -1 0 1638)">
   <path fill="currentColor"
d="M1310 34q-1 -33 -9 -65.5t-30.5 -58.5t-62.5 -42t-105 -16h-215q-108 0 -159 45t-53 139q-41 36 -68.5 71t-45.5 75.5t-29 88t-20 108.5q-2 16 -3 40.5t-1 52.5q0 25 0.5 50.5t1.5 46.5t1.5 35.5t0.5 17.5v171q0 36 13.5 63t33.5 45t43.5 27t43.5 9q47 0 85 -22
q15 46 46.5 71.5t76.5 25.5q24 0 46 -7.5t39 -20.5q6 17 15 32.5t23.5 27.5t35 19.5t48.5 7.5q40 0 73 -19v374q0 25 10.5 47t29 38.5t43 26t52.5 9.5t52.5 -9.5t43 -26t29 -38.5t10.5 -47v-581l109 -100q42 -38 56 -91.5t-3 -113.5q-8 -29 -18.5 -59.5t-22.5 -61
t-24.5 -59.5t-23.5 -54l-10 -25q-17 -39 -34 -75.5t-35.5 -68t-40 -58t-48.5 -45.5zM1103 -85q46 0 74 8.5t43.5 25.5t21 42t5.5 59l4 14l2 3l8 8l2 2q24 14 43.5 37t36.5 52t33.5 64.5t33.5 75.5l11 25q10 24 22 52.5t24 58t22 58.5t18 56q3 12 5.5 29.5t-0.5 36.5
t-12.5 39t-28.5 38l-66 61v-78q0 -14 -9 -23t-23 -9q-13 0 -22 9t-9 23v744q0 24 -21 41t-51 17t-51 -17t-21 -41v-476q0 -13 -9.5 -22t-22.5 -9t-22 9t-9 22q0 24 -21.5 41.5t-51.5 17.5q-39 0 -55.5 -26.5t-16.5 -91.5q0 -14 -9 -23t-22 -9q-14 0 -23 9t-9 23q0 24 -21 41
t-51 17q-24 0 -38.5 -13.5t-22 -32.5t-9.5 -39t-2 -33q0 -14 -9 -23t-23 -9q-13 0 -22 9t-9 23q0 13 -10 22q-10 10 -27 16t-35 5q-5 0 -17 -3.5t-24.5 -12.5t-22 -24.5t-9.5 -40.5v-187v-4q-1 -22 -2 -52.5t-1.5 -61.5t0.5 -58t3 -43q9 -60 19 -104.5t26.5 -80t42 -66
t64.5 -62.5q8 -5 10.5 -13t0.5 -16l1 -5q0 -30 5.5 -53t22 -39t45.5 -24.5t76 -8.5h215z" />
  </g>

</svg>
