<?xml version="1.0" standalone="no"?>
<!DOCTYPE svg PUBLIC "-//W3C//DTD SVG 1.1//EN" "http://www.w3.org/Graphics/SVG/1.1/DTD/svg11.dtd" >
<svg xmlns="http://www.w3.org/2000/svg" xmlns:xlink="http://www.w3.org/1999/xlink" version="1.1" viewBox="0 -410 2048 2048">
  <g transform="matrix(1 0 0 -1 0 1638)">
   <path fill="currentColor"
d="M196 760q0 65 16 105t42 62.5t58 30.5t66 9q18 27 45 48.5t58 40t68 35.5t75 34l26 10q24 11 53 23.5t60 24.5t61 22.5t60 18.5q60 17 113 3t91 -56l100 -109h582q24 0 46 -10.5t39 -29t26 -43t9 -52.5t-9 -52.5t-26 -43t-39 -29t-46 -10.5h-374q18 -33 18 -73
q0 -28 -7 -48.5t-19 -35t-28 -23.5t-32 -15q12 -17 20 -39t8 -46q0 -45 -26 -76.5t-72 -45.5q22 -39 22 -86q0 -20 -9 -43.5t-27 -43.5t-45 -33.5t-63 -13.5h-170q-4 0 -18 -0.5t-35 -1.5t-47 -1.5t-50 -0.5q-28 0 -53 1t-41 3q-60 9 -108 20t-88 29t-75 45.5t-71 68.5
q-94 2 -139 53t-45 159v215zM258 545q0 -47 9 -76t25 -45.5t39 -22t53 -5.5l4 -1q8 2 16 -0.5t14 -10.5q32 -39 62 -64.5t66 -42t80 -26.5t104 -19q16 -2 43 -3t58 -0.5t62 1.5t53 2h4h186q26 0 41 9.5t24 22t13 24.5t4 17q0 18 -6 35t-16 27q-8 10 -22 10t-23 9t-9 22
q0 14 9 23t23 9t34 2t39 9.5t32 22t13 38.5q0 30 -17 51t-41 21q-14 0 -23 9t-9 23q0 13 9 22t23 9q66 0 92 16.5t26 55.5q0 30 -17 51.5t-41 21.5q-14 0 -23 9t-9 22t9 22.5t23 9.5h476q24 0 41 21t17 51t-17 51t-41 21h-744q-14 0 -23 9t-9 22q0 14 9 23t23 9h78l-62 66
q-18 19 -38 28.5t-39 12.5t-36 0.5t-29 -5.5q-28 -8 -57 -18t-58 -22l-58 -24t-53 -22l-24 -11q-40 -17 -76 -33.5t-65 -33.5t-52 -36.5t-37 -43.5l-2 -2l-8 -8l-2 -2l-14 -4q-34 0 -59 -5.5t-42 -21t-26 -43.5t-9 -74v-215z" />
  </g>

</svg>
