<?xml version="1.0" standalone="no"?>
<!DOCTYPE svg PUBLIC "-//W3C//DTD SVG 1.1//EN" "http://www.w3.org/Graphics/SVG/1.1/DTD/svg11.dtd" >
<svg xmlns="http://www.w3.org/2000/svg" xmlns:xlink="http://www.w3.org/1999/xlink" version="1.1" viewBox="0 -410 2048 2048">
  <g transform="matrix(1 0 0 -1 0 1638)">
   <path fill="currentColor"
d="M1692 1075q38 -15 55 -51t4 -74l-204 -375l-27 -99q-14 -48 -21.5 -88.5t-10.5 -78.5q-15 -212 -110 -266q-4 -35 -20.5 -66t-42 -54t-59 -36t-70.5 -13h-221q-38 0 -72 13.5t-60 37t-42 55t-19 67.5q-27 22 -46 54t-32 69t-21 76t-12 74q-8 61 -29.5 113t-50 95
t-59.5 76t-57 56t-43.5 35t-17.5 13l-5 4q-17 17 -25 37.5t-8 43.5q2 47 36 80q30 29 72 33.5t78 -18.5q69 -42 115.5 -79.5t72.5 -63.5l5 20l-92 466q0 24 8.5 44.5t23.5 35.5t35.5 23.5t43.5 9.5q28 1 47 -8.5t32 -24.5t20 -32.5t11 -32.5l73 -274l1 425q3 26 16 47.5
t31.5 36t42 21.5t49.5 4q51 -6 80.5 -43t30.5 -85l1 -458l117 344q7 20 20 36t33 27q43 22 88 7q42 -14 62.5 -50.5t9.5 -78.5l-91 -332l119 153q9 18 24 31t33 19.5t38 6.5t40 -8zM1698 973q4 12 -3.5 26.5t-24.5 21.5q-18 8 -36 1t-26 -24l-4 -5l-210 -270
q-6 -8 -16 -10.5t-20 2.5q-9 5 -13 14t-2 20l130 472q5 18 -4.5 35t-29.5 23q-11 4 -22 2.5t-21 -6.5q-19 -10 -25 -29l-173 -510q-4 -10 -13 -15.5t-20 -3.5t-17.5 10t-6.5 19l-1 634q0 26 -16.5 45.5t-42.5 22.5q-28 4 -50 -12.5t-25 -42.5l-2 -640q0 -11 -7 -19t-18 -10
t-20 4t-12 17l-128 484q-5 18 -10.5 29.5t-11.5 17.5t-13.5 8t-17.5 2q-24 -1 -40 -15t-16 -35l93 -466v-13l-21 -77q-5 -16 -22 -21q-18 -3 -29 11l-12.5 14t-38 37.5t-65 54t-93.5 63.5q-20 11 -42 9t-38 -17t-18 -39q0 -21 14 -37q12 -8 52.5 -39.5t87.5 -86t87.5 -130.5
t52.5 -172q11 -91 37 -154.5t61 -87.5l2 -2l4 -4l3 -5l2 -5l1 -5l1 -3q0 -27 10.5 -50t29 -40.5t43.5 -27.5t53 -10h221q28 0 53 10t43.5 27.5t29 40.5t10.5 50l2 8v3l1 2l5 8h2l8 6q38 15 60.5 72t29.5 153q6 80 34 179l28 102l3 6z" />
  </g>

</svg>
