<?xml version="1.0" standalone="no"?>
<!DOCTYPE svg PUBLIC "-//W3C//DTD SVG 1.1//EN" "http://www.w3.org/Graphics/SVG/1.1/DTD/svg11.dtd" >
<svg xmlns="http://www.w3.org/2000/svg" xmlns:xlink="http://www.w3.org/1999/xlink" version="1.1" viewBox="0 -410 2048 2048">
  <g transform="matrix(1 0 0 -1 0 1638)">
   <path fill="currentColor"
d="M1833 872q25 -3 41 -21.5t16 -43.5v-370q0 -12 -4 -24t-13 -22q-19 -22 -48 -22l-142 -5q-9 -5 -34 -17t-58.5 -24.5t-72.5 -22t-76 -9.5l-6 1q-50 0 -204 58l-1 -1q-2 -2 -12 -7t-23.5 -10.5t-29.5 -10t-31 -4.5q-13 0 -28 4t-29.5 10t-26.5 12t-19 10
q-11 -2 -20.5 -3.5t-17.5 -1.5q-30 0 -56.5 11t-48.5 25.5t-37.5 29t-22.5 22.5l-67 5q-37 2 -63 11t-40 27q-23 30 -16 72q1 8 6 24.5t18 33.5t36.5 30.5t61.5 16.5l18 2q0 25 17.5 55t67.5 58l2 1q-11 1 -25 1h-31q-41 0 -89 -1.5t-96.5 -4t-94 -5.5t-81 -5.5t-57 -4
t-22.5 -1.5q-30 0 -60.5 7.5t-55.5 23.5t-42 39.5t-20 56.5q-3 25 6.5 40t25.5 24t36 12.5t40 6.5l18 2t18 3q1 0 28.5 4.5t72.5 11.5t104.5 16.5t125 20.5t132 22t127.5 22q13 2 26.5 4.5t29.5 5.5q57 12 126 23.5t140 11.5q106 0 179 -35q92 -44 167.5 -87.5t136.5 -79.5
l44 -27q2 -1 12.5 -2t20.5 -2l21 -3v0z" />
  </g>

</svg>
