<?xml version="1.0" standalone="no"?>
<!DOCTYPE svg PUBLIC "-//W3C//DTD SVG 1.1//EN" "http://www.w3.org/Graphics/SVG/1.1/DTD/svg11.dtd" >
<svg xmlns="http://www.w3.org/2000/svg" xmlns:xlink="http://www.w3.org/1999/xlink" version="1.1" viewBox="-268 -410 2048 2048">
  <g transform="matrix(1 0 0 -1 0 1638)">
   <path fill="currentColor"
d="M-212 872q5 1 11 1.5t11 1.5q9 1 19.5 2t13.5 2l44 27q61 36 136 79.5t168 87.5q73 35 179 35q71 0 139.5 -11.5t126.5 -23.5q15 -3 29 -5.5t26 -4.5q61 -11 128 -22t132.5 -22t125 -20.5t104.5 -16.5t72.5 -11.5t28.5 -4.5q9 -2 18 -3l18 -2q19 -3 39.5 -6.5t36.5 -12.5
t25.5 -24t6.5 -40q-3 -33 -20 -56.5t-42.5 -39.5t-56 -23.5t-60.5 -7.5q-1 0 -22.5 1.5t-56.5 4t-81 5.5t-94.5 5.5t-96.5 4t-89 1.5h-30.5t-24.5 -1l2 -1q50 -28 67.5 -58t17.5 -55l18 -2q38 -3 61.5 -16.5t36.5 -30.5t18 -33.5t6 -24.5q6 -44 -16 -72q-15 -18 -41 -27
t-62 -11l-67 -5q-8 -8 -23.5 -22.5t-37 -29t-48.5 -25.5t-57 -11q-8 0 -17 1.5t-20 3.5q-7 -4 -19 -10t-27 -12t-30 -10t-28 -4q-15 0 -31 4.5t-29.5 10t-23 10.5t-11.5 7l-2 1q-75 -29 -126 -43.5t-77 -14.5l-6 -1q-37 0 -76 9.5t-73 22t-59 24.5t-34 17l-141 5
q-29 0 -49 22q-8 10 -12 22t-4 24v370q0 25 16 43.5t40 21.5z" />
  </g>

</svg>
