<?xml version="1.0" standalone="no"?>
<!DOCTYPE svg PUBLIC "-//W3C//DTD SVG 1.1//EN" "http://www.w3.org/Graphics/SVG/1.1/DTD/svg11.dtd" >
<svg xmlns="http://www.w3.org/2000/svg" xmlns:xlink="http://www.w3.org/1999/xlink" version="1.1" viewBox="0 -410 2048 2048">
  <g transform="matrix(1 0 0 -1 0 1638)">
   <path fill="currentColor"
d="M1063 815q2 -13 4.5 -26.5t5.5 -28.5q9 -46 18 -102t12.5 -114.5t-2.5 -116t-28 -105.5q-42 -91 -82 -164.5t-75 -133.5l-24 -44q-1 -2 -2 -12.5t-2 -19.5l-3 -21q-3 -24 -20 -40t-40 -16h-345l-3 18v1v-1v-18q-26 0 -43 19q-10 10 -13.5 22.5t-4.5 26.5l-5 135
q-4 9 -15.5 34.5t-23.5 60t-20.5 74t-7.5 75.5q2 52 54 199l-1 2q-1 2 -5.5 11.5t-10 23t-9.5 29t-4 30.5q0 12 4 27t9 29.5t11 26.5t9 19q-5 23 -5 37q0 29 10 55t24 47.5t27.5 37t21.5 22.5l4 66q3 47 16 71.5t29 35t32 11t26 -0.5q7 -1 22.5 -6t31 -17.5t28.5 -36
t16 -60.5l1 -18q61 0 106 -83l1 -2q1 39 -0.5 98t-5 126t-7.5 135.5t-7 127.5q-2 30 5 59.5t22 54.5t38 42t54 20q24 3 38 -6.5t21.5 -25.5t11 -36t6.5 -39l2 -18t3 -17q0 -1 4 -28t11 -71.5t15.5 -103t18.5 -122.5t20.5 -130t20.5 -125z" />
  </g>

</svg>
