<?xml version="1.0" standalone="no"?>
<!DOCTYPE svg PUBLIC "-//W3C//DTD SVG 1.1//EN" "http://www.w3.org/Graphics/SVG/1.1/DTD/svg11.dtd" >
<svg xmlns="http://www.w3.org/2000/svg" xmlns:xlink="http://www.w3.org/1999/xlink" version="1.1" viewBox="0 -410 2048 2048">
  <g transform="matrix(1 0 0 -1 0 1638)">
   <path fill="currentColor"
d="M1051 889q1 -2 5.5 -11.5t10 -23t9.5 -29t4 -30.5q0 -12 -4 -27t-9 -29.5t-11 -26.5t-9 -19q5 -23 5 -36q0 -29 -10 -55.5t-24 -48t-28 -37t-21 -22.5l-4 -66q-2 -39 -11.5 -62t-22 -35.5t-26.5 -16.5t-26 -4h-9t-8 1q-8 1 -23 6t-30.5 17.5t-28 35.5t-15.5 61l-2 18
q-62 0 -105 84l-1 2q-2 -39 -0.5 -98t5 -126t7.5 -136t7 -127q1 -30 -5.5 -60.5t-21.5 -55.5t-38 -42t-53 -18l-8 -1q-21 -1 -33.5 9t-19.5 26t-10.5 35t-5.5 37q-2 9 -3 18t-3 17q0 1 -4 28t-10.5 71.5t-15 103t-18.5 123t-20.5 130t-20.5 125.5q-2 12 -5 26t-5 28
q-9 46 -18 102t-12.5 114.5t2.5 116t28 105.5q41 91 81.5 164.5t74.5 133.5l25 44q1 2 1.5 12.5t2.5 20.5l2 20q3 24 20.5 40t40.5 16h345q27 0 46 -19q17 -18 17 -49l5 -135q4 -9 15.5 -34t23.5 -59.5t20.5 -74t7.5 -76.5q0 -25 -14 -74.5t-40 -124.5l1 -2v0z" />
  </g>

</svg>
