<?xml version="1.0" standalone="no"?>
<!DOCTYPE svg PUBLIC "-//W3C//DTD SVG 1.1//EN" "http://www.w3.org/Graphics/SVG/1.1/DTD/svg11.dtd" >
<svg xmlns="http://www.w3.org/2000/svg" xmlns:xlink="http://www.w3.org/1999/xlink" version="1.1" viewBox="0 -410 2048 2048">
  <g transform="matrix(1 0 0 -1 0 1638)">
   <path fill="currentColor"
d="M1223 -81q-3 -29 -24.5 -48t-50.5 -19h-359q-15 0 -30 5.5t-26 16.5q-12 12 -18.5 27.5t-4.5 32.5l-5 131q-5 11 -17 36.5t-24 59t-20.5 71.5t-8.5 74v7q0 15 5 37t12.5 48.5t17 55t20.5 57.5q-3 5 -8 15.5t-10 24t-8.5 28.5t-3.5 29q0 13 4 28t9 29t11 26.5t10 20.5
q-2 9 -3 18t-1 17q0 30 10 56.5t23.5 48.5t28.5 38.5t24 25.5l4 61q2 38 11.5 65t29.5 44q32 27 80 20q9 -1 26.5 -6.5t35.5 -19.5t33 -39t18 -66v-8q28 -3 49.5 -18.5t38.5 -37.5q0 42 -3.5 97t-7 114.5t-7 120t-3.5 113.5q0 32 8 64.5t24.5 59.5t41.5 45t60 21
q28 3 45.5 -8t27.5 -29.5t14 -40t7 -39.5l2 -18t3 -17q0 -1 4.5 -28t11 -72t16 -103.5t20 -122.5t21 -130t21.5 -126q2 -12 4.5 -25.5t5.5 -28.5q9 -47 18.5 -104t13 -116.5t-3 -118t-29.5 -108.5q-43 -91 -85.5 -165.5t-77.5 -134.5l-26 -43q0 -2 -0.5 -10t-1.5 -17z
M1086 807q-3 9 -9 23t-14.5 27.5t-19 25.5t-23.5 18l8 -100q12 -19 23 -40q11 13 19.5 24.5t15.5 21.5zM769 805q-7 -14 -11.5 -28.5t-4.5 -29.5q0 -10 2.5 -21.5t6.5 -24.5zM724 600l4 10l-3 10l-2 -12zM1148 -85q11 0 13 12l2 20q2 21 4 32.5t7 19.5l26 45q35 59 76.5 132
t83.5 162q20 43 25.5 95.5t1.5 107.5t-13 108t-18 97q-3 15 -5.5 29t-4.5 27q-11 60 -21.5 126t-21 130t-20 123t-16 103.5t-11 71t-4.5 27.5q-2 8 -3 17.5t-2 19.5q-3 22 -6 35t-6 19.5t-6 8t-7 1.5q-23 -3 -38.5 -17t-25 -33t-13 -40t-2.5 -36q1 -19 4 -63t6.5 -100
t6.5 -117.5t4 -116.5t-1 -98t-8 -60l-7 -15l-1 -1q-8 -12 -18 -26.5t-20 -27.5t-18.5 -23t-12.5 -14q15 -42 22 -82.5t10 -72.5t3 -52.5v-22.5q-1 -13 -10.5 -22t-22.5 -8t-21.5 11t-8.5 22v10q0 15 -2 48t-9.5 74.5t-23.5 86.5t-43 84l-6 15l-11 140l-1 1v7v2l-3 32
q-2 22 -8.5 36.5t-15.5 22.5t-18.5 11.5t-16.5 4.5q-22 3 -31 -5q-8 -8 -12 -24.5t-6 -40.5l-5 -75v-1l-14 -217l-3 -10l-20 -50t-25.5 -64.5t-27 -71.5t-24.5 -70.5t-18 -60.5t-8 -43q-2 -35 8.5 -74t23 -72t23.5 -55l11 -22l4 -14l5 -141q-1 -11 4 -14l10 -4h361z" />
  </g>

</svg>
