<?xml version="1.0" standalone="no"?>
<!DOCTYPE svg PUBLIC "-//W3C//DTD SVG 1.1//EN" "http://www.w3.org/Graphics/SVG/1.1/DTD/svg11.dtd" >
<svg xmlns="http://www.w3.org/2000/svg" xmlns:xlink="http://www.w3.org/1999/xlink" version="1.1" viewBox="0 -410 2048 2048">
  <g transform="matrix(1 0 0 -1 0 1638)">
   <path fill="currentColor"
d="M1712 967q33 -1 65.5 -9t58.5 -30.5t42 -62.5t16 -105v-215q0 -108 -45 -159t-139 -53q-36 -41 -71 -68.5t-75.5 -45.5t-88 -29t-108.5 -20q-16 -2 -40.5 -3t-52.5 -1q-26 0 -51 0.5t-46 1.5t-35.5 1.5t-17.5 0.5h-171q-36 0 -63 13.5t-45 33.5t-27 43.5t-9 43.5
q-1 23 5 45t17 41q-46 14 -71.5 45.5t-25.5 76.5q0 24 7.5 46t20.5 39q-17 6 -33 15t-28 23.5t-19.5 35t-7.5 48.5q0 20 5.5 38.5t14.5 34.5h-374q-25 0 -47 10.5t-38.5 29t-26 43t-9.5 52.5t9.5 52.5t26 43t38.5 29t47 10.5h581l100 109q38 42 91.5 56t113.5 -3
q28 -8 59 -18.5t61.5 -22.5t59.5 -24.5t54 -23.5l24 -10q40 -17 76.5 -34t68 -35.5t58 -40t45.5 -48.5zM1831 760q0 46 -8.5 74t-25.5 43.5t-42.5 21t-58.5 5.5l-14 4l-3 2l-9 8l-1 2q-14 24 -37 43.5t-52 36.5t-64.5 33.5t-75.5 33.5l-25 11q-24 10 -52.5 22t-58 24
t-58.5 22t-56 18q-12 3 -29.5 5.5t-37 -0.5t-39 -12.5t-37.5 -28.5l-61 -66h78q14 0 23 -9t9 -23q0 -13 -9 -22t-23 -9h-744q-24 0 -41 -21t-17 -51t17 -51t41 -21h476q13 0 22 -9.5t9 -22.5t-9 -22t-22 -9q-25 0 -42 -21.5t-17 -51.5q0 -39 26.5 -55.5t91.5 -16.5
q14 0 23 -9t9 -22q0 -14 -9 -23t-23 -9q-24 0 -41 -21t-17 -51q0 -24 13.5 -38.5t32 -22t38.5 -9.5t34 -2q13 0 22 -9t9 -23q0 -13 -9 -22t-22 -9t-23 -10q-9 -10 -15 -27t-5 -35q0 -5 3.5 -17t12.5 -24.5t24.5 -22t40.5 -9.5h187h4q22 -1 52.5 -2t61 -1.5t58 0.5t42.5 3
q60 9 104.5 19t80 26.5t66 42t62.5 64.5q11 14 30 11l5 1q30 0 53 5.5t39 22t24.5 45.5t8.5 76v215z" />
  </g>

</svg>
