<?xml version="1.0" standalone="no"?>
<!DOCTYPE svg PUBLIC "-//W3C//DTD SVG 1.1//EN" "http://www.w3.org/Graphics/SVG/1.1/DTD/svg11.dtd" >
<svg xmlns="http://www.w3.org/2000/svg" xmlns:xlink="http://www.w3.org/1999/xlink" version="1.1" viewBox="-268 -410 2048 2048">
  <g transform="matrix(1 0 0 -1 0 1638)">
   <path fill="currentColor"
d="M1249 964q33 0 65 -7.5t57 -29t40.5 -61t15.5 -103.5v-219q0 -107 -42.5 -159.5t-135.5 -45.5h-2q-38 -45 -74 -73.5t-76.5 -46.5t-87.5 -28t-106 -19q-14 -2 -37 -3t-55 -1q-27 0 -54 0.5t-49 1.5q-26 1 -50 2h-173q-37 0 -62.5 14t-41 34t-22.5 42t-7 37
q-1 24 6.5 48.5t21.5 43.5q-51 12 -77.5 42.5t-26.5 77.5q0 55 33 91q-29 7 -47 20t-28.5 29.5t-14.5 35t-4 35.5q0 49 28 85h-401q-23 0 -43 10t-35 27t-23.5 40.5t-8.5 49.5t8.5 49t23.5 40.5t35 27.5t43 10h597l105 116q36 40 87 53t107 -2q28 -8 59 -19t62 -23t60 -25
t54 -24l25 -11q42 -18 79.5 -35.5t69.5 -36t58 -40.5t44 -50z" />
  </g>

</svg>
