<?xml version="1.0" standalone="no"?>
<!DOCTYPE svg PUBLIC "-//W3C//DTD SVG 1.1//EN" "http://www.w3.org/Graphics/SVG/1.1/DTD/svg11.dtd" >
<svg xmlns="http://www.w3.org/2000/svg" xmlns:xlink="http://www.w3.org/1999/xlink" version="1.1" viewBox="0 -410 2048 2048">
  <g transform="matrix(1 0 0 -1 0 1638)">
   <path fill="currentColor"
d="M777 1429q2 18 6.5 39.5t14 40t27 29.5t46.5 8q34 -3 59.5 -21t42 -45t24.5 -59.5t8 -64.5q0 -53 -3.5 -113.5t-7.5 -120t-7 -114.5t-3 -97q17 22 38.5 37.5t48.5 19.5l1 7q3 41 18 66t33 39t35.5 19.5t26.5 6.5q48 7 80 -20q20 -17 29 -44t12 -65l4 -61q9 -9 23.5 -25.5
t28.5 -38.5t24 -48.5t10 -56.5q0 -15 -5 -35q4 -8 10 -20.5t11.5 -26.5t9 -29t3.5 -28q0 -14 -3.5 -29t-8.5 -28.5t-10 -24t-8 -15.5q11 -29 21 -57.5t17.5 -55t12 -48.5t4.5 -37v-7q0 -36 -8.5 -74t-20.5 -71.5t-23.5 -59t-17.5 -36.5l-5 -131q2 -17 -4.5 -32.5
t-17.5 -27.5q-11 -11 -26.5 -16.5t-29.5 -5.5h-359q-29 0 -50.5 19t-25.5 48l-2 22q-2 9 -2 17t-1 10l-26 44q-35 60 -77.5 134t-84.5 165q-23 50 -29.5 108.5t-3.5 118t13 116.5t19 104q3 15 5.5 28.5t4.5 25.5l21 126t21.5 130t19.5 122.5t16 103.5t11 72t4 28q2 8 3 17
t3 18zM1363 608l-2 12l-4 -10l4 -10zM1333 747q0 15 -4.5 29.5t-11.5 28.5l6 -104q10 28 10 46zM1000 807q6 -10 15 -21.5t20 -24.5q9 20 23 40l8 100q-13 -6 -24 -18t-19 -25.5t-14 -27.5t-9 -23zM864 1484q-4 0 -7.5 -1.5t-6.5 -8t-5.5 -19.5t-5.5 -35q-2 -10 -3 -19.5
t-3 -17.5q0 -1 -4 -27.5t-11 -71t-16 -103.5t-19.5 -123t-21.5 -130l-21 -126q-2 -13 -5 -27t-6 -29q-8 -44 -17 -97t-13 -108t1.5 -107.5t25.5 -95.5q42 -89 83 -162t76 -132l27 -45q5 -8 6.5 -19.5t3.5 -32.5l3 -20q2 -12 13 -12h361l9 4q2 1 4 4t1 10l5 141l3 14l11.5 22
t24 55t22.5 72t9 74q-1 16 -8 43t-18 60.5t-24.5 70.5t-27 71.5t-26 64.5t-20.5 50l-2 10l-14 217v1l-5 75q-2 24 -6 40.5t-13 24.5t-31 5q-7 -1 -16 -4.5t-18 -11.5t-16 -22.5t-9 -36.5l-2 -32v-2l-1 -7v-1l-11 -140l-6 -15q-27 -39 -43 -84t-23.5 -86.5t-9.5 -74.5t-2 -48
v-10q-1 -12 -9 -22t-21 -11t-22.5 8t-10.5 22v22.5t3 52.5t10 72.5t21 82.5q-3 4 -11.5 14t-18.5 23t-20.5 27.5t-17.5 26.5l-1 1l-7 15q-6 17 -8 60t-1 98t4 116.5t6 117.5t6 100t4 64q1 15 -2.5 35.5t-12.5 39.5t-24.5 33t-38.5 17z" />
  </g>

</svg>
