<?xml version="1.0" standalone="no"?>
<!DOCTYPE svg PUBLIC "-//W3C//DTD SVG 1.1//EN" "http://www.w3.org/Graphics/SVG/1.1/DTD/svg11.dtd" >
<svg xmlns="http://www.w3.org/2000/svg" xmlns:xlink="http://www.w3.org/1999/xlink" version="1.1" viewBox="0 -410 2048 2048">
  <g transform="matrix(1 0 0 -1 0 1638)">
   <path fill="currentColor"
d="M781 33q-28 18 -50 44t-40.5 57.5t-36 69.5t-35.5 80l-11 25q-11 25 -23.5 54t-24.5 59.5t-23 61.5t-19 60q-15 55 -2 106.5t53 87.5l115 105v597q0 23 10 43t27.5 35t40.5 23.5t50 8.5q26 0 49 -8.5t40.5 -23.5t27.5 -35t10 -43v-401q36 28 84 28q17 0 35.5 -4t35 -14.5
t29.5 -29t20 -46.5q38 33 91 33q47 0 77.5 -26.5t42.5 -77.5q19 14 43.5 21.5t48.5 6.5q16 0 37.5 -7t41.5 -22.5t34 -41t14 -62.5v-173q1 -24 2 -50q1 -22 1.5 -49.5t0.5 -53.5q0 -32 -1 -55t-3 -37q-9 -59 -19 -106t-28 -87.5t-46.5 -77t-73.5 -73.5l1 -3
q7 -92 -46 -134.5t-160 -42.5h-219q-64 0 -103 15t-60.5 40t-29 57t-8.5 66z" />
  </g>

</svg>
