<?xml version="1.0" standalone="no"?>
<!DOCTYPE svg PUBLIC "-//W3C//DTD SVG 1.1//EN" "http://www.w3.org/Graphics/SVG/1.1/DTD/svg11.dtd" >
<svg xmlns="http://www.w3.org/2000/svg" xmlns:xlink="http://www.w3.org/1999/xlink" version="1.1" viewBox="0 -410 2048 2048">
  <g transform="matrix(1 0 0 -1 0 1638)">
   <path fill="currentColor"
d="M1823 880q29 -4 48 -25.5t19 -50.5v-359q0 -15 -5.5 -30t-16.5 -26q-12 -11 -27.5 -17.5t-32.5 -4.5l-131 -5q-11 -6 -36.5 -17.5t-59 -23.5t-71.5 -20.5t-74 -8.5h-7q-15 0 -37 4.5t-48.5 12t-55 17.5t-57.5 21q-5 -3 -15.5 -8t-24 -10t-28.5 -8.5t-29 -3.5
q-13 0 -28 3.5t-29 9t-26.5 11t-20.5 10.5q-20 -5 -35 -5q-30 0 -56.5 10t-48.5 24t-38.5 28.5t-25.5 23.5l-61 4q-38 3 -65 12t-44 29q-27 32 -20 80q1 9 6.5 26.5t19.5 35.5t39 33t66 18l8 1q3 27 18.5 48.5t37.5 38.5q-42 0 -97 -3t-114.5 -7t-120 -7.5t-113.5 -3.5
q-32 0 -64.5 8t-59.5 24.5t-45 41.5t-21 60q-3 29 8 46.5t29.5 27t40 14t39.5 6.5q9 2 18 2.5t17 2.5q1 0 28 4.5t72 11t103.5 16t122.5 20t130 21t126 21.5q12 2 25.5 4.5t28.5 5.5q47 9 104 19t116.5 13t118 -3.5t108.5 -29.5q91 -42 165.5 -84.5t134.5 -77.5l43 -26
q2 -1 10 -1.5t17 -1.5zM935 742q-9 -3 -23 -9t-27.5 -14t-25.5 -19t-18 -24l100 8q10 7 20 12.5t20 10.5q-13 11 -24.5 20t-21.5 15zM937 425q14 -7 28.5 -11.5t29.5 -4.5q18 0 46 10zM1142 381l-10 4l-10 -4l12 -2zM1827 804q0 11 -12 13l-20 3q-21 2 -32.5 3.5t-19.5 6.5
l-45 27q-59 35 -132 76t-162 83q-43 20 -96 25.5t-107.5 1.5t-107.5 -13t-97 -17q-15 -3 -29 -6t-27 -5l-126 -21t-130 -21.5t-123 -19.5t-103.5 -16t-71 -11t-27.5 -4q-8 -2 -17.5 -3t-19.5 -3q-23 -3 -35.5 -5.5t-19 -5.5t-8 -6.5t-1.5 -7.5q3 -23 17 -38.5t33 -24.5
t40 -12.5t36 -2.5q19 1 63 4t100 6t117.5 6t117 4t97.5 -1t60 -8l15 -7l1 -1q12 -8 26.5 -18t27.5 -20t23 -18.5t14 -11.5q42 14 82.5 21t72.5 10t52.5 3h22.5q13 -1 22 -10.5t8 -22.5t-11 -21t-22 -9h-10q-15 0 -48 -2t-74.5 -9.5t-86.5 -23.5t-84 -43l-15 -6l-140 -11h-1
l-7 -1h-2l-32 -2q-22 -2 -36.5 -9t-22.5 -16t-11.5 -18t-4.5 -16q-3 -22 5 -31t24.5 -13t40.5 -6l75 -5h1l217 -14l10 -2q20 -9 50 -21t64.5 -25.5t71.5 -27t70.5 -24.5t60.5 -18t43 -8q34 -2 73.5 8.5t72.5 23t55 24l22 11.5l14 3l141 5q7 -1 10 1t4 4l4 9v361z" />
  </g>

</svg>
