<?xml version="1.0" standalone="no"?>
<!DOCTYPE svg PUBLIC "-//W3C//DTD SVG 1.1//EN" "http://www.w3.org/Graphics/SVG/1.1/DTD/svg11.dtd" >
<svg xmlns="http://www.w3.org/2000/svg" xmlns:xlink="http://www.w3.org/1999/xlink" version="1.1" viewBox="0 -410 2048 2048">
  <g transform="matrix(1 0 0 -1 0 1638)">
   <path fill="currentColor"
d="M776 1368q1 33 9 65.5t30.5 58.5t62.5 42t105 16h215q108 0 159 -45t53 -139q41 -36 68.5 -71t45.5 -75.5t29 -88t20 -108.5q2 -16 3 -40.5t1 -52.5q0 -26 -0.5 -51t-1.5 -46t-1.5 -35.5t-0.5 -17.5v-171q0 -36 -13.5 -63t-33.5 -45t-43.5 -27t-43.5 -9q-23 -1 -45 5
t-41 17q-14 -46 -45.5 -71.5t-76.5 -25.5q-24 0 -46 7.5t-39 20.5q-6 -17 -15 -32.5t-23.5 -27.5t-35 -19.5t-48.5 -7.5q-40 0 -73 19v-374q0 -25 -10.5 -47t-29 -38.5t-43 -26t-52.5 -9.5t-52.5 9.5t-43 26t-29 38.5t-10.5 47v581l-109 100q-42 38 -56 91.5t3 113.5
q7 28 18 59t23 61.5t24.5 59.5t23.5 54l10 25q17 39 34 75.5t35.5 68t40 58t48.5 45.5zM983 1487q-46 0 -74 -8.5t-43.5 -25.5t-21 -42t-5.5 -59l-4 -14l-2 -3l-8 -8l-2 -2q-24 -14 -43.5 -37t-37 -52t-33.5 -64.5t-33 -75.5l-11 -25q-11 -24 -22.5 -52.5t-23.5 -58
t-22.5 -58.5t-17.5 -56q-3 -12 -5.5 -29.5t0.5 -36.5t12 -39t29 -38l66 -61v78q0 14 9 23t23 9q13 0 22 -9t9 -23v-744q0 -24 21 -41t51 -17t51 17t21 41v476q0 13 9.5 22t22.5 9t22 -9t9 -22q0 -25 21.5 -42t51.5 -17q39 0 55.5 26.5t16.5 91.5q0 14 9 23t22 9q14 0 23 -9
t9 -23q0 -24 21 -41t51 -17q24 0 38.5 13.5t22 32.5t9.5 39t2 33t9 22t23 9q13 0 22 -9t9 -22t10 -22q10 -10 27 -16t35 -5q5 0 17 3.5t24.5 12.5t22 24.5t9.5 40.5v187v4q1 22 2 52.5t1.5 61t-0.5 58t-3 42.5q-9 60 -19 104.5t-26.5 80.5t-42 66.5t-64.5 62.5
q-14 10 -11 29l-1 5q0 30 -5.5 53t-22 39t-45.5 24.5t-76 8.5h-215z" />
  </g>

</svg>
