<?xml version="1.0" standalone="no"?>
<!DOCTYPE svg PUBLIC "-//W3C//DTD SVG 1.1//EN" "http://www.w3.org/Graphics/SVG/1.1/DTD/svg11.dtd" >
<svg xmlns="http://www.w3.org/2000/svg" xmlns:xlink="http://www.w3.org/1999/xlink" version="1.1" viewBox="0 -410 2048 2048">
  <g transform="matrix(1 0 0 -1 0 1638)">
   <path fill="currentColor"
d="M1305 30q-1 -33 -8.5 -65t-29 -57t-60.5 -40.5t-103 -15.5h-219q-107 0 -160 42.5t-46 135.5l1 2q-45 37 -73.5 73.5t-46.5 77t-28 87.5t-19 106q-2 14 -3 37t-1 55q0 26 0.5 53.5t1.5 49.5q1 26 2 50v173q0 37 14 62.5t34 41t41.5 22.5t37.5 7q24 1 48.5 -6.5
t43.5 -21.5q12 51 42.5 77.5t77.5 26.5q53 0 91 -33q7 28 20 46.5t29.5 29t35 14.5t35.5 4q48 0 84 -28v401q0 23 10 43t27 35t40.5 23.5t49.5 8.5q27 0 50 -8.5t40.5 -23.5t27.5 -35t10 -43v-597l115 -105q40 -36 53 -87t-2 -107q-8 -29 -19 -59.5t-23 -61.5t-24.5 -60
t-23.5 -54l-11 -25q-18 -42 -35.5 -79.5t-36 -69.5t-40.5 -58t-50 -44z" />
  </g>

</svg>
