<?xml version="1.0" standalone="no"?>
<!DOCTYPE svg PUBLIC "-//W3C//DTD SVG 1.1//EN" "http://www.w3.org/Graphics/SVG/1.1/DTD/svg11.dtd" >
<svg xmlns="http://www.w3.org/2000/svg" xmlns:xlink="http://www.w3.org/1999/xlink" version="1.1" viewBox="0 -410 2048 2048">
  <g transform="matrix(1 0 0 -1 0 1638)">
   <path fill="currentColor"
d="M691 1058q8 -13 21 -9t13 18v433q0 8 -4.5 12.5t-10.5 5.5t-12 -2t-8 -10l-89 -281q-3 -7 1 -15zM657 1000q14 0 17.5 13t-8.5 20l-376 217q-7 4 -13 2t-10 -6.5t-4 -11t5 -12.5l199 -217q5 -5 13 -5h177zM691 941q3 6 2 12t-5 10t-10 5.5t-12 -2.5l-376 -217
q-6 -4 -8 -10t0 -12t7.5 -9.5t13.5 -1.5l288 63q8 2 11 9zM759 941q-3 6 -9 8t-11.5 0.5t-9.5 -6t-4 -11.5v-432q0 -8 4.5 -12.5t10.5 -6t12 1.5t8 11l88 279q2 7 -1 15zM793 1000q-14 0 -17.5 -13.5t8.5 -20.5l374 -217q7 -4 13.5 -2.5t10 6.5t4 11.5t-4.5 12.5l-198 217
q-8 6 -14 6h-176zM759 1058q-8 -14 2 -23t22 -2l375 216q7 4 8.5 10.5t-1 12t-8 9t-12.5 2.5l-287 -64q-8 -2 -11 -9zM708 1738q4 13 17 13t17 -13l139 -443q4 -15 21 -12l455 101q13 3 19.5 -8.5t-2.5 -21.5l-314 -342q-5 -5 -5 -12.5t5 -12.5l314 -342q9 -10 2.5 -21.5
t-19.5 -8.5l-455 100q-17 3 -21 -12l-139 -442q-4 -13 -17 -13t-17 13l-140 442q-4 15 -21 12l-455 -100q-13 -3 -19.5 8.5t2.5 21.5l314 342q5 5 5 12.5t-5 12.5l-314 342q-9 10 -2.5 21.5t19.5 8.5l455 -101q17 -3 21 12z" />
  </g>

</svg>
