<?xml version="1.0" standalone="no"?>
<!DOCTYPE svg PUBLIC "-//W3C//DTD SVG 1.1//EN" "http://www.w3.org/Graphics/SVG/1.1/DTD/svg11.dtd" >
<svg xmlns="http://www.w3.org/2000/svg" xmlns:xlink="http://www.w3.org/1999/xlink" version="1.1" viewBox="0 -410 2048 2048">
  <g transform="matrix(1 0 0 -1 0 1638)">
   <path fill="currentColor"
d="M480 477q12 0 24 -5t21 -14t14 -21t5 -25v-99q0 -27 -20 -46.5t-44 -19.5h-132q-28 0 -47 19.5t-19 46.5v99q0 26 19 45.5t47 19.5h132zM608 1341q0 63 -16 103.5t-48 68.5v-107l-28 -310q92 122 92 245zM544 1674q164 -26 243 -104.5t79 -216.5q0 -97 -42 -161
q-22 -33 -57 -70t-85 -78q-30 -23 -44 -34.5t-22 -19.5l-26 -31q-24 -22 -35 -69t-11 -131v-87q0 -27 -20 -46t-44 -19h-130q-28 0 -50 21q-20 21 -18 49q6 68 24 126t50 103l-42 506v128q-34 -14 -44 -25l-8 -4q-8 -8 -10 -11t-2 -12v-96q0 -27 -19 -46t-47 -19h-34
q-26 0 -45 19t-19 46v174q0 21 12 38t32 24q42 14 90 24.5t94 18.5v15q0 27 19 46.5t47 19.5h100q24 0 44 -19.5t20 -46.5v-12z" />
  </g>

</svg>
