<?xml version="1.0" standalone="no"?>
<!DOCTYPE svg PUBLIC "-//W3C//DTD SVG 1.1//EN" "http://www.w3.org/Graphics/SVG/1.1/DTD/svg11.dtd" >
<svg xmlns="http://www.w3.org/2000/svg" xmlns:xlink="http://www.w3.org/1999/xlink" version="1.1" viewBox="0 -410 2048 2048">
  <g transform="matrix(1 0 0 -1 0 1638)">
   <path fill="currentColor"
d="M482 1098q0 -12 7 -20.5t16 -12.5t19 -2t18 13q52 68 75 133t23 132q0 66 -16 115t-60 84q-8 6 -17 6.5t-17 -3.5t-13 -12t-5 -18v-101v-2zM316 675q4 65 20 118t46 94q8 10 6 22l-40 501v2v128q0 18 -14 27.5t-32 1.5q-16 -6 -30 -13t-24 -15q-14 -12 -22 -20.5
t-8 -30.5v-98q0 -14 -10 -23.5t-24 -9.5h-34q-12 0 -22 9.5t-10 23.5v174q0 10 6 18.5t16 11.5q46 17 92 27t88 16q14 2 21 10.5t7 21.5v15q0 14 9 23t23 9h100q12 0 22 -9t10 -23v-12q0 -13 7 -21.5t19 -10.5q78 -13 134 -37.5t92 -60.5t52 -83.5t16 -107.5q0 -85 -36 -143
q-36 -60 -136 -141q-24 -19 -41 -31.5t-27 -23.5v-3l-24 -27q-32 -29 -44 -84.5t-12 -140.5v-87q0 -14 -10 -23t-22 -9h-130q-14 0 -25 10.5t-9 24.5zM512 313q0 -14 -10 -23t-22 -9h-132q-14 0 -24 9t-10 23v99q0 14 10 23t24 9h132q12 0 22 -9t10 -23v-99z" />
  </g>

</svg>
