<?xml version="1.0" standalone="no"?>
<!DOCTYPE svg PUBLIC "-//W3C//DTD SVG 1.1//EN" "http://www.w3.org/Graphics/SVG/1.1/DTD/svg11.dtd" >
<svg xmlns="http://www.w3.org/2000/svg" xmlns:xlink="http://www.w3.org/1999/xlink" version="1.1" viewBox="0 -410 2048 2048">
  <g transform="matrix(1 0 0 -1 0 1638)">
   <path fill="currentColor"
d="M1602 1354q29 0 50 -21t21 -50v-982q0 -30 -21 -50.5t-50 -20.5h-306q-11 0 -19.5 8t-8.5 19l1 8l-1 8v187h-67l121 -564l2 -14q0 -11 -7.5 -19t-19.5 -8h-1h-910q-12 0 -20 11q-5 5 -6.5 11t-0.5 12l124 571h-68v-187l-2 -8l2 -8q0 -11 -8.5 -19t-20.5 -8h-262
q-29 0 -50 20.5t-21 50.5v982q0 29 21 50t50 21h306q11 0 19.5 -8.5t8.5 -20.5l-1 -6l1 -8v-231h31v620q0 12 8 20.5t20 8.5h462l11 -3l1 -1l232 -125l4 -4l2 -1l5 -8l2 -2l1 -8v-1v-496h31v231l1 8l-1 6q0 12 8.5 20.5t19.5 8.5h306zM1007 1604h92l-92 50v-50zM544 1080
h638v468h-203q-12 0 -20.5 8t-8.5 20v98h-406v-594zM1143 460h-604l-118 -550h840zM1617 1283q0 6 -4.5 10.5t-10.5 4.5h-278v-246q0 -12 -8.5 -20.5t-19.5 -8.5h-86h-693h-87q-11 0 -19.5 8.5t-8.5 20.5v246h-278q-6 0 -10.5 -4.5t-4.5 -10.5v-982q0 -7 4.5 -11t10.5 -4
h235v203q0 11 8 19.5t19 8.5h131h649h130q11 0 19.5 -8.5t8.5 -19.5v-203h278q6 0 10.5 4t4.5 11v982zM1512 901q10 0 16.5 -6.5t6.5 -16.5v-86q0 -10 -6.5 -16.5t-16.5 -6.5h-86q-10 0 -16 6.5t-6 16.5v86q0 10 6 16.5t16 6.5h86z" />
  </g>

</svg>
