<?xml version="1.0" standalone="no"?>
<!DOCTYPE svg PUBLIC "-//W3C//DTD SVG 1.1//EN" "http://www.w3.org/Graphics/SVG/1.1/DTD/svg11.dtd" >
<svg xmlns="http://www.w3.org/2000/svg" xmlns:xlink="http://www.w3.org/1999/xlink" version="1.1" viewBox="0 -410 2048 2048">
  <g transform="matrix(1 0 0 -1 0 1638)">
   <path fill="currentColor"
d="M581 697q0 177 74 335q55 117 142 204q5 5 5.5 11t-3 11t-9 7t-12.5 -1q-416 -168 -416 -565q0 -219 128 -371q113 -134 295 -198q7 -2 12.5 0t9 7t3.5 11t-5 11q-224 245 -224 538zM1213 49q12 -5 11.5 -18t-13.5 -16q-132 -39 -256 -39q-311 0 -519 210
q-212 212 -212 516q0 298 212 510q211 211 513 211q57 0 119 -9t130 -30q12 -4 13 -16.5t-13 -17.5q-103 -33 -185 -89t-147 -136q-147 -185 -147 -425q0 -241 149 -429q28 -35 73.5 -69t95.5 -63.5t97 -52.5t79 -37z" />
  </g>

</svg>
