<?xml version="1.0" standalone="no"?>
<!DOCTYPE svg PUBLIC "-//W3C//DTD SVG 1.1//EN" "http://www.w3.org/Graphics/SVG/1.1/DTD/svg11.dtd" >
<svg xmlns="http://www.w3.org/2000/svg" xmlns:xlink="http://www.w3.org/1999/xlink" version="1.1" viewBox="0 -410 2048 2048">
  <g transform="matrix(1 0 0 -1 0 1638)">
   <path fill="currentColor"
d="M1656 914q84 -84 128 -190.5t44 -225.5q0 -118 -44 -225t-128 -190q-85 -84 -191.5 -128.5t-224.5 -44.5t-225 44.5t-191 128.5l-394 393q-84 84 -128 191t-44 225t44 225t128 191t190.5 128t224.5 44q119 0 226 -44t191 -128zM846 1417q-98 0 -187 -34t-161 -98l59 -59
q36 14 76 7.5t69 -35.5l103 -103q28 -28 28 -68q0 -32 -20 -58l67 -64l348 348l-11 10q-75 75 -170 114.5t-201 39.5zM559 1154q-10 -10 -10 -24q0 -15 10 -24l102 -102q10 -10 23 -15t26.5 -5t26.5 5t23 15q10 9 10 23q0 15 -10 24l-102 103q-20 20 -50 20q-29 0 -49 -20z
M321 892q0 -106 39 -201t114 -170l11 -11l350 350l-72 71q-25 -11 -52 -11q-55 0 -94 39l-103 103q-28 28 -28 68q0 32 20 57l-53 53q-64 -72 -98 -161t-34 -187zM1611 127q77 77 115.5 174t38.5 197.5t-38.5 197.5t-115.5 174l-339 339l-743 -743l339 -339
q75 -75 170.5 -114.5t201.5 -39.5t201 39.5t170 114.5z" />
  </g>

</svg>
