<?xml version="1.0" standalone="no"?>
<!DOCTYPE svg PUBLIC "-//W3C//DTD SVG 1.1//EN" "http://www.w3.org/Graphics/SVG/1.1/DTD/svg11.dtd" >
<svg xmlns="http://www.w3.org/2000/svg" xmlns:xlink="http://www.w3.org/1999/xlink" version="1.1" viewBox="0 -410 2048 2048">
  <g transform="matrix(1 0 0 -1 0 1638)">
   <path fill="currentColor"
d="M1659 919q57 -58 95.5 -126t57.5 -141t19 -149t-19 -149.5t-57.5 -141.5t-95.5 -125q-84 -84 -191 -128t-225 -44t-225 44t-191 128l-393 394q-84 83 -128 190t-44 225q0 119 44 225.5t128 190.5t190.5 128t224.5 44q119 0 225.5 -44t190.5 -128zM1615 131
q76 77 114.5 174t38.5 197.5t-38.5 197.5t-114.5 174l-394 394q-75 75 -170 114t-201 39t-201.5 -39t-170.5 -114t-114.5 -170.5t-39.5 -201.5t39.5 -201t114.5 -170l394 -394q75 -75 170 -114t201 -39t201.5 39t170.5 114zM808 1100q28 -30 28 -69q0 -38 -28 -68
q-38 -38 -94 -38q-26 0 -50.5 9.5t-43.5 28.5l-102 103q-14 14 -21.5 32t-7.5 36.5t7.5 36t21.5 31.5q19 19 43.5 28t50.5 9t50.5 -9t43.5 -28zM764 1008q10 10 10 24q0 13 -10 23l-103 103q-20 20 -49 20q-30 0 -50 -20q-10 -10 -10 -23.5t10 -24.5l103 -102q10 -10 23 -15
t26.5 -5t26.5 5t23 15z" />
  </g>

</svg>
