<?xml version="1.0" standalone="no"?>
<!DOCTYPE svg PUBLIC "-//W3C//DTD SVG 1.1//EN" "http://www.w3.org/Graphics/SVG/1.1/DTD/svg11.dtd" >
<svg xmlns="http://www.w3.org/2000/svg" xmlns:xlink="http://www.w3.org/1999/xlink" version="1.1" viewBox="0 -410 2048 2048">
  <g transform="matrix(1 0 0 -1 0 1638)">
   <path fill="currentColor"
d="M173 540q0 307 216.5 523.5t523.5 216.5t523.5 -216.5t216.5 -523.5t-216.5 -523.5t-523.5 -216.5t-523.5 216.5t-216.5 523.5zM272 540q0 -266 187.5 -453.5t453.5 -187.5t454 187.5t188 453.5t-188 454t-454 188t-453.5 -188t-187.5 -454zM768 573q-125 84 -125 206
q0 109 76.5 176t201.5 67q119 0 189 -57t70 -153q0 -141 -161 -229q199 -87 199 -266q0 -119 -88 -193.5t-228 -74.5q-138 0 -221.5 70t-83.5 184q0 184 171 270zM962 613q109 73 109 196q0 75 -41 112.5t-123 37.5q-65 0 -110 -40t-45 -98t41.5 -99.5t168.5 -108.5z
M813 533q-92 -87 -92 -215q0 -103 47 -155t141 -52q79 0 132 49t53 122q0 62 -39.5 104t-156.5 103z" />
  </g>

</svg>
