<?xml version="1.0" standalone="no"?>
<!DOCTYPE svg PUBLIC "-//W3C//DTD SVG 1.1//EN" "http://www.w3.org/Graphics/SVG/1.1/DTD/svg11.dtd" >
<svg xmlns="http://www.w3.org/2000/svg" xmlns:xlink="http://www.w3.org/1999/xlink" version="1.1" viewBox="0 -410 2048 2048">
  <g transform="matrix(1 0 0 -1 0 1638)">
   <path fill="currentColor"
d="M741 1253q-12 -7 -25 -3t-20 15q-7 12 -3.5 25t15.5 20v1q12 7 25 3.5t20 -15.5t3.5 -25t-15.5 -20v-1zM725 736q15 0 25.5 -10.5t10.5 -25.5v-1v-579q0 -11 -6.5 -20t-16.5 -14q-10 -2 -13 -2h-1q-3 0 -13 2q-10 5 -16.5 14t-6.5 20v543h-398q-15 0 -25.5 11t-10.5 26
t10.5 25.5t25.5 10.5h435zM249 425q7 -12 3.5 -25t-15.5 -20l-1 -1q-12 -7 -25 -3t-20 15v1q-7 12 -3.5 25t15.5 20h1q11 7 24.5 3.5t20.5 -15.5zM1259 1008q7 -12 3.5 -25t-15.5 -20q-11 -7 -24.5 -3.5t-20.5 15.5v1q-7 11 -3.5 24t15.5 20q11 8 24.5 4t20.5 -16zM1045 211
q7 -12 3.5 -25t-15.5 -20t-25 -3.5t-20 15.5l-1 1q-7 12 -3 24.5t15 20.5q12 7 25 3.5t21 -15.5v-1zM448 1177q-11 -7 -24 -3.5t-20 15.5q-8 11 -4 24.5t16 20.5t25 3.5t20 -15.5q7 -11 3.5 -24.5t-15.5 -20.5h-1zM450 224q12 -8 15.5 -21t-3.5 -24v-1q-7 -12 -20 -15.5
t-25 3.5h-1q-11 7 -15 20t3 25l1 1q7 12 20 15.5t25 -3.5zM1034 1234q11 -7 15 -20t-3 -25v-1q-7 -12 -20.5 -15.5t-25.5 4.5h-1q-11 7 -14.5 20t3.5 25t20 15.5t25 -3.5h1zM1246 437q12 -7 15.5 -20t-3.5 -25v-1q-7 -11 -20 -15t-25 3l-1 1q-12 7 -15.5 20t3.5 25
q8 12 21 15.5t24 -3.5h1zM202 963q-12 7 -15.5 20t3.5 25v1q7 11 20 15t25 -3l1 -1q12 -7 15.5 -20t-3.5 -25t-20.5 -15.5t-24.5 3.5h-1zM1308 733q14 0 23.5 -9.5t9.5 -23.5v-1q0 -14 -9.5 -23.5t-23.5 -9.5t-23.5 9.5t-9.5 23.5v1q0 14 9.5 23.5t23.5 9.5zM140 733
q14 0 23.5 -9.5t9.5 -23.5v-1q0 -14 -9.5 -23.5t-23.5 -9.5t-23.5 9.5t-9.5 23.5v1q0 14 9.5 23.5t23.5 9.5zM1185 239q97 97 144 210t47 251t-47 250.5t-144 209.5t-209.5 144t-250.5 47q-139 0 -252 -47t-210 -144t-143.5 -209.5t-46.5 -250.5t46.5 -251.5t143.5 -210.5
t210.5 -143.5t251.5 -46.5t250.5 47t209.5 144zM1236 1211q213 -213 213 -511q0 -299 -213 -512q-212 -213 -511 -213q-301 0 -513 212t-212 513q0 299 212 511q211 213 513 213q298 0 511 -213z" />
  </g>

</svg>
