<?xml version="1.0" standalone="no"?>
<!DOCTYPE svg PUBLIC "-//W3C//DTD SVG 1.1//EN" "http://www.w3.org/Graphics/SVG/1.1/DTD/svg11.dtd" >
<svg xmlns="http://www.w3.org/2000/svg" xmlns:xlink="http://www.w3.org/1999/xlink" version="1.1" viewBox="0 -410 2048 2048">
  <g transform="matrix(1 0 0 -1 0 1638)">
   <path fill="currentColor"
d="M173 540q0 307 216.5 523.5t523.5 216.5t523.5 -216.5t216.5 -523.5t-216.5 -523.5t-523.5 -216.5t-523.5 216.5t-216.5 523.5zM748 566q-180 -97 -180 -255q0 -118 91.5 -187t248.5 -69q154 0 250 77t96 202q0 161 -204 267q161 88 161 215q0 96 -78 154t-208 58
q-137 0 -221.5 -68t-84.5 -178q0 -125 129 -216zM976 640l-52 28q-150 80 -150 157q0 52 41 87t101 35q135 0 135 -143q0 -89 -75 -164zM807 523l81 -43q131 -69 164.5 -102t33.5 -91q0 -66 -47.5 -108.5t-121.5 -42.5q-174 0 -174 195q0 96 64 192z" />
  </g>

</svg>
