<?xml version="1.0" standalone="no"?>
<!DOCTYPE svg PUBLIC "-//W3C//DTD SVG 1.1//EN" "http://www.w3.org/Graphics/SVG/1.1/DTD/svg11.dtd" >
<svg xmlns="http://www.w3.org/2000/svg" xmlns:xlink="http://www.w3.org/1999/xlink" version="1.1" viewBox="0 -410 2048 2048">
  <g transform="matrix(1 0 0 -1 0 1638)">
   <path fill="currentColor"
d="M173 540q0 307 216.5 523.5t523.5 216.5t523.5 -216.5t216.5 -523.5t-216.5 -523.5t-523.5 -216.5t-523.5 216.5t-216.5 523.5zM272 540q0 -266 187.5 -453.5t453.5 -187.5t454 187.5t188 453.5t-188 454t-454 188t-453.5 -188t-187.5 -454zM1240 538
q0 -222 -89.5 -355.5t-237.5 -133.5q-147 0 -236.5 132.5t-89.5 351.5q0 222 89 355.5t237 133.5q147 0 237 -133t90 -351zM1108 536q0 212 -49 317.5t-147 105.5q-96 0 -144.5 -106t-48.5 -318t49 -318t147 -106q97 0 145 106.5t48 318.5z" />
  </g>

</svg>
