<?xml version="1.0" standalone="no"?>
<!DOCTYPE svg PUBLIC "-//W3C//DTD SVG 1.1//EN" "http://www.w3.org/Graphics/SVG/1.1/DTD/svg11.dtd" >
<svg xmlns="http://www.w3.org/2000/svg" xmlns:xlink="http://www.w3.org/1999/xlink" version="1.1" viewBox="0 -410 2048 2048">
  <g transform="matrix(1 0 0 -1 0 1638)">
   <path fill="currentColor"
d="M173 540q0 307 216.5 523.5t523.5 216.5t523.5 -216.5t216.5 -523.5t-216.5 -523.5t-523.5 -216.5t-523.5 216.5t-216.5 523.5zM1275 542q0 216 -100.5 351t-261.5 135t-261 -135.5t-100 -352.5q0 -215 100.5 -350t260.5 -135q161 0 261.5 135t100.5 352zM1076 542
q0 -406 -164 -406q-162 0 -162 406q0 405 164 405q162 0 162 -405z" />
  </g>

</svg>
