<?xml version="1.0" standalone="no"?>
<!DOCTYPE svg PUBLIC "-//W3C//DTD SVG 1.1//EN" "http://www.w3.org/Graphics/SVG/1.1/DTD/svg11.dtd" >
<svg xmlns="http://www.w3.org/2000/svg" xmlns:xlink="http://www.w3.org/1999/xlink" version="1.1" viewBox="-77 -410 2048 2048">
  <g transform="matrix(1 0 0 -1 0 1638)">
   <path fill="currentColor"
d="M1680 1236q22 -22 20 -56q-3 -31 -26 -54l-428 -427q-15 -17 -39 -17q-21 0 -35 14l-32 32q-14 14 -14 35q0 22 16 40l316 314l-25 25l-847 -846l-8 -6l-11 -12l-427 -234l-13 -3q-13 0 -19 9l-9 7l-136 -61l-12 -3q-10 0 -19 9q-7 6 -8 14.5t1 16.5l62 136l-8 9
q-7 6 -8.5 15t3.5 17l234 428l12 10l5 8l1010 1010q26 26 59 40.5t67 16t66 -9t55 -33.5l128 -128q23 -23 34 -53.5t10 -62.5t-14 -64t-38 -59zM272 624l25 -24l668 668l-24 25zM490 407l669 668l-26 26l-668 -670zM1095 1139l-26 26l-668 -670l24 -24zM1029 1204l-24 25
l-668 -669l24 -25zM44 114l-14 13l-24 -49l51 22zM508 309l-269 269l-206 -375l7 -8l42 -43l50 -48zM1223 1011l-25 25l-669 -669l25 -24zM1394 1182l162 162q19 19 29.5 42t13 46t-4 44t-22.5 37l-129 129q-15 15 -37 21.5t-45 4t-46.5 -13t-41.5 -28.5l-293 -294l282 -281
zM1635 1166q9 9 9 18l-4 12l-76 77l-91 -91l28 -29q14 -14 14 -34q0 -23 -17 -40l-314 -315l24 -24z" />
  </g>

</svg>
