<?xml version="1.0" standalone="no"?>
<!DOCTYPE svg PUBLIC "-//W3C//DTD SVG 1.1//EN" "http://www.w3.org/Graphics/SVG/1.1/DTD/svg11.dtd" >
<svg xmlns="http://www.w3.org/2000/svg" xmlns:xlink="http://www.w3.org/1999/xlink" version="1.1" viewBox="-77 -410 2048 2048">
  <g transform="matrix(1 0 0 -1 0 1638)">
   <path fill="currentColor"
d="M1678 1256q11 -11 16.5 -24.5t4.5 -28.5q-2 -15 -8 -28t-17 -24l-408 -409q-17 -15 -39 -15q-19 0 -33 14l-31 30q-14 14 -13.5 35.5t16.5 37.5l299 299l-22 22l-163 -163l-19 21l-656 -656l-20 -20l-128 -127q-7 -8 -19 -8t-19 8l-27 26q-21 -26 -34 -53t-21 -49
t-11 -36.5t-3 -15.5q-2 -8 -7.5 -14.5t-13.5 -8.5l-346 -77h-6l-10 3l-11 5l-6 11v4v9v1l74 345q5 19 25 22q30 3 55 11t44.5 17.5t34 20t23.5 19.5l-30 29q-8 8 -8 19.5t8 19.5l127 127l676 676l-18 17l319 318q25 25 57 39t65 16t63.5 -8t52.5 -32l122 -123
q22 -22 32.5 -51t9.5 -59.5t-13.5 -61t-35.5 -56.5zM287 352l-69 68q-21 -20 -64 -45t-106 -36l-51 -233l103 105q-3 7 -4 14t-1 15q0 31 22 53q21 21 52.5 21t52.5 -21q22 -23 22 -53.5t-22 -52.5q-21 -21 -52 -21q-19 0 -30 5l-103 -103l234 51q3 13 9 32t15.5 41.5
t23.5 46.5t33 47zM156 226q5 -5 13 -5t13 5q13 13 0 27l-12 5l-14 -5l-6 -13zM546 387l-116 114l-114 116l-108 -108l30 -30l172 -172l28 -28zM1221 1061l-230 230l-635 -636l114 -114l115 -115zM1559 1361q18 18 28 39t12 42.5t-4 41.5t-21 35l-123 123q-15 14 -35 20
t-42 4t-43 -12t-38 -27l-279 -279l266 -266zM1635 1191q7 6 7 15l-2 11l-72 72l-85 -84l26 -27q14 -14 13.5 -35t-16.5 -37l-299 -299l21 -22z" />
  </g>

</svg>
