<?xml version="1.0" standalone="no"?>
<!DOCTYPE svg PUBLIC "-//W3C//DTD SVG 1.1//EN" "http://www.w3.org/Graphics/SVG/1.1/DTD/svg11.dtd" >
<svg xmlns="http://www.w3.org/2000/svg" xmlns:xlink="http://www.w3.org/1999/xlink" version="1.1" viewBox="0 -410 2048 2048">
  <g transform="matrix(1 0 0 -1 0 1638)">
   <path fill="currentColor"
d="M1120 535q4 -6 10.5 -7t12 1.5t8.5 8t1 13.5l-110 337q-2 7 -12 12l-176 57q-14 5 -14 17.5t12 17.5l464 152q8 2 11 7.5t2 11.5t-6 11t-13 5l-354 -1q-10 0 -14 -7l-110 -151q-8 -11 -20 -7t-12 18v486q0 9 -4.5 13.5t-10.5 4.5t-12 -3t-9 -9l-108 -336q-5 -8 2 -16
l110 -152q4 -5 3 -10.5t-4 -10t-8.5 -6.5t-10.5 0l-464 151q-8 3 -14 0t-9 -8.5t-2 -12.5t7 -11l288 -208q8 -6 16 -3l178 57q12 4 19 -6.5t1 -21.5l-288 -394q-4 -6 -3 -12.5t5.5 -10.5t11 -5.5t12.5 3.5l286 208q8 6 8 15v186q0 13 12 17t20 -7zM1542 1234
q12 0 16.5 -12.5t-6.5 -20.5l-436 -318q-9 -7 -8 -20l168 -513q2 -6 0 -11.5t-6.5 -9t-10.5 -4t-11 3.5l-438 318q-10 7 -20 0l-438 -318q-5 -4 -11 -3.5t-10.5 4t-6.5 9t0 11.5l168 513q1 13 -8 20l-436 318q-11 8 -6.5 20.5t16.5 12.5h540q13 0 18 12l166 514q6 13 18 13
t18 -13l166 -514q4 -12 18 -12h540z" />
  </g>

</svg>
