<?xml version="1.0" standalone="no"?>
<!DOCTYPE svg PUBLIC "-//W3C//DTD SVG 1.1//EN" "http://www.w3.org/Graphics/SVG/1.1/DTD/svg11.dtd" >
<svg xmlns="http://www.w3.org/2000/svg" xmlns:xlink="http://www.w3.org/1999/xlink" version="1.1" viewBox="0 -410 2048 2048">
  <g transform="matrix(1 0 0 -1 0 1638)">
   <path fill="currentColor"
d="M1610 1354q30 0 51 -21t21 -51v-981q0 -30 -21 -51t-51 -21h-306q-12 0 -20 8.5t-8 20.5l2 7l-2 7v189h-68l122 -566l2 -13q0 -11 -8 -19.5t-20 -8.5v0h-910q-12 0 -20 10q-10 12 -6 25l78 361q-22 -21 -52 -21h-262q-30 0 -51 21t-21 51v981q0 30 21 51t51 21h188v263
q0 12 8 20t20 8q10 0 19 -8t9 -20v-263h18q30 0 51 -21t21 -51v-203h30v622q0 11 9 19.5t19 8.5h462l12 -4h2l230 -125l6 -3l2 -2l6 -9v-1l2 -9v-497h30v232l2 7l-2 7q0 12 8 20.5t20 8.5h306zM1014 1603h92l-92 50v-50zM552 1079h638v469h-204q-12 0 -19 8.5t-7 19.5v96
h-408v-593zM410 1282q0 7 -5 11t-11 4h-262q-14 0 -14 -15v-981q0 -15 14 -15h262q6 0 11 4t5 11v981zM466 349l24 112h-24v-112zM1152 461h-604l-118 -550h838zM1624 1282q0 15 -14 15h-278v-245q0 -12 -9 -20.5t-19 -8.5h-86h-694h-58v-507h58h650h130q10 0 19 -8t9 -19
v-203h278q14 0 14 15v981zM1520 900q10 0 16 -6.5t6 -15.5v-86q0 -10 -6 -16.5t-16 -6.5h-86q-10 0 -16 6.5t-6 16.5v86q0 9 6 15.5t16 6.5h86z" />
  </g>

</svg>
