<?xml version="1.0" standalone="no"?>
<!DOCTYPE svg PUBLIC "-//W3C//DTD SVG 1.1//EN" "http://www.w3.org/Graphics/SVG/1.1/DTD/svg11.dtd" >
<svg xmlns="http://www.w3.org/2000/svg" xmlns:xlink="http://www.w3.org/1999/xlink" version="1.1" viewBox="0 -410 2048 2048">
  <g transform="matrix(1 0 0 -1 0 1638)">
   <path fill="currentColor"
d="M1390 109q6 -20 11 -40t9 -42v-36v36q-91 39 -162.5 95.5t-127.5 129.5q-29 39 -55.5 94t-47 110t-33 102t-14.5 69q10 1 29 -1.5t41 -7.5q1 -1 6 -1l2 -1q40 -347 342 -507zM900 762q0 -34 14 -48q15 -12 38 -17q-21 -3 -38 -17q-14 -14 -14 -47q0 16 -3 28t-11 19
q-14 14 -38 17q24 4 38 17q8 7 11 19t3 29zM1394 192q-159 94 -226 250q156 -93 226 -250zM1646 -46q16 14 16 48t-10.5 79t-29 95.5t-40 98.5t-43.5 88t-39 63q-61 83 -141 143.5t-177 103.5q-20 9 -41 5t-37 -18q-17 21 -48 29q-14 4 -25.5 5.5t-20.5 2.5q21 3 46 9
q30 6 48 28q22 -19 48 -19q7 0 14.5 1t15.5 5q198 84 318 248q17 23 38.5 62.5t43.5 87.5t40.5 99t29.5 95.5t10.5 79t-16.5 48.5q-36 33 -140 9q-16 -4 -28 -11.5t-20 -17.5q-16 14 -37 18t-41 -5q-99 -42 -178.5 -104t-139.5 -143q-14 -19 -30.5 -48.5t-34 -66t-34.5 -77
t-30.5 -80t-22.5 -76.5t-10 -65q-2 42 -19.5 101.5t-42.5 119t-52 111.5t-48 80q-61 81 -139.5 143t-178.5 105q-20 8 -40 4.5t-36 -17.5q-8 10 -20 17.5t-28 11.5q-109 24 -142 -9q-14 -14 -14 -48t10.5 -78.5t28.5 -95.5t39.5 -98.5t43.5 -88t40 -63.5q61 -81 139.5 -143
t178.5 -105q12 -6 28 -6q29 0 48 19q19 -22 48 -28l48 -9q-12 -1 -23 -3t-25 -5q-31 -8 -48 -29q-16 14 -36 18t-40 -5q-100 -43 -178.5 -105t-139.5 -142q-18 -24 -40 -64.5t-43.5 -88t-39.5 -98.5t-28.5 -95.5t-10.5 -78t14 -47.5q20 -20 64 -20q26 0 78 11q16 4 27 11
t21 17q19 -19 48 -19q13 0 28 7q100 43 178.5 105t139.5 142q21 28 48 80t52 111.5t42.5 119t19.5 101.5q1 -29 10 -65.5t22.5 -76t30.5 -80t34.5 -76.5t34 -66t30.5 -48q60 -81 139 -142.5t179 -104.5q15 -7 30 -7q26 0 48 19q17 -20 48 -28q49 -11 78 -11q39 0 62 20z
M1682 1510q14 0 25 -10.5t11 -25.5v-1549q0 -15 -11 -25.5t-25 -10.5h-1562q-16 0 -27 10.5t-11 25.5v1549q0 15 11 25.5t27 10.5h1562zM1152 607q90 -39 162 -94.5t128 -130.5q19 -26 37.5 -59.5t35 -70t30 -74t24 -70.5t16 -59.5t5.5 -41.5q-10 -1 -28 1.5t-40 7.5
q-2 0 -3.5 0.5t-2.5 0.5t-2 1v-1q-42 346 -342 507q-7 20 -12 40.5t-8 42.5zM760 618q20 5 36 7t28 2h6q-2 -22 -14.5 -68.5t-33 -101.5t-46.5 -110.5t-56 -94.5q-56 -73 -127 -129.5t-161 -95.5v-36l-2 36q4 22 9.5 42t12.5 40q303 163 340 506q1 0 2 1zM392 1368
q91 -40 162 -96.5t126 -128.5q30 -39 56 -94.5t46.5 -110.5t33 -101.5t14.5 -68.5q-10 -1 -28 1t-42 7q-10 2 -6 2h-2q-38 346 -342 507q-6 20 -11 41t-7 42zM1394 1203q-67 -155 -226 -251q67 155 226 251zM1172 870q302 161 340 505q2 1 3 2t7 2q36 9 62 9l6 -1
q0 -15 -5.5 -41.5t-16 -59.5t-24 -70.5t-30 -74t-35 -70t-37.5 -59.5q-54 -74 -126.5 -129.5t-163.5 -94.5v-37v37q4 20 8 41t12 41zM1048 780q0 -1 -8 -4q-22 -5 -41 -7t-29 -1q2 22 15 69t33 102t46.5 110t55.5 94q108 146 290 224q-3 -20 -8 -40.5t-12 -41.5
q-301 -160 -342 -505zM408 192q66 155 224 250q-66 -155 -224 -250zM628 524q-299 -160 -340 -505q-1 0 -2 -1q-2 -2 -6 -2q-49 -11 -70 -9q1 22 13.5 69t33.5 102t47.5 110t55.5 94q109 147 290 225q-4 -20 -9.5 -40.5t-12.5 -42.5zM630 870q6 -22 11 -42t9 -40h-2v-37v37
q-178 78 -288 224q-29 39 -55.5 94t-47.5 110t-33.5 102t-13.5 69q10 1 28 -1t42 -7q2 -1 6 -1q1 0 2 -1q40 -347 342 -507zM632 952q-158 95 -224 251q158 -95 224 -251z" />
  </g>

</svg>
