<?xml version="1.0" standalone="no"?>
<!DOCTYPE svg PUBLIC "-//W3C//DTD SVG 1.1//EN" "http://www.w3.org/Graphics/SVG/1.1/DTD/svg11.dtd" >
<svg xmlns="http://www.w3.org/2000/svg" xmlns:xlink="http://www.w3.org/1999/xlink" version="1.1" viewBox="-37 -410 2048 2048">
  <g transform="matrix(1 0 0 -1 0 1638)">
   <path fill="currentColor"
d="M1323 427q17 -23 39 -63.5t43.5 -88t40 -98.5t29 -96t11 -79t-14.5 -48q-22 -19 -63 -19q-17 0 -36.5 3t-42.5 8q-30 7 -47 28q-22 -19 -49 -19q-14 0 -29 6q-198 88 -318 248q-21 28 -48 79.5t-51.5 111.5t-42.5 119t-20 102q-2 -43 -19.5 -102t-42 -119t-51.5 -111.5
t-48 -79.5q-120 -160 -318 -248q-15 -6 -29 -6q-27 0 -49 19q-17 -21 -47 -28q-23 -5 -42.5 -8t-36.5 -3q-41 0 -63 19q-15 14 -14.5 48t11 79t29 96t40 98.5t43 88t39.5 63.5q60 80 139.5 142t178.5 105q20 8 40.5 4.5t36.5 -17.5q17 22 48 29q13 3 24 4.5t22 3.5l-22 4
t-24 4q-31 7 -48 29q-21 -19 -48 -19q-16 0 -29 6q-99 43 -178.5 105t-139.5 142q-17 23 -39 63.5t-43.5 88t-40 98.5t-29 96t-11 79t14.5 48q38 33 142 8q29 -7 48 -28q16 14 36.5 17.5t40.5 -4.5q198 -88 318 -248q21 -28 48 -79.5t51.5 -111.5t42 -119t19.5 -102
q2 43 20 102t42.5 119t51.5 111.5t48 79.5q120 160 318 248q20 8 40.5 4.5t36.5 -17.5q19 21 48 28q104 25 142 -8q15 -14 14.5 -48t-11 -79t-29 -96t-40 -98.5t-43.5 -88t-39 -63.5q-60 -80 -139.5 -142t-178.5 -105q-14 -6 -29 -6q-27 0 -48 19q-17 -22 -48 -29
q-13 -3 -24 -4.5t-22 -3.5q11 -2 22 -3.5t24 -4.5q31 -7 48 -29q16 14 36.5 17.5t40.5 -4.5q99 -43 178.5 -105t139.5 -142zM1337 1376q-20 -172 -105 -298.5t-236 -206.5q-14 -43 -20 -83v-36v36q181 80 289 225q29 39 55.5 94t47 110t33 102t14.5 69h-7q-12 1 -27.5 -1.5
t-34.5 -6.5q-9 -3 -9 -4zM992 953q157 94 226 251q-159 -94 -226 -251zM944 1144q-29 -39 -55.5 -94t-47 -110.5t-33 -102.5t-13.5 -69q10 -1 28.5 1.5t40.5 7.5q5 1 6.5 2t2.5 2q20 171 105 297.5t236 207.5q7 20 11.5 41t8.5 41q-91 -39 -163 -95.5t-127 -128.5zM474 789
q-8 43 -21 82q-301 160 -342 507q0 -1 -8 2q-22 5 -40.5 7t-28.5 1q1 -22 14 -69t33.5 -102t47 -110t55.5 -94q108 -145 289 -225v-36v36zM231 1204q69 -157 226 -251q-67 157 -226 251zM577 779l8 -2q22 -5 41 -7.5t28 -1.5q-1 22 -13.5 69t-33 102.5t-47 110.5t-55.5 94
q-111 146 -289 224q3 -20 7.5 -41t11.5 -41q301 -161 342 -507zM112 20q20 172 105 298.5t236 206.5q14 43 20 83q-180 -78 -289 -225q-29 -39 -55.5 -94t-47 -110t-33.5 -102t-14 -69h7q12 -1 28 1.5t34 6.5q9 3 9 4zM457 443q-157 -94 -226 -251q159 94 226 251zM505 252
q29 39 55.5 94t47 110.5t33 102.5t13.5 69h-7q-25 0 -62 -9q-5 -1 -6.5 -2t-2.5 -2q-20 -171 -105 -297.5t-236 -207.5q-7 -20 -11.5 -41t-8.5 -41l1 -37v37q178 78 289 224zM724 633q1 17 4 29t11 19q12 12 37 17q-25 5 -37 17q-8 7 -11 19t-4 29q0 -35 -14 -48
q-12 -12 -37 -17q25 -5 37 -17q14 -13 14 -48zM1234 28q-4 20 -8.5 41t-11.5 41q-301 161 -342 507l-8 2q-22 5 -40.5 7.5t-28.5 1.5q1 -22 13.5 -69t33 -102.5t47 -110.5t55.5 -94q111 -146 289 -224v-37v37h1zM992 443q67 -157 226 -251q-69 157 -226 251zM1346 16
q22 -5 40.5 -7t28.5 -1q-2 22 -14.5 69t-33 102t-47 110t-55.5 94q-109 147 -289 225q6 -40 20 -83q301 -160 342 -507v1q1 0 3 -1t5 -2z" />
  </g>

</svg>
