<?xml version="1.0" standalone="no"?>
<!DOCTYPE svg PUBLIC "-//W3C//DTD SVG 1.1//EN" "http://www.w3.org/Graphics/SVG/1.1/DTD/svg11.dtd" >
<svg xmlns="http://www.w3.org/2000/svg" xmlns:xlink="http://www.w3.org/1999/xlink" version="1.1" viewBox="0 -410 2048 2048">
  <g transform="matrix(1 0 0 -1 0 1638)">
   <path fill="currentColor"
d="M688 905q16 16 38 16t38 -16l168 -167q17 -17 16.5 -39t-16.5 -38l-168 -168q-16 -16 -38 -16t-38 16l-168 168q-16 16 -16.5 38t16.5 39zM688 249q17 -17 38 -17t38 17l412 412q16 16 16.5 38t-16.5 39l-412 412q-16 16 -38 16t-38 -16l-412 -412q-17 -17 -16.5 -39
t16.5 -38zM688 1313q16 16 38 16t38 -16l576 -575q17 -17 16.5 -39t-16.5 -38l-576 -575q-16 -16 -38 -16t-38 16l-574 575q-17 17 -18 38.5t16 38.5z" />
  </g>

</svg>
