<?xml version="1.0" standalone="no"?>
<!DOCTYPE svg PUBLIC "-//W3C//DTD SVG 1.1//EN" "http://www.w3.org/Graphics/SVG/1.1/DTD/svg11.dtd" >
<svg xmlns="http://www.w3.org/2000/svg" xmlns:xlink="http://www.w3.org/1999/xlink" version="1.1" viewBox="0 -410 2048 2048">
  <g transform="matrix(1 0 0 -1 0 1638)">
   <path fill="currentColor"
d="M172 740q0 307 216 523q218 217 524 217q308 0 524 -217q216 -218 216 -523q0 -307 -216 -524q-216 -216 -524 -216t-524 216t-216 524zM666 740q0 -103 72 -175t174 -72t174 72q74 74 74 175q0 103 -72 175t-176 72q-102 0 -174 -73q-72 -72 -72 -174z" />
  </g>

</svg>
