<?xml version="1.0" standalone="no"?>
<!DOCTYPE svg PUBLIC "-//W3C//DTD SVG 1.1//EN" "http://www.w3.org/Graphics/SVG/1.1/DTD/svg11.dtd" >
<svg xmlns="http://www.w3.org/2000/svg" xmlns:xlink="http://www.w3.org/1999/xlink" version="1.1" viewBox="0 -410 2048 2048">
  <g transform="matrix(1 0 0 -1 0 1638)">
   <path fill="currentColor"
d="M172 740q0 307 216 523q218 217 524 217q308 0 524 -217q216 -218 216 -523q0 -307 -216 -524q-216 -216 -524 -216t-524 216t-216 524zM272 740q0 -267 186 -454q188 -187 454 -187q268 0 454 187q188 188 188 454t-188 454t-454 188t-454 -188q-186 -188 -186 -454z
" />
  </g>

</svg>
