<?xml version="1.0" standalone="no"?>
<!DOCTYPE svg PUBLIC "-//W3C//DTD SVG 1.1//EN" "http://www.w3.org/Graphics/SVG/1.1/DTD/svg11.dtd" >
<svg xmlns="http://www.w3.org/2000/svg" xmlns:xlink="http://www.w3.org/1999/xlink" version="1.1" viewBox="0 -410 2048 2048">
  <g transform="matrix(1 0 0 -1 0 1638)">
   <path fill="currentColor"
d="M172 740q0 307 216 523q218 217 524 217q308 0 524 -217q216 -218 216 -523q0 -307 -216 -524q-216 -216 -524 -216t-524 216t-216 524zM370 740q0 -226 158 -384q160 -159 384 -159q226 0 384 159q160 160 160 384t-160 384q-158 159 -384 159q-224 0 -384 -159
q-158 -158 -158 -384z" />
  </g>

</svg>
