<?xml version="1.0" standalone="no"?>
<!DOCTYPE svg PUBLIC "-//W3C//DTD SVG 1.1//EN" "http://www.w3.org/Graphics/SVG/1.1/DTD/svg11.dtd" >
<svg xmlns="http://www.w3.org/2000/svg" xmlns:xlink="http://www.w3.org/1999/xlink" version="1.1" viewBox="-232 -410 2048 2048">
  <g transform="matrix(1 0 0 -1 0 1638)">
   <path fill="currentColor"
d="M272 1369q37 -22 62 -55.5t35.5 -72.5t6 -80.5t-26.5 -79.5q-28 -48 -77 -76.5t-106 -28.5q-55 0 -105 28q-38 22 -62.5 56t-35 73t-6 80t26.5 79q28 50 77 78t105 28q29 0 55.5 -7t50.5 -22zM309 1105q17 30 21 62t-4.5 62.5t-28 56.5t-48.5 43q-38 24 -83 24
q-43 0 -81.5 -23t-60.5 -61q-17 -29 -20.5 -61.5t4.5 -63t27.5 -57t48.5 -43.5q41 -22 82 -22q45 0 82.5 22.5t60.5 60.5zM1842 366q5 -3 8.5 -9t3.5 -12q-4 -16 -13 -20l-72 -35q-72 -35 -149 -35q-44 0 -86.5 11t-80.5 34l-607 350l-289 -167q12 -62 5 -124.5t-32 -118.5
t-66.5 -103t-97.5 -78q-48 -27 -98 -40.5t-100 -13.5q-52 0 -102 13t-95 38.5t-83.5 62.5t-65.5 85q-42 71 -51 149.5t10.5 152.5t67 137t118.5 104q32 19 65.5 30.5t68.5 17.5q-35 6 -68.5 17.5t-65.5 29.5q-71 41 -118.5 104.5t-67 137.5t-10.5 152.5t51 149.5
q40 69 102 117t140 69q77 20 154.5 10t147.5 -50q56 -32 97.5 -79t66.5 -103t32 -118t-5 -125l289 -167l607 351q73 42 157 44.5t159 -34.5l72 -36q10 -6 13 -19q0 -7 -3.5 -12.5t-8.5 -8.5l-744 -430zM892 914l160 -92l730 421l-33 16q-66 32 -138 30t-135 -38zM800 677
l-159 92l-200 -115h-1q-7 -5 -15 -4.5t-13 6.5q-42 41 -94 65t-107.5 31t-112.5 -4t-108 -41q-63 -36 -104.5 -92t-59 -121t-9.5 -134.5t45 -132.5q36 -63 92 -104.5t121 -59t134.5 -9.5t132.5 44q51 30 89 73t60 95t27 109t-10 114q-3 16 12 24l1 3zM232 795
q54 -9 104.5 -32.5t94.5 -61.5l163 94l-163 95q-44 -38 -94.5 -61.5t-104.5 -33.5zM1782 348l-742 426v2l-519 299l-1 1q-15 9 -12 26q15 57 10 114t-27 109t-60 95t-89 73q-63 36 -132.5 44t-134.5 -10t-121 -59.5t-92 -104.5q-36 -61 -45.5 -129.5t9.5 -137.5
q18 -68 60.5 -123t103.5 -91q51 -29 108 -40t112.5 -4t107.5 31.5t94 65.5q5 5 13 6t15 -4l1 -1l1035 -596q63 -37 135 -39.5t138 30.5zM166 614q57 0 106 -28t77 -78q22 -38 26.5 -79.5t-6 -80.5t-35.5 -72.5t-62 -55.5q-50 -28 -106 -28t-105 28.5t-77 77.5
q-21 36 -26.5 77t5.5 82q11 42 36 74.5t62 53.5q24 14 50.5 21.5t54.5 7.5zM249 260q29 17 48.5 43t27.5 57t4.5 63.5t-20.5 61.5q-23 39 -60.5 60.5t-82.5 21.5q-43 0 -82 -21q-28 -17 -48 -43t-29 -58q-8 -32 -4 -63.5t21 -60.5q22 -39 60.5 -61t81.5 -22q44 0 83 22z
M858 830q20 0 35 -14.5t15 -36.5q0 -20 -15 -34t-35 -14q-22 0 -36 14t-14 34q0 22 14 36.5t36 14.5zM858 752q11 0 19 8t8 19q0 12 -8 19.5t-19 7.5q-12 0 -19.5 -7.5t-7.5 -19.5q0 -11 7.5 -19t19.5 -8z" />
  </g>

</svg>
