<?xml version="1.0" standalone="no"?>
<!DOCTYPE svg PUBLIC "-//W3C//DTD SVG 1.1//EN" "http://www.w3.org/Graphics/SVG/1.1/DTD/svg11.dtd" >
<svg xmlns="http://www.w3.org/2000/svg" xmlns:xlink="http://www.w3.org/1999/xlink" version="1.1" viewBox="-239 -410 2048 2048">
  <g transform="matrix(1 0 0 -1 0 1638)">
   <path fill="currentColor"
d="M1861 326l-73 -36q-74 -36 -154 -34t-151 43l-636 368l-325 -188q15 -61 10.5 -123t-28 -119t-65 -105.5t-98.5 -81.5q-69 -40 -145.5 -49t-148 10.5t-133 66t-101.5 115.5t-49 145t10 147.5t65 133t115 101.5q57 33 119.5 44.5t123.5 3.5t117 -34.5t101 -70.5l220 126
l22 -13l-242 139q-45 -44 -101 -70.5t-117 -34.5t-123.5 3.5t-119.5 44.5q-69 40 -115 101.5t-65 133.5t-10 148t49 146q40 69 101.5 115t133 65t148 10t145.5 -49q57 -33 98.5 -81.5t65 -105.5t28 -119t-10.5 -123zM314 1096q20 35 24.5 73t-5 74t-32.5 67t-58 51
q-34 20 -72 24.5t-73.5 -5t-66.5 -32.5t-51 -58t-24.5 -73t5 -74t32 -67t57.5 -51t73 -24t74 6t66.5 32.5t50.5 56.5zM243 218q35 20 58 50.5t32.5 66.5t5 74t-24.5 73q-20 34 -50.5 57t-66.5 33t-74 5.5t-73 -24.5t-57.5 -50.5t-32 -66.5t-5 -74t24.5 -73t51 -58
t66.5 -32.5t73.5 -5t72 24.5zM856 829q-17 0 -27.5 -11.5t-10.5 -28.5t10.5 -28.5t27.5 -11.5t28.5 11.5t11.5 28.5t-11.5 28.5t-28.5 11.5zM1058 789l-211 122l636 368q71 41 151 43t154 -33l73 -36z" />
  </g>

</svg>
