<?xml version="1.0" standalone="no"?>
<!DOCTYPE svg PUBLIC "-//W3C//DTD SVG 1.1//EN" "http://www.w3.org/Graphics/SVG/1.1/DTD/svg11.dtd" >
<svg xmlns="http://www.w3.org/2000/svg" xmlns:xlink="http://www.w3.org/1999/xlink" version="1.1" viewBox="0 -410 2048 2048">
  <g transform="matrix(1 0 0 -1 0 1638)">
   <path fill="currentColor"
d="M173 540q0 307 216.5 523.5t523.5 216.5t523.5 -216.5t216.5 -523.5t-216.5 -523.5t-523.5 -216.5t-523.5 216.5t-216.5 523.5zM744 575v25q0 347 232 347q60 0 113 -27q26 -13 30 -93l2 -23h85v187q-59 19 -122 28t-130 9q-185 0 -295 -138t-110 -369q0 -220 97.5 -343
t271.5 -123q146 0 241.5 94.5t95.5 240.5q0 128 -81.5 211t-207.5 83q-140 0 -222 -109zM749 414q0 169 161 169q158 0 158 -227q0 -220 -142 -220q-177 0 -177 278z" />
  </g>

</svg>
