<?xml version="1.0" standalone="no"?>
<!DOCTYPE svg PUBLIC "-//W3C//DTD SVG 1.1//EN" "http://www.w3.org/Graphics/SVG/1.1/DTD/svg11.dtd" >
<svg xmlns="http://www.w3.org/2000/svg" xmlns:xlink="http://www.w3.org/1999/xlink" version="1.1" viewBox="0 -410 2048 2048">
  <g transform="matrix(1 0 0 -1 0 1638)">
   <path fill="currentColor"
d="M173 540q0 307 216.5 523.5t523.5 216.5t523.5 -216.5t216.5 -523.5t-216.5 -523.5t-523.5 -216.5t-523.5 216.5t-216.5 523.5zM272 540q0 -266 187.5 -453.5t453.5 -187.5t454 187.5t188 453.5t-188 454t-454 188t-453.5 -188t-187.5 -454zM719 553q44 62 100 92.5
t124 30.5q122 0 199.5 -83t77.5 -213q0 -140 -88 -235.5t-217 -95.5q-164 0 -246.5 118t-82.5 354q0 238 99.5 369.5t278.5 131.5q115 0 204 -41v-168h-74l-2 25q-5 77 -29.5 99.5t-102.5 22.5q-120 0 -180.5 -101.5t-60.5 -305.5zM722 420q0 -140 57.5 -224t151.5 -84
q82 0 123 63t41 189q0 123 -42.5 184t-127.5 61q-93 0 -148 -51.5t-55 -137.5z" />
  </g>

</svg>
