<?xml version="1.0" standalone="no"?>
<!DOCTYPE svg PUBLIC "-//W3C//DTD SVG 1.1//EN" "http://www.w3.org/Graphics/SVG/1.1/DTD/svg11.dtd" >
<svg xmlns="http://www.w3.org/2000/svg" xmlns:xlink="http://www.w3.org/1999/xlink" version="1.1" viewBox="-6 -410 2048 2048">
  <g transform="matrix(1 0 0 -1 0 1638)">
   <path fill="currentColor"
d="M735 1235q-12 -7 -25 -3t-20 15q-7 12 -3.5 25t15.5 20l1 1q11 7 24 3t20 -15q8 -12 4 -25t-16 -20v-1zM719 718q15 0 25.5 -11t10.5 -26v-6v-434v-139q0 -9 -5 -17q-5 -25 -31 -25h-1q-11 0 -20 7t-11 18q-5 8 -5 17v139v434v6q0 15 11 26t26 11zM243 400q7 -11 3.5 -24
t-15.5 -21h-1q-11 -7 -24.5 -3.5t-20.5 15.5v1q-7 12 -3.5 25t15.5 20h1q12 7 25 3.5t20 -15.5v-1zM1253 984q8 -12 4 -25t-15 -20q-12 -7 -25 -3.5t-21 15.5q-7 12 -3.5 25t15.5 20q12 8 25 4t20 -16zM1039 187q7 -12 3.5 -25t-15.5 -20t-25 -3.5t-20 15.5v1q-7 11 -3.5 24
t15.5 20q11 8 24.5 4t20.5 -15v-1zM443 1153q-12 -7 -25 -3.5t-20 15.5q-8 11 -4 24.5t16 20.5t25 3.5t20 -15.5q7 -11 3.5 -24.5t-15.5 -20.5zM444 199q12 -7 16 -20t-3 -25h-1q-7 -12 -20 -15.5t-25 3.5h-1q-11 7 -15 20t3 25l1 1q7 12 20 15.5t25 -3.5v-1zM1028 1210
q12 -7 15.5 -20t-3.5 -25v-1q-7 -12 -20.5 -15.5t-25.5 3.5l-1 1q-11 7 -14.5 20t3.5 25t20 15.5t25 -3.5h1zM1240 413q12 -7 15.5 -20t-3.5 -25v-1q-7 -12 -20 -15.5t-25 3.5h-1q-11 8 -15 21t3 24l1 1q7 12 20 15.5t25 -3.5zM196 939q-12 7 -15.5 20t3.5 25v1q8 11 21 15
t24 -3l1 -1q12 -7 15.5 -20t-3.5 -25t-20 -16t-25 3zM1302 709q14 0 23.5 -9.5t9.5 -23.5v-1q0 -14 -9.5 -23.5t-23.5 -9.5t-23.5 9.5t-9.5 23.5v1q0 14 9.5 23.5t23.5 9.5zM135 709q14 0 23.5 -9.5t9.5 -23.5v-1q0 -14 -9.5 -23.5t-23.5 -9.5h-1q-14 0 -23.5 9.5t-9.5 23.5
v1q0 14 9.5 23.5t23.5 9.5h1zM1179 215q97 97 144.5 209.5t47.5 250.5q0 139 -47.5 251.5t-144.5 209.5t-209.5 144t-250.5 47t-251.5 -47t-210.5 -144q-190 -190 -190 -461q0 -138 46.5 -251t143.5 -210t210.5 -144t251.5 -47t250.5 47.5t209.5 144.5zM1231 1187
q212 -212 212 -512q0 -149 -52.5 -277t-159.5 -235q-212 -212 -512 -212q-302 0 -513 211q-212 212 -212 513q0 300 212 512q213 213 513 213q299 0 512 -213z" />
  </g>

</svg>
