<?xml version="1.0" standalone="no"?>
<!DOCTYPE svg PUBLIC "-//W3C//DTD SVG 1.1//EN" "http://www.w3.org/Graphics/SVG/1.1/DTD/svg11.dtd" >
<svg xmlns="http://www.w3.org/2000/svg" xmlns:xlink="http://www.w3.org/1999/xlink" version="1.1" viewBox="0 -410 2048 2048">
  <g transform="matrix(1 0 0 -1 0 1638)">
   <path fill="currentColor"
d="M1860 1292q18 0 36 -7.5t30 -20t20 -30t8 -36.5v-1005q0 -20 -8 -37t-20 -29.5t-30 -20t-36 -7.5h-474v0h-688h-472q-20 0 -37 7.5t-29 20t-20 29.5t-8 37v1005q0 19 8 36.5t20 30t29 20t37 7.5h1634zM226 1229q-12 0 -21 -9t-9 -22v-772l44 -45v799q0 13 9 22t23 9h1542
q14 0 23 -9t9 -22v-799l44 45v772q0 13 -9 22t-21 9h-1634zM1784 318v830h-1482v-830l156 -156h224l76 145q8 16 28 16h514q20 0 28 -16l76 -145h224zM1282 260h-478l-52 -98h582zM196 193q0 -13 9 -22t21 -9h144l-120 121h-2l-52 54v-144zM1860 162q12 0 21 9t9 22v144
l-52 -54h-2l-120 -121h144zM1436 897q26 0 51 -10t43 -27.5t28 -40.5t10 -49t-10 -49.5t-28 -40.5t-43 -27t-51 -10q-28 0 -52 10t-42 27t-29 40.5t-11 49.5t11 49t29 40.5t42 27.5t52 10zM1436 706q28 0 49 18.5t21 45.5q0 26 -21 45t-49 19q-30 0 -50 -19t-20 -45
q0 -27 20 -45.5t50 -18.5zM1646 770q0 -41 -17 -77t-45 -63t-65 -43t-81 -16l-736 -60h-2q-56 0 -106 20.5t-87 55.5t-59 82t-22 101t22 101t59 82t87 55.5t106 20.5h2l736 -60q44 -1 81 -16.5t65 -42.5t45 -63t17 -77zM1296 622q-32 28 -51 65.5t-19 82.5t19 82.5t51 64.5
l-400 33q36 -35 57 -81t21 -99t-21 -99t-57 -81zM490 770q0 -41 16 -78t45 -64.5t67 -42.5t82 -11h6q42 3 80 19.5t65 42.5t43 60t16 74t-16 74t-43 60t-65 42t-80 19l-6 1q-44 3 -82 -12t-67 -42.5t-45 -64.5t-16 -77zM1436 633q30 0 57 11t47 29.5t31 43.5t11 53t-11 53
t-31 43.5t-47 29t-57 10.5t-57 -10.5t-47 -29t-32 -43.5t-12 -53t12 -53t32 -43.5t47 -29.5t57 -11zM700 643q-28 0 -52 10t-42 27t-28 40.5t-10 49.5t10 49t28 40.5t42 27.5t52 10t52 -10t42 -27.5t28 -40.5t10 -49t-10 -49.5t-28 -40.5t-42 -27t-52 -10zM700 834
q-28 0 -49 -19t-21 -45q0 -27 21 -45.5t49 -18.5q30 0 50 18.5t20 45.5q0 26 -20 45t-50 19z" />
  </g>

</svg>
