<?xml version="1.0" standalone="no"?>
<!DOCTYPE svg PUBLIC "-//W3C//DTD SVG 1.1//EN" "http://www.w3.org/Graphics/SVG/1.1/DTD/svg11.dtd" >
<svg xmlns="http://www.w3.org/2000/svg" xmlns:xlink="http://www.w3.org/1999/xlink" version="1.1" viewBox="-8 -410 2048 2048">
  <g transform="matrix(1 0 0 -1 0 1638)">
   <path fill="currentColor"
d="M19 1051l-18 9l6 18q12 46 31 94.5t39 93t39 81t31 57.5q8 16 23 26t32 12q46 5 120 12t157.5 13.5t165.5 12.5t144 9h7h30q41 0 92.5 -3t107 -7t112.5 -9t108.5 -10t95.5 -10t75 -8q37 -5 56 -38q12 -21 30.5 -57.5t39 -80.5t39.5 -93t31 -95l5 -18l-17 -9l-5 -2
q-40 -21 -93.5 -35.5t-116.5 -14.5q-58 0 -109 11.5t-85 34.5l-15 10l6 17q3 9 6 19t5 18q5 14 -3 25t-22 11h-718q-15 0 -23 -11q-7 -13 -3 -25q3 -8 6 -18t6 -19l5 -17l-14 -10q-34 -23 -85 -34.5t-110 -11.5q-62 0 -115.5 14.5t-93.5 34.5zM187 1382q-11 -20 -28 -53
t-35.5 -73.5t-36.5 -85t-31 -87.5q32 -18 78.5 -28.5t98.5 -10.5q46 0 86 8.5t69 22.5q-2 5 -3 9.5t-3 9.5q-6 17 -4 34.5t13 31.5q22 31 60 31h718q38 0 60 -31q10 -14 12.5 -31.5t-3.5 -34.5q-2 -5 -3 -9.5t-3 -9.5q29 -14 69 -22.5t85 -8.5q52 0 98.5 10.5t78.5 28.5
q-13 44 -31.5 90.5t-38 87.5t-36 73t-24.5 48q-8 13 -20 13q-24 3 -65.5 7.5t-92.5 9.5t-109.5 10t-115.5 9.5t-110.5 7t-95.5 3.5h-9h-5h-10h-5q-42 -1 -95 -4.5t-110.5 -7.5t-115.5 -9t-109 -10t-92.5 -9t-65.5 -7q-12 0 -20 -13zM234 786q-31 0 -64 3.5t-63 12t-55 22
t-40 33.5q-30 42 -14 135l6 30l27 -15q34 -19 89 -28.5t118 -9.5q54 0 100.5 7.5t78.5 21.5l25 11l6 -27q22 -89 -1 -124q-16 -25 -45.5 -39.5t-62 -21.5t-61.5 -9t-44 -2zM49 885q17 -23 68.5 -38t116.5 -15q64 0 112 14t62 36q2 4 5 17t-4 46q-35 -11 -78 -16.5t-93 -5.5
q-57 0 -108.5 8t-90.5 22q-4 -30 0.5 -45.5t9.5 -22.5zM1622 992q16 -93 -14 -135q-15 -20 -40 -33.5t-55.5 -22t-63.5 -12t-64 -3.5q-15 0 -44 2t-61 9t-61.5 21.5t-45.5 39.5q-23 35 -1 124l6 27l25 -11q32 -14 78 -21.5t100 -7.5q63 0 118 9.5t90 28.5l27 15zM1571 885
q5 7 9 22.5t0 45.5q-38 -14 -90 -22t-109 -8q-50 0 -92.5 5.5t-77.5 16.5q-7 -33 -4.5 -46t4.5 -17q15 -22 63 -36t111 -14q66 0 117.5 15t68.5 38zM1397 554q27 -35 41.5 -78t14.5 -89v-163q0 -25 -9.5 -47.5t-26 -39t-39 -26t-47.5 -9.5h-1042q-26 0 -48 9.5t-39 26
t-26.5 39t-9.5 47.5v163q0 46 14.5 89t42.5 78l290 373l1 68q0 20 14 33.5t34 13.5h49q20 0 34.5 -13.5t14.5 -33.5v-51l298 -2l2 53q1 20 15 33.5t34 13.5h49q20 0 34 -13.5t14 -33.5v-66zM1407 387q0 38 -12 73.5t-35 64.5l-290 374q-11 13 -11 30v66l-50 1l-2 -52
q-1 -20 -15 -33.5t-34 -13.5h-297q-20 0 -34.5 13.5t-14.5 33.5v51l-50 1l-2 -67q0 -19 -10 -30l-291 -374q-22 -29 -34 -64.5t-12 -73.5v-163q0 -31 22 -53t54 -22h1042q32 0 54 22t22 53v163zM648 491q20 0 33.5 -13t13.5 -32v-46q0 -18 -13.5 -31.5t-33.5 -13.5h-44
q-20 0 -32.5 13.5t-12.5 31.5v46q0 19 12.5 32t32.5 13h44zM658 446q0 8 -10 8h-44q-9 0 -9 -8v-46q0 -8 9 -8h44q10 0 10 8v46zM648 640q20 0 33.5 -13t13.5 -33v-44q0 -20 -13.5 -32.5t-33.5 -12.5h-44q-20 0 -32.5 12.5t-12.5 32.5v44q0 20 12.5 33t32.5 13h44zM658 594
q0 9 -10 9h-44q-9 0 -9 -9v-44q0 -8 9 -8h44q10 0 10 8v44zM648 789q20 0 33.5 -13.5t13.5 -30.5v-47q0 -19 -13.5 -32t-33.5 -13h-44q-20 0 -32.5 13t-12.5 32v47q0 17 12.5 30.5t32.5 13.5h44zM658 745q0 8 -10 8h-44q-9 0 -9 -8v-47q0 -8 9 -8h44q10 0 10 8v47zM822 491
q20 0 33.5 -13t13.5 -32v-46q0 -18 -13.5 -31.5t-33.5 -13.5h-45q-19 0 -32 13.5t-13 31.5v46q0 19 13 32t32 13h45zM832 446q0 3 -3.5 5.5t-6.5 2.5h-45q-8 0 -8 -8v-46q0 -8 8 -8h45q3 0 6.5 2.5t3.5 5.5v46zM822 640q20 0 33.5 -13t13.5 -33v-44q0 -20 -13.5 -32.5
t-33.5 -12.5h-45q-19 0 -32 12.5t-13 32.5v44q0 20 13 33t32 13h45zM832 594q0 4 -3.5 6.5t-6.5 2.5h-45q-8 0 -8 -9v-44q0 -8 8 -8h45q3 0 6.5 2t3.5 6v44zM822 789q20 0 33.5 -13.5t13.5 -30.5v-47q0 -19 -13.5 -32t-33.5 -13h-45q-19 0 -32 13t-13 32v47q0 17 13 30.5
t32 13.5h45zM832 745q0 3 -3.5 5.5t-6.5 2.5h-45q-8 0 -8 -8v-47q0 -8 8 -8h45q3 0 6.5 2.5t3.5 5.5v47zM996 491q19 0 33 -13t14 -32v-46q0 -18 -14 -31.5t-33 -13.5h-45q-20 0 -32.5 13.5t-12.5 31.5v46q0 19 12.5 32t32.5 13h45zM1006 446q0 8 -10 8h-45q-8 0 -8 -8v-46
q0 -8 8 -8h45q10 0 10 8v46zM996 640q19 0 33 -13t14 -33v-44q0 -20 -14 -32.5t-33 -12.5h-45q-20 0 -32.5 12.5t-12.5 32.5v44q0 20 12.5 33t32.5 13h45zM1006 594q0 9 -10 9h-45q-8 0 -8 -9v-44q0 -8 8 -8h45q10 0 10 8v44zM996 789q19 0 33 -13.5t14 -30.5v-47
q0 -19 -14 -32t-33 -13h-45q-20 0 -32.5 13t-12.5 32v47q0 17 12.5 30.5t32.5 13.5h45zM1006 745q0 8 -10 8h-45q-8 0 -8 -8v-47q0 -8 8 -8h45q10 0 10 8v47z" />
  </g>

</svg>
