<?xml version="1.0" standalone="no"?>
<!DOCTYPE svg PUBLIC "-//W3C//DTD SVG 1.1//EN" "http://www.w3.org/Graphics/SVG/1.1/DTD/svg11.dtd" >
<svg xmlns="http://www.w3.org/2000/svg" xmlns:xlink="http://www.w3.org/1999/xlink" version="1.1" viewBox="0 -410 2048 2048">
  <g transform="matrix(1 0 0 -1 0 1638)">
   <path fill="currentColor"
d="M1368 243q0 -12 -9 -21t-21 -9h-1056q-12 0 -21 9t-9 21v1056q0 13 9 21.5t21 8.5h748h2l8 -2l6 -4l4 -3l308 -305l8 -9v-6l2 -5v-752zM1056 1022l210 1l-208 207zM1308 273v692l-282 -2q-12 0 -22 9q-8 10 -8 20l4 278h-690v-997h998z" />
  </g>

</svg>
