<?xml version="1.0" standalone="no"?>
<!DOCTYPE svg PUBLIC "-//W3C//DTD SVG 1.1//EN" "http://www.w3.org/Graphics/SVG/1.1/DTD/svg11.dtd" >
<svg xmlns="http://www.w3.org/2000/svg" xmlns:xlink="http://www.w3.org/1999/xlink" version="1.1" viewBox="0 -410 2048 2048">
  <g transform="matrix(1 0 0 -1 0 1638)">
   <path fill="currentColor"
d="M173 540q0 307 216.5 523.5t523.5 216.5t523.5 -216.5t216.5 -523.5t-216.5 -523.5t-523.5 -216.5t-523.5 216.5t-216.5 523.5zM1091 508v-25q0 -347 -233 -347q-59 0 -112 27q-26 13 -31 92l-1 24h-85v-187q61 -18 123.5 -27.5t127.5 -9.5q186 0 295.5 137.5
t109.5 369.5q0 219 -97.5 342.5t-270.5 123.5q-146 0 -241.5 -94.5t-95.5 -240.5q0 -128 81.5 -211t206.5 -83q141 0 223 109zM1085 669q0 -169 -161 -169q-157 0 -157 228q0 219 142 219q176 0 176 -278z" />
  </g>

</svg>
