<?xml version="1.0" standalone="no"?>
<!DOCTYPE svg PUBLIC "-//W3C//DTD SVG 1.1//EN" "http://www.w3.org/Graphics/SVG/1.1/DTD/svg11.dtd" >
<svg xmlns="http://www.w3.org/2000/svg" xmlns:xlink="http://www.w3.org/1999/xlink" version="1.1" viewBox="0 -410 2048 2048">
  <g transform="matrix(1 0 0 -1 0 1638)">
   <path fill="currentColor"
d="M173 540q0 307 216.5 523.5t523.5 216.5t523.5 -216.5t216.5 -523.5t-216.5 -523.5t-523.5 -216.5t-523.5 216.5t-216.5 523.5zM272 540q0 -266 187.5 -453.5t453.5 -187.5t454 187.5t188 453.5t-188 454t-454 188t-453.5 -188t-187.5 -454zM629 84v76q55 157 164 256
l67 61q122 111 159.5 168.5t37.5 134.5q0 96 -43.5 143.5t-130.5 47.5q-71 0 -127 -33q-24 -15 -30 -121l-2 -27h-74v188q136 56 250 56q128 0 208.5 -71.5t80.5 -184.5q0 -152 -178 -271l-75 -50q-183 -122 -203 -243h452v-130h-556z" />
  </g>

</svg>
