<?xml version="1.0" standalone="no"?>
<!DOCTYPE svg PUBLIC "-//W3C//DTD SVG 1.1//EN" "http://www.w3.org/Graphics/SVG/1.1/DTD/svg11.dtd" >
<svg xmlns="http://www.w3.org/2000/svg" xmlns:xlink="http://www.w3.org/1999/xlink" version="1.1" viewBox="-2 -410 2048 2048">
  <g transform="matrix(1 0 0 -1 0 1638)">
   <path fill="currentColor"
d="M692 1265q-8 12 -4 25t16 20v1q12 7 25 3.5t19 -15.5q8 -12 4 -25t-16 -20v-1q-12 -7 -25 -3t-19 15zM1158 736q14 0 25 -11t11 -26t-11 -25.5t-25 -10.5h-402v-543v-1v-2q0 -14 -9 -23.5t-23 -9.5h-2h-2q-14 0 -25 10.5t-11 25.5v579q0 15 11 26t25 11l2 -1l2 1h434z
M248 425q6 -12 3 -25.5t-15 -19.5l-2 -1q-10 -7 -23 -3.5t-21 15.5v1q-8 12 -4 25t16 20q12 8 25 4t21 -16zM1258 1008q8 -12 4 -25t-16 -20t-25 -3.5t-21 15.5v1q-6 11 -3 24t15 20q12 8 25 4t21 -16zM1044 211q6 -12 3 -25t-15 -20t-25 -3.5t-21 15.5v1q-6 12 -3 24.5
t15 20.5q12 7 25 3t21 -15v-1zM448 1177q-12 -7 -25 -3.5t-21 15.5q-8 11 -4 24.5t16 20.5t25 3.5t21 -15.5q6 -11 3 -24t-15 -21zM448 224q12 -8 16 -21t-2 -24l-2 -1q-6 -12 -19 -15.5t-25 3.5h-2q-10 7 -14 20t2 25l2 1q6 12 19 15.5t25 -3.5zM998 1177q-12 7 -15 20
t3 25q8 12 21 15.5t25 -3.5t16 -20t-4 -25v-1q-6 -12 -20 -15.5t-26 4.5zM1244 437q12 -7 16 -20t-4 -25v-1q-6 -12 -19 -15t-25 3l-2 1q-12 6 -15 19.5t3 25.5h2q6 12 19 15.5t25 -3.5zM200 963q-12 7 -15 20t3 25v1q8 11 21 15t25 -3v-1q12 -7 16 -20t-4 -25
q-6 -12 -19 -15.5t-25 3.5h-2zM1306 733q14 0 24 -9.5t10 -23.5v-1q0 -14 -10 -23.5t-24 -9.5t-23 9.5t-9 23.5v1q0 14 9 23.5t23 9.5zM140 733q14 0 23 -9.5t9 -23.5v-1q0 -14 -9 -23.5t-23 -9.5h-2q-14 0 -23 9.5t-9 23.5v1q0 14 9 23.5t23 9.5h2zM1184 239
q97 97 144.5 209.5t47.5 250.5q0 139 -47.5 251.5t-144.5 209.5q-98 98 -210.5 144.5t-249.5 46.5q-139 0 -252 -47t-210 -144q-98 -98 -144 -210t-46 -251q0 -138 46 -250.5t144 -210.5q97 -97 210 -143.5t252 -46.5q137 0 249.5 46.5t210.5 144.5zM1236 1211
q212 -212 212 -512q0 -299 -212 -511q-212 -213 -512 -213q-302 0 -514 212t-212 512t212 512q214 213 514 213q297 0 512 -213z" />
  </g>

</svg>
