<?xml version="1.0" standalone="no"?>
<!DOCTYPE svg PUBLIC "-//W3C//DTD SVG 1.1//EN" "http://www.w3.org/Graphics/SVG/1.1/DTD/svg11.dtd" >
<svg xmlns="http://www.w3.org/2000/svg" xmlns:xlink="http://www.w3.org/1999/xlink" version="1.1" viewBox="0 -410 2048 2048">
  <g transform="matrix(1 0 0 -1 0 1638)">
   <path fill="currentColor"
d="M1673 647q-4 -26 -19.5 -60.5t-47.5 -59.5q26 -21 38 -53t5 -70q-5 -34 -25 -59.5t-48 -39.5q22 -42 13 -95q-6 -38 -29.5 -65.5t-55.5 -39.5q8 -20 10.5 -39.5t-1.5 -33.5q-7 -24 -20.5 -45t-31.5 -36t-39.5 -23t-44.5 -6l-16 1l-139 9l-242 -3h-15q-138 -1 -221 31.5
t-117 98.5q-48 2 -87.5 18t-68.5 45q-30 30 -45.5 71.5t-13.5 89.5l10 262q1 45 18 85t45 70.5t65 50t79 22.5q32 55 93.5 94t161.5 67q30 9 60 34t57.5 61.5t52.5 80t46.5 89t39 89.5t29.5 80q10 30 30.5 53t47.5 36q53 23 105 2q24 -11 41.5 -29t27.5 -41.5t11.5 -49.5
t-6.5 -53q-18 -56 -38.5 -115.5t-43.5 -115.5t-47.5 -104.5t-49.5 -82.5q48 -8 105 -18.5t110 -22.5t95.5 -25t60.5 -25l4 -3l1 -1q21 -14 32 -33t15.5 -37t4 -33.5t-1.5 -22.5zM1588 415q5 29 -8.5 50.5t-39.5 26.5l-28 5l-4 1l-5 3l-5 3l-4 4l-4 5l-2 5l-1 7l-1 3l1 3
l-1 3l2 3l2 6l3 4l5 5l4 3l6 2l6 2h3q29 0 47.5 14.5t29 32.5t14 33t3.5 17q1 5 1 14t-2 18.5t-7.5 19t-16.5 15.5l-3 2l-2 2q-10 7 -50 18t-97 23t-124.5 24.5t-132.5 22.5q-21 3 -26 25q-3 22 14 33q19 12 42.5 47.5t49.5 91t53.5 129.5t55.5 163q9 31 -2 58.5t-37 38.5
q-27 11 -54 -1q-33 -16 -45 -52q-6 -18 -20 -56.5t-35.5 -87t-50 -102t-63 -100t-74.5 -82t-84 -47.5q-93 -26 -147 -60.5t-78 -83.5q-10 -18 -29 -18l-3 1q-32 0 -60.5 -13.5t-50 -36.5t-34.5 -54t-14 -65l-10 -262q-2 -35 9 -64.5t31 -50.5q48 -48 131 -45h1q17 0 27 -16
l2 -3l1 -1q40 -112 302 -109l244 3l1 -1l1 1l143 -9q28 -2 52 15.5t32 46.5q1 4 0 12t-3.5 16.5t-6.5 16.5t-10 13l-2 2l-4 5l-2 6l-2 5v7l-1 3l1 2l2 6l3 6l1 2l2 1l7 6l3 1l8 2l5 1h4q24 -3 44.5 14t25.5 45q4 22 -1.5 44.5t-24.5 30.5l-2 1l-5 4l-5 4l-3 4l-3 6l-1 5
l-1 7v2l2 4v3l1 2l5 7l2 3l7 5l3 1l8 2h5h3q24 -3 45 14t26 46z" />
  </g>

</svg>
