<?xml version="1.0" standalone="no"?>
<!DOCTYPE svg PUBLIC "-//W3C//DTD SVG 1.1//EN" "http://www.w3.org/Graphics/SVG/1.1/DTD/svg11.dtd" >
<svg xmlns="http://www.w3.org/2000/svg" xmlns:xlink="http://www.w3.org/1999/xlink" version="1.1" viewBox="0 -410 2088 2048">
  <g transform="matrix(1 0 0 -1 0 1638)">
   <path fill="currentColor"
d="M1990 1400q40 0 69 -28t29 -69v-1206q0 -41 -29 -69.5t-69 -28.5h-1826q-40 0 -69 28.5t-29 69.5v1206q0 41 29 69t69 28h1826zM164 1334q-14 0 -23 -8.5t-9 -22.5v-165h1890v165q0 14 -9 22.5t-23 8.5h-1826zM1990 64q14 0 23 9.5t9 23.5v975h-1890v-975q0 -14 9 -23.5
t23 -9.5h1826zM1458 1174q-10 0 -17 8t-7 19v94q0 11 7 19t17 8h96q12 0 19 -8t7 -19v-94q0 -11 -7 -19t-19 -8h-96zM1650 1174q-12 0 -19 8t-7 19v94q0 11 7 19t19 8h96q10 0 17 -8t7 -19v-94q0 -11 -7 -19t-17 -8h-96zM1840 1174q-10 0 -18 8t-8 19v94q0 11 8 19t18 8h96
q10 0 18 -8t8 -19v-94q0 -11 -8 -19t-18 -8h-96zM1772 290q8 -11 8 -19q0 -11 -8 -18l-50 -51q-8 -8 -18 -8q-12 0 -20 8l-116 117l-24 -24q-8 -8 -18 -8h-6q-16 5 -20 18l-66 203q-6 15 6 25q10 13 26 8l202 -68q14 -4 18 -19q4 -14 -6 -24l-24 -24z" />
  </g>

</svg>
