<?xml version="1.0" standalone="no"?>
<!DOCTYPE svg PUBLIC "-//W3C//DTD SVG 1.1//EN" "http://www.w3.org/Graphics/SVG/1.1/DTD/svg11.dtd" >
<svg xmlns="http://www.w3.org/2000/svg" xmlns:xlink="http://www.w3.org/1999/xlink" version="1.1" viewBox="0 -410 2048 2048">
  <g transform="matrix(1 0 0 -1 0 1638)">
   <path fill="currentColor"
d="M568 285v-285h-100v285l-246 -143l-50 86l248 142l-248 142l50 86l246 -143v285h100v-285l246 143l50 -86l-248 -142l248 -142l-50 -86zM1356 285v-285h-98v285l-246 -143l-50 86l246 142l-246 142l50 86l246 -143v285h98v-285l248 143l48 -86l-246 -142l246 -142
l-48 -86zM962 1025v-285h-98v285l-248 -143l-48 86l246 142l-246 142l48 86l248 -142v284h98v-284l246 142l50 -86l-246 -142l246 -142l-50 -86z" />
  </g>

</svg>
