<?xml version="1.0" standalone="no"?>
<!DOCTYPE svg PUBLIC "-//W3C//DTD SVG 1.1//EN" "http://www.w3.org/Graphics/SVG/1.1/DTD/svg11.dtd" >
<svg xmlns="http://www.w3.org/2000/svg" xmlns:xlink="http://www.w3.org/1999/xlink" version="1.1" viewBox="-6 -410 2048 2048">
  <g transform="matrix(1 0 0 -1 0 1638)">
   <path fill="currentColor"
d="M735 1253q-12 -7 -25 -3t-20 15q-7 12 -3.5 25t15.5 20l1 1q11 7 24 3.5t20 -15.5q8 -12 4 -25t-16 -20v-1zM719 1174q15 0 25.5 -10.5t10.5 -25.5v-438v-1v-579q0 -11 -6.5 -20t-16.5 -14q-10 -2 -13 -2h-1q-3 0 -13 2q-10 5 -16.5 14t-6.5 20v579v1v438q0 15 11 25.5
t26 10.5zM243 425q7 -12 3.5 -25t-15.5 -20l-1 -1q-11 -7 -24.5 -3t-20.5 15v1q-7 12 -3.5 25t15.5 20h1q12 7 25 3.5t20 -15.5zM1253 1008q8 -12 4 -25t-15 -20q-12 -7 -25 -3.5t-21 15.5v1q-7 11 -3.5 24t15.5 20q12 8 25 4t20 -16zM1039 211q7 -12 3.5 -25t-15.5 -20
t-25 -3.5t-20 15.5v1q-7 12 -3.5 24.5t15.5 20.5q11 7 24.5 3.5t20.5 -15.5v-1zM443 1177q-12 -7 -25 -3.5t-20 15.5q-8 11 -4 24.5t16 20.5t25 3.5t20 -15.5q7 -11 3.5 -24.5t-15.5 -20.5zM444 224q12 -8 16 -21t-3 -24l-1 -1q-7 -12 -20 -15.5t-25 3.5h-1q-11 7 -15 20
t3 25l1 1q7 12 20 15.5t25 -3.5zM1028 1234q12 -7 15.5 -20t-3.5 -25v-1q-7 -12 -20.5 -15.5t-25.5 4.5h-1q-11 7 -14.5 20t3.5 25t20 15.5t25 -3.5h1zM1240 437q12 -7 15.5 -20t-3.5 -25v-1q-7 -11 -20 -15t-25 3l-1 1q-11 7 -15 20t3 25h1q7 12 20 15.5t25 -3.5zM196 963
q-12 7 -15.5 20t3.5 25v1q8 11 21 15t24 -3l1 -1q12 -7 15.5 -20t-3.5 -25t-20 -15.5t-25 3.5h-1zM1302 733q14 0 23.5 -9.5t9.5 -23.5v-1q0 -14 -9.5 -23.5t-23.5 -9.5t-23.5 9.5t-9.5 23.5v1q0 14 9.5 23.5t23.5 9.5zM135 733q14 0 23.5 -9.5t9.5 -23.5v-1
q0 -14 -9.5 -23.5t-23.5 -9.5h-1q-14 0 -23.5 9.5t-9.5 23.5v1q0 14 9.5 23.5t23.5 9.5h1zM1179 239q97 97 144.5 210t47.5 251t-47.5 250.5t-144.5 209.5t-209.5 144t-250.5 47t-251.5 -47t-210.5 -144t-143.5 -209.5t-46.5 -250.5t46.5 -251.5t143.5 -210.5t210.5 -143.5
t251.5 -46.5t250.5 47t209.5 144zM1231 1211q212 -212 212 -511t-212 -512t-512 -213q-301 0 -513 212t-212 513q0 299 212 511q213 213 513 213q299 0 512 -213z" />
  </g>

</svg>
