<?xml version="1.0" standalone="no"?>
<!DOCTYPE svg PUBLIC "-//W3C//DTD SVG 1.1//EN" "http://www.w3.org/Graphics/SVG/1.1/DTD/svg11.dtd" >
<svg xmlns="http://www.w3.org/2000/svg" xmlns:xlink="http://www.w3.org/1999/xlink" version="1.1" viewBox="0 -410 2048 2048">
  <g transform="matrix(1 0 0 -1 0 1638)">
   <path fill="currentColor"
d="M335 966q-42 36 -62.5 46t-26.5 10q-20 0 -25.5 -6t-5.5 -19q0 -7 2 -14.5t8 -13.5t17.5 -9.5t30.5 -3.5q14 0 29.5 2.5t32.5 7.5zM1347 1112q140 -95 140 -228q0 -88 -78 -139q-33 -21 -75.5 -34.5t-93.5 -13.5q-19 0 -30 16q-10 16 -1 33q19 32 19 81q0 108 -87 180
q-90 73 -224 73q-125 0 -283 -76l35 -37q54 -57 94 -92.5t68.5 -55.5t46.5 -27t29 -7q48 0 48 45q0 14 -3 25.5t-19 27.5q-15 15 -45 15q-9 0 -19.5 -1t-26.5 -4h-6q-19 0 -28 15q-10 17 -1 33q20 41 52.5 63.5t74.5 25.5q36 3 61.5 -6.5t43 -26.5t26.5 -39t12 -43
q8 -66 -9.5 -114.5t-65.5 -91.5q-74 -68 -183 -68q-85 0 -176 50t-187 152l-38 42q-92 -39 -162 -39q-59 0 -102.5 30.5t-60.5 82.5q-18 57 -6 107.5t54 90.5q58 55 148 55q124 0 266 -133q30 23 64 54t70 70l35 37q103 111 195 165t172 54q47 0 76.5 -10.5t46 -27t22.5 -36
t6 -38.5q0 -99 -129 -126q-11 -2 -20 2t-15 12q-10 15 -3 30q10 27 1 36q-5 8 -14 9t-14 1q-3 0 -6.5 -0.5t-6.5 -0.5q-98 -15 -224 -135q105 31 211 31q186 0 325 -94z" />
  </g>

</svg>
