<?xml version="1.0" standalone="no"?>
<!DOCTYPE svg PUBLIC "-//W3C//DTD SVG 1.1//EN" "http://www.w3.org/Graphics/SVG/1.1/DTD/svg11.dtd" >
<svg xmlns="http://www.w3.org/2000/svg" xmlns:xlink="http://www.w3.org/1999/xlink" version="1.1" viewBox="0 -410 2048 2048">
  <g transform="matrix(1 0 0 -1 0 1638)">
   <path fill="currentColor"
d="M1355 1002q0 7 -2 14.5t-8 13.5t-17.5 9.5t-30.5 3.5q-14 0 -29.5 -2.5t-32.5 -7.5q21 -18 36 -29t25.5 -17t17 -8t10.5 -2q20 0 25.5 6t5.5 19zM1477 1040q18 -57 6 -107.5t-54 -90.5q-29 -29 -66 -42t-82 -13q-124 0 -266 133q-30 -23 -64 -54t-70 -70l-35 -37
q-204 -219 -367 -219q-47 0 -76.5 10.5t-46 27t-22.5 36t-6 38.5q0 99 129 126q11 2 20 -2t15 -12q10 -15 3 -30q-10 -27 -1 -36q5 -8 14 -9t14 -1q3 0 6.5 0.5t6.5 0.5q98 15 224 135q-105 -31 -211 -31q-187 0 -325 94q-140 95 -140 228q0 88 78 139q33 21 75.5 34.5
t93.5 13.5q21 0 30 -15q9 -17 1 -34q-9 -17 -14 -37t-5 -44q0 -108 87 -180q90 -73 224 -73q125 0 283 76l-35 37q-54 57 -94 92.5t-68.5 55.5t-46.5 27t-29 7q-48 0 -48 -45q0 -14 3 -25.5t19 -27.5q15 -15 45 -15q9 0 19.5 1t26.5 4h6q19 0 28 -15q9 -17 1 -33
q-42 -83 -127 -89q-36 -3 -61.5 7t-43 26.5t-26.5 38.5t-12 43q-8 66 9.5 114.5t65.5 91.5q74 68 183 68q85 0 176 -50t187 -152l38 -42q91 39 162 39q59 0 102.5 -30.5t60.5 -82.5z" />
  </g>

</svg>
