<?xml version="1.0" standalone="no"?>
<!DOCTYPE svg PUBLIC "-//W3C//DTD SVG 1.1//EN" "http://www.w3.org/Graphics/SVG/1.1/DTD/svg11.dtd" >
<svg xmlns="http://www.w3.org/2000/svg" xmlns:xlink="http://www.w3.org/1999/xlink" version="1.1" viewBox="0 -410 2048 2048">
  <g transform="matrix(1 0 0 -1 0 1638)">
   <path fill="currentColor"
d="M335 1032q-35 11 -62 11q-19 0 -30.5 -3.5t-17.5 -9.5t-8 -13.5t-2 -14.5q0 -13 5.5 -19t25.5 -6q7 0 27.5 9.5t61.5 45.5zM1409 1254q78 -51 78 -139q0 -133 -140 -228q-139 -94 -325 -94q-106 0 -211 31q126 -120 224 -135q3 0 6.5 -0.5t6.5 -0.5q5 0 14 1t14 9
q9 9 -1 36q-7 15 3 30q6 8 15 12t20 2q129 -27 129 -126q0 -19 -6 -38.5t-22.5 -36t-46 -27t-76.5 -10.5q-164 0 -367 219l-35 37q-35 38 -69 69.5t-65 55.5q-143 -134 -266 -134q-90 0 -148 55q-42 40 -54 90.5t6 107.5q17 52 60.5 82.5t102.5 30.5q70 0 162 -39l38 42
q96 102 187 152t176 50q109 0 183 -68q48 -43 65.5 -91.5t9.5 -114.5q-3 -21 -12 -43t-26.5 -39t-43 -26.5t-61.5 -6.5q-42 3 -74.5 25.5t-52.5 63.5q-9 16 1 33q9 15 28 15h6q16 -3 26.5 -4t19.5 -1q30 0 45 15q16 16 19 27.5t3 25.5q0 45 -48 45q-11 0 -28.5 -7.5
t-46 -27.5t-68.5 -55.5t-95 -91.5l-35 -36q155 -77 283 -77q134 0 224 73q87 72 87 180q0 49 -19 81q-8 16 1 33q11 17 28 16q105 -6 171 -48z" />
  </g>

</svg>
