<?xml version="1.0" standalone="no"?>
<!DOCTYPE svg PUBLIC "-//W3C//DTD SVG 1.1//EN" "http://www.w3.org/Graphics/SVG/1.1/DTD/svg11.dtd" >
<svg xmlns="http://www.w3.org/2000/svg" xmlns:xlink="http://www.w3.org/1999/xlink" version="1.1" viewBox="0 -410 2048 2048">
  <g transform="matrix(1 0 0 -1 0 1638)">
   <path fill="currentColor"
d="M1355 997q0 13 -5.5 19t-25.5 6q-7 0 -27.5 -9.5t-61.5 -45.5q35 -11 62 -11q19 0 30.5 3.5t17.5 9.5t8 13.5t2 14.5zM1429 1157q42 -40 54 -90.5t-6 -107.5q-17 -52 -60.5 -82.5t-102.5 -30.5q-71 0 -162 39l-38 -42q-96 -102 -187 -152t-176 -50q-109 0 -183 68
q-48 43 -65.5 91.5t-9.5 114.5q3 21 12 43t26.5 39t43 26.5t61.5 6.5q42 -3 74.5 -25.5t52.5 -63.5q8 -16 -1 -33q-9 -15 -28 -15h-6q-16 3 -26.5 4t-19.5 1q-30 0 -45 -15q-16 -16 -19 -27.5t-3 -25.5q0 -45 48 -45q10 0 28 7.5t46.5 27.5t68.5 55.5t95 91.5l35 36
q-155 77 -283 77q-134 0 -224 -73q-87 -72 -87 -180q0 -49 19 -81q8 -16 -1 -33q-11 -17 -28 -16q-105 6 -171 48q-78 51 -78 139q0 133 140 228q139 94 325 94q106 0 211 -31q-126 120 -224 135q-3 0 -6.5 0.5t-6.5 0.5q-5 0 -14 -1t-14 -9q-9 -9 1 -36q7 -15 -3 -30
q-6 -8 -15 -12t-20 -2q-129 27 -129 126q0 19 6 38.5t22.5 36t46 27t76.5 10.5q164 0 367 -219l35 -37q35 -38 69 -69.5t65 -55.5q143 134 266 134q90 0 148 -55z" />
  </g>

</svg>
