<?xml version="1.0" standalone="no"?>
<!DOCTYPE svg PUBLIC "-//W3C//DTD SVG 1.1//EN" "http://www.w3.org/Graphics/SVG/1.1/DTD/svg11.dtd" >
<svg xmlns="http://www.w3.org/2000/svg" xmlns:xlink="http://www.w3.org/1999/xlink" version="1.1" viewBox="0 -410 2048 2048">
  <g transform="matrix(1 0 0 -1 0 1638)">
   <path fill="currentColor"
d="M1482 1395q17 0 32 -6.5t26.5 -18t18 -26.5t6.5 -33v-972q0 -18 -6.5 -33t-18 -26.5t-26.5 -18t-32 -6.5h-503v-200h297q11 0 19.5 -8.5t8.5 -20.5q0 -11 -8.5 -19.5t-19.5 -8.5h-871q-12 0 -20 8.5t-8 19.5q0 12 8 20.5t20 8.5h239v200h-503q-17 0 -32.5 6.5t-26.5 18
t-17.5 26.5t-6.5 33v972q0 18 6.5 33t17.5 26.5t26.5 18t32.5 6.5h1341zM141 1338q-11 0 -19.5 -7.5t-8.5 -19.5v-768h1397v768q0 12 -8.5 19.5t-19.5 7.5h-1341zM923 255h-223v-200h223v200zM1482 310q11 0 19.5 8.5t8.5 20.5v149h-1397v-149q0 -12 8.5 -20.5t19.5 -8.5
h1341z" />
  </g>

</svg>
