<?xml version="1.0" standalone="no"?>
<!DOCTYPE svg PUBLIC "-//W3C//DTD SVG 1.1//EN" "http://www.w3.org/Graphics/SVG/1.1/DTD/svg11.dtd" >
<svg xmlns="http://www.w3.org/2000/svg" xmlns:xlink="http://www.w3.org/1999/xlink" version="1.1" viewBox="0 -410 2048 2048">
  <g transform="matrix(1 0 0 -1 0 1638)">
   <path fill="currentColor"
d="M1389 600l-5 -14l-1 -4q-16 -38 -37 -85.5t-44 -98t-46.5 -101t-44 -95.5t-37.5 -80.5t-27 -56.5q-16 -32 -51 -37q-23 -3 -62 -8t-86 -9t-97 -5t-96 3l-16 1l-3 18v5q-7 43 0 96.5t24.5 105t44.5 95t60 68.5l12 9l13 -9q8 -6 15 -12t15 -11q10 -8 24 -5.5t19 16.5
l237 651q5 15 -4 26t-22 11q-9 0 -18.5 0.5t-19.5 0.5l-15 1l-4 15q-9 40 -1.5 91t27 101.5t48.5 96t62 74.5l4 4l12 11l14 -9q38 -25 76 -58t71 -66.5t59.5 -62.5t42.5 -47q11 -13 15 -29t0 -32q-6 -23 -15.5 -61t-22.5 -86t-27.5 -101.5t-29.5 -107t-29.5 -103
t-26.5 -88.5l-2 -5zM940 1136q-15 20 -19 47.5t-1.5 56t9 53.5t11.5 41q10 31 25 63t33.5 59t39.5 46t44 26q46 14 125 -31l24 -15l-21 -19q-27 -24 -52.5 -67t-45 -92.5t-30 -99.5t-7.5 -87l2 -25l-25 3q-44 5 -71 15q-27 8 -41 26zM816 405q-26 -27 -50 -71.5t-41 -95
t-25 -100t-3 -85.5l4 -28l-28 5q-30 4 -56 14q-42 15 -60 42q-13 20 -17 48.5t-0.5 61t12.5 66.5t21 64q6 15 17.5 38.5t27.5 46.5t36.5 41.5t45.5 24.5q39 9 113 -40l21 -14z" />
  </g>

</svg>
