<?xml version="1.0" standalone="no"?>
<!DOCTYPE svg PUBLIC "-//W3C//DTD SVG 1.1//EN" "http://www.w3.org/Graphics/SVG/1.1/DTD/svg11.dtd" >
<svg xmlns="http://www.w3.org/2000/svg" xmlns:xlink="http://www.w3.org/1999/xlink" version="1.1" viewBox="0 -410 2048 2048">
  <g transform="matrix(1 0 0 -1 0 1638)">
   <path fill="currentColor"
d="M173 540q0 307 216.5 523.5t523.5 216.5t523.5 -216.5t216.5 -523.5t-216.5 -523.5t-523.5 -216.5t-523.5 216.5t-216.5 523.5zM272 540q0 -266 187.5 -453.5t453.5 -187.5t454 187.5t188 453.5t-188 454t-454 188t-453.5 -188t-187.5 -454zM774 1007v-765
q0 -71 17.5 -91t75.5 -17h16v-63h-351v63h25q74 3 83.5 14t9.5 94v572q0 81 -10.5 92.5t-82.5 15.5h-25v62zM1142 49q-125 0 -201 133t-76 353q0 221 76 354t203 133q124 0 199.5 -133.5t75.5 -353.5t-76 -353t-201 -133zM1142 111q73 0 109 106.5t36 318.5t-36.5 317.5
t-110.5 105.5q-71 0 -107 -106t-36 -318t36.5 -318t108.5 -106z" />
  </g>

</svg>
