<?xml version="1.0" standalone="no"?>
<!DOCTYPE svg PUBLIC "-//W3C//DTD SVG 1.1//EN" "http://www.w3.org/Graphics/SVG/1.1/DTD/svg11.dtd" >
<svg xmlns="http://www.w3.org/2000/svg" xmlns:xlink="http://www.w3.org/1999/xlink" version="1.1" viewBox="0 -410 2091 2048">
  <g transform="matrix(1 0 0 -1 0 1638)">
   <path fill="currentColor"
d="M2078 1390q23 -56 5 -135q-20 -81 -73 -138t-139 -95q-50 -19 -111 -27q-53 -7 -124 -4.5t-157 27.5l-396 -1014l-135 -5q11 23 36 85q10 26 25 63.5t34.5 87.5t44 115t54.5 147l51 138q-42 -71 -98 -136.5t-120.5 -122t-134 -104t-138.5 -82.5q-54 -26 -115 -44
q-52 -16 -117.5 -27.5t-134.5 -6.5q-57 4 -100 23.5t-73.5 49t-50 65.5t-31 72.5t-16 70t-4.5 58.5q0 67 6.5 139.5t25 146t50.5 146.5t83 142t107.5 119t114 80.5t113.5 42t105 3.5q31 -6 56.5 -19.5t43.5 -31.5t29 -38.5t14 -41.5q14 11 29 19.5t32 17.5q36 18 75 29
t81.5 14t90 -2.5t101.5 -21.5l400 -120q149 -44 237.5 -13t111.5 124q16 64 -15 132zM341 996q-83 -122 -105 -305q6 -2 26.5 -1t50 4.5t64 10t68 16t62.5 21.5t47 27q110 89 110 210q0 138 -140 138q-101 0 -183 -121zM1348 1051l-139 35q-56 14 -112.5 20t-109.5 3
t-100.5 -14.5t-84.5 -31.5q-14 -73 -51.5 -144.5t-109.5 -141.5q-42 -41 -97 -71t-112 -49.5t-111.5 -29t-95.5 -9.5q-8 -57 -1.5 -120.5t33 -116.5t75 -88t125.5 -35q129 0 224 29t167 75t126 101t100 106q33 39 70 89q31 43 70 104t77 136z" />
  </g>

</svg>
