<?xml version="1.0" standalone="no"?>
<!DOCTYPE svg PUBLIC "-//W3C//DTD SVG 1.1//EN" "http://www.w3.org/Graphics/SVG/1.1/DTD/svg11.dtd" >
<svg xmlns="http://www.w3.org/2000/svg" xmlns:xlink="http://www.w3.org/1999/xlink" version="1.1" viewBox="0 -410 2372 2048">
  <g transform="matrix(1 0 0 -1 0 1638)">
   <path fill="currentColor"
d="M2322 515q50 -65 50 -169q0 -228 -192 -363q-194 -135 -515 -135q-80 0 -151 18t-131.5 48.5t-111 72t-88.5 89.5q-248 -190 -527 -190q-189 0 -307 112t-118 293q0 347 493 575q-76 192 -76 310q0 177 121 294q120 117 305 117q267 0 267 -236q0 -218 -429 -455
q14 -31 16 -34l32 -65q21 -42 36 -70.5t25 -46.5q91 95 229.5 144t327.5 49h164l86 -3q106 -4 180.5 8.5t119.5 38.5q90 52 90 175q0 69 -71 142l133 131q25 -33 37.5 -77.5t12.5 -96.5q0 -114 -48 -208t-145 -162t-225 -110t-290 -42h-21q-15 -51 -40.5 -112.5t-61.5 -126
t-82 -129t-102 -120.5q60 -84 169 -128t272 -62q29 -4 48 -5.5t31 -2.5q14 -1 23 -1q52 -5 99.5 2.5t87 21t71.5 29.5t55 29q89 51 89 174q0 73 -70 144zM982 1515q-182 0 -182 -226q0 -62 23.5 -149t71.5 -202q280 166 280 376q0 82 -57 141q-57 60 -136 60zM827 -9
q161 0 324 125l-29 40q-99 136 -184.5 291t-163.5 329l-20 45q-312 -152 -312 -454q0 -164 109 -270t276 -106zM1150 450q45 -77 77.5 -137.5t52.5 -88.5q81 116 125 229.5t54 215.5h-35q-129 0 -223.5 -8t-156.5 -41q11 -20 17 -23.5t8 -6.5z" />
  </g>

</svg>
