<?xml version="1.0" standalone="no"?>
<!DOCTYPE svg PUBLIC "-//W3C//DTD SVG 1.1//EN" "http://www.w3.org/Graphics/SVG/1.1/DTD/svg11.dtd" >
<svg xmlns="http://www.w3.org/2000/svg" xmlns:xlink="http://www.w3.org/1999/xlink" version="1.1" viewBox="-2 -410 2183 2048">
  <g transform="matrix(1 0 0 -1 0 1638)">
   <path fill="currentColor"
d="M98 948q-22 -14 -47.5 -8.5t-40.5 26.5q-15 23 -10 49.5t28 40.5l578 386q12 8 27 9.5t29 -2.5q14 -5 24.5 -16t14.5 -26l103 -304l507 339q13 8 27.5 9.5t28.5 -2.5q29 -10 42 -42l99 -300l442 333q13 8 28 11t30 -2t26 -16t15 -26l130 -385q8 -24 -3.5 -47.5
t-37.5 -33.5q-12 -3 -20 -3q-20 0 -37 12.5t-24 32.5l-101 300l-441 -331q-14 -10 -29 -12.5t-29 1.5q-32 11 -43 42l-101 306l-507 -341q-27 -15 -58 -7q-27 11 -40 42l-102 306zM2179 252q8 -25 -3.5 -48.5t-37.5 -32.5q-6 -2 -10.5 -2h-9.5q-20 0 -37 11.5t-24 31.5
l-101 301l-441 -331q-29 -21 -58 -11q-15 5 -26.5 15.5t-16.5 25.5l-101 306l-507 -338q-26 -19 -58 -9q-28 11 -40 41l-102 306l-508 -338q-22 -15 -47.5 -10.5t-40.5 26.5q-15 23 -10 49t28 41l578 385q12 8 27 10t29 -3t24.5 -15.5t14.5 -25.5l103 -304l507 338
q13 8 27.5 10t28.5 -3q30 -10 42 -41l99 -301l442 333q13 10 28 12.5t30 -3.5q15 -4 26 -15t15 -26z" />
  </g>

</svg>
