<?xml version="1.0" standalone="no"?>
<!DOCTYPE svg PUBLIC "-//W3C//DTD SVG 1.1//EN" "http://www.w3.org/Graphics/SVG/1.1/DTD/svg11.dtd" >
<svg xmlns="http://www.w3.org/2000/svg" xmlns:xlink="http://www.w3.org/1999/xlink" version="1.1" viewBox="0 -410 2048 2048">
  <g transform="matrix(1 0 0 -1 0 1638)">
   <path fill="currentColor"
d="M7 486l573 481q9 8 19.5 3t10.5 -17v-218q0 -8 5 -13t13 -5h219q8 0 13 5t5 13v667q0 12 10.5 17.5t19.5 -2.5l250 -211q12 -9 24 0l250 211q9 8 19.5 2.5t10.5 -17.5v-398q0 -152 -32 -216q-30 -64 -157 -171l-314 -263q-92 -77 -153 -102q-59 -25 -154 -25h-29v-236
q0 -12 -10.5 -17.5t-19.5 2.5l-573 481q-7 6 -7 15t7 14zM150 457l332 -279q9 -8 19.5 -3t10.5 17v98q0 8 5 13.5t13 5.5h80q40 0 72 4t58 12q49 16 102 60l257 217q10 8 6 20.5t-17 12.5l-558 1q-8 0 -13 5t-5 13v98q0 12 -10.5 17t-19.5 -3l-332 -280q-7 -5 -7 -14t7 -15z
M963 1208v-473q0 -8 5 -13t13 -5h60q173 0 241 49q70 51 70 174v269q0 11 -10.5 16.5t-19.5 -2.5l-153 -129q-12 -10 -24 0l-152 129q-9 8 -19.5 2.5t-10.5 -17.5z" />
  </g>

</svg>
