<?xml version="1.0" standalone="no"?>
<!DOCTYPE svg PUBLIC "-//W3C//DTD SVG 1.1//EN" "http://www.w3.org/Graphics/SVG/1.1/DTD/svg11.dtd" >
<svg xmlns="http://www.w3.org/2000/svg" xmlns:xlink="http://www.w3.org/1999/xlink" version="1.1" viewBox="-1 -410 2048 2048">
  <g transform="matrix(1 0 0 -1 0 1638)">
   <path fill="currentColor"
d="M964 1414l481 -573q8 -9 2.5 -19.5t-17.5 -10.5h-236v-29q0 -95 -25 -154q-26 -62 -102 -153l-263 -314q-107 -127 -171 -157q-64 -32 -216 -32h-398q-12 0 -17.5 10.5t2.5 19.5l211 250q9 12 0 24l-211 250q-8 9 -2.5 19.5t17.5 10.5h667q8 0 13 5t5 13v219q0 8 -5 13
t-13 5h-218q-12 0 -17 10.5t3 19.5l481 573q5 7 14 7t15 -7zM935 1271l-280 -332q-8 -9 -3 -19.5t17 -10.5h98q8 0 13 -5t5 -13l1 -558q0 -13 12.5 -17t20.5 6l217 257q43 52 60 102q8 26 12 58t4 72v80q0 8 5.5 13t13.5 5h98q12 0 17 10.5t-3 19.5l-279 332q-6 7 -15 7
t-14 -7zM198 428l129 -152q10 -12 0 -24l-129 -153q-8 -9 -2.5 -19.5t16.5 -10.5h269q123 0 174 70q49 68 49 241v60q0 8 -5 13t-13 5h-473q-12 0 -17.5 -10.5t2.5 -19.5z" />
  </g>

</svg>
