<?xml version="1.0" standalone="no"?>
<!DOCTYPE svg PUBLIC "-//W3C//DTD SVG 1.1//EN" "http://www.w3.org/Graphics/SVG/1.1/DTD/svg11.dtd" >
<svg xmlns="http://www.w3.org/2000/svg" xmlns:xlink="http://www.w3.org/1999/xlink" version="1.1" viewBox="0 -410 2048 2048">
  <g transform="matrix(1 0 0 -1 0 1638)">
   <path fill="currentColor"
d="M1774 1229.21l-572.755 -480.795q-8.99609 -7.99609 -19.4922 -2.99902q-10.4951 4.99805 -10.4951 16.9932v217.907q0 7.99609 -4.99805 12.9941t-12.9941 4.99805h-218.906q-7.99707 0 -12.9951 -4.99805t-4.99805 -12.9941v-666.716q0 -11.9941 -10.4951 -17.4922
t-19.4912 2.49902l-249.894 210.91q-11.9951 8.99609 -23.9902 0l-249.893 -210.91q-8.99609 -7.99707 -19.4922 -2.49902q-10.4951 5.49805 -10.4951 17.4922v397.83q0 151.936 31.9863 215.908q29.9873 63.9727 156.933 170.927l313.866 262.888
q91.9609 76.9668 152.935 101.956q58.9746 24.9893 153.935 24.9893h28.9873v235.899q0 11.9951 10.4951 17.4922q10.4961 5.49805 19.4922 -2.49805l572.755 -480.795q6.99707 -5.99707 6.99707 -14.9941q0 -8.99609 -6.99707 -13.9932zM1631.06 1258.2l-331.858 278.881
q-8.99609 7.99609 -19.4922 2.99902q-10.4951 -4.99805 -10.4951 -16.9932v-97.958q0 -7.99707 -4.99805 -13.4941q-4.99805 -5.49805 -12.9941 -5.49805h-79.9658q-39.9834 0 -71.9697 -3.99805t-57.9746 -11.9951q-48.9795 -15.9932 -101.957 -59.9746l-256.89 -216.907
q-9.99609 -7.99609 -5.99805 -20.4912q3.99902 -12.4941 16.9932 -12.4941l557.762 -1q7.99609 0 12.9941 -4.99805q4.99805 -4.99707 4.99805 -12.9941v-97.958q0 -11.9951 10.4951 -16.9932q10.4961 -4.99707 19.4922 2.99902l331.858 279.881
q6.99707 4.99707 6.99707 13.9932q0 8.99707 -6.99707 14.9941zM818.411 507.516v472.799q0 7.99609 -4.99707 12.9941q-4.99805 4.99805 -12.9951 4.99805h-59.9746q-172.926 0 -240.896 -48.9795q-69.9697 -50.9785 -69.9697 -173.926v-268.885
q0 -10.9951 10.4951 -16.4932q10.4951 -5.49707 19.4912 2.49902l152.935 128.945q11.9951 9.99512 23.9902 0l151.935 -128.945q8.99609 -7.99609 19.4922 -2.49902q10.4951 5.49805 10.4951 17.4922z" />
  </g>

</svg>
