<?xml version="1.0" standalone="no"?>
<!DOCTYPE svg PUBLIC "-//W3C//DTD SVG 1.1//EN" "http://www.w3.org/Graphics/SVG/1.1/DTD/svg11.dtd" >
<svg xmlns="http://www.w3.org/2000/svg" xmlns:xlink="http://www.w3.org/1999/xlink" version="1.1" viewBox="-1 -410 2048 2048">
  <g transform="matrix(1 0 0 -1 0 1638)">
   <path fill="currentColor"
d="M485 -21l-481 573q-8 9 -2.5 19.5t17.5 10.5h236v29q0 95 25 154q25 61 102 153l263 314q107 127 171 157q64 32 216 32h398q12 0 17.5 -10.5t-2.5 -19.5l-211 -250q-9 -12 0 -24l211 -250q8 -9 2.5 -19.5t-17.5 -10.5h-667q-8 0 -13 -5t-5 -13v-219q0 -8 5 -13t13 -5
h218q12 0 17 -10.5t-3 -19.5l-481 -573q-5 -7 -14 -7t-15 7zM514 122l280 332q8 9 2.5 19.5t-16.5 10.5h-98q-8 0 -13 5t-5 13l-1 558q0 13 -12.5 17t-20.5 -6l-217 -257q-44 -53 -60 -102q-8 -26 -12 -58t-4 -72v-80q0 -8 -5.5 -13t-13.5 -5h-98q-12 0 -17 -10.5t3 -19.5
l279 -332q6 -7 15 -7t14 7zM1251 965l-129 152q-10 12 0 24l129 153q8 9 2.5 19.5t-16.5 10.5h-269q-123 0 -174 -70q-49 -68 -49 -241v-60q0 -8 5 -13t13 -5h473q12 0 17.5 10.5t-2.5 19.5z" />
  </g>

</svg>
