<?xml version="1.0" standalone="no"?>
<!DOCTYPE svg PUBLIC "-//W3C//DTD SVG 1.1//EN" "http://www.w3.org/Graphics/SVG/1.1/DTD/svg11.dtd" >
<svg xmlns="http://www.w3.org/2000/svg" xmlns:xlink="http://www.w3.org/1999/xlink" version="1.1" viewBox="0 -410 2048 2048">
  <g transform="matrix(1 0 0 -1 0 1638)">
   <path fill="currentColor"
d="M339.616 1258.2l572.755 480.795q8.99609 7.99609 19.4922 2.49805q10.4951 -5.49707 10.4951 -17.4922v-235.899h28.9873q94.96 0 153.935 -24.9893q61.9736 -24.9893 152.935 -101.956l313.866 -262.888q126.945 -106.954 156.933 -170.927
q31.9863 -63.9727 31.9863 -215.908v-397.83q0 -11.9941 -10.4951 -17.4922q-10.4961 -5.49805 -19.4922 2.49902l-249.894 210.91q-11.9941 8.99609 -23.9893 0l-249.894 -210.91q-8.99609 -7.99707 -19.4912 -2.49902t-10.4951 17.4922v666.716
q0 7.99609 -4.99805 12.9941t-12.9951 4.99805h-218.906q-7.99609 0 -12.9941 -4.99805t-4.99805 -12.9941v-217.907q0 -11.9951 -10.4951 -16.9932q-10.4961 -4.99707 -19.4922 2.99902l-572.755 480.795q-6.99707 4.99707 -6.99707 13.9932q0 8.99707 6.99707 14.9941z
M482.555 1229.21l331.858 -279.881q8.99609 -7.99609 19.4922 -2.99902q10.4951 4.99805 10.4951 16.9932v97.958q0 7.99707 4.99805 12.9941q4.99805 4.99805 12.9941 4.99805l557.762 1q12.9941 0 16.9922 12.4941q3.99902 12.4951 -5.99707 20.4912l-256.89 216.907
q-51.9785 43.9814 -101.957 59.9746q-25.9883 7.99707 -57.9746 11.9951t-71.9697 3.99805h-79.9658q-7.99609 0 -12.9941 5.49805q-4.99805 5.49707 -4.99805 13.4941v97.958q0 11.9951 -10.4951 16.9932q-10.4961 4.99707 -19.4922 -2.99902l-331.858 -278.881
q-6.99707 -5.99707 -6.99707 -14.9941q0 -8.99609 6.99707 -13.9932zM1325.2 492.522l151.935 128.945q11.9951 9.99512 23.9893 0l152.936 -128.945q8.99609 -7.99609 19.4912 -2.49902q10.4951 5.49805 10.4951 16.4932v268.885q0 122.947 -69.9697 173.926
q-67.9707 48.9795 -240.897 48.9795h-59.9736q-7.99707 0 -12.9951 -4.99805q-4.99707 -4.99805 -4.99707 -12.9941v-472.799q0 -11.9941 10.4951 -17.4922q10.4951 -5.49707 19.4922 2.49902z" />
  </g>

</svg>
