<?xml version="1.0" standalone="no"?>
<!DOCTYPE svg PUBLIC "-//W3C//DTD SVG 1.1//EN" "http://www.w3.org/Graphics/SVG/1.1/DTD/svg11.dtd" >
<svg xmlns="http://www.w3.org/2000/svg" xmlns:xlink="http://www.w3.org/1999/xlink" version="1.1" viewBox="-1 -410 2048 2048">
  <g transform="matrix(1 0 0 -1 0 1638)">
   <path fill="currentColor"
d="M935 -45l-481 573q-8 9 -3 19.5t17 10.5h218q8 0 13 5t5 13v219q0 8 -5 13t-13 5h-667q-12 0 -17.5 10.5t2.5 19.5l211 250q9 12 0 23l-211 251q-8 9 -2.5 19.5t17.5 10.5h398q152 0 216 -32q32 -16 74.5 -54.5t96.5 -103.5l263 -313q76 -92 102 -153q25 -59 25 -154v-29
h236q12 0 17.5 -10.5t-2.5 -19.5l-481 -573q-6 -7 -15 -7t-14 7zM964 98l279 332q8 9 3 19.5t-17 10.5h-98q-8 0 -13.5 5t-5.5 13v80q0 40 -4 72t-12 58q-17 50 -60 101l-217 258q-8 10 -20.5 6t-12.5 -18l-1 -557q0 -8 -5 -13t-13 -5h-98q-12 0 -17 -10.5t3 -19.5l280 -332
q5 -7 14 -7t15 7zM213 911h473q8 0 13 5t5 13v60q0 173 -49 241q-51 70 -174 70h-269q-11 0 -16.5 -10.5t2.5 -19.5l129 -154q5 -5 5 -11.5t-5 -11.5l-129 -152q-8 -9 -2.5 -19.5t17.5 -10.5z" />
  </g>

</svg>
