<?xml version="1.0" standalone="no"?>
<!DOCTYPE svg PUBLIC "-//W3C//DTD SVG 1.1//EN" "http://www.w3.org/Graphics/SVG/1.1/DTD/svg11.dtd" >
<svg xmlns="http://www.w3.org/2000/svg" xmlns:xlink="http://www.w3.org/1999/xlink" version="1.1" viewBox="-1 -410 2048 2048">
  <g transform="matrix(1 0 0 -1 0 1638)">
   <path fill="currentColor"
d="M514 1414l481 -573q8 -9 3 -19.5t-17 -10.5h-218q-8 0 -13 -5t-5 -13v-219q0 -8 5 -13t13 -5h667q12 0 17.5 -10.5t-2.5 -19.5l-211 -250q-9 -12 0 -24l211 -250q8 -9 2.5 -19.5t-17.5 -10.5h-398q-152 0 -216 32q-64 30 -171 157l-263 314q-77 91 -102 153
q-25 59 -25 154v29h-236q-12 0 -17.5 10.5t2.5 19.5l481 573q6 7 15 7t14 -7zM485 1271l-279 -332q-8 -9 -3 -19.5t17 -10.5h98q8 0 13.5 -5t5.5 -13v-80q0 -40 4 -72t12 -58q16 -50 60 -102l217 -257q8 -10 20.5 -6t12.5 17l1 558q0 8 5 13t13 5h98q11 0 16.5 10.5
t-2.5 19.5l-280 332q-5 7 -14 7t-15 -7zM1236 458h-473q-8 0 -13 -5t-5 -13v-60q0 -173 49 -241q51 -70 174 -70h269q11 0 16.5 10.5t-2.5 19.5l-129 153q-10 12 0 24l129 152q8 9 2.5 19.5t-17.5 10.5z" />
  </g>

</svg>
