<?xml version="1.0" standalone="no"?>
<!DOCTYPE svg PUBLIC "-//W3C//DTD SVG 1.1//EN" "http://www.w3.org/Graphics/SVG/1.1/DTD/svg11.dtd" >
<svg xmlns="http://www.w3.org/2000/svg" xmlns:xlink="http://www.w3.org/1999/xlink" version="1.1" viewBox="0 -410 2048 2048">
  <g transform="matrix(1 0 0 -1 0 1638)">
   <path fill="currentColor"
d="M1442 457l-573 -481q-9 -8 -19.5 -2.5t-10.5 17.5v236h-29q-95 0 -154 25q-62 25 -153 102l-314 263q-127 107 -157 171q-32 64 -32 216v398q0 12 10.5 17.5t19.5 -2.5l250 -211q12 -9 24 0l250 211q9 8 19.5 2.5t10.5 -17.5v-667q0 -8 5 -13t13 -5h219q8 0 13 5t5 13
v218q0 12 10.5 17t19.5 -3l573 -481q7 -5 7 -14t-7 -15zM1299 486l-332 280q-9 8 -19.5 3t-10.5 -17v-98q0 -8 -5 -13t-13 -5l-558 -1q-13 0 -17 -12.5t6 -20.5l257 -217q52 -44 102 -60q26 -8 58 -12t72 -4h80q8 0 13 -5.5t5 -13.5v-98q0 -12 10.5 -17t19.5 3l332 279
q7 6 7 15t-7 14zM456 1223l-152 -129q-12 -10 -24 0l-153 129q-9 8 -19.5 2.5t-10.5 -16.5v-269q0 -123 70 -174q68 -49 241 -49h60q8 0 13 5t5 13v473q0 12 -10.5 17.5t-19.5 -2.5z" />
  </g>

</svg>
