<?xml version="1.0" standalone="no"?>
<!DOCTYPE svg PUBLIC "-//W3C//DTD SVG 1.1//EN" "http://www.w3.org/Graphics/SVG/1.1/DTD/svg11.dtd" >
<svg xmlns="http://www.w3.org/2000/svg" xmlns:xlink="http://www.w3.org/1999/xlink" version="1.1" viewBox="0 -410 2048 2048">
  <g transform="matrix(1 0 0 -1 0 1638)">
   <path fill="currentColor"
d="M757 421q-75 0 -144 19t-129 53.5t-109.5 83.5t-85 108t-55 126.5t-19.5 140.5q0 110 43 206.5t116.5 168.5t172 114t210.5 42q74 0 143.5 -19t129.5 -53.5t109.5 -83t84.5 -107.5t54.5 -127t19.5 -141q0 -110 -42.5 -206.5t-116 -168.5t-172 -114t-210.5 -42zM757 1431
q-101 0 -190.5 -37.5t-156 -103t-105 -152.5t-38.5 -186t38.5 -186.5t105 -153t156 -103t190.5 -37.5t190 37.5t155.5 103t105 153t38.5 186.5t-38.5 186t-105 152.5t-155.5 103t-190 37.5zM1389 198q18 -35 -4 -68q-11 -18 -29 -28t-41 -10q-38 0 -87.5 11t-108.5 26
q-39 10 -82.5 21t-90 19.5t-94 14t-95.5 5.5q-94 0 -185 -19t-173 -40q-60 -15 -111.5 -26.5t-92.5 -11.5q-59 0 -78 31q-19 30 5 76q15 30 34 61.5t43.5 63t55.5 61.5t71 57q12 9 25 2q109 -54 207 -79.5t199 -25.5q203 0 404 103q12 8 26 -1q124 -89 202 -243zM1342 157
q2 2 3 7.5t-3 10.5q-67 136 -173 215q-102 -52 -205 -77t-207 -25t-204 24.5t-212 78.5q-66 -48 -106.5 -105t-67.5 -111q-5 -10 -7 -18q-1 -4 0 -6t8.5 -4.5t26.5 -2.5q35 0 84 10.5t107 26.5q40 10 84.5 20.5t92 19.5t96.5 14.5t98 5.5q50 0 99.5 -5.5t97.5 -14.5
t92.5 -20t85.5 -21q57 -15 103.5 -25.5t79.5 -10.5q11 0 17 4t10 9zM725 621q-51 4 -97.5 23.5t-85.5 51t-67.5 73.5t-43.5 92q-18 63 -11 125t39 121q5 8 13 11.5t16 0.5q9 -2 14 -8.5t6 -15.5q0 -41 33 -69q32 -29 76 -23q32 4 55.5 26t28.5 52q8 42 -25 79q-30 32 -68 32
q-11 -2 -18.5 4.5t-9.5 15.5t1 17t11 11q108 61 229 38q54 -11 101 -37t83 -64.5t59 -86t29 -100.5q9 -75 -15 -144.5t-77 -123.5q-48 -50 -111.5 -76t-132.5 -26h-16t-16 1zM479 1020q-20 -72 2 -144q12 -42 36.5 -77.5t57.5 -62.5t72.5 -43.5t82.5 -19.5q66 -7 127.5 16
t106.5 69q45 45 65 104t13 122q-5 45 -24.5 85t-50 72.5t-70.5 54.5t-86 31q-33 7 -65.5 5t-64.5 -10q18 -12 34 -28q23 -26 33 -57.5t5 -64.5q-4 -23 -15.5 -44t-29 -37t-39.5 -26.5t-46 -13.5q-32 -4 -62.5 6t-53.5 30q-15 14 -28 33z" />
  </g>

</svg>
