<?xml version="1.0" standalone="no"?>
<!DOCTYPE svg PUBLIC "-//W3C//DTD SVG 1.1//EN" "http://www.w3.org/Graphics/SVG/1.1/DTD/svg11.dtd" >
<svg xmlns="http://www.w3.org/2000/svg" xmlns:xlink="http://www.w3.org/1999/xlink" version="1.1" viewBox="0 -410 2048 2048">
  <g transform="matrix(1 0 0 -1 0 1638)">
   <path fill="currentColor"
d="M1553.05 94v1004q0 12 -7.99609 22l-124.947 132q-6.99707 8 -15.9932 9.5t-17.4922 -1.5t-13.9941 -11q-5.49707 -8 -5.49707 -18v-756q0 -11 -5.49805 -18.5t-13.9941 -10.5t-17.4922 -2t-15.9932 9l-838.642 832q-8.99609 9 -21.9912 9q-12.9941 0 -21.9902 -9
l-99.957 -99q-8.99609 -9 -8.99609 -22t8.99609 -22l831.645 -839q7.99609 -8 8.99609 -17q0.999023 -9 -1.99902 -17q-2.99902 -8 -10.4961 -13.5q-7.49609 -5.5 -18.4922 -5.5h-753.678q-9.99512 0 -17.9922 -6q-7.99609 -6 -10.9951 -14t-1.49902 -17.5
q1.49902 -9.5 9.49512 -16.5l130.944 -125q9.99609 -8 20.9912 -8h1003.57q12.9941 0 21.9902 9t8.99609 22z" />
  </g>

</svg>
