<?xml version="1.0" standalone="no"?>
<!DOCTYPE svg PUBLIC "-//W3C//DTD SVG 1.1//EN" "http://www.w3.org/Graphics/SVG/1.1/DTD/svg11.dtd" >
<svg xmlns="http://www.w3.org/2000/svg" xmlns:xlink="http://www.w3.org/1999/xlink" version="1.1" viewBox="0 -410 2048 2048">
  <g transform="matrix(1 0 0 -1 0 1638)">
   <path fill="currentColor"
d="M1618.06 1307h-857.634q-15.9932 0 -25.9883 -10l-261.889 -254q-9.99512 -8 -10.9951 -19q-0.999023 -11 2.99902 -20.5t11.9951 -16q7.99609 -6.5 19.9912 -6.5h479.795q11.9951 0 19.9912 -6.5q7.99707 -6.5 11.9951 -16t2.99902 -20q-1 -10.5 -10.9961 -19.5
l-567.757 -565q-9.99609 -11 -9.99609 -25.5t9.99609 -25.5l183.921 -185q9.99609 -11 24.9893 -11q14.9941 0 26.9893 11l561.76 569q7.99609 9 18.9912 10.5q10.9961 1.5 19.9922 -2.5t15.9932 -13t6.99707 -21v-484q0 -12 5.99707 -20.5t14.9932 -12.5t19.9922 -3
q10.9951 1 18.9912 9l289.876 270q11.9951 11 11.9951 27v824q0 15 -10.9951 25.5t-24.9893 10.5z" />
  </g>

</svg>
