<?xml version="1.0" standalone="no"?>
<!DOCTYPE svg PUBLIC "-//W3C//DTD SVG 1.1//EN" "http://www.w3.org/Graphics/SVG/1.1/DTD/svg11.dtd" >
<svg xmlns="http://www.w3.org/2000/svg" xmlns:xlink="http://www.w3.org/1999/xlink" version="1.1" viewBox="0 -410 2048 2048">
  <g transform="matrix(1 0 0 -1 0 1638)">
   <path fill="currentColor"
d="M1950 719l-553.763 688q-9.99609 14 -27.9883 14h-345.853q-11.9951 0 -19.9912 -6t-11.9951 -14.5q-3.99805 -8.5 -3.99805 -19t7.99707 -19.5l331.857 -420q7.99707 -9 8.99609 -20q1 -11 -3.99805 -20.5t-12.9941 -16.5q-7.99707 -7 -19.9922 -7h-741.683
q-15.9932 0 -25.9893 -5q-9.99512 -5 -9.99512 -20v-313q0 -15 9.99512 -20q9.99609 -5 25.9893 -5h741.683q11.9951 0 19.9922 -7q7.99609 -7 12.9941 -16.5t3.99805 -20.5q-0.999023 -11 -8.99609 -20l-331.857 -417q-7.99707 -9 -7.99707 -20t3.99805 -20
q3.99902 -9 11.9951 -15.5t19.9912 -6.5h345.853q17.9922 0 27.9883 14l553.763 688q7.99707 10 7.99707 22.5t-7.99707 22.5z" />
  </g>

</svg>
