<?xml version="1.0" standalone="no"?>
<!DOCTYPE svg PUBLIC "-//W3C//DTD SVG 1.1//EN" "http://www.w3.org/Graphics/SVG/1.1/DTD/svg11.dtd" >
<svg xmlns="http://www.w3.org/2000/svg" xmlns:xlink="http://www.w3.org/1999/xlink" version="1.1" viewBox="0 -410 2048 2048">
  <g transform="matrix(1 0 0 -1 0 1638)">
   <path fill="currentColor"
d="M1654.05 143v824q0 16 -11.9951 27l-289.876 270q-7.99609 8 -18.9912 9q-10.9961 1 -19.9922 -3t-14.9932 -12.5t-5.99707 -20.5v-484q0 -12 -6.99707 -21t-15.9932 -13t-19.9922 -2.5q-10.9951 1.5 -18.9912 10.5l-561.76 569q-11.9951 11 -26.9893 11
q-14.9932 0 -24.9893 -11l-183.921 -185q-9.99609 -11 -9.99609 -25.5t9.99609 -25.5l567.757 -565q9.99609 -9 10.9961 -19.5q0.999023 -10.5 -2.99902 -20t-11.9951 -16q-7.99609 -6.5 -19.9912 -6.5h-479.795q-11.9951 0 -19.9912 -6.5q-7.99707 -6.5 -11.9951 -16
t-2.99902 -20q1 -10.5 10.9951 -19.5l261.889 -254q9.99512 -10 25.9883 -10h857.634q13.9941 0 24.9893 10.5t10.9951 25.5z" />
  </g>

</svg>
