<?xml version="1.0" standalone="no"?>
<!DOCTYPE svg PUBLIC "-//W3C//DTD SVG 1.1//EN" "http://www.w3.org/Graphics/SVG/1.1/DTD/svg11.dtd" >
<svg xmlns="http://www.w3.org/2000/svg" xmlns:xlink="http://www.w3.org/1999/xlink" version="1.1" viewBox="0 -410 2048 2048">
  <g transform="matrix(1 0 0 -1 0 1638)">
   <path fill="currentColor"
d="M1857.01 721l-612.738 688q-11.9951 12 -26.9883 12h-145.938q-11.9941 0 -20.4912 -6q-8.49609 -6 -12.4941 -15t-2.99902 -19.5q1 -10.5 8.99609 -19.5l450.808 -501q7.99609 -9 8.99609 -18.5t-2.99902 -18q-3.99805 -8.5 -12.4941 -13.5t-20.4912 -5h-1001.57
q-14.9932 0 -25.4893 -16.5q-10.4951 -16.5 -10.4951 -31.5v-121q0 -15 10.4951 -31.5q10.4961 -16.5 25.4893 -16.5h1001.57q11.9951 0 20.4912 -5t12.4941 -13.5q3.99902 -8.5 2.99902 -18t-8.99609 -18.5l-450.808 -503q-7.99609 -9 -8.99609 -19
q-0.999023 -10 2.99902 -19t12.4941 -14.5q8.49707 -5.5 20.4912 -5.5h145.938q14.9932 0 26.9883 12l612.738 688q9.99512 11 9.99512 24.5t-9.99512 24.5z" />
  </g>

</svg>
