<?xml version="1.0" standalone="no"?>
<!DOCTYPE svg PUBLIC "-//W3C//DTD SVG 1.1//EN" "http://www.w3.org/Graphics/SVG/1.1/DTD/svg11.dtd" >
<svg xmlns="http://www.w3.org/2000/svg" xmlns:xlink="http://www.w3.org/1999/xlink" version="1.1" viewBox="0 -410 2048 2048">
  <g transform="matrix(1 0 0 -1 0 1638)">
   <path fill="currentColor"
d="M15 721l613 688q12 12 27 12h146q12 0 20.5 -6t12.5 -15t3 -19.5t-9 -19.5l-451 -501q-8 -9 -9 -18.5t3 -18t12.5 -13.5t20.5 -5h1002q15 0 25.5 -16.5t10.5 -31.5v-121q0 -15 -10.5 -31.5t-25.5 -16.5h-1002q-12 0 -20.5 -5t-12.5 -13.5t-3 -18t9 -18.5l451 -503
q8 -9 9 -19t-3 -19t-12.5 -14.5t-20.5 -5.5h-146q-15 0 -27 12l-613 688q-10 11 -10 24.5t10 24.5z" />
  </g>

</svg>
