<?xml version="1.0" standalone="no"?>
<!DOCTYPE svg PUBLIC "-//W3C//DTD SVG 1.1//EN" "http://www.w3.org/Graphics/SVG/1.1/DTD/svg11.dtd" >
<svg xmlns="http://www.w3.org/2000/svg" xmlns:xlink="http://www.w3.org/1999/xlink" version="1.1" viewBox="0 -410 2048 2048">
  <g transform="matrix(1 0 0 -1 0 1638)">
   <path fill="currentColor"
d="M1522.06 1294h-1003.57q-11.9951 0 -20.9912 -9l-130.944 -124q-7.99609 -8 -9.49512 -17q-1.5 -9 1.49902 -17.5t10.9951 -14q7.99707 -5.5 17.9922 -5.5h753.678q10.9961 0 18.4922 -5.5q7.49707 -5.5 10.4961 -13.5q2.99805 -8 1.99902 -17.5q-1 -9.5 -8.99609 -16.5
l-831.645 -839q-8.99609 -9 -8.99609 -22t8.99609 -22l99.957 -99q8.99609 -9 21.9902 -9q12.9951 0 21.9912 9l838.642 832q6.99707 7 15.9932 8.5t17.4922 -2t13.9941 -11t5.49805 -17.5v-756q0 -11 5.49707 -18.5q5.49805 -7.5 13.9941 -10.5t17.4922 -2t15.9932 9
l124.947 133q7.99609 8 7.99609 21v1005q0 13 -8.99609 22t-21.9902 9z" />
  </g>

</svg>
