<?xml version="1.0" standalone="no"?>
<!DOCTYPE svg PUBLIC "-//W3C//DTD SVG 1.1//EN" "http://www.w3.org/Graphics/SVG/1.1/DTD/svg11.dtd" >
<svg xmlns="http://www.w3.org/2000/svg" xmlns:xlink="http://www.w3.org/1999/xlink" version="1.1" viewBox="0 -410 2048 2048">
  <g transform="matrix(1 0 0 -1 0 1638)">
   <path fill="currentColor"
d="M359 1095h731q14 0 23.5 -10.5t9.5 -25.5v-725q0 -15 -9.5 -25.5t-23.5 -10.5h-731q-14 0 -23.5 10.5t-9.5 25.5v725q0 15 9.5 25.5t23.5 10.5zM426 925v-457q0 -15 9.5 -26t23.5 -11h532q14 0 23.5 11t9.5 26v457q0 15 -9.5 26t-23.5 11h-532q-14 0 -23.5 -11t-9.5 -26z
" />
  </g>

</svg>
