<?xml version="1.0" standalone="no"?>
<!DOCTYPE svg PUBLIC "-//W3C//DTD SVG 1.1//EN" "http://www.w3.org/Graphics/SVG/1.1/DTD/svg11.dtd" >
<svg xmlns="http://www.w3.org/2000/svg" xmlns:xlink="http://www.w3.org/1999/xlink" version="1.1" viewBox="0 -410 2048 2048">
  <g transform="matrix(1 0 0 -1 0 1638)">
   <path fill="currentColor"
d="M790 289q20 0 32 -15q8 -8 11 -17.5t1 -18.5q-6 -38 -25 -70.5t-46 -56.5t-60 -38t-69 -14t-69 13.5t-60 37.5t-46 56.5t-25 70.5q-2 10 1 19.5t9 17.5q16 15 34 15h312zM634 103q30 0 57 12.5t47 33t34 45.5t18 50l-312 1q4 -26 18 -51t34 -45.5t46 -33t58 -12.5z
M1156 477q18 -2 28 -15.5t10 -30.5v-48q0 -19 -13 -32.5t-31 -13.5h-1032q-18 0 -32 13.5t-14 32.5v49q0 17 11 29.5t27 15.5q40 6 68 42.5t44 84.5t23 96.5t7 78.5q2 79 24 149.5t62 127.5t94 96.5t118 56.5q-22 19 -35 45.5t-13 58.5q0 28 10 53t28 44t42 29.5t52 10.5
q26 0 51 -10.5t43 -29.5t28 -44t10 -53q0 -32 -13 -58.5t-35 -45.5q64 -17 118 -57t94 -97t62 -127.5t22 -149.5q0 -1 1 -22t5 -53t13 -69.5t25 -70.5t40 -57t58 -29zM634 1405q-18 0 -34 -7.5t-28 -20t-19 -29t-7 -35.5t7 -35.5t19 -29t28 -19.5t34 -7q36 0 61 26.5
t25 64.5t-25 65t-61 27zM1150 383v48q-46 6 -76 33.5t-50 65t-31 79.5t-16 78.5t-6 62t-1 28.5q0 82 -26 154.5t-72 126.5t-107 85t-131 31t-131 -31t-107 -85t-72 -126.5t-26 -154.5q0 -3 -2 -28.5t-8 -62t-18 -78.5t-32 -79.5t-50 -64.5t-72 -33l2 -49h1032v-23v23z" />
  </g>

</svg>
