<?xml version="1.0" standalone="no"?>
<!DOCTYPE svg PUBLIC "-//W3C//DTD SVG 1.1//EN" "http://www.w3.org/Graphics/SVG/1.1/DTD/svg11.dtd" >
<svg xmlns="http://www.w3.org/2000/svg" xmlns:xlink="http://www.w3.org/1999/xlink" version="1.1" viewBox="0 -410 2048 2048">
  <g transform="matrix(1 0 0 -1 0 1638)">
   <path fill="currentColor"
d="M525 389v-167q0 -13 -7 -21.5t-17.5 -12t-21.5 -1t-19 12.5l-370 474q-8 10 -8 22.5t8 22.5l370 474q8 10 19 12.5t21.5 -1t17.5 -12t7 -21.5v-167q0 -15 10.5 -26t25.5 -11h327q15 0 25.5 11t10.5 26v167q0 13 7 21.5t17.5 12t21.5 1t19 -12.5l370 -474q8 -10 8 -22.5
t-8 -22.5l-370 -474q-8 -10 -19 -12.5t-21.5 1t-17.5 12t-7 21.5v167q0 15 -10.5 26t-25.5 11h-327q-15 0 -25.5 -11t-10.5 -26zM490 516h468q15 0 25.5 -10.5t10.5 -25.5v-40q0 -13 7 -21.5t17.5 -12t21.5 -1t19 12.5l200 256q8 10 8 22.5t-8 22.5l-200 256q-8 10 -19 12.5
t-21.5 -1t-17.5 -12t-7 -21.5v-40q0 -15 -10.5 -25.5t-25.5 -10.5h-468q-15 0 -25.5 10.5t-10.5 25.5v40q0 13 -7 21.5t-17.5 12t-21.5 1t-19 -12.5l-199 -256q-8 -10 -8 -22.5t8 -22.5l199 -256q8 -10 19 -12.5t21.5 1t17.5 12t7 21.5v40q0 15 10.5 25.5t25.5 10.5z" />
  </g>

</svg>
