<?xml version="1.0" standalone="no"?>
<!DOCTYPE svg PUBLIC "-//W3C//DTD SVG 1.1//EN" "http://www.w3.org/Graphics/SVG/1.1/DTD/svg11.dtd" >
<svg xmlns="http://www.w3.org/2000/svg" xmlns:xlink="http://www.w3.org/1999/xlink" version="1.1" viewBox="0 -410 2048 2048">
  <g transform="matrix(1 0 0 -1 0 1638)">
   <path fill="currentColor"
d="M763.387 80l535.771 536q10.9951 11 25.4893 11q14.4932 0 25.4893 -11l145.938 -146q8.99609 -9 19.4912 -10.5q10.4961 -1.5 19.9912 2.5q9.49609 4 15.9932 13q6.49805 9 6.49805 21v753q0 15 -10.9961 26q-10.9951 11 -25.9883 11h-752.679q-11.9951 0 -20.9912 -6.5
t-12.9941 -16t-2.49902 -20q1.5 -10.5 10.4961 -19.5l145.938 -146q10.9951 -11 10.9951 -25.5t-10.9951 -25.5l-535.771 -536q-10.9951 -11 -10.9951 -26t10.9951 -26l358.847 -359q10.9951 -11 25.9893 -11q14.9932 0 25.9883 11zM1461.09 1153v-424q0 -12 -6.49707 -21
t-15.9932 -13t-19.9912 -2.5q-10.4961 1.5 -18.4922 10.5l-49.9785 50q-10.9961 11 -25.4893 11q-14.4941 0 -25.4893 -11l-535.771 -536q-10.9951 -11 -25.9883 -11q-14.9941 0 -25.9893 11l-221.905 222q-10.9951 11 -10.9951 26t10.9951 26l535.771 536
q10.9951 11 10.9951 25.5t-10.9951 25.5l-49.9785 50q-8.99609 8 -10.4961 18.5q-1.49902 10.5 2.49902 20t12.9941 16q8.99707 6.5 20.9912 6.5h423.819q14.9932 0 25.4893 -10.5q10.4951 -10.5 10.4951 -25.5z" />
  </g>

</svg>
