<?xml version="1.0" standalone="no"?>
<!DOCTYPE svg PUBLIC "-//W3C//DTD SVG 1.1//EN" "http://www.w3.org/Graphics/SVG/1.1/DTD/svg11.dtd" >
<svg xmlns="http://www.w3.org/2000/svg" xmlns:xlink="http://www.w3.org/1999/xlink" version="1.1" viewBox="0 -410 2048 2048">
  <g transform="matrix(1 0 0 -1 0 1638)">
   <path fill="currentColor"
d="M906 80l-536 536q-11 11 -25.5 11t-25.5 -11l-146 -146q-9 -9 -19.5 -10.5t-20 2.5t-16 13t-6.5 21v753q0 15 11 26t26 11h753q12 0 21 -6.5t13 -16t2.5 -20t-10.5 -19.5l-146 -146q-11 -11 -11 -25.5t11 -25.5l536 -536q11 -11 11 -26t-11 -26l-359 -359
q-11 -11 -26 -11t-26 11zM208 1153v-424q0 -12 6.5 -21t16 -13t20 -2.5t18.5 10.5l50 50q11 11 25.5 11t25.5 -11l536 -536q11 -11 26 -11t26 11l222 222q11 11 11 26t-11 26l-536 536q-11 11 -11 25.5t11 25.5l50 50q9 8 10.5 18.5t-2.5 20t-13 16t-21 6.5h-424
q-15 0 -25.5 -10.5t-10.5 -25.5z" />
  </g>

</svg>
