<?xml version="1.0" standalone="no"?>
<!DOCTYPE svg PUBLIC "-//W3C//DTD SVG 1.1//EN" "http://www.w3.org/Graphics/SVG/1.1/DTD/svg11.dtd" >
<svg xmlns="http://www.w3.org/2000/svg" xmlns:xlink="http://www.w3.org/1999/xlink" version="1.1" viewBox="0 -410 2048 2048">
  <g transform="matrix(1 0 0 -1 0 1638)">
   <path fill="currentColor"
d="M1349 1432q17 6 34 -2.5t22 -25.5q6 -16 12 -42.5t7 -57.5t-5.5 -63t-27.5 -59q-47 -61 -145 -61h-10t-10 1q-38 2 -70 17t-60 37.5t-52.5 50t-48.5 56.5q-26 32 -52.5 61.5t-56.5 51t-65 32.5t-78 6q-71 -8 -90 -48q-9 -18 -9.5 -41.5t4.5 -47.5t13 -46.5t16 -39.5h113
q16 0 26.5 -11t10.5 -27v-92q69 -29 126.5 -76.5t99 -109t64.5 -134.5t23 -153q0 -106 -40.5 -199.5t-110 -163t-163 -110t-199.5 -40.5q-107 0 -200.5 40.5t-163 110t-110 163t-40.5 199.5q0 80 23 153t64.5 134.5t99 109t126.5 76.5v92q0 16 11 27t26 11h117
q-8 22 -15 48.5t-9.5 55t1 57.5t16.5 55q43 83 160 96q61 7 109.5 -8t88.5 -42.5t72.5 -63t60.5 -69.5q21 -25 41 -48t40 -40.5t41.5 -28.5t45.5 -12q65 -5 88 25q9 12 12 29t2.5 36t-4.5 38t-9 36q-6 18 2.5 34.5t25.5 22.5zM1333 1461l-203 302l41 42zM1503 1227l370 -128
l-24 -42zM1440 1082l184 -337l-49 -16zM1220 689l109 387l-66 -399zM1519 1362l358 188l16 -41zM1656 1806l-189 -327l145 355z" />
  </g>

</svg>
