<?xml version="1.0" standalone="no"?>
<!DOCTYPE svg PUBLIC "-//W3C//DTD SVG 1.1//EN" "http://www.w3.org/Graphics/SVG/1.1/DTD/svg11.dtd" >
<svg xmlns="http://www.w3.org/2000/svg" xmlns:xlink="http://www.w3.org/1999/xlink" version="1.1" viewBox="0 -410 2048 2048">
  <g transform="matrix(1 0 0 -1 0 1638)">
   <path fill="currentColor"
d="M1875 1306q14 0 23.5 -8.5t9.5 -22.5v-1106q0 -14 -9.5 -22.5t-23.5 -8.5h-726v-33q0 -13 -9 -22t-23 -9h-252q-14 0 -23 9t-9 22v33h-728q-12 0 -21.5 8.5t-9.5 22.5v1106q0 14 9.5 22.5t21.5 8.5q14 0 23.5 -8.5t9.5 -22.5v-1075h727q13 0 22 -8.5t9 -22.5v-31h190v31
q0 14 9 22.5t22 8.5h727v1075q0 14 9.5 22.5t21.5 8.5zM233 264q-14 0 -23.5 9t-9.5 22v1139q0 12 9.5 21.5t23.5 9.5h694q14 0 23.5 -9.5t9.5 -21.5v-1139q0 -13 -9.5 -22t-23.5 -9h-694zM264 327h632v1074h-632v-1074zM1055 264q-14 0 -23.5 9t-9.5 22v1139q0 12 9.5 21.5
t23.5 9.5h694q14 0 23 -9.5t9 -21.5v-1139q0 -13 -9 -22t-23 -9h-694zM1086 327h632v1074h-632v-1074z" />
  </g>

</svg>
