<?xml version="1.0" standalone="no"?>
<!DOCTYPE svg PUBLIC "-//W3C//DTD SVG 1.1//EN" "http://www.w3.org/Graphics/SVG/1.1/DTD/svg11.dtd" >
<svg xmlns="http://www.w3.org/2000/svg" xmlns:xlink="http://www.w3.org/1999/xlink" version="1.1" viewBox="0 -410 2048 2048">
  <g transform="matrix(1 0 0 -1 0 1638)">
   <path fill="currentColor"
d="M1159 1108q0 10 -6.5 16.5t-16.5 6.5h-823q-10 0 -16.5 -6.5t-6.5 -16.5v-823q0 -10 6.5 -16.5t16.5 -6.5h823q10 0 16.5 6.5t6.5 16.5v823zM1268 176q0 -10 -6.5 -16.5t-16.5 -6.5h-1041q-10 0 -16.5 6.5t-6.5 16.5v1041q0 10 6.5 16.5t16.5 6.5h1041q10 0 16.5 -6.5
t6.5 -16.5v-1041z" />
  </g>

</svg>
