<?xml version="1.0" standalone="no"?>
<!DOCTYPE svg PUBLIC "-//W3C//DTD SVG 1.1//EN" "http://www.w3.org/Graphics/SVG/1.1/DTD/svg11.dtd" >
<svg xmlns="http://www.w3.org/2000/svg" xmlns:xlink="http://www.w3.org/1999/xlink" version="1.1" viewBox="0 -410 2048 2048">
  <g transform="matrix(1 0 0 -1 0 1638)">
   <path fill="currentColor"
d="M184 204h913q15 0 25.5 10.5t10.5 25.5v913q0 15 -10.5 25.5t-25.5 10.5h-913q-15 0 -25.5 -10.5t-10.5 -25.5v-913q0 -15 10.5 -25.5t25.5 -10.5zM25 117v1159q0 15 10.5 25.5t25.5 10.5h1159q15 0 25.5 -10.5t10.5 -25.5v-1159q0 -15 -10.5 -25.5t-25.5 -10.5h-1159
q-15 0 -25.5 10.5t-10.5 25.5zM574 284q20 -21 48 -22t47 19l56 60l665 697q11 11 10.5 28t-11.5 29l-53 56q-11 12 -27 12.5t-27 -11.5l-619 -647q-19 -20 -47 -19.5t-48 21.5l-247 263q-12 12 -27.5 12.5t-26.5 -10.5l-50 -53q-11 -11 -10.5 -28t12.5 -29l296 -315z" />
  </g>

</svg>
