<?xml version="1.0" standalone="no"?>
<!DOCTYPE svg PUBLIC "-//W3C//DTD SVG 1.1//EN" "http://www.w3.org/Graphics/SVG/1.1/DTD/svg11.dtd" >
<svg xmlns="http://www.w3.org/2000/svg" xmlns:xlink="http://www.w3.org/1999/xlink" version="1.1" viewBox="0 -410 2048 2048">
  <g transform="matrix(1 0 0 -1 0 1638)">
   <path fill="currentColor"
d="M262 204h913q15 0 25.5 10.5t10.5 25.5v913q0 15 -10.5 25.5t-25.5 10.5h-913q-15 0 -25.5 -10.5t-10.5 -25.5v-913q0 -15 10.5 -25.5t25.5 -10.5zM103 117v1159q0 15 10.5 25.5t25.5 10.5h1159q15 0 25.5 -10.5t10.5 -25.5v-1159q0 -15 -10.5 -25.5t-25.5 -10.5h-1159
q-15 0 -25.5 10.5t-10.5 25.5zM296 329l55 -55q12 -12 29 -12t29 12l310 310l309 -310q12 -12 29 -12t29 12l55 55q12 12 12 29t-12 29l-309 310l309 309q12 12 12 29t-12 29l-55 55q-12 12 -29 12t-29 -12l-309 -310l-310 310q-12 12 -29 12t-29 -12l-55 -55
q-12 -12 -12 -29t12 -29l310 -309l-310 -310q-12 -12 -12 -29t12 -29z" />
  </g>

</svg>
