<?xml version="1.0" standalone="no"?>
<!DOCTYPE svg PUBLIC "-//W3C//DTD SVG 1.1//EN" "http://www.w3.org/Graphics/SVG/1.1/DTD/svg11.dtd" >
<svg xmlns="http://www.w3.org/2000/svg" xmlns:xlink="http://www.w3.org/1999/xlink" version="1.1" viewBox="0 -410 2048 2048">
  <g transform="matrix(1 0 0 -1 0 1638)">
   <path fill="currentColor"
d="M447.57 948v-503q0 -15 10.9951 -25.5t24.9893 -10.5h631.729q15.9932 0 25.9893 -11t9.99609 -26v-193q0 -13 6.99707 -21.5t16.9922 -12.5q9.99609 -4 20.9912 -1.5t18.9922 11.5l443.81 518q7.99707 11 7.99707 23.5t-7.99707 23.5l-443.81 518
q-7.99707 9 -18.9922 11.5t-20.9912 -1.5q-9.99512 -4 -16.9922 -12.5t-6.99707 -21.5v-193q0 -15 -9.99609 -26t-25.9893 -11h-631.729q-13.9941 0 -24.9893 -10.5t-10.9951 -25.5zM1543.1 673l-243.896 -286q-7.99707 -10 -18.9922 -12t-20.9912 1.5
q-9.99512 3.5 -16.9922 12.5t-6.99707 22v58q0 15 -10.9951 25.5q-10.9961 10.5 -24.9893 10.5h-633.729q-15.9932 0 -25.9893 10.5q-9.99512 10.5 -9.99512 25.5v311q0 15 9.99512 25.5q9.99609 10.5 25.9893 10.5h633.729q13.9932 0 24.9893 10.5
q10.9951 10.5 10.9951 25.5v58q0 13 6.99707 22t16.9922 12.5q9.99609 3.5 20.9912 1.5t18.9922 -12l243.896 -286q7.99707 -11 7.99707 -23.5t-7.99707 -23.5z" />
  </g>

</svg>
