<?xml version="1.0" standalone="no"?>
<!DOCTYPE svg PUBLIC "-//W3C//DTD SVG 1.1//EN" "http://www.w3.org/Graphics/SVG/1.1/DTD/svg11.dtd" >
<svg xmlns="http://www.w3.org/2000/svg" xmlns:xlink="http://www.w3.org/1999/xlink" version="1.1" viewBox="0 -410 2048 2048">
  <g transform="matrix(1 0 0 -1 0 1638)">
   <path fill="currentColor"
d="M705.412 1313l-358.847 -359q-10.9951 -11 -10.9951 -26t10.9951 -26l535.771 -536q10.9961 -11 10.9961 -25.5t-10.9961 -25.5l-145.938 -146q-8.99609 -9 -10.4951 -19.5q-1.5 -10.5 2.49902 -20q3.99805 -9.5 12.9941 -16t20.9912 -6.5h753.678q14.9932 0 25.4893 11
q10.4951 11 10.4951 26v753q0 12 -6.49707 21t-15.9932 13t-19.9912 2.5q-10.4961 -1.5 -19.4922 -10.5l-145.938 -146q-10.9951 -11 -25.4893 -11q-14.4932 0 -25.4893 11l-535.771 536q-10.9951 11 -25.9893 11q-14.9932 0 -25.9883 -11zM1419.11 204h-423.818
q-11.9951 0 -20.4912 6.5t-12.4951 16q-3.99805 9.5 -2.49902 20q1.5 10.5 9.49609 18.5l49.9785 50q10.9961 11 10.9961 25.5t-10.9961 25.5l-535.771 536q-10.9951 11 -10.9951 26t10.9951 26l221.905 222q10.9951 11 25.9883 11q14.9941 0 25.9893 -11l535.771 -536
q10.9961 -11 25.4893 -11q14.4941 0 25.4893 11l49.9785 50q8.99609 9 19.4922 10.5q10.4951 1.5 19.9912 -2.5t15.9932 -13t6.49707 -21v-424q0 -15 -10.9951 -25.5t-25.9893 -10.5z" />
  </g>

</svg>
