<?xml version="1.0" standalone="no"?>
<!DOCTYPE svg PUBLIC "-//W3C//DTD SVG 1.1//EN" "http://www.w3.org/Graphics/SVG/1.1/DTD/svg11.dtd" >
<svg xmlns="http://www.w3.org/2000/svg" xmlns:xlink="http://www.w3.org/1999/xlink" version="1.1" viewBox="0 -410 2048 2048">
  <g transform="matrix(1 0 0 -1 0 1638)">
   <path fill="currentColor"
d="M964 1313l359 -359q11 -11 11 -26t-11 -26l-536 -536q-11 -11 -11 -25.5t11 -25.5l146 -146q9 -9 10.5 -19.5t-2.5 -20t-13 -16t-21 -6.5h-754q-15 0 -25.5 11t-10.5 26v753q0 12 6.5 21t16 13t20 2.5t19.5 -10.5l146 -146q11 -11 25.5 -11t25.5 11l536 536q11 11 26 11
t26 -11zM250 204h424q12 0 20.5 6.5t12.5 16t2.5 20t-9.5 18.5l-50 50q-11 11 -11 25.5t11 25.5l536 536q11 11 11 26t-11 26l-222 222q-11 11 -26 11t-26 -11l-536 -536q-11 -11 -25.5 -11t-25.5 11l-50 50q-9 9 -19.5 10.5t-20 -2.5t-16 -13t-6.5 -21v-424q0 -15 11 -25.5
t26 -10.5z" />
  </g>

</svg>
