<?xml version="1.0" standalone="no"?>
<!DOCTYPE svg PUBLIC "-//W3C//DTD SVG 1.1//EN" "http://www.w3.org/Graphics/SVG/1.1/DTD/svg11.dtd" >
<svg xmlns="http://www.w3.org/2000/svg" xmlns:xlink="http://www.w3.org/1999/xlink" version="1.1" viewBox="-37 -410 2048 2048">
  <g transform="matrix(1 0 0 -1 0 1638)">
   <path fill="currentColor"
d="M-24 239q-11 3 -12.5 15.5t16.5 23.5q13 8 29.5 18t32.5 25.5t30.5 39t24.5 58.5q11 38 24 65.5t24 45.5q13 21 26 36q13 14 35 27q6 4 8.5 10.5t1.5 13t-5.5 12t-11.5 7.5q-81 24 -124 78t-43 133q0 102 80 170t200 68q161 0 265 -131q6 -8 5 -17.5t-9 -15.5l-6 -5
q-8 -6 -17 -5t-16 8q-66 70 -154 70q-80 0 -134 -50q-57 -51 -57 -123q0 -56 43 -94q42 -39 106 -39q52 0 106.5 26.5t114.5 77.5l33 28q51 44 109 80t124 64q130 54 243 54q170 0 287 -99q63 -53 97.5 -128.5t32.5 -157.5q-3 -166 -131 -280q-19 -16 -38.5 -30t-40.5 -26
q-15 -9 -29 -4t-21.5 16.5t-7 26t13.5 26.5q5 5 9 8.5t9 8.5q43 42 62.5 97t19.5 124q0 149 -98 247q-98 99 -245 99q-145 0 -263 -93q-120 -95 -120 -206q0 -15 6 -41.5t21 -52.5t40 -46t62 -22q28 -1 48.5 10t35 29t24.5 40t16.5 42.5t11 36t7.5 20.5q4 6 14.5 10.5
t21.5 -10.5q8 -11 12 -41.5t-2.5 -68.5t-27.5 -79t-63 -73q-22 -17 -38 -23.5t-36 -9.5q-110 -15 -182 72q-8 10 -21.5 8t-18.5 -14q-19 -47 -55.5 -84t-84 -63t-102.5 -41.5t-111 -21t-109.5 -0.5t-97.5 20zM520 685q-114 -62 -170 -115q-27 -26 -49 -59t-40 -74l-11 -25
q-20 -44 -42 -77t-50 -54q183 9 274.5 98t88.5 260z" />
  </g>

</svg>
