<?xml version="1.0" standalone="no"?>
<!DOCTYPE svg PUBLIC "-//W3C//DTD SVG 1.1//EN" "http://www.w3.org/Graphics/SVG/1.1/DTD/svg11.dtd" >
<svg xmlns="http://www.w3.org/2000/svg" xmlns:xlink="http://www.w3.org/1999/xlink" version="1.1" viewBox="-37 -410 2048 2048">
  <g transform="matrix(1 0 0 -1 0 1638)">
   <path fill="currentColor"
d="M913 429q-5 12 -18.5 14t-21.5 -8q-72 -87 -182 -72q-20 3 -36 9.5t-38 23.5q-42 32 -63 73t-27.5 79t-2.5 68.5t12 41.5q11 15 21.5 10.5t14.5 -10.5q3 -5 7.5 -20.5t11 -36t16.5 -42.5t24.5 -40t35 -29t48.5 -10q37 2 62 22t40 46t21 52.5t6 41.5q0 111 -120 206
q-119 93 -263 93q-148 0 -245 -99q-98 -98 -98 -247q0 -69 19.5 -124t62.5 -97q5 -5 9 -8.5t9 -8.5q13 -12 13.5 -26.5t-7 -26t-21.5 -16.5t-29 4q-21 12 -40.5 26t-38.5 30q-128 114 -131 280q-2 82 32.5 157.5t97.5 128.5q117 99 287 99q112 0 243 -54q66 -28 124 -64
t109 -80l33 -28q60 -51 114.5 -77.5t106.5 -26.5q64 0 106 39q43 38 43 94q0 72 -57 123q-54 50 -134 50q-88 0 -154 -70q-7 -7 -16 -8t-17 5l-6 5q-8 6 -9 15.5t5 17.5q104 131 265 131q120 0 200 -68t80 -170q0 -79 -43 -133t-124 -78q-8 -2 -12 -7.5t-5 -12t1.5 -13
t8.5 -10.5q22 -13 35 -27q13 -15 26 -36q11 -18 24 -45.5t24 -65.5q10 -35 24.5 -58.5t30.5 -39t32 -25.5t30 -18q18 -11 16.5 -23.5t-12.5 -15.5q-44 -15 -97.5 -20t-109.5 0.5t-111 21t-102.5 41.5t-84 63t-55.5 84zM928 639q-3 -171 88.5 -260t274.5 -98q-28 21 -50 54
t-42 77l-11 25q-18 41 -40 74t-49 59t-69.5 54.5t-100.5 60.5z" />
  </g>

</svg>
