<?xml version="1.0" standalone="no"?>
<!DOCTYPE svg PUBLIC "-//W3C//DTD SVG 1.1//EN" "http://www.w3.org/Graphics/SVG/1.1/DTD/svg11.dtd" >
<svg xmlns="http://www.w3.org/2000/svg" xmlns:xlink="http://www.w3.org/1999/xlink" version="1.1" viewBox="-37 -410 2048 2048">
  <g transform="matrix(1 0 0 -1 0 1638)">
   <path fill="currentColor"
d="M1473 1154q11 -3 12.5 -15.5t-16.5 -23.5q-14 -8 -30 -18t-32 -25.5t-30.5 -39t-24.5 -58.5q-11 -38 -24 -65.5t-24 -45.5q-13 -21 -26 -36q-13 -14 -35 -27q-6 -4 -8.5 -10.5t-1.5 -13t5 -12t12 -7.5q81 -24 124 -78t43 -133q0 -102 -80 -170t-200 -68q-161 0 -265 131
q-6 8 -5 17.5t9 16.5l6 4q8 6 17 5t16 -8q66 -70 154 -70q80 0 134 50q57 51 57 123q0 56 -43 94q-42 39 -106 39q-52 0 -106.5 -26.5t-114.5 -77.5l-33 -28q-51 -44 -109 -80t-124 -64q-131 -54 -243 -54q-170 0 -287 99q-63 53 -97.5 128.5t-32.5 157.5q3 166 131 280
q19 16 38.5 30t40.5 26q15 9 29 4t21.5 -16.5t7 -26t-13.5 -26.5q-5 -5 -9 -8.5t-9 -8.5q-43 -42 -62.5 -97t-19.5 -124q0 -149 98 -247q97 -99 245 -99q144 0 263 93q120 94 120 206q0 15 -6 41.5t-21 52.5t-40 46t-62 22q-28 1 -48.5 -10t-35 -29t-24.5 -40t-16.5 -42.5
t-11 -36t-7.5 -20.5q-4 -6 -14.5 -10.5t-21.5 10.5q-8 11 -12 41.5t2.5 68.5t27.5 79t63 73q22 17 38 23.5t36 9.5q110 15 182 -72q8 -10 21.5 -8t18.5 14q19 47 55.5 84t84 63t102.5 41.5t111 21t109.5 0.5t97.5 -20zM929 708q58 32 100.5 60.5t69.5 54.5t49 59t40 74
l11 25q20 44 42 77t50 54q-183 -9 -274.5 -98t-88.5 -260z" />
  </g>

</svg>
