<?xml version="1.0" standalone="no"?>
<!DOCTYPE svg PUBLIC "-//W3C//DTD SVG 1.1//EN" "http://www.w3.org/Graphics/SVG/1.1/DTD/svg11.dtd" >
<svg xmlns="http://www.w3.org/2000/svg" xmlns:xlink="http://www.w3.org/1999/xlink" version="1.1" viewBox="-37 -410 2048 2048">
  <g transform="matrix(1 0 0 -1 0 1638)">
   <path fill="currentColor"
d="M536 964q5 -12 18.5 -14t21.5 8q71 87 182 72q20 -3 36 -9.5t38 -23.5q42 -32 63 -73t27.5 -79t2.5 -68.5t-12 -41.5q-11 -15 -21.5 -10.5t-14.5 10.5q-3 5 -7.5 20.5t-11 36t-16.5 42.5t-24.5 40t-35 29t-48.5 10q-37 -2 -62 -22t-40 -46t-21 -52.5t-6 -41.5
q0 -112 120 -206q118 -93 263 -93q147 0 245 99q98 98 98 247q0 69 -19.5 124t-62.5 97q-5 5 -9 8.5t-9 8.5q-13 12 -13.5 26.5t7 26t21.5 16.5t29 -4q21 -12 40.5 -26t38.5 -30q128 -114 131 -280q2 -82 -32.5 -157.5t-97.5 -128.5q-117 -99 -287 -99q-113 0 -243 54
q-66 28 -124 64t-109 80l-33 28q-60 51 -114.5 77.5t-106.5 26.5q-64 0 -106 -39q-43 -38 -43 -94q0 -72 57 -123q54 -50 134 -50q88 0 154 70q7 7 16 8t17 -5l6 -4q8 -7 9 -16.5t-5 -17.5q-104 -131 -265 -131q-120 0 -200 68t-80 170q0 79 43 133t124 78q7 2 11.5 7.5
t5.5 12t-1.5 13t-8.5 10.5q-22 13 -35 27q-13 15 -26 36q-11 18 -24 45.5t-24 65.5q-10 35 -24.5 58.5t-30.5 39t-32.5 25.5t-29.5 18q-18 11 -16.5 23.5t12.5 15.5q44 15 97.5 20t109.5 -0.5t111 -21t102.5 -41.5t84 -63t55.5 -84zM521 754q3 171 -88.5 260t-274.5 98
q28 -21 50 -54t42 -77l11 -25q18 -41 40 -74t49 -59t69.5 -54.5t100.5 -60.5z" />
  </g>

</svg>
