<?xml version="1.0" standalone="no"?>
<!DOCTYPE svg PUBLIC "-//W3C//DTD SVG 1.1//EN" "http://www.w3.org/Graphics/SVG/1.1/DTD/svg11.dtd" >
<svg xmlns="http://www.w3.org/2000/svg" xmlns:xlink="http://www.w3.org/1999/xlink" version="1.1" viewBox="0 -410 2048 2048">
  <g transform="matrix(1 0 0 -1 0 1638)">
   <path fill="currentColor"
d="M1032 497h166q14 0 23 -7t12 -17.5t1 -21.5t-12 -19l-474 -370q-12 -8 -24 -8t-22 8l-474 370q-10 8 -12 19t1 21.5t12 17.5t21 7h168q14 0 25 10.5t11 25.5v327q0 15 -11 25.5t-25 10.5h-168q-12 0 -21 7t-12 17.5t-1 21.5t12 19l474 370q10 8 22 8t24 -8l474 -370
q10 -8 12 -19t-1 -21.5t-12 -17.5t-23 -7h-166q-16 0 -26 -10.5t-10 -25.5v-327q0 -15 10 -25.5t26 -10.5zM906 462v468q0 15 10 25.5t26 10.5h40q12 0 21 7t12 17.5t1 21.5t-12 19l-256 200q-12 8 -24 8t-22 -8l-256 -200q-10 -8 -13 -19t1 -21.5t13 -17.5t21 -7h40
q16 0 26 -10.5t10 -25.5v-468q0 -15 -10 -25.5t-26 -10.5h-40q-12 0 -21 -7t-12 -17.5t-1 -21.5t12 -19l256 -199q10 -8 22 -8t22 8l258 199q10 8 12 19t-1 21.5t-12 17.5t-23 7h-38q-16 0 -26 10.5t-10 25.5z" />
  </g>

</svg>
