<?xml version="1.0" standalone="no"?>
<!DOCTYPE svg PUBLIC "-//W3C//DTD SVG 1.1//EN" "http://www.w3.org/Graphics/SVG/1.1/DTD/svg11.dtd" >
<svg xmlns="http://www.w3.org/2000/svg" xmlns:xlink="http://www.w3.org/1999/xlink" version="1.1" viewBox="0 -410 2057 2048">
  <g transform="matrix(1 0 0 -1 0 1638)">
   <path fill="currentColor"
d="M595 559q-86 0 -162 33t-133 90t-90 133t-33 162q0 68 21.5 130t58.5 113q3 5 23.5 34t64 68t112 81t168 72t232 41.5t303.5 -9.5t383 -82t470 -176q27 -11 38 -38t-2 -54q-8 -19 -25.5 -30t-37.5 -11q-8 0 -14.5 1t-13.5 6q-217 96 -397.5 151.5t-328.5 80.5t-265.5 24
t-207.5 -19q56 -24 102.5 -62.5t80.5 -88t52.5 -108.5t18.5 -124q0 -86 -33 -162t-90 -133t-133 -90t-162 -33zM874 977q0 57 -22 108t-60 89t-89 60t-108 22t-107.5 -22t-88 -60t-59.5 -89t-22 -108t22 -107.5t59.5 -88t88 -59.5t107.5 -22t108 22t89 59.5t60 88t22 107.5z
M1639 964q86 0 161.5 -33t132 -89.5t89.5 -132.5t33 -162q0 -69 -20.5 -130.5t-57.5 -112.5q-3 -5 -19 -29t-50.5 -57t-88 -71t-130.5 -70t-179 -53t-233 -21q-96 0 -209.5 14t-245 46t-282 84t-321.5 128q-13 5 -22 15t-14 22.5t-4.5 26.5t6.5 28q11 26 37.5 36t53.5 -2
q216 -96 396 -152t328 -80.5t266 -23.5t209 18q-56 24 -102.5 62.5t-80.5 88.5t-52.5 109t-18.5 124q0 86 33 162t90 132.5t133 89.5t162 33zM1360 547q0 -57 22 -108t59.5 -89t88.5 -60t109 -22q57 0 107.5 22t88 60t59.5 89t22 108t-22 107.5t-59.5 88t-88 59.5t-107.5 22
q-58 0 -109 -22t-88.5 -59.5t-59.5 -88t-22 -107.5z" />
  </g>

</svg>
