<?xml version="1.0" standalone="no"?>
<!DOCTYPE svg PUBLIC "-//W3C//DTD SVG 1.1//EN" "http://www.w3.org/Graphics/SVG/1.1/DTD/svg11.dtd" >
<svg xmlns="http://www.w3.org/2000/svg" xmlns:xlink="http://www.w3.org/1999/xlink" version="1.1" viewBox="0 -410 2048 2048">
  <g transform="matrix(1 0 0 -1 0 1638)">
   <path fill="currentColor"
d="M1762 292q24 -32 37.5 -68t16.5 -74t-4.5 -76t-26.5 -72q-41 -72 -112.5 -107.5t-159.5 -27.5q-26 3 -54.5 9t-56.5 18q-94 -163 -215 -217q-59 -29 -126 -29q-69 0 -145 32q-25 11 -34.5 35.5t-0.5 49.5q11 24 36 34t49 0q93 -40 167 -7q85 40 159 169
q-44 44 -71.5 114.5t-22.5 180.5q2 23 3 51t3 59q4 66 8 148t5 169.5t-4 175t-18.5 164t-38.5 137t-64 93.5q-27 25 -60.5 31t-78.5 -2q-45 -10 -84.5 -67.5t-74 -148.5t-63 -207t-51 -242t-37.5 -254.5t-23 -243.5q-1 -13 -7 -24t-15 -19t-20.5 -12.5t-23.5 -3.5
q-27 2 -45 21t-18 46q0 2 1 46.5t1.5 118t0.5 170t-2 202.5t-6.5 214t-11.5 205.5t-18 177.5t-26 129q-7 25 5 48t38 31t49.5 -4.5t31.5 -36.5q11 -39 20 -94.5t16 -123t12.5 -143.5t8.5 -156q25 93 57 178t71 151.5t86 110.5t103 55q73 17 135.5 2.5t113.5 -57.5
q71 -61 107.5 -165.5t50 -236.5t10 -284t-13.5 -306q-1 -32 -2 -58.5t-3 -49.5q-2 -51 4 -90t23 -69q20 52 40 116q21 69 65 111.5t102 53.5q56 10 110.5 -11.5t91.5 -69.5zM1672 64q20 36 16.5 76.5t-27.5 72.5q-15 19 -36.5 29t-41.5 5q-14 -3 -25 -11t-19 -19t-14 -23.5
t-10 -23.5q-14 -45 -28.5 -84.5t-29.5 -75.5q15 -6 32.5 -9t36.5 -6q49 -4 87.5 14t58.5 55z" />
  </g>

</svg>
