<?xml version="1.0" standalone="no"?>
<!DOCTYPE svg PUBLIC "-//W3C//DTD SVG 1.1//EN" "http://www.w3.org/Graphics/SVG/1.1/DTD/svg11.dtd" >
<svg xmlns="http://www.w3.org/2000/svg" xmlns:xlink="http://www.w3.org/1999/xlink" version="1.1" viewBox="0 -410 2048 2048">
  <g transform="matrix(1 0 0 -1 0 1638)">
   <path fill="currentColor"
d="M881 942l-143 439q-5 15 4.5 28t25.5 12q210 -12 379 -134q169 -124 251 -324q6 -15 -3 -28.5t-25 -13.5h-460q-10 0 -18 6t-11 15zM1006 624l372 270q13 10 28 4.5t19 -21.5q24 -99 24 -183q0 -337 -264 -556q-12 -11 -27.5 -6t-20.5 20l-142 438q-3 9 0 18.5t11 15.5z
M742 407l372 -271q14 -9 13.5 -25.5t-14.5 -24.5q-185 -114 -389 -114q-202 0 -388 114q-14 8 -14.5 24.5t13.5 25.5l372 271q8 5 17.5 5t17.5 -5zM454 590l-141 -437q-5 -16 -21 -20.5t-28 6.5q-264 228 -264 557q0 86 25 182q4 15 19 20.5t28 -4.5l371 -270q8 -6 11 -15.5
t0 -18.5zM540 921h-460q-16 0 -25 13.5t-3 27.5q81 202 250 325q169 122 379 134q16 1 25.5 -12t4.5 -28l-142 -439q-3 -9 -11 -15t-18 -6z" />
  </g>

</svg>
