<?xml version="1.0" standalone="no"?>
<!DOCTYPE svg PUBLIC "-//W3C//DTD SVG 1.1//EN" "http://www.w3.org/Graphics/SVG/1.1/DTD/svg11.dtd" >
<svg xmlns="http://www.w3.org/2000/svg" xmlns:xlink="http://www.w3.org/1999/xlink" version="1.1" viewBox="0 -410 2048 2048">
  <g transform="matrix(1 0 0 -1 0 1638)">
   <path fill="currentColor"
d="M1045.29 443h-810.702q-19.9932 0 -30.4893 -14t-2.49902 -32q41.9844 -93 104.462 -166q62.4766 -73 147.445 -130q189.931 -130 428.844 -130q309.886 0 527.807 212q217.92 212 217.92 513t-217.92 513q-219.92 212 -527.807 212q-237.913 0 -428.844 -131
q-84.9688 -58 -147.445 -129.5q-62.4775 -71.5 -104.462 -164.5q-7.99707 -18 2.49902 -32t30.4893 -14h810.702q14.9951 0 27.4902 5q12.4961 5 12.4961 20v119q0 12 5.99707 20.5q5.99805 8.5 14.9951 12.5q8.99609 4 18.9922 2.5q9.99707 -1.5 18.9932 -9.5l408.851 -397
q10.9961 -11 10.4961 -26t-11.4961 -26l-407.851 -397q-8.99609 -9 -18.9932 -10.5q-9.99609 -1.5 -18.9922 2.5q-8.99707 4 -14.9951 13q-5.99707 9 -5.99707 21v119q0 15 -12.4961 19.5q-12.4951 4.5 -27.4902 4.5z" />
  </g>

</svg>
