<?xml version="1.0" standalone="no"?>
<!DOCTYPE svg PUBLIC "-//W3C//DTD SVG 1.1//EN" "http://www.w3.org/Graphics/SVG/1.1/DTD/svg11.dtd" >
<svg xmlns="http://www.w3.org/2000/svg" xmlns:xlink="http://www.w3.org/1999/xlink" version="1.1" viewBox="0 -410 2048 2048">
  <g transform="matrix(1 0 0 -1 0 1638)">
   <path fill="currentColor"
d="M1336 531q56 0 105.5 -21.5t86.5 -58.5t58.5 -86.5t21.5 -105.5t-21.5 -105.5t-58.5 -86.5t-86.5 -58.5t-105.5 -21.5t-105.5 21.5t-86.5 58.5t-58.5 86.5t-21.5 105.5v151h-303v-151q0 -56 -21.5 -105.5t-58.5 -86.5t-86.5 -58.5t-105.5 -21.5t-105.5 21.5t-86.5 58.5
t-58.5 86.5t-21.5 105.5t21.5 105.5t58.5 86.5t86.5 58.5t105.5 21.5h151v303h-151q-56 0 -105.5 21.5t-86.5 58.5t-58.5 86.5t-21.5 105.5t21.5 105.5t58.5 86.5t86.5 58.5t105.5 21.5t105.5 -21.5t86.5 -58.5t58.5 -86.5t21.5 -105.5v-151h303v151q0 56 21.5 105.5
t58.5 86.5t86.5 58.5t105.5 21.5t105.5 -21.5t86.5 -58.5t58.5 -86.5t21.5 -105.5t-21.5 -105.5t-58.5 -86.5t-86.5 -58.5t-105.5 -21.5h-151v-303h151zM1185 955h151q31 0 58.5 12t48 32t32.5 47.5t12 59.5q0 31 -12 58.5t-32.5 48t-48 32.5t-58.5 12q-32 0 -59.5 -12
t-47.5 -32.5t-32 -48t-12 -58.5v-151zM640 955v151q0 31 -12 58.5t-32 48t-48 32.5t-59 12t-58.5 -12t-48 -32.5t-32.5 -48t-12 -58.5q0 -32 12 -59.5t32.5 -47.5t48 -32t58.5 -12h151zM640 410h-151q-31 0 -58.5 -12t-48 -32t-32.5 -48t-12 -59t12 -58.5t32.5 -48t48 -32.5
t58.5 -12t59 12t48 32.5t32 48t12 58.5v151zM1064 531v303h-303v-303h303zM1336 108q31 0 58.5 12t48 32.5t32.5 48t12 58.5t-12 59t-32.5 48t-48 32t-58.5 12h-151v-151q0 -31 12 -58.5t32 -48t47.5 -32.5t59.5 -12z" />
  </g>

</svg>
