<?xml version="1.0" standalone="no"?>
<!DOCTYPE svg PUBLIC "-//W3C//DTD SVG 1.1//EN" "http://www.w3.org/Graphics/SVG/1.1/DTD/svg11.dtd" >
<svg xmlns="http://www.w3.org/2000/svg" xmlns:xlink="http://www.w3.org/1999/xlink" version="1.1" viewBox="0 -410 2048 2048">
  <g transform="matrix(1 0 0 -1 0 1638)">
   <path fill="currentColor"
d="M1092 946h-138q-8 -61 -34 -114.5t-68 -94.5t-95 -68t-113 -34v-542h-90v542q-62 7 -115 34t-94 68t-68 94.5t-35 114.5h-136v89h136q8 61 35 114.5t68 94.5t94 67.5t115 34.5v138h90v-138q60 -8 113 -34.5t95 -67.5t68 -94.5t34 -114.5h138v-89zM864 1035
q-8 42 -27 79.5t-48 66.5t-66 48.5t-79 26.5v-131l-24 -48q24 -6 42 -23.5t24 -42.5l48 24h130zM554 1256q-42 -7 -79 -26.5t-66 -48.5t-49 -66.5t-26 -79.5h130l48 -24q6 25 24 42.5t42 23.5l-24 48v131zM334 946q6 -42 26 -79.5t49 -66.5t66 -48.5t79 -26.5v131l24 47
q-24 6 -42 24t-24 42l-48 -23h-130zM644 725q42 7 79 26.5t66 48.5t48 66.5t27 79.5h-130l-48 23q-6 -24 -24 -42t-42 -24l24 -47v-131z" />
  </g>

</svg>
