<?xml version="1.0" standalone="no"?>
<!DOCTYPE svg PUBLIC "-//W3C//DTD SVG 1.1//EN" "http://www.w3.org/Graphics/SVG/1.1/DTD/svg11.dtd" >
<svg xmlns="http://www.w3.org/2000/svg" xmlns:xlink="http://www.w3.org/1999/xlink" version="1.1" viewBox="0 -410 2048 2048">
  <g transform="matrix(1 0 0 -1 0 1638)">
   <path fill="currentColor"
d="M326 1093q12 12 24 1q168 -148 374 -148q204 0 374 148q14 10 24 -1l32 -31q12 -12 0 -26q-148 -174 -148 -371q0 -205 148 -374q4 -6 4 -14t-6 -13l-30 -30q-12 -10 -24 0q-172 148 -374 148t-374 -148q-12 -10 -24 0l-30 30q-6 5 -6 13t4 14q148 169 148 373
q0 202 -148 373q-4 5 -4 13t6 13zM946 420q10 -5 19 4t3 20q-40 105 -40 220t40 220q6 11 -3 20.5t-19 4.5q-108 -41 -222 -41t-222 41q-10 4 -19 -5t-3 -20q20 -52 30 -107t10 -112q0 -117 -40 -221q-6 -11 3 -20t19 -4q104 40 222 40t222 -40z" />
  </g>

</svg>
