<?xml version="1.0" standalone="no"?>
<!DOCTYPE svg PUBLIC "-//W3C//DTD SVG 1.1//EN" "http://www.w3.org/Graphics/SVG/1.1/DTD/svg11.dtd" >
<svg xmlns="http://www.w3.org/2000/svg" xmlns:xlink="http://www.w3.org/1999/xlink" version="1.1" viewBox="0 -410 2048 2048">
  <g transform="matrix(1 0 0 -1 0 1638)">
   <path fill="currentColor"
d="M181 712q0 9 6.5 15.5t14.5 6.5q183 15 308 121q159 135 177 364q1 8 7.5 14.5t14.5 6.5h31q9 0 15.5 -6t7.5 -15q21 -232 177 -364q126 -107 307 -120q9 -1 15 -7.5t6 -15.5v-31q0 -8 -6 -14.5t-15 -7.5q-185 -15 -308 -120q-159 -137 -177 -365q-1 -9 -7.5 -15
t-14.5 -6h-30q-9 0 -15.5 6.5t-7.5 14.5q-13 183 -121 308q-137 159 -364 177q-9 1 -15 7.5t-6 14.5v31zM1020 717q-187 88 -275 275q-6 13 -20 13t-20 -13q-86 -187 -276 -275q-13 -6 -13 -20t13 -20q90 -42 161 -113q72 -72 114 -163q6 -13 20.5 -13t19.5 13
q44 93 114 163.5t162 112.5q13 6 13 20t-13 20z" />
  </g>

</svg>
