<?xml version="1.0" standalone="no"?>
<!DOCTYPE svg PUBLIC "-//W3C//DTD SVG 1.1//EN" "http://www.w3.org/Graphics/SVG/1.1/DTD/svg11.dtd" >
<svg xmlns="http://www.w3.org/2000/svg" xmlns:xlink="http://www.w3.org/1999/xlink" version="1.1" viewBox="0 -410 2048 2048">
  <g transform="matrix(1 0 0 -1 0 1638)">
   <path fill="currentColor"
d="M1966 117h-913q-17 0 -28 13l-452 543q-9 11 -9 23.5t9 23.5l452 543q11 13 28 13h913q15 0 25.5 -10.5t10.5 -25.5v-1087q0 -15 -10.5 -25.5t-25.5 -10.5zM1905 269v855q0 15 -10.5 25.5t-25.5 10.5h-776q-17 0 -28 -13l-356 -427q-8 -11 -8 -23.5t8 -23.5l356 -427
q11 -13 28 -13h776q15 0 25.5 10.5t10.5 25.5zM1689 1032l22 -26q8 -10 8 -23t-8 -23l-201 -240q-8 -11 -8 -23.5t8 -23.5l201 -240q8 -10 8 -23t-8 -23l-22 -26q-11 -13 -27.5 -13t-27.5 13l-184 220q-11 13 -27.5 13t-27.5 -13l-183 -220q-11 -13 -28 -13t-28 13l-21 26
q-9 10 -9 23t9 23l200 240q9 11 9 23.5t-9 23.5l-200 240q-9 10 -9 23t9 23l21 26q11 13 28 13t28 -13l183 -220q11 -13 27.5 -13t27.5 13l184 220q11 13 27.5 13t27.5 -13z" />
  </g>

</svg>
