<?xml version="1.0" standalone="no"?>
<!DOCTYPE svg PUBLIC "-//W3C//DTD SVG 1.1//EN" "http://www.w3.org/Graphics/SVG/1.1/DTD/svg11.dtd" >
<svg xmlns="http://www.w3.org/2000/svg" xmlns:xlink="http://www.w3.org/1999/xlink" version="1.1" viewBox="0 -410 2048 2048">
  <g transform="matrix(1 0 0 -1 0 1638)">
   <path fill="currentColor"
d="M600.72 117h912.666q16.9932 0 27.9893 13l451.835 543q8.99707 11 8.99707 23.5t-8.99707 23.5l-451.835 543q-10.9961 13 -27.9893 13h-912.666q-14.9941 0 -25.4902 -10.5t-10.4961 -25.5v-1087q0 -15 10.4961 -25.5t25.4902 -10.5zM661.697 269v855
q0 15 10.4961 25.5t25.4912 10.5h775.716q16.9941 0 27.9893 -13l355.87 -427q7.99707 -11 7.99707 -23.5t-7.99707 -23.5l-355.87 -427q-10.9951 -13 -27.9893 -13h-775.716q-14.9951 0 -25.4912 10.5t-10.4961 25.5zM877.618 1032l-21.9912 -26q-7.99707 -10 -7.99707 -23
t7.99707 -23l200.926 -240q7.99707 -11 7.99707 -23.5t-7.99707 -23.5l-200.926 -240q-7.99707 -10 -7.99707 -23t7.99707 -23l21.9912 -26q10.9961 -13 27.4902 -13t27.4902 13l183.933 220q10.9961 13 27.4893 13q16.4941 0 27.4902 -13l182.933 -220
q10.9961 -13 27.9902 -13t27.9902 13l20.9922 26q8.99609 10 8.99609 23t-8.99609 23l-199.927 240q-8.99707 11 -8.99707 23.5t8.99707 23.5l199.927 240q8.99609 10 8.99609 23t-8.99609 23l-20.9922 26q-10.9961 13 -27.9902 13t-27.9902 -13l-182.933 -220
q-10.9961 -13 -27.4902 -13q-16.4932 0 -27.4893 13l-183.933 220q-10.9961 13 -27.4902 13t-27.4902 -13z" />
  </g>

</svg>
