<?xml version="1.0" standalone="no"?>
<!DOCTYPE svg PUBLIC "-//W3C//DTD SVG 1.1//EN" "http://www.w3.org/Graphics/SVG/1.1/DTD/svg11.dtd" >
<svg xmlns="http://www.w3.org/2000/svg" xmlns:xlink="http://www.w3.org/1999/xlink" version="1.1" viewBox="-2 -410 2048 2048">
  <g transform="matrix(1 0 0 -1 0 1638)">
   <path fill="currentColor"
d="M-2 710q0 301 212 512q214 212 512 212q300 0 512 -212q214 -213 214 -512q0 -300 -214 -513q-212 -212 -512 -212t-512 212q-212 211 -212 513zM96 710q0 -262 182 -445q184 -183 444 -183t446 183q184 186 184 445q0 260 -184 444q-186 184 -446 184t-444 -184
q-182 -182 -182 -444zM622 735q-156 72 -156 211q0 97 72 158q76 61 188 61q106 0 174 -58q68 -57 68 -147q0 -145 -164 -225v-2q192 -69 192 -236q0 -108 -80 -174q-78 -64 -220 -64q-118 0 -188 64q-74 63 -74 165q0 168 188 244v3zM716 679q-8 3 -16 0
q-154 -66 -154 -185q0 -64 48 -104q46 -41 124 -41q72 0 120 41q46 40 46 101q0 125 -168 188zM856 947q0 58 -38 93q-38 34 -100 34q-84 0 -132 -74l-4 -7q-30 -140 126 -209q6 -3 14 0q134 59 134 163z" />
  </g>

</svg>
