<?xml version="1.0" standalone="no"?>
<!DOCTYPE svg PUBLIC "-//W3C//DTD SVG 1.1//EN" "http://www.w3.org/Graphics/SVG/1.1/DTD/svg11.dtd" >
<svg xmlns="http://www.w3.org/2000/svg" xmlns:xlink="http://www.w3.org/1999/xlink" version="1.1" viewBox="-2 -410 2048 2048">
  <g transform="matrix(1 0 0 -1 0 1638)">
   <path fill="currentColor"
d="M1234 1222q214 -213 214 -512q0 -300 -214 -513q-212 -212 -512 -212t-512 212q-212 211 -212 513q0 301 212 512q214 212 512 212q300 0 512 -212zM916 323q80 66 80 174q0 167 -192 236v2q164 80 164 225q0 90 -68 147q-68 58 -174 58q-112 0 -188 -61
q-72 -61 -72 -158q0 -139 156 -211v-3q-188 -76 -188 -244q0 -102 74 -165q70 -64 188 -64q142 0 220 64zM722 784q-8 -3 -14 0q-156 69 -126 209l4 7q48 74 132 74q62 0 100 -34q38 -35 38 -93q0 -104 -134 -163zM716 679q168 -63 168 -188q0 -61 -46 -101
q-48 -41 -120 -41q-78 0 -124 41q-48 40 -48 104q0 119 154 185q8 3 16 0z" />
  </g>

</svg>
