<?xml version="1.0" standalone="no"?>
<!DOCTYPE svg PUBLIC "-//W3C//DTD SVG 1.1//EN" "http://www.w3.org/Graphics/SVG/1.1/DTD/svg11.dtd" >
<svg xmlns="http://www.w3.org/2000/svg" xmlns:xlink="http://www.w3.org/1999/xlink" version="1.1" viewBox="0 -410 2048 2048">
  <g transform="matrix(1 0 0 -1 0 1638)">
   <path fill="currentColor"
d="M545.528 1184q-212.909 -212 -212.909 -512q0 -298 212.909 -512q211.909 -212 511.781 -212q300.871 0 511.781 211q211.909 212 211.909 513q0 300 -211.909 512q-210.91 213 -511.781 213q-299.872 0 -511.781 -213zM596.506 212q-96.958 97 -143.938 210
q-46.9795 113 -46.9795 250q0 138 46.9795 251q46.9805 113 143.938 210q96.959 97 209.911 144q112.951 47 250.893 47q136.941 0 250.393 -47q113.452 -47 210.41 -144q189.919 -190 189.919 -461q0 -137 -46.4805 -250.5q-46.4795 -113.5 -143.438 -210.5
q-96.958 -97 -210.41 -144q-113.451 -47 -250.393 -47q-137.941 0 -250.893 47.5q-112.952 47.5 -209.911 144.5zM1641.06 639q13.9941 0 23.4902 9.5t9.49609 23.5v1q0 14 -9.49609 23.5t-23.4902 9.5t-23.4893 -9.5q-9.49609 -9.5 -9.49609 -23.5v-1q0 -14 9.49609 -23.5
q9.49512 -9.5 23.4893 -9.5zM506.545 672v1q0 14 -9.49609 23.5t-23.4902 9.5t-23.4893 -9.5q-9.49609 -9.5 -9.49609 -23.5v-1q0 -14 9.49609 -23.5q9.49512 -9.5 23.4893 -9.5t23.4902 9.5t9.49609 23.5zM1057.31 123h-1q-13.9941 0 -23.4902 -9.5
q-9.49512 -9.5 -9.49512 -23.5t9.49512 -23.5q9.49609 -9.5 23.4902 -9.5h1q13.9941 0 23.4893 9.5q9.49609 9.5 9.49609 23.5t-9.49609 23.5q-9.49512 9.5 -23.4893 9.5zM1578.09 935l0.999023 1q11.9951 7 15.4941 20q3.49805 13 -3.49902 25v1q-6.99707 11 -19.9912 15
t-24.9893 -3l-1 -1q-11.9951 -7 -15.4932 -20t3.49805 -25q6.99707 -12 20.4922 -16q13.4941 -4 24.4893 3zM581.513 397v1q-6.99707 12 -20.4912 15.5t-24.4893 -3.5h-1q-11.9951 -7 -15.4932 -20q-3.49902 -13 3.49805 -25v-1q6.99707 -12 19.9922 -15.5
q12.9941 -3.5 24.9893 3.5h0.999023q11.9951 8 15.4932 21q3.49902 13 -3.49805 24zM793.422 1195q-6.99707 12 -19.9912 15.5t-24.9893 -3.5h-1q-10.9951 -8 -14.9932 -21t2.99902 -24v-1q7.99609 -12 20.9902 -15.5q12.9951 -3.5 24.9902 3.5l0.999023 1
q10.9951 7 14.4941 20q3.49805 13 -3.49902 25zM1331.19 197v-1q-11.9951 -7 -15.4932 -20q-3.49902 -13 3.49805 -25t19.9912 -15.5q12.9951 -3.5 24.9893 3.5h1q10.9951 7 14.9932 20q3.99902 13 -2.99805 25l-1 1q-6.99707 11 -19.9912 15t-24.9893 -3zM1377.17 1162
q7.99609 11 3.99805 24.5t-15.9932 20.5t-24.9893 3.5t-19.9912 -15.5q-6.99707 -11 -3.49902 -24.5q3.49902 -13.5 15.4932 -20.5h1q10.9951 -7 23.9902 -3.5q12.9941 3.5 19.9912 15.5zM782.427 196q-11.9951 8 -24.9893 4t-20.9912 -15v-1q-6.99707 -12 -3.49805 -25
q3.49805 -13 15.4932 -20t24.9893 -3.5t19.9912 15.5l1 1q6.99707 11 2.99805 24q-3.99805 13 -14.9932 20zM567.519 993q-10.9951 8 -24.4893 4t-20.4912 -16t-3.49902 -25q3.49902 -13 15.4941 -20q10.9951 -7 24.4893 -3.5t20.4912 15.5t3.49805 25
q-3.49805 13 -15.4932 20zM1532.11 398v-1q-6.99707 -11 -3.49902 -24q3.49902 -13 15.4941 -21h0.999023q11.9951 -7 24.9893 -3.5q12.9951 3.5 19.9922 15.5v1q6.99609 12 3.49805 25t-15.4932 20h-1q-10.9951 7 -23.9893 3.5q-12.9951 -3.5 -20.9912 -15.5zM1057.31 636
q14.9932 0 25.4893 10.5q10.4951 10.5 10.4951 25.5v580q0 15 -10.4951 25.5q-10.4961 10.5 -25.4893 10.5q-14.9941 0 -25.9893 -10.5t-10.9951 -25.5v-580q0 -15 10.9951 -25.5t25.9893 -10.5zM1088.3 690q-7.99609 14 -21.9902 18t-27.9883 -4l-375.839 -218
q-12.9951 -8 -16.9932 -22t3.99805 -27q7.99707 -13 21.9912 -17t26.9883 4l376.839 217q12.9941 8 16.9922 22q3.99902 14 -3.99805 27z" />
  </g>

</svg>
