<?xml version="1.0" standalone="no"?>
<!DOCTYPE svg PUBLIC "-//W3C//DTD SVG 1.1//EN" "http://www.w3.org/Graphics/SVG/1.1/DTD/svg11.dtd" >
<svg xmlns="http://www.w3.org/2000/svg" xmlns:xlink="http://www.w3.org/1999/xlink" version="1.1" viewBox="0 -410 2048 2048">
  <g transform="matrix(1 0 0 -1 0 1638)">
   <path fill="currentColor"
d="M545.528 1208q-212.909 -212 -212.909 -512q0 -298 212.909 -511q211.909 -213 511.781 -213q300.871 0 511.781 212q211.909 211 211.909 512q0 300 -211.909 512q-210.91 213 -511.781 213q-299.872 0 -511.781 -213zM596.506 236q-96.958 97 -143.938 210
q-46.9795 113 -46.9795 250q0 138 46.9795 251q46.9805 113 143.938 210q96.959 97 209.911 144q112.951 47 250.893 47q136.941 0 250.393 -47q113.452 -47 210.41 -144q96.959 -97 143.438 -210q46.4805 -113 46.4805 -251q0 -137 -46.4805 -250.5
q-46.4795 -113.5 -143.438 -210.5q-96.958 -97 -210.41 -143.5q-113.451 -46.5 -250.393 -46.5q-137.941 0 -250.893 47q-112.952 47 -209.911 144zM1641.06 663q13.9941 0 23.4902 9.5t9.49609 23.5v1q0 14 -9.49609 23.5t-23.4902 9.5t-23.4893 -9.5
q-9.49609 -9.5 -9.49609 -23.5v-1q0 -14 9.49609 -23.5q9.49512 -9.5 23.4893 -9.5zM506.545 696v1q0 14 -9.49609 23.5t-23.4902 9.5t-23.4893 -9.5q-9.49609 -9.5 -9.49609 -23.5v-1q0 -14 9.49609 -23.5q9.49512 -9.5 23.4893 -9.5t23.4902 9.5t9.49609 23.5z
M1057.31 147h-1q-13.9941 0 -23.4902 -9.5q-9.49512 -9.5 -9.49512 -23.5t9.49512 -23.5q9.49609 -9.5 23.4902 -9.5h1q13.9941 0 23.4893 9.5q9.49609 9.5 9.49609 23.5t-9.49609 23.5q-9.49512 9.5 -23.4893 9.5zM1578.09 960h0.999023q11.9951 7 15.4941 20
q3.49805 13 -3.49902 25v1q-6.99707 11 -19.9912 15t-24.9893 -3l-1 -1q-11.9951 -7 -15.4932 -20t3.49805 -25q6.99707 -12 20.4922 -15.5q13.4941 -3.5 24.4893 3.5zM581.513 422q-6.99707 12 -20.4912 15.5t-24.4893 -3.5h-1q-11.9951 -7 -15.4932 -20
q-3.49902 -13 3.49805 -25v-1q6.99707 -11 19.9922 -15q12.9941 -4 24.9893 3l0.999023 1q11.9951 7 15.4932 20q3.49902 13 -3.49805 25zM793.422 1219q-6.99707 12 -19.9912 15.5t-24.9893 -3.5h-1q-10.9951 -7 -14.9932 -20t2.99902 -25v-1q7.99609 -11 20.9902 -15
q12.9951 -4 24.9902 4h0.999023q10.9951 7 14.9932 20q3.99902 13 -3.99805 25zM1331.19 221q-11.9951 -8 -15.4932 -21q-3.49902 -13 3.49805 -24v-1q6.99707 -12 19.9912 -15.5q12.9951 -3.5 24.9893 3.5h1q10.9951 7 14.9932 20q3.99902 13 -2.99805 25l-1 1
q-6.99707 12 -19.9912 15.5t-24.9893 -3.5zM1377.17 1186q7.99609 11 3.99805 24.5t-15.9932 20.5t-24.9893 3.5t-19.9912 -15.5q-6.99707 -11 -3.49902 -24.5q3.49902 -13.5 15.4932 -20.5h1q10.9951 -7 23.9902 -3.5q12.9941 3.5 19.9912 15.5zM782.427 221
q-11.9951 7 -24.9893 3t-20.9912 -15v-1q-6.99707 -12 -3.49805 -25q3.49805 -13 15.4932 -20t24.9893 -3.5t19.9912 15.5l1 1q6.99707 11 2.99805 24q-3.99805 13 -14.9932 21zM567.519 1017q-10.9951 8 -24.4893 4t-20.4912 -16t-3.49902 -25q3.49902 -13 15.4941 -20
q10.9951 -7 24.4893 -3.5t20.4912 15.5v1q6.99707 11 3.49805 24q-3.49805 13 -15.4932 20zM1532.11 422q-6.99707 -12 -3.49902 -25q3.49902 -13 15.4941 -20l0.999023 -1q11.9951 -7 24.9893 -3q12.9951 4 19.9922 15v1q6.99609 12 3.49805 25t-15.4932 20h-1
q-10.9951 7 -24.4893 3.5t-20.4912 -15.5zM1057.31 660q14.9932 0 25.4893 10.5q10.4951 10.5 10.4951 25.5v580q0 15 -10.4951 25.5q-10.4961 10.5 -25.4893 10.5q-15.9932 0 -26.4893 -10.5q-10.4951 -10.5 -10.4951 -25.5v-580q0 -15 10.4951 -25.5
q10.4961 -10.5 26.4893 -10.5zM1075.3 665q12.9941 8 16.9922 22q3.99902 14 -3.99805 28l-216.907 376q-7.99609 13 -22.4902 17t-27.4883 -4t-16.9932 -22q-3.99805 -14 3.99902 -27l216.907 -377q7.99609 -13 21.9902 -17t27.9883 4z" />
  </g>

</svg>
