<?xml version="1.0" standalone="no"?>
<!DOCTYPE svg PUBLIC "-//W3C//DTD SVG 1.1//EN" "http://www.w3.org/Graphics/SVG/1.1/DTD/svg11.dtd" >
<svg xmlns="http://www.w3.org/2000/svg" xmlns:xlink="http://www.w3.org/1999/xlink" version="1.1" viewBox="0 -410 2132 2048">
  <g transform="matrix(1 0 0 -1 0 1638)">
   <path fill="currentColor"
d="M2131 1440q0 -1 0.5 -2t0.5 -2v-1323q0 -15 -9.5 -24.5t-24.5 -9.5h-1986q-14 0 -23.5 9.5t-9.5 24.5v1323q0 3 1 4q0 5 1 7q0 3 3 6q1 1 1 4q1 0 1 0.5t1 0.5q1 2 2 2.5t3 2.5q1 1 2.5 1.5t2.5 1.5q2 1 6 1q2 2 3.5 2t3.5 1h2h1986h3q2 -1 3.5 -1t3.5 -2q4 0 6 -1
q1 -1 2.5 -1.5t2.5 -1.5q1 -2 2 -2.5t3 -2.5l2 -1q0 -3 1 -4q1 -2 2 -3t1 -3q1 -2 1 -7zM213 1404l892 -654l893 654h-1785zM2066 145v1226l-941 -690q-9 -6 -20 -6q-10 0 -19 6l-941 690v-1226h1921z" />
  </g>

</svg>
