<?xml version="1.0" standalone="no"?>
<!DOCTYPE svg PUBLIC "-//W3C//DTD SVG 1.1//EN" "http://www.w3.org/Graphics/SVG/1.1/DTD/svg11.dtd" >
<svg xmlns="http://www.w3.org/2000/svg" xmlns:xlink="http://www.w3.org/1999/xlink" version="1.1" viewBox="0 -410 2048 2048">
  <g transform="matrix(1 0 0 -1 0 1638)">
   <path fill="currentColor"
d="M605 1143q-11 0 -19 8t-8 20q0 11 8 19t19 8h401q12 0 20 -8t8 -19q0 -12 -8 -20t-20 -8h-401zM578 904q0 12 8 20t19 8h667q12 0 20.5 -8t8.5 -20q0 -11 -8.5 -19t-20.5 -8h-667q-11 0 -19 8t-8 19zM1272 664q12 0 20.5 -8t8.5 -19q0 -12 -8.5 -20t-20.5 -8h-667
q-11 0 -19 8t-8 20q0 11 8 19t19 8h667zM1272 398q12 0 20.5 -8t8.5 -20q0 -11 -8.5 -19t-20.5 -8h-667q-11 0 -19 8t-8 19q0 12 8 20t19 8h667zM1455 1196q24 -26 24 -59v-856q0 -43 -16.5 -80.5t-44.5 -65.5t-65.5 -44t-80.5 -16h-1023v2q-34 4 -63.5 20t-51 40t-34 55.5
t-12.5 67.5v421q0 24 9.5 45.5t25 37.5t36.5 25.5t45 9.5h196v550q0 24 9 45.5t25 37t37 25t45 9.5h642q17 0 33 -7t27 -18zM400 742h-196q-25 0 -43 -17.5t-18 -43.5v-421q0 -27 10 -50.5t27.5 -41t41 -28t50.5 -10.5q26 0 49.5 10.5t41 28t27.5 41t10 50.5v482zM1210 1215
q0 -11 8 -19.5t20 -8.5h147l-175 182v-154zM1424 1132h-186q-35 0 -59 24t-24 59v196h-639q-25 0 -43 -18t-18 -44v-550v-28v-511q0 -38 -14 -71t-39 -59h870q31 0 58.5 12t48.5 32t33 47.5t12 59.5v851z" />
  </g>

</svg>
