<?xml version="1.0" standalone="no"?>
<!DOCTYPE svg PUBLIC "-//W3C//DTD SVG 1.1//EN" "http://www.w3.org/Graphics/SVG/1.1/DTD/svg11.dtd" >
<svg xmlns="http://www.w3.org/2000/svg" xmlns:xlink="http://www.w3.org/1999/xlink" version="1.1" viewBox="0 -410 2048 2048">
  <g transform="matrix(1 0 0 -1 0 1638)">
   <path fill="currentColor"
d="M1044 761q10 0 16 -7t6 -16t-6 -15.5t-16 -6.5h-538q-10 0 -16 6.5t-6 15.5t6 16t16 7h538zM1044 545q10 0 16 -6t6 -15q0 -11 -6 -17t-16 -6h-538q-22 0 -22 23q0 9 6 15t16 6h538zM1044 330q10 0 16 -6.5t6 -15.5t-6 -16t-16 -7h-538q-10 0 -16 7t-6 16t6 15.5t16 6.5
h538zM506 932q-22 0 -22 22q0 9 6 15.5t16 6.5h322q10 0 17 -6.5t7 -15.5q0 -10 -7 -16t-17 -6h-322zM1412 1461q28 0 48 -19.5t20 -47.5v-1032q0 -29 -20 -48.5t-48 -19.5h-68v-67q0 -28 -19 -47.5t-47 -19.5h-88q-20 -40 -59 -65t-87 -25h-826v2q-26 3 -50 16t-42 32.5
t-28 44.5t-10 54v341q0 19 8 36t20 29.5t29 20t37 7.5h158v444q0 19 7 36.5t20 30.5t30 20.5t37 7.5h14v67q0 28 19 47.5t47 19.5h68v68q0 28 19 47.5t47 19.5h764zM340 609h-158q-20 0 -35 -14.5t-15 -34.5v-341q0 -22 8 -41t23 -33.5t34 -22.5t39 -8q22 0 41 8t33 22.5
t22 33.5t8 41v390zM1164 1102q0 18 -13 31t-31 13h-686q-20 0 -35 -14t-15 -35v-444v-23v-411q0 -31 -11 -57.5t-31 -47.5h702q24 0 46 10t39 26.5t26 38.5t9 47v866zM1300 1259q0 9 -7 15.5t-15 6.5h-764q-8 0 -15 -6.5t-7 -15.5v-67h628q38 0 64 -26.5t26 -63.5v-866
q0 -17 -4 -32h72q8 0 15 7t7 16v1032zM1434 1394q0 9 -6 15.5t-16 6.5h-764q-8 0 -14 -6.5t-6 -15.5v-68h650q28 0 47 -19.5t19 -47.5v-920h68q10 0 16 7t6 16v1032z" />
  </g>

</svg>
