<?xml version="1.0" standalone="no"?>
<!DOCTYPE svg PUBLIC "-//W3C//DTD SVG 1.1//EN" "http://www.w3.org/Graphics/SVG/1.1/DTD/svg11.dtd" >
<svg xmlns="http://www.w3.org/2000/svg" xmlns:xlink="http://www.w3.org/1999/xlink" version="1.1" viewBox="0 -410 2048 2048">
  <g transform="matrix(1 0 0 -1 0 1638)">
   <path fill="currentColor"
d="M1364 1450q24 0 44 -9t35 -24t24 -35.5t9 -43.5v-1073q0 -43 -16 -80.5t-44 -65.5t-66 -44t-80 -16h-1024v2q-34 4 -63 20t-51 40t-34 55.5t-12 67.5v421q0 24 9 45.5t25 37.5t37 25.5t45 9.5h196v550q0 24 9 45.5t25 37t37 25t45 9.5h850zM398 726h-196q-26 0 -44 -17.5
t-18 -43.5v-421q0 -27 10 -50.5t28 -41t41 -28t51 -10.5q26 0 49 10.5t41 28t28 41t10 50.5v482zM1422 1338q0 23 -17 40t-41 17h-850q-26 0 -44 -18t-18 -44v-550v-29v-510q0 -38 -14 -71t-38 -59h870q30 0 58 12t49 32t33 47.5t12 59.5v1073zM602 1127q-10 0 -18 8t-8 20
q0 11 8 19t18 8h402q12 0 20 -8t8 -19q0 -12 -8 -20t-20 -8h-402zM1270 916q12 0 20 -8t8 -20q0 -11 -8 -19t-20 -8h-668q-10 0 -18 8t-8 19q0 12 8 20t18 8h668zM1270 648q12 0 20 -8t8 -19q0 -12 -8 -20t-20 -8h-668q-10 0 -18 8t-8 20q0 11 8 19t18 8h668zM1270 382
q12 0 20 -8t8 -20q0 -11 -8 -19t-20 -8h-668q-10 0 -18 8t-8 19q0 12 8 20t18 8h668z" />
  </g>

</svg>
