<?xml version="1.0" standalone="no"?>
<!DOCTYPE svg PUBLIC "-//W3C//DTD SVG 1.1//EN" "http://www.w3.org/Graphics/SVG/1.1/DTD/svg11.dtd" >
<svg xmlns="http://www.w3.org/2000/svg" xmlns:xlink="http://www.w3.org/1999/xlink" version="1.1" viewBox="-3 -410 2048 2048">
  <g transform="matrix(1 0 0 -1 0 1638)">
   <path fill="currentColor"
d="M-3 694q0 300 212 512t513 212q298 0 512 -212q212 -214 212 -512q0 -299 -212 -513q-212 -212 -512 -212q-302 0 -513 212q-212 211 -212 513zM94 694q0 -261 183 -445q184 -183 445 -183t444 183q184 186 184 445q0 260 -184 444t-444 184q-259 0 -445 -184
q-183 -183 -183 -444zM473 360q0 11 9 16t17 0q76 -42 158 -42q90 0 146 51t56 134q0 84 -57 131q-56 47 -163 47q-23 0 -52.5 -1.5t-66.5 -5.5q-8 0 -14 5t-6 13v408q0 8 5 13t13 5h395q8 0 13.5 -5t5.5 -13v-62q0 -8 -5.5 -13t-13.5 -5h-292q-8 0 -13 -5t-5 -13v-211
q0 -8 5.5 -13t13.5 -5q18 1 31.5 1.5t23.5 0.5q140 0 217 -70q77 -71 77 -194q0 -126 -83 -206q-84 -78 -230 -78q-114 0 -175 31q-10 5 -10 16v70z" />
  </g>

</svg>
