<?xml version="1.0" standalone="no"?>
<!DOCTYPE svg PUBLIC "-//W3C//DTD SVG 1.1//EN" "http://www.w3.org/Graphics/SVG/1.1/DTD/svg11.dtd" >
<svg xmlns="http://www.w3.org/2000/svg" xmlns:xlink="http://www.w3.org/1999/xlink" version="1.1" viewBox="0 -410 2048 2048">
  <g transform="matrix(1 0 0 -1 0 1638)">
   <path fill="currentColor"
d="M1445 1230q19 -18 29.5 -43t10.5 -51v-1024q0 -12 -8 -20t-20 -8h-1335q-12 0 -20 8t-8 20v1335q0 12 8 20t20 8h1024q26 0 51 -10.5t43 -29.5zM1430 1136q0 16 -6 30.5t-17 25.5l-205 205q-11 11 -25.5 17t-30.5 6h-997v-1281h1281v997zM389 952q-11 0 -19 8t-8 19v335
q0 11 8 19.5t19 8.5h735q11 0 19 -8.5t8 -19.5v-335q0 -11 -8 -19t-19 -8h-735zM417 1008h439v144q0 12 8.5 20t19.5 8h78q11 0 19 -8t8 -20v-144h106v277h-678v-277zM1324 740q11 0 19.5 -8t8.5 -19v-468q0 -11 -8.5 -19.5t-19.5 -8.5h-1069q-11 0 -19.5 8.5t-8.5 19.5v468
q0 11 8.5 19t19.5 8h1069zM1295 685h-1011v-411h1011v411zM400 502q-12 0 -20 8t-8 19q0 12 8 20t20 8h779q11 0 19 -8t8 -20q0 -11 -8 -19t-19 -8h-779zM400 390q-12 0 -20 8t-8 20q0 11 8 19t20 8h779q11 0 19 -8t8 -19q0 -12 -8 -20t-19 -8h-779z" />
  </g>

</svg>
