<?xml version="1.0" standalone="no"?>
<!DOCTYPE svg PUBLIC "-//W3C//DTD SVG 1.1//EN" "http://www.w3.org/Graphics/SVG/1.1/DTD/svg11.dtd" >
<svg xmlns="http://www.w3.org/2000/svg" xmlns:xlink="http://www.w3.org/1999/xlink" version="1.1" viewBox="0 -410 2048 2048">
  <g transform="matrix(1 0 0 -1 0 1638)">
   <path fill="currentColor"
d="M1 699q0 300 212 512q213 213 513 213q299 0 512 -213q212 -212 212 -512q0 -301 -212 -512q-212 -212 -512 -212q-302 0 -513 212q-212 211 -212 512zM98 699q0 -261 183 -444q184 -183 445 -183t444 183q184 184 184 444q0 261 -184 445t-444 184q-259 0 -445 -184
q-183 -183 -183 -445zM997 491h-76q-8 0 -13 -5t-5 -13v-192q0 -8 -5 -13t-13 -5h-71q-8 0 -13 5t-5 13v192q0 8 -5 13t-13 5h-373q-8 0 -13 5t-5 13v48q0 5 3 10l379 565q6 8 16 8h100q8 0 13 -5t5 -13v-525q0 -8 5 -13.5t13 -5.5h76q8 0 13 -5t5 -13v-51q0 -8 -5 -13
t-13 -5zM778 578q8 0 13 5.5t5 13.5v349q0 20 0.5 42t1.5 48h-2q-4 -11 -11.5 -27.5t-21.5 -39.5l-1 -1l-242 -361q-6 -9 -1 -19t16 -10h243z" />
  </g>

</svg>
