<?xml version="1.0" standalone="no"?>
<!DOCTYPE svg PUBLIC "-//W3C//DTD SVG 1.1//EN" "http://www.w3.org/Graphics/SVG/1.1/DTD/svg11.dtd" >
<svg xmlns="http://www.w3.org/2000/svg" xmlns:xlink="http://www.w3.org/1999/xlink" version="1.1" viewBox="0 -410 2048 2048">
  <g transform="matrix(1 0 0 -1 0 1638)">
   <path fill="currentColor"
d="M1236 1184q213 -212 213 -512q0 -298 -213 -512q-212 -212 -512 -212q-301 0 -512 211q-212 212 -212 513q0 300 212 512q211 213 512 213q300 0 512 -213zM1185 212q97 97 144 210t47 250q0 138 -47 251t-144 210t-210 144t-251 47q-137 0 -250.5 -47t-210.5 -144
q-190 -190 -190 -461q0 -137 46.5 -250.5t143.5 -210.5t210.5 -144t250.5 -47q138 0 251 47.5t210 144.5zM140 639q-14 0 -23.5 9.5t-9.5 23.5v1q0 14 9.5 23.5t23.5 9.5t23.5 -9.5t9.5 -23.5v-1q0 -14 -9.5 -23.5t-23.5 -9.5zM1275 672v1q0 14 9.5 23.5t23.5 9.5t23.5 -9.5
t9.5 -23.5v-1q0 -14 -9.5 -23.5t-23.5 -9.5t-23.5 9.5t-9.5 23.5zM724 123h1q14 0 23.5 -9.5t9.5 -23.5t-9.5 -23.5t-23.5 -9.5h-1q-14 0 -23.5 9.5t-9.5 23.5t9.5 23.5t23.5 9.5zM203 935l-1 1q-12 7 -15.5 20t3.5 25v1q7 11 20 15t25 -3l1 -1q12 -7 15.5 -20t-3.5 -25
t-20.5 -16t-24.5 3zM1200 397v1q7 12 20.5 15.5t24.5 -3.5h1q12 -7 15.5 -20t-3.5 -25v-1q-7 -12 -20 -15.5t-25 3.5h-1q-12 8 -15.5 21t3.5 24zM988 1195q7 12 20 15.5t25 -3.5h1q11 -8 15 -21t-3 -24v-1q-8 -12 -21 -15.5t-25 3.5l-1 1q-11 7 -14.5 20t3.5 25zM450 197v-1
q12 -7 15.5 -20t-3.5 -25t-20 -15.5t-25 3.5h-1q-11 7 -15 20t3 25l1 1q7 11 20 15t25 -3zM404 1162q-8 11 -4 24.5t16 20.5t25 3.5t20 -15.5q7 -11 3.5 -24.5t-15.5 -20.5h-1q-11 -7 -24 -3.5t-20 15.5zM999 196q12 8 25 4t21 -15v-1q7 -12 3.5 -25t-15.5 -20t-25 -3.5
t-20 15.5l-1 1q-7 11 -3 24t15 20zM1214 993q11 8 24.5 4t20.5 -16t3.5 -25t-15.5 -20q-11 -7 -24.5 -3.5t-20.5 15.5t-3.5 25t15.5 20zM249 398v-1q7 -11 3.5 -24t-15.5 -21h-1q-12 -7 -25 -3.5t-20 15.5v1q-7 12 -3.5 25t15.5 20h1q11 7 24 3.5t21 -15.5zM724 636
q-15 0 -25.5 10.5t-10.5 25.5v580q0 15 10.5 25.5t25.5 10.5t26 -10.5t11 -25.5v-580q0 -15 -11 -25.5t-26 -10.5zM693 690q8 14 22 18t28 -4l376 -218q13 -8 17 -22t-4 -27t-22 -17t-27 4l-377 217q-13 8 -17 22t4 27z" />
  </g>

</svg>
