<?xml version="1.0" standalone="no"?>
<!DOCTYPE svg PUBLIC "-//W3C//DTD SVG 1.1//EN" "http://www.w3.org/Graphics/SVG/1.1/DTD/svg11.dtd" >
<svg xmlns="http://www.w3.org/2000/svg" xmlns:xlink="http://www.w3.org/1999/xlink" version="1.1" viewBox="0 -410 2048 2048">
  <g transform="matrix(1 0 0 -1 0 1638)">
   <path fill="currentColor"
d="M1178 1199q17 -18 26 -40t10 -45t-7.5 -45t-25.5 -40q-1 -1 -19 -18.5t-45 -49t-59 -75t-61 -96.5t-51.5 -114t-30.5 -126q-11 -95 -39 -160t-75 -103q2 -4 2 -12q0 -41 -15.5 -77t-42.5 -63t-63 -42.5t-77 -15.5h-224q-41 0 -77 15.5t-62.5 42.5t-42 63t-15.5 77
q0 2 0.5 4t0.5 4q-113 68 -113 328v222q0 11 7 18q-3 10 -5 19.5t-2 18.5v140q0 24 9 44.5t24.5 36t36 24.5t43.5 9q35 0 62 -19q13 33 41 54t65 21q35 0 62 -19q13 33 41 54t65 21q15 0 28.5 -4t26.5 -10v345q0 24 9 44.5t24 36t35.5 24.5t44.5 9t44.5 -9t36 -24.5
t24.5 -36t9 -44.5v-595q18 26 42 55.5t52 59.5t60 57.5t67 50.5q37 24 79.5 19.5t74.5 -34.5zM468 1085v-168q0 -22 15.5 -37.5t37.5 -15.5q23 0 39 15.5t16 37.5v224q0 23 -16 38t-39 15q-22 0 -37.5 -15t-15.5 -38v-56zM300 1029v-140v-28q0 -22 15.5 -37.5t37.5 -15.5
q23 0 39 15.5t16 37.5v56v168q0 23 -16 38t-39 15q-22 0 -37.5 -15t-15.5 -38v-56zM132 889q0 -22 15.5 -37.5t37.5 -15.5q23 0 39 15.5t16 37.5v140q0 23 -16 38t-39 15q-22 0 -37.5 -15t-15.5 -38v-140zM1139 1071q16 18 15.5 43t-18.5 43q-16 16 -38.5 17.5t-41.5 -10.5
q-55 -35 -102 -84.5t-81 -94.5t-53.5 -77t-19.5 -33q-12 -20 -34 -15q-22 6 -22 29v697q0 23 -16 38.5t-39 15.5q-22 0 -37.5 -15.5t-15.5 -38.5v-445v-224v-28q0 -16 -14 -24q-14 -27 -40.5 -44t-60.5 -17q-32 0 -61 18q-12 -32 -41 -53t-66 -21q-30 0 -55 14.5t-41 38.5
q-15 -11 -33 -18t-39 -7q-28 0 -53 14v-179q0 -72 8 -121.5t20.5 -81.5t28 -50t31 -26.5t29 -10.5t22.5 -2q13 0 21 -9t8 -21q-1 -13 -9.5 -21.5t-21.5 -8.5q-6 0 -12 1.5t-11 1.5q2 -26 13.5 -49t29.5 -40t41.5 -26.5t50.5 -9.5h224q52 0 90 32.5t46 82.5q-44 -18 -99 -18
q-23 0 -47.5 3t-52.5 8q-11 3 -17.5 13.5t-4.5 23.5q3 11 13.5 18t22.5 4q65 -14 113.5 -9.5t84.5 30.5q81 59 102 232q8 71 32 136.5t54.5 122t64 102.5t62 79.5t48 52.5t22.5 21zM659 752q12 1 21 -7t11 -21q1 -11 -6.5 -21t-20.5 -11q-2 0 -16.5 -2.5t-37 -9.5t-50.5 -21
t-55.5 -36.5t-53 -56t-42.5 -79.5q-7 -19 -28 -19q-2 0 -4.5 0.5t-4.5 2.5q-12 4 -17.5 15t-1.5 22q21 55 51 95t63 67t66.5 43t60.5 24.5t45 11.5t20 3z" />
  </g>

</svg>
