<?xml version="1.0" standalone="no"?>
<!DOCTYPE svg PUBLIC "-//W3C//DTD SVG 1.1//EN" "http://www.w3.org/Graphics/SVG/1.1/DTD/svg11.dtd" >
<svg xmlns="http://www.w3.org/2000/svg" xmlns:xlink="http://www.w3.org/1999/xlink" version="1.1" viewBox="0 -410 2048 2048">
  <g transform="matrix(1 0 0 -1 0 1638)">
   <path fill="currentColor"
d="M992 1616q11 -18 15 -39t-1 -41l-134 -557q58 -42 91 -103.5t33 -130.5q2 -53 -7.5 -98.5t-17.5 -74.5q-2 -8 -4 -15t-2 -12q-27 -156 -109 -222q3 -8 3 -13q0 -41 -16 -77t-43 -63t-63 -43t-77 -16h-225q-42 0 -78.5 16t-63.5 43t-42.5 63t-15.5 77q0 2 0.5 4t0.5 4
q-113 67 -113 331v336l-10 26q-8 21 -6 43.5t11 42.5q11 20 28 34.5t40 21.5q17 5 32.5 5.5t31.5 -2.5q0 21 11 46q22 40 67 56q28 9 55.5 4t48.5 -21l-55 374q-6 43 24 78q16 19 40.5 30t50.5 11q45 0 75.5 -29t38.5 -80l64 -430l122 396q13 41 50.5 62.5t80.5 11.5
q21 -4 39.5 -17t29.5 -32zM446 1654q-12 -13 -10 -31l84 -567v-7l28 -82q0 -5 2 -6q-3 17 -2 29q5 33 26 57.5t51 35.5l-78 532q-5 29 -19.5 44t-35.5 15q-29 0 -46 -20zM314 1174q-4 -8 -5 -18t3 -20l19 -53l48 -140l8 -27q8 -21 28 -30.5t42 -2.5q21 6 31 26q5 10 5.5 19
t-2.5 19l-74 221q-7 16 -21 25.5t-31 9.5q-5 0 -9.5 -0.5t-8.5 -2.5q-21 -6 -33 -26zM173 1069q-10 -16 -3 -38l9 -25q1 -2 1 -3t1 -3l37 -109q8 -20 27.5 -30t40.5 -2q23 7 33 26q4 9 5 19t-3 19l-47 140q-5 17 -20 26t-32 9h-9t-9 -1q-11 -5 -18.5 -11t-12.5 -17zM936 745
q0 60 -32 113.5t-88 85.5l-150 86h-2q-21 0 -37.5 -13.5t-18.5 -34.5q-2 -16 6 -30.5t22 -22.5q6 -3 20.5 -12.5t33 -23t39 -28.5t39.5 -29.5t33.5 -25.5t21.5 -16q9 -7 11 -19t-4 -21q-8 -20 -27 -23q-2 0 -16.5 -2.5t-37.5 -10t-50.5 -21t-55.5 -36.5t-53.5 -56.5
t-42.5 -80.5q-3 -8 -11 -13.5t-17 -5.5q-3 0 -5.5 0.5t-5.5 1.5q-12 5 -17 16t0 22q21 59 53 100t67 68t69 42.5t61 23.5l-46 34.5l-40 30t-30.5 22.5t-16.5 11q-21 11 -35 29.5t-21 39.5q5 -34 -9 -63q-21 -42 -68 -58q-9 -2 -17.5 -3.5t-18.5 -1.5q-20 0 -39 7.5t-34 20.5
q-20 -33 -61 -47q-9 -3 -18 -4t-17 -1q-26 0 -48.5 10.5t-38.5 29.5v-187q0 -290 140 -294q11 0 20 -9t8 -22q0 -13 -8.5 -21t-21.5 -8h-1q-6 0 -11.5 1t-12.5 3q3 -27 14.5 -50.5t30 -40.5t43 -27t51.5 -10h225q26 0 49 9t41 24.5t30 37t16 46.5q-22 -10 -47 -14.5
t-52 -4.5q-23 0 -48.5 3.5t-51.5 9.5q-13 2 -19.5 13t-4.5 22q4 13 14 19.5t23 2.5q126 -27 194 20q39 26 63.5 74t37.5 122q2 5 3.5 13t3.5 18q8 29 16.5 70t7.5 89zM947 1550q5 19 -5 35q-10 18 -33 21q-19 5 -37 -4.5t-23 -27.5l-151 -493l119 -68z" />
  </g>

</svg>
