<?xml version="1.0" standalone="no"?>
<!DOCTYPE svg PUBLIC "-//W3C//DTD SVG 1.1//EN" "http://www.w3.org/Graphics/SVG/1.1/DTD/svg11.dtd" >
<svg xmlns="http://www.w3.org/2000/svg" xmlns:xlink="http://www.w3.org/1999/xlink" version="1.1" viewBox="0 -410 2048 2048">
  <g transform="matrix(1 0 0 -1 0 1638)">
   <path fill="currentColor"
d="M1431 1072q17 -17 26 -37.5t9 -43.5q1 -22 -7 -43t-25 -38q-3 -3 -6 -4q0 -1 -17 -13t-42.5 -34.5t-56.5 -55.5t-59 -75.5t-49.5 -94t-28.5 -111.5q-24 -176 -112 -248q1 -2 1.5 -4t0.5 -6q0 -38 -15 -72t-41.5 -59.5t-62 -40t-75.5 -14.5h-219q-40 0 -75.5 14.5
t-61.5 40t-41.5 59.5t-15.5 72q0 2 0.5 3.5t0.5 3.5q-20 12 -38 31t-32 47.5t-24 67.5t-14 92q-3 38 -10.5 79t-21.5 88l-28 98l-200 367q-14 42 3.5 78.5t55.5 52.5q19 8 39 8t38 -6.5t33 -19.5t24 -31l115 -147l-90 324q-5 20 -2.5 40.5t12.5 38t26 31t37 20.5
q23 6 45.5 4.5t42.5 -12.5q20 -10 33.5 -26.5t20.5 -36.5l114 -335v449q0 24 8 45.5t22.5 38.5t35 28t45.5 14q26 3 50 -3.5t43 -21t31.5 -35t15.5 -45.5l1 -417l69 262q4 16 11.5 34.5t20.5 34.5t33 25.5t50 6.5q22 0 42 -8.5t35 -23.5t23.5 -35t8.5 -42l-92 -468l4 -17
q26 26 71.5 62.5t113.5 77.5q37 23 78.5 19t72.5 -33zM1393 955q6 7 10 16t4 19q-2 22 -18 39q-15 14 -37 16t-40 -9q-51 -32 -88.5 -60.5t-63 -51t-38.5 -37t-16 -18.5q-10 -11 -22 -14q-2 0 -21 -3t-47.5 -12t-63.5 -26.5t-69.5 -47t-66 -72t-53.5 -102.5q-6 -21 -28 -21
q-6 0 -10 3q-13 4 -18 15t0 23q30 82 75.5 136.5t94 88t93 50.5t73.5 23l-13 45q-2 6 0 14l93 469q0 14 -15.5 27t-36.5 15q-10 0 -17.5 -1.5t-14 -7.5t-12 -17.5t-11.5 -31.5l-126 -479q-3 -11 -12.5 -17t-20.5 -5q-11 2 -19 10t-8 19l-1 640q-3 23 -25 38.5t-48 12.5
q-26 -4 -41.5 -22.5t-15.5 -42.5l-2 -633q0 -11 -7 -19t-18 -10q-11 -1 -20 4.5t-14 16.5l-170 504q-5 11 -10.5 18t-15.5 11q-20 11 -42 5q-19 -7 -28 -23t-4 -35l129 -467q3 -11 -1.5 -20.5t-13.5 -14.5q-10 -5 -20 -2.5t-18 10.5l-209 267q-1 2 -2 3.5t-1 2.5
q-7 17 -25 23.5t-35 -1.5q-17 -6 -23.5 -20.5t-1.5 -30.5l199 -364q1 -2 2 -3.5t1 -3.5l28 -101q29 -99 33 -178q6 -77 23.5 -118.5t38 -61t40.5 -23.5t31 -4q13 0 21.5 -9t8.5 -22t-9 -21t-22 -8q-5 0 -11.5 0.5t-11.5 1.5q3 -24 15 -44.5t29.5 -35.5t40 -23.5t48.5 -8.5
h219q50 0 86.5 29t44.5 74q-40 -17 -95 -17q-41 0 -96 11q-13 3 -19.5 13.5t-4.5 22.5q3 12 13 19t23 4q128 -27 196 22q77 56 95 213q8 64 30 119t50.5 100.5t60 81.5t59.5 62t49.5 42t29.5 21z" />
  </g>

</svg>
