<?xml version="1.0" standalone="no"?>
<!DOCTYPE svg PUBLIC "-//W3C//DTD SVG 1.1//EN" "http://www.w3.org/Graphics/SVG/1.1/DTD/svg11.dtd" >
<svg xmlns="http://www.w3.org/2000/svg" xmlns:xlink="http://www.w3.org/1999/xlink" version="1.1" viewBox="0 -410 2048 2048">
  <g transform="matrix(1 0 0 -1 0 1638)">
   <path fill="currentColor"
d="M1698 750q31 -2 57.5 -16t46 -36t31 -51t11.5 -61v-232q0 -35 -13 -66t-37 -54q-21 -23 -49.5 -34.5t-58.5 -11.5h-2h-16q-15 -15 -35 -25t-43 -13l-588 -66q-5 -2 -8 -2h-8h-6t-8 2l-414 62q-25 4 -49 14.5t-43 27t-30.5 38.5t-9.5 50l2 38l-152 -132l-144 -58
q-9 -4 -17 -1t-12.5 9t-5 15t4.5 17l82 138l256 224q-14 -2 -26 0.5t-26 7.5q-24 9 -43 27.5t-31 42.5q-11 27 -11 55.5t9 54.5l108 296q11 29 33 50t51 30l264 84q49 15 94 -6l202 -98l198 174q21 18 48.5 15.5t45.5 -25.5l8 -12q18 -23 15.5 -51.5t-25.5 -48.5l-142 -122
l92 -44l318 -124q27 -11 47 -33t29 -49zM414 600q21 -8 42 0.5t30 31.5l84 198q12 29 33.5 46.5t48.5 25.5l72 22q36 11 70 0t60 -38l152 134l-176 84q-17 9 -40 2l-264 -84q-27 -9 -40 -38l-106 -294q-12 -31 0 -56q9 -25 34 -34zM566 636l234 204q-11 12 -26 16.5
t-30 -0.5l-72 -22q-26 -7 -36 -32zM580 446l148 8q8 0 18.5 1.5t20.5 4t18 5.5t11 5l98 116q21 20 24.5 46.5t-10.5 47.5l-22 34zM1774 586q0 33 -19.5 57.5t-48.5 32.5q-5 -11 -13.5 -18.5t-20.5 -7.5q-15 0 -25.5 10.5t-10.5 25.5v16q0 21 -11 38.5t-29 25.5l-314 120
q0 1 -4 3q-2 1 -4 1l-120 58l-214 -186l28 -44q14 -22 19.5 -46.5t2.5 -48.5t-14 -46.5t-30 -38.5l-100 -118q-12 -11 -29 -18t-34 -11.5t-31 -6.5t-20 -2l-176 -8q-23 0 -39.5 -18t-18.5 -44v-40q-1 -13 6 -22.5t17.5 -16t23 -10.5t23.5 -5l414 -64h12l588 68q24 2 39 20
t15 44q0 15 10.5 25.5t25.5 10.5t25.5 -10.5t10.5 -25.5q0 -6 -1 -11t-1 -11q11 2 20.5 7t17.5 13q14 14 22 32t8 38v232z" />
  </g>

</svg>
