<?xml version="1.0" standalone="no"?>
<!DOCTYPE svg PUBLIC "-//W3C//DTD SVG 1.1//EN" "http://www.w3.org/Graphics/SVG/1.1/DTD/svg11.dtd" >
<svg xmlns="http://www.w3.org/2000/svg" xmlns:xlink="http://www.w3.org/1999/xlink" version="1.1" viewBox="0 -410 2048 2048">
  <g transform="matrix(1 0 0 -1 0 1638)">
   <path fill="currentColor"
d="M204 750q-31 -2 -57.5 -16t-46 -36t-31 -51t-11.5 -61v-232q0 -35 13 -66t37 -54q21 -23 49.5 -34.5t58.5 -11.5h2h16q15 -15 35 -25t43 -13l588 -66q5 -2 8 -2h8h6t8 2l414 62q25 4 49 14.5t43 27t30.5 38.5t9.5 50l-2 38l152 -132l144 -58q9 -4 17 -1t12.5 9t5 15
t-4.5 17l-82 138l-256 224q14 -2 26 0.5t26 7.5q24 9 43 27.5t31 42.5q11 27 11 55.5t-9 54.5l-108 296q-11 29 -33 50t-51 30l-264 84q-49 15 -94 -6l-202 -98l-198 174q-21 18 -48.5 15.5t-45.5 -25.5l-8 -12q-18 -23 -15.5 -51.5t25.5 -48.5l142 -122l-92 -44l-318 -124
q-27 -11 -47 -33t-29 -49zM1488 600q-21 -8 -42 0.5t-30 31.5l-84 198q-12 29 -33.5 46.5t-48.5 25.5l-72 22q-36 11 -70 0t-60 -38l-152 134l176 84q17 9 40 2l264 -84q27 -9 40 -38l106 -294q12 -31 0 -56q-9 -25 -34 -34zM1336 636l-234 204q11 12 26 16.5t30 -0.5
l72 -22q26 -7 36 -32zM1322 446l-148 8q-8 0 -18.5 1.5t-20.5 4t-18 5.5t-11 5l-98 116q-21 20 -24.5 46.5t10.5 47.5l22 34zM128 586q0 33 19.5 57.5t48.5 32.5q5 -11 13.5 -18.5t20.5 -7.5q15 0 25.5 10.5t10.5 25.5v16q0 21 11 38.5t29 25.5l314 120q0 1 4 3q2 1 4 1
l120 58l214 -186l-28 -44q-14 -22 -19.5 -46.5t-2.5 -48.5t14 -46.5t30 -38.5l100 -118q12 -11 29 -18t34 -11.5t31 -6.5t20 -2l176 -8q23 0 39.5 -18t18.5 -44v-40q1 -13 -6 -22.5t-17.5 -16t-23 -10.5t-23.5 -5l-414 -64h-12l-588 68q-24 2 -39 20t-15 44q0 15 -10.5 25.5
t-25.5 10.5t-25.5 -10.5t-10.5 -25.5q0 -6 1 -11t1 -11q-11 2 -20.5 7t-17.5 13q-14 14 -22 32t-8 38v232z" />
  </g>

</svg>
