<?xml version="1.0" standalone="no"?>
<!DOCTYPE svg PUBLIC "-//W3C//DTD SVG 1.1//EN" "http://www.w3.org/Graphics/SVG/1.1/DTD/svg11.dtd" >
<svg xmlns="http://www.w3.org/2000/svg" xmlns:xlink="http://www.w3.org/1999/xlink" version="1.1" viewBox="0 -410 2048 2048">
  <g transform="matrix(1 0 0 -1 0 1638)">
   <path fill="currentColor"
d="M310 886h6.5t6.5 -2q41 49 110 80t171 43q70 8 135 32t121 55t103 65t80 62.5t52 47.5l20 20q19 18 43 27t48.5 8.5t48 -10t42.5 -28.5q16 -16 25.5 -36.5t11.5 -42t-3 -44t-18 -41.5q-24 -38 -54 -72t-61.5 -64t-63 -55.5t-59.5 -44.5h636q25 0 46.5 -9.5t38 -26t26 -38
t9.5 -46.5q0 -26 -9.5 -48.5t-26 -39t-38 -26t-46.5 -9.5h-369q14 -28 14 -57q0 -40 -22 -70t-57 -44q9 -15 14.5 -31t5.5 -35q0 -38 -22.5 -69t-57.5 -45q20 -28 20 -65q0 -25 -9.5 -47t-26 -38.5t-39 -26.5t-47.5 -10h-148q-11 0 -21.5 2.5t-19.5 4.5q-5 -2 -9 -4.5
t-11 -2.5h-238q-277 0 -351 122q-1 -1 -3 -1h-4q-44 0 -82.5 16.5t-67.5 45t-45.5 66.5t-16.5 82v240q0 44 16.5 82t45.5 66.5t67.5 45t82.5 16.5zM1235 643h-239q-23 0 -40.5 -16.5t-17.5 -40.5q0 -25 17.5 -41.5t40.5 -16.5h180h59q23 0 40.5 16.5t17.5 41.5
q0 24 -17.5 40.5t-40.5 16.5zM1176 463h-180h-59q-25 0 -41.5 -16.5t-16.5 -40.5q0 -23 16.5 -39.5t41.5 -16.5h30h148h61q23 0 39.5 16.5t16.5 39.5q0 24 -16.5 40.5t-39.5 16.5zM1115 170q24 0 40.5 16.5t16.5 40.5q0 23 -16.5 40.5t-40.5 17.5h-148q-24 0 -40.5 -17.5
t-16.5 -40.5q0 -24 16.5 -40.5t40.5 -16.5h148zM163 436q0 -29 10.5 -54t28.5 -44.5t42 -32t52 -15.5q0 7 -1 13t-3 13q0 14 9.5 24t23.5 8q14 0 23 -8.5t9 -22.5q0 -9 2 -23.5t11.5 -30.5t28 -33t53 -30t87 -21.5t129.5 -8.5h191q-14 25 -14 57q0 22 7.5 41.5t19.5 34.5
q-26 17 -42 43.5t-16 59.5q0 39 22.5 70t56.5 45q-8 14 -13 30.5t-5 34.5q0 35 18 63t47 45q9 14 27 14h29h239h476q23 0 40 16.5t17 41.5q0 23 -17 40t-40 17h-744q-12 0 -21 6.5t-11 17.5q-3 11 1.5 20.5t14.5 15.5l16 9.5t42 27t59 42t67 54.5t66.5 65.5t57.5 74.5
q14 20 11.5 44t-18.5 41q-20 19 -46.5 20t-43.5 -17q-3 -2 -23.5 -23t-56.5 -51.5t-85.5 -66.5t-109.5 -69t-129 -58t-145 -34q-95 -11 -156 -37.5t-93 -70.5q-53 -74 -23 -211q2 -14 -4.5 -25.5t-19.5 -13.5h-7q-11 0 -20.5 6.5t-11.5 18.5q-27 126 7 211q-26 -4 -48.5 -17
t-39 -32t-25.5 -43.5t-9 -51.5v-240zM537 467q49 18 84.5 45t60 56.5t39 59t22 53.5t10 40t2.5 18q2 12 13 21t23 7q12 -1 21 -11.5t8 -22.5q-1 -3 -4 -22t-12 -48t-26 -64.5t-46 -71t-71 -67.5t-101 -54q-2 0 -5 -1t-7 -1q-10 0 -18 6t-11 15q-5 13 0.5 25t17.5 17z" />
  </g>

</svg>
