<?xml version="1.0" standalone="no"?>
<!DOCTYPE svg PUBLIC "-//W3C//DTD SVG 1.1//EN" "http://www.w3.org/Graphics/SVG/1.1/DTD/svg11.dtd" >
<svg xmlns="http://www.w3.org/2000/svg" xmlns:xlink="http://www.w3.org/1999/xlink" version="1.1" viewBox="0 -410 2048 2048">
  <g transform="matrix(1 0 0 -1 0 1638)">
   <path fill="currentColor"
d="M1215 934q0 -11 -7 -18q3 -10 5 -19.5t2 -18.5v-140q0 -24 -9 -44.5t-25 -36t-36.5 -24.5t-44.5 -9q-33 0 -61 19q-12 -33 -41 -54t-66 -21q-33 0 -61 19q-12 -33 -41 -54t-66 -21q-14 0 -27 4t-26 10v-345q0 -24 -9 -44.5t-24.5 -36t-36 -24.5t-43.5 -9q-24 0 -44.5 9
t-36.5 24.5t-25 36t-9 44.5v595q-18 -26 -41.5 -55.5t-51.5 -59.5t-60 -58t-67 -50q-37 -24 -80 -19.5t-74 34.5q-18 18 -27 40t-9.5 45t7.5 45t25 40q1 1 19 18.5t45 49t59 75t61 96.5t51.5 113.5t30.5 126.5q22 187 115 263q-3 6 -3 12q0 41 15.5 77t42.5 63t63.5 42.5
t77.5 15.5h222q41 0 77 -15.5t63 -42.5t43 -63t16 -77q0 -2 -0.5 -4t-0.5 -4q113 -66 113 -328v-222zM651 626v224v28q0 16 14 24q14 27 40.5 44t58.5 17q18 0 33.5 -5t28.5 -13q13 32 42 53t64 21q31 0 56.5 -14.5t40.5 -38.5q14 11 32.5 18t38.5 7q29 0 55 -14v179
q0 72 -8 121.5t-20.5 81.5t-28 50t-31 26.5t-29.5 10t-22 2.5q-13 1 -21 9.5t-8 20.5q0 13 9 21.5t22 8.5q6 0 11.5 -1.5t11.5 -1.5q-3 26 -14.5 49t-29.5 40t-42 26.5t-51 9.5h-222q-26 0 -49 -8.5t-41 -24t-30 -36.5t-16 -45q80 32 197 6q13 -3 19.5 -13.5t3.5 -23.5
q-2 -11 -12.5 -18t-22.5 -4q-65 14 -113.5 9.5t-84.5 -30.5q-81 -59 -102 -232q-8 -71 -32 -136.5t-54.5 -122t-64 -102.5t-62 -79.5t-48.5 -52.5t-22 -21q-16 -18 -15.5 -43t18.5 -43q16 -16 38 -17.5t42 10.5q54 35 101 84.5t81 94.5t54 77t20 33q12 20 34 15
q22 -6 22 -29v-697q0 -23 16 -38.5t39 -15.5q22 0 37.5 15.5t15.5 38.5v445zM819 682v168q0 22 -16 37.5t-39 15.5q-22 0 -37.5 -15.5t-15.5 -37.5v-224q0 -23 15.5 -38t37.5 -15q23 0 39 15t16 38v56zM987 738v140v28q0 22 -16 37.5t-39 15.5q-22 0 -37.5 -15.5
t-15.5 -37.5v-56v-168q0 -23 15.5 -38t37.5 -15q23 0 39 15t16 38v56zM1155 878q0 22 -16 37.5t-39 15.5q-22 0 -37.5 -15.5t-15.5 -37.5v-140q0 -23 15.5 -38t37.5 -15q23 0 39 15t16 38v140zM934 1259q-21 -56 -51 -95.5t-63.5 -66.5t-67 -43t-60.5 -24.5t-45 -11.5
t-20 -3h-1q-12 0 -21 7.5t-10 20.5q-2 11 6.5 21t21.5 11q3 0 33 6t70.5 27t82 62t67.5 110q5 11 16.5 16t22.5 0q12 -4 17.5 -15t1.5 -22z" />
  </g>

</svg>
