<?xml version="1.0" standalone="no"?>
<!DOCTYPE svg PUBLIC "-//W3C//DTD SVG 1.1//EN" "http://www.w3.org/Graphics/SVG/1.1/DTD/svg11.dtd" >
<svg xmlns="http://www.w3.org/2000/svg" xmlns:xlink="http://www.w3.org/1999/xlink" version="1.1" viewBox="0 -410 2048 2048">
  <g transform="matrix(1 0 0 -1 0 1638)">
   <path fill="currentColor"
d="M972 1501q41 0 69.5 -28t28.5 -70v-748q0 -37 -4.5 -79.5t-16.5 -85t-34 -82.5t-57 -72q-11 -9 -22.5 -17.5t-23.5 -15.5q0 -2 0.5 -3t0.5 -3q0 -38 -14.5 -72t-40 -59t-59.5 -39.5t-72 -14.5h-212q-37 0 -69 13.5t-57 36.5t-40 54t-18 67q-25 10 -48.5 24.5t-44.5 34.5
q-27 27 -49 62.5t-37.5 76t-24 85t-8.5 89.5v258q0 26 12.5 46.5t32.5 34.5q-20 14 -32.5 35t-12.5 46v24q0 45 17 84t46.5 68.5t69 46.5t84.5 17t84 -17t68.5 -46.5t46.5 -68.5t17 -84v-46q0 -8 5.5 -14t13.5 -6t14 6t6 14v584q0 41 28 69.5t70 28.5t70 -28.5t28 -69.5v-6
q20 10 43 10q42 0 70 -28t28 -70v-52q20 10 44 10zM1014 1403q0 18 -12 30t-30 12t-31 -12t-13 -30v-398q0 -11 -7.5 -19.5t-20.5 -8.5q-11 0 -19.5 8.5t-8.5 19.5v538q0 18 -12 30t-30 12q-17 0 -30 -12t-13 -30v-538q0 -11 -7.5 -19.5t-20.5 -8.5q-11 0 -19 8.5t-8 19.5
v632q0 18 -12.5 30t-30.5 12t-30 -12t-12 -30v-584q0 -32 -22.5 -54t-53.5 -22q-32 0 -53.5 22t-21.5 54v46q0 33 -12.5 62t-34.5 51t-51 34.5t-62 12.5t-62.5 -12.5t-51.5 -34.5t-34.5 -51t-12.5 -62v-24q0 -17 12.5 -29.5t29.5 -12.5q18 0 31 12.5t13 29.5v24
q0 32 21.5 54t53.5 22q31 0 52.5 -22t21.5 -54v-326q0 -32 -21.5 -54t-52.5 -22q-32 0 -53.5 22t-21.5 54v140q0 17 -13 29.5t-31 12.5q-17 0 -29.5 -12.5t-12.5 -29.5v-258q0 -80 27 -152.5t75 -120.5q60 -56 133 -57q12 0 20 -8.5t8 -19.5t-8 -19.5t-20 -8.5
q-5 0 -10.5 0.5t-11.5 0.5q10 -43 44.5 -72.5t82.5 -29.5h212q25 0 46.5 8.5t38.5 23.5t28 35.5t14 44.5q-42 -12 -91 -12h-18.5t-20.5 1t-19 10t-6 21q1 11 9.5 18.5t21.5 6.5q59 -5 107.5 8t83.5 45q46 42 69.5 113t23.5 164v748zM272 994q20 -14 32.5 -34.5t12.5 -46.5
v-140q0 -8 5.5 -14t13.5 -6t13 6t5 14v326q0 8 -5 14t-13 6t-13.5 -6t-5.5 -14v-24q0 -25 -12.5 -46t-32.5 -35z" />
  </g>

</svg>
