<?xml version="1.0" standalone="no"?>
<!DOCTYPE svg PUBLIC "-//W3C//DTD SVG 1.1//EN" "http://www.w3.org/Graphics/SVG/1.1/DTD/svg11.dtd" >
<svg xmlns="http://www.w3.org/2000/svg" xmlns:xlink="http://www.w3.org/1999/xlink" version="1.1" viewBox="0 -410 2048 2048">
  <g transform="matrix(1 0 0 -1 0 1638)">
   <path fill="currentColor"
d="M1619 870q44 0 82.5 -16.5t67.5 -45t45.5 -66.5t16.5 -82v-240q0 -44 -16.5 -82t-45.5 -66.5t-67.5 -45t-82.5 -16.5h-4t-3 1q-74 -122 -351 -122h-238q-7 0 -11 2.5t-9 4.5q-9 -2 -19.5 -4.5t-21.5 -2.5h-148q-26 0 -48 10t-38.5 26.5t-26 38.5t-9.5 47q0 37 20 65
q-35 14 -57.5 45t-22.5 69q0 19 5.5 35t14.5 31q-35 14 -57 44t-22 70q0 29 14 57h-369q-25 0 -46.5 9.5t-38 26t-26 39t-9.5 48.5q0 25 9.5 46.5t26 38t38 26t46.5 9.5h636q-28 19 -59.5 44.5t-63 55.5t-61.5 64t-54 72q-13 19 -18 41.5t-3 44t11.5 42t25.5 36.5
q19 19 42.5 28.5t48 10t48 -8.5t43.5 -27l20 -20t52 -47.5t80 -62.5t103 -65t121 -55t135 -32q102 -12 171 -43t110 -80q3 2 6.5 2h6.5zM694 627q-23 0 -40.5 -16.5t-17.5 -40.5q0 -25 17.5 -41.5t40.5 -16.5h59h180q23 0 40.5 16.5t17.5 41.5q0 24 -17.5 40.5t-40.5 16.5
h-239zM753 447q-23 0 -39.5 -16.5t-16.5 -40.5q0 -23 16.5 -39.5t39.5 -16.5h61h148h30q25 0 41.5 16.5t16.5 39.5q0 24 -16.5 40.5t-41.5 16.5h-59h-180zM962 154q24 0 40.5 16.5t16.5 40.5q0 23 -16.5 40.5t-40.5 17.5h-148q-24 0 -40.5 -17.5t-16.5 -40.5
q0 -24 16.5 -40.5t40.5 -16.5h148zM1766 660q0 27 -9 51.5t-25.5 43.5t-39 32t-48.5 17q34 -85 7 -211q-2 -12 -11.5 -18.5t-20.5 -6.5h-7q-13 2 -19.5 13.5t-4.5 25.5q30 137 -23 211q-32 44 -93 70.5t-156 37.5q-76 9 -145 34t-129 58t-109.5 69t-85.5 66.5t-56.5 51.5
t-23.5 23q-17 18 -43.5 17t-46.5 -20q-16 -17 -18.5 -41t11.5 -44q25 -39 57.5 -74.5t66.5 -65.5t67 -54.5t59 -42t41.5 -27t16.5 -9.5q10 -6 14.5 -15.5t1.5 -20.5q-2 -11 -11 -17.5t-21 -6.5h-744q-23 0 -40 -17t-17 -40q0 -25 17 -41.5t40 -16.5h476h239h29q18 0 27 -14
q29 -17 47 -45t18 -63q0 -18 -5 -34.5t-13 -30.5q34 -14 56.5 -45t22.5 -70q0 -33 -16 -59.5t-42 -43.5q12 -15 19.5 -34.5t7.5 -41.5q0 -32 -14 -57h191q77 0 129.5 8.5t87 21.5t53 30t28 33t11 30.5t2.5 23.5q0 14 9 22.5t23 8.5q14 2 23.5 -8t9.5 -24q-2 -7 -3 -13
t-1 -13q28 3 52 15.5t42 32t28.5 44.5t10.5 54v240zM1392 451q12 -5 17.5 -17t0.5 -25q-3 -9 -11 -15t-18 -6q-4 0 -7 1t-5 1q-59 22 -101 54t-71 67.5t-46 71t-26 64.5t-12.5 48t-3.5 22q-1 12 8 22.5t21 11.5q12 2 23 -7t13 -21q0 -2 2.5 -18t10 -40t22 -53.5t39 -59
t59.5 -56.5t85 -45z" />
  </g>

</svg>
