<?xml version="1.0" standalone="no"?>
<!DOCTYPE svg PUBLIC "-//W3C//DTD SVG 1.1//EN" "http://www.w3.org/Graphics/SVG/1.1/DTD/svg11.dtd" >
<svg xmlns="http://www.w3.org/2000/svg" xmlns:xlink="http://www.w3.org/1999/xlink" version="1.1" viewBox="0 -410 2048 2048">
  <g transform="matrix(1 0 0 -1 0 1638)">
   <path fill="currentColor"
d="M287.596 3l1354.42 677q10.9951 5 10.9951 16.5t-10.9951 16.5l-1354.42 677q-5.99707 3 -11.4951 2q-5.49707 -1 -9.49512 -5.5q-3.99902 -4.5 -4.99805 -10.5q-1 -6 2.99805 -12l438.812 -657q5.99805 -11 0 -21l-438.812 -657q-3.99805 -6 -2.99805 -12
q0.999023 -6 4.99805 -10.5q3.99805 -4.5 9.49512 -5.5q5.49805 -1 11.4951 2zM1487.08 696h-702.699q-9.99609 0 -14.9941 9l-352.849 528q-6.99707 11 1.99902 21.5t21.9902 4.5l1055.55 -528q5.99805 -3 8.49707 -9t0.999023 -12q-1.49902 -6 -5.99707 -10t-12.4951 -4z
" />
  </g>

</svg>
