<?xml version="1.0" standalone="no"?>
<!DOCTYPE svg PUBLIC "-//W3C//DTD SVG 1.1//EN" "http://www.w3.org/Graphics/SVG/1.1/DTD/svg11.dtd" >
<svg xmlns="http://www.w3.org/2000/svg" xmlns:xlink="http://www.w3.org/1999/xlink" version="1.1" viewBox="0 -410 2048 2048">
  <g transform="matrix(1 0 0 -1 0 1638)">
   <path fill="currentColor"
d="M464 497q12 -44 43 -76t77 -43q30 -8 54 -24.5t42 -39.5t28 -51.5t10 -59.5q0 -14 -9 -23.5t-23 -9.5h-456q-14 0 -23 9.5t-9 23.5q0 31 10 59.5t28 51.5t43 39.5t55 24.5q44 11 76 42.5t42 76.5l6 24zM646 966q-20 -22 -45 -39t-51 -31q-30 -14 -51 -40t-29 -58l-12 -48
l-12 48q-8 32 -29 58t-49 40t-52 31t-44 39l-36 35q-10 11 -5 24.5t21 13.5h412q16 0 22 -13.5t-6 -24.5zM162 917q-38 31 -59 74.5t-21 93.5v186q0 36 13 67.5t37 55.5t56 37.5t68 13.5h406q36 0 67 -13.5t55 -37.5t38 -55.5t14 -67.5v-186q0 -50 -22 -93.5t-60 -74.5
l-176 -142q-8 -5 -10 -12t-2 -14h-60q0 22 9 40t27 32l176 141q28 23 43 55t15 67v187q0 24 -9 45t-25 36.5t-36 25t-44 9.5h-406q-24 0 -45 -9.5t-37 -25t-25 -36.5t-9 -45v-187q0 -35 15 -67t43 -55l178 -141q34 -28 34 -72h-58q0 7 -3 14t-9 12zM754 582q38 -31 60 -74.5
t22 -93.5v-186q0 -36 -14 -67.5t-38 -55.5t-55 -37.5t-67 -13.5h-406q-36 0 -68 13.5t-56 37.5t-37 55.5t-13 67.5v186q0 50 21 93.5t59 74.5l178 142q12 9 12 26h58q0 -44 -34 -72l-178 -142q-28 -23 -43 -54.5t-15 -66.5v-187q0 -24 9 -45t25 -37t37 -25t45 -9h406
q24 0 45 9t36 25t25 37t10 45v187q0 35 -15 66.5t-45 54.5l-176 142q-36 29 -36 72h60q0 -17 12 -26z" />
  </g>

</svg>
