<?xml version="1.0" standalone="no"?>
<!DOCTYPE svg PUBLIC "-//W3C//DTD SVG 1.1//EN" "http://www.w3.org/Graphics/SVG/1.1/DTD/svg11.dtd" >
<svg xmlns="http://www.w3.org/2000/svg" xmlns:xlink="http://www.w3.org/1999/xlink" version="1.1" viewBox="0 -410 2048 2048">
  <g transform="matrix(1 0 0 -1 0 1638)">
   <path fill="currentColor"
d="M583.56 1420.99q41.9824 -7.99609 83.4648 -28.4873q41.4814 -20.4912 84.4639 -48.9795q42.9814 -28.4873 87.9619 -62.4736q44.9805 -33.9854 92.96 -69.9697q10.9961 -8.99609 25.9893 -7.49707q14.9932 1.5 24.9893 12.4951q182.922 204.912 386.835 204.912
q205.912 0 330.858 -151.935q125.946 -149.937 125.946 -398.83q0 -225.903 -66.9717 -414.822q-4.99805 -18.9922 4.99805 -32.9863q31.9863 -46.9795 55.9766 -84.4639q23.9893 -37.4834 39.9824 -71.4688q15.9932 -33.9863 23.9902 -65.4727
q7.99609 -31.4863 7.99609 -66.4717q0 -72.9688 -37.9834 -116.95q-37.9844 -43.9805 -97.958 -43.9805q-79.9668 0 -129.945 68.9707q-49.9785 67.9707 -49.9785 176.924q0 22.9902 2.99902 42.9814t8.49609 40.9824q5.49805 20.9912 13.4941 45.9805
q7.99707 24.9893 18.9922 57.9756q6.99707 19.9912 -6.99707 36.9844q-148.937 166.929 -285.378 293.374q-136.441 126.446 -266.386 215.408q-122.948 84.9639 -271.884 156.933q-148.937 71.9697 -327.86 137.941q-16.9922 5.99707 -17.9922 24.4893t5.99707 38.4834
q13.9941 37.9844 30.9873 59.9746q16.9922 21.9902 31.9863 32.9863q17.9922 12.9941 35.9844 16.9922q5.99707 1 16.9932 1q10.9951 0 16.9922 -1zM1072.35 790.258q-5.99707 -6.99707 -24.4893 -10.9951t-43.4814 -11.4951t-53.4775 -21.9902
q-28.4873 -14.4941 -54.4766 -42.4824q-65.9717 -68.9707 -65.9717 -142.938q0 -79.9658 67.9707 -126.946q68.9707 -44.9805 186.921 -44.9805q170.927 0 311.866 80.9658q11.9951 6.99707 24.9893 4.99707q12.9941 -1.99902 21.9902 -11.9941l28.9883 -30.9873
q11.9941 -12.9941 9.49609 -30.4863q-2.49902 -17.4932 -17.4932 -26.4893q-198.915 -116.95 -416.821 -116.95q-167.929 0 -269.885 83.9648q-102.956 84.9639 -102.956 223.904q0 202.913 221.905 332.857q8.99609 4.99805 24.4893 7.99707
q15.4932 2.99805 38.4834 -4.99805q37.9844 -13.9941 60.4746 -26.9883q22.4902 -12.9951 33.4854 -23.9902q13.9941 -11.9951 17.9922 -22.9902q4.99805 -13.9941 3.49902 -24.4893q-1.5 -10.4961 -3.49902 -12.4951zM1620.12 608.336q7.99707 -8.99609 17.9932 -12.4951
q9.99512 -3.49805 19.9912 -0.999023q9.99512 2.49902 17.9922 9.49609q7.99609 6.99707 9.99609 18.9912q10.9951 50.9785 16.4922 98.958q5.49805 47.9795 5.49805 92.96q0 195.917 -100.957 317.864q-101.956 122.947 -262.888 122.947q-144.938 0 -256.89 -99.957
q-13.9941 -12.9941 -12.4951 -30.9863t17.4922 -27.9883q137.941 -90.9609 268.886 -212.409q130.943 -121.448 258.889 -276.382z" />
  </g>

</svg>
