<?xml version="1.0" standalone="no"?>
<!DOCTYPE svg PUBLIC "-//W3C//DTD SVG 1.1//EN" "http://www.w3.org/Graphics/SVG/1.1/DTD/svg11.dtd" >
<svg xmlns="http://www.w3.org/2000/svg" xmlns:xlink="http://www.w3.org/1999/xlink" version="1.1" viewBox="0 -410 2048 2048">
  <g transform="matrix(1 0 0 -1 0 1638)">
   <path fill="currentColor"
d="M549.574 172.606q-17.9922 3.99902 -35.9844 16.9932q-14.9941 10.9951 -31.9863 32.9854q-16.9932 21.9912 -30.9873 59.9746q-6.99707 19.9912 -5.99707 38.4834t17.9922 24.4902q178.924 65.9717 327.86 137.94q148.936 71.9697 271.884 156.933
q129.944 88.9629 266.386 215.408q136.441 126.446 285.378 293.375q5.99707 7.99609 7.99707 17.9922q1.99902 9.99609 -1 18.9922q-10.9951 32.9854 -18.9922 57.9746q-7.99609 24.9893 -13.4941 45.9805q-5.49707 20.9912 -8.49609 40.9824t-2.99902 42.9814
q0 108.954 49.9785 176.925q49.9785 68.9707 129.945 68.9707q59.9736 0 97.958 -43.9814q37.9834 -43.9814 37.9834 -116.95q0 -34.9844 -7.99609 -66.4717q-7.99707 -31.4863 -23.9902 -65.4717t-39.9824 -71.4697q-23.9902 -37.4834 -55.9766 -84.4639
q-9.99609 -13.9941 -4.99805 -32.9854q66.9717 -188.92 66.9717 -414.823q0 -246.895 -125.946 -398.829q-124.946 -151.936 -330.858 -151.936q-203.913 0 -386.835 204.913q-9.99609 10.9951 -24.9893 12.4941t-25.9893 -7.49707q-47.9795 -35.9844 -92.96 -69.9697
t-87.9619 -62.4736q-42.9824 -28.4873 -84.4639 -48.9785q-41.4824 -20.4912 -83.4648 -28.4883q-5.99707 -0.999023 -16.9922 -0.999023q-10.9961 0 -16.9932 0.999023zM1072.35 766.353q-3.99805 -10.9951 -17.9922 -22.9902q-10.9951 -10.9951 -33.4854 -23.9893
t-60.4746 -26.9883q-22.9902 -7.99707 -38.4834 -4.99805t-24.4893 7.99609q-221.905 130.944 -221.905 332.858q0 138.94 102.956 223.904q101.956 83.9639 269.885 83.9639q217.906 0 416.821 -116.95q14.9941 -8.99609 17.4932 -26.4883
q2.49805 -17.4932 -9.49609 -30.4873l-28.9883 -30.9863q-8.99609 -9.99609 -21.9902 -11.9951t-24.9893 4.99805q-140.939 80.9648 -311.866 80.9648q-117.95 0 -185.921 -44.9805q-68.9707 -45.9805 -68.9707 -126.945q0 -73.9688 65.9717 -142.939
q25.9893 -27.9883 54.4766 -42.4814q28.4883 -14.4941 53.4775 -21.9912q24.9893 -7.49609 43.4814 -11.4951q18.4922 -3.99805 24.4893 -10.9951q1.99902 -1.99902 3.49902 -12.4941q1.49902 -10.4961 -3.49902 -24.4902zM1092.34 496.469
q-15.9932 -9.99609 -17.4922 -27.9883t12.4951 -30.9873q110.952 -98.957 256.89 -98.957q161.931 0 262.888 121.947q100.957 121.948 100.957 317.864q0 44.9805 -5.49805 92.96q-5.49707 47.9795 -16.4922 98.958q-2 11.9951 -9.99609 18.9922
q-7.99707 6.99707 -17.9922 9.49609q-9.99609 2.49902 -19.9912 -1q-9.99609 -3.49805 -17.9932 -12.4941q-127.945 -154.935 -258.889 -276.382q-130.944 -121.448 -268.886 -212.409z" />
  </g>

</svg>
