<?xml version="1.0" standalone="no"?>
<!DOCTYPE svg PUBLIC "-//W3C//DTD SVG 1.1//EN" "http://www.w3.org/Graphics/SVG/1.1/DTD/svg11.dtd" >
<svg xmlns="http://www.w3.org/2000/svg" xmlns:xlink="http://www.w3.org/1999/xlink" version="1.1" viewBox="0 -410 2048 2048">
  <g transform="matrix(1 0 0 -1 0 1638)">
   <path fill="currentColor"
d="M1344 1420q18 -4 36 -17q15 -11 32 -33t31 -60q7 -20 6 -38.5t-18 -24.5q-179 -66 -328 -138t-272 -157q-130 -89 -266.5 -215.5t-285.5 -293.5q-6 -8 -8 -18t1 -19q11 -33 19 -58t13.5 -46t8.5 -41t3 -43q0 -109 -50 -177q-50 -69 -130 -69q-60 0 -98 44t-38 117
q0 35 8 66.5t24 65.5t40 71.5t56 84.5q10 14 5 33q-67 189 -67 415q0 247 126 399q125 152 331 152q204 0 387 -205q10 -11 25 -12.5t26 7.5q48 36 93 70t88 62.5t84.5 49t83.5 28.5q6 1 17 1t17 -1zM821 826q4 11 18 23q11 11 33.5 24t60.5 27q23 8 38.5 5t24.5 -8
q222 -131 222 -333q0 -139 -103 -224q-102 -84 -270 -84q-218 0 -417 117q-15 9 -17.5 26.5t9.5 30.5l29 31q9 10 22 12t25 -5q141 -81 312 -81q118 0 186 45q69 46 69 127q0 74 -66 143q-26 28 -54.5 42.5t-53.5 22t-43.5 11.5t-24.5 11q-2 2 -3.5 12.5t3.5 24.5zM801 1096
q16 10 17.5 28t-12.5 31q-111 99 -257 99q-162 0 -263 -122t-101 -318q0 -45 5.5 -93t16.5 -99q2 -12 10 -19t18 -9.5t20 1t18 12.5q128 155 259 276.5t269 212.5z" />
  </g>

</svg>
