<?xml version="1.0" standalone="no"?>
<!DOCTYPE svg PUBLIC "-//W3C//DTD SVG 1.1//EN" "http://www.w3.org/Graphics/SVG/1.1/DTD/svg11.dtd" >
<svg xmlns="http://www.w3.org/2000/svg" xmlns:xlink="http://www.w3.org/1999/xlink" version="1.1" viewBox="0 -410 2048 2048">
  <g transform="matrix(1 0 0 -1 0 1638)">
   <path fill="currentColor"
d="M1 111q8 42 28.5 83.5t49 84.5t62.5 88t70 93q9 11 7.5 26t-12.5 25q-205 183 -205 387q0 206 152 331q150 126 399 126q226 0 415 -67q19 -5 33 5q47 32 84.5 56t71.5 40t65.5 24t66.5 8q73 0 117 -38t44 -98q0 -81 -69 -130q-68 -50 -177 -50q-23 0 -43 3t-41 8.5
t-46 13.5t-58 19q-20 7 -37 -7q-167 -149 -293.5 -285.5t-215.5 -266.5q-85 -123 -157 -272t-138 -328q-6 -17 -24.5 -18t-38.5 6q-38 13 -60 30.5t-33 32.5q-13 18 -17 36q-1 6 -1 17t1 17zM632 600q7 -6 11 -24.5t11.5 -43.5t22 -53.5t42.5 -54.5q69 -66 143 -66
q80 0 127 68q45 69 45 187q0 171 -81 312q-7 12 -5 25t12 22l31 29q13 12 30.5 9.5t26.5 -17.5q117 -200 117 -417q0 -168 -84 -270q-85 -103 -224 -103q-203 0 -333 222q-5 9 -8 24.5t5 38.5q14 38 27 59.5t24 33.5q12 13 23 19q14 5 24.5 3.5t12.5 -3.5zM814 1148
q9 7 12.5 17.5t1 20.5t-9.5 18t-19 10q-51 11 -99 16.5t-93 5.5q-196 0 -318 -101q-123 -102 -123 -263q0 -145 100 -257q13 -14 31 -12.5t28 17.5q91 138 212.5 269t276.5 259z" />
  </g>

</svg>
