<?xml version="1.0" standalone="no"?>
<!DOCTYPE svg PUBLIC "-//W3C//DTD SVG 1.1//EN" "http://www.w3.org/Graphics/SVG/1.1/DTD/svg11.dtd" >
<svg xmlns="http://www.w3.org/2000/svg" xmlns:xlink="http://www.w3.org/1999/xlink" version="1.1" viewBox="0 -410 2048 2048">
  <g transform="matrix(1 0 0 -1 0 1638)">
   <path fill="currentColor"
d="M1448 1282q-8 -42 -28.5 -83.5t-49 -84.5t-62.5 -88t-70 -93q-9 -11 -7.5 -26t12.5 -25q205 -183 205 -387q0 -206 -152 -331q-152 -126 -399 -126q-226 0 -415 67q-19 5 -33 -5q-47 -32 -84.5 -56t-71.5 -40t-65.5 -24t-66.5 -8q-73 0 -117 38t-44 98q0 80 69 130
q68 50 177 50q23 0 43 -3t41 -8.5t46 -13.5t58 -19q9 -3 19 -1t18 8q167 149 293.5 285.5t215.5 266.5q85 123 157 272t138 328q6 17 24.5 18t38.5 -6q38 -14 60 -31t33 -32q13 -18 17 -36q1 -6 1 -17t-1 -17zM817 793q-7 6 -11 24.5t-11.5 43.5t-22 53.5t-42.5 54.5
q-69 66 -143 66q-81 0 -127 -69q-45 -68 -45 -186q0 -171 81 -312q7 -12 5 -25t-12 -22l-31 -29q-13 -12 -30.5 -9.5t-26.5 17.5q-117 199 -117 417q0 168 84 270q85 103 224 103q202 0 333 -222q5 -9 8 -24.5t-5 -38.5q-14 -38 -27 -60.5t-24 -33.5q-12 -14 -23 -18
q-14 -5 -24.5 -3.5t-12.5 3.5zM635 245q-9 -8 -12.5 -18t-1 -20t9.5 -18t19 -10q51 -11 99 -16.5t93 -5.5q196 0 318 101t122 263q0 146 -99 257q-13 14 -31 12.5t-28 -17.5q-91 -138 -212.5 -269t-276.5 -259z" />
  </g>

</svg>
