<?xml version="1.0" standalone="no"?>
<!DOCTYPE svg PUBLIC "-//W3C//DTD SVG 1.1//EN" "http://www.w3.org/Graphics/SVG/1.1/DTD/svg11.dtd" >
<svg xmlns="http://www.w3.org/2000/svg" xmlns:xlink="http://www.w3.org/1999/xlink" version="1.1" viewBox="0 -410 2048 2048">
  <g transform="matrix(1 0 0 -1 0 1638)">
   <path fill="currentColor"
d="M1310 -27q-42 8 -83.5 28.5t-84.5 49t-88 62.5t-93 70q-11 9 -26 7.5t-25 -12.5q-183 -205 -387 -205q-206 0 -331 152q-126 150 -126 399q0 226 67 415q5 19 -5 33q-32 47 -56 84.5t-40 71.5t-24 65.5t-8 66.5q0 73 38 117t98 44q80 0 130 -69q50 -68 50 -177
q0 -23 -3 -43t-8.5 -41t-13.5 -46t-19 -58q-7 -20 7 -37q149 -167 285.5 -293.5t266.5 -215.5q123 -85 272 -157t328 -138q17 -6 18 -24.5t-6 -38.5q-14 -38 -31 -60t-32 -33q-18 -13 -36 -17q-6 -1 -17 -1t-17 1zM821 604q6 7 24.5 11t43.5 11.5t53.5 22t54.5 42.5
q66 69 66 143q0 80 -68 127q-69 45 -187 45q-171 0 -312 -81q-12 -7 -25 -5t-22 12l-29 31q-12 13 -9.5 30.5t17.5 26.5q199 117 417 117q168 0 270 -84q103 -85 103 -224q0 -203 -222 -333q-9 -5 -24.5 -8t-38.5 5q-38 14 -60.5 27t-33.5 24q-14 12 -18 23q-5 14 -3.5 24.5
t3.5 12.5zM273 786q-8 9 -18 12.5t-20 1t-18 -9.5t-10 -19q-11 -51 -16.5 -99t-5.5 -93q0 -196 101 -318q102 -123 263 -123q145 0 257 100q14 13 12.5 31t-17.5 28q-138 91 -269 212.5t-259 276.5z" />
  </g>

</svg>
