<?xml version="1.0" standalone="no"?>
<!DOCTYPE svg PUBLIC "-//W3C//DTD SVG 1.1//EN" "http://www.w3.org/Graphics/SVG/1.1/DTD/svg11.dtd" >
<svg xmlns="http://www.w3.org/2000/svg" xmlns:xlink="http://www.w3.org/1999/xlink" version="1.1" viewBox="0 -410 2048 2048">
  <g transform="matrix(1 0 0 -1 0 1638)">
   <path fill="currentColor"
d="M1448 77q-4 -18 -17 -36q-11 -15 -33 -32.5t-60 -30.5q-20 -7 -38.5 -6t-24.5 18q-66 179 -138 328t-157 272q-89 130 -215.5 266.5t-293.5 285.5q-17 14 -37 7q-33 -11 -58 -19t-46 -13.5t-41 -8.5t-43 -3q-109 0 -177 50q-69 49 -69 130q0 60 44 98t117 38
q35 0 66.5 -8t65.5 -24t71.5 -40t84.5 -56q14 -10 33 -5q189 67 415 67q249 0 399 -126q152 -125 152 -331q0 -204 -205 -387q-11 -10 -12.5 -25t7.5 -26q36 -48 70 -93t62.5 -88t49 -84.5t28.5 -83.5q1 -6 1 -17t-1 -17zM854 600q11 -6 23 -19q11 -12 24 -33.5t27 -59.5
q8 -23 5 -38.5t-8 -24.5q-131 -222 -333 -222q-139 0 -224 103q-84 102 -84 270q0 217 117 417q9 15 26.5 17.5t30.5 -9.5l31 -29q10 -9 12 -22t-5 -25q-81 -141 -81 -312q0 -118 45 -187q47 -68 127 -68q74 0 143 66q28 26 42.5 54.5t22 53.5t11.5 43.5t11 24.5
q2 2 12.5 3.5t24.5 -3.5zM1124 620q10 -16 28 -17.5t31 12.5q99 111 99 257q0 162 -122 263t-318 101q-45 0 -93 -5.5t-99 -16.5q-12 -2 -19 -10t-9.5 -18t1 -20.5t12.5 -17.5q155 -128 276.5 -259t212.5 -269z" />
  </g>

</svg>
