<?xml version="1.0" standalone="no"?>
<!DOCTYPE svg PUBLIC "-//W3C//DTD SVG 1.1//EN" "http://www.w3.org/Graphics/SVG/1.1/DTD/svg11.dtd" >
<svg xmlns="http://www.w3.org/2000/svg" xmlns:xlink="http://www.w3.org/1999/xlink" version="1.1" viewBox="0 -410 2048 2048">
  <g transform="matrix(1 0 0 -1 0 1638)">
   <path fill="currentColor"
d="M1 1316q4 18 17 36q11 15 33 32t60 31q20 7 38.5 6t24.5 -18q66 -179 138 -328t157 -272q89 -130 215.5 -266.5t293.5 -285.5q17 -14 37 -7q33 11 58 19t46 13.5t41 8.5t43 3q109 0 177 -50q69 -50 69 -130q0 -60 -44 -98t-117 -38q-35 0 -66.5 8t-65.5 24t-71.5 40
t-84.5 56q-14 10 -33 5q-189 -67 -415 -67q-248 0 -399 126q-152 125 -152 331q0 204 205 387q11 10 12.5 25t-7.5 26q-36 48 -70 93t-62.5 88t-49 84.5t-28.5 83.5q-1 6 -1 17t1 17zM595 793q-11 4 -23 18q-11 11 -24 33.5t-27 60.5q-8 23 -5 38.5t8 24.5q130 222 333 222
q139 0 224 -103q84 -102 84 -270q0 -218 -117 -417q-9 -15 -26.5 -17.5t-30.5 9.5l-31 29q-10 9 -12 22t5 25q81 141 81 312q0 118 -45 186q-47 69 -127 69q-74 0 -143 -66q-28 -26 -42.5 -54.5t-22 -53.5t-11.5 -43.5t-11 -24.5q-2 -2 -12.5 -3.5t-24.5 3.5zM325 773
q-10 16 -28 17.5t-31 -12.5q-99 -111 -99 -257q0 -162 122 -263t318 -101q45 0 93 5.5t99 16.5q12 2 19 10t9.5 18t-1 20t-12.5 18q-155 128 -276.5 259t-212.5 269z" />
  </g>

</svg>
