<?xml version="1.0" standalone="no"?>
<!DOCTYPE svg PUBLIC "-//W3C//DTD SVG 1.1//EN" "http://www.w3.org/Graphics/SVG/1.1/DTD/svg11.dtd" >
<svg xmlns="http://www.w3.org/2000/svg" xmlns:xlink="http://www.w3.org/1999/xlink" version="1.1" viewBox="0 -410 2048 2048">
  <g transform="matrix(1 0 0 -1 0 1638)">
   <path fill="currentColor"
d="M1721 174q20 -67 23 -128.5t-10 -115.5t-41 -98t-71 -75q-34 -26 -71.5 -38.5t-75.5 -12.5q-66 0 -119 36q-15 10 -36.5 32t-37.5 58t-20 88t15 123q73 282 111.5 497.5t51.5 375.5t5.5 271t-25.5 183.5t-42 112t-44 58.5q-21 19 -43.5 28.5t-44.5 12t-42 -1t-37 -9.5
q-53 -18 -90.5 -64t-63 -108.5t-39.5 -136.5t-20.5 -148.5t-7 -143.5t2.5 -122q2 -13 3 -25t1 -26q0 -80 -30.5 -150t-82.5 -122t-122.5 -82.5t-149.5 -30.5q-80 0 -150 30.5t-122.5 82.5t-83 122t-30.5 150t30.5 150t83 122.5t122.5 82.5t150 30q73 0 138 -25t115 -70
q6 88 22.5 182.5t51 179.5t91 150.5t140.5 94.5q81 27 158 11.5t137 -71.5q162 -150 157 -557.5t-177 -1065.5q-15 -59 -8.5 -101t35.5 -61q23 -17 56 -13.5t63 23.5q51 38 65 112t-13 167q-8 26 4.5 49t38.5 31q26 7 48.5 -5.5t30.5 -38.5zM568 542q53 0 100 20t82 54.5
t55 81t20 99.5q0 3 -1 7t-1 9q-3 50 -24 94t-55.5 77t-79.5 52t-96 19q-53 0 -99.5 -20.5t-81.5 -55.5t-55 -82t-20 -100t20 -99t55 -81t81.5 -55t99.5 -20z" />
  </g>

</svg>
