<?xml version="1.0" standalone="no"?>
<!DOCTYPE svg PUBLIC "-//W3C//DTD SVG 1.1//EN" "http://www.w3.org/Graphics/SVG/1.1/DTD/svg11.dtd" >
<svg xmlns="http://www.w3.org/2000/svg" xmlns:xlink="http://www.w3.org/1999/xlink" version="1.1" viewBox="0 -410 2048 2048">
  <g transform="matrix(1 0 0 -1 0 1638)">
   <path fill="currentColor"
d="M100 281q-26 0 -44 19t-18 46q0 26 18 44.5t44 18.5h340q-72 90 -109 196.5t-37 221.5q0 93 24 179t68 161t105 137t136 106t162 68t179 24q94 0 180 -24t160 -68t136 -106t106 -137t68 -161t24 -179q0 -115 -37 -221.5t-107 -196.5h336q28 0 47 -18.5t19 -44.5
q0 -27 -19 -46t-47 -19h-492q-14 0 -26 6q-2 2 -3 2.5t-3 2.5q-4 3 -8 5.5t-8 7.5v0q-2 0 -2 2l-4 7q0 2 -2 5t-2 6q-4 10 -4 12q0 3 -1 5t-1 4v1q0 1 1 1.5t1 1.5v6t2 6q2 3 2 6t2 5q2 3 3 5.5t3 5.5q4 6 10 9q0 2 2 4q50 39 89 87.5t66 103.5t41 115.5t14 123.5
q0 112 -43 211.5t-117 173.5t-173 117t-213 43q-112 0 -211 -43t-173 -117t-117 -173.5t-43 -211.5q0 -63 14 -123.5t40 -115.5t65 -103.5t91 -87.5q0 -2 1 -2t1 -2q6 -3 8 -9q2 -3 4 -5.5t4 -5.5q2 -2 2 -5t2 -6q0 -2 1 -6t1 -6v-3v-1v-4v-5q-2 -2 -2 -5t-2 -7q0 -3 -2 -6
t-4 -5q-2 -7 -4 -7q0 -2 -1 -2t-3 -2q0 -3 -3 -4t-5 -3q-2 -3 -5 -4.5l-5 -2.5q-6 -4 -12 -4q-2 -2 -5 -2t-7 -2h-4h-494zM1834 154q28 0 47 -19t19 -46t-19 -46t-47 -19h-1734q-26 0 -44 19t-18 46t18 46t44 19h1734z" />
  </g>

</svg>
