<?xml version="1.0" standalone="no"?>
<!DOCTYPE svg PUBLIC "-//W3C//DTD SVG 1.1//EN" "http://www.w3.org/Graphics/SVG/1.1/DTD/svg11.dtd" >
<svg xmlns="http://www.w3.org/2000/svg" xmlns:xlink="http://www.w3.org/1999/xlink" version="1.1" viewBox="0 -410 2048 2048">
  <g transform="matrix(1 0 0 -1 0 1638)">
   <path fill="currentColor"
d="M1127 1706q73 0 137 -27.5t112 -75.5t75.5 -112t27.5 -137v-540q0 -11 -7.5 -19.5t-19.5 -8.5h-318v-676q0 -11 -7.5 -19t-18.5 -8h-177q-11 0 -18.5 8t-7.5 19v676h-156h-649q-11 0 -19 8.5t-8 19.5v540q0 73 27.5 137t75.5 112t112 75.5t137 27.5h702zM128 841h595v513
q0 61 -23.5 115.5t-64 94.5t-95 63.5t-115.5 23.5q-62 0 -116 -23.5t-94 -63.5t-63.5 -94.5t-23.5 -115.5v-513zM1081 786h-122v-648h122v648zM1426 1354q0 61 -23.5 115.5t-64.5 94.5t-95.5 63.5t-115.5 23.5h-516q37 -23 67.5 -54.5t52 -70t33.5 -82t12 -90.5v-513h155
h177h318v513zM1127 1591q12 0 20 -8t8 -19v-162q0 -11 -8 -19.5t-20 -8.5h-134v-297q0 -11 -8.5 -18.5t-19.5 -7.5h-108q-11 0 -18.5 7.5t-7.5 18.5v487q0 11 7.5 19t18.5 8h270zM479 1328q11 0 19 -8.5t8 -19.5v-53q0 -12 -8 -20t-19 -8h-162q-12 0 -19.5 8t-7.5 20v53
q0 11 7.5 19.5t19.5 8.5h162z" />
  </g>

</svg>
