<?xml version="1.0" standalone="no"?>
<!DOCTYPE svg PUBLIC "-//W3C//DTD SVG 1.1//EN" "http://www.w3.org/Graphics/SVG/1.1/DTD/svg11.dtd" >
<svg xmlns="http://www.w3.org/2000/svg" xmlns:xlink="http://www.w3.org/1999/xlink" version="1.1" viewBox="0 -410 2048 2048">
  <g transform="matrix(1 0 0 -1 0 1638)">
   <path fill="currentColor"
d="M1286 1692q72 0 136 -27.5t112 -75.5t75.5 -112t27.5 -137v-540q0 -11 -8 -19.5t-19 -8.5h-317v-676q0 -11 -8 -19t-19 -8h-176q-12 0 -19.5 8t-7.5 19v676h-136l-231 -461q-23 -45 -56 -81t-73.5 -61t-87 -38.5t-96.5 -13.5q-81 0 -149 37.5t-110 106.5
q-42 68 -46 145.5t32 149.5l121 243v1v540q0 73 27.5 137t75.5 112t112 75.5t137 27.5h703zM285 827h595v513q0 61 -23.5 115.5t-63.5 94.5t-94.5 63.5t-115.5 23.5q-62 0 -116 -23.5t-94.5 -63.5t-64 -94.5t-23.5 -115.5v-513zM863 765h-588l-116 -232q-30 -60 -27 -124
t38 -120q34 -56 90 -87.5t123 -31.5q42 0 81.5 11.5t74 33t62.5 52t48 68.5zM1238 772h-122v-648h122v648zM1582 1340q0 61 -23.5 115.5t-63.5 94.5t-94 63.5t-115 23.5h-517q37 -23 67.5 -54.5t52 -70t33.5 -82t12 -90.5v-513h156h176h316v513zM989 1171q0 11 7.5 19
t18.5 8h488q11 0 18.5 -8t7.5 -19v-270q0 -12 -7.5 -19.5t-18.5 -7.5h-163q-11 0 -19.5 7.5t-8.5 19.5v136h-297q-11 0 -18.5 7.5t-7.5 18.5v108z" />
  </g>

</svg>
