<?xml version="1.0" standalone="no"?>
<!DOCTYPE svg PUBLIC "-//W3C//DTD SVG 1.1//EN" "http://www.w3.org/Graphics/SVG/1.1/DTD/svg11.dtd" >
<svg xmlns="http://www.w3.org/2000/svg" xmlns:xlink="http://www.w3.org/1999/xlink" version="1.1" viewBox="0 -410 2048 2048">
  <g transform="matrix(1 0 0 -1 0 1638)">
   <path fill="currentColor"
d="M1290 1680q72 0 136 -27.5t112 -75.5t75.5 -112t27.5 -137v-540q0 -11 -8 -19.5t-19 -8.5h-317v-676q0 -11 -8 -19t-19 -8h-176q-12 0 -19.5 8t-7.5 19v676h-136l-231 -461q-23 -45 -56 -81t-73.5 -61t-87 -38.5t-96.5 -13.5q-81 0 -149 37.5t-110 106.5
q-42 68 -46 145.5t32 149.5l121 243v1v540q0 73 27.5 137t75.5 112t112 75.5t137 27.5h703zM289 815h595v74h-378q-12 0 -20 7.5t-8 18.5v362q0 1 0.5 1t0.5 1q0 5 1 6q0 1 1 2t1 2t0.5 1t0.5 1v1l2 1q1 2 4 5q1 1 2 1t2 1q1 0 2.5 1t3.5 1q1 0 1.5 0.5t2.5 0.5h3h378v25
q0 61 -23.5 115.5t-63.5 94.5t-94.5 63.5t-115.5 23.5q-62 0 -116 -23.5t-94.5 -63.5t-64 -94.5t-23.5 -115.5v-513zM532 1223v-280h352v181l-93 -67q-6 -6 -15 -6t-16 6zM776 1111l108 80v59h-296zM867 753h-588l-116 -232q-30 -60 -27 -124t38 -120q34 -56 90 -87.5
t123 -31.5q42 0 81.5 11.5t74 33t62.5 52t48 68.5zM1242 760h-122v-648h122v648zM1586 1328q0 61 -23.5 115.5t-63.5 94.5t-94 63.5t-115 23.5h-517q37 -23 67.5 -54.5t52 -70t33.5 -82t12 -90.5v-513h156h176h316v513zM1290 1565q11 0 18.5 -8t7.5 -19v-162
q0 -11 -7.5 -19.5t-18.5 -8.5h-136v-297q0 -11 -7.5 -18.5t-19.5 -7.5h-108q-11 0 -18.5 7.5t-7.5 18.5v487q0 11 7.5 19t18.5 8h271z" />
  </g>

</svg>
