<?xml version="1.0" standalone="no"?>
<!DOCTYPE svg PUBLIC "-//W3C//DTD SVG 1.1//EN" "http://www.w3.org/Graphics/SVG/1.1/DTD/svg11.dtd" >
<svg xmlns="http://www.w3.org/2000/svg" xmlns:xlink="http://www.w3.org/1999/xlink" version="1.1" viewBox="0 -410 2048 2048">
  <g transform="matrix(1 0 0 -1 0 1638)">
   <path fill="currentColor"
d="M1328 973q76 -74 115 -168.5t39 -199.5t-39 -199.5t-115 -169.5q-74 -74 -168 -113t-200 -39q-104 0 -199 39t-169 113l-350 350q-74 74 -113 168.5t-39 199.5t39 199.5t113 168.5q76 75 170 114t200 39v0q104 0 199 -39t169 -114l24 -25zM612 1420q-88 0 -166 -30.5
t-144 -87.5l340 -328l304 304l-6 5q-66 66 -150 101.5t-178 35.5v0zM146 954q0 -94 35 -178.5t101 -150.5l2 -3l318 314l-338 326q-58 -64 -88 -142.5t-30 -165.5zM1290 276q66 66 101 150.5t35 178.5t-35 178.5t-101 150.5l-304 304l-324 -321h-2l-336 -334l308 -307
q66 -66 150 -101.5t178 -35.5t179 35.5t151 101.5z" />
  </g>

</svg>
