<?xml version="1.0" standalone="no"?>
<!DOCTYPE svg PUBLIC "-//W3C//DTD SVG 1.1//EN" "http://www.w3.org/Graphics/SVG/1.1/DTD/svg11.dtd" >
<svg xmlns="http://www.w3.org/2000/svg" xmlns:xlink="http://www.w3.org/1999/xlink" version="1.1" viewBox="-2 -410 2048 2048">
  <g transform="matrix(1 0 0 -1 0 1638)">
   <path fill="currentColor"
d="M-2 710q0 301 212 512q214 212 512 212q300 0 512 -212q214 -213 214 -512q0 -300 -214 -513q-212 -212 -512 -212t-512 212q-212 211 -212 513zM96 710q0 -261 182 -445q184 -183 444 -183t446 183q184 186 184 445q0 260 -184 444q-186 184 -446 184t-444 -184
q-182 -183 -182 -444zM478 387l6 2q70 -39 152 -39q116 0 182 93q64 91 64 255l-6 2q-58 -103 -190 -103q-110 0 -182 76q-74 74 -74 197q0 127 80 212q78 83 206 83q130 0 204 -103q74 -104 74 -299q0 -243 -96 -374q-96 -130 -262 -130q-94 0 -156 29l-2 3v96zM542 884
q0 -90 46 -140q46 -52 126 -52q66 0 116 47q46 49 46 115q0 94 -46 156q-64 86 -186 53h-2q-100 -61 -100 -179z" />
  </g>

</svg>
