<?xml version="1.0" standalone="no"?>
<!DOCTYPE svg PUBLIC "-//W3C//DTD SVG 1.1//EN" "http://www.w3.org/Graphics/SVG/1.1/DTD/svg11.dtd" >
<svg xmlns="http://www.w3.org/2000/svg" xmlns:xlink="http://www.w3.org/1999/xlink" version="1.1" viewBox="0 -410 2048 2048">
  <g transform="matrix(1 0 0 -1 0 1638)">
   <path fill="currentColor"
d="M550.526 1208q-211.91 -212 -211.91 -512q0 -297 211.91 -511q212.908 -213 511.781 -213q301.87 0 512.78 212q211.909 211 211.909 512q0 300 -211.909 512q-212.909 213 -512.78 213q-298.873 0 -511.781 -213zM602.504 236q-96.959 97 -144.438 210t-47.4795 250
q0 138 47.4795 251t144.438 210q96.958 97 209.91 144q112.951 47 249.894 47q136.941 0 250.893 -47t210.909 -144q96.959 -97 143.439 -210q46.4795 -113 46.4795 -251q0 -137 -46.4795 -250.5q-46.4805 -113.5 -143.439 -210.5q-96.958 -97 -210.909 -143.5
t-250.893 -46.5q-136.942 0 -249.894 47q-112.952 47 -209.91 144zM1646.06 663h1q13.9932 0 23.4893 9.5t9.49609 23.5v1q0 14 -9.49609 23.5t-23.4893 9.5h-1q-13.9941 0 -23.4902 -9.5q-9.49512 -9.5 -9.49512 -23.5v-1q0 -14 9.49512 -23.5q9.49609 -9.5 23.4902 -9.5z
M512.542 696v1q0 14 -9.49609 23.5q-9.49512 9.5 -23.4893 9.5t-23.4902 -9.5t-9.49609 -23.5v-1q0 -14 9.49609 -23.5t23.4902 -9.5t23.4893 9.5q9.49609 9.5 9.49609 23.5zM1063.31 147h-0.999023q-13.9941 0 -23.4902 -9.5t-9.49609 -23.5t9.49609 -23.5t23.4902 -9.5
h0.999023q13.9941 0 23.4902 9.5t9.49609 23.5t-9.49609 23.5t-23.4902 9.5zM1584.08 960h1q11.9941 7 15.4932 20q3.49805 13 -3.49902 25v1q-6.99609 11 -20.4912 15q-13.4941 4 -24.4893 -3l-0.999023 -1q-11.9951 -7 -15.4941 -20q-3.49805 -13 3.49902 -25
t19.9912 -15.5t24.9893 3.5zM587.51 422h-0.999023q-6.99707 12 -19.9912 15.5q-12.9951 3.5 -24.9902 -3.5q-11.9941 -7 -15.4932 -20q-3.49805 -13 3.49902 -25v-1q6.99707 -11 19.9912 -15t24.9893 3l1 1q10.9951 7 14.9932 20t-2.99902 25zM799.42 1219
q-6.99707 12 -19.9922 15.5q-12.9941 3.5 -24.9893 -3.5h-0.999023q-11.9951 -7 -15.4932 -20q-3.49902 -13 3.49805 -25v-1q6.99707 -11 20.4912 -15t25.4893 4h0.999023q10.9961 7 14.4941 20q3.49902 13 -3.49805 25zM1337.19 221q-11.9941 -8 -15.9932 -21
q-3.99805 -13 2.99902 -24l1 -1q6.99609 -12 19.9912 -15.5q12.9941 -3.5 24.9893 3.5h0.999023q10.9961 7 14.9941 20t-2.99902 25l-0.999023 1q-6.99707 12 -19.9922 15.5q-12.9941 3.5 -24.9893 -3.5zM1383.17 1186q7.99707 11 3.99805 24.5q-3.99805 13.5 -15.9932 20.5
q-11.9941 7 -24.9893 3.5q-12.9941 -3.5 -19.9912 -15.5q-6.99707 -11 -3.49805 -24.5q3.49805 -13.5 15.4932 -20.5t24.9893 -3.5t19.9912 15.5zM787.425 221q-10.9951 7 -24.4893 3t-20.4912 -15v-1q-6.99707 -12 -3.49902 -25q3.49902 -13 15.4932 -20
q11.9951 -7 24.9893 -3.5q12.9951 3.5 19.9922 15.5v1q6.99707 11 3.49805 24q-3.49805 13 -15.4932 21zM573.516 1017q-11.9941 8 -24.9893 4q-12.9941 -4 -19.9912 -16q-7.99609 -12 -3.99805 -25t14.9932 -20q11.9951 -7 24.9893 -3.5q12.9951 3.5 20.9912 15.5v1
q6.99707 11 3.49902 24q-3.49902 13 -15.4941 20zM1538.1 422q-6.99707 -12 -3.49805 -25q3.49805 -13 15.4932 -20l1 -1q10.9951 -7 24.4893 -3t20.4912 15v1q6.99707 12 3.49805 25q-3.49805 13 -15.4932 20h-0.999023q-11.9951 7 -24.9893 3.5
q-12.9951 -3.5 -19.9922 -15.5zM1062.31 660q14.9932 0 25.9883 10.5t10.9951 25.5v580q0 15 -10.9951 25.5t-25.9883 10.5q-14.9941 0 -25.4893 -10.5q-10.4961 -10.5 -10.4961 -25.5v-580q0 -15 10.4961 -25.5q10.4951 -10.5 25.4893 -10.5zM1099.29 696q0 15 -10.9951 26
t-25.9883 11h-433.815q-14.9932 0 -25.4883 -11q-10.4961 -11 -10.4961 -26t10.4961 -25.5q10.4951 -10.5 25.4883 -10.5h433.815q14.9932 0 25.9883 10.5t10.9951 25.5z" />
  </g>

</svg>
