<?xml version="1.0" standalone="no"?>
<!DOCTYPE svg PUBLIC "-//W3C//DTD SVG 1.1//EN" "http://www.w3.org/Graphics/SVG/1.1/DTD/svg11.dtd" >
<svg xmlns="http://www.w3.org/2000/svg" xmlns:xlink="http://www.w3.org/1999/xlink" version="1.1" viewBox="0 -410 2048 2048">
  <g transform="matrix(1 0 0 -1 0 1638)">
   <path fill="currentColor"
d="M866 995l218 90q14 6 25 -4.5t5 -24.5l-92 -219q-4 -9 0 -17.5t12 -11.5l220 -91q8 -3 11 -9t3 -12t-3 -11.5t-11 -8.5l-220 -91q-8 -3 -12 -12t0 -17l92 -219q6 -14 -5 -24.5t-25 -4.5l-218 90q-8 4 -17 0.5t-13 -12.5l-90 -219q-4 -7 -9 -10.5t-11 -3.5t-12 3.5
t-10 10.5l-90 219q-4 9 -12 12.5t-18 -0.5l-218 -90q-14 -6 -25 4.5t-5 24.5l90 219q4 8 1 17t-13 12l-218 91q-8 3 -11 8.5t-3 11.5t3 12t11 9l218 91q10 3 13 11.5t-1 17.5l-90 219q-6 14 5 24.5t25 4.5l218 -90q8 -4 17 -0.5t13 12.5l90 219q6 14 21 14t21 -14l90 -219
q4 -9 13 -12.5t17 0.5zM820 927l-52 -128q-4 -8 -1 -15.5t9 -11.5t14 -3.5t14 6.5l180 181q6 6 7 14t-3 14t-12 8.5t-16 -0.5l-128 -52q-8 -5 -12 -13zM956 792l-128 -53q-8 -3 -11 -10.5t-2 -14.5t7 -12.5t16 -5.5h252q10 0 16 5.5t7 12.5t-2 14.5t-11 10.5l-128 53
q-8 3 -16 0zM956 601l-128 53q-8 3 -15 0.5t-11 -8.5t-4 -14t6 -15l180 -179q6 -7 14 -7t14 4t9 11t-1 16l-52 127q-4 8 -12 12zM820 466l-52 127q-4 8 -11 11.5t-14 2t-12 -7.5t-5 -15v-254q0 -9 5 -14.5t12 -7t14 1.5t11 12l52 127q4 9 0 17zM630 465l52 128q4 8 1 15.5
t-9 11.5t-14 3.5t-14 -6.5l-180 -180q-6 -6 -7 -14t4 -14t12 -8.5t15 0.5l128 52q6 4 12 12zM494 601l128 53q8 3 11 10t2 14t-7 12.5t-14 5.5h-256q-10 0 -15 -5.5t-7 -12.5t1 -14t13 -10l126 -53q10 -5 18 0zM494 792l128 -53q8 -3 15 0t11 9t4 14t-6 14l-180 180
q-6 6 -14 6.5t-14 -4t-9 -11.5t1 -16l52 -127q4 -8 12 -12zM630 927l52 -127q4 -9 11 -12t14 -1.5t13 7t6 14.5v255q0 9 -6 15t-13 7.5t-14 -2t-11 -11.5l-52 -127q-6 -9 0 -18z" />
  </g>

</svg>
