<?xml version="1.0" standalone="no"?>
<!DOCTYPE svg PUBLIC "-//W3C//DTD SVG 1.1//EN" "http://www.w3.org/Graphics/SVG/1.1/DTD/svg11.dtd" >
<svg xmlns="http://www.w3.org/2000/svg" xmlns:xlink="http://www.w3.org/1999/xlink" version="1.1" viewBox="0 -410 2048 2048">
  <g transform="matrix(1 0 0 -1 0 1638)">
   <path fill="currentColor"
d="M856 1333q-5 15 -6 31t-1 33q0 3 0.5 18t2 31.5t5 29t9.5 11.5q32 -11 62 -25.5t59 -33.5q8 -5 9.5 -19t2.5 -22q3 -17 4 -34t0 -34q0 -4 -0.5 -16t-3 -24.5t-7 -20.5t-11.5 -3q-26 17 -53.5 30t-56.5 23q-8 2 -10.5 10.5t-4.5 14.5zM1327 1209q-65 -86 -151 -134.5
t-179.5 -60t-189 15.5t-180.5 93q-13 10 -15.5 39t1 60t10 54t10.5 20q81 -64 174 -89.5t184 -14.5t174.5 58.5t146.5 130.5q1 1 7.5 -20t11.5 -50t5.5 -58.5t-9.5 -43.5zM1601 908q29 -51 38.5 -112.5t5 -125.5t-21 -125.5t-40.5 -111.5q-29 -63 -73.5 -115.5t-106.5 -87.5
q-25 -14 -56.5 -27.5t-63 -18t-59 4.5t-44.5 39q-27 49 -34.5 108.5t-8.5 114.5q0 19 2.5 50t1 62t-10 57t-31.5 36q-22 8 -47 0q11 -30 16 -64t4.5 -69t-7 -69t-18.5 -64q-36 -92 -99 -153.5t-142 -95.5t-167.5 -42t-176.5 8t-169 54t-144 97q-8 8 -11.5 24t-3.5 36
t2.5 40.5t6 37t7 26.5t5.5 9q67 -62 145.5 -101.5t162.5 -54t170.5 -1.5t168.5 55q19 9 47 26.5t56.5 39.5t53 47t36 50t6.5 49t-36 44q-1 0 -1 -1q-1 0 -2 4q-5 2 -9 4.5t-9 4.5q-40 19 -82 20.5t-84 -7.5t-83 -24.5t-78 -30.5q-4 -2 -7.5 9t-6 28.5t-4 39.5t-1 42
t2.5 35.5t7 21.5q27 29 49.5 55.5t41.5 56.5q-31 24 -75 20t-88.5 -22.5t-82.5 -44.5t-56 -46q-2 -2 -9 20t-12.5 51.5t-5.5 59t12 42.5q24 26 57 49.5t70 39.5t74.5 22t70.5 -2t59.5 -32t41.5 -69q14 -40 14.5 -77.5t-8.5 -72.5q53 11 104 10t93 -23q20 22 43 37.5
t46.5 21.5t45.5 1.5t40 -22.5q28 29 65.5 62.5t79.5 62.5t87 48.5t87.5 21t80.5 -19.5t68 -73zM1267 366q41 -7 85.5 10.5t85 50t74 76.5t53.5 91.5t23 93.5t-17 83q-17 30 -44.5 41.5t-58.5 11t-62 -9.5t-54 -21q-50 -26 -93 -59t-81 -71q1 -45 0.5 -94.5t6 -92.5t25 -73.5
t57.5 -36.5z" />
  </g>

</svg>
