<?xml version="1.0" standalone="no"?>
<!DOCTYPE svg PUBLIC "-//W3C//DTD SVG 1.1//EN" "http://www.w3.org/Graphics/SVG/1.1/DTD/svg11.dtd" >
<svg xmlns="http://www.w3.org/2000/svg" xmlns:xlink="http://www.w3.org/1999/xlink" version="1.1" viewBox="0 -410 2048 2048">
  <g transform="matrix(1 0 0 -1 0 1638)">
   <path fill="currentColor"
d="M1236 1208q213 -212 213 -512q0 -298 -213 -511q-212 -213 -512 -213q-301 0 -512 212q-212 211 -212 512q0 300 212 512q211 213 512 213q300 0 512 -213zM1185 236q97 97 144 210t47 250q0 138 -47 251t-144 210t-210 144t-251 47q-137 0 -250.5 -47t-210.5 -144
t-143.5 -210t-46.5 -251q0 -137 46.5 -250.5t143.5 -210.5t210.5 -143.5t250.5 -46.5q138 0 251 47t210 144zM140 663q-14 0 -23.5 9.5t-9.5 23.5v1q0 14 9.5 23.5t23.5 9.5t23.5 -9.5t9.5 -23.5v-1q0 -14 -9.5 -23.5t-23.5 -9.5zM1275 696v1q0 14 9.5 23.5t23.5 9.5
t23.5 -9.5t9.5 -23.5v-1q0 -14 -9.5 -23.5t-23.5 -9.5t-23.5 9.5t-9.5 23.5zM724 147h1q14 0 23.5 -9.5t9.5 -23.5t-9.5 -23.5t-23.5 -9.5h-1q-14 0 -23.5 9.5t-9.5 23.5t9.5 23.5t23.5 9.5zM203 960h-1q-12 7 -15.5 20t3.5 25v1q7 11 20 15t25 -3l1 -1q12 -7 15.5 -20
t-3.5 -25t-20.5 -15.5t-24.5 3.5zM1200 422q7 12 20.5 15.5t24.5 -3.5h1q12 -7 15.5 -20t-3.5 -25v-1q-7 -11 -20 -15t-25 3l-1 1q-12 7 -15.5 20t3.5 25zM988 1219q7 12 20 15.5t25 -3.5h1q11 -7 15 -20t-3 -25v-1q-8 -11 -21 -15t-25 4h-1q-11 7 -15 20t4 25zM450 221
q12 -8 15.5 -21t-3.5 -24v-1q-7 -12 -20 -15.5t-25 3.5h-1q-11 7 -15 20t3 25l1 1q7 12 20 15.5t25 -3.5zM404 1186q-8 11 -4 24.5t16 20.5t25 3.5t20 -15.5q7 -11 3.5 -24.5t-15.5 -20.5h-1q-11 -7 -24 -3.5t-20 15.5zM999 221q12 7 25 3t21 -15v-1q7 -12 3.5 -25
t-15.5 -20t-25 -3.5t-20 15.5l-1 1q-7 11 -3 24t15 21zM1214 1017q11 8 24.5 4t20.5 -16t3.5 -25t-15.5 -20q-11 -7 -24.5 -3.5t-20.5 15.5v1q-7 11 -3.5 24t15.5 20zM249 422q7 -12 3.5 -25t-15.5 -20l-1 -1q-12 -7 -25 -3t-20 15v1q-7 12 -3.5 25t15.5 20h1q11 7 24.5 3.5
t20.5 -15.5zM724 660q-15 0 -25.5 10.5t-10.5 25.5v580q0 15 10.5 25.5t25.5 10.5q16 0 26.5 -10.5t10.5 -25.5v-580q0 -15 -10.5 -25.5t-26.5 -10.5zM706 665q-13 8 -17 22t4 28l217 376q8 13 22.5 17t27.5 -4t17 -22t-4 -27l-217 -377q-8 -13 -22 -17t-28 4z" />
  </g>

</svg>
