<?xml version="1.0" standalone="no"?>
<!DOCTYPE svg PUBLIC "-//W3C//DTD SVG 1.1//EN" "http://www.w3.org/Graphics/SVG/1.1/DTD/svg11.dtd" >
<svg xmlns="http://www.w3.org/2000/svg" xmlns:xlink="http://www.w3.org/1999/xlink" version="1.1" viewBox="-3 -410 2048 2048">
  <g transform="matrix(1 0 0 -1 0 1638)">
   <path fill="currentColor"
d="M-3 695q0 300 212 512q213 213 513 213q299 0 512 -213q212 -212 212 -512q0 -299 -212 -513q-211 -211 -512 -211q-302 0 -513 211q-212 212 -212 513zM94 695q0 -261 183 -444t445 -183t444 183q184 184 184 444q0 259 -184 445q-184 184 -444 184q-259 0 -445 -184
q-183 -185 -183 -445zM964 259h-466q-8 0 -13 5t-5 13v59q0 8 5 13.5t13 5.5h160q8 0 13 5t5 13v623q0 9 -7 14.5t-16 2.5l-155 -45q-9 -2 -16 3.5t-7 14.5v64q0 14 13 17l275 80q9 3 16.5 -2.5t7.5 -14.5v-757q0 -8 5 -13t13 -5h159q8 0 13 -5.5t5 -13.5v-59q0 -8 -5 -13
t-13 -5z" />
  </g>

</svg>
