<?xml version="1.0" standalone="no"?>
<!DOCTYPE svg PUBLIC "-//W3C//DTD SVG 1.1//EN" "http://www.w3.org/Graphics/SVG/1.1/DTD/svg11.dtd" >
<svg xmlns="http://www.w3.org/2000/svg" xmlns:xlink="http://www.w3.org/1999/xlink" version="1.1" viewBox="0 -410 2048 2048">
  <g transform="matrix(1 0 0 -1 0 1638)">
   <path fill="currentColor"
d="M1498 1450q36 0 60 -24.5t24 -59.5v-967q0 -35 -24 -59.5t-60 -24.5h-500v-201h296q12 0 20 -8t8 -19q0 -12 -8 -20t-20 -8h-868q-12 0 -20 8t-8 20q0 11 8 19t20 8h238v201h-500q-34 0 -59 24.5t-25 59.5v967q0 35 25 59.5t59 24.5h1334zM164 1395q-12 0 -20 -9t-8 -20
v-765h1390v765q0 11 -8 20t-20 9h-1334zM944 315h-224v-201h224v201zM1498 370q12 0 20 8.5t8 20.5v147h-1390v-147q0 -12 8 -20.5t20 -8.5h1334zM414 1102q-12 0 -20 8t-8 19q0 12 8 20.5t20 8.5h56q12 0 20 -8.5t8 -20.5q0 -11 -8 -19t-20 -8h-56zM414 935q-12 0 -20 8.5
t-8 19.5t8 19.5t20 8.5h56q12 0 20 -8.5t8 -19.5t-8 -19.5t-20 -8.5h-56zM414 768q-12 0 -20 8t-8 20q0 11 8 19t20 8h56q12 0 20 -8t8 -19q0 -12 -8 -20t-20 -8h-56zM638 935q-12 0 -21 8.5t-9 19.5t9 19.5t21 8.5h612q10 0 18 -8.5t8 -19.5t-8 -19.5t-18 -8.5h-612z
M638 1102q-12 0 -21 8t-9 19q0 12 9 20.5t21 8.5h612q10 0 18 -8.5t8 -20.5q0 -11 -8 -19t-18 -8h-612zM638 768q-12 0 -21 8t-9 20q0 11 9 19t21 8h612q10 0 18 -8t8 -19q0 -12 -8 -20t-18 -8h-612z" />
  </g>

</svg>
