<?xml version="1.0" standalone="no"?>
<!DOCTYPE svg PUBLIC "-//W3C//DTD SVG 1.1//EN" "http://www.w3.org/Graphics/SVG/1.1/DTD/svg11.dtd" >
<svg xmlns="http://www.w3.org/2000/svg" xmlns:xlink="http://www.w3.org/1999/xlink" version="1.1" viewBox="0 -410 2048 2048">
  <g transform="matrix(1 0 0 -1 0 1638)">
   <path fill="currentColor"
d="M1762 1612q22 -23 33 -51.5t10.5 -58.5t-12.5 -59t-35 -52l-1153 -1153q-5 -5 -10 -6l-494 -169q-15 -5 -26 6t-6 26l167 490q2 10 7 15l1153 1153q23 23 52 34.5t59.5 12t59 -10.5t51.5 -33zM268 174l293 100q-2 19 -4 34t-5 20q-5 3 -27.5 6.5t-46.5 4.5q-11 0 -18 7
t-7 18q-1 23 -4 46t-7 28q-5 3 -27 6t-46 4q-10 0 -17 7t-8 18q0 23 -3 45.5t-8 28.5q-3 2 -18.5 4t-34.5 4l-100 -293zM1578 1283l-73 72l-970 -970q17 -2 31.5 -7t23.5 -14q8 -8 12.5 -21.5t6.5 -28.5zM319 603q16 -3 30 -7.5t22 -12.5t12.5 -22t7.5 -31l970 970l-73 72z
M427 494q16 -2 30 -7t22 -13t13 -22t7 -30l970 969l-72 73zM1398 1682l290 -289l34 34q15 15 23 34.5t8.5 40t-6.5 39.5t-22 34l-144 144q-15 15 -34.5 22t-39.5 7t-39.5 -8t-34.5 -23z" />
  </g>

</svg>
