<?xml version="1.0" standalone="no"?>
<!DOCTYPE svg PUBLIC "-//W3C//DTD SVG 1.1//EN" "http://www.w3.org/Graphics/SVG/1.1/DTD/svg11.dtd" >
<svg xmlns="http://www.w3.org/2000/svg" xmlns:xlink="http://www.w3.org/1999/xlink" version="1.1" viewBox="0 -410 2048 2048">
  <g transform="matrix(1 0 0 -1 0 1638)">
   <path fill="currentColor"
d="M1904 1499l-21 -53q-51 -133 -125.5 -243.5t-161 -199t-178.5 -155.5t-178.5 -111.5t-162 -67t-128.5 -22.5q-8 0 -15 0.5t-14 1.5q-24 4 -38.5 13t-22 19.5t-9.5 20.5t-2 16v-7h-2l-22 386q-54 -8 -116 -27t-123 -43t-116 -50.5t-97 -48.5l138 -781l-99 -18l-270 1532
l15 207l84 -189l18 -102q34 21 85 49t110.5 57t125 54.5t129 40.5t121.5 15.5t104 -19.5q92 -41 108 -159q18 -128 27 -228l1 1q51 -19 112 -25.5t125 -4t129 12.5t125.5 23t112.5 27.5t91 27t62 21t24 8.5zM1006 957q9 95 -41 127q-33 22 -91 20l13 -271q19 17 40 31
q25 18 46.5 38t32.5 55zM363 980q34 18 84 43t108 49t120 44.5t120.5 30.5t109.5 6.5t88 -27.5q18 -13 34 -33q4 77 -2 202t-34 313q-12 91 -79 121q-42 19 -98 16t-118 -20t-126 -44t-122 -56t-105 -56t-76 -45zM925 699q35 -6 98.5 8.5t143 50t168.5 93t176 138.5
t165.5 186.5t137.5 236.5q-34 -12 -85.5 -27t-114 -30t-132.5 -27t-141 -17t-139.5 -0.5t-128.5 23.5q6 -85 6 -149t-3.5 -111t-9 -78.5t-11.5 -50.5q-8 -24 -19 -43t-24.5 -33t-28 -25.5t-27.5 -20.5q-15 -11 -27 -20.5t-20.5 -20.5t-12.5 -25.5t-3 -35.5q0 -3 4.5 -10.5
t27.5 -11.5z" />
  </g>

</svg>
