<?xml version="1.0" standalone="no"?>
<!DOCTYPE svg PUBLIC "-//W3C//DTD SVG 1.1//EN" "http://www.w3.org/Graphics/SVG/1.1/DTD/svg11.dtd" >
<svg xmlns="http://www.w3.org/2000/svg" xmlns:xlink="http://www.w3.org/1999/xlink" version="1.1" viewBox="0 -410 2048 2048">
  <g transform="matrix(1 0 0 -1 0 1638)">
   <path fill="currentColor"
d="M1504 891q28 0 46 -19t18 -46q0 -26 -18 -44.5t-46 -18.5h-296q2 -151 34 -298t94 -287q12 -24 2 -49t-34 -36q-14 -5 -26 -5q-18 0 -34 10t-24 28q-68 152 -103 312t-37 325h-546q-2 -165 -37 -325t-103 -312q-8 -18 -24 -28t-34 -10q-12 0 -28 5q-24 11 -33 36t1 49
q64 140 96 287t34 298h-314q-26 0 -45 18.5t-19 44.5q0 27 19 46t45 19h310q-6 119 -32 235.5t-72 228.5l-22 58q-10 24 0 48.5t34 34.5q26 9 51 -0.5t35 -35.5l22 -58q50 -124 78 -252t36 -259h550q14 263 112 511l24 58q10 26 34 36.5t50 -0.5q24 -10 35 -34.5t-1 -48.5
l-20 -58q-46 -112 -72 -228.5t-34 -235.5h294v0z" />
  </g>

</svg>
