<?xml version="1.0" standalone="no"?>
<!DOCTYPE svg PUBLIC "-//W3C//DTD SVG 1.1//EN" "http://www.w3.org/Graphics/SVG/1.1/DTD/svg11.dtd" >
<svg xmlns="http://www.w3.org/2000/svg" xmlns:xlink="http://www.w3.org/1999/xlink" version="1.1" viewBox="0 -410 2048 2048">
  <g transform="matrix(1 0 0 -1 0 1638)">
   <path fill="currentColor"
d="M188 713l520 520q7 7 16.5 7t16.5 -7l520 -520q7 -7 7 -16.5t-7 -16.5l-520 -520q-7 -7 -16.5 -7t-16.5 7l-520 520q-7 7 -7 16.5t7 16.5zM293 680l415 -415q7 -7 16.5 -7t16.5 7l415 415q7 7 7 16.5t-7 16.5l-415 415q-7 7 -16.5 7t-16.5 -7l-415 -415q-7 -7 -7 -16.5
t7 -16.5zM674 417v37q0 10 6.5 16.5t16.5 6.5h54q9 0 16 -6.5t7 -16.5v-37q0 -10 -7 -16.5t-16 -6.5h-54q-10 0 -16.5 6.5t-6.5 16.5zM774 568h-100v4q0 52 50 110l24 26q48 54 48 95q0 64 -80 64q-49 0 -116 -30v58q0 8 5 14.5t13 8.5q58 15 114 15q81 0 127 -30t46 -84
q0 -49 -56 -102l-23 -21q-52 -49 -52 -105v-23z" />
  </g>

</svg>
