<?xml version="1.0" standalone="no"?>
<!DOCTYPE svg PUBLIC "-//W3C//DTD SVG 1.1//EN" "http://www.w3.org/Graphics/SVG/1.1/DTD/svg11.dtd" >
<svg xmlns="http://www.w3.org/2000/svg" xmlns:xlink="http://www.w3.org/1999/xlink" version="1.1" viewBox="-36 -410 2048 2048">
  <g transform="matrix(1 0 0 -1 0 1638)">
   <path fill="currentColor"
d="M1467 1457q8 0 13 -5t5 -13v-1485q0 -8 -5 -13t-13 -5h-1485q-8 0 -13 5t-5 13v1485q0 8 5 13t13 5h1485zM913 1162q-22 -30 -43.5 -71t-41 -86t-35 -90t-25 -82t-12 -63t4.5 -32q7 -7 21.5 -8.5t30.5 -0.5t31.5 4t25.5 5q14 3 24 10.5t12 21.5q37 328 322 480
q13 7 18 21q7 22 12.5 43.5t9.5 43.5q1 11 -3 20t-11.5 15t-17.5 7.5t-20 -2.5q-187 -82 -303 -236zM1 1411q-7 -6 -4.5 -32t12 -63t24.5 -82t34.5 -90t41 -86.5t43.5 -70.5q116 -153 304 -236q10 -4 20 -2.5t17.5 7.5t11.5 15t2 20q-8 43 -21 87q-4 12 -18 21
q-285 152 -323 479q-2 14 -12 22t-24 11q-10 2 -25.5 5t-31 4t-30 -0.5t-21.5 -8.5zM109 -23q14 3 24 11t12 22q37 327 323 479q14 9 18 21q14 44 21 88q2 10 -2 19.5t-11.5 15t-17.5 7t-20 -2.5q-94 -42 -170 -100t-134 -136q-22 -29 -43.5 -70t-41 -86t-34.5 -90
t-24.5 -82.5t-12 -63.5t4.5 -32q7 -7 21.5 -8.5t30 -0.5t31 4t25.5 5zM532 227q22 29 43.5 70t41 86t34.5 90t24.5 82.5t12 63t-4.5 32.5q-8 7 -22 8.5t-29.5 0.5t-31 -4t-25.5 -5q-14 -4 -24 -11.5t-12 -21.5q-39 -329 -323 -480q-13 -7 -18 -21q-7 -21 -12 -43t-9 -44
q-2 -11 2 -20t11.5 -14.5t17.5 -7.5t20 3q188 81 304 236zM683 738q7 6 4.5 32t-12 63t-24.5 82t-34.5 90t-41 86t-43.5 71q-116 153 -304 236q-10 4 -20 2.5t-17.5 -7.5t-11.5 -15t-2 -20q7 -44 21 -87q4 -12 18 -21q284 -151 323 -480q2 -14 12 -21.5t24 -10.5
q10 -2 25.5 -5t31 -4t29.5 0.5t22 8.5zM1216 -9q10 -5 20 -3t17.5 7.5t11.5 14.5t3 20q-4 22 -9.5 44t-12.5 43q-5 15 -18 21q-285 152 -322 480q-2 14 -12 21.5t-24 11.5q-10 2 -25.5 5t-31.5 4t-30.5 -0.5t-21.5 -8.5q-7 -6 -4.5 -32t12 -63.5t25 -82.5t35 -90t41 -86
t43.5 -70q116 -155 303 -236zM1444 -23q7 6 4.5 32t-12 63.5t-25 82.5t-34.5 90t-41 86t-44 70q-114 153 -303 236q-10 4 -20 2.5t-17.5 -7t-11.5 -15t-2 -19.5q7 -44 21 -88q4 -14 18 -21q285 -152 322 -479q2 -14 12 -22t24 -11q10 -2 25.5 -5t31.5 -4t30 0.5t22 8.5z
M1292 987q22 29 44 70.5t41 86.5t34.5 90t25 82t12 63t-4.5 32q-8 7 -22 8.5t-30 0.5t-31.5 -4t-25.5 -5q-14 -3 -24 -11t-12 -22q-37 -327 -322 -479q-14 -8 -18 -21q-14 -44 -21 -87q-2 -11 2 -20t11.5 -15t17.5 -7.5t20 2.5q187 82 303 236z" />
  </g>

</svg>
