<?xml version="1.0" standalone="no"?>
<!DOCTYPE svg PUBLIC "-//W3C//DTD SVG 1.1//EN" "http://www.w3.org/Graphics/SVG/1.1/DTD/svg11.dtd" >
<svg xmlns="http://www.w3.org/2000/svg" xmlns:xlink="http://www.w3.org/1999/xlink" version="1.1" viewBox="-4 -410 2048 2048">
  <g transform="matrix(1 0 0 -1 0 1638)">
   <path fill="currentColor"
d="M111 1439q14 -3 24 -11t12 -22q37 -327 322 -479q13 -8 18 -21q14 -41 22 -87q2 -11 -2 -20t-11.5 -15t-17.5 -7.5t-20 2.5q-188 82 -304 236q-22 29 -43.5 70.5t-41 86.5t-35 90t-25 82t-12 63t4.5 32q7 7 21.5 8.5t30.5 0.5t31.5 -4t25.5 -5zM576 766q-14 3 -23.5 10.5
t-11.5 21.5q-39 329 -323 480q-13 7 -18 21q-14 43 -21 87q-2 11 2 20t11.5 15t17.5 7.5t20 -2.5q187 -82 303 -236q22 -30 44 -71t41 -86t34.5 -90t25 -82t12 -63t-4.5 -32q-8 -7 -22 -9t-30 -0.5t-31.5 4.5t-25.5 5zM1446 1439q7 -6 4.5 -32t-12 -63t-25 -82t-35 -90
t-41 -86t-43.5 -71q-116 -154 -304 -236q-10 -4 -20 -2.5t-17.5 7.5t-11.5 15t-2 20q8 46 22 87q4 13 18 21q285 152 322 479q2 14 12 22t24 11q10 2 25.5 5t31.5 4t30 -0.5t22 -8.5zM763 766q-7 6 -4.5 32t12 63t25 82t34.5 90t41 86.5t44 70.5q116 154 303 236
q10 4 20 2.5t17.5 -7.5t11.5 -15t2 -20q-8 -44 -21 -87q-5 -14 -18 -21q-284 -151 -323 -480q-2 -14 -11.5 -21.5t-23.5 -10.5q-10 -2 -25.5 -5t-31.5 -4.5t-30.5 0.5t-21.5 9zM1337 5q-14 3 -24 11t-12 22q-37 327 -322 479q-14 7 -18 21q-14 41 -22 88q-2 10 2 19.5
t11.5 15t17.5 7t20 -2.5q189 -83 304 -236q22 -29 43.5 -70t41 -86t35 -90t25 -82.5t12 -63.5t-4.5 -32q-8 -7 -22 -8.5t-30 -0.5t-31.5 4t-25.5 5zM872 679q14 -4 23.5 -11.5t11.5 -21.5q39 -329 323 -480q13 -7 18 -21q7 -21 12 -43t9 -44q2 -11 -2 -20t-11.5 -14.5
t-17.5 -7.5t-20 3q-187 81 -303 236q-22 29 -44 70t-41 86t-34.5 90t-25 82.5t-12 63t4.5 32.5t21.5 8.5t30.5 0.5t31.5 -4t25.5 -5zM2 5q-7 6 -4.5 32t12 63.5t25 82.5t35 90t41 86t43.5 70q115 153 304 236q10 4 20 2.5t17.5 -7t11.5 -15t2 -19.5q-8 -47 -22 -88
q-5 -14 -18 -21q-285 -152 -322 -479q-2 -14 -12 -22t-24 -11q-10 -2 -25.5 -5t-31.5 -4t-30.5 0.5t-21.5 8.5zM685 679q7 -7 4.5 -32.5t-12 -63t-25 -82.5t-34.5 -90t-41 -86t-44 -70q-116 -155 -303 -236q-10 -5 -20 -3t-17.5 7.5t-11.5 14.5t-2 20q4 22 9 44t12 43
q5 14 18 21q284 151 323 480q2 14 11.5 21.5t23.5 11.5q10 2 25.5 5t31.5 4t30 -0.5t22 -8.5z" />
  </g>

</svg>
