<?xml version="1.0" standalone="no"?>
<!DOCTYPE svg PUBLIC "-//W3C//DTD SVG 1.1//EN" "http://www.w3.org/Graphics/SVG/1.1/DTD/svg11.dtd" >
<svg xmlns="http://www.w3.org/2000/svg" xmlns:xlink="http://www.w3.org/1999/xlink" version="1.1" viewBox="0 -410 2537 2048">
  <g transform="matrix(1 0 0 -1 0 1638)">
   <path fill="currentColor"
d="M2491 1072q29 -29 38.5 -74.5t6 -89.5t-16.5 -77.5t-28 -39.5q-8 -5 -15 -4.5t-14 2.5q-8 3 -15 7q-7 6 -11 12q-3 5 -2.5 12.5t10.5 17.5q20 19 30 46t10 55.5t-10 56t-29 46.5t-43.5 30t-51 11.5t-54 -11.5t-51.5 -37l-627 -648q-5 -68 -32.5 -123.5t-71.5 -94.5
t-101.5 -60.5t-122.5 -21.5q-68 0 -128 23.5t-105 67t-71 104.5t-26 136q0 16 -8 30.5t-21.5 25.5t-31.5 17t-39 6q-20 0 -38 -6t-31.5 -17t-21.5 -25.5t-8 -30.5q0 -75 -26 -136t-71 -104.5t-105 -67t-129 -23.5q-68 0 -128 23.5t-105 67t-71.5 104.5t-26.5 135v1h1
l654 654q29 29 66 43.5t75 14.5t74.5 -14.5t65.5 -43.5t38.5 -74.5t6 -89.5t-16.5 -77.5t-28 -39.5q-7 -5 -14.5 -4.5t-14.5 2.5q-8 3 -15 7q-7 6 -11 12q-3 5 -2.5 12.5t10.5 17.5q20 19 30 46t10 55.5t-9.5 56t-28.5 46.5q-20 19 -44.5 30t-51 11.5t-53.5 -11.5t-52 -37
l-597 -617h503q0 27 13 51t35.5 42t52.5 28.5t64 10.5t64.5 -10.5t53 -28.5t35.5 -42t13 -51h530l654 654q29 29 65.5 43.5t75 14.5t75 -14.5t65.5 -43.5zM670 305q8 17 -2.5 32t-28.5 15h-418q-18 0 -28 -15t-2 -32q16 -34 40.5 -62t55.5 -48t67.5 -31t75.5 -11
q40 0 76.5 11t67.5 31t55.5 48t40.5 62zM1530 305q8 17 -2.5 32t-28.5 15h-417q-18 0 -28.5 -15t-2.5 -32q16 -34 40.5 -62t55.5 -48t67.5 -31t75.5 -11q40 0 76.5 11t67.5 31t55.5 48t40.5 62z" />
  </g>

</svg>
