<?xml version="1.0" standalone="no"?>
<!DOCTYPE svg PUBLIC "-//W3C//DTD SVG 1.1//EN" "http://www.w3.org/Graphics/SVG/1.1/DTD/svg11.dtd" >
<svg xmlns="http://www.w3.org/2000/svg" xmlns:xlink="http://www.w3.org/1999/xlink" version="1.1" viewBox="0 -410 2048 2048">
  <g transform="matrix(1 0 0 -1 0 1638)">
   <path fill="currentColor"
d="M928 643v-342q0 -16 11 -26.5t28 -7.5q150 27 242 120t121 243q3 16 -7.5 27.5t-27.5 11.5h-342v55h342q17 0 27.5 11.5t7.5 27.5q-54 305 -363 362q-15 3 -27 -7t-12 -26v-342h-56v342q0 16 -11 26.5t-28 7.5q-150 -27 -242 -119t-121 -244q-3 -16 7.5 -27.5t27.5 -11.5
h342v-55h-341q-16 0 -26.5 -11.5t-7.5 -27.5q22 -147 117 -242q97 -94 244 -121q17 -3 28 7.5t11 26.5v342h56zM928 -119h-56v297q0 29 -30 33q-181 26 -290.5 136t-135.5 292q-4 30 -33 30h-298v55h297q13 0 22 9t11 21q25 174 136 288q113 114 291 140q30 4 30 33v297h56
v-297q0 -29 30 -33q174 -24 291 -141q117 -114 136 -287q3 -12 12 -21t23 -9h295v-55h-295q-14 0 -23 -9t-12 -21q-19 -171 -136 -288q-113 -114 -291 -140q-30 -4 -30 -33v-297z" />
  </g>

</svg>
