<?xml version="1.0" standalone="no"?>
<!DOCTYPE svg PUBLIC "-//W3C//DTD SVG 1.1//EN" "http://www.w3.org/Graphics/SVG/1.1/DTD/svg11.dtd" >
<svg xmlns="http://www.w3.org/2000/svg" xmlns:xlink="http://www.w3.org/1999/xlink" version="1.1" viewBox="0 -410 2048 2048">
  <g transform="matrix(1 0 0 -1 0 1638)">
   <path fill="currentColor"
d="M927 631v-351q0 -12 9.5 -21t21.5 -9h346q13 0 22 9t9 21v345q0 14 -9 23t-22 9h-350v55h350q13 0 22 9t9 23v345q0 12 -9 21.5t-22 9.5h-346q-12 0 -21.5 -9.5t-9.5 -21.5v-350h-54v350q0 12 -9.5 21.5t-21.5 9.5h-346q-13 0 -22 -9.5t-9 -21.5l1 -345q0 -14 9 -23
t21 -9h350v-55h-350q-13 0 -22 -9t-9 -23v-345q0 -12 9 -21t22 -9h346q12 0 21.5 9t9.5 21v351h54zM927 -131h-54v296q0 12 -9.5 21.5t-21.5 9.5h-400q-13 0 -22 9t-9 23v397q0 14 -9 23t-22 9h-294v55h294q13 0 22 9t9 23v399q0 12 9 21.5t22 9.5h400q12 0 21.5 9t9.5 21
v296h54v-296q0 -12 9.5 -21t21.5 -9h400q12 0 21.5 -9.5t9.5 -21.5v-399q0 -14 9 -23t22 -9h294v-55h-294q-13 0 -22 -9t-9 -23v-397q0 -14 -9.5 -23t-21.5 -9h-400q-12 0 -21.5 -9.5t-9.5 -21.5v-296z" />
  </g>

</svg>
