<?xml version="1.0" standalone="no"?>
<!DOCTYPE svg PUBLIC "-//W3C//DTD SVG 1.1//EN" "http://www.w3.org/Graphics/SVG/1.1/DTD/svg11.dtd" >
<svg xmlns="http://www.w3.org/2000/svg" xmlns:xlink="http://www.w3.org/1999/xlink" version="1.1" viewBox="0 -410 2048 2048">
  <g transform="matrix(1 0 0 -1 0 1638)">
   <path fill="currentColor"
d="M291 696q0 181 127 308t308 127q180 0 307 -127t127 -308q0 -180 -127 -307t-307 -127q-181 0 -308 127t-127 307zM378 696q0 -144 102 -246q103 -101 246 -101q144 0 245 101q102 103 102 246q0 144 -102 246t-245 102q-144 0 -246 -102t-102 -246z" />
  </g>

</svg>
