<?xml version="1.0" standalone="no"?>
<!DOCTYPE svg PUBLIC "-//W3C//DTD SVG 1.1//EN" "http://www.w3.org/Graphics/SVG/1.1/DTD/svg11.dtd" >
<svg xmlns="http://www.w3.org/2000/svg" xmlns:xlink="http://www.w3.org/1999/xlink" version="1.1" viewBox="0 -410 2048 2048">
  <g transform="matrix(1 0 0 -1 0 1638)">
   <path fill="currentColor"
d="M920 786q22 0 42 -8.5t35 -23t23 -34t8 -41.5t-8 -41.5t-23 -34t-35 -23t-42 -8.5t-41 8.5t-34 23t-23 34t-8 41.5t8 41.5t23 34t34 23t41 8.5zM920 611q30 0 50 20t20 48q0 29 -20 48.5t-50 19.5q-28 0 -48 -19.5t-20 -48.5q0 -28 20 -48t48 -20zM1566 821
q40 -36 58 -81.5t8 -88.5q-10 -45 -48 -79t-100 -55q-60 -19 -122 -12t-136 42l-20 -43q36 -17 84 -32.5t106 -15.5q24 0 50 4t52 13q2 0 4 1q52 -91 18 -162q-16 -40 -57 -66.5t-95 -32.5q-44 -5 -81 -31t-55 -68q-22 -49 -59 -79.5t-81 -34.5q-48 -5 -92 19.5t-82 78.5
q-36 52 -49 113t-3 142l-46 6q-4 -28 -5 -62t4 -71.5t19 -77t42 -77.5q2 0 2 -1v-2q-70 -76 -148 -68q-44 5 -82 36t-58 80q-18 41 -55 68t-81 32q-54 6 -95 35t-59 69q-8 19 -10 43.5t1 50t12 49t25 40.5v-8q4 5 6 6t6 6q38 52 92 82t136 46l-10 46q-28 -5 -61 -14.5
t-67 -26t-67 -42t-59 -63.5l-2 -4q-96 43 -112 120q-10 43 8 88.5t58 81.5q32 30 47 73t5 86q-12 53 1 100t45 77q34 30 85 35.5t115 -14.5q60 -20 105 -61.5t85 -113.5l40 23q-14 25 -32 53.5t-45 55.5t-61 50t-78 38q-2 1 -6 1q4 58 25 93t57 56q38 21 86 15.5t94 -32.5
q40 -23 85 -23t85 23q46 27 94 29.5t86 -18.5q40 -24 61 -70t21 -113q0 -63 -26 -119t-82 -116l36 -32q18 21 39 47.5t39 60t30 73.5t12 87v3q100 21 160 -31q32 -29 44 -76.5t2 -100.5q-10 -43 4 -86.5t48 -72.5zM1132 675q36 12 55 39.5t11 54.5q-10 27 -41 38t-69 -1
q-24 -8 -41 -23.5t-23 -35.5q-26 37 -70 51q16 11 26 32.5t10 47.5q0 39 -20 66t-50 27q-28 0 -48 -27t-20 -66q0 -26 10 -47.5t26 -32.5q-44 -14 -70 -51q-6 20 -23 35.5t-43 23.5q-36 12 -68 1t-40 -38t11 -54.5t55 -39.5q26 -8 49 -5t39 15v-3v-3q0 -42 26 -77
q-20 0 -40 -11t-36 -33q-24 -31 -23 -64.5t25 -49.5q12 -9 26 -10.5t29 3t29 15t26 25.5q14 22 19 45t-1 42q10 -4 21 -6.5t21 -2.5q12 0 23 2.5t21 6.5q-6 -19 -1 -42t21 -45q10 -15 24 -25.5t29 -15t29 -3t26 10.5q24 16 24 49.5t-22 64.5q-16 22 -37 33t-41 11
q14 17 21 36t7 41v6q16 -12 39 -15t49 5z" />
  </g>

</svg>
