<?xml version="1.0" standalone="no"?>
<!DOCTYPE svg PUBLIC "-//W3C//DTD SVG 1.1//EN" "http://www.w3.org/Graphics/SVG/1.1/DTD/svg11.dtd" >
<svg xmlns="http://www.w3.org/2000/svg" xmlns:xlink="http://www.w3.org/1999/xlink" version="1.1" viewBox="0 -410 2048 2048">
  <g transform="matrix(1 0 0 -1 0 1638)">
   <path fill="currentColor"
d="M920 751q26 0 45 -18.5t19 -44.5q0 -27 -19 -46t-45 -19t-45 19t-19 46q0 26 19 44.5t45 18.5zM1078 805q34 12 64 2t38 -35q8 -26 -10 -51.5t-52 -36.5q-24 -8 -46 -5.5t-36 13.5v-4q0 -42 -26 -72q18 0 38 -11t34 -31q22 -29 21 -60.5t-23 -46.5q-10 -8 -23 -9.5
t-27 2.5t-28 14t-24 24q-14 20 -18 42t2 40q-10 -4 -20 -6.5t-22 -2.5q-10 0 -20 2.5t-20 6.5q6 -18 2 -40t-18 -42q-22 -29 -52 -38.5t-52 7.5q-22 15 -22 46.5t20 60.5q14 20 34 31t38 11q-10 14 -17 32.5t-7 39.5v4q-16 -11 -38 -13.5t-44 5.5q-34 11 -52 36.5t-10 51.5
q8 25 37 35t65 -2q22 -7 38 -22t22 -32q24 36 66 47q-14 11 -24 31t-10 45q0 36 19 61t45 25t45 -25t19 -61q0 -25 -9 -45t-25 -31q42 -11 66 -47q8 17 23 32t39 22zM920 587q22 0 40 8t32 21.5t22 32t8 39.5t-8 39t-22 31.5t-32 21t-40 7.5q-20 0 -38 -7.5t-32 -21
t-22 -31.5t-8 -39t8 -39.5t22 -32t32 -21.5t38 -8zM1554 852q46 -42 66 -95.5t8 -104.5q-10 -45 -41 -80.5t-81 -60.5q26 -50 31 -97t-13 -89q-22 -48 -70 -79.5t-110 -37.5q-30 -4 -55 -21.5t-37 -46.5q-26 -56 -70 -92t-96 -41q-6 -1 -10 -1h-8q-84 0 -154 76
q-72 -76 -156 -76h-8t-8 1q-54 5 -98 41t-70 92q-12 29 -37 46.5t-55 21.5q-62 6 -110 37.5t-68 79.5q-20 42 -15 89t31 97q-50 25 -81 60.5t-41 80.5q-12 51 8 104.5t66 95.5q24 21 33 49.5t3 58.5q-14 60 2 115.5t56 90.5q32 31 79 41t101 0q6 55 31 99.5t65 67.5
q46 26 103 22.5t111 -34.5q26 -15 57 -16t57 15q54 31 111 32.5t103 -24.5q80 -47 96 -162q54 10 101 0t81 -41q38 -35 54 -90.5t2 -115.5q-6 -30 4 -58.5t32 -49.5zM1586 661q8 40 -8 82.5t-54 76.5q-32 28 -44 68t-4 82q10 48 -2 92t-42 72q-56 49 -150 29v-3
q0 -44 -11 -81.5t-27 -69t-36 -57t-38 -44.5l-34 32q54 56 78 108t24 112q0 62 -19 105t-57 65q-36 20 -81 18t-89 -28q-36 -21 -78 -21t-80 21q-44 26 -89 31t-79 -15q-36 -20 -54 -52.5t-22 -85.5q0 -2 4 -2q42 -14 74 -36t57 -47t42 -51.5t31 -49.5l-40 -22
q-36 67 -79 106t-99 57q-60 20 -107 15t-79 -34q-30 -28 -42 -72t-2 -92q10 -42 -3 -82t-45 -68q-38 -34 -54 -76.5t-8 -82.5q18 -73 104 -111l2 2q26 36 57 60t63 39.5t62 24t56 13.5l10 -43q-76 -15 -127 -43.5t-85 -76.5q-4 -5 -7 -9.5t-5 -10.5h-2q-54 -90 -24 -163
q16 -37 54 -62t90 -30q42 -5 76 -29.5t50 -63.5q20 -45 55 -74t77 -32q74 -8 138 63l-2 3q-26 35 -39 71.5t-18 72t-4 67.5t5 59l44 -6q-10 -76 2 -133t46 -105q74 -101 162 -92q42 3 77 32t55 74q18 39 52 63.5t76 29.5q50 5 88 30t54 62q30 68 -18 151q-2 0 -4 -1
q-24 -8 -48 -11t-48 -3q-54 0 -99 14t-77 30l18 40q70 -32 128 -39t114 11q58 20 93 52t45 74z" />
  </g>

</svg>
