<?xml version="1.0" standalone="no"?>
<!DOCTYPE svg PUBLIC "-//W3C//DTD SVG 1.1//EN" "http://www.w3.org/Graphics/SVG/1.1/DTD/svg11.dtd" >
<svg xmlns="http://www.w3.org/2000/svg" xmlns:xlink="http://www.w3.org/1999/xlink" version="1.1" viewBox="0 -410 2105 2048">
  <g transform="matrix(1 0 0 -1 0 1638)">
   <path fill="currentColor"
d="M1391 658l-164 186l601 106q61 11 118 -11.5t94 -70.5l65 -85zM903 1350q37 -44 58.5 -93.5t26.5 -99t-7 -96t-40 -83.5l778 -893h-284l-440 504l-212 -31q-3 -47 -25 -89.5t-59 -77.5t-86.5 -59.5t-107.5 -34.5q-66 -12 -128 -1.5t-111.5 38t-83.5 70.5t-44 97t6.5 105
t54 93.5t92 73t121.5 41.5q78 14 149.5 -3t123.5 -57l144 26l-93 106q-66 3 -132 34.5t-118 90.5q-43 51 -65 108.5t-22 113t21.5 105.5t64.5 85q43 34 97.5 46t111 2t111 -40.5t98.5 -80.5zM487 400q43 8 80 27t62 45.5t37 57t6 62.5q-5 31 -27.5 56.5t-55.5 42t-74 22.5
t-84 -2q-44 -7 -80.5 -26t-62 -45.5t-37.5 -58t-6 -62.5q6 -32 28 -57t55 -41.5t74 -22.5t85 2zM569 1080q29 -33 64.5 -54.5t71.5 -29.5t69.5 -2.5t59.5 26.5q25 21 36.5 52t9.5 67t-17.5 73t-43.5 70q-29 33 -64 54t-71 29t-70 2.5t-59 -26.5q-26 -20 -37.5 -51.5
t-9.5 -67t17 -73t44 -69.5zM959 768q-21 -17 -23 -42t15 -45q17 -19 42.5 -21.5t45.5 14.5t22.5 41.5t-13.5 44.5q-17 20 -43 22t-46 -14z" />
  </g>

</svg>
