<?xml version="1.0" standalone="no"?>
<!DOCTYPE svg PUBLIC "-//W3C//DTD SVG 1.1//EN" "http://www.w3.org/Graphics/SVG/1.1/DTD/svg11.dtd" >
<svg xmlns="http://www.w3.org/2000/svg" xmlns:xlink="http://www.w3.org/1999/xlink" version="1.1" viewBox="0 -410 2056 2048">
  <g transform="matrix(1 0 0 -1 0 1638)">
   <path fill="currentColor"
d="M1363 896l-243 137l583 340q30 17 62 25t65 7t64.5 -11t60.5 -29l101 -66zM586 1451q57 -32 98.5 -77t66 -96t30.5 -105.5t-9 -105.5l1283 -736l-100 -66q-29 -19 -60.5 -29t-64.5 -11t-65.5 7t-61.5 25l-724 414l-208 -114q15 -51 9 -105t-30.5 -105t-66 -96t-98.5 -78
q-65 -37 -133 -49.5t-130.5 -1.5t-114.5 44t-83 87t-34 115.5t19 121t66.5 112.5t109.5 91q77 45 157 54t151 -14l140 80l-139 79q-70 -22 -150.5 -13.5t-157.5 53.5q-65 37 -110 90t-67 113t-19 121.5t34 115.5t83 87t114.5 43.5t131 -2t133.5 -49.5zM643 1072q19 31 19 69
t-16 75.5t-47 72t-73 59.5q-42 24 -87 33.5t-86 4.5t-74 -24t-51 -50q-18 -32 -18 -70t16 -75.5t47 -72t73 -58.5t87 -33.5t85.5 -4.5t73.5 23.5t51 50.5zM525 277q42 25 72.5 59.5t46.5 72t16.5 75t-17.5 69.5t-51.5 50.5t-74 23.5t-85.5 -4.5t-87 -33.5t-72.5 -58.5
t-46.5 -72t-16.5 -75.5t17.5 -70t51 -50.5t74 -23.5t86 4.5t87 33.5zM871 849q-14 -26 -7 -53.5t33 -41.5q25 -14 52.5 -7t43.5 32q14 26 6.5 53.5t-33.5 41.5q-25 14 -52.5 7.5t-42.5 -32.5z" />
  </g>

</svg>
