<?xml version="1.0" standalone="no"?>
<!DOCTYPE svg PUBLIC "-//W3C//DTD SVG 1.1//EN" "http://www.w3.org/Graphics/SVG/1.1/DTD/svg11.dtd" >
<svg xmlns="http://www.w3.org/2000/svg" xmlns:xlink="http://www.w3.org/1999/xlink" version="1.1" viewBox="0 -410 2048 2048">
  <g transform="matrix(1 0 0 -1 0 1638)">
   <path fill="currentColor"
d="M1763 -92q7 -26 -7 -49q-7 -11 -17 -18.5t-23 -9.5l-187 -47q-4 -2 -8 -2h-8q-22 0 -39 13.5t-22 35.5q-7 26 7 48t40 29l18 4q-64 43 -106 107.5t-67.5 144t-36.5 170.5t-13 188.5t2 198.5t10 199q5 83 9 168t2 159.5t-12 130.5t-33 80q-5 4 -13.5 9t-26.5 3
q-26 0 -53.5 -43.5t-53.5 -120.5t-50 -184.5t-44 -236t-34.5 -274t-21.5 -298.5q-2 -27 -21.5 -45t-45.5 -16q-27 2 -45 20.5t-18 44.5q5 160 2.5 307t-10.5 274t-21.5 231t-29.5 178.5t-35 116.5t-39 46q-7 2 -17 -1t-24 -17q-34 -32 -60 -101t-44 -161t-28 -201t-12 -221
q-2 -90 -2.5 -169.5t-0.5 -140t0.5 -98.5t0.5 -45q0 -27 -18.5 -45t-44.5 -18h-2q-26 0 -43.5 17.5t-19.5 43.5q-1 17 -1.5 60t-0.5 104.5t0.5 138.5t1.5 161q1 112 -2 231.5t-11 229t-20 199.5t-28 143q-8 26 3.5 49.5t37.5 31.5t49.5 -4.5t31.5 -38.5q12 -39 21 -94.5
t17 -121.5q17 45 38 81.5t47 60.5q31 30 66.5 44.5t73.5 11.5q46 -3 82.5 -39.5t63.5 -97t46 -142.5t31 -176q35 148 75 237t78.5 137.5t73 64t59.5 16.5q81 0 134 -54q37 -39 55.5 -101.5t24 -143.5t2 -179.5t-9.5 -209.5q-6 -92 -10 -186t-3 -184t9.5 -173t29.5 -153
t56 -124t89 -85l-15 56q-7 27 7 49.5t40 29.5q26 5 48 -8t29 -39l47 -187v0z" />
  </g>

</svg>
