<?xml version="1.0" standalone="no"?>
<!DOCTYPE svg PUBLIC "-//W3C//DTD SVG 1.1//EN" "http://www.w3.org/Graphics/SVG/1.1/DTD/svg11.dtd" >
<svg xmlns="http://www.w3.org/2000/svg" xmlns:xlink="http://www.w3.org/1999/xlink" version="1.1" viewBox="-6 -410 2048 2048">
  <g transform="matrix(1 0 0 -1 0 1638)">
   <path fill="currentColor"
d="M1231 1184q212 -212 212 -512q0 -297 -212 -512q-214 -212 -512 -212q-302 0 -513 211q-212 212 -212 513q0 300 212 512q213 213 513 213q299 0 512 -213zM1179 212q97 97 144.5 210t47.5 250q0 138 -47.5 251t-144.5 210t-210 144t-250 47t-251 -47t-211 -144
q-190 -190 -190 -461q0 -137 46.5 -250.5t143.5 -210.5t211 -144t251 -47t250 47.5t210 144.5zM135 639h-1q-14 0 -23.5 9.5t-9.5 23.5v1q0 14 9.5 23.5t23.5 9.5h1q14 0 23.5 -9.5t9.5 -23.5v-1q0 -14 -9.5 -23.5t-23.5 -9.5zM1269 672v1q0 14 9.5 23.5t23.5 9.5t23.5 -9.5
t9.5 -23.5v-1q0 -14 -9.5 -23.5t-23.5 -9.5t-23.5 9.5t-9.5 23.5zM718 123h1q14 0 23.5 -9.5t9.5 -23.5t-9.5 -23.5t-23.5 -9.5h-1q-14 0 -23.5 9.5t-9.5 23.5t9.5 23.5t23.5 9.5zM197 935l-1 1q-12 7 -15.5 20t3.5 25v1q7 11 20.5 15t24.5 -3l1 -1q12 -7 15.5 -20t-3.5 -25
t-20 -16t-25 3zM1194 397l1 1q7 12 20 15.5t25 -3.5t15.5 -20t-3.5 -25v-1q-7 -12 -20 -15.5t-25 3.5h-1q-11 8 -15 21t3 24zM982 1195q7 12 20 15.5t25 -3.5h1q12 -8 15.5 -21t-3.5 -24v-1q-7 -12 -20.5 -15.5t-25.5 3.5l-1 1q-11 7 -14.5 20t3.5 25zM444 197v-1
q12 -7 16 -20t-3 -25h-1q-7 -12 -20 -15.5t-25 3.5h-1q-11 7 -15 20t3 25l1 1q7 11 20 15t25 -3zM398 1162q-8 11 -4 24.5t16 20.5t25 3.5t20 -15.5q7 -11 3.5 -24.5t-15.5 -20.5t-25 -3.5t-20 15.5zM994 196q11 8 24.5 4t20.5 -15v-1q7 -12 3.5 -25t-15.5 -20t-25 -3.5
t-20 15.5v1q-7 11 -3.5 24t15.5 20zM1208 993q12 8 25 4t20 -16q8 -12 4 -25t-15 -20q-12 -7 -25 -3.5t-21 15.5q-7 12 -3.5 25t15.5 20zM243 398v-1q7 -11 3.5 -24t-15.5 -21h-1q-11 -7 -24.5 -3.5t-20.5 15.5v1q-7 12 -3.5 25t15.5 20h1q12 7 25 3.5t20 -15.5zM719 636
q-15 0 -26 10.5t-11 25.5v580q0 15 11 25.5t26 10.5t25.5 -10.5t10.5 -25.5v-580q0 -15 -10.5 -25.5t-25.5 -10.5zM719 709q15 0 25.5 -11t10.5 -26v-434q0 -15 -10.5 -25.5t-25.5 -10.5t-26 10.5t-11 25.5v434q0 15 11 26t26 11z" />
  </g>

</svg>
