<?xml version="1.0" standalone="no"?>
<!DOCTYPE svg PUBLIC "-//W3C//DTD SVG 1.1//EN" "http://www.w3.org/Graphics/SVG/1.1/DTD/svg11.dtd" >
<svg xmlns="http://www.w3.org/2000/svg" xmlns:xlink="http://www.w3.org/1999/xlink" version="1.1" viewBox="-4 -410 2048 2048">
  <g transform="matrix(1 0 0 -1 0 1638)">
   <path fill="currentColor"
d="M-4 710q0 301 210 512q214 212 514 212t512 -212q212 -213 212 -512q0 -300 -212 -513q-212 -212 -512 -212q-302 0 -514 212q-210 211 -210 513zM92 710q0 -261 184 -445q182 -183 444 -183q260 0 444 183q184 186 184 445q0 260 -184 444q-186 184 -444 184
q-260 0 -444 -184q-184 -183 -184 -444zM948 1065q0 -10 -9 -15t-17 -1q-56 23 -118 23q-114 0 -182 -99q-70 -100 -70 -270h2q62 120 198 120q116 0 182 -74q68 -74 68 -197q0 -129 -78 -211t-200 -82q-136 0 -210 104q-76 106 -76 296q0 231 100 369q100 137 262 137
q86 0 136 -21q12 -5 12 -17v-62zM558 560q0 -86 46 -148t122 -62q74 0 118 53q46 54 46 137q0 92 -44 141q-42 51 -120 51q-76 0 -122 -51q-46 -52 -46 -121z" />
  </g>

</svg>
