<?xml version="1.0" standalone="no"?>
<!DOCTYPE svg PUBLIC "-//W3C//DTD SVG 1.1//EN" "http://www.w3.org/Graphics/SVG/1.1/DTD/svg11.dtd" >
<svg xmlns="http://www.w3.org/2000/svg" xmlns:xlink="http://www.w3.org/1999/xlink" version="1.1" viewBox="-4 -410 2048 2048">
  <g transform="matrix(1 0 0 -1 0 1638)">
   <path fill="currentColor"
d="M726 732q78 0 120 -51q44 -49 44 -141q0 -83 -46 -137q-44 -53 -118 -53q-76 0 -122 62t-46 148q0 69 46 121q46 51 122 51zM1232 1222q212 -213 212 -512q0 -300 -212 -513q-212 -212 -512 -212q-302 0 -514 212q-210 211 -210 513q0 301 210 512q214 212 514 212
t512 -212zM924 341q78 82 78 211q0 123 -68 197q-66 74 -182 74q-136 0 -198 -120h-2q0 170 70 270q68 99 182 99q62 0 118 -23q8 -4 17 1t9 15v62q0 12 -12 17q-50 21 -136 21q-162 0 -262 -137q-100 -138 -100 -369q0 -190 76 -296q74 -104 210 -104q122 0 200 82z" />
  </g>

</svg>
