<?xml version="1.0" standalone="no"?>
<!DOCTYPE svg PUBLIC "-//W3C//DTD SVG 1.1//EN" "http://www.w3.org/Graphics/SVG/1.1/DTD/svg11.dtd" >
<svg xmlns="http://www.w3.org/2000/svg" xmlns:xlink="http://www.w3.org/1999/xlink" version="1.1" viewBox="0 -410 2048 2048">
  <g transform="matrix(1 0 0 -1 0 1638)">
   <path fill="currentColor"
d="M444 695q-70 22 -129 64.5t-102 100t-67 127.5t-24 148q0 96 36 180.5t100 147t149 98.5t181 36h176q96 0 181 -36t149 -98.5t100 -147t36 -180.5q0 -78 -24 -148t-67 -127.5t-103 -100t-130 -64.5v-115q0 -19 -13 -32.5t-33 -13.5h-370q-20 0 -33 13.5t-13 32.5v115z
M768 962q0 -22 8 -41t22 -33t33 -22t41 -8h22q44 0 74 30t30 74v68q0 22 -8 41t-22 33t-33 22.5t-41 8.5h-22q-22 0 -41 -8.5t-33 -22.5t-22 -33t-8 -41v-68zM676 902q-36 -45 -55 -77t-26 -53.5t-3 -33.5t12 -18q22 -14 72 -1q48 -12 68 2q10 6 13 18t-4 33.5t-25 53
t-52 76.5zM352 962q0 -22 8 -41t22 -33t33 -22t41 -8h22q44 0 74 30t30 74v68q0 22 -8 41t-22 33t-33 22.5t-41 8.5h-22q-22 0 -41 -8.5t-33 -22.5t-22 -33t-8 -41v-68zM1050 560q18 8 36 2t26 -23t2 -35.5t-24 -26.5l-318 -154l296 -142q18 -9 24 -27t-2 -35t-27 -23.5
t-35 1.5l-362 175l-366 -177q-16 -8 -35 -2t-27 23t-1 35.5t23 26.5l300 145l-322 157q-18 8 -24 26t2 35t26 23.5t36 -1.5l388 -188z" />
  </g>

</svg>
