<?xml version="1.0" standalone="no"?>
<!DOCTYPE svg PUBLIC "-//W3C//DTD SVG 1.1//EN" "http://www.w3.org/Graphics/SVG/1.1/DTD/svg11.dtd" >
<svg xmlns="http://www.w3.org/2000/svg" xmlns:xlink="http://www.w3.org/1999/xlink" version="1.1" viewBox="0 -410 2048 2048">
  <g transform="matrix(1 0 0 -1 0 1638)">
   <path fill="currentColor"
d="M864 1689q112 0 215.5 -29t193.5 -82t164 -127t127 -164t82 -193.5t29 -215.5t-29 -215.5t-82 -194t-127 -164.5t-164 -127t-193.5 -82t-215.5 -29t-215.5 29t-194 82t-164.5 127t-127 164.5t-82 194t-29 215.5t29 215.5t82 193.5t127 164t164.5 127t194 82t215.5 29z
M864 158q99 0 191 26t171.5 72.5t145.5 112.5t112.5 146t72.5 172t26 191t-26 191t-72.5 171.5t-112.5 145.5t-145.5 112.5t-171.5 72.5t-191 26t-191 -26t-172 -72.5t-146 -112.5t-112.5 -145.5t-72.5 -171.5t-26 -191q0 -149 56.5 -280t154.5 -229t229 -154.5t280 -56.5z
M605 975q-24 0 -45 9t-37 25t-25 36.5t-9 44.5t9 45t25 36.5t37 24.5t45 9t44.5 -9t36.5 -24.5t25 -36.5t9 -45t-9 -44.5t-25 -36.5t-36.5 -25t-44.5 -9zM1111 975q-24 0 -45 9t-36.5 25t-24.5 36.5t-9 44.5t9 45t24.5 36.5t36.5 24.5t45 9t44.5 -9t36.5 -24.5t25 -36.5
t9 -45t-9 -44.5t-25 -36.5t-36.5 -25t-44.5 -9zM858 607q70 0 135 20.5t119.5 57t97 87t69.5 111.5h30q-16 -79 -57.5 -146t-101 -116.5t-134.5 -77.5t-158 -28q-84 0 -159 28t-134.5 77.5t-100.5 116.5t-57 146h29q27 -61 69.5 -111.5t97 -87t119.5 -57t136 -20.5z" />
  </g>

</svg>
