<?xml version="1.0" standalone="no"?>
<!DOCTYPE svg PUBLIC "-//W3C//DTD SVG 1.1//EN" "http://www.w3.org/Graphics/SVG/1.1/DTD/svg11.dtd" >
<svg xmlns="http://www.w3.org/2000/svg" xmlns:xlink="http://www.w3.org/1999/xlink" version="1.1" viewBox="0 -410 2048 2048">
  <g transform="matrix(1 0 0 -1 0 1638)">
   <path fill="currentColor"
d="M163 787l259 -203q16 -13 10 -31l-136 -385q-4 -11 0.5 -20t13 -14t19 -5t19.5 8l281 252q8 8 20.5 8t21.5 -8l291 -242q9 -7 20 -7t19.5 5.5t12.5 14t0 19.5l-147 374q-3 8 0 16.5t11 14.5l257 203q9 7 11 16t-1 17t-11 14t-20 6h-309q-24 0 -31 22l-93 307
q-3 11 -12 16.5t-19.5 5.5t-19.5 -5.5t-12 -16.5l-92 -307q-3 -10 -11.5 -16t-19.5 -6h-311q-11 0 -19 -6t-11.5 -14t-1.5 -17t11 -16zM805 1424l153 -509q7 -22 32 -22h426q12 0 20 -6t11 -14t1 -17t-11 -16l-353 -277q-15 -12 -10 -31l150 -496q4 -14 -5.5 -26t-26.5 -12
h-94q-13 0 -21 7l-406 318q-9 8 -21.5 8t-20.5 -8l-375 -325q-9 -8 -19.5 -8t-19 5t-13 14t-1.5 20l173 503q3 8 0 17t-10 14l-352 277q-9 7 -11 16t1 17t11 14t20 6h425q25 0 32 22l153 509q3 10 11.5 16t19.5 6h100q11 0 19.5 -6t11.5 -16z" />
  </g>

</svg>
