<?xml version="1.0" standalone="no"?>
<!DOCTYPE svg PUBLIC "-//W3C//DTD SVG 1.1//EN" "http://www.w3.org/Graphics/SVG/1.1/DTD/svg11.dtd" >
<svg xmlns="http://www.w3.org/2000/svg" xmlns:xlink="http://www.w3.org/1999/xlink" version="1.1" viewBox="0 -410 2048 2048">
  <g transform="matrix(1 0 0 -1 0 1638)">
   <path fill="currentColor"
d="M1288 1250q68 -68 114 -148t68 -167t22 -176.5t-22 -176.5t-68 -167t-114 -148t-148 -113.5t-167 -68t-176 -22.5t-176 22.5t-167 68t-148 113.5t-114 148t-68 167t-22 176.5t22 176.5t68 167t114 148t148 113.5t167 68t176 22.5t176 -22.5t167 -68t148 -113.5zM1252 304
q92 94 139 212.5t47 242t-47 242t-139 212.5q-94 93 -213 140t-242 47t-242 -47t-213 -140q-92 -94 -139 -212.5t-47 -242t47 -242t139 -212.5q94 -93 213 -140t242 -47t242 47t213 140zM876 973h-162v267h162v-267zM796 919q38 0 72 -15t60 -40.5t40 -59.5t14 -73t-14 -73
t-40 -59.5t-60 -40t-72 -14.5q-40 0 -74 14.5t-60 40t-40 59.5t-14 73t14 73t40 59.5t60 40.5t74 15zM1288 559l-78 -140l-232 134l78 139zM534 692l82 -138l-232 -135l-80 140z" />
  </g>

</svg>
