<?xml version="1.0" standalone="no"?>
<!DOCTYPE svg PUBLIC "-//W3C//DTD SVG 1.1//EN" "http://www.w3.org/Graphics/SVG/1.1/DTD/svg11.dtd" >
<svg xmlns="http://www.w3.org/2000/svg" xmlns:xlink="http://www.w3.org/1999/xlink" version="1.1" viewBox="0 -410 2048 2048">
  <g transform="matrix(1 0 0 -1 0 1638)">
   <path fill="currentColor"
d="M1138 1109q102 -41 187 -108.5t146 -156t95 -194t34 -220.5q0 -101 -26 -194t-73 -174.5t-114 -148t-148 -114.5t-174 -74t-193 -26q-102 0 -195 26t-174 74t-148 114.5t-115 148t-74 174.5t-26 194q0 115 35 220.5t96 194t146 156t187 108.5q-30 12 -57 27t-53 32
q-106 73 -160 168t-54 206q0 29 20 50t50 21q28 0 49 -21t21 -50q0 -152 152 -259q68 -47 144 -70t155 -23t155 23t144 70q154 108 154 259q0 29 20 50t50 21q28 0 48 -21t20 -50q0 -111 -54 -206t-158 -168q-54 -35 -112 -59zM872 -162q122 0 229 46.5t187 127t127 188.5
t47 230t-47 229.5t-127 187.5t-187 126.5t-229 46.5t-230 -46.5t-189 -126.5t-127 -187.5t-46 -229.5t46 -230t127 -188.5t189 -127t230 -46.5z" />
  </g>

</svg>
