<?xml version="1.0" standalone="no"?>
<!DOCTYPE svg PUBLIC "-//W3C//DTD SVG 1.1//EN" "http://www.w3.org/Graphics/SVG/1.1/DTD/svg11.dtd" >
<svg xmlns="http://www.w3.org/2000/svg" xmlns:xlink="http://www.w3.org/1999/xlink" version="1.1" viewBox="0 -410 2048 2048">
  <g transform="matrix(1 0 0 -1 0 1638)">
   <path fill="currentColor"
d="M505 1061q-35 -23 -87 -34.5t-107.5 -10.5t-108.5 13t-90 36l-4 2l-4 2q12 46 31.5 96t40.5 95.5t40 82.5t31 59q12 23 40 26q24 3 66.5 7.5t95.5 9.5t113.5 10.5t120 10t115.5 7.5t100 4h1h16h15h1q44 -1 100 -4t116 -7.5t120 -10t113 -10.5t95.5 -9.5t66.5 -7.5
q28 -3 40 -26q12 -22 31 -59t40 -82.5t40.5 -95.5t31.5 -96l-4 -2l-4 -2q-37 -24 -90 -36t-108.5 -13t-107.5 10.5t-87 34.5q3 10 6 19.5t6 18.5q4 13 2 25t-8.5 22t-17.5 16t-24 6h-358h-31h-358q-13 0 -24 -6t-17.5 -16t-9 -22t2.5 -25q3 -9 6 -18.5t6 -19.5zM518 910
q-14 -21 -45.5 -35.5t-72.5 -21t-86 -6.5t-86.5 7.5t-74 21t-47.5 34.5q-14 20 -16 51.5t6 69.5q37 -20 92.5 -30.5t115 -12t116.5 6.5t96 26q8 -34 10.5 -64t-8.5 -47zM1733 1031q8 -38 6.5 -69.5t-16.5 -51.5q-15 -21 -47.5 -34.5t-74 -21t-86.5 -7.5t-86 6.5t-72.5 20.5
t-45.5 36q-11 17 -8.5 47t10.5 64q39 -18 96 -26t116.5 -6.5t115 12t92.5 30.5zM1494 516q54 -69 54 -158v-169q0 -21 -8 -40t-22 -33t-33 -22t-40 -8h-1081q-21 0 -40 8t-33.5 22t-22.5 33t-8 40v169q0 44 14.5 84t40.5 74l301 387q5 8 5 16v69q0 11 7.5 18t18.5 7h51
q11 0 18.5 -7t7.5 -18v-52q0 -11 7.5 -18.5t18.5 -7.5h309q11 0 18.5 7.5t7.5 18.5v52q0 11 7 18t18 7h52q11 0 18.5 -7t7.5 -18v-69q0 -8 5 -16zM776 419q0 11 -8.5 19.5t-20.5 8.5h-46q-12 0 -20 -8.5t-8 -19.5v-47q0 -12 8 -20t20 -8h46q12 0 20.5 8t8.5 20v47zM776 573
q0 12 -8.5 20t-20.5 8h-46q-12 0 -20 -8t-8 -20v-47q0 -11 8 -19.5t20 -8.5h46q12 0 20.5 8.5t8.5 19.5v47zM776 728q0 11 -8.5 19.5t-20.5 8.5h-46q-12 0 -20 -8.5t-8 -19.5v-47q0 -12 8 -20t20 -8h46q12 0 20.5 8t8.5 20v47zM956 419q0 11 -8.5 19.5t-19.5 8.5h-47
q-12 0 -20 -8.5t-8 -19.5v-47q0 -12 8 -20t20 -8h47q11 0 19.5 8t8.5 20v47zM956 573q0 12 -8.5 20t-19.5 8h-47q-12 0 -20 -8t-8 -20v-47q0 -11 8 -19.5t20 -8.5h47q11 0 19.5 8.5t8.5 19.5v47zM956 728q0 11 -8.5 19.5t-19.5 8.5h-47q-12 0 -20 -8.5t-8 -19.5v-47
q0 -12 8 -20t20 -8h47q11 0 19.5 8t8.5 20v47zM1136 419q0 11 -8 19.5t-20 8.5h-47q-11 0 -19.5 -8.5t-8.5 -19.5v-47q0 -12 8.5 -20t19.5 -8h47q12 0 20 8t8 20v47zM1136 573q0 12 -8 20t-20 8h-47q-11 0 -19.5 -8t-8.5 -20v-47q0 -11 8.5 -19.5t19.5 -8.5h47q12 0 20 8.5
t8 19.5v47zM1136 728q0 11 -8 19.5t-20 8.5h-47q-11 0 -19.5 -8.5t-8.5 -19.5v-47q0 -12 8.5 -20t19.5 -8h47q12 0 20 8t8 20v47z" />
  </g>

</svg>
