<?xml version="1.0" standalone="no"?>
<!DOCTYPE svg PUBLIC "-//W3C//DTD SVG 1.1//EN" "http://www.w3.org/Graphics/SVG/1.1/DTD/svg11.dtd" >
<svg xmlns="http://www.w3.org/2000/svg" xmlns:xlink="http://www.w3.org/1999/xlink" version="1.1" viewBox="0 -410 2048 2048">
  <g transform="matrix(1 0 0 -1 0 1638)">
   <path fill="currentColor"
d="M1345 1203q53 -80 81.5 -168t34.5 -178t-12 -177.5t-57.5 -168t-99.5 -150.5t-140 -124q-80 -53 -168 -81.5t-177 -33.5t-176.5 12t-168.5 57t-151 100t-123 140q-80 120 -104.5 255t1.5 266.5t101 246.5t195 195q80 53 168 81.5t177.5 34t177 -11.5t167.5 -56t150.5 -99
t123.5 -140zM224 455q50 -74 115.5 -130t141.5 -93.5t158.5 -53.5t165.5 -11t165.5 31t157.5 76q112 75 182.5 183t94.5 231.5t1 250t-98 239.5q-49 73 -115 130t-141 93.5t-157.5 52.5t-166.5 11.5t-166 -31.5t-157 -77q-111 -74 -181.5 -182t-94.5 -231.5t-1.5 -250
t96.5 -238.5zM996 720q-1 -3 -6 -9q0 -5 -4 -10q-23 -41 -57 -95t-68 -107t-64 -97t-45 -64q-5 -7 -13.5 -10.5t-17.5 -4.5h-46t-64.5 1.5t-73 6.5t-70.5 12l-1 6q-2 30 7 67.5t27 72.5t41.5 63.5t49.5 43.5l15 -12.5t13 -11.5q6 -8 15.5 -11t19 -3t18 4.5t12.5 12.5
l118 222l10 19l117 222q4 10 3 19t-6.5 17.5t-14.5 14.5t-18 7q-6 1 -16.5 4.5t-17.5 3.5q-3 30 7.5 65.5t28.5 70.5t43 63.5t52 44.5l5 3q25 -24 50 -52t46.5 -55.5t39 -52t25.5 -37.5q6 -9 7.5 -17.5t-0.5 -17.5q-7 -16 -18 -44t-24.5 -63t-29 -74.5t-32.5 -78.5
t-32.5 -74.5t-29.5 -63.5zM762 1145q-9 16 -8 40.5t10 52.5t24 56t32.5 51.5t37 39t37.5 17.5q17 3 37.5 -6.5t42.5 -26.5q-25 -17 -50 -48t-46 -67.5t-34 -74t-15 -67.5q-24 5 -43 13t-25 20zM570 614q-23 -18 -46.5 -50.5t-42.5 -70.5t-31 -76t-12 -66q-26 8 -44.5 19
t-26.5 27t-6 40.5t10.5 53t23.5 56.5t32 51t36.5 38.5t38.5 15.5q13 2 31 -9t37 -29z" />
  </g>

</svg>
