<?xml version="1.0" standalone="no"?>
<!DOCTYPE svg PUBLIC "-//W3C//DTD SVG 1.1//EN" "http://www.w3.org/Graphics/SVG/1.1/DTD/svg11.dtd" >
<svg xmlns="http://www.w3.org/2000/svg" xmlns:xlink="http://www.w3.org/1999/xlink" version="1.1" viewBox="0 -410 2048 2048">
  <g transform="matrix(1 0 0 -1 0 1638)">
   <path fill="currentColor"
d="M0 700q0 299 212 511q211 213 513 213q299 0 511 -213q213 -212 213 -511q0 -302 -213 -513q-212 -212 -511 -212q-302 0 -513 212q-212 211 -212 513zM97 700q0 -262 183 -445t445 -183q261 0 444 183q184 184 184 445q0 260 -184 444t-444 184q-261 0 -445 -184
q-183 -183 -183 -444zM724 404h-138q-8 0 -13 5t-5 13v701q0 9 -7.5 14.5t-16.5 2.5l-241 -73q-6 -2 -9.5 -7t-3.5 -11v-56q0 -10 7.5 -15t15.5 -3l133 40q9 3 16 -2.5t7 -14.5v-576q0 -8 -5 -13t-13 -5h-138q-8 0 -13.5 -5t-5.5 -13v-53q0 -8 5.5 -13t13.5 -5h411q8 0 13 5
t5 13v53q0 8 -5 13t-13 5zM915 1136h-4q-99 -26 -147 -137t-48 -293q0 -197 65 -301q66 -104 185 -104q126 0 195 109q70 109 70 316q0 118 -20 204.5t-60 139t-99 70t-137 -3.5zM975 386q-158 0 -158 325q0 347 161 347q152 0 152 -342q0 -330 -155 -330z" />
  </g>

</svg>
