<?xml version="1.0" standalone="no"?>
<!DOCTYPE svg PUBLIC "-//W3C//DTD SVG 1.1//EN" "http://www.w3.org/Graphics/SVG/1.1/DTD/svg11.dtd" >
<svg xmlns="http://www.w3.org/2000/svg" xmlns:xlink="http://www.w3.org/1999/xlink" version="1.1" viewBox="0 -410 2048 2048">
  <g transform="matrix(1 0 0 -1 0 1638)">
   <path fill="currentColor"
d="M0 707q0 300 212 512q213 213 513 213q299 0 512 -213q212 -212 212 -512q0 -301 -212 -513q-211 -211 -512 -211q-302 0 -513 211q-212 212 -212 513zM97 707q0 -261 183 -444t445 -183t444 183q184 184 184 444q0 259 -184 445q-184 184 -444 184q-259 0 -445 -184
q-183 -185 -183 -445zM457 383q0 11 9.5 16t17.5 -1q80 -50 176 -50q89 0 144 44q53 45 53 119q0 167 -239 167h-55q-8 0 -13 5t-5 13v55q0 8 5 13.5t13 5.5h52q211 0 211 156q0 144 -161 144q-77 0 -147 -43q-9 -6 -18 -1t-9 16v60q0 11 10 16q83 44 191 44q113 0 180 -58
q68 -59 68 -152q0 -172 -176 -222v-2q96 -10 151 -67q55 -58 55 -142q0 -117 -85 -190t-227 -73q-116 0 -192 41q-9 6 -9 16v70z" />
  </g>

</svg>
