<?xml version="1.0" standalone="no"?>
<!DOCTYPE svg PUBLIC "-//W3C//DTD SVG 1.1//EN" "http://www.w3.org/Graphics/SVG/1.1/DTD/svg11.dtd" >
<svg xmlns="http://www.w3.org/2000/svg" xmlns:xlink="http://www.w3.org/1999/xlink" version="1.1" viewBox="0 -410 2048 2048">
  <g transform="matrix(1 0 0 -1 0 1638)">
   <path fill="currentColor"
d="M1237 1219q212 -212 212 -512q0 -301 -212 -513q-211 -211 -512 -211q-302 0 -513 211q-212 212 -212 513q0 300 212 512q213 213 513 213q299 0 512 -213zM885 329q85 73 85 190q0 84 -55 142q-55 57 -151 67v3q176 48 176 221q0 93 -68 152q-67 58 -180 58
q-108 0 -191 -44q-10 -5 -10 -16v-60q0 -11 9 -16t18 1q70 43 147 43q161 0 161 -144q0 -156 -211 -156h-52q-8 0 -13 -5.5t-5 -13.5v-55q0 -8 5 -13t13 -5h55q239 0 239 -167q0 -74 -53 -119q-55 -44 -144 -44q-96 0 -176 50q-8 6 -17.5 1t-9.5 -16v-70q0 -10 9 -16
q76 -41 192 -41q142 0 227 73z" />
  </g>

</svg>
