<?xml version="1.0" standalone="no"?>
<!DOCTYPE svg PUBLIC "-//W3C//DTD SVG 1.1//EN" "http://www.w3.org/Graphics/SVG/1.1/DTD/svg11.dtd" >
<svg xmlns="http://www.w3.org/2000/svg" xmlns:xlink="http://www.w3.org/1999/xlink" version="1.1" viewBox="0 -410 2048 2048">
  <g transform="matrix(1 0 0 -1 0 1638)">
   <path fill="currentColor"
d="M212 945q-39 16 -68.5 46t-47 68t-21.5 81t8 87l70 255q13 46 41.5 83t68.5 58q23 11 47 17.5t49 6.5q33 0 63 -10q2 -1 3.5 -2t3.5 -2q9 9 19.5 17.5t23.5 14.5q24 13 54 19t65 6q91 0 214 -42l217 -71l150 -25q25 -5 45.5 -19t34 -34.5t20 -46t2.5 -52.5
q-6 -41 -33 -71q33 -19 51.5 -56.5t12.5 -79.5q-3 -24 -15 -45t-31 -37q25 -23 37.5 -55t7.5 -67q-5 -28 -19 -51t-35 -39q-6 -4 -12 -7.5t-14 -6.5q12 -16 18.5 -34.5t9.5 -36.5t2.5 -35t-1.5 -30q-2 -8 -6.5 -22.5t-14 -30.5t-26 -31t-41.5 -22q0 -1 -1 -1q-2 0 -2.5 -1
t-2.5 -1q-21 -6 -65 -5.5t-98.5 5t-112.5 12t-106 15.5q23 -66 34 -179.5t10 -275.5q0 -28 -9.5 -53t-26.5 -44.5t-39.5 -31.5t-49.5 -15q-27 -2 -52.5 6t-46.5 27q-23 21 -36 49.5t-13 61.5q-1 38 -4 85.5t-9.5 97.5t-17.5 99.5t-26 92.5t-36 76t-47 50q-90 59 -136 116
t-60 116zM1213 952q21 15 26 47q5 27 -10 49.5t-39 27.5l-239 42q-23 3 -41 -10q-23 -16 -26 -46q-5 -28 9.5 -50.5t39.5 -26.5l239 -42h8q20 0 33 9zM952 1322q-21 4 -40 -10q-23 -16 -27 -46q-5 -27 10 -49.5t39 -27.5l239 -42h10q17 0 31 10q23 16 27 46q4 27 -10.5 49.5
t-38.5 27.5l-61 10l-149 26zM1210 1410q4 28 -10.5 50.5t-38.5 26.5l-128 23q-7 -3 -15 1l-8 3q-23 2 -40 -10q-21 -17 -26 -46q-5 -28 10 -50.5t39 -26.5l150 -27h8q18 0 32 10q22 16 27 46zM144 1210q-7 -27 -6 -53.5t9 -51.5t23 -45.5t35 -35.5q3 50 21.5 103t50.5 112
q9 19 28 19q5 0 8 -1.5t8 -3.5q11 -6 15.5 -19t-1.5 -24q-36 -71 -54 -129t-8.5 -110t50 -101.5t120.5 -101.5q39 -26 66.5 -72t46.5 -101.5t30 -115t17 -112.5t7.5 -94.5t1.5 -59.5q2 -38 28 -63q23 -20 50 -17q28 2 46.5 25t19.5 55q1 94 -3 173.5t-11.5 140t-19 101.5
t-26.5 58q-16 19 -4 37q12 20 33 17q66 -10 134.5 -19t126.5 -14.5t99.5 -7t52.5 2.5h3q2 0 2 0.5t1 0.5q25 7 34 26t11 30q0 4 1 21.5t-4 38t-20 39t-46 24.5l-224 40q-13 2 -23 -1t-15 -8q-11 -6 -16 -17.5t-6 -25.5q-1 -31 20 -51q5 -3 10.5 -5.5t11.5 -3.5l179 -23
q14 -2 22 -12t6 -24q-1 -14 -11.5 -22t-24.5 -6l-181 22q-17 2 -29.5 9t-23.5 15q-22 18 -33.5 45.5t-9.5 58.5q1 29 14.5 54t35.5 39q5 4 9.5 5.5t8.5 3.5q-28 44 -21 96q3 25 15 46t31 37q-25 21 -37 53.5t-7 68.5q4 27 18 50t35 39q10 7 24 12q-25 41 -19 91q8 46 40 75
l-133 44q-198 65 -285 19q-45 -23 -61 -78q-5 -13 -16.5 -19.5t-24.5 -1.5q-13 4 -19 16t-2 24q2 9 5 16t6 15q-24 5 -48 2.5t-47 -14.5q-29 -15 -49.5 -42t-28.5 -59zM703 950q1 2 3.5 20t2 46.5t-6 64.5t-20.5 76t-42 80.5t-70 76.5q-11 8 -11.5 21.5t7.5 24.5
q11 11 25 11q9 0 21 -7q51 -42 82 -89.5t48.5 -94t23.5 -89.5t6.5 -76t-2.5 -54t-3 -24q-2 -13 -12.5 -20t-24.5 -5t-21.5 13.5t-5.5 24.5z" />
  </g>

</svg>
