<?xml version="1.0" standalone="no"?>
<!DOCTYPE svg PUBLIC "-//W3C//DTD SVG 1.1//EN" "http://www.w3.org/Graphics/SVG/1.1/DTD/svg11.dtd" >
<svg xmlns="http://www.w3.org/2000/svg" xmlns:xlink="http://www.w3.org/1999/xlink" version="1.1" viewBox="0 -410 2048 2048">
  <g transform="matrix(1 0 0 -1 0 1638)">
   <path fill="currentColor"
d="M1169 836q39 -17 68.5 -46.5t47 -67.5t21.5 -81.5t-8 -86.5l-70 -255q-13 -46 -41.5 -83t-68.5 -58q-23 -11 -47 -17.5t-49 -6.5q-33 0 -63 10q-2 1 -3.5 2t-3.5 2q-9 -9 -19.5 -17.5t-23.5 -14.5q-24 -13 -54 -19t-65 -6q-91 0 -214 42l-217 71l-150 25q-25 5 -45.5 19
t-34 34.5t-20 46t-2.5 52.5q6 41 33 71q-33 19 -51.5 56.5t-12.5 79.5q3 24 15 45t31 37q-25 23 -37.5 55t-7.5 67q5 28 19 51t35 39q6 4 12 7.5t14 6.5q-12 16 -18.5 34.5t-9.5 36.5t-3 35t2 30q1 8 6 22.5t14.5 30.5t26 30.5t41.5 22.5q0 1 1 1q2 0 2.5 1t2.5 1
q21 6 65 5.5t98.5 -5t112.5 -12.5t106 -15q-23 66 -34 179.5t-10 275.5q0 28 9.5 53t26.5 44.5t39.5 31.5t49.5 15q27 2 52.5 -6t46.5 -27q23 -21 36 -49.5t13 -61.5q0 -39 3.5 -86t10 -97t17.5 -99.5t26 -92t35.5 -76t47.5 -50.5q90 -59 136 -116t60 -116zM168 829
q-21 -15 -26 -47q-5 -27 10 -49.5t39 -27.5l239 -42q23 -3 41 10q23 16 26 46q5 28 -9.5 50.5t-39.5 26.5l-239 42h-8q-20 0 -33 -9zM429 459q21 -4 40 10q23 16 27 46q5 27 -10 49.5t-39 27.5l-239 42h-10q-17 0 -31 -10q-23 -16 -27 -46q-4 -27 10.5 -49.5t38.5 -27.5
l61 -10l149 -26zM171 371q-4 -28 10.5 -50.5t38.5 -26.5l128 -23q7 3 15 -1l8 -3q23 -2 40 10q21 17 26 46q5 28 -10 50.5t-39 26.5l-150 27h-8q-18 0 -32 -10q-22 -16 -27 -46zM1237 571q7 27 6 53.5t-9 51.5t-23 45.5t-35 35.5q-3 -50 -21.5 -103t-50.5 -112
q-10 -19 -28 -19q-5 0 -8 1.5t-8 3.5q-11 6 -15.5 19t1.5 24q36 70 54 128.5t8.5 110.5t-50 101t-120.5 102q-39 26 -66.5 72t-46.5 101.5t-30 115t-17 112.5t-7.5 94t-1.5 60q-2 38 -28 63q-23 20 -50 17q-28 -2 -46.5 -25t-19.5 -55q-1 -94 3 -173.5t11.5 -140t19 -101.5
t26.5 -58q16 -19 4 -37q-12 -20 -33 -17q-66 10 -134.5 19t-126.5 14.5t-99.5 7t-52.5 -2.5h-3q-2 0 -2 -0.5t-1 -0.5q-13 -3 -21 -10.5t-13 -15.5t-7.5 -16.5t-3.5 -13.5q0 -4 -1 -21.5t4 -38t20 -39t46 -24.5l224 -40q13 -2 23 1t15 8q11 6 16 17.5t6 25.5q1 31 -20 51
q-5 3 -10.5 5.5t-11.5 3.5l-179 23q-14 2 -22 12t-6 24q1 14 11.5 22t24.5 6l181 -22q17 -2 29.5 -9t23.5 -15q22 -18 33.5 -45.5t9.5 -58.5q-1 -29 -14.5 -54t-35.5 -39q-5 -4 -9.5 -5.5t-8.5 -3.5q28 -44 21 -96q-3 -25 -15 -46t-31 -37q25 -21 37 -53.5t7 -68.5
q-4 -27 -18 -50t-35 -39q-11 -8 -24 -12q25 -41 19 -91q-8 -46 -40 -75l133 -44q198 -65 285 -19q45 23 61 78q5 13 16.5 19.5t24.5 1.5q13 -4 19 -16t2 -24q-2 -9 -5 -16t-6 -15q24 -5 48 -2.5t47 14.5q29 15 49.5 42t28.5 59zM678 831q-1 -2 -3.5 -20t-2 -46.5t6 -64.5
t20.5 -76t42 -80.5t70 -76.5q11 -8 11.5 -21.5t-7.5 -24.5q-11 -11 -25 -11q-9 0 -21 7q-51 42 -82 89.5t-48.5 94t-23.5 89.5t-6.5 76t2 54t3.5 24q2 13 12.5 20t24.5 5t21.5 -13.5t5.5 -24.5z" />
  </g>

</svg>
