<?xml version="1.0" standalone="no"?>
<!DOCTYPE svg PUBLIC "-//W3C//DTD SVG 1.1//EN" "http://www.w3.org/Graphics/SVG/1.1/DTD/svg11.dtd" >
<svg xmlns="http://www.w3.org/2000/svg" xmlns:xlink="http://www.w3.org/1999/xlink" version="1.1" viewBox="-6 -410 2048 2048">
  <g transform="matrix(1 0 0 -1 0 1638)">
   <path fill="currentColor"
d="M1231 1208q212 -212 212 -511q0 -298 -212 -512q-213 -213 -512 -213q-302 0 -513 212q-212 211 -212 513q0 299 212 511q213 213 513 213q299 0 512 -213zM1179 236q97 97 144.5 210.5t47.5 250.5t-47.5 250t-144.5 210t-210 144t-250 47t-251 -47t-211 -144
t-143.5 -210t-46.5 -250t46.5 -251t143.5 -211t211 -143.5t251 -46.5t250 47t210 144zM135 663h-1q-14 0 -23.5 9.5t-9.5 23.5v1q0 14 9.5 23.5t23.5 9.5h1q14 0 23.5 -9.5t9.5 -23.5v-1q0 -14 -9.5 -23.5t-23.5 -9.5zM1269 696v1q0 14 9.5 23.5t23.5 9.5t23.5 -9.5
t9.5 -23.5v-1q0 -14 -9.5 -23.5t-23.5 -9.5t-23.5 9.5t-9.5 23.5zM718 147h1q14 0 23.5 -9.5t9.5 -23.5t-9.5 -23.5t-23.5 -9.5h-1q-14 0 -23.5 9.5t-9.5 23.5t9.5 23.5t23.5 9.5zM197 960h-1q-12 7 -15.5 20t3.5 25v1q7 11 20.5 15t24.5 -3l1 -1q12 -7 15.5 -20t-3.5 -25
t-20 -15.5t-25 3.5zM1194 422h1q7 12 20 15.5t25 -3.5t15.5 -20t-3.5 -25v-1q-7 -11 -20 -15t-25 3l-1 1q-11 7 -15 20t3 25zM982 1219q7 12 20 15.5t25 -3.5h1q12 -7 15.5 -20t-3.5 -25v-1q-7 -11 -20.5 -15t-25.5 4h-1q-11 7 -14.5 20t3.5 25zM444 221q12 -8 16 -21
t-3 -24l-1 -1q-7 -12 -20 -15.5t-25 3.5h-1q-11 7 -15 20t3 25l1 1q7 12 20 15.5t25 -3.5zM398 1186q-8 11 -4 24.5t16 20.5t25 3.5t20 -15.5q7 -11 3.5 -24.5t-15.5 -20.5t-25 -3.5t-20 15.5zM994 221q11 7 24.5 3.5t20.5 -15.5v-1q7 -12 3.5 -25t-15.5 -20t-25 -3.5
t-20 15.5v1q-7 11 -3.5 24t15.5 21zM1208 1017q12 8 25 4t20 -16q8 -12 4 -25t-15 -20q-12 -7 -25 -3.5t-21 15.5v1q-7 11 -3.5 24t15.5 20zM243 422q7 -12 3.5 -25t-15.5 -20l-1 -1q-11 -7 -24.5 -3t-20.5 15v1q-7 12 -3.5 25t15.5 20h1q12 7 25 3.5t20 -15.5zM719 660
q-15 0 -26 10.5t-11 26.5v579q0 15 11 25.5t26 10.5t25.5 -10.5t10.5 -25.5v-579q0 -16 -10.5 -26.5t-25.5 -10.5z" />
  </g>

</svg>
