<?xml version="1.0" standalone="no"?>
<!DOCTYPE svg PUBLIC "-//W3C//DTD SVG 1.1//EN" "http://www.w3.org/Graphics/SVG/1.1/DTD/svg11.dtd" >
<svg xmlns="http://www.w3.org/2000/svg" xmlns:xlink="http://www.w3.org/1999/xlink" version="1.1" viewBox="-8 -410 2048 2048">
  <g transform="matrix(1 0 0 -1 0 1638)">
   <path fill="currentColor"
d="M-8 695q0 301 210 512q214 213 514 213t512 -213q212 -212 212 -512t-212 -513q-212 -211 -512 -211q-302 0 -514 211q-210 212 -210 513zM88 695q0 -261 184 -444q182 -183 444 -183t444 183q184 184 184 444q0 259 -184 445q-186 184 -444 184q-260 0 -444 -184
q-184 -185 -184 -445zM942 259h-496q-8 0 -13 5t-5 13v71q0 7 4 12l250 249q106 104 140 167q36 61 36 127q0 74 -42 115q-42 39 -120 39q-102 0 -194 -74q-10 -7 -20 -2t-10 16v64q0 10 8 15q98 74 234 74q118 0 186 -64q68 -63 68 -172q0 -80 -44 -160q-22 -39 -63 -89
t-103 -110l-200 -195v-3h384q8 0 13 -5t5 -13v-62q0 -8 -5 -13t-13 -5z" />
  </g>

</svg>
