<?xml version="1.0" standalone="no"?>
<!DOCTYPE svg PUBLIC "-//W3C//DTD SVG 1.1//EN" "http://www.w3.org/Graphics/SVG/1.1/DTD/svg11.dtd" >
<svg xmlns="http://www.w3.org/2000/svg" xmlns:xlink="http://www.w3.org/1999/xlink" version="1.1" viewBox="-36 -410 2048 2048">
  <g transform="matrix(1 0 0 -1 0 1638)">
   <path fill="currentColor"
d="M1127 585l-52 -54q-209 -219 -389 -219q-113 0 -191 71q-49 44 -67.5 93.5t-9.5 118.5q3 22 12.5 43.5t26.5 37.5t42 25t59 6q37 -3 70 -24t56 -66q5 -10 -2 -19t-18 -7q-38 7 -66.5 6t-50.5 -22q-20 -20 -24.5 -36.5t-4.5 -35.5q0 -68 71 -68q78 0 276 207l39 41
q6 7 4.5 16t-10.5 14q-179 85 -320 85q-157 0 -260 -85t-103 -213q0 -56 23 -99q5 -10 -0.5 -19t-16.5 -8q-108 6 -178 50q-79 53 -79 139q0 138 148 238q146 101 349 101q145 0 303 -57l-40 39q-87 85 -155.5 123t-119.5 46q-13 2 -28 0.5t-26.5 -9t-15 -23t6.5 -42.5
q4 -11 -3.5 -19t-17.5 -6q-128 27 -128 122q0 106 148 106q169 0 393 -237l39 -41q42 -45 79.5 -79.5t71.5 -60.5q5 -5 12 -4t12 6q150 143 281 143q91 0 152 -56q40 -38 54.5 -89.5t-5.5 -111.5q-9 -27 -25.5 -48t-38 -35t-47.5 -21.5t-53 -7.5q-80 0 -183 45zM1212 669
q-8 -8 -6.5 -18.5t12.5 -13.5q39 -12 73 -12q82 0 82 63q0 46 -52 46q-35 0 -109 -65z" />
  </g>

</svg>
