<?xml version="1.0" standalone="no"?>
<!DOCTYPE svg PUBLIC "-//W3C//DTD SVG 1.1//EN" "http://www.w3.org/Graphics/SVG/1.1/DTD/svg11.dtd" >
<svg xmlns="http://www.w3.org/2000/svg" xmlns:xlink="http://www.w3.org/1999/xlink" version="1.1" viewBox="0 -410 2048 2048">
  <g transform="matrix(1 0 0 -1 0 1638)">
   <path fill="currentColor"
d="M1571.14 808l-51.9775 54q-207.911 219 -388.834 219q-112.952 0 -190.919 -71q-48.9785 -44 -67.4707 -93.5t-9.49609 -118.5q2.99902 -23 12.4951 -44q9.49512 -21 26.4883 -37t41.9824 -25t58.9746 -6q36.9844 3 69.9697 24q32.9863 21 55.9766 66
q4.99707 10 -1.99902 19q-6.99707 9 -17.9932 7q-37.9834 -7 -66.4707 -6q-28.4883 1 -50.4785 22q-19.9922 20 -24.4902 36.5t-4.49805 35.5q0 68 70.9697 68q77.9668 0 275.883 -207l38.9824 -41q5.99805 -7 4.49805 -16q-1.49902 -9 -10.4951 -14
q-178.924 -85 -319.863 -85q-156.933 0 -259.889 85t-102.956 213q0 56 22.9902 99q4.99805 10 -0.5 19t-16.4932 8q-107.954 -6 -177.924 -50q-78.9658 -53 -78.9658 -139q0 -138 147.937 -238q145.938 -101 348.851 -101q145.938 0 302.871 57l-39.9834 -39
q-86.9629 -85 -155.434 -123t-119.448 -46q-12.9951 -2 -27.9883 -0.5q-14.9941 1.5 -26.4893 9t-14.9932 23q-3.49902 15.5 6.49707 42.5q3.99805 11 -3.49805 19q-7.49707 8 -17.4932 6q-127.945 -27 -127.945 -122q0 -106 147.938 -106q169.927 0 392.832 237l38.9824 41
q41.9824 45 79.4668 79.5q37.4834 34.5 71.4688 60.5q4.99805 5 11.9951 4t11.9951 -6q149.936 -143 280.88 -143q90.9609 0 151.935 56q39.9834 38 54.4775 89.5q14.4932 51.5 -5.49805 111.5q-8.99609 27 -25.4893 48t-37.9834 35q-21.4912 14 -47.4795 21.5
q-25.9893 7.5 -52.9775 7.5q-78.9668 0 -182.922 -45zM1656.1 724q-7.99707 8 -6.49707 18.5q1.49902 10.5 12.4941 13.5q38.9834 12 72.9688 12q81.9648 0 81.9648 -63q0 -46 -51.9775 -46q-34.9854 0 -108.953 65z" />
  </g>

</svg>
