<?xml version="1.0" standalone="no"?>
<!DOCTYPE svg PUBLIC "-//W3C//DTD SVG 1.1//EN" "http://www.w3.org/Graphics/SVG/1.1/DTD/svg11.dtd" >
<svg xmlns="http://www.w3.org/2000/svg" xmlns:xlink="http://www.w3.org/1999/xlink" version="1.1" viewBox="-37 -410 2048 2048">
  <g transform="matrix(1 0 0 -1 0 1638)">
   <path fill="currentColor"
d="M322 808l52 54q208 219 389 219q113 0 191 -71q49 -44 67.5 -93.5t9.5 -118.5q-3 -23 -12.5 -44t-26.5 -37t-42 -25t-59 -6q-37 3 -70 24t-56 66q-5 10 2 19t18 7q38 -7 66.5 -6t50.5 22q20 20 24.5 36.5t4.5 35.5q0 68 -71 68q-78 0 -276 -207l-39 -41q-6 -7 -4.5 -16
t10.5 -14q179 -85 320 -85q157 0 260 85t103 213q0 56 -23 99q-5 10 0.5 19t16.5 8q108 -6 178 -50q79 -53 79 -139q0 -138 -148 -238q-146 -101 -349 -101q-146 0 -303 57l40 -39q87 -85 155.5 -123t119.5 -46q13 -2 28 -0.5t26.5 9t15 23t-6.5 42.5q-4 11 3.5 19t17.5 6
q128 -27 128 -122q0 -106 -148 -106q-170 0 -393 237l-39 41q-42 45 -79.5 79.5t-71.5 60.5q-5 5 -12 4t-12 -6q-150 -143 -281 -143q-91 0 -152 56q-40 38 -54.5 89.5t5.5 111.5q9 27 25.5 48t38 35t47.5 21.5t53 7.5q79 0 183 -45zM237 724q8 8 6.5 18.5t-12.5 13.5
q-39 12 -73 12q-82 0 -82 -63q0 -46 52 -46q35 0 109 65z" />
  </g>

</svg>
