<?xml version="1.0" standalone="no"?>
<!DOCTYPE svg PUBLIC "-//W3C//DTD SVG 1.1//EN" "http://www.w3.org/Graphics/SVG/1.1/DTD/svg11.dtd" >
<svg xmlns="http://www.w3.org/2000/svg" xmlns:xlink="http://www.w3.org/1999/xlink" version="1.1" viewBox="0 -410 2048 2048">
  <g transform="matrix(1 0 0 -1 0 1638)">
   <path fill="currentColor"
d="M766.481 585l51.9775 -54q208.911 -219 388.834 -219q112.952 0 190.919 71q48.9785 44 67.4707 93.5t9.49609 118.5q-2.99902 22 -12.4951 43.5t-26.4883 37.5q-16.9932 16 -41.9824 25t-58.9746 6q-36.9844 -3 -69.9697 -24q-32.9863 -21 -55.9766 -66
q-4.99805 -10 1.99902 -19t17.9922 -7q37.9844 7 66.4717 6q28.4883 -1 50.4785 -22q19.9922 -20 24.4902 -36.5t4.49805 -35.5q0 -68 -70.9697 -68q-77.9668 0 -275.883 207l-38.9824 41q-5.99805 7 -4.49902 16q1.5 9 10.4961 14q178.924 85 319.863 85
q156.933 0 259.889 -85t102.956 -213q0 -56 -22.9902 -99q-4.99805 -10 0.5 -19t16.4932 -8q107.953 6 177.924 50q78.9658 53 78.9658 139q0 138 -147.937 238q-145.938 101 -348.851 101q-144.938 0 -302.871 -57l39.9834 39q86.9629 85 155.434 123t119.448 46
q12.9951 2 27.9883 0.5q14.9941 -1.5 26.4893 -9t14.9932 -23t-6.49707 -42.5q-3.99805 -11 3.49805 -19q7.49707 -8 17.4932 -6q127.945 27 127.945 122q0 106 -147.938 106q-168.928 0 -392.832 -237l-38.9834 -41q-41.9814 -45 -79.4658 -79.5
q-37.4834 -34.5 -71.4688 -60.5q-4.99805 -5 -11.9951 -4t-11.9951 6q-149.936 143 -280.88 143q-90.9609 0 -151.936 -56q-39.9824 -38 -54.4766 -89.5q-14.4932 -51.5 5.49805 -111.5q8.99609 -27 25.4893 -48q16.4922 -21 37.9834 -35t47.4795 -21.5
q25.9893 -7.5 52.9775 -7.5q79.9658 0 182.922 45zM681.518 669q7.99707 -8 6.49707 -18.5q-1.49902 -10.5 -12.4941 -13.5q-38.9834 -12 -72.9688 -12q-81.9648 0 -81.9648 63q0 46 51.9775 46q34.9854 0 108.953 -65z" />
  </g>

</svg>
