<?xml version="1.0" standalone="no"?>
<!DOCTYPE svg PUBLIC "-//W3C//DTD SVG 1.1//EN" "http://www.w3.org/Graphics/SVG/1.1/DTD/svg11.dtd" >
<svg xmlns="http://www.w3.org/2000/svg" xmlns:xlink="http://www.w3.org/1999/xlink" version="1.1" viewBox="0 -410 2048 2048">
  <g transform="matrix(1 0 0 -1 0 1638)">
   <path fill="currentColor"
d="M1578 -130q25 -10 35.5 -34.5t0.5 -48.5q-8 -19 -24.5 -29.5t-36.5 -10.5q-5 0 -10.5 0.5t-12.5 3.5q-54 22 -96.5 55t-74.5 75q-25 -29 -50 -57t-51 -57q-10 -11 -22.5 -15.5t-24.5 -4.5q-25 0 -45 17q-19 19 -20 45t18 46q34 37 65.5 72.5t60.5 71.5q-32 76 -49.5 164
t-22.5 186q-3 4 -3 10q0 10 -1 44t-1 82q2 98 5.5 196t8.5 195q6 94 10 187t1.5 172t-14 138t-36.5 86q-6 5 -17.5 10.5t-27.5 5.5q-29 -1 -59 -48t-58.5 -130.5t-54.5 -199.5t-47.5 -255t-37.5 -296t-24 -323q-2 -27 -21 -45t-46 -17q-26 2 -43.5 21t-17.5 46
q5 174 2 333.5t-12 297.5t-23.5 251t-32.5 194t-38.5 125.5t-41.5 45.5q-9 0 -20.5 -3t-27.5 -18q-37 -35 -65 -110t-47.5 -175t-30.5 -218t-14 -239q-2 -96 -2 -181.5v-151t0.5 -107t-0.5 -48.5q0 -26 -18.5 -44.5t-44.5 -18.5q-27 0 -45 18t-20 44q0 18 -0.5 64.5t0 113
t1 149.5t1.5 173q1 81 -0.5 166t-5 168.5t-9 162.5t-13 148.5t-17.5 126t-21 94.5q-8 26 3.5 49.5t37.5 31.5t49.5 -4.5t31.5 -38.5q14 -45 23.5 -109t17.5 -142q20 54 44 97.5t54 72.5q66 63 147 57q50 -3 88.5 -45.5t67.5 -113.5t49 -165t33 -200q23 106 52.5 201t67 166
t84 113.5t102.5 43.5q42 2 76.5 -12.5t61.5 -43.5q40 -41 59.5 -105.5t25.5 -149.5t2.5 -188t-9.5 -219q15 12 36.5 22t48.5 14.5t60.5 2t72.5 -15.5q109 -38 140 -162q17 -69 5.5 -156t-47.5 -185t-95 -204.5t-137 -213.5q26 -39 59 -69.5t78 -47.5zM1342 480
q-1 -98 8.5 -188.5t31.5 -167.5q63 94 108 181.5t71 164t33.5 139.5t-3.5 107q-10 37 -27.5 52t-30.5 20q-43 15 -66.5 8.5t-35.5 -15.5q-23 -18 -39 -50.5t-27 -73t-16.5 -86.5t-6.5 -91z" />
  </g>

</svg>
