<?xml version="1.0" standalone="no"?>
<!DOCTYPE svg PUBLIC "-//W3C//DTD SVG 1.1//EN" "http://www.w3.org/Graphics/SVG/1.1/DTD/svg11.dtd" >
<svg xmlns="http://www.w3.org/2000/svg" xmlns:xlink="http://www.w3.org/1999/xlink" version="1.1" viewBox="0 -410 2048 2048">
  <g transform="matrix(1 0 0 -1 0 1638)">
   <path fill="currentColor"
d="M1692 933q17 0 28 -11t11 -27q0 -17 -11 -28t-28 -11h-77q0 -16 -11 -27.5t-27 -11.5q-17 0 -28 11.5t-11 27.5h-2q-8 -106 -48 -200.5t-106 -169.5l2 -1q11 11 27 11t27 -11q12 -11 12 -27t-12 -28l55 -54q11 -12 11 -27.5t-11 -27.5q-12 -11 -27.5 -11t-27.5 11l-54 55
q-12 -12 -28 -12t-27 12q-11 11 -11 27t11 27l-1 2q-75 -66 -169.5 -106t-200.5 -48v-2q16 0 27.5 -11t11.5 -28q0 -16 -11.5 -27t-27.5 -11v-77q0 -17 -11 -28t-27 -11q-17 0 -28 11t-11 28v77q-16 0 -27.5 11t-11.5 27q0 17 11.5 28t27.5 11v2q-106 8 -200.5 48
t-169.5 106l-1 -2q11 -11 11 -27t-11 -27q-11 -12 -27 -12t-28 12l-54 -55q-12 -11 -27.5 -11t-27.5 11q-11 12 -11 27.5t11 27.5l55 54q-12 12 -12 28t12 27q11 11 27 11t27 -11l2 1q-66 75 -106 169.5t-48 200.5h-2q0 -16 -11 -27.5t-28 -11.5q-16 0 -27 11.5t-11 27.5
h-77q-17 0 -28 11t-11 28q0 16 11 27t28 11h77q0 16 11 27.5t27 11.5q17 0 28 -11.5t11 -27.5h2q8 106 48 200.5t106 169.5l-2 1q-11 -11 -27 -11t-27 11q-12 11 -12 27t12 28l-55 54q-11 12 -11 27.5t11 27.5q12 11 27.5 11t27.5 -11l54 -55q12 12 28 12t27 -12
q11 -11 11 -27t-11 -27l1 -2q75 66 169.5 106t200.5 48v2q-16 0 -27.5 11t-11.5 28q0 16 11.5 27t27.5 11v77q0 17 11 28t28 11q16 0 27 -11t11 -28v-77q16 0 27.5 -11t11.5 -27q0 -17 -11.5 -28t-27.5 -11v-2q106 -8 200.5 -48t169.5 -106l1 2q-11 11 -11 27t11 27
q11 12 27 12t28 -12l54 55q12 11 27.5 11t27.5 -11q11 -12 11 -27.5t-11 -27.5l-55 -54q12 -12 12 -28t-12 -27q-11 -11 -27 -11t-27 11l-2 -1q66 -75 106 -169.5t48 -200.5h2q0 16 11 27.5t28 11.5q16 0 27 -11.5t11 -27.5h77zM1458 933q-7 91 -40.5 171t-89.5 144
l-220 -220q16 -21 25.5 -45t14.5 -50h310zM958 988l39 39q-8 5 -18 9t-21 8v-56zM881 1044q-11 -4 -21 -8t-18 -9l39 -39v56zM787 972q-5 -8 -9 -18t-8 -21h56zM770 856q4 -11 8 -21t9 -18l39 39h-56zM842 762q8 -5 18 -9t21 -8v56zM958 745q11 4 21 8t18 9l-39 39v-56z
M1052 817q5 8 9 18t8 21h-56zM1069 933q-4 11 -8 21t-9 18l-39 -39h56zM1273 1303q-64 56 -144 89.5t-171 40.5v-310q26 -5 50 -14.5t45 -25.5zM881 1433q-91 -7 -171 -40.5t-144 -89.5l220 -220q21 16 45 25.5t50 14.5v310zM511 1248q-56 -64 -89.5 -144t-40.5 -171h310
q5 26 14.5 50t25.5 45zM381 856q7 -91 40.5 -171t89.5 -144l220 220q-16 21 -25.5 45t-14.5 50h-310zM566 486q64 -56 144 -89.5t171 -40.5v310q-26 5 -50 14.5t-45 25.5zM958 356q91 7 171 40.5t144 89.5l-220 220q-21 -16 -45 -25.5t-50 -14.5v-310zM1328 541
q56 64 89.5 144t40.5 171h-310q-5 -26 -14.5 -50t-25.5 -45z" />
  </g>

</svg>
