<?xml version="1.0" standalone="no"?>
<!DOCTYPE svg PUBLIC "-//W3C//DTD SVG 1.1//EN" "http://www.w3.org/Graphics/SVG/1.1/DTD/svg11.dtd" >
<svg xmlns="http://www.w3.org/2000/svg" xmlns:xlink="http://www.w3.org/1999/xlink" version="1.1" viewBox="-36 -410 2048 2048">
  <g transform="matrix(1 0 0 -1 0 1638)">
   <path fill="currentColor"
d="M18 1270v-39q0 -12 -11 -17l-43 -19v38q0 12 10 17zM12 1105v-34q0 -11 -10 -16l-33 -17v34q0 12 10 16zM12 940v-33q0 -12 -10 -17l-33 -16v33q0 12 10 17zM18 777v-39q0 -11 -11 -16l-43 -20v38q0 11 10 16zM12 606v-33q0 -11 -10 -16l-33 -16v33q0 11 10 16zM12 439
v-34q0 -11 -10 -16l-33 -16v32q0 11 10 17zM18 278v-40q0 -12 -11 -17l-43 -19v38q0 11 10 16zM154 1242v-48q0 -12 -11 -17l-62 -25v47q0 10 11 16zM150 1069v-42q0 -12 -11 -17l-47 -20v42q0 12 11 17zM150 903v-41q0 -12 -11 -17l-47 -20v43q0 13 11 16zM154 743v-47
q0 -13 -11 -16l-62 -27v47q0 11 11 17zM150 571v-42q0 -13 -11 -16l-47 -22v43q0 12 11 17zM150 403v-42q0 -13 -11 -16l-47 -21v42q0 13 11 16zM154 242v-47q0 -12 -10 -17l-63 -28v47q0 12 11 17zM291 1177v-31q0 -12 -11 -17l-58 -25q-9 -4 -17.5 1.5t-8.5 15.5v30
q0 11 11 17l58 25q9 5 17.5 -0.5t8.5 -15.5zM286 1031v-50q0 -12 -11 -17l-68 -29v49q0 12 10 17zM286 865v-50q0 -12 -11 -17l-68 -29v50q0 13 10 16zM291 678v-31q0 -12 -11 -16l-58 -25q-9 -5 -17.5 0.5t-8.5 15.5v31q0 10 11 16l58 26q9 4 17.5 -1.5t8.5 -15.5zM286 533
v-50q0 -12 -11 -17l-68 -31v51q0 11 10 16zM286 372v-52q0 -12 -11 -17l-68 -29v50q0 11 10 16zM291 183v-31q0 -12 -11 -17l-58 -25q-9 -4 -17.5 1t-8.5 15v32q0 10 11 16l58 26q9 4 17.5 -1.5t8.5 -15.5zM440 1181v-53q0 -12 -11 -17l-82 -36q-9 -4 -17 1.5t-8 15.5v52
q0 12 10 17l82 36q9 5 17.5 -0.5t8.5 -15.5zM433 1008v-46q0 -11 -10 -16l-63 -28q-9 -5 -17.5 0.5t-8.5 15.5v46q0 11 11 17l63 27q9 5 17 -0.5t8 -15.5zM433 842v-45q0 -12 -10 -17l-63 -28q-9 -4 -17.5 1.5t-8.5 15.5v46q0 10 11 16l63 27q9 5 17 -0.5t8 -15.5zM440 682
v-54q0 -12 -11 -16l-82 -36q-9 -4 -17 1.5t-8 15.5v54q0 11 11 16l82 35q8 5 16.5 -0.5t8.5 -15.5zM433 509v-46q0 -12 -10 -17l-63 -27q-9 -4 -17.5 1t-8.5 16v45q0 11 11 17l63 27q9 4 17 -1t8 -15zM433 347v-45q0 -12 -10 -17l-63 -27q-9 -4 -17.5 1t-8.5 15v45
q0 11 11 17l63 28q9 4 17 -1.5t8 -15.5zM440 187v-53q0 -12 -11 -17l-82 -36q-9 -4 -17 1.5t-8 15.5v53q0 11 10 16l82 37q9 4 17.5 -1.5t8.5 -15.5zM596 1196v-81q0 -12 -11 -17l-95 -42q-9 -5 -17.5 0.5t-8.5 15.5v82q0 11 11 17l96 42q9 4 17 -1t8 -16zM590 1014v-62
q0 -12 -11 -17l-77 -33q-9 -4 -17 1.5t-8 15.5v63q0 11 11 16l76 33q9 4 17.5 -1.5t8.5 -15.5zM590 856v-63q0 -12 -11 -17l-77 -33q-9 -4 -17 1.5t-8 15.5v62q0 12 11 17l76 33q9 4 17.5 -1t8.5 -15zM596 698v-82q0 -12 -11 -17l-95 -41q-9 -5 -17.5 0.5t-8.5 15.5v82
q0 11 11 17l96 42q9 4 17 -1.5t8 -15.5zM590 516v-63q0 -12 -11 -17l-77 -32q-9 -4 -17 1.5t-8 15.5v62q0 12 11 17l76 33q9 4 17.5 -1.5t8.5 -15.5zM590 354v-63q0 -11 -11 -16l-77 -33q-9 -5 -17 0.5t-8 15.5v63q0 12 11 17l76 33q9 4 17.5 -1.5t8.5 -15.5zM596 203v-82
q0 -12 -11 -17l-95 -42q-9 -4 -17.5 1.5t-8.5 15.5v82q0 11 11 17l96 41q9 5 17 -0.5t8 -15.5zM755 1285v-154q0 -12 -10 -17l-104 -47q-9 -4 -17.5 1t-8.5 16v116q0 11 9 16q66 41 131 69zM755 1074v-104q0 -12 -10 -17l-104 -48q-9 -4 -17.5 1.5t-8.5 15.5v105q0 11 11 16
l104 47q9 5 17 -0.5t8 -15.5zM755 912v-106q0 -11 -10 -16l-104 -48q-9 -5 -17.5 0.5t-8.5 15.5v106q0 11 11 16l104 48q9 5 17 -0.5t8 -15.5zM755 748v-104q0 -11 -10 -16l-104 -48q-9 -5 -17.5 0.5t-8.5 15.5v105q0 12 11 17l104 47q9 4 17 -1t8 -16zM755 586v-108
q0 -11 -10 -16l-104 -49q-9 -5 -17.5 0.5t-8.5 15.5v109q0 12 11 17l104 48q9 4 17 -1t8 -16zM755 420v-105q0 -11 -10 -16l-104 -49q-9 -5 -17.5 0.5t-8.5 15.5v106q0 12 11 17l104 48q9 4 17 -1.5t8 -15.5zM755 257v-114q0 -12 -11 -17q-29 -13 -54.5 -24.5t-48.5 -23.5
q-9 -5 -17.5 0.5t-8.5 15.5v115q0 11 11 16l104 49q9 4 17 -1.5t8 -15.5zM1485 1279v-1130q0 -11 -9.5 -15.5t-18.5 0.5q-64 40 -141.5 59t-169.5 19q-159 0 -351 -67q-9 -3 -17 2.5t-8 14.5v117q0 14 12 17q97 41 216 61q15 3 15 18v342q0 8 -6.5 14t-14.5 4
q-46 -8 -94.5 -25t-100.5 -42q-9 -5 -18 0t-9 15v71q0 11 11 16q51 25 105 42.5t112 27.5q15 3 15 18v330q0 8 -7 14t-15 4q-95 -23 -195 -66q-9 -4 -17.5 1t-8.5 15v124q0 12 12 17q180 77 351 77q191 0 352 -95zM1345 1164q0 11 -10 16q-85 43 -201 43h-14.5t-14.5 -1
v-372l32 1q47 1 93 -7t91 -22q9 -2 16.5 3t7.5 14v325zM1345 692q0 12 -11 17q-89 40 -199 40q-7 0 -14.5 -0.5t-15.5 -1.5v-379h32q101 0 185 -24q8 -2 15.5 3t7.5 15v330zM1437 69v25h-10v4h23v-4h-9v-25h-4zM1453 69v29h7l9 -23l10 23h6v-29h-4v24l-9 -23h-5l-10 23v-24
h-4z" />
  </g>

</svg>
