<?xml version="1.0" standalone="no"?>
<!DOCTYPE svg PUBLIC "-//W3C//DTD SVG 1.1//EN" "http://www.w3.org/Graphics/SVG/1.1/DTD/svg11.dtd" >
<svg xmlns="http://www.w3.org/2000/svg" xmlns:xlink="http://www.w3.org/1999/xlink" version="1.1" viewBox="0 -410 2048 2048">
  <g transform="matrix(1 0 0 -1 0 1638)">
   <path fill="currentColor"
d="M1163 872q36 0 61.5 -25t25.5 -62q0 -36 -25.5 -61t-61.5 -25t-61.5 25t-25.5 61q0 37 25.5 62t61.5 25zM815 1481q96 0 185 -25t166.5 -70t141 -108.5t108.5 -141t70 -166.5t25 -185t-25 -185t-70 -166t-108.5 -140.5t-141 -108.5t-166.5 -70t-185 -25
q-144 0 -270.5 54.5t-221 149t-149 221t-54.5 270.5q0 96 25 185t70 166.5t108.5 141t140.5 108.5t166 70t185 25zM511 699q36 0 61.5 25t25.5 61q0 37 -25.5 62t-61.5 25t-61.5 -25t-25.5 -62q0 -36 25.5 -61t61.5 -25zM1120 481q79 -1 135.5 18t95 48.5t61.5 66t35.5 71
t16 63t3.5 42.5q0 89 -23.5 172t-66 154.5t-102 130.5t-132 101.5t-156 65.5t-172.5 23q-127 0 -240 -46t-200 -125.5t-142 -187.5t-66 -232q7 61 35 113.5t71 91t98.5 60.5t117.5 22q65 0 122.5 -23.5t101 -64.5t70.5 -96.5t31 -119.5h1q3 -65 18 -114.5t37 -86t49 -62
t55 -41.5q65 -39 146 -44z" />
  </g>

</svg>
