<?xml version="1.0" standalone="no"?>
<!DOCTYPE svg PUBLIC "-//W3C//DTD SVG 1.1//EN" "http://www.w3.org/Graphics/SVG/1.1/DTD/svg11.dtd" >
<svg xmlns="http://www.w3.org/2000/svg" xmlns:xlink="http://www.w3.org/1999/xlink" version="1.1" viewBox="0 -200 1000 1000">
  <g transform="matrix(1 0 0 -1 0 800)">
   <path fill="currentColor"
d="M441 220q16 -73 31 -100q16 -28 81 -28h201q69 0 86 -26q16 -25 16 -84v-101h-25v49q0 43 -16 65t-61 22h-201q-34 0 -57 17t-36 42q-13 26 -18.5 47t-10.5 41l-13 -37q-5 -15 -10 -28.5t-12 -25.5q-13 -23 -35.5 -39.5t-57.5 -16.5h-201q-45 0 -61 -22t-16 -65v-49h-25
v101q0 58 17 84t85 26h201q65 0 81 28q15 27 31 100h26z" />
  </g>

</svg>
