<?xml version="1.0" standalone="no"?>
<!DOCTYPE svg PUBLIC "-//W3C//DTD SVG 1.1//EN" "http://www.w3.org/Graphics/SVG/1.1/DTD/svg11.dtd" >
<svg xmlns="http://www.w3.org/2000/svg" xmlns:xlink="http://www.w3.org/1999/xlink" version="1.1" viewBox="0 -200 1000 1000">
  <g transform="matrix(1 0 0 -1 0 800)">
   <path fill="currentColor"
d="M174 550l11 41q11 38 1 44q-9 6 -54 6v18l145 25q0 -24 -6 -48l-24 -86h143v-40h-154l-93 -280q51 84 110 136.5t111 74.5q51 23 77 -23q18 -30 7 -68l-66 -241q-12 -45 -12.5 -62t28.5 -7q18 6 37 36q21 31 25 33q11 10 12 0.5t-10 -24.5q-27 -38 -48 -59.5t-52 -32.5
q-32 -11 -54 9q-23 21 -8 75l74 265q12 40 -6 51q-20 10 -42 -3q-56 -35 -120 -130q-16 -24 -31 -50.5t-27.5 -51t-22.5 -45.5t-16 -34l-34 -79h-74l162 510h-103l3 40h111z" />
  </g>

</svg>
