<?xml version="1.0" standalone="no"?>
<!DOCTYPE svg PUBLIC "-//W3C//DTD SVG 1.1//EN" "http://www.w3.org/Graphics/SVG/1.1/DTD/svg11.dtd" >
<svg xmlns="http://www.w3.org/2000/svg" xmlns:xlink="http://www.w3.org/1999/xlink" version="1.1" viewBox="0 -200 1000 1000">
  <g transform="matrix(1 0 0 -1 0 800)">
   <path fill="currentColor"
d="M365 548q6 16 8 34.5t1 41.5q-3 46 -33 46q-22 0 -50 -55q-14 -28 -29 -61.5t-29 -75.5q-29 -82 -42 -139q-7 -26 -12 -52.5t-10 -52.5q132 141 196 314zM166 207q-25 -187 53 -187q33 0 54 15q22 16 59 53q3 3 8 2.5t7 -1.5q2 -2 3.5 -5.5t-1.5 -7.5q-17 -21 -31 -35
t-29 -23t-32 -13t-38 -4q-50 0 -72 57q-23 57 -30 103l-38 -35l-44 -40v-1q0 -3 -3.5 -1.5t-6.5 2.5q-1 3 -1.5 7.5t1.5 6.5l51 46q19 17 29 25.5t11 9.5q1 35 5.5 77.5t13.5 93.5q12 66 48 145q19 40 39 74t42 62q45 57 75 57q53 0 57 -52q4 -53 -9 -93q-35 -106 -85 -179
q-25 -38 -59 -77.5t-77 -81.5z" />
  </g>

</svg>
