<?xml version="1.0" standalone="no"?>
<!DOCTYPE svg PUBLIC "-//W3C//DTD SVG 1.1//EN" "http://www.w3.org/Graphics/SVG/1.1/DTD/svg11.dtd" >
<svg xmlns="http://www.w3.org/2000/svg" xmlns:xlink="http://www.w3.org/1999/xlink" version="1.1" viewBox="0 -200 1000 1000">
  <g transform="matrix(1 0 0 -1 0 800)">
   <path fill="currentColor"
d="M199 331q-23 0 -42.5 -8.5t-34.5 -23.5t-23.5 -35t-8.5 -43t8.5 -42.5t23.5 -34.5t35 -23.5t43 -8.5t43 8.5t35 23.5t23.5 34.5t8.5 42.5q0 24 -9 44t-24 34.5t-35 23t-43 8.5zM200 72q-62 0 -106 44t-44 105q0 62 44 106q46 44 106 44q31 0 58 -12t47.5 -32.5
t32.5 -47.5t12 -58q0 -32 -12 -59t-32.5 -47t-47.5 -31.5t-58 -11.5z" />
  </g>

</svg>
