<?xml version="1.0" standalone="no"?>
<!DOCTYPE svg PUBLIC "-//W3C//DTD SVG 1.1//EN" "http://www.w3.org/Graphics/SVG/1.1/DTD/svg11.dtd" >
<svg xmlns="http://www.w3.org/2000/svg" xmlns:xlink="http://www.w3.org/1999/xlink" version="1.1" viewBox="0 -200 1000 1000">
  <g transform="matrix(1 0 0 -1 0 800)">
   <path fill="currentColor"
d="M834 145q24 0 40 -16t16 -40q0 -22 -16 -39t-40 -17q-22 0 -39 17t-17 39q0 24 17 40t39 16zM501 478q24 0 40 -16t16 -40q0 -22 -16 -39t-40 -17q-22 0 -39 17t-17 39q0 24 17 40t39 16zM168 811q24 0 40 -16t16 -40q0 -22 -16 -39t-40 -17q-22 0 -39 17t-17 39
q0 24 17 40t39 16z" />
  </g>

</svg>
