<?xml version="1.0" standalone="no"?>
<!DOCTYPE svg PUBLIC "-//W3C//DTD SVG 1.1//EN" "http://www.w3.org/Graphics/SVG/1.1/DTD/svg11.dtd" >
<svg xmlns="http://www.w3.org/2000/svg" xmlns:xlink="http://www.w3.org/1999/xlink" version="1.1" viewBox="0 -200 1000 1000">
  <g transform="matrix(1 0 0 -1 0 800)">
   <path fill="currentColor"
d="M410 123q1 -5 -6 -19.5t-23 -30.5q-30 -32 -59 -47q-48 -26 -117 -26q-66 0 -116 26q-31 16 -60 47q-14 16 -21.5 30.5t-7.5 19.5l8 4q30 -36 50 -47q11 -5 24 -9.5t29 -9.5q38 -11 94 -11t94 11q29 8 51.5 19.5t51.5 46.5z" />
  </g>

</svg>
