<?xml version="1.0" standalone="no"?>
<!DOCTYPE svg PUBLIC "-//W3C//DTD SVG 1.1//EN" "http://www.w3.org/Graphics/SVG/1.1/DTD/svg11.dtd" >
<svg xmlns="http://www.w3.org/2000/svg" xmlns:xlink="http://www.w3.org/1999/xlink" version="1.1" viewBox="0 -200 1020 1000">
  <g transform="matrix(1 0 0 -1 0 800)">
   <path fill="currentColor"
d="M526 264q25 -104 99 -150q24 -14 65 -26q44 -11 78 -11h252v-54h-238q-125 0 -192 59q-24 21 -37 37q-13 17 -17 29q-2 7 -9.5 27t-18.5 55q-11 -35 -19.5 -58t-15.5 -35q-13 -24 -47 -55q-67 -59 -192 -59h-234v54h248q18 0 37.5 3t41.5 8q41 11 64 26q73 46 99 150h36z
" />
  </g>

</svg>
