<?xml version="1.0" standalone="no"?>
<!DOCTYPE svg PUBLIC "-//W3C//DTD SVG 1.1//EN" "http://www.w3.org/Graphics/SVG/1.1/DTD/svg11.dtd" >
<svg viewBox="0 -410 2048 2048">
  <g transform="matrix(1 0 0 -1 0 1638)">
   <path fill="currentColor"
d="M1002 656l183 -154q57 -47 133 -124q57 -57 78.5 -100t21.5 -81q0 -89 -78 -175q-48 -53 -71 -53q-6 0 -10.5 4.5t-4.5 12.5t10 29q16 36 16 71q0 49 -30 97.5t-182 174.5l-590 488l-71 -85q-53 -64 -53 -144q0 -62 23 -110q35 -72 121 -158.5t117 -141.5q19 -34 19 -72
q0 -73 -54.5 -119.5t-182.5 -46.5q-47 0 -65.5 4.5t-24.5 12t-6 14.5q0 5 4 9q7 7 30 14.5t41 33t18 54.5q0 40 -40 118q-56 110 -70.5 160.5t-14.5 117.5q0 73 31 140q48 101 89 152l59 72l-146 140q-36 34 -55 72.5t-19 76.5q0 50 26 98q39 74 85 115q16 14 27 14
q9 0 14.5 -5t5.5 -13q0 -9 -4 -22q-10 -28 -10 -50q0 -42 16 -76q24 -51 78 -106q80 -81 135 -126l373 -307l265 329q-88 71 -120 124q-20 34 -20 77q0 61 43.5 108.5t137.5 66.5q-38 -55 -38 -93q0 -37 18.5 -66.5t91.5 -88.5q113 -91 113 -179q0 -38 -20 -66.5t-69 -56.5
q-17 57 -39.5 88.5t-66.5 63.5z" />
  </g>

</svg>
