<?xml version="1.0" standalone="no"?>
<!DOCTYPE svg PUBLIC "-//W3C//DTD SVG 1.1//EN" "http://www.w3.org/Graphics/SVG/1.1/DTD/svg11.dtd" >
<svg viewBox="0 -410 2048 2048">
  <g transform="matrix(1 0 0 -1 0 1638)">
   <path fill="currentColor"
d="M937 916h166l-130 -455q-13 -43 -41 -135q38 -154 57 -184q36 -55 91 -55q40 0 74 33t45 103h40q-14 -144 -60.5 -199t-107.5 -55q-57 0 -103.5 48t-83.5 206q-44 -87 -86 -132q-59 -62 -128 -92.5t-157 -30.5q-221 0 -325 147t-104 335q0 220 122 356.5t286 136.5
q114 0 201 -69.5t158 -258.5zM816 503q-54 206 -139 287.5t-173 81.5q-98 0 -163 -107.5t-65 -342.5q0 -139 28 -218.5t84.5 -123t119.5 -43.5q77 0 141 71q87 96 167 395z" />
  </g>

</svg>
