<?xml version="1.0" standalone="no"?>
<!DOCTYPE svg PUBLIC "-//W3C//DTD SVG 1.1//EN" "http://www.w3.org/Graphics/SVG/1.1/DTD/svg11.dtd" >
<svg viewBox="0 -410 2048 2048">
  <g transform="matrix(1 0 0 -1 0 1638)">
   <path fill="currentColor"
d="M1042 873h420v-37q-87 -7 -128.5 -38.5t-129.5 -190.5t-199 -297q90 -104 160 -145.5t140 -41.5q69 0 117.5 37.5t68.5 110.5l37 -27q-37 -141 -119 -208t-191 -67q-83 0 -167.5 44.5t-183.5 150.5q-124 -109 -223.5 -152t-212.5 -43q-166 0 -262.5 88t-96.5 211
q0 120 87 240.5t327 249.5q-47 104 -64 170.5t-17 126.5q0 172 127 263q98 69 222 69q119 0 194 -70.5t75 -173.5q0 -106 -82 -197q-64 -69 -247 -164q127 -226 265 -414q176 210 176 352q0 48 -31 85q-21 26 -62 31v37zM660 847q247 117 247 299q0 74 -44.5 121t-111.5 47
q-73 0 -124 -53.5t-51 -129.5q0 -46 17 -107.5t67 -176.5zM815 222q-132 180 -183.5 263t-111.5 206q-241 -138 -241 -332q0 -106 68.5 -187.5t187.5 -81.5q62 0 120.5 25t159.5 107z" />
  </g>

</svg>
