<?xml version="1.0" standalone="no"?>
<!DOCTYPE svg PUBLIC "-//W3C//DTD SVG 1.1//EN" "http://www.w3.org/Graphics/SVG/1.1/DTD/svg11.dtd" >
<svg viewBox="0 -410 2048 2048">
  <g transform="matrix(1 0 0 -1 0 1638)">
   <path fill="currentColor"
d="M1023 875h50q-20 -163 -98.5 -242t-183.5 -79q-49 0 -112.5 21.5t-197 96.5t-205.5 75q-66 0 -115.5 -47.5t-62.5 -138.5h-46q19 162 97 241.5t177 79.5q49 0 122 -24q53 -18 209 -101q118 -63 193 -63q64 0 105 40q54 52 68 141zM1023 488h50q-20 -163 -98.5 -242.5
t-183.5 -79.5q-49 0 -112.5 22t-197 97t-205.5 75q-66 0 -115.5 -47.5t-62.5 -139.5h-46q19 162 97 241.5t177 79.5q49 0 122 -24q53 -18 209 -101q118 -63 193 -63q64 0 105 41q54 52 68 141z" />
  </g>

</svg>
