<?xml version="1.0" standalone="no"?>
<!DOCTYPE svg PUBLIC "-//W3C//DTD SVG 1.1//EN" "http://www.w3.org/Graphics/SVG/1.1/DTD/svg11.dtd" >
<svg viewBox="0 -410 2094 2048">
  <g transform="matrix(1 0 0 -1 0 1638)">
   <path fill="currentColor"
d="M1580 178l-1026 2q103 -105 168 -208h-114q-118 144 -291.5 291.5t-275.5 205.5v56q135 78 293 216.5t274 278.5h114q-64 -102 -168 -206h1026q-97 95 -167 206h114q118 -143 291.5 -290.5t275.5 -206.5v-56q-135 -78 -293 -216.5t-274 -278.5h-114q63 102 167 206z
M1684 278l143 119q31 26 129 97q-180 138 -272 221h-1233l-143 -119q-32 -26 -129 -97q179 -138 272 -222z" />
  </g>

</svg>
