<?xml version="1.0" standalone="no"?>
<!DOCTYPE svg PUBLIC "-//W3C//DTD SVG 1.1//EN" "http://www.w3.org/Graphics/SVG/1.1/DTD/svg11.dtd" >
<svg viewBox="0 -410 2048 2048">
  <g transform="matrix(1 0 0 -1 0 1638)">
   <path fill="currentColor"
d="M494 715q-4 69 -28 137q-35 99 -35 135q0 52 25 79t61 27q31 0 54 -27t23 -78q0 -44 -26.5 -124.5t-32.5 -148.5q55 35 99 85q68 79 101 98t67 19q32 0 55 -22.5t23 -53.5q0 -37 -33 -66t-165 -58q-77 -17 -128 -39q52 -27 127 -41q121 -22 158.5 -55t37.5 -72
q0 -30 -22.5 -52t-52.5 -22t-66.5 21t-98.5 94q-41 49 -102 92q2 -57 23 -124q36 -118 36 -160q0 -41 -24 -68.5t-51 -27.5q-37 0 -67 29q-21 21 -21 67q0 48 23 115.5t29 93t11 75.5q-59 -39 -103 -87q-73 -82 -110 -104q-26 -16 -54 -16q-34 0 -58 23t-24 51
q0 25 20.5 52.5t61.5 45.5q27 12 123 32q62 13 121 38q-54 27 -129 42q-123 26 -152 47q-45 33 -45 80q0 27 22.5 49.5t52.5 22.5q33 0 70 -21t92 -84.5t112 -98.5z" />
  </g>

</svg>
