<?xml version="1.0" standalone="no"?>
<!DOCTYPE svg PUBLIC "-//W3C//DTD SVG 1.1//EN" "http://www.w3.org/Graphics/SVG/1.1/DTD/svg11.dtd" >
<svg viewBox="0 -410 2048 2048">
  <g transform="matrix(1 0 0 -1 0 1638)">
   <path fill="currentColor"
d="M946 692q141 -30 211 -96q97 -92 97 -224q0 -102 -64 -194.5t-175.5 -135t-340.5 -42.5h-640v37h51q85 0 122 54q23 35 23 149v876q0 126 -29 159q-39 44 -116 44h-51v37h586q164 0 263 -24q150 -36 229 -127.5t79 -210.5q0 -102 -62.5 -182.5t-182.5 -119.5zM422 746
q75 -14 186 -14q148 0 222 31.5t113 96.5t39 142q0 119 -97 203t-284 84q-99 0 -179 -22v-521zM422 98q116 -27 226 -27q184 0 279 81.5t95 201.5q0 78 -42.5 151.5t-139.5 115.5t-248 42q-117 0 -170 -9v-556z" />
  </g>

</svg>
