<?xml version="1.0" standalone="no"?>
<!DOCTYPE svg PUBLIC "-//W3C//DTD SVG 1.1//EN" "http://www.w3.org/Graphics/SVG/1.1/DTD/svg11.dtd" >
<svg viewBox="0 -442 2048 2048">
  <g transform="matrix(1 0 0 -1 0 1638)">
   <path fill="currentColor"
d="M330 78v-169q0 -162 -40 -351h-169q27 124 32 169q13 140 13 205v1022q0 179 35.5 265.5t128 144.5t221.5 58q179 0 286 -96t107 -228q0 -85 -43.5 -161.5t-134.5 -132.5q268 -128 268 -398q0 -120 -56 -224t-154 -158.5t-202 -54.5q-67 0 -132.5 23t-159.5 86zM330 157
q97 -68 169 -98q54 -22 108 -22q101 0 169.5 83.5t68.5 264.5q0 114 -32.5 199.5t-114.5 187.5q-69 -23 -119 -23q-60 0 -84.5 18t-24.5 39q0 19 19 34t61 15q49 0 148 -26q70 139 70 263q0 126 -62 195t-154 69q-116 0 -180 -98q-42 -65 -42 -209v-892z" />
  </g>

</svg>
