<?xml version="1.0" standalone="no"?>
<!DOCTYPE svg PUBLIC "-//W3C//DTD SVG 1.1//EN" "http://www.w3.org/Graphics/SVG/1.1/DTD/svg11.dtd" >
<svg viewBox="0 -442 2048 2048">
  <g transform="matrix(1 0 0 -1 0 1638)">
   <path fill="currentColor"
d="M772 510v-39q-109 -19 -168 -79t-59 -131q0 -52 23.5 -148t23.5 -164q0 -141 -106 -255.5t-272 -135.5v39q114 20 173 85.5t59 153.5q0 61 -19.5 157.5t-19.5 161.5q0 99 71 190.5t212 142.5q-145 58 -214.5 148t-69.5 189q0 61 20 159t20 157q0 85 -56.5 151t-175.5 95
v35q167 -22 271.5 -135t104.5 -253q0 -67 -23 -163.5t-23 -145.5q0 -73 56 -133.5t172 -81.5z" />
  </g>

</svg>
