<?xml version="1.0" standalone="no"?>
<!DOCTYPE svg PUBLIC "-//W3C//DTD SVG 1.1//EN" "http://www.w3.org/Graphics/SVG/1.1/DTD/svg11.dtd" >
<svg viewBox="0 -442 2048 2048">
  <g transform="matrix(1 0 0 -1 0 1638)">
   <path fill="currentColor"
d="M211 471v39q108 19 167.5 79t59.5 131q0 52 -23.5 147.5t-23.5 164.5q0 141 106 255.5t272 134.5v-38q-114 -20 -173.5 -86t-59.5 -153q0 -61 20 -157.5t20 -161.5q0 -99 -71 -190.5t-212 -142.5q144 -58 214 -148t70 -190q0 -60 -20 -158t-20 -157q0 -86 56.5 -151.5
t175.5 -95.5v-35q-167 23 -271.5 135.5t-104.5 253.5q0 67 23 163.5t23 144.5q0 74 -56.5 134.5t-171.5 81.5z" />
  </g>

</svg>
