<?xml version="1.0" standalone="no"?>
<!DOCTYPE svg PUBLIC "-//W3C//DTD SVG 1.1//EN" "http://www.w3.org/Graphics/SVG/1.1/DTD/svg11.dtd" >
<svg viewBox="0 -410 2048 2048">
  <g transform="matrix(1 0 0 -1 0 1638)">
   <path fill="currentColor"
d="M902 0h-263q49 68 64.5 113t15.5 116q0 58 -5 79q-3 16 -10.5 22.5t-14.5 6.5q-10 0 -23.5 -8t-67 -63t-86.5 -71q-57 -27 -115 -27q-96 0 -154 67t-58 179q0 75 30 142.5t80 96.5t113 29q37 0 69 -10t99 -46.5t92 -36.5q14 0 22 8t8 23q0 18 -8 29q-13 16 -55 42
q-59 36 -92 96.5t-33 119.5q0 93 70 158t193 65q121 0 190 -64.5t69 -159.5q0 -64 -33.5 -122t-84 -89.5t-60.5 -44t-10 -27.5t9.5 -24.5t22.5 -9.5q24 0 87 36q101 58 173 58q69 0 117.5 -30.5t76 -100.5t27.5 -138q0 -111 -57.5 -178t-154.5 -67q-56 0 -103.5 22.5
t-121.5 100.5q-31 33 -43 39.5t-23 6.5q-9 0 -14 -4q-8 -7 -12 -25q-6 -25 -6 -78q0 -76 15.5 -121.5t64.5 -109.5z" />
  </g>

</svg>
