<?xml version="1.0" standalone="no"?>
<!DOCTYPE svg PUBLIC "-//W3C//DTD SVG 1.1//EN" "http://www.w3.org/Graphics/SVG/1.1/DTD/svg11.dtd" >
<svg viewBox="0 -410 2048 2048">
  <g transform="matrix(1 0 0 -1 0 1638)">
   <path fill="currentColor"
d="M1518 678q0 -294 -208 -502t-502 -208t-501.5 208t-207.5 502t207.5 502t501.5 208t502 -208t208 -502zM1439 678q0 261 -184.5 446t-445.5 185q-262 0 -446.5 -185t-184.5 -446t184.5 -446t446.5 -185q261 0 445.5 185t184.5 446zM1136 850l-99 -21q-28 80 -84 120
t-133 40q-106 0 -178.5 -85t-72.5 -244q0 -145 70.5 -223.5t171.5 -78.5q84 0 149 51t88 141l88 -25q-32 -124 -118 -191.5t-206 -67.5q-152 0 -249.5 105t-97.5 294q0 195 98.5 302.5t263.5 107.5q124 0 201 -57t108 -168z" />
  </g>

</svg>
