<?xml version="1.0" standalone="no"?>
<!DOCTYPE svg PUBLIC "-//W3C//DTD SVG 1.1//EN" "http://www.w3.org/Graphics/SVG/1.1/DTD/svg11.dtd" >
<svg viewBox="0 -410 2048 2048">
  <g transform="matrix(1 0 0 -1 0 1638)">
   <path fill="currentColor"
d="M1518 678q0 -294 -208 -502t-502 -208t-501.5 208t-207.5 502t207.5 502t501.5 208t502 -208t208 -502zM1439 678q0 261 -184.5 446t-446.5 185q-261 0 -445.5 -185t-184.5 -446t184.5 -446t445.5 -185q262 0 446.5 185t184.5 446zM1106 1066l14 -247h-34
q-29 101 -96 152t-155 51q-110 0 -187 -87t-77 -253q0 -173 81 -262.5t205 -89.5q65 0 122.5 31.5t126.5 111.5l31 -22q-112 -180 -317 -180q-105 0 -197.5 50t-144.5 148t-52 203t51.5 198.5t148 145t194.5 51.5q87 0 159 -26q37 -13 49 -13q19 0 27.5 7.5t13.5 30.5h37z
" />
  </g>

</svg>
