<?xml version="1.0" standalone="no"?>
<!DOCTYPE svg PUBLIC "-//W3C//DTD SVG 1.1//EN" "http://www.w3.org/Graphics/SVG/1.1/DTD/svg11.dtd" >
<svg viewBox="0 -410 2048 2048">
  <g transform="matrix(1 0 0 -1 0 1638)">
   <path fill="currentColor"
d="M509 863q-40 39 -86 74q-147 113 -190 174.5t-43 114.5q0 78 75 137t238 59q189 0 295 -72q66 -45 66 -107q0 -34 -24.5 -58t-61.5 -24q-22 0 -39 10q-25 15 -86.5 82t-97.5 85q-47 23 -111 23q-89 0 -136.5 -38.5t-47.5 -84.5q0 -44 53 -98.5t235 -163.5
q231 -137 313 -255t82 -258q0 -205 -139.5 -349.5t-329.5 -144.5q-172 0 -288.5 120t-116.5 296q0 105 47 205.5t141 165.5t252 107zM562 815q-156 -26 -234.5 -123.5t-78.5 -280.5t78 -278.5t180 -95.5q123 0 192.5 100t69.5 254q0 83 -23.5 156t-57.5 121q-26 36 -126 147
z" />
  </g>

</svg>
