<?xml version="1.0" standalone="no"?>
<!DOCTYPE svg PUBLIC "-//W3C//DTD SVG 1.1//EN" "http://www.w3.org/Graphics/SVG/1.1/DTD/svg11.dtd" >
<svg viewBox="0 -410 2048 2048">
  <g transform="matrix(1 0 0 -1 0 1638)">
   <path fill="currentColor"
d="M1154 1596q1 -38 1 -60q0 -94 -46.5 -166t-155.5 -133q-36 -21 -125 -27q-2 22 -2 33q0 60 42.5 144.5t119.5 140.5q55 40 166 68zM1454 1063q-95 -67 -134 -132q-55 -92 -55 -201q0 -96 55 -183.5t177 -148.5q-124 -270 -235 -364q-77 -65 -175 -65q-51 0 -127.5 29.5
t-118.5 29.5q-51 0 -128.5 -29.5t-121.5 -29.5q-107 0 -200 93q-131 132 -202.5 324t-71.5 350q0 182 92 312q120 170 363 170q71 0 144 -31.5t119 -31.5q26 0 45 5t84.5 32t143.5 27q113 0 190.5 -36t155.5 -120z" />
  </g>

</svg>
