<?xml version="1.0" standalone="no"?>
<!DOCTYPE svg PUBLIC "-//W3C//DTD SVG 1.1//EN" "http://www.w3.org/Graphics/SVG/1.1/DTD/svg11.dtd" >
<svg viewBox="0 -410 2048 2048">
  <g transform="matrix(1 0 0 -1 0 1638)">
   <path fill="currentColor"
d="M452 83q0 -47 -32.5 -79.5t-78.5 -32.5t-78.5 32.5t-32.5 79.5q0 46 32.5 78.5t78.5 32.5t78.5 -32.5t32.5 -78.5zM1135 83q0 -47 -32.5 -79.5t-78.5 -32.5t-78.5 32.5t-32.5 79.5q0 46 32.5 78.5t78.5 32.5t78.5 -32.5t32.5 -78.5zM1818 83q0 -47 -32.5 -79.5
t-78.5 -32.5t-78.5 32.5t-32.5 79.5q0 46 32.5 78.5t78.5 32.5t78.5 -32.5t32.5 -78.5z" />
  </g>

</svg>
