<?xml version="1.0" standalone="no"?>
<!DOCTYPE svg PUBLIC "-//W3C//DTD SVG 1.1//EN" "http://www.w3.org/Graphics/SVG/1.1/DTD/svg11.dtd" >
<svg viewBox="0 -410 2048 2048">
  <g transform="matrix(1 0 0 -1 0 1638)">
   <path fill="currentColor"
d="M1337 1261l200 200l70 -69l-201 -200q113 -157 148.5 -255.5t35.5 -230.5q0 -195 -97.5 -369.5t-272.5 -272.5t-372 -98q-129 0 -228 36t-255 149l-199 -199l-69 69l199 199q-111 156 -146 254t-35 228q0 194 98 369t272.5 273t371.5 98q129 0 227 -35t253 -146z
M1268 1192q-133 93 -217 123t-195 30q-170 0 -322 -85t-237 -237t-85 -320q0 -112 29.5 -196.5t122.5 -217.5zM1338 1123l-904 -904q134 -95 219 -125.5t198 -30.5q169 0 321 85t237 237t85 323q0 111 -30.5 196t-125.5 219z" />
  </g>

</svg>
