<?xml version="1.0" standalone="no"?>
<!DOCTYPE svg PUBLIC "-//W3C//DTD SVG 1.1//EN" "http://www.w3.org/Graphics/SVG/1.1/DTD/svg11.dtd" >
<svg viewBox="0 -410 2048 2048">
  <g transform="matrix(1 0 0 -1 0 1638)">
   <path fill="currentColor"
d="M324 491q-118 44 -158 94t-40 119q0 93 78 155q106 85 279 85q103 0 185 -24t111.5 -62.5t29.5 -72.5q0 -31 -26 -56.5t-60 -25.5q-55 0 -91.5 71.5t-60.5 87.5q-39 26 -96 26q-90 0 -143 -52.5t-53 -142.5q0 -88 44 -135t121 -47q26 0 57 4q49 7 77 7q43 0 58.5 -11
t15.5 -26t-13 -23q-18 -13 -63 -13q-10 0 -33 3q-52 7 -85 7q-84 0 -137.5 -55t-53.5 -145q0 -105 55.5 -163.5t143.5 -58.5q71 0 116 43q26 25 55 104q19 52 31 64q32 32 68 32q42 0 71 -29t29 -72q0 -69 -79 -127q-115 -83 -293 -83q-188 0 -289.5 83t-101.5 184
q0 72 54.5 137t196.5 118z" />
  </g>

</svg>
