<?xml version="1.0" standalone="no"?>
<!DOCTYPE svg PUBLIC "-//W3C//DTD SVG 1.1//EN" "http://www.w3.org/Graphics/SVG/1.1/DTD/svg11.dtd" >
<svg viewBox="0 -442 2048 2048">
  <g transform="matrix(1 0 0 -1 0 1638)">
   <path fill="currentColor"
d="M702 897h182l-16 -68h-179q-51 -268 -177 -725q-96 -349 -209 -460q-86 -86 -178 -86q-57 0 -91 31.5t-34 76.5q0 39 24 65t55 26q27 0 47 -18.5t20 -39.5q0 -23 -14 -39q-11 -12 -11 -19q0 -8 7.5 -15t18.5 -7q20 0 37 10q31 18 60.5 65.5t61.5 179.5q6 24 87 422
q9 45 128 533h-182l16 68q101 6 127.5 15t43.5 33q27 36 61 137q75 218 143 279t151 61q65 0 103 -33.5t38 -81.5q0 -36 -20.5 -57.5t-49.5 -21.5q-26 0 -45 18t-19 39q0 17 11 35.5t11 27.5q0 11 -9 18.5t-27 7.5q-32 0 -58 -24q-37 -34 -49 -90q-29 -137 -65 -363z" />
  </g>

</svg>
