<?xml version="1.0" standalone="no"?>
<!DOCTYPE svg PUBLIC "-//W3C//DTD SVG 1.1//EN" "http://www.w3.org/Graphics/SVG/1.1/DTD/svg11.dtd" >
<svg viewBox="-1 -442 2048 2048">
  <g transform="matrix(1 0 0 -1 0 1638)">
   <path fill="currentColor"
d="M675 916h167q-16 -36 -165 -342q-62 -128 -89 -194q-12 -27 -27 -59l-115 -246q7 -64 10 -118t3 -98q0 -136 -20 -210q-14 -52 -37 -71.5t-50 -19.5q-33 0 -58.5 28t-25.5 72q0 77 31 177.5t92 225.5q-73 512 -116.5 618t-120.5 106q-47 0 -74 -28.5t-41 -128.5h-39
q-1 30 -1 45q0 138 54 208q41 52 110 52q60 0 98 -36q52 -51 93 -222q52 -222 81 -483l88 297q59 200 152 427z" />
  </g>

</svg>
