<?xml version="1.0" standalone="no"?>
<!DOCTYPE svg PUBLIC "-//W3C//DTD SVG 1.1//EN" "http://www.w3.org/Graphics/SVG/1.1/DTD/svg11.dtd" >
<svg viewBox="0 -410 2048 2048">
  <g transform="matrix(1 0 0 -1 0 1638)">
   <path fill="currentColor"
d="M768 -31l-170 241q-28 40 -150.5 196.5t-161.5 247t-39 181.5q0 86 30.5 149.5t87 94.5t116.5 31q85 0 154 -54.5t90 -141.5q10 -40 24 -55q7 -8 18 -8q15 0 22 8q15 16 26 55q25 93 89.5 144t153.5 51q104 0 170 -73t66 -203q0 -88 -40.5 -182t-163.5 -249t-151 -194z
" />
  </g>

</svg>
