<?xml version="1.0" standalone="no"?>
<!DOCTYPE svg PUBLIC "-//W3C//DTD SVG 1.1//EN" "http://www.w3.org/Graphics/SVG/1.1/DTD/svg11.dtd" >
<svg viewBox="0 -410 2048 2048">
  <g transform="matrix(1 0 0 -1 0 1638)">
   <path fill="currentColor"
d="M441 916l8 -34q-50 -7 -81 -7q-89 0 -152.5 64t-63.5 155q0 119 95 206t248 87q57 0 111.5 -12t167.5 -54q217 -81 296 -81q117 0 169 124l33 -8q-38 -131 -122.5 -198.5t-185.5 -67.5q-97 0 -293 68q-142 50 -192.5 61t-96.5 11q-82 0 -131.5 -46.5t-49.5 -114.5
q0 -65 48.5 -112t122.5 -47q26 0 69 6zM1269 933l-24 -17q-71 49 -118 49q-41 0 -63.5 -23.5t-22.5 -67.5q0 -72 81 -205.5t102 -190t21 -105.5q0 -81 -70.5 -183.5t-202 -161.5t-287.5 -59q-129 0 -212 36.5t-199 151.5q-52 51 -95 51q-26 0 -49 -14.5t-43 -44.5h-42
q71 88 135 127t130 39q78 0 160 -42q62 -31 175 -140t187 -109q85 0 176.5 63.5t91.5 160.5q0 39 -10 68q-19 50 -70 134q-94 154 -124 233q-18 48 -18 89q0 101 65.5 171t148.5 70q85 0 177 -80z" />
  </g>

</svg>
