<?xml version="1.0" standalone="no"?>
<!DOCTYPE svg PUBLIC "-//W3C//DTD SVG 1.1//EN" "http://www.w3.org/Graphics/SVG/1.1/DTD/svg11.dtd" >
<svg viewBox="0 -410 2048 2048">
  <g transform="matrix(1 0 0 -1 0 1638)">
   <path fill="currentColor"
d="M201 948q18 551 23 598q23 186 80.5 251.5t130.5 65.5q50 0 87.5 -33.5t37.5 -73.5q0 -47 -26.5 -75.5t-65.5 -28.5q-35 0 -76 36q-23 20 -40 20t-28.5 -14.5t-11.5 -49.5q0 -42 9 -145q37 -410 37 -665q0 -67 -16 -588q-8 -295 -90 -399q-54 -67 -134 -67q-52 0 -85 34
t-33 87q0 45 25.5 72t64.5 27q40 0 69 -32t49 -32q17 0 28 14t11 47q0 42 -9 120q-37 315 -37 831z" />
  </g>

</svg>
