<?xml version="1.0" standalone="no"?>
<!DOCTYPE svg PUBLIC "-//W3C//DTD SVG 1.1//EN" "http://www.w3.org/Graphics/SVG/1.1/DTD/svg11.dtd" >
<svg viewBox="0 -410 2048 2048">
  <g transform="matrix(1 0 0 -1 0 1638)">
   <path fill="currentColor"
d="M678 1896h172v-838q0 -198 -24 -365q-33 -226 -98.5 -392.5t-175.5 -299.5q-77 -94 -152.5 -131t-145.5 -37q-86 0 -136.5 47.5t-50.5 115.5q0 61 40 103.5t91 42.5q52 0 87 -34t35 -79q0 -71 -76 -112q78 0 115 19q89 47 150 133q84 119 126.5 305.5t42.5 502.5v1019z
" />
  </g>

</svg>
