<?xml version="1.0" standalone="no"?>
<!DOCTYPE svg PUBLIC "-//W3C//DTD SVG 1.1//EN" "http://www.w3.org/Graphics/SVG/1.1/DTD/svg11.dtd" >
<svg viewBox="0 -410 2048 2048">
  <g transform="matrix(1 0 0 -1 0 1638)">
   <path fill="currentColor"
d="M613 752l502 -497q124 -123 210.5 -167.5t173.5 -50.5v-37h-645v37q58 0 83.5 19.5t25.5 44.5q0 23 -10 42t-62 71l-468 463v-437q0 -133 30 -162q42 -41 116 -41h48v-37h-580v37h48q84 0 122 49q24 32 24 154v876q0 103 -13 137q-10 24 -41 42q-44 24 -92 24h-48v37h580
v-37h-48q-82 0 -121 -48q-25 -32 -25 -155v-415l314 291q152 147 194 218q15 25 15 49q0 25 -21 42.5t-71 17.5h-31v37h498v-37q-44 -1 -81 -12t-89.5 -43.5t-128.5 -103.5q-21 -19 -203 -205z" />
  </g>

</svg>
