<?xml version="1.0" standalone="no"?>
<!DOCTYPE svg PUBLIC "-//W3C//DTD SVG 1.1//EN" "http://www.w3.org/Graphics/SVG/1.1/DTD/svg11.dtd" >
<svg viewBox="0 -442 2048 2048">
  <g transform="matrix(1 0 0 -1 0 1638)">
   <path fill="currentColor"
d="M950 916v-603q0 -120 11 -168q9 -34 27 -49t38 -15q25 0 46.5 25t31.5 99h41q-17 -134 -66 -185t-124 -51q-74 0 -118 45t-53 156q-102 -113 -193.5 -157.5t-158.5 -44.5q-45 0 -88 17.5t-84 51.5q-2 -145 25 -253q19 -77 19 -108q0 -54 -27.5 -86t-62.5 -32
q-36 0 -59 28q-31 38 -31 95q0 28 12 70q28 94 35 164q12 120 12 204v797h168v-577q0 -102 17 -147t61 -71t88 -26q52 0 123 31t144 100v690h166z" />
  </g>

</svg>
