<?xml version="1.0" standalone="no"?>
<!DOCTYPE svg PUBLIC "-//W3C//DTD SVG 1.1//EN" "http://www.w3.org/Graphics/SVG/1.1/DTD/svg11.dtd" >
<svg viewBox="0 -410 2048 2048">
  <g transform="matrix(1 0 0 -1 0 1638)">
   <path fill="currentColor"
d="M108 -28v37q130 2 242 60.5t216.5 204.5t145.5 321q-78 -50 -149 -75.5t-135 -25.5q-143 0 -245 111t-102 293q0 210 126.5 348t296.5 138q167 0 285 -138q147 -171 147 -422q0 -226 -110.5 -421.5t-308.5 -324.5q-162 -106 -352 -106h-57zM728 669q18 130 18 204
q0 101 -33 213.5t-94 172.5t-137 60q-89 0 -156 -80t-67 -239q0 -210 90 -329q64 -86 159 -86q46 0 109 22t111 62z" />
  </g>

</svg>
