<?xml version="1.0" standalone="no"?>
<!DOCTYPE svg PUBLIC "-//W3C//DTD SVG 1.1//EN" "http://www.w3.org/Graphics/SVG/1.1/DTD/svg11.dtd" >
<svg viewBox="0 -410 2048 2048">
  <g transform="matrix(1 0 0 -1 0 1638)">
   <path fill="currentColor"
d="M1391 916v-133h-241q110 -128 147.5 -215t37.5 -194q0 -185 -99 -295t-229 -110q-77 0 -135 42t-99 141q-50 -102 -106.5 -142.5t-136.5 -40.5q-132 0 -227 107.5t-95 288.5q0 115 43 209t154 209h-85q-148 0 -218 -156h-37q36 119 84 180.5t110.5 85t197.5 23.5h934z
M514 783q-62 -69 -89.5 -148.5t-27.5 -225.5q0 -196 63 -291q41 -60 107 -60q52 0 94.5 39t83.5 164q-62 169 -62 261q0 76 39 130q23 33 54 33t54 -33q34 -47 34 -129q0 -49 -12 -102t-51 -160q27 -109 77.5 -155.5t110.5 -46.5q66 0 105 56q56 83 56 280q0 153 -37 267
q-21 66 -69 121h-530z" />
  </g>

</svg>
