<?xml version="1.0" standalone="no"?>
<!DOCTYPE svg PUBLIC "-//W3C//DTD SVG 1.1//EN" "http://www.w3.org/Graphics/SVG/1.1/DTD/svg11.dtd" >
<svg viewBox="0 -410 2048 2048">
  <g transform="matrix(1 0 0 -1 0 1638)">
   <path fill="currentColor"
d="M1517 0h-567l24 279q141 59 207.5 168t66.5 306q0 272 -132.5 417.5t-333.5 145.5q-194 0 -328 -147.5t-134 -401.5q0 -200 68.5 -319t206.5 -169l25 -279h-564v279h35q3 -61 32 -83q45 -35 137 -35h270v70q-210 61 -324.5 209t-114.5 349q0 252 186.5 425t504.5 173
q195 0 358.5 -73.5t252 -214.5t88.5 -310q0 -207 -121.5 -360.5t-317.5 -197.5l-8 -70h275q92 0 128 28t42 90h38v-279z" />
  </g>

</svg>
