<?xml version="1.0" standalone="no"?>
<!DOCTYPE svg PUBLIC "-//W3C//DTD SVG 1.1//EN" "http://www.w3.org/Graphics/SVG/1.1/DTD/svg11.dtd" >
<svg viewBox="0 -410 2048 2048">
  <g transform="matrix(1 0 0 -1 0 1638)">
   <path fill="currentColor"
d="M810 907v36q169 0 276 -57.5t172.5 -185t65.5 -279.5q0 -129 -51 -236t-139.5 -161.5t-168.5 -54.5q-88 0 -150 50t-111 155q-55 -106 -124.5 -155.5t-155.5 -49.5q-75 0 -158.5 53.5t-134.5 165t-51 241.5q0 141 57 257q44 90 112.5 149t145.5 83.5t196 24.5v-36
q-139 -14 -229.5 -131.5t-90.5 -345.5q0 -225 69 -330q42 -63 118 -63q63 0 119.5 52t96.5 188q-44 117 -57.5 174t-13.5 109q0 97 45 167q22 35 52 35q31 0 53 -35q43 -66 43 -161q0 -116 -65 -289q39 -137 91.5 -184.5t118.5 -47.5q78 0 126 61q65 82 65 307
q0 273 -121 403q-73 79 -201 91z" />
  </g>

</svg>
