<?xml version="1.0" standalone="no"?>
<!DOCTYPE svg PUBLIC "-//W3C//DTD SVG 1.1//EN" "http://www.w3.org/Graphics/SVG/1.1/DTD/svg11.dtd" >
<svg viewBox="0 -410 2048 2048">
  <g transform="matrix(1 0 0 -1 0 1638)">
   <path fill="currentColor"
d="M930 717q12 113 12 185q0 180 -94.5 279t-251.5 99q-106 0 -176 -40t-125 -119h-46q77 158 166 229.5t215 71.5q90 0 175.5 -49t138 -158t52.5 -296q0 -353 -154 -634q-172 -316 -438 -316q-156 0 -247.5 90t-91.5 245q0 103 39 210.5t102.5 184t132 121t139 66.5
t138.5 22q83 0 149 -31t110 -77q27 -28 55 -83zM913 628q-39 111 -116.5 168t-170.5 57q-90 0 -177.5 -62.5t-151 -218t-63.5 -307.5q0 -116 55 -177.5t140 -61.5q123 0 251 130q163 166 233 472z" />
  </g>

</svg>
