<?xml version="1.0" standalone="no"?>
<!DOCTYPE svg PUBLIC "-//W3C//DTD SVG 1.1//EN" "http://www.w3.org/Graphics/SVG/1.1/DTD/svg11.dtd" >
<svg viewBox="0 -410 2048 2048">
  <g transform="matrix(1 0 0 -1 0 1638)">
   <path fill="currentColor"
d="M360 1387q140 0 213.5 -113.5t73.5 -255.5q0 -174 -84 -269t-202 -95q-135 0 -212.5 106.5t-77.5 257.5q0 105 40.5 193.5t109.5 132t139 43.5zM361 1331q-51 0 -91 -60t-40 -251q0 -140 22 -212q17 -56 53 -86q21 -18 52 -18q48 0 82 52q50 77 50 257q0 190 -49 267
q-32 51 -79 51zM1391 1387l-988 -1443h-89l988 1443h89zM1349 673q67 0 137.5 -45t109 -131t38.5 -189q0 -177 -85 -270.5t-201 -93.5q-115 0 -202 97.5t-87 266.5q0 104 39 191.5t107.5 130.5t143.5 43zM1348 620q-50 0 -85 -53q-45 -70 -45 -265q0 -180 46 -251
q34 -51 82 -51q46 0 82 55q48 73 48 251q0 188 -48 263q-33 51 -80 51z" />
  </g>

</svg>
