<?xml version="1.0" standalone="no"?>
<!DOCTYPE svg PUBLIC "-//W3C//DTD SVG 1.1//EN" "http://www.w3.org/Graphics/SVG/1.1/DTD/svg11.dtd" >
<svg viewBox="0 -410 2048 2048">
  <g transform="matrix(1 0 0 -1 0 1638)">
   <path fill="currentColor"
d="M877 192q3 -87 32 -114q42 -40 115 -40l51 -1v-37h-588v37h54q74 0 109.5 36t35.5 119q-214 9 -339 60t-200 163.5t-75 262.5q0 130 56 232q44 79 117 133.5t154 79.5q111 34 287 41q-1 86 -30 114q-42 41 -115 41h-54v37h588v-37h-51q-73 0 -108.5 -35.5t-38.5 -118.5
q223 -14 346 -66t195 -163.5t72 -257.5q0 -142 -68.5 -252.5t-199 -168t-345.5 -65.5zM877 249q197 2 301 109.5t104 319.5q0 211 -104 318.5t-301 109.5v-857zM685 249v857q-143 -5 -230 -54t-132 -151t-45 -223q0 -188 93 -305t314 -124z" />
  </g>

</svg>
