<?xml version="1.0" standalone="no"?>
<!DOCTYPE svg PUBLIC "-//W3C//DTD SVG 1.1//EN" "http://www.w3.org/Graphics/SVG/1.1/DTD/svg11.dtd" >
<svg viewBox="0 -442 2048 2048">
  <g transform="matrix(1 0 0 -1 0 1638)">
   <path fill="currentColor"
d="M590 943q199 -22 303.5 -157t104.5 -323q0 -86 -25 -166.5t-65.5 -141t-90.5 -100t-110 -60.5q-42 -14 -117 -23v-414h-112v414q-151 15 -244 95q-163 139 -163 387q0 98 25 176t67.5 137t93 96.5t107.5 56.5q41 14 114 23v479h112v-479zM478 882q-66 -16 -101 -44
q-57 -45 -91.5 -128.5t-34.5 -226.5q0 -158 40.5 -258.5t100.5 -151.5q28 -25 86 -42v851zM590 31q61 14 95 40q62 48 96 133t34 237q0 139 -31 235.5t-86 148.5q-36 34 -108 57v-851z" />
  </g>

</svg>
