<?xml version="1.0" standalone="no"?>
<!DOCTYPE svg PUBLIC "-//W3C//DTD SVG 1.1//EN" "http://www.w3.org/Graphics/SVG/1.1/DTD/svg11.dtd" >
<svg viewBox="0 -442 2048 2048">
  <g transform="matrix(1 0 0 -1 0 1638)">
   <path fill="currentColor"
d="M556 28v632q0 153 58.5 218t163.5 65q152 0 270.5 -131.5t118.5 -327.5q0 -131 -64.5 -255.5t-167.5 -184t-270 -72.5v-414h-109v414q-153 13 -255.5 73t-167 183t-64.5 254q0 111 42.5 206t101.5 150t121.5 78.5t153.5 26.5v-38q-90 -7 -159 -102t-69 -303
q0 -151 47 -257.5t118 -159.5q46 -34 131 -55zM665 30q101 11 163 47q86 49 131 141.5t45 220.5q0 181 -91 300q-66 86 -151 86q-43 0 -70 -37.5t-27 -159.5v-598z" />
  </g>

</svg>
