<?xml version="1.0" standalone="no"?>
<!DOCTYPE svg PUBLIC "-//W3C//DTD SVG 1.1//EN" "http://www.w3.org/Graphics/SVG/1.1/DTD/svg11.dtd" >
<svg viewBox="0 -410 2048 2048">
  <g transform="matrix(1 0 0 -1 0 1638)">
   <path fill="currentColor"
d="M703 667q61 147 144.5 212t219.5 65q80 0 147.5 -25t142.5 -81v-59q-117 89 -232 89q-72 0 -122 -32t-95 -109q-32 -56 -109 -263q121 -275 335 -275q124 0 223 82v-58q-110 -106 -244 -106q-91 0 -166.5 53t-176.5 235q-60 -119 -137.5 -176.5t-189.5 -57.5
q-142 0 -241.5 104t-99.5 266q0 163 92.5 264t217.5 101q90 0 156 -49t135 -180zM673 590q-49 110 -112 162t-155 52q-106 0 -177.5 -74.5t-71.5 -199.5q0 -133 70.5 -212.5t159.5 -79.5q95 0 168 85q47 56 118 267z" />
  </g>

</svg>
