<?xml version="1.0" standalone="no"?>
<!DOCTYPE svg PUBLIC "-//W3C//DTD SVG 1.1//EN" "http://www.w3.org/Graphics/SVG/1.1/DTD/svg11.dtd" >
<svg viewBox="0 -442 2048 2048">
  <g transform="matrix(1 0 0 -1 0 1638)">
   <path fill="currentColor"
d="M756 916v-888q77 15 124 56t82 139t57 353q19 211 66 289.5t158 78.5q38 0 113 -17v-33q-43 0 -64 -15q-29 -22 -47 -76t-33 -199q-23 -234 -66 -339q-32 -77 -97 -145.5t-134.5 -103t-158.5 -44.5v-414h-109v414q-136 17 -238 94.5t-152 196.5q-38 90 -66 343
q-17 152 -34 204t-45 71q-18 13 -65 13v33q84 17 115 17q59 0 109 -33.5t75 -101.5t39 -234q20 -247 54.5 -347t81.5 -141.5t126 -58.5v888h109z" />
  </g>

</svg>
