<?xml version="1.0" standalone="no"?>
<!DOCTYPE svg PUBLIC "-//W3C//DTD SVG 1.1//EN" "http://www.w3.org/Graphics/SVG/1.1/DTD/svg11.dtd" >
<svg viewBox="0 -410 2048 2048">
  <g transform="matrix(1 0 0 -1 0 1638)">
   <path fill="currentColor"
d="M914 658q120 1 199.5 43.5t114 108t43.5 201t30 191.5q29 74 99.5 120.5t190.5 49.5v-37q-70 -6 -94 -43q-18 -27 -19 -138q-3 -218 -42 -305q-50 -115 -173.5 -184.5t-348.5 -77.5v-395q0 -83 37 -119t125 -36h36v-37h-589v37h35q88 0 125 36t37 119v395
q-189 6 -299.5 53t-177.5 132q-45 57 -64 118q-13 43 -20 101l-6 231q-4 61 -28 84.5t-88 28.5v37q124 -6 190.5 -45.5t96.5 -108t38 -226.5q7 -118 41 -183t114.5 -107t202.5 -44v506q0 83 -37 119t-125 36h-35v37h589v-37h-36q-88 0 -125 -36t-37 -119v-506z" />
  </g>

</svg>
