<?xml version="1.0" standalone="no"?>
<!DOCTYPE svg PUBLIC "-//W3C//DTD SVG 1.1//EN" "http://www.w3.org/Graphics/SVG/1.1/DTD/svg11.dtd" >
<svg viewBox="0 -410 2048 2048">
  <g transform="matrix(1 0 0 -1 0 1638)">
   <path fill="currentColor"
d="M450 320h-41q7 126 31.5 208.5t101.5 229.5q60 113 78 173.5t18 121.5q0 128 -67.5 203t-165.5 75q-87 0 -137 -41t-50 -89q0 -36 30 -90t30 -82q0 -35 -23 -59.5t-55 -24.5q-44 0 -78 41.5t-34 114.5q0 113 97 199.5t264 86.5q206 0 303 -120q71 -89 71 -196
q0 -73 -32.5 -149.5t-123.5 -180.5q-145 -164 -177.5 -232.5t-39.5 -188.5zM547 84q0 -46 -32.5 -78.5t-78.5 -32.5q-47 0 -79.5 32.5t-32.5 78.5q0 47 32.5 79.5t79.5 32.5q46 0 78.5 -32.5t32.5 -79.5z" />
  </g>

</svg>
