<?xml version="1.0" standalone="no"?>
<!DOCTYPE svg PUBLIC "-//W3C//DTD SVG 1.1//EN" "http://www.w3.org/Graphics/SVG/1.1/DTD/svg11.dtd" >
<svg viewBox="0 -410 2048 2048">
  <g transform="matrix(1 0 0 -1 0 1638)">
   <path fill="currentColor"
d="M1518 678q0 -294 -207.5 -502t-501.5 -208t-502 208t-208 502t208 502t502 208t501.5 -208t207.5 -502zM1439 678q0 261 -184.5 446t-446.5 185q-261 0 -445.5 -185t-184.5 -446t184.5 -446t445.5 -185q262 0 446.5 185t184.5 446zM545 1085h297q161 0 231 -59t70 -147
q0 -93 -73 -156q-53 -45 -155 -60q46 -22 65 -39t59 -72t61 -92l78 -139h-122l-74 126q-85 147 -129.5 176t-145.5 29h-63v-331h-99v764zM644 1004v-266h97q160 0 212 16q38 11 62.5 45t24.5 71q0 55 -41.5 94.5t-209.5 39.5h-145z" />
  </g>

</svg>
