<?xml version="1.0" standalone="no"?>
<!DOCTYPE svg PUBLIC "-//W3C//DTD SVG 1.1//EN" "http://www.w3.org/Graphics/SVG/1.1/DTD/svg11.dtd" >
<svg viewBox="0 -410 2048 2048">
  <g transform="matrix(1 0 0 -1 0 1638)">
   <path fill="currentColor"
d="M1518 678q0 -294 -207.5 -502t-501.5 -208t-502 208t-208 502t208 502t502 208t501.5 -208t207.5 -502zM1439 678q0 261 -184.5 446t-445.5 185q-262 0 -446.5 -185t-184.5 -446t184.5 -446t446.5 -185q261 0 445.5 185t184.5 446zM482 1092h363q131 0 196.5 -55.5
t65.5 -136.5q0 -73 -48 -124t-155 -73l202 -259q39 -49 64 -66q18 -11 50 -15v-32h-170l-282 356h-74v-197q0 -80 18.5 -101.5t76.5 -25.5v-32h-316v32q59 4 78 26.5t19 96.5v457q0 66 -19 89t-69 28v32zM694 735q34 -2 51 -2q117 0 170 44t53 116q0 68 -47.5 113t-130.5 45
q-40 0 -96 -18v-298z" />
  </g>

</svg>
