<?xml version="1.0" standalone="no"?>
<!DOCTYPE svg PUBLIC "-//W3C//DTD SVG 1.1//EN" "http://www.w3.org/Graphics/SVG/1.1/DTD/svg11.dtd" >
<svg viewBox="0 -442 2048 2048">
  <g transform="matrix(1 0 0 -1 0 1638)">
   <path fill="currentColor"
d="M307 55v-117q0 -247 -31 -380h-171q21 64 27 104q10 68 10 171v641q0 207 130 339q130 131 328 131q226 0 344 -162q91 -126 91 -285q0 -179 -111 -330q-147 -198 -372 -198q-81 0 -147 24q-44 17 -98 62zM307 357q0 -137 24.5 -191t89.5 -91.5t148 -37.5q125 0 212 98
t87 267q0 127 -53.5 235.5t-136.5 160.5t-175 52q-115 0 -165 -89q-31 -53 -31 -235v-169z" />
  </g>

</svg>
