<?xml version="1.0" standalone="no"?>
<!DOCTYPE svg PUBLIC "-//W3C//DTD SVG 1.1//EN" "http://www.w3.org/Graphics/SVG/1.1/DTD/svg11.dtd" >
<svg viewBox="0 -410 2048 2048">
  <g transform="matrix(1 0 0 -1 0 1638)">
   <path fill="currentColor"
d="M472 803l29 292q12 114 16 134q14 64 34 98q16 25 46.5 42.5t65.5 17.5t54.5 -19t19.5 -51q0 -26 -14 -65q-38 -105 -63 -156l-141 -293h-47zM105 803l31 296q13 127 26 171q19 62 54.5 89.5t77.5 27.5q35 0 55.5 -20t20.5 -50q0 -24 -10 -53q-14 -42 -73 -166l-139 -295
h-43z" />
  </g>

</svg>
