<?xml version="1.0" standalone="no"?>
<!DOCTYPE svg PUBLIC "-//W3C//DTD SVG 1.1//EN" "http://www.w3.org/Graphics/SVG/1.1/DTD/svg11.dtd" >
<svg viewBox="0 -442 2048 2048">
  <g transform="matrix(1 0 0 -1 0 1638)">
   <path fill="currentColor"
d="M71 357q0 283 188 460q135 126 369 126q110 0 156.5 -35t46.5 -80q0 -30 -22.5 -50.5t-58.5 -20.5q-41 0 -127.5 29t-137.5 29q-88 0 -165 -51t-126 -163t-49 -214q0 -100 68.5 -169t169.5 -69q49 0 119 9t113 9q102 0 166 -69.5t64 -200.5q0 -149 -91 -244t-219 -95
q-72 0 -109 28q-28 22 -28 55q0 27 20.5 47t48.5 20q24 0 69.5 -12t79.5 -12q68 0 111.5 46t43.5 128q0 64 -33 98.5t-89 34.5q-33 0 -91 -10q-77 -13 -131 -13q-153 0 -254.5 105t-101.5 284z" />
  </g>

</svg>
