<?xml version="1.0" standalone="no"?>
<!DOCTYPE svg PUBLIC "-//W3C//DTD SVG 1.1//EN" "http://www.w3.org/Graphics/SVG/1.1/DTD/svg11.dtd" >
<svg viewBox="0 -410 2048 2048">
  <g transform="matrix(1 0 0 -1 0 1638)">
   <path fill="currentColor"
d="M919 1384v-37q-131 -13 -214.5 -52.5t-165 -120.5t-135.5 -180.5t-89 -236.5q72 50 144 74.5t144 24.5q139 0 241 -112t102 -290q0 -171 -113.5 -326.5t-317.5 -155.5q-139 0 -237 94q-189 179 -189 465q0 179 72 343.5t207.5 292.5t260 172.5t233.5 44.5h57zM298 684
q-18 -136 -18 -212q0 -172 74 -306t190 -134q87 0 155.5 82.5t68.5 234.5q0 170 -68 295t-192 125q-39 0 -82.5 -16t-127.5 -69z" />
  </g>

</svg>
