<?xml version="1.0" standalone="no"?>
<!DOCTYPE svg PUBLIC "-//W3C//DTD SVG 1.1//EN" "http://www.w3.org/Graphics/SVG/1.1/DTD/svg11.dtd" >
<svg viewBox="0 -410 2048 2048">
  <g transform="matrix(1 0 0 -1 0 1638)">
   <path fill="currentColor"
d="M905 0h-271q41 50 56 90q25 64 25 133q0 65 -20 97q-11 19 -25 19q-13 0 -24 -10q-15 -14 -30 -51q-38 -93 -82.5 -128t-99.5 -35q-76 0 -132 64.5t-56 174.5q0 60 20 107q30 69 63 112l236 310q76 98 203 296q100 -160 204 -296l239 -310q85 -112 85 -226
q0 -103 -57 -167.5t-133 -64.5q-54 0 -95.5 31.5t-84.5 130.5q-18 41 -32 54q-9 8 -19 8q-17 0 -30 -20q-19 -29 -19 -97q0 -118 79 -222z" />
  </g>

</svg>
