<?xml version="1.0" standalone="no"?>
<!DOCTYPE svg PUBLIC "-//W3C//DTD SVG 1.1//EN" "http://www.w3.org/Graphics/SVG/1.1/DTD/svg11.dtd" >
<svg viewBox="0 -410 2048 2048">
  <g transform="matrix(1 0 0 -1 0 1638)">
   <path fill="currentColor"
d="M74 667q0 310 199 515t482 205t485.5 -206t202.5 -497q0 -300 -201.5 -507.5t-488.5 -207.5q-308 0 -506 227q-173 200 -173 471zM303 670q0 -319 131 -476t322 -157q195 0 314 144q144 173 144 500q0 321 -144 495q-117 140 -310 140q-229 0 -356 -197
q-101 -159 -101 -449zM1010 916v-469h-37q2 64 -17 97t-62 50q-22 9 -81 9h-115q-84 0 -119 -35t-36 -121h-38v469h38q0 -90 36.5 -126.5t116.5 -36.5h118q86 0 122 36.5t37 126.5h37z" />
  </g>

</svg>
