<?xml version="1.0" standalone="no"?>
<!DOCTYPE svg PUBLIC "-//W3C//DTD SVG 1.1//EN" "http://www.w3.org/Graphics/SVG/1.1/DTD/svg11.dtd" >
<svg viewBox="0 -410 2048 2048">
  <g transform="matrix(1 0 0 -1 0 1638)">
   <path fill="currentColor"
d="M878 533q-190 -2 -322 73t-216 225t-84 277q0 133 97.5 223.5t254.5 90.5q121 0 219.5 -69.5t161 -223t61.5 -459.5q76 -14 105 -56q44 -64 44 -185q0 -13 -1 -38h-38q-4 83 -29.5 111t-89.5 31q-6 -145 -24 -216q-34 -135 -99 -219q-50 -63 -129 -96t-193 -33
q-141 0 -224 46.5t-118 122.5q-21 46 -26 160.5t-27 145.5t-59 31q-19 0 -51 -10l-13 33q74 28 130 28q60 0 95 -24q47 -32 69 -87q17 -42 22 -156.5t56 -167.5q51 -54 139 -54q80 0 146 45.5t103 137t40 313.5zM883 671q1 46 1 69q0 188 -30.5 345t-92.5 214t-144 57
q-96 0 -154.5 -71.5t-58.5 -241.5q0 -198 80.5 -288.5t234.5 -90.5q50 0 164 7z" />
  </g>

</svg>
