<?xml version="1.0" standalone="no"?>
<!DOCTYPE svg PUBLIC "-//W3C//DTD SVG 1.1//EN" "http://www.w3.org/Graphics/SVG/1.1/DTD/svg11.dtd" >
<svg viewBox="0 -410 2048 2048">
  <g transform="matrix(1 0 0 -1 0 1638)">
   <path fill="currentColor"
d="M104 1098q58 137 146.5 211.5t220.5 74.5q163 0 250 -106q65 -79 65 -168q0 -149 -185 -307q125 -49 189 -140.5t64 -215.5q0 -169 -104 -297q-145 -178 -436 -178q-131 0 -181 34.5t-50 75.5q0 30 24 52t57 22q24 0 50 -8q17 -5 76.5 -36t82.5 -38q39 -10 80 -10
q102 0 177.5 79t75.5 190q0 70 -29 136.5t-61 97.5q-43 40 -118.5 73t-154.5 33h-32v30q79 10 158.5 57t115.5 113t36 145q0 103 -64.5 166.5t-161.5 63.5q-154 0 -258 -166z" />
  </g>

</svg>
