<?xml version="1.0" standalone="no"?>
<!DOCTYPE svg PUBLIC "-//W3C//DTD SVG 1.1//EN" "http://www.w3.org/Graphics/SVG/1.1/DTD/svg11.dtd" >
<svg viewBox="0 -410 2048 2048">
  <g transform="matrix(1 0 0 -1 0 1638)">
   <path fill="currentColor"
d="M72 1356h645l21 -198h-33q-16 85 -60 117.5t-193 34.5v-560q0 -78 22.5 -102.5t81.5 -24.5v-31h-327v31q61 2 79 23q26 29 26 99v565q-133 -2 -171 -22q-54 -29 -80 -130h-33zM783 1356h232l263 -581l268 581h222v-35q-60 -4 -79.5 -26t-19.5 -97v-451q0 -80 30 -108
q18 -16 69 -16v-31h-326v31q45 1 64.5 11.5t30.5 36.5q9 20 9 74v487l-268 -640h-41l-293 616v-459q0 -76 22 -101t81 -25v-31h-264v31q64 4 84 27t20 98v447q0 79 -19.5 101.5t-84.5 24.5v35z" />
  </g>

</svg>
