<?xml version="1.0" standalone="no"?>
<!DOCTYPE svg PUBLIC "-//W3C//DTD SVG 1.1//EN" "http://www.w3.org/Graphics/SVG/1.1/DTD/svg11.dtd" >
<svg viewBox="0 -410 2048 2048">
  <g transform="matrix(1 0 0 -1 0 1638)">
   <path fill="currentColor"
d="M19 1335v43q74 9 115 9q102 0 195 -48t160 -127.5t105 -171.5t61 -225q45 300 191 469q89 103 221 103q87 0 137 -43.5t50 -101.5q0 -50 -31.5 -81.5t-80.5 -31.5q-38 0 -67 24t-46 85q-8 28 -18 37.5t-25 9.5q-26 0 -62 -30q-57 -49 -110.5 -166t-69.5 -236
q-28 -193 -28 -391v-270q0 -83 37 -119t126 -36h35v-37h-588v37h35q88 0 125 36t37 119v348q0 307 -66 478.5t-167 247.5t-195 76q-28 0 -76 -7z" />
  </g>

</svg>
