<?xml version="1.0" standalone="no"?>
<!DOCTYPE svg PUBLIC "-//W3C//DTD SVG 1.1//EN" "http://www.w3.org/Graphics/SVG/1.1/DTD/svg11.dtd" >
<svg viewBox="0 -410 2048 2048">
  <g transform="matrix(1 0 0 -1 0 1638)">
   <path fill="currentColor"
d="M662 908v35q122 0 236 -87q170 -132 170 -371q0 -229 -140 -372.5t-357 -143.5q-132 0 -225.5 50.5t-139.5 150.5q-34 73 -34 206l5 167q0 86 -53 175q-37 62 -46 87q-7 19 -7 40q0 40 30 69t73 29q69 0 122.5 -67t53.5 -200q0 -52 -7 -137.5t-7 -150.5q0 -110 36 -189.5
t101.5 -120.5t134.5 -41q72 0 148 46t124.5 153t48.5 252q0 181 -71 283.5t-196 136.5z" />
  </g>

</svg>
