<?xml version="1.0" standalone="no"?>
<!DOCTYPE svg PUBLIC "-//W3C//DTD SVG 1.1//EN" "http://www.w3.org/Graphics/SVG/1.1/DTD/svg11.dtd" >
<svg viewBox="0 -442 2048 2048">
  <g transform="matrix(1 0 0 -1 0 1638)">
   <path fill="currentColor"
d="M969 1058l26 -43q-184 -109 -262.5 -238t-78.5 -256q0 -41 8 -80.5t24 -76.5q347 368 500 455t276 87q110 0 186 -80t76 -210q0 -151 -81 -292t-220.5 -241.5t-255.5 -100.5q-100 0 -160.5 57t-60.5 140q0 82 41 130.5t96 48.5q33 0 53.5 -21.5t20.5 -51.5t-27.5 -58.5
t-65.5 -31.5q-27 -2 -41 -17q-14 -16 -14 -42q0 -37 37 -68q50 -42 109 -42q56 0 127.5 46t131.5 138.5t98.5 219.5t38.5 227q0 84 -44.5 135t-103.5 51q-64 0 -126 -30q-119 -58 -285.5 -207t-281.5 -291q145 -297 145 -435q0 -92 -36.5 -171t-95.5 -115t-114 -36
q-48 0 -106 30t-87.5 83.5t-29.5 133.5q0 78 30 153t138 232q-30 74 -45.5 135t-15.5 109q0 149 115.5 313t360.5 311zM577 139q-106 -163 -119 -198q-26 -66 -26 -138q0 -88 51 -143t116 -55q54 0 91 39.5t37 107.5q0 53 -32 141q-44 120 -118 246z" />
  </g>

</svg>
