<?xml version="1.0" standalone="no"?>
<!DOCTYPE svg PUBLIC "-//W3C//DTD SVG 1.1//EN" "http://www.w3.org/Graphics/SVG/1.1/DTD/svg11.dtd" >
<svg viewBox="0 -442 2048 2048">
  <g transform="matrix(1 0 0 -1 0 1638)">
   <path fill="currentColor"
d="M345 1422v-35q-58 -10 -80 -33.5t-22 -57.5q0 -42 28.5 -69t90.5 -30q112 100 184 138t127 38q26 0 43.5 -16t17.5 -38q0 -50 -54 -89q-87 -63 -274 -81q-105 -90 -105 -184q0 -93 131 -147q100 40 176 59.5t129 19.5q47 0 68 -17.5t21 -45.5q0 -35 -35 -57
q-63 -40 -188 -40q-36 0 -76 4t-83 11q-123 -52 -198.5 -154.5t-75.5 -212.5q0 -85 40.5 -138.5t101.5 -75.5q37 -14 115 -14q80 0 159 6q108 7 142 7q97 0 162 -70q65 -71 65 -196q0 -159 -88.5 -252.5t-218.5 -93.5q-69 0 -104.5 28t-35.5 60q0 26 20 45t48 19
q21 0 75 -14t77 -14q66 0 111.5 46t45.5 120q0 62 -36.5 99.5t-88.5 37.5q-29 0 -96.5 -8.5t-133.5 -8.5q-158 0 -242.5 38t-140.5 129t-56 206q0 124 64 241.5t207 198.5q-131 81 -131 185q0 87 84 181q-73 17 -110.5 58t-37.5 88q0 51 39.5 87t138.5 42z" />
  </g>

</svg>
