<?xml version="1.0" standalone="no"?>
<!DOCTYPE svg PUBLIC "-//W3C//DTD SVG 1.1//EN" "http://www.w3.org/Graphics/SVG/1.1/DTD/svg11.dtd" >
<svg viewBox="0 -410 2048 2048">
  <g transform="matrix(1 0 0 -1 0 1638)">
   <path fill="currentColor"
d="M74 667q0 157 37 300.5t115 248.5q59 80 136 124t153 44q157 0 281 -159q155 -198 155 -536q0 -236 -68 -402t-173.5 -240.5t-203.5 -74.5q-194 0 -323 230q-109 194 -109 465zM270 664q0 -375 95 -531q58 -94 144 -94q54 0 112 49t88 163q46 172 46 491q0 227 -48 382
q-36 113 -93 161q-41 33 -99 33q-68 0 -121 -61q-71 -83 -97.5 -259.5t-26.5 -333.5z" />
  </g>

</svg>
