<?xml version="1.0" standalone="no"?>
<!DOCTYPE svg PUBLIC "-//W3C//DTD SVG 1.1//EN" "http://www.w3.org/Graphics/SVG/1.1/DTD/svg11.dtd" >
<svg viewBox="0 -450 2048 2048">
  <g transform="matrix(1 0 0 -1 0 1638)">
   <path fill="currentColor"
d="M492 1103q-157 -141 -239.5 -326t-82.5 -363q0 -88 29.5 -149.5t81.5 -86t173 -24.5q70 0 220 9q39 2 61 2q98 0 162 -70q63 -71 63 -200q0 -161 -88 -253t-224 -92q-68 0 -101 26t-33 59q0 30 21 49.5t57 19.5q16 0 71.5 -15t87.5 -15q51 0 94 47.5t43 117.5
q0 62 -39 101t-104 39q-23 0 -73 -5q-135 -13 -197 -13q-211 0 -297.5 116.5t-86.5 322.5q0 186 77 371.5t238 343.5q-60 21 -87 57t-27 81q0 50 35.5 90t135.5 72l17 -35q-103 -46 -103 -130q0 -29 17.5 -49.5t68.5 -35.5q138 105 265 163q90 40 130 40q28 0 41.5 -12
t13.5 -33q0 -63 -134.5 -136t-286.5 -84z" />
  </g>

</svg>
